<?xml version="1.0" standalone="no"?>
<!DOCTYPE svg PUBLIC "-//W3C//DTD SVG 1.1//EN" "http://www.w3.org/Graphics/SVG/1.1/DTD/svg11.dtd" >
<svg xmlns="http://www.w3.org/2000/svg" xmlns:xlink="http://www.w3.org/1999/xlink" version="1.1">
<metadata>
Created by FontForge 20190801 at Mon Jul 30 20:03:57 2018
 By Jimmy Wärting
DenisEspinoza
</metadata>
<defs>
<font id="LeoHand" horiz-adv-x="572" >
  <font-face 
    font-family="LeoHand"
    font-weight="500"
    font-stretch="normal"
    units-per-em="1000"
    panose-1="2 0 6 3 0 0 0 0 0 0"
    ascent="800"
    descent="-200"
    x-height="399"
    cap-height="660"
    bbox="-298 -733 1113.4 1046"
    underline-thickness="50"
    underline-position="-150"
    unicode-range="U+0020-F8FE"
  />
<missing-glyph horiz-adv-x="364" 
d="M66 33h199v600h-199v-600zM33 0v666h265v-666h-265z" />
    <glyph glyph-name=".notdef" horiz-adv-x="364" 
d="M66 33h199v600h-199v-600zM33 0v666h265v-666h-265z" />
    <glyph glyph-name=".null" horiz-adv-x="0" 
 />
    <glyph glyph-name="nonmarkingreturn" horiz-adv-x="333" 
 />
    <glyph glyph-name="space" unicode=" " horiz-adv-x="237" 
 />
    <glyph glyph-name="exclam" unicode="!" horiz-adv-x="227" 
d="M112 229q-2 1 -5 7t-4 7l1 1v2h-1h-1v2q1 1 1 1.5t-1 0.5h-1l1 2v1q-3 17 8 79l-1 1q0 2 1 5t1 5v4v4t2 4t2 5q2 4 4 10.5t3 10.5q1 1 2.5 4.5t1.5 5.5q2 6 3 16.5t1 12.5q0 1 1.5 12.5t2.5 16.5q1 6 4.5 17t4.5 15q0 2 -0.5 3.5t0.5 3.5q0 1 1.5 3t1.5 3q1 2 1 4.5v3.5
v2t1.5 1.5t1.5 1.5q3 10 4 16l-1 1l3 4q3 9 14 54q1 3 3 9.5t2 8.5l-1 2q1 2 2 3l2 2q4 13 13 33q1 2 3.5 8.5t4 9t4 8t5 9.5t4.5 5v2l1 2h1q0 -1 1 -1l1 2v2l2 1h2q1 1 2 2.5t4 1.5q1 0 2 1q3 1 12 -1t9 -4l4 -3q4 -3 5 -6q0 -1 1.5 -1t2 -0.5t0.5 -2.5l1 -2q2 -3 6.5 -8
t7.5 -9t3 -7q-1 -7 -8 -35q-2 -8 -7 -21t-7 -19q-1 -3 -2 -9.5t-1 -9.5q-1 -4 -5.5 -21t-5.5 -24v-2q-1 -2 -2 -2q0 -2 0.5 -3.5t0.5 -2.5q-2 -11 -7.5 -35t-6.5 -29q0 -1 -11 -30q0 -1 1.5 -4.5t1.5 -4.5q1 -5 -1 -14q-1 -2 -3 -3t-2 -4l1 -2q-1 -2 -2 -7t-2 -9
q-1 -2 -1.5 -3.5t-1.5 -1.5l-3 1q2 -2 2.5 -4.5t0 -3.5t-1.5 -4l-1 -2q-6 -15 -8 -31q0 -1 -0.5 -3t-0.5 -3t0.5 -2.5t0 -3t-2 -3.5t-1.5 -3q-3 -8 -2 -16v-3.5v-3.5q0 -2 2 -4l2 -3q0 -8 -10 -26q-7 -12 -9 -13l-4 -4q-1 -2 -12 1l-4 -3l-4 -2q-1 0 -16.5 4.5t-24.5 10.5z
M144 26l-4 -4l-2 -3v0q-1 0 -1 -1h-1v0l-1 -1h-1q-6 -3 -25 1l-1 -1l-1 1h-1.5t-1.5 -0.5t-1.5 0l-1 1l-1.5 1.5t-3 2t-3 1q0 1 -1 1.5t-1 1.5h-4.5h-4.5h-4t-5 0.5t-5 2t-4 1.5h-1h-1l-1 1v1h-3q-1 0 -0.5 0.5t-0.5 0.5l-4 2l-1 1q-2 2 -14 4q-1 0 -3 1l-1 1l-1 -1
q-1 0 -1 1v1q-3 2 -7 6q0 1 -1.5 2t-2 2t-1.5 2q-2 2 -1 4q0 1 -0.5 1t-0.5 1v1v1t1 1v6h1v1q6 16 8 17l3 4q2 3 3 4l1 2q0 1 0.5 1t1.5 1v1q2 2 4.5 6.5t4.5 7t4 2.5q2 1 7 -2q2 0 4 -2.5t4 -3.5l2 -1h2q1 -1 4.5 -3t5.5 -2h1h1h1q3 0 8.5 -2.5t6.5 -2.5l7 -7l3 3h2
q1 0 2 -0.5t0.5 -2t0.5 -1.5l1 1l2 -1q1 -1 2 -1q2 -1 1 -2l-1 -1v-1q3 4 4 1l1 -1q3 -3 8 -3l1 -1q1 0 1.5 0.5t0.5 0t0.5 -1t1.5 -0.5q2 -2 4 -1h1.5t1 0.5l1.5 1.5l1 1q3 1 7 -5q3 -4 3 -5v-3q1 -1 -2 -9l1 -2v-3l-4 -11q-3 -11 -6 -18z" />
    <glyph glyph-name="quotedbl" unicode="&#x22;" horiz-adv-x="331" 
d="M283 391q-1 1 -5 4.5t-4 4.5q-1 0 0 1v1v0h-1.5t-0.5 1l1 1h-1h-1l1 1v1q-5 13 1 51l-1 1q0 1 0.5 3t1.5 3q0 1 -0.5 3t-0.5 3q1 1 2 2.5t2 2.5q1 3 2.5 7t2.5 6q0 1 1.5 3t1.5 3q1 4 1.5 10.5t0.5 7.5q0 2 1 8.5t1 9.5q1 3 3 9.5t3 9.5l-1 1q0 2 0.5 3t1.5 2l1 1
q1 2 0 5v1h1l1 1q2 6 3 10h-1h-1l2 2q1 5 0.5 6.5t-2 5t-1.5 5.5q0 1 -0.5 5t-0.5 5l-2 1v3l1 1q0 16 7 29q2 4 14.5 8.5t18.5 4.5q2 0 7.5 0.5t8 0.5h4.5q0 -1 1 -0.5t1.5 0.5t0.5 -0.5t1 -0.5h1v-1h1q1 -2 1 -3h1q0 -8 -1 -9v0v-2q0 -2 -1 -3v-1h-1q0 -1 -1 -1
q-8 -9 -9 -9l12 -1q8 1 14 3q1 0 1.5 -1t0 -3t0.5 -5q0 -1 1 -5t2 -6q1 -11 -5 -42v-1q-1 -1 -1 -2l1 -1v-2q-1 -7 -5 -22t-4 -17q0 -1 -8 -18l1 -3l2 -2q1 -4 -1 -9q-1 -1 -2.5 -1.5t-1.5 -2.5l1 -1q0 -1 -1 -4.5t-1 -5.5q-1 -3 -3 -2h-2q4 -3 1 -7v-1q-5 -9 -4 -18
q0 -1 -0.5 -2t-0.5 -1.5t0.5 -1.5t0.5 -1.5t-1 -2t-1 -2.5q-2 -4 -1 -9q1 0 1 -1.5t0.5 -2.5t2 -2t1.5 -2q2 -4 -4 -14q-5 -7 -6 -7l-3 -3h-11l-3 -2l-3 -1q-38 6 -39 6zM118 384q-2 0 -6.5 2.5t-5.5 2.5q0 1 0.5 1.5t-0.5 0.5h-1v1v1h-1h-1v1q-7 9 -11 45h-2v3v3t-1 2.5
t-1 2.5t1 3t1 3q0 3 0.5 7t0.5 7q0 1 1 3t1 3q0 4 -1.5 10.5t-1.5 7.5l-3 18q0 4 0.5 11.5t0.5 9.5q0 1 -1 2t-0.5 2l1.5 3v1q1 2 0 5l-1 1q0 1 1 1l1 1q1 7 1 10h-1l2 3q0 3 4 33q0 1 1 5t1 5l-1 1q0 1 1 1.5t1 1.5q3 8 8 18q1 0 2.5 3.5t2.5 5t3 4t3.5 4.5t2.5 2t1 1v1h1
q1 0 1 0.5v1t1 0.5l2 -1q5 2 5 1h1l1 1q14 -2 16 -6q1 0 4 -2t4 -4l1 -1h2l1 -1l1 -1q2 -2 6 -4.5t7 -5t3 -3.5q1 -3 0 -15q0 -4 -2 -9.5t-3 -8.5v-4.5v-4.5q0 -3 -0.5 -8t-0.5 -7.5v-6.5v-1.5v-1.5t0.5 -1.5t0.5 -1.5q1 -5 1.5 -18t0.5 -17l-4 -18l2 -1q3 -2 3 -3
q2 -3 2 -8q0 -2 -1.5 -2.5t-1.5 -2.5l1 -1q0 -1 0.5 -4t0.5 -6q-1 -3 -2 -3h-3q6 -2 4 -6q-1 -1 -1 -2q-2 -9 1 -18v-2v-1.5t1 -1.5t1 -1.5t-1 -2.5l-1 -2q0 -5 2 -9q1 -1 1 -2t1 -2t3 -2l2 -1q2 -4 -3 -16q-3 -7 -4 -8q-3 -2 -3 -3q-1 -1 -11 -1q-1 0 -3.5 -2t-3.5 -2
t-18 -0.5t-21 0.5z" />
    <glyph glyph-name="numbersign" unicode="#" horiz-adv-x="569" 
d="M329 422q-10 -1 -15 -2q-5 0 -19.5 -1t-22.5 -2q-3 0 -5 -1t-4 -1h-5h-3q-3 0 -6 -0.5t-5 -0.5l-2 -1q-1 0 -2.5 0.5t-1.5 -0.5q-9 -1 -17 -2q-3 -10 -9 -35.5t-9 -35.5q0 -3 -16 -52q-1 -3 1 -13l2 1q10 1 89 8q8 1 16 1q2 6 4.5 17t2.5 14l4 16t4.5 18.5t5.5 20t6 19.5
q1 2 1 4.5v4.5q1 2 2.5 4.5t1.5 3.5q1 3 1 6v5l1 2v2zM603 406q-2 -2 -9.5 -3.5t-8.5 -1.5l-2 1h-2l-1 -1l-2 1h-2v-1q-1 0 -2 1h-2q-18 1 -58 8t-45 8l-2 -1q-3 0 -6.5 0.5t-6.5 0.5h-5.5h-4.5q-2 1 -6 2t-6 1q-9 1 -20 2q-3 -15 -22 -83q-1 -4 -15 -38q-1 -2 -0.5 -4
t1 -4.5t0.5 -3.5v0q1 0 8.5 0.5t12.5 0.5l7 -1v-3q4 4 20 3q21 -1 41 1h4h4t2.5 0.5l3 1t5 -0.5t4.5 -1q9 0 18 2q1 0 3.5 0.5t3.5 0.5q2 0 4 1.5t3 2.5q8 1 26 -3q11 -3 13 -4q2 -2 4 -2q1 -1 1 -9l2 -2q2 -2 2 -3v-11q-1 -12 -4 -19q0 -2 -4 -5l-5 -3h-1h-1.5t-0.5 -1
t-1 -0.5t-1.5 0.5t0 -0.5t0 -1t-1.5 -0.5l-1 1q-14 -5 -85 -8l-2 -1h-5.5h-6.5q-1 0 -4.5 -0.5t-5.5 -0.5t-6.5 0.5t-6.5 0.5h-16.5h-13.5q-2 0 -7.5 0.5t-7.5 0.5q-9 0 -27 -2l-1 -3q-8 -18 -11 -37q0 -1 -1 -3.5t-1 -4.5q-1 -1 -0.5 -2.5t-0.5 -3.5q0 -1 -1.5 -4l-2.5 -5
q-3 -9 -3 -20q0 -1 -0.5 -3.5t-0.5 -4.5t1.5 -5t1.5 -4q-1 -9 -11 -35q-7 -17 -8 -19q-3 -3 -4 -6q-1 -2 -11 0l-4 -4q0 -1 -1 -2q-2 -3 -3 -2q-4 1 -11 3.5t-12.5 5t-11.5 6.5q-2 2 -4 10t-2 9q-1 0 0 2l1 2h-1q-1 0 -1 1l1 2v2q-1 0 -1 1l1 2v2q-1 29 19 104v3q0 2 1 5
q-13 0 -20 -1q-2 0 -4.5 -0.5t-4.5 -1.5h-6l-3 1q-4 0 -6.5 -0.5t-4.5 -0.5l-2 -1q-1 0 -3 1h-1q-12 -1 -20 -2v-1l-6 1h-17q0 -2 -1 -4l-3 -7q-1 1 -3 1q3 -6 -2 -22q-8 -23 -11 -44q-1 -2 -1.5 -4.5t-0.5 -4.5v-2.5v-3.5l-2.5 -5t-1.5 -4q-3 -10 -3 -19v-3v-4t1 -4l1 -3
q1 -9 -8 -24q-5 -8 -6 -9q-3 -1 -4 -2q0 -1 -10 1l-3 -1l-3 -2l-35 10q-2 1 -5 6l-3 4q-1 0 -0.5 1t0.5 1.5t-1 0.5v1v1q-1 0 -1 0.5v1.5l1 1q-3 17 12 87l-1 3q1 2 2 6t1 7q1 2 1 5.5t0.5 6t2.5 7t3 6.5q1 5 3 10q-18 1 -39 4q-2 1 -6.5 1.5t-8.5 1t-6 1.5q-27 7 -27 8
q-1 1 -2.5 1h-2t0 0.5t0.5 1.5h-2.5t-2 0.5t-1 1.5t-0.5 2q-1 1 -3 2t-2 4l-1 1q-1 0 -1 1q0 2 1.5 10t3.5 9l3 3q3 4 6 5v1q0 1 0.5 1.5t2.5 1.5h2q3 2 7.5 6t8 6t5.5 2q7 -1 18 -3.5t17 -2.5q3 -1 18.5 -3.5t24.5 -3.5h3q4 20 5 24q0 1 3.5 20t5.5 29q3 10 8 28.5t6 24.5
l-17 -3l-2 -2h-3h-3q-16 -4 -42 -10q-1 0 -11 -2.5l-14 -3.5q-28 -3 -30 -2h-3l-2 -1v1v1l-2 -1h-2.5t-0.5 1l-1 1q-2 1 -4 1t-2 2l-1 1h-1q-1 2 -1.5 9t1.5 8q1 0 2 4q1 3 3 4v1q-1 1 -0.5 1.5t1.5 1t1 1.5q1 1 3 5.5t4 7.5t5 4q10 5 39 14q13 5 56 13q5 1 13 3l12 3
q8 1 20 3q1 2 1 3l-1 1l3 7q5 15 21 79q1 4 3.5 12.5t3.5 10.5l-1 3q0 1 1.5 3t1.5 3q5 17 14 37q1 2 3.5 8.5t3.5 9.5q2 2 4 7t4 8.5t3 3.5l1 1v2v0h1.5t0.5 1.5t0.5 1.5h1.5h2q4 3 5 3h1l1 1q2 0 9 -1.5t8 -3.5l3 -2q4 -3 5 -5h1q1 0 1.5 -0.5t1.5 -2.5v-1q1 -2 5.5 -6
t6.5 -7.5t2 -5.5q-1 -7 -7 -34q-2 -8 -7.5 -23t-7.5 -23q-1 -4 -3 -13t-3 -12q-2 -9 -6.5 -26.5t-6.5 -24.5q21 3 61 7q7 1 44 1q2 0 8 2q7 29 9 36q1 4 4.5 12t4.5 10l-1 3q1 1 2.5 3t1.5 3q5 14 18 41q1 3 4 10.5t4 10.5t3.5 8.5t4 9.5t3.5 5v2v1h1h1v1v2h2q1 0 1 1
q1 0 2 1.5t3 1.5h2v1q2 1 10.5 0.5t8.5 -2.5q1 0 5 -2t5 -5h1q1 0 1.5 -0.5t1 -2t1.5 -2.5t5.5 -6.5t6.5 -9.5t1 -7q-2 -10 -12 -43q-4 -10 -11 -26.5t-10 -24.5q-2 -6 -5 -23q-1 -1 -2 -8q2 0 11 -1q22 -3 45 -3q1 0 4 -0.5t5 -0.5q1 0 3 0.5t4 0.5t5.5 -1.5t5.5 -1.5
q11 -2 23 -2h5h5t5.5 1.5t4.5 1.5q13 0 39 -11q17 -7 20 -9q3 -3 6 -4q2 -1 -1 -11l3 -4l4 -4q-1 -2 -7 -14.5t-12 -19.5z" />
    <glyph glyph-name="dollar" unicode="$" horiz-adv-x="564" 
d="M325 289q-2 -5 -6.5 -14l-6.5 -13q-1 -2 -2 -6t-1.5 -7.5t-0.5 -4.5q-4 -11 -12 -28q-3 -5 -5 -6.5t-4 -6.5l-1 -4q-2 -4 -6.5 -14t-8.5 -17l-5 -8l-2 1q1 -7 -10 -26q-14 -26 -25 -53q-1 -2 -2.5 -5.5t-2.5 -5.5q0 -1 -1 -4q84 -10 161 13l4 4q22 15 28 20q6 6 16 22
q10 14 16 26q24 47 20 66q-1 1 0 1q5 2 6 7.5t-3.5 13.5t-13.5 13q-23 15 -101 30q-14 2 -31 6zM290 375q7 16 11 29q1 4 2 8.5t2 7.5q2 4 4 9t3 7q2 5 3 10t2 8t1 4q0 2 1.5 3.5t1.5 2.5q5 17 10 31h-1l4 9q8 23 23 74q-53 -5 -102 -22q-38 -13 -55 -32
q-13 -14 -17.5 -30.5t-2 -27t7.5 -13.5v-3v-1q-3 -15 28 -37t74 -37zM122 -71q-3 1 -2 13l1 12l1 2q1 3 1 4h-1q0 1 1 4l1 2l-1 1l1 3q1 2 1 3l4 16q-40 9 -63 21q-43 24 -52 49q-2 6 -7 24q0 4 1.5 6.5t3.5 3t7 1.5t6 1q2 0 2.5 2.5t0.5 6.5t1 6q4 15 5 14q17 -3 74 -9
q3 0 10 -4t8 -4t0.5 -2.5t0.5 -2.5h1l1 1v-3q0 -2 1 -3l1 1v1q1 0 1 -3l1 -3q13 -7 30 -13q6 12 14 32l1 4l3.5 7t3.5 9q1 2 3 6.5t3 7t4.5 8t4.5 7.5q5 9 11 21.5t8 16.5q2 3 5.5 9.5t5.5 10.5q4 9 22 54q4 11 10 27q-25 4 -44 8q-5 1 -13 2t-14 3q-7 1 -16 4.5t-10 3.5
q-12 3 -25 6.5t-16 4.5q-4 1 -7 3.5t-5 3.5q-37 18 -64 50l-1 -1h-2q-2 3 -4 9.5t-3 11.5v5q12 62 53 111t84 70q5 2 67 24l7 3q2 0 21 4q65 13 106 15q1 2 3 5t2 4q12 28 27 58q14 27 15 30q23 35 25 37l2 3q1 2 1 3l1 -1l2 2q1 3 1.5 3.5t2 1t1.5 1.5q2 1 4 4q2 2 4 2
q1 0 2 2l1 1q2 0 7.5 -2t5.5 -3q-1 -1 0 -5t0 -8q0 -1 1 -1h1q0 -1 -0.5 -3.5t-1.5 -3.5q0 -2 1 -17.5t-1 -16.5q-4 -8 -11.5 -27t-11.5 -29q0 -1 -16 -40q20 -1 33 -3q66 -12 78 -22q1 -1 6 -2.5t6 -2.5h-1l-1 -1q1 -1 6 -3t6 -3t1 -3t1 -3q3 -4 6 -7t3 -3.5v-5.5
q0 -1 1 -3l1 -2q-1 -4 -12 -13.5t-14 -8.5q-2 1 -9 -1t-10 0q-1 0 -3 -2l-1 -1q-1 0 -3 1t-3 1q-6 1 -11.5 0.5t-12 0.5t-11.5 3q-36 18 -76 22q-3 -10 -8.5 -28.5t-10 -33t-6.5 -23.5q-1 -1 -2 -4.5t-1 -4.5q-1 -2 -1.5 -5.5t-0.5 -4.5q-12 -41 -39 -115q58 -11 109 -22
q4 -1 12 -2t15 -1h7q46 -7 65 -18q10 -5 13.5 -8t4 -4.5t4.5 -6t11 -11.5q2 0 4 -3q5 -5 5 -3q11 -27 11.5 -48.5t-11.5 -57.5q-1 -5 -5.5 -10.5t-7.5 -8.5l-4 -4q2 7 0 8l-3 -4q-1 -1 -1 -2q-3 -14 -20 -36t-32 -34q-54 -39 -136 -71q-4 -2 -8.5 -3t-10.5 -2.5t-9 -2.5
q-2 -1 -8 -3t-13 -4q-12 -2 -36 -5q-46 -5 -72 -7q-7 -1 -16.5 -1h-11.5q-7 0 -15 -1q-2 -6 -5 -12t-5.5 -11.5t-3.5 -7.5q-11 -23 -12 -25q-3 -4 -5 -8q-1 -2 -9 0l-4 -6l-4 -5q-3 3 -9 6t-10 6t-7 8zM605 281v0v0z" />
    <glyph glyph-name="percent" unicode="%" horiz-adv-x="787" 
d="M372 586q-3 1 -7 2q-5 0 -8.5 1t-6.5 3q-24 14 -42 14q-27 -1 -56 -17q-11 -7 -23 -19q-28 -30 -39 -59q-2 -5 -2 -7q-1 -2 -1 -7q-4 -48 6 -77q9 -23 19 -36q1 -2 9 -4q16 -6 17 -6q3 -1 5 -1q2 -1 6 -1l2 1q11 1 25 6l7 2v-1q3 2 10.5 6.5t9.5 6.5q22 16 38 37q4 7 6 9
q0 2 1 4l2 4q1 1 3.5 5t3.5 6q6 13 7 24q1 8 1 10q0 3 -1 6.5t-1 4.5q-1 9 -0.5 14.5t1 12.5t0.5 9q1 4 0.5 12t-0.5 9q1 4 1 8q-1 2 7 5v7v3v3zM682 297q4 -2 4 -4q1 0 3 -2.5t2 -3.5h-1q0 -1 2 -3.5t2 -3t-0.5 -2t-0.5 -2.5q0 -3 1 -6.5t-1 -5.5q-1 0 -1 -2v-2
q-1 -2 -9.5 -5.5t-9.5 -1.5q-1 1 -6 2t-7 3h-2q-1 -1 -1.5 -1t-2.5 1l-1 2q-3 1 -7 1h-6t-2 1q1 7 -2.5 11t-9.5 1q-16 -9 -37 -36q-8 -10 -15 -26q-16 -39 -13 -62v-2.5t0.5 -2.5t1.5 -2t1 -2q1 -13 14 -30.5t38 -20.5q47 -6 93 8q5 2 13 10q13 13 16 18q2 3 4 4t3 5l1 2
q2 9 5 23l2 6l2 -1q-3 5 -2 18q1 20 -4 38q0 1 -0.5 3.5t-1.5 3.5q0 1 -1 2.5t-1.5 3t-0.5 5t-1 4.5q-2 10 -8 18l-5 6q-1 2 -3.5 3t-2.5 2q-24 21 -32 23q-5 2 -10 2zM404 590q5 -1 8 -5t6.5 -9.5t4.5 -6.5q0 -1 0.5 -4t1.5 -3h1v-4l1 -3q0 -1 1 -1l1 1q0 -1 1 -8
q3 -35 -15 -77t-47 -74l-2 -3q-3 -3 -16 -12q-10 -8 -13 -9q-7 -4 -17 -9q-22 -10 -41 -14q-8 -2 -20 -4q-33 -3 -52 0q-35 5 -56 24q-25 22 -36 64q-3 10 -3 14q0 1 1 15q1 4 1.5 9t0.5 7.5t1 4.5q0 2 1 3.5t2 2.5q5 15 13 32h-1l6 8q41 52 75 74q3 2 29 15l3 2q2 1 9 3
q31 9 57 10q18 1 31 -2q31 -6 39 -14q1 0 4 -1l2 -2v-1l2 -1q3 -2 3.5 -2.5t0.5 -1.5l1 -2q6 -8 6 -9t1 -2l1 -1q0 -1 -1 -3q2 0 4 -1zM646 319q4 3 9 5t10.5 2.5t6.5 1.5h4h4v1h4h3q1 0 0 1h8q37 -2 76 -27.5t61 -64.5l2 -3q2 -6 4 -23q2 -15 2 -18q-1 -10 -5 -23
q-10 -27 -24 -46q-6 -9 -18 -19q-30 -25 -58 -36q-36 -14 -88 -18q-48 -3 -99 8q-13 2 -17 4q-6 2 -15 8q-18 12 -21 15q-2 2 -3 4.5t-1 3.5q-10 17 -13 39h-1h-1l2 12q20 68 51 106q3 5 8.5 9.5t11 9.5t6.5 6l2 3q1 0 9 5q29 16 54 22q10 2 20 2q2 7 6 10zM221 15
q-2 1 -1 9v9q0 1 1 2t1 2q-1 0 -1 1l1 2l1 1q0 1 -1 1v0l2 2l1 2q9 27 66 118l1 3q1 3 4.5 8t5.5 8q2 2 4 7t4 7.5t6.5 7.5t5.5 8q6 8 14.5 19.5t13.5 18.5q3 3 8 9.5t7 9.5q7 10 19 29t16 25q32 50 36 54q8 12 23.5 33.5t18.5 24.5q2 3 4 6.5t3 5.5q3 3 6 6.5t4 4.5
q3 4 5.5 7.5t4 6t2.5 3.5q1 2 2.5 3t2.5 2q16 20 21 27h-1v1l7 7q10 12 22 27t24 31t17 21q3 4 10 12t8 10l1 3q2 2 4 3.5t3 1.5q16 18 35 34q1 2 5 5t7 6t5 4q21 15 22 15l1 1q1 2 1.5 2t0.5 -1q1 0 2 1t1.5 1t1.5 -0.5t1 0.5h6h1h1q2 0 6 -4t4 -5t1 -4t0 -5v-1l1 -1l-1 -1
v-3q0 -2 1 -7t1 -9t-2 -6q-3 -4 -24 -31q-6 -7 -18.5 -21t-19.5 -22q-4 -4 -10.5 -13t-8.5 -12q-48 -64 -50 -66q-1 -2 -3 -4.5t-3 -3.5l-2.5 -5t-2.5 -4q-12 -18 -41 -58.5t-39 -54.5q-7 -11 -14.5 -21t-16 -20t-12.5 -15q-1 -2 -2.5 -6t-2.5 -8l-2 -3q-5 -11 -17 -27
q-3 -5 -5.5 -6.5t-6.5 -6.5l-1 -4q-3 -4 -9.5 -14t-11.5 -17l-7 -7l-2 1q0 -8 -14 -26q-20 -26 -35 -54q-1 -1 -3.5 -4.5t-3.5 -5.5q-1 -1 -1.5 -3.5t-2 -4.5l-4.5 -6t-5 -6q-8 -11 -13 -24l-2.5 -5l-2.5 -5q-1 -3 -1 -6.5t-1 -4.5q-4 -11 -23 -33q-11 -13 -13 -14
q-4 -2 -5 -4q-2 -1 -10 4l-4 -2l-5 -2q-3 3 -9 6.5t-10.5 7.5t-8.5 9z" />
    <glyph glyph-name="ampersand" unicode="&#x26;" horiz-adv-x="641" 
d="M226 315q34 15 54 30q31 21 49.5 50.5t21.5 57.5q0 6 -2 12t-2 8q-1 6 0 16q2 19 1 22q-2 9 -5 9q-15 5 -33 -0.5t-31 -16.5h1l-15 -14q-47 -59 -51 -103q-5 -47 12 -71zM185 248q-15 -9 -21 -14q-36 -28 -44 -41q-3 -5 -5 -8t-3 -3.5t-2 -2t-2 -4.5t-3 -8l-1 -7
q-2 -17 1 -56q1 -2 1 -5.5v-6.5v-2q-3 4 -4 2q-1 -1 1 -3q3 -3 12.5 -18t14.5 -18q45 -31 121 -22q12 2 32 7q4 1 7.5 2t7.5 2.5t10 2.5q32 10 42 14q13 5 26 11q-5 4 -11 9q-33 32 -85 84.5t-62 61.5q-4 5 -9.5 8.5t-12.5 8t-11 6.5zM693 261q1 -7 -2 -15t-10 -17t-8 -11
q0 -1 -4.5 -5t-5.5 -5q0 -1 1 -1q0 -1 -5 -5q-4 -4 -5 -6v-1q-2 -3 -11 -10q-66 -54 -171 -106l23 -23q11 -11 29 -27.5t31.5 -28.5t16.5 -15q0 -1 4.5 -4t5.5 -4v-1h-1q1 -1 4.5 -3.5t4.5 -3t1.5 -2.5t1.5 -2q2 -3 4 -4.5t3 -2t1.5 -1.5t1.5 -2q0 -1 1 -2l2 -1q1 -2 1 -7.5
t-2 -5.5q-1 0 -6 -1q-5 -2 -11 -1q-1 0 -1 -1v-1q-1 0 -3.5 0.5t-5.5 1.5l-3 1q-4 1 -16.5 3t-18.5 4t-16 6t-18 9q-46 33 -105 86q-85 -36 -163 -56l-8 -2q-25 -2 -49 -2t-39 2q-29 4 -43 11q-36 17 -56.5 35.5t-34.5 54.5q-15 41 18 89q43 62 124 103q3 1 7 3
q-21 41 -14 88t24.5 83.5t40.5 59.5q5 5 22 17q20 13 23 14q24 8 53.5 10.5t60 -1.5t54 -20.5t29.5 -44.5q7 -32 -10.5 -67.5t-41 -57.5t-48.5 -38q-40 -24 -86 -44q8 -6 11 -9l6 -4q5 -4 10 -9.5t7 -7.5q32 -32 127 -128q8 -9 20 -21q12 6 22 13q9 6 30 21q91 69 107 87
q9 10 15 18t10.5 15t6.5 9q4 5 6 11q1 3 10 -1q1 0 5 7l3 6q3 -3 13 -8.5t14.5 -10t5.5 -10.5z" />
    <glyph glyph-name="quotesingle" unicode="'" horiz-adv-x="163" 
d="M137 363q-2 1 -5.5 4t-4.5 3v1l-1 1v0v1v0h-1.5t-0.5 1l1 1q-3 4 -4 9.5t-1 9v12.5v11l-1 1v3v3t-0.5 2.5t-0.5 2.5t1 3t1 3q1 4 1.5 8.5t1.5 6.5q0 1 1 4t1 4q0 3 -0.5 6.5t-1 7.5t-0.5 6t-1 9.5t-1 11.5q-1 5 0 12.5t1 11.5q0 1 -1 2t-1 2t1 3l1 2q0 3 -1 6v1q-1 1 0 1
l1 1q1 7 1 12h-1h-1l2 3q1 7 0 35q0 2 0.5 6t-0.5 5l-1 1q0 1 0.5 2t1.5 1q0 8 4 18q0 1 1 4.5t1.5 5t1.5 4t2 4.5t2 2t0.5 1t0.5 1h1.5t0 0.5t0 1t1.5 0.5h2q4 2 5 2h1l1 1h10.5t10.5 -1l5 -1q5 -1 6 -2h1h2.5t1.5 -1t2 -1q2 -1 8 -2.5t9.5 -2.5t4.5 -3q2 -3 2 -16
q1 -4 -0.5 -11t-2.5 -11q0 -2 1 -5.5t1 -5.5q0 -3 -0.5 -15.5t0.5 -13.5v-2v-2t1 -2v-1q2 -9 2 -28v-19q0 -2 -5 -24q0 -1 2 -3l3 -3q2 -4 1 -11q0 -2 -2 -3t-2 -3l2 -1q-1 -2 -1 -6v-7q-1 -4 -2 -3h-4q6 -3 4 -9l-1 -1q-4 -11 -3 -22q1 -1 0.5 -2.5t-0.5 -2t0.5 -1.5
t0.5 -2t-1 -2.5t-1 -2.5q-2 -5 0 -10v-2.5t0.5 -2.5t2.5 -3l2 -1q1 -6 -7 -16l-7 -7q-3 -1 -4 -2q-1 0 -11 2l-3 -1l-4 -1q-2 1 -15 4.5t-22 6.5z" />
    <glyph glyph-name="parenleft" unicode="(" horiz-adv-x="453" 
d="M248 -180q-5 -1 -14 5l-10 6q-1 1 -2.5 3t-2.5 3l-1 -1v0l-2 2l-2 3v-1h-1q-1 1 -2.5 3.5t-2.5 2.5q-46 49 -72 151q-1 2 -2 3q-1 4 -1.5 11t-1.5 10q0 2 -1.5 8t-1.5 10v5.5t0.5 8t0.5 7.5q2 32 4 49q0 5 2 13t2.5 11.5t3.5 27.5t5 37q8 40 16 64q7 21 28 69q1 3 2.5 7
t2.5 8q2 3 5 7t3 5q2 5 4 9.5t3.5 7.5t1.5 4q1 2 2.5 3.5l2.5 2.5q8 14 19 33l-1 1l7 9q7 10 33 48t37 52q4 5 13.5 16t11.5 13l1 4q2 2 5 4t4 3q24 26 52 49q24 21 28 24q37 27 39 28q1 0 4 2l2 2h1v-1l3 2l2.5 2.5t2 0.5h2.5l10 4l1 1h2q2 0 6.5 -3.5t3.5 -4.5t-2 -5
q0 -4 -3 -7q-1 -1 0 -1t1 -1l-2 -2q-2 -3 -3 -4t-6 -13.5t-10 -17.5q-2 -2 -19.5 -20t-26.5 -28q-45 -51 -53 -61q-6 -8 -22 -32q-37 -55 -50 -82q0 -1 -2 -4t-3 -5t-2 -5.5t-1 -4.5q-39 -90 -50 -127q-3 -14 -9.5 -34t-9.5 -28q0 -3 0.5 -6t1 -6.5t0.5 -4.5q1 -9 -2 -27
q-1 -5 -3 -7.5t-2 -7.5l1 -3q-1 -6 -1.5 -17t-0.5 -16l-2 -9q-2 2 -3 1q4 -6 3 -27q-1 -28 6 -55q0 -2 0.5 -5.5t1.5 -5.5q0 -1 1.5 -3t2 -4.5t0.5 -7v-6.5q3 -13 9 -25q1 -1 2.5 -4l2.5 -5q2 -3 5 -5t4 -3q4 -7 7 -15t5 -16.5t3 -10.5l4 -10t3 -8l2 -6q1 -5 2 -9
q1 -2 -6 -9q-1 0 1 -7l2 -6q-4 -2 -10.5 -6.5t-12.5 -7t-12 -2.5z" />
    <glyph glyph-name="parenright" unicode=")" horiz-adv-x="301" 
d="M41 -157q2 6 9.5 13t8 7.5t3 2t2.5 2.5v1l2 2l3 2v1l3 2l2 2q76 88 105 131l1 3q1 3 4.5 8t5.5 9q1 3 3 7.5t3.5 7.5t5 8t4.5 8q8 16 19 41q2 2 4 6.5t3.5 7.5t2.5 6q6 19 13 56q2 13 7 56q4 40 4 61q1 3 0 6.5t-1 6.5t1 7t1 5q-1 4 -1.5 8t-0.5 7l-1 3q0 2 1 3.5t1 3.5
q-1 15 -3 30h-1h-1l1 10q-4 40 -23 96q-10 29 -10 30l-3 2q-1 2 -1 5t-1 4q-4 11 -10.5 28t-11.5 29q-2 5 -7.5 15.5t-7.5 13.5q-2 5 -7.5 13.5t-9 15.5t-3.5 9q0 1 -2 3t-2 3q1 0 1 1l-2 2q-2 2 -2.5 3t0 2.5t0.5 2.5q-1 2 -2.5 4.5t-1.5 3t1 2.5q0 1 -1 2l-1 2q1 2 6 8.5
t7 5.5h5q6 1 10 -2l1 1l1 1q1 0 4 -2l3 -1q4 -2 13 -3.5t15.5 -4t10.5 -6.5q22 -23 44 -57q12 -19 37 -76q14 -33 16 -38q6 -18 25 -95q0 -2 0.5 -6t0.5 -5q0 -3 1.5 -6t1.5 -5q9 -71 0 -145q-3 -21 -19 -71q0 -2 -0.5 -6t-0.5 -8v-5q-2 -13 -9 -31q-2 -6 -5 -8t-5 -8v-4
q-15 -32 -17 -36l-6 -9q0 3 -2 3q-1 0 -1 -2q1 -10 -14 -30q-10 -15 -42 -60q-1 -2 -4.5 -6t-4.5 -6q-1 -1 -2.5 -3.5t-3.5 -5.5t-7 -7.5t-6 -5.5q-11 -11 -26 -28q-2 -2 -5 -5.5t-5 -5.5q-2 -3 -5 -7t-4 -5q-18 -18 -52 -39q-25 -15 -31 -17l-10 -5t-6 2q0 1 -1 1l-7 -2
q-1 -1 -3 -1q-4 -1 -4 -2q0 2 -1.5 13.5t0.5 12.5z" />
    <glyph glyph-name="asterisk" unicode="*" horiz-adv-x="406" 
d="M458 555q-1 -2 -5 -5l-4 -2h-1l-2 -1v-1h-1h-1.5t0.5 -1l-2 -1h-1q-15 -8 -68 -25l-1 -1q-2 -1 -4.5 -1.5t-4.5 -1.5q-1 0 -3.5 -1t-3.5 -1.5t-4 -1t-5 -1.5l-10 -2.5t-9 -2.5q-2 -1 -5.5 -1.5t-5.5 -1.5l-21 -7l6 -6q1 0 2 -1v-1q1 -1 2 -1l1 -1q6 -6 24 -30q1 -2 7 -18
q1 -1 3 -1.5t3 -1.5q3 -2 5 -7q1 -1 0 -2.5t0 -2.5h2q0 -1 2 -4t3 -5v-2v-1l-2 -1q5 0 5 -5v-1q3 -8 8 -15q1 0 1 -1t0.5 -1.5t1 -0.5t1 -0.5t0.5 -2v-2.5q2 -3 5 -5v-1q1 0 1.5 -0.5t2 -0.5h2.5q2 -1 1 -9q0 -4 -1 -5q-1 -2 -1 -3q-1 0 -6 -5l-1 -2q0 -2 -1 -3
q-18 -16 -19 -17t-4.5 -1.5t-4 -0.5t-1.5 1v0l-1 -1l-1 1v0h-1q0 1 -1 1q-10 3 -28 28h-2q0 1 -1 3l-1 1l-2 2l-1.5 1.5t-1 2.5t-0.5 3q-1 2 -2.5 6t-2.5 6q-1 1 -1.5 3t-0.5 3q-2 3 -6 8t-4 6q-1 1 -5 5.5t-5.5 7.5l-4 8t-4.5 7q0 1 -1 1.5t-1.5 1t-0.5 1.5v2q-1 2 -3 3
q0 1 -0.5 1t0 0.5t0.5 1.5q-3 4 -4 6h-1v2q-2 3 -3 6q-1 -1 -3 -5q-1 -2 -2.5 -2.5t-2.5 -2.5v-2q-1 -2 -3.5 -6t-3.5 -7l-3 -4l-2 1q1 -4 -5 -12q-8 -13 -13 -27q-1 -1 -2 -2.5t-1 -2.5q-1 -1 -1 -2t-0.5 -2.5t-2 -3.5t-2.5 -3q-3 -6 -6 -13q0 -1 -0.5 -2.5t-0.5 -3.5
q-1 -1 -0.5 -3t-0.5 -3q-1 -6 -11 -20q-6 -8 -7 -9q-3 -1 -4 -2q0 -1 -6 1l-2 -1l-3 -1l-7 4q-8 5 -11 9q-2 1 -2 5.5v5t0.5 1t0.5 1.5h-1l1 1v1v1v1l1 1q3 16 28 66v2q1 1 2.5 3.5t2.5 4.5q0 1 1 3.5t1.5 3.5t2.5 4t3 4q2 3 5 8.5t6 8.5q0 2 2.5 4.5t2.5 4.5q3 4 6.5 12
t4.5 10q1 1 1 2h-1q-1 0 -2 1l-1 1q-7 3 -17 8v-1l-5 3q-9 6 -28 17.5t-26 15.5q-2 2 -8 6t-7 5h-2q-2 1 -3 2.5t-1 2.5q-12 9 -24 21q-1 0 -5 3.5t-5 5.5l-9 11q1 0 0 0l-1 1l1 1v0v0l-1 1l1 1v1v3l1 1q5 11 7 11l2 2q3 2 4 2v2h1h1q1 1 2 1q13 7 15 6q4 -2 19 -14
q5 -4 14.5 -12.5t14.5 -12.5q3 -2 9 -6.5t8 -5.5q36 -25 40 -28l2 -2l2 -1q1 -1 2.5 -1.5t2.5 -0.5l15 -10h1q0 2 -1 5v1v1q1 0 1 1q1 5 1 10h-1l1 3q1 9 -1 43q0 3 0.5 8.5t-0.5 7.5l-1 1q0 2 1 3t1 2q1 15 5 30l5 15q9 17 12 18v2l1 1h1l1 1q1 1 1 1.5t1 0.5h1q5 2 5.5 2
h0.5l1 1q1 0 5 -2t4 -3l1 -2q2 -2 2 -4l1 -1q1 0 1 -1v-2q1 -2 5 -7t4 -8q0 -4 -0.5 -11.5t-0.5 -9.5q0 -4 -1 -13.5t-1 -15.5q0 -3 0.5 -8t1.5 -7v-22v-19q0 -1 -1 -3v-1q0 -1 0.5 -2.5t0.5 -2.5q-1 -7 -5 -16l9 3q3 1 4 0.5t4 0.5l1 1q2 0 7 1.5t8 3.5h5v-1q2 3 12 5
q15 4 28 9q1 0 3 0.5t3 1l2 1l2 1t3.5 1t3.5 0.5q7 2 14 5q1 0 2.5 1t2.5 1q2 1 3.5 2.5t2.5 1.5q5 3 23 7q12 2 13 2q3 0 5 1q1 0 2 -4h3h4q0 -1 0.5 -8t-0.5 -8z" />
    <glyph glyph-name="plus" unicode="+" horiz-adv-x="469" 
d="M216 23q0 1 1 5l1 3l1 1l1 1h-1l1 1v1v1v0l1 1q3 8 11 27t11 28v2q0 2 1 4.5t2 3.5q0 2 0.5 4.5t1 3.5l2 4t2 4.5t7.5 21.5q0 1 1.5 5t2.5 6q1 4 5 31q1 4 1 11q-4 0 -14 0.5t-15 0.5q-2 0 -4 -0.5t-4 -0.5q-1 0 -3.5 0.5t-3.5 0.5h-4h-4h-2q-1 -1 -2 0l-1 1h-17v-1l-5 1
q-16 1 -49 -1h-6t-7 -1l-1 -1q-1 0 -2 0.5t-2 0.5h-20h-5h-4.5h-3.5h-3.5h-2.5q0 1 -1 0v1q-1 0 -1 -0.5t-0.5 0t-0.5 1t-1 0.5q-2 2 -2 2.5t-1 0.5q-7 11 -6 13l-1 3q0 3 1 4q0 1 -0.5 1.5t-0.5 1t0.5 1t0.5 1.5q3 15 5 15q5 3 20 6q6 1 17 1t13.5 0.5t7.5 1t8 0.5
q7 1 22 1.5t21 0.5h2h3t2.5 0.5t2.5 0.5q11 1 72 1h12q0 1 -0.5 3t0.5 3q0 2 1 4t1 3q0 2 0.5 4.5t0 4t0.5 1.5q0 1 0.5 2t0.5 2q2 9 3 17h-1l2 5q2 11 6 49q0 2 1 7.5t1 6.5l-1 1q0 1 1 2l1 2q2 10 6 22l2 4q1 4 1 5l7 10v1l1 1h1q0 1 0.5 1h1.5h1q4 1 4.5 1h0.5h1
q12 -1 14 -4q1 -1 4 -2t4 -2l1 -1h1.5h0.5l1 -1q2 -1 6.5 -3t7 -3.5t2.5 -2.5q1 -3 0 -15q0 -5 -2 -13.5t-3 -12.5q0 -3 -0.5 -8t-0.5 -7q0 -6 -2.5 -21.5t-2.5 -21.5q0 -1 -0.5 -2.5t-0.5 -2.5t0.5 -2.5t0.5 -2.5q-1 -14 -5 -37h15l6 -2l-1 -2q5 3 17 2q19 -3 37 -2
q1 0 3.5 -0.5t3.5 -0.5t2.5 0.5t3 0.5t4 -0.5t4.5 -0.5q8 -1 16 0h3.5h3.5l4 2t3 1q7 1 25 -3q11 -3 13 -4t3 -2q2 0 2 -7l3 -2l2 -2l-2 -10q-1 -10 -3 -16q-1 -2 -5 -4l-5 -3h-1h-2v-1h-2h-1v-1h-1h-2q-17 -4 -81 -3l-2 -1q-2 0 -5.5 0.5t-5.5 0.5q-1 0 -4 -0.5t-5 -0.5
t-5.5 1t-5.5 1q-6 1 -14 1.5t-12 0.5q-2 1 -6.5 1.5t-6.5 0.5h-7l-3 -9l-3 -9v-3v-4l1 -3q0 -7 -3 -17q-1 -3 -2.5 -4t-2.5 -4v-2q0 -2 -2 -8.5t-4 -11.5l-3 -5l-2 1q2 -5 -4 -16q-8 -15 -15 -32q-1 -1 -2 -3l-1.5 -3t-0.5 -2.5t-1 -3t-3 -3.5l-3 -3q-4 -5 -9 -13
q0 -2 -1.5 -3.5t-1.5 -2.5q-1 -1 -1.5 -3t-1.5 -3q-7 -9 -22 -15q-11 -4 -14 -4h-4q-2 -1 -4 3h-3h-3q0 2 -1.5 7t-1.5 9z" />
    <glyph glyph-name="comma" unicode="," horiz-adv-x="31" 
d="M-49 -116q-1 1 -1 4v2v0l1 1q-1 0 -1 0.5t1 0.5v1h1q2 3 22 16v1h1l1.5 1.5t1 1.5t1 1t1.5 0.5t2 1.5t7 4q0 1 1.5 1.5t2.5 1.5q2 2 6 10q1 1 5.5 11t4.5 13v1v1.5t1 1.5l1 1v4v1l1 1v0l2 8h-1l1 2q3 8 2 31v6v5l-2 2q0 1 1 2l1 1q-1 2 0 28q0 2 -1 8t-1 8q0 3 -0.5 9
t-1 9t0.5 7l-1 2v1.5t1 0.5l-1 2v1.5t1 1.5l1 1l2 7q1 1 1 2v1q1 1 8 4t8 2l4 -1q4 -1 6 -3h2l1 1l2 -1q1 -2 2 -3l8 -4t9.5 -5.5t5.5 -5.5q5 -14 9 -37q2 -7 2 -41v-8.5v-8.5q-1 -4 -8 -39v-2q-1 -1 -2 -1v-3v-1q-9 -21 -26 -40q-3 -3 -17 -12l-1 -2l-1 -2q-2 -3 -6 -5
q-1 -1 -2 -0.5t-3 -0.5v-1q-1 -1 -3.5 -2.5t-3.5 -2.5q-1 0 -2 -0.5t-1 0.5l-1 1q0 -3 -5 -4q-6 -3 -11 -7l-1 -1h-1h-1v-1.5t-1 -0.5h-2q-2 -1 -3 -4q-1 -1 -1 -1.5v-1.5v-1q0 -2 -1 -3h-1q1 1 -5 4l-1 1l-1 1q-18 10 -21 13z" />
    <glyph glyph-name="hyphen" unicode="-" horiz-adv-x="234" 
d="M281 179q-1 -1 -3.5 -4t-3.5 -4v0h-2v-1h-1v-1h-1h-1q-6 -3 -44 -6l-1 -1h-3h-3q-1 -1 -2.5 -1.5t-2.5 -0.5h-3l-2 1h-8h-6t-4 0.5t-4 0.5q-3 0 -10 -1.5t-8 -1.5q0 -1 -7.5 -2.5t-10.5 -1.5q-4 0 -11.5 -0.5t-9.5 -0.5q-1 0 -2 -0.5t-2 -0.5t-3 1h-1q-3 0 -6 -1
q0 -1 -1 -1v1q-1 1 -2 1q-6 0 -10 -1v-1l-3 1q-5 1 -34 0q-2 0 -6 0.5t-5 0.5l-1 -1q-1 0 -2 1h-1q-9 1 -20 5q0 1 -4 2t-6 2q-1 0 -4.5 1.5t-5.5 3t-2 2.5t-1 1h-1v1h1q0 1 -1 1h-1v1v2q-1 6 -0.5 6.5t-0.5 1.5v0q5 19 10 21l3 4q3 5 5 6v1q1 1 1 1.5t1 1t2 1.5q2 2 5 6.5
t5.5 7.5t3.5 3l6 -3t5 -3q2 -1 7 -4t8 -5q1 0 2.5 -0.5t3 -0.5h2.5q20 -3 23 -3h1h2h1l1 1q6 1 19.5 1t17.5 1q1 0 20 -2q1 0 2.5 2t2.5 2q3 2 9 2q1 0 2 -1t3 -1l1 1q1 0 4.5 0.5t6.5 0.5l3 -1v-2q2 3 9 3q10 -2 21 1h1h2.5t1.5 0.5t2 0.5t2.5 -0.5t2.5 -0.5q5 0 10 2
q1 0 2 0.5l2 1t3 2.5l1 1q5 2 18 -2q8 -3 9 -4q1 -2 3 -3v-8q0 -1 1 -4l2 -2q0 -1 -1.5 -12t-3.5 -19z" />
    <glyph glyph-name="period" unicode="." horiz-adv-x="50" 
d="M102 75v-5v-5v-1h-1l1 -1l-1 -1q-2 -5 -14 -9v-2h-1h-1l-1 -1h-2v1h-2.5h-2.5q0 1 -1 1.5t-1 -0.5q-1 0 -3 -1l-1.5 -1.5l-2 -2t-2.5 -1.5h-3t-3 -1q0 -1 -0.5 -1h-1.5v1l-1 -1v-1l-1 1v1q-1 -1 -2 -1v-1l-1 1q-2 1 -8 -3l-1 -1h-1v-1h-1v1q-2 -1 -5 1q-1 0 -2 -0.5
t-1 0.5l-2 1q-2 0 -3 1l-1 1v0l-1 1q-1 1 -1 2l-2 3l-1 1q-9 16 -8 17l-1 4l-3 6l-1 1v1.5v1.5v1l-5 19q1 2 7 4q1 1 4.5 0.5t4.5 -0.5t2 1l1 1q2 1 5.5 1.5t4.5 1.5v0q1 0 1 1q2 2 7 3t5.5 1.5t7.5 -1.5q-1 0 0 4q1 2 3 1v-1q1 -1 2 -1v1l1 1h2l1 -1v-1l1 -2q0 4 1 3h1
q3 -2 5 1h1v0q0 1 1 1l1 -1q2 0 2 2q1 0 1 0.5v1v2.5v1q1 3 4 -1h1q3 -3 3 -4l2 -2l3 -9l1 -2q1 -2 1 -3z" />
    <glyph glyph-name="slash" unicode="/" horiz-adv-x="355" 
d="M407 718q2 -2 -0.5 -12.5t-2.5 -11t-1.5 -2.5t-1.5 -3h1q0 -1 -1.5 -3t-1.5 -3h1v-1l-2 -2l-1 -3q-13 -33 -87 -160l-1 -4q-2 -4 -6.5 -10.5t-6.5 -11.5q-2 -3 -5 -9t-5 -9q-2 -4 -7 -11t-7 -10q-8 -11 -17.5 -26.5t-15.5 -24.5q-2 -4 -8 -12t-9 -13q-8 -13 -22 -38.5
t-16 -29.5q-3 -5 -16.5 -29.5t-21.5 -37.5t-22.5 -36.5t-19.5 -32.5l-4 -8t-4 -7t-5 -7t-4 -5q-3 -5 -5 -9l-3.5 -7t-1.5 -4q-1 -2 -3 -3.5t-2 -2.5q-12 -18 -19 -30v-1h1l-7 -8q-14 -22 -49 -83q-2 -4 -7 -11.5t-6 -9.5v-3q0 -1 -2 -2.5t-2 -2.5q-9 -13 -20 -27
q0 -1 -2.5 -4.5t-4.5 -4.5q-1 -1 -2 -3t-2 -2.5t-3 0.5h-1v1q-1 0 -1 1t1 4t-1 4q-1 1 -2.5 3.5t-3.5 4.5t-3 2q-4 -1 -7 -4l-5 -5l-1 -3l-4 -2t-4 0q-6 1 -6 7h-1q-2 1 -2.5 1t-0.5 1v2q-2 2 -6 5t-6 5.5t-1 4.5q0 3 9 19q3 6 11.5 18t12.5 19q3 4 7 12t7 12q4 7 20 33
t21 37q1 1 3 4t2 5q2 2 3 5t2 4q12 23 44 76.5t34 56.5q2 4 46 71q2 2 3.5 6.5t2.5 8.5l2 5q6 14 19 34q4 6 7 8.5t7 8.5l1 5q4 5 11.5 18t13.5 22l8 11q-1 -4 1 -5l1 3q1 10 18 34q23 35 43 72q1 2 4 6.5t4 6.5t2 5t3 6.5t6 8.5t6 8q10 16 18 33l3 6t4 7q1 4 2 9t2 6
q7 16 32 48q15 20 17 22q4 3 7 6q2 1 10 -3l5 3q5 4 5 3l10 -9q11 -9 15 -16z" />
    <glyph glyph-name="zero" unicode="0" horiz-adv-x="470" 
d="M436 386q-16 -17 -44 -43l-1 -2q-3 -2 -6.5 -5t-5.5 -5q-2 -1 -4.5 -4t-4.5 -4.5t-6.5 -4.5t-6.5 -4q-4 -3 -10 -7t-10 -7t-9 -6q-2 -2 -7 -5t-8 -5q-6 -4 -18.5 -14t-17.5 -13q-30 -23 -35 -27q-8 -5 -22 -14t-18 -11l-3.5 -3.5t-3.5 -2.5t-4.5 -2.5t-3.5 -1.5
q-3 -2 -5 -3.5t-3.5 -3t-2.5 -1.5q-1 -1 -2 -1t-2 -1q-10 -6 -18 -11l1 -1l-6 -3q-12 -7 -27 -18q20 -95 56 -101q13 -3 28.5 2t22 9t24.5 15q3 2 18 18q7 7 18 18.5t15 15.5q5 6 9 8.5t10 10.5l3 5q15 20 37 54q2 2 4.5 6t4.5 6l2 2q-2 -4 0 -5l2 4q1 6 5 15t10 20t8 15
q27 58 37 113v3zM440 482q-1 7 -2 13q-4 14 -5 17q-2 4 -5.5 8.5t-3.5 5.5q-5 11 -13.5 35.5t-13.5 31.5q-5 9 -23 33q-3 5 -9 7q-3 1 -4 5q0 2 -9 0q-8 -2 -9 -4l2 6h-3v0v-1.5t-3 -0.5h-3q-7 -2 -26 -17q-29 -23 -57 -63q-44 -64 -74 -126q-14 -30 -27 -72
q-24 -78 -32 -147q0 1 1 1q1 1 3 2l1 2q12 8 39 26.5t35 24.5q10 7 24.5 16t16 9.5t3 2.5t3.5 5l2 2q5 5 17 13q3 3 5 3t5 3l2 2q3 3 9.5 8t11.5 9l6 3l1 -1q2 5 16 15q19 15 34 32q1 1 3.5 3t3.5 3t1.5 2.5t2 3t4.5 4t4 3.5q8 8 14 17q0 1 2 3.5t2 4.5q1 2 1.5 5t1.5 4
q3 6 6.5 11t8.5 10t6 5q10 12 11 12q3 2 5 4q1 1 8 -4zM357 659q6 3 13.5 4t12 0.5t13 -1.5t9 -1t3.5 -1l6 -2l3 -2h1v1q1 0 3.5 -1.5l5 -3t3.5 -2.5q1 0 1 1q5 -2 12 -8q48 -44 68 -127t5 -167v-7q-3 -7 -15 -39q-11 -28 -13 -33q-7 -13 -22 -36q-29 -46 -55 -78
q-11 -14 -31 -35q-51 -51 -85 -72q-45 -29 -89 -37q-50 -9 -107 8q-12 4 -23 11q-8 6 -17 18q-18 23 -22 32q-2 3 -2.5 6.5t-0.5 5.5q-2 6 -3 13l-2 1l-4 3q-4 2 -5 4h-2q-1 1 -1 1.5t-1 1.5v1q-9 17 -7 19q4 5 15 13v7h-1h-1v8.5t1 7.5l1 4q22 136 59 228q4 10 11 24t14 27
t8 17l3 7q2 5 4.5 8t4.5 6t3 5q42 63 81 103q24 24 46 36q14 7 33.5 14t26.5 7l4 1q3 1 4 1v-1q1 0 4.5 0.5t4.5 0.5t2 -0.5t2 -1.5q11 -2 12 -2q0 -1 2 -1q2 2 4 3z" />
    <glyph glyph-name="one" unicode="1" horiz-adv-x="375" 
d="M423 621q1 -2 0 -6q5 -7 5 -12q-2 -12 -11 -42q-3 -10 -10 -26.5t-9 -21.5q-1 -5 -3.5 -12.5t-3.5 -11.5q-3 -8 -11 -28.5t-10 -28.5q-1 -1 -2 -3t-1 -3q-1 -2 -1 -4v-3q-5 -16 -18.5 -50t-15.5 -40l-21 -46q-1 -2 -1 -5v-6v-3q-1 -9 -7 -24q-2 -4 -4 -5.5t-4 -6.5v-3
q-1 -4 -4.5 -13t-6.5 -16l-4 -8q-1 1 -3 1q2 -7 -6 -22q-12 -22 -19 -42q0 -1 -1.5 -3.5t-1.5 -4.5q-1 -1 -1 -3t-0.5 -3.5t-2 -4.5t-2.5 -4q-4 -10 -5 -20v-3.5v-4.5t1.5 -5t1.5 -4q0 -6 -1.5 -12.5t-4 -13.5t-2.5 -8l-6 -20q-3 -4 -4 -8q0 -2 -11 -2q-1 0 -4 -5l-3 -6
q-5 2 -13.5 3t-15.5 2.5t-13 5.5q-4 3 -7 13l-3 10l1 3v3h-1h-1q0 1 0.5 3t0.5 3h-1q-1 1 0 3l1 3q0 40 32 117l-1 2l3 6l3 6q0 2 1 5.5t1.5 5.5t3 6t3.5 6q2 6 6 15.5t7 17.5q1 3 4.5 9t4.5 9q3 9 8.5 26.5t6.5 21.5q1 1 6.5 19t9.5 26q3 9 9.5 24.5t8.5 21.5q1 2 1.5 5
t1.5 5q0 2 2 4.5t3 3.5q1 3 1.5 6t0.5 5l1 2q1 2 2 2.5t2 1.5q5 12 8 21v1h-1l4 6q8 17 17 45q-3 -3 -6 -5t-9 -5.5t-7 -4t-1.5 -1.5t-1.5 -1.5t-2 -0.5h-2l-3 -3l-1 -1h-1h-1l-8 -4l1 -1h-3q-3 -1 -25 -12q-1 -1 -4 -2t-4 -2v-1h-2h-1q-6 -2 -16 -3q-1 -1 -4 -1.5
t-4.5 -0.5t-4.5 -0.5t-4.5 -1t-2.5 0.5q-1 0 -2 -1v0v1q-1 1 -2 1v-1v1h-2q-3 2 -3 2.5t-1 0.5q-7 9 -5 12v3v4v1v1l1 1v1v6t0.5 6.5t1.5 3.5t12 7q3 2 8.5 3.5t7.5 3.5q1 0 4 2l2 2q16 11 16.5 11.5l1.5 1.5t2 1v1q3 4 12 11.5t11 9.5l15 10q1 0 1 2v3q2 4 6 7q1 1 2.5 0.5
t2.5 0.5v2q1 1 4 3.5t5 3.5l1.5 1.5t1.5 -0.5l2 -2q-2 6 4 8l1 1q10 6 17 15l2 2l1.5 1.5t1 2t1.5 2l3 1.5t2 2q5 3 9 10l2 2q1 1 1 2q1 2 1 4v3q4 6 20 15q12 6 13 7q4 0 6 1q1 0 7 -6h4h5q2 -3 6.5 -8t7.5 -10t6 -11z" />
    <glyph glyph-name="two" unicode="2" horiz-adv-x="495" 
d="M160 122q25 -6 81 -25t82 -23q39 -6 159 16q6 1 22 6t28.5 9t14.5 3q2 0 -2 -6t-11 -13.5t-13 -11.5q-27 -19 -78 -37q-9 -4 -32.5 -13.5t-41 -15t-34.5 -8.5q-3 0 -45 1q-3 0 -11.5 -1t-12.5 -1q-18 2 -51 11.5t-39 10.5q-1 1 -14.5 4t-19.5 4q-7 2 -19 2.5t-15 0.5
q-28 3 -31 2q-6 0 -19.5 -4t-17.5 -4q-37 -7 -49 -2q-8 3 -13 12q-3 5 -3 13t2 10q3 6 20 18q24 19 53 31q10 8 39.5 30.5t47.5 36.5l2 4q3 2 9.5 7t10.5 8q2 3 7 8t8 7.5t10 7.5t11 8q19 17 46 42q21 20 22 22q25 27 49 61q20 29 35 62q14 31 17 59q1 2 0 5t-1 5t1 4.5
t1 3.5l-3 12q-1 1 0 2l1 1q-1 11 -2 17h-1l-1 -1l1 7q-5 19 -21.5 39t-34.5 26q-14 4 -34 1l-3 -2q-2 0 -5.5 -0.5t-4.5 -0.5q-35 -14 -55 -30q-8 -7 -15 -21q-1 -3 -1 -7.5t0.5 -6t-1.5 -2.5l-1 -1q-2 0 -4 -1q-1 -1 -2 -1.5t-4 -1.5q-1 -1 -2 -1v-1q-19 -15 -22 -13h-7
q-6 0 -10 4l-2 -1q-2 -1 -2 0q-1 0 -6 7q-23 30 -14 43q20 29 64 51q38 19 96 29q30 5 50 3q32 -2 68.5 -19t56.5 -35q1 -1 8 -11q2 -2 5.5 -6t4.5 -6q11 -44 2.5 -92.5t-27.5 -80.5q-6 -12 -14.5 -23t-13.5 -17t-15.5 -17t-13.5 -14q-2 -2 -5 -6.5t-5 -8.5l-2 -5
q-11 -14 -29 -31q-6 -6 -9.5 -8t-9.5 -7l-2 -4q-36 -34 -39 -36q-2 -1 -4.5 -3t-4.5 -4l-2 -1l-2 2q-5 -10 -30 -29q-35 -26 -70 -54q-2 -2 -6 -4z" />
    <glyph glyph-name="three" unicode="3" horiz-adv-x="450" 
d="M-1 123q4 1 11.5 -3.5t8.5 -4.5l1 -2q1 -2 2 -2v1h1l1 -2l2 -2v0l1 1l1 -2l2 -2q65 -37 128 -45l3 1q18 1 21 1q2 0 18 3q18 4 20 4q23 8 43 19q13 7 18 11q20 17 35 41q11 17 21 45q9 26 12 48q1 3 0 5.5t0 4.5q0 2 1 5t1 4l-1 13q-1 1 0.5 2t1.5 2q-1 10 -2 19h-1h-1
l2 5q-1 19 -12 48q-4 12 -7 15l-2 1q0 1 -1 2.5t-2 2.5q-18 14 -38 17q-9 2 -30 -1q-3 -1 -8 -2q-36 -15 -46 -18q-11 -4 -19 -7q-7 -2 -8 3v1h-1h-1l-1 -1q-1 0 -2 1q-1 -1 -4 -2t-5 -1.5t-5.5 -1t-5.5 -1t-3 -1.5q2 5 4 12.5t4 12t5 7.5q8 10 24 18l16 9q1 0 5.5 2.5
t5.5 2.5q1 1 0 1q1 1 5.5 3t5.5 3l-1 1q1 0 5.5 2.5t5.5 2.5q118 78 151 115v2q0 1 2 4.5t2.5 5.5t0.5 6q5 -2 7 1q3 6 -6 14q-10 8 -27 13h-4t-3.5 0.5t-4 1t-3 1t-11.5 0.5q-1 0 -2 0.5t-2 0.5h-21v-1l-6 1q-33 -2 -67 -13q-15 -5 -19 -7l-1 -2q-2 -1 -3.5 -1t-2.5 -1
q-20 -11 -28 -17l-10 -11l-2.5 -5l-2.5 -5t-3 -2v-1v-1q0 -1 -1 0v-1v-1q-1 0 -2 0.5t-2 0.5l-5 -1h-2v0q-22 2 -24 7l-5 3q-5 4 -5 7l-2 1h-1q-1 1 -1 3v3q-8 24 -3 28q12 11 39 24q11 6 52 19q22 7 25 8q13 3 65 12q1 0 3.5 0.5t3.5 0.5q2 0 4.5 0.5t3.5 0.5q42 4 91 0
q14 -1 44 -10q2 -1 8.5 -0.5t7.5 -0.5q18 -4 26 -14q5 -5 4.5 -8t2.5 -8l4 -3q6 -22 2 -40q-1 -2 -2.5 -4.5t-2.5 -4t-1 -0.5q-2 2 -4 1q4 -11 -13 -25q-35 -28 -45 -37q-2 -2 -5.5 -4.5t-5.5 -3.5l-3 -3t-4.5 -3.5l-7.5 -4.5t-7 -4q-14 -8 -33 -22q-3 -2 -7 -4.5t-7 -4.5
q-4 -3 -8 -7t-6 -5q13 -2 28 -6q24 -7 35 -16q32 -25 51 -77q1 -2 1 -6l1 -4q0 -3 1.5 -6t1.5 -5q1 -31 -9 -72t-24 -66q-4 -6 -8 -12.5t-7.5 -10.5t-9 -9.5l-8 -8t-9 -8t-8 -7t-4 -5.5t-5.5 -7l-2 -3q-11 -12 -27 -21q-5 -3 -8.5 -4t-8.5 -4l-3 -3q-24 -12 -39 -18
q-2 -1 -5 -1.5t-4.5 -1t-2.5 -0.5v1q-10 -7 -34 -11q-43 -8 -81 -11h-6.5h-7t-4.5 -0.5t-6 0.5q-2 0 -17 2q-13 1 -36 4q-3 0 -7 0.5t-7 1.5h-9h-7q-30 6 -58 24q-22 15 -27 24q-5 8 -6 10q-2 3 5 8q2 1 3 1l-2 7q-2 8 -1 8q2 1 16.5 8.5t24.5 8.5zM390 558v2v2q1 2 0 3
q-4 6 -6 1q-1 -2 2 -5q2 -2 4 -3z" />
    <glyph glyph-name="four" unicode="4" horiz-adv-x="514" 
d="M292 0q-4 3 -7 13.5t-4 11.5q0 1 1 3v3h-1h-1v3l1 3q0 1 -1 0.5t-1 0.5l1 2v3q-5 38 14 103l-1 2q1 2 2.5 5.5t2.5 5.5q0 1 0.5 4.5t1 5.5t3 6t2.5 6q2 4 14 34q1 3 3 8q-15 2 -34 5l-4 -1q-3 1 -10.5 2t-12.5 1h-10.5h-8.5q-23 1 -24 1q-32 -2 -45 -7q-3 -1 -18 -11
q-5 -3 -16 -10t-18 -11t-17 -9t-19 -8q-11 -4 -34 4.5t-34 23.5t5 34q15 15 26.5 20.5t16.5 6.5t8 6q3 9 5 11q1 2 4 5t3 4q3 3 4.5 6.5t3 6t1.5 3.5q1 1 2.5 2t1.5 2q9 14 17 28l-1 1l6 8q25 42 46 101q11 30 11 33v4q0 3 2 5.5t2 3.5q14 58 15 60q1 5 2 16.5t1 14.5
q1 5 1 14t0.5 15.5t1.5 8.5q1 1 0 3l-1 3h1h1q1 1 0 3.5t-1 3t1.5 1.5t2.5 2q1 3 1 6q0 2 2 4q1 1 1 2v1q3 3 12.5 7.5t11.5 2.5q1 0 7 -2q6 -1 9 -5q1 0 2 1h2q1 -1 3 -3.5t3 -3.5q2 -2 12 -9t14.5 -12t5.5 -12q6 -35 -2 -79q-4 -24 -30 -89q-13 -35 -16 -41
q-7 -15 -16.5 -32.5t-20 -35.5t-13.5 -24q-1 -1 -3 -4.5t-3 -4.5q-1 -2 -2.5 -5.5t-1.5 -4.5q-10 -15 -27 -30q3 1 6 1q2 1 5 1.5t6 0.5h2v-1q14 6 40 6q42 1 86 -1q3 0 8.5 -1t7.5 -1h5t7 -1q3 0 6 -1q5 20 6 25q9 29 13 37q3 8 10.5 24t10.5 23q1 2 1.5 5t1.5 5q1 3 3.5 6
t2.5 4q2 4 3 7.5t2 6t1 3.5t1.5 2t2.5 2q7 16 12 27l-1 1h-1l5 8q15 29 35 89q1 3 3.5 9t4 10.5t1.5 6.5v3q0 2 1.5 4t2.5 3q1 6 15 43q1 3 2.5 10t2.5 9.5t1.5 7t2 8t2.5 4.5q1 0 0 1v1h1h1v1v1.5t1.5 0.5t2.5 1l5 3q1 0 1 1h1q20 8 24 5q1 0 6 -1q6 -1 8 -3h2h2
q1 0 2 -1.5t2 -2.5q2 -1 7 -4.5t8.5 -5.5t6 -5.5t2.5 -6.5q0 -16 -9 -48q-2 -9 -6 -19t-9.5 -22t-8.5 -20q-2 -5 -5.5 -15.5t-5.5 -15.5q-5 -12 -16.5 -40t-15.5 -37q0 -2 -1.5 -5t-1.5 -4q-1 -2 -1.5 -5t-1.5 -4q-6 -17 -21.5 -54t-20.5 -49q-3 -10 -9.5 -22.5t-7.5 -14.5
q0 -1 0.5 -2.5t1.5 -3.5t1 -3v-5q24 -3 26 -3q4 1 7.5 1.5t6 1.5t3.5 1l4 2t4 -3q0 -1 1 -1q0 -1 3 1l4 1q1 -3 4 -8.5t4 -9.5t-1 -8q0 -3 -3.5 -5t-8 -4t-5.5 -3l-2 -1h-4v-1l-2 -1h-4v-1l-6 -1q-18 -3 -46 -2q-1 -3 -4.5 -14t-6.5 -19l-5 -7q-1 1 -3 1q3 -8 -4 -23
q-10 -20 -12 -36q0 -1 -1 -3t-1 -3t0.5 -2.5t0 -3t-1.5 -3.5t-1 -3q-3 -7 -1 -15v-3t1 -3q0 -2 2 -4.5t2 -3.5q1 -6 0 -12.5t-4.5 -14.5t-3.5 -9q-7 -24 -8 -25q-3 -5 -4 -9q-1 -3 -14 -2l-4 -7q0 -1 -1.5 -3t-1.5 -3l-1 -1q-1 0 -18.5 5t-26.5 12z" />
    <glyph glyph-name="five" unicode="5" horiz-adv-x="455" 
d="M52 180.5q6 -8.5 8 -23.5t3 -17v-4v-5l1 1q1 0 1 -1q1 0 1 -3.5v-4.5l1 1q1 0 1 -1v-3q1 -3 1 -4q14 -29 43 -48.5t72 -16.5l3 2q20 7 25 9q3 1 20 11q20 11 23 13q27 19 49 41q14 15 20 24q19 32 31 83q7 31 1 73q-5 34 -10 43q0 1 -7 8q-8 7 -9 8q-9 4 -19 6
q-2 0 -3.5 1t-3.5 1q-18 2 -38 -2l-13 -3q-8 -3 -24 -10t-27 -12t-28.5 -11.5t-27.5 -8.5t-24.5 -4t-19.5 3q-42 15 -33 46v3q1 2 3 4.5t2 4.5q9 20 22.5 48.5t19.5 41.5q4 9 12.5 30t11.5 27q4 10 14 38q-11 2 -12 3h-2h-1v1v1h-1h-1l-1 1v1l-3 4q0 1 -0.5 1t-0.5 1
q-3 14 1 16l1 4q1 3 2 4t0.5 2t0 1t1.5 1l1 1q1 2 3 6.5t4 7t4 3.5q3 0 22 1q5 0 15 -1t16 -2q3 0 8 0.5t7 1.5h14t16 0.5t11 0.5h2.5h2.5t2.5 0.5t1.5 1.5q11 1 34.5 2.5t28.5 1.5q2 0 31 -1q1 0 4 2l3 2q6 2 14 2q2 0 3.5 -1t3.5 -1l2 1q2 0 7 0.5t8 0.5l4 -1l1 -2
q2 4 12 3q13 -1 25 2h2h2.5t1 0.5t2 0.5h3h2.5q5 -1 10 1q1 1 2 1t2 0.5t2 2t1 2.5q5 2 14 -2q6 -2 7 -3l2 -2l1 -8l1 -2l1 -1q1 -1 1 -2q2 -27 1 -29q0 -1 -1 -5l-2 -3q0 -1 -0.5 -0.5t-0.5 -0.5v-1h-1h-1v-1h-1q-8 -6 -48 -11l-2 -1h-3.5t-3.5 -1q-1 0 -3 -0.5t-3.5 -0.5
h-4h-3.5q-5 1 -11 0.5t-9 -0.5q-1 0 -4.5 0.5t-5.5 0.5q-5 0 -15 -2t-12 -2l-11 -1q-11 -2 -17 -3q-6 0 -17 -0.5t-15 -0.5q-1 0 -3 -1t-3 -1h-4l-2 1q-3 0 -5 -0.5t-3 -0.5h-2h-2l-1 1q-10 -1 -16 -1v-1l-5 1q-13 1 -36 -1q0 -8 -2 -15q-11 -37 -42 -112q-8 -22 -19 -45
q55 9 62 11q2 1 15 4q2 1 7 2.5t8 1.5q52 5 108.5 -7.5t77.5 -44.5q10 -15 13.5 -30.5t0 -36t-5 -27.5t-9.5 -32q-1 -4 -3 -13t-4 -16l-2 -7q-15 -38 -30 -57q-7 -7 -11 -9.5t-10 -9.5l-3 -5q-25 -24 -46 -40q-2 -1 -5.5 -3t-5.5 -4l-3 -1l-1 1q-12 -13 -41 -26
q-51 -22 -96 -33q-1 -1 -19 -4q-1 0 -5.5 -0.5t-8.5 -1.5q-9 -1 -23 0q-31 1 -47 2q-7 1 -20 4q-4 1 -9.5 1.5t-8.5 1.5t-5 2q-26 15 -41 39t-17 43q-5 38 3 61q5 18 6 21q1 4 2.5 5.5t3 1.5t4 -1t3.5 -1t2 2t2.5 6t1.5 6q1 1 3 5l3 6t1 3q5 -5 18.5 -14.5t19.5 -18z" />
    <glyph glyph-name="six" unicode="6" horiz-adv-x="464" 
d="M113 332q22 19 46 32q79 41 199 40l7 1q21 -3 41 -9q23 -6 34 -12q27 -15 34 -32q16 -35 18 -62.5t-7 -58.5q-6 -24 -26 -54q-49 -73 -105 -113q-67 -48 -135 -59q-82 -13 -155 30q-3 2 -5.5 3.5t-5 3.5t-3.5 3l-3.5 3.5t-3 3.5t-3.5 5t-4 6q-10 12 -19 34q-18 39 -21 53
q-2 6 -2 10.5v8.5q-3 43 4 92v1h-1q0 4 2 10.5t4 11.5l2 4q30 68 74.5 137.5t83.5 108.5q13 14 67 56l6 6q10 7 21 13q44 23 68 32.5t57 16.5q32 6 58 1q18 -3 41 -19t26 -25q0 -1 3 -6.5t4 -6.5h-1l-1 -1l2 -6l2.5 -7.5t-0.5 -4t-1 -3.5q-1 -6 -0.5 -9.5t0.5 -6t-0.5 -4.5
t-2.5 -4q-1 0 -1 -4v-3q-2 -4 -12.5 -7t-11.5 0t-1.5 4t-2 1.5t-2.5 1.5q-6 6 -9 13q0 1 -1.5 0t-2 -0.5t-2.5 5t-3 5.5q-5 5 -11.5 9t-11 7t-5.5 5q-5 15 -19 23t-33 3q-53 -14 -127 -76q-33 -28 -61 -64q-49 -67 -82 -147zM106 139q1 -3 3 -7q13 -36 31 -60t38 -26
q53 -5 121 41q9 6 26 27q32 39 39 51q6 9 9.5 13.5t8.5 15.5l1 7q9 28 11 60l1 13q4 -5 5 -2q0 1 -1 2q-5 6 -9 34q-5 39 -52 54q-8 3 -23 3q-3 0 -19 -1q-23 -2 -32 -4q-38 -10 -64 -26q-14 -8 -22 -16q-12 -10 -19 -21q-39 -60 -45 -93q-3 -16 -4.5 -35t-2.5 -22
q0 -7 -1 -8z" />
    <glyph glyph-name="seven" unicode="7" horiz-adv-x="480" 
d="M501 646l3 3q3 4 3 5q-5 -4 -6 -8zM167 50q-4 3 -1.5 18.5t2.5 16t1.5 4t1.5 4.5h-1q-1 1 1 5l2 3q0 1 -1 1h-1q0 1 2 4t2 4q14 57 72 180v4q2 4 5.5 10t4.5 10q2 2 4 8t4 9q1 2 10 15q-6 0 -8 -1l-1 -1q-1 0 -2.5 0.5t-2.5 0.5q-9 0 -32 1h-9h-9h-10h-10t-7 1h-2h-2v1
h-2q-2 -1 -2.5 -0.5t-1 1.5t-1.5 1q-6 2 -6 3h-2t-1 1q-1 1 -3 7.5t0 7.5q1 0 2 3q2 4 4 5q1 1 1 2l-1 1l2 1q2 1 2 2q2 2 5.5 6.5t7 7.5t6.5 4q9 2 37 5q8 1 19.5 1h18.5q4 0 9 1t8 1q5 0 18 0.5t17 1.5q2 2 3 4q6 9 17.5 29t18.5 30q28 45 40 62q38 53 57 70
q-61 -8 -76 -10h-22h-18l-4 -1q-3 0 -6.5 0.5t-4.5 0.5q-14 1 -71 7q-11 1 -38 2q-9 0 -28 -1.5t-22 -1.5q-1 0 -4 -1t-4 -1v1q-1 0 -4.5 -1t-4 -1h-2h-2.5l-12 -1h-3l-2 -1q-1 0 -3.5 2.5t-3.5 4.5t0 3q2 0 4 4q3 4 8 6q1 0 0.5 0.5t-0.5 1.5q1 0 4.5 1.5t4.5 2.5
q3 2 11.5 7t14.5 8t12 4q37 6 80 6q17 0 47.5 -3t38.5 -4q21 -1 40 0q37 3 113 15q3 1 7.5 1.5t7.5 0.5q2 1 5 1.5t4 0.5l2 1q8 -15 9.5 -30.5t-1 -27.5t-10 -28t-13 -24t-16.5 -23t-14 -19q-11 -17 -27.5 -39l-19.5 -26q-2 -2 -3.5 -6.5t-2.5 -8.5l-1 -4q-3 -8 -8 -16
q7 -3 15 -2h2h1l1 1h1.5t2.5 -1l1 -1q4 -1 8 1q1 0 2 0.5t2 0.5t2 2l1 1q4 2 16 -2q8 -3 9 -4q2 -2 3 -2q1 -1 1 -8q0 -1 3 -3l2 -2q-2 -29 -2 -30q0 -2 -4 -5l-3 -3q0 -1 -1 -0.5t-1.5 0.5t0 -1t0 -1h-1.5h-1v-1h-1h-1q-11 -6 -46 -7l-1 -1h-2.5h-2.5l-2 -1h-2t-2.5 0.5
t-2.5 0.5q-2 1 -5 1.5t-5 1.5q-1 0 -3 0.5t-3 0.5q-2 1 -7.5 0t-6.5 -1h-6l-6 -9q-1 2 -3 2q1 -8 -12 -29q-18 -31 -31 -64l-3 -6t-3 -7q-1 -1 -1.5 -4t-2 -6t-4.5 -8t-4 -8q-9 -16 -14 -35q-1 -2 -2.5 -6.5t-2.5 -8.5q-1 -3 -1 -8.5v-7.5q-5 -16 -30 -62q-17 -31 -20 -34
q-5 -6 -8 -11q-1 -2 -2.5 -2.5t-3 0t-4 2t-3.5 1.5t-2 -1t-2.5 -3t-1.5 -3l-7 -7q-1 1 -15.5 11.5t-18.5 19.5z" />
    <glyph glyph-name="eight" unicode="8" horiz-adv-x="457" 
d="M263 399q25 10 49 7q5 0 17 3q23 6 27 7q4 2 6.5 2.5t6.5 3.5l2 2q10 8 21 22l5 6l2 -2q0 3 9 23q10 23 10 46q0 1 0.5 4t0.5 5q-1 1 -1.5 3t-0.5 3.5t0.5 4.5t0.5 5q0 9 -4 16q0 1 -0.5 2.5t-1.5 2.5t-3 1.5t-2 1.5q-1 3 2.5 12t3.5 12q0 6 -5 17q-1 3 -4 6q-2 1 -1 7
q1 1 -4 3q-1 1 -2 1q-4 -1 -7 0v-1q0 -1 -1 -1h-3q-3 1 -4 1q-4 0 -14.5 -1.5t-15.5 -0.5q-32 4 -49 -5q-23 -13 -38 -38q-5 -9 -7 -24q-5 -33 0 -52v-3l1 -2q0 -2 1 -3l1 -2q3 -10 4 -40t-2 -55zM248 356q-15 -5 -20 -7q-40 -11 -64 -32q-32 -28 -52 -65q-8 -14 -13 -36
q-11 -47 -6 -75q1 -1 1 -3v-3q1 -2 2 -3.5t1 -2.5q14 -62 52 -72q37 -10 98 -2q6 1 20 8q27 13 31 15q4 3 6.5 4t7.5 5l2 3q10 11 18 26l4 7l2 -2q0 3 3 23q5 22 0 43v4t-1 4q0 1 -1 2.5t-1.5 3.5t0 6t-0.5 6q-1 12 -7 22q-1 1 -2.5 4l-2.5 5q-2 2 -5 4.5t-4 2.5
q-5 9 -14 25.5t-13 20.5q-6 8 -14 15.5t-10 8.5q-4 5 -9 9q-3 2 0 9l-7 5l-8 6q3 2 7 6zM407 648q4 2 8.5 2.5t10 0.5h7.5l3 -1l3 -1q1 0 1 1l3 -1q3 -1 4 -1v1q2 0 7 -2q33 -19 47.5 -65t4.5 -93v-5q-2 -2 -11 -20q-8 -15 -10 -18q-5 -6 -17 -17q-23 -20 -44 -33
q-8 -5 -25 -11q-40 -16 -70 -19q-20 -3 -27 -4q1 0 4 -2l3 -1q1 0 1 1v0q1 0 4.5 -2t4.5 -3v1l8 -4q42 -23 74.5 -71.5t41.5 -100.5l1 -4q-1 -7 -5 -26q-4 -16 -6 -21q-5 -9 -15 -22q-20 -25 -43 -41q-8 -6 -25 -16q-43 -22 -76 -31q-47 -12 -98 -12q-53 0 -101 14
q-13 4 -18 6q-4 2 -16 11q-20 16 -22 18t-3 4.5t-2 3.5q-12 18 -19 42h-1h-1q-3 4 -1 14q6 87 36 140q3 6 8.5 13.5t12 15t7.5 8.5l2 5q2 2 4 3.5l4 3t3 2.5q37 31 73 50q23 11 43 16q13 3 30 6q-5 11 -7 24l-2 -1q-2 -6 -3 -11q-3 2 -5 4.5t-3.5 5t-2.5 3.5q-4 4 -8 8.5
t-6 7t-3 3.5q-2 2 -2 4.5t-1 3.5q-9 18 -14 39q0 1 -1 0h-1q-1 2 -1 5t1 5v3q9 75 38 114q3 4 8.5 9l11 10t6.5 6l2 3l4 2t3.5 1.5t2.5 1.5q31 17 61 24q20 5 35 5q37 1 48 -4l4 -1h3v-1q1 0 4 -1t4 -1t1.5 -1.5t1.5 -1.5l10 -6q2 1 3 2zM203 395q0 -2 -1 -3h2h2z" />
    <glyph glyph-name="nine" unicode="9" horiz-adv-x="474" 
d="M424 516l-1 1q-2 6 -2 12.5t1 13.5t1 8q0 5 -3 24q-1 5 -4 10q-2 2 2 9q0 1 -5 7t-6 6q2 1 3 2q-20 7 -38 5q-39 -5 -82 -32q-18 -12 -35 -30q-44 -47 -61 -90q-2 -8 -3 -10q-1 -4 -2 -11q-4 -71 11 -103q16 -34 41 -52q4 -2 15 -2q23 0 29 2q3 1 5 1h3t2.5 0.5t5.5 2.5
l3 2q15 8 34 23q1 1 3.5 2.5t4.5 2.5l1 2l1 -2q2 4 6.5 9t10 11t7.5 8q27 33 42 69q2 8 4 20t4 20q0 5 0.5 16.5t1.5 15.5v27zM-36 66q5 1 14.5 -2.5t10 -3.5t2.5 -2t3 -2v0q0 1 1 1l2 -1q2 -2 3 -2v1q1 0 3 -1.5t3 -1.5q86 -32 135 -35l3 1h5h5.5t5.5 0.5t7.5 2t5.5 1.5
t7 1t9 2q18 5 37 14q13 6 17 8q20 14 40 34q15 16 34 43q19 29 32 56q2 3 3 6.5t2 6.5t3.5 6.5t3.5 4.5q0 1 6 21q0 2 1.5 3.5l2.5 2.5q6 17 11 35h-1q-1 0 -1 1t1 4t3 4l1 2q1 4 2 9q-13 -9 -30 -18q-13 -7 -30 -12q-46 -15 -78 -16q-53 0 -87 21q-46 27 -69 84
q-5 13 -7 21q0 3 1 21l2 31l2.5 5t1.5 4q7 22 19 46v1h-1q0 2 2.5 5t4.5 5l2 2q60 78 109 114q4 2 42 24l4 3q3 1 14 5q46 16 83 20q24 3 43 0q14 -2 32.5 -7.5t22.5 -9.5q1 0 4.5 -2t4.5 -2l-1 -1q0 -1 3.5 -3t4.5 -2.5t1 -2t1 -2.5q2 -2 3.5 -4t2.5 -3t1.5 -2t0.5 -3
q0 -1 1 -2l1 -2q0 -3 -5 -9q11 -18 16 -41q11 -13 13 -23q7 -41 4 -83q-1 -12 -3.5 -23t-7 -26t-6.5 -19q-2 -7 -4 -25q-4 -27 -21 -94q0 -3 -2 -7.5t-2 -5.5q-1 -3 -2 -7.5t-2 -6.5q-14 -36 -39 -78t-46 -66q-17 -19 -58 -48q-2 -1 -5 -4l-5.5 -5.5t-2.5 -3.5
q-11 -9 -27 -16q-5 -3 -8 -3.5t-8 -2.5l-3 -3q-24 -10 -35 -14q-1 0 -3.5 -0.5t-3.5 -1.5h-2l-1 2q-7 -6 -28 -10q-36 -6 -65 -9q-2 0 -6.5 -0.5t-6 -0.5t-4.5 -0.5t-6 -0.5q-1 0 -16 2q-13 1 -34 2q-3 0 -7.5 0.5t-6.5 0.5h-8.5h-6.5q-28 4 -59 20q-23 13 -28.5 18.5
t-8.5 7.5q-2 3 3 10q0 1 -5 7l-4 6q2 2 13 11t19 12z" />
    <glyph glyph-name="colon" unicode=":" horiz-adv-x="184" 
d="M132 328h-5q-5 1 -5 3q-1 1 0 4q1 2 1 3t-0.5 1.5t-0.5 1t1 1.5h1q1 1 0 3v1h1l1 1l3 6h-1l-1 1l2 1q4 4 8.5 13t5.5 10q1 2 4 4l3 3v2l2 1h2q7 5 19 8l4 2q4 1 6 1l13 1h1l1 1v-1h1h1.5h1.5v-1l4 -2l1 -1q8 -8 6 -11l1 -3q1 -3 0 -4q0 -1 0.5 -1.5t0.5 -1v-1v-1.5
q1 -2 3 -8t2 -8q1 -7 3 -10q0 -1 1 -3t2 -3q0 -1 1.5 -2t1.5 -2q1 -1 2 -3.5t2 -3.5v-1l1 -1h1q2 -4 0 -17q0 -3 -1.5 -4.5t-4.5 -3.5t-4 -4l3 -5q0 -4 -6 -8q-1 -1 -3.5 -0.5t-4.5 -1.5v-1q-9 -5 -15 -6h-3h-2l-2 2q0 -3 -11 -2q-13 2 -21 -1h-1q-1 0 -2 -0.5t-1.5 -1
t-1.5 -0.5h-2h-2q-4 0 -10 -2h-2q-1 -1 -2 -1q-1 -1 -2.5 -2t-2.5 -1q-7 -2 -15 6q-7 5 -7 7q-1 2 -1 3q-1 1 4 10v3q-1 3 -1 4q2 2 8.5 11.5t12.5 15.5zM27 95q2 1 8 0t7 -1q1 2 2 3h-1l-1 1l3 1q4 4 10.5 12.5t9.5 11.5l6 3l4 2v1q1 1 3 1h1q10 3 22 4h4q4 1 6 1h13.5h1h1
t0.5 -0.5t0.5 -0.5h1h1.5v-1q3 -2 3 -3h1q4 -9 0 -11l-1 -3q-1 -2 -2 -3l1 -1l-1 -1l-1 -1q-1 -2 -2 -6.5t-2 -4.5q-4 -4 -5 -7q0 -5 1 -9q0 -1 1 -2.5t2 -2.5q1 -2 1.5 -6t0.5 -5q1 0 0 -1q0 -1 1 -2h1q1 -8 -4 -23q-2 -3 -13 -11v-3q1 -3 0 -3q-1 -4 -8 -6
q-2 -1 -4.5 -0.5t-4.5 -0.5v-1q-10 -2 -17 -1l-5 1v1q-1 0 -11 -2q-5 -1 -13 -3t-12 -2h-2.5h-2.5t-2 -0.5t-2.5 0t-3.5 1.5l-1 1q-5 3 -12 5q-1 0 -2.5 0.5t-2.5 0.5h-4.5h-3.5q-7 3 -14 18q-6 12 -5 14q0 4 -1 6q0 2 9 9l1 5q0 4 1 4q1 1 14 9t24 12z" />
    <glyph glyph-name="semicolon" unicode=";" horiz-adv-x="158" 
d="M197 321q2 -1 5 -5t4 -5v-1v0l1 -1l-1 -1h1v-1q4 -7 0 -19l1 -1q0 -1 -0.5 -1t-0.5 -0.5t1 -1.5v-1h-2h-1q-1 -1 -2 -1.5t-2 -0.5h-1h-2v-4q1 -2 1 -2.5t0.5 -3t0 -3.5t-1.5 -2l-1 -2q0 -1 0.5 -1.5t0.5 -1t-1 0.5h-1q-1 -1 0 -2h-1l-2 -2h1l-1 -1q-3 -1 -2 -8
q0 -1 -1 -1.5t-1 -1.5l1 -1h-1q-2 -1 -7 -2l-1 -1q-1 -1 -2 -1t-4 -0.5t-5 0.5v-1h-1l-1 1h-1l-2 1h-2q-7 2 -7 3h-2q-27 11 -29 13l-6 4l-8 4l-2 1q-2 1 -3 1l-2 1q-1 1 -1 2l-11 5.5t-11.5 6.5t-5.5 5v4q0 3 0.5 4.5t4 3t4.5 2.5t1 2.5v2.5q1 1 3.5 4t2.5 5l1 1v1l-1 1
q0 2 1.5 4.5t3.5 5t3 3.5q0 1 9 3q-1 0 -3 2q0 2 -1 3l1 1v2q1 1 3 0l2 -1v1l-1 1l1 1q1 1 2 1q1 1 2 0l4 -2q-5 5 -2 4h1q5 1 6 5l1 1v1q-1 1 -0.5 1h1.5h1q3 1 2 4v0q0 1 -1 2q0 1 -1.5 2.5t-1.5 2.5q0 3 8 1q6 0 7 -1q3 -1 4 -2q1 0 11 -8l3 -2q3 -2 4 -2q2 -2 14.5 -13
t21.5 -19zM-111 -144q-1 1 0 4l1 2q0 1 0.5 1h1t0.5 1h-1h1h1h-1q0 1 1 1h1q6 6 47 26l1 1q1 1 3.5 2t4.5 2q1 0 2.5 1.5t3 2t4 1.5t4.5 1l18 9q1 1 4.5 2.5t5.5 2.5q7 4 22 15q7 6 20 18q12 11 18 19q1 1 1.5 2.5t0.5 2.5l2 2l1 1q1 1 3 7q0 1 0.5 1t1.5 1q2 5 3 10h-1l2 2
q2 9 -3 25q0 1 -0.5 3.5t-0.5 3.5h-2q0 1 1 2l1 1q-1 3 -1 9.5t-1 11.5q0 2 -2.5 8t-2.5 7q-1 3 -6 11.5t-5 11.5l-2 1l-1 2l1 1l-2 1q-1 2 -1 2.5v1.5v2l-2 7q0 1 -1 2v1q0 2 3.5 8t5.5 6q1 -1 5 1q4 1 7 0q1 0 1 1l1 1q1 0 3 -1t3 -1q6 0 11 0.5t11 -0.5t9 -3
q19 -14 33 -33q12 -16 19 -48q3 -16 2 -24q-2 -19 -19 -50q-1 -1 -2 -2.5t-2 -1.5q0 -1 -1 -2.5t-1 -2.5q-19 -22 -53 -46q-5 -4 -29 -16q-1 0 -2.5 -1.5l-2.5 -2.5l-1 -2q-5 -4 -13 -8q-3 -1 -4.5 -1t-3.5 -1l-1 -2q-2 0 -7 -2.5l-9 -4.5q-3 -2 -5 -2l-1 2q-2 -4 -12 -7
q-14 -6 -26 -12q-1 0 -2.5 -1t-2.5 -1.5t-1.5 -1t-1.5 -1t-3 -1t-3 -0.5q-6 -2 -11 -6h-1l-2 -2t-1.5 -2t-1.5 -2q-2 -2 -12 -5l-4 -1q-1 1 -1.5 1t-3.5 4l-1 1l-1 1q-11 16 -12 19z" />
    <glyph glyph-name="less" unicode="&#x3c;" horiz-adv-x="480" 
d="M87 218q0 3 5 8l6 5q1 1 2.5 1t1.5 1v1h2l2 1v1q-1 0 -0.5 0.5t2.5 1.5h1q11 7 24.5 14t35 16.5t26.5 12.5l2 2q1 0 4.5 1.5t5.5 2.5q1 1 3.5 2.5t4 2.5t5 1.5t5.5 1.5q5 2 12 5t10 4q2 1 6 2t6 2q4 2 8.5 4.5t9.5 6t8 4.5q2 1 11.5 7t14.5 8q6 3 16 7.5t13 6.5
q1 0 2.5 1.5t2.5 1.5q2 1 4 1.5t3 0.5q2 1 3.5 2t2.5 2t2 1h2h1q9 4 14 6v1l5 1q4 1 45 19q2 1 7.5 3t7.5 2l1 2q1 1 2.5 0.5t2.5 -0.5q11 4 28 7q1 0 7 1.5t8 1.5t7.5 1t8 1h5.5h1h2v-1l1 1h2l1 -1l1 -1q5 -2 5.5 -2.5l0.5 -0.5h1q2 -2 4 -8t1 -7l-1 -4q0 -3 -2 -5l1 -1
v-1.5t-1 -1.5l-1 -1l-2.5 -7.5t-3 -8t-3.5 -4.5q-1 -1 -24 -11q-6 -2 -16 -5t-15 -5q-3 -1 -8 -3.5t-6 -3.5q-4 -2 -12 -5.5t-14 -6.5l-10 -5l-2 -1q-1 0 -2 -1q-1 0 -2 -1t-1 -2q-9 -5 -31 -16l-24 -12t-31 -12q-1 0 -3 -4l-3 -3q-4 -4 -13 -7q-3 -2 -5 -1t-4 -1l-1 -2
q-2 0 -7.5 -3t-10.5 -4l-5 -1l-1 2q-2 -5 -14 -9q-18 -5 -35 -14q-1 -1 -3.5 -2t-3.5 -1l-2 -2t-3 -1.5t-5 -1t-5 -1.5l-6 -2q1 -1 2 -1q3 0 8.5 -1t8.5 -1q6 -2 19.5 -5.5t17.5 -4.5q1 0 2 -0.5t2 -1.5q1 0 2.5 0.5t2.5 0.5q15 -4 49 -20q4 -3 7 -5.5t6.5 -6.5t4.5 -6
q1 0 2.5 0.5t3.5 1t3 0.5q5 -1 10 -5q2 -2 1.5 -4.5t1.5 -2.5h2q2 -1 5.5 -3.5t6.5 -4.5q4 -4 2 -4l-2 -4q3 2 5 2t3 -1t2 -2.5t2 -2.5q10 -11 24 -17q1 -1 2.5 -2t2.5 -2h2.5t2.5 -1l3 -3l3 -3q6 -5 15 -8q1 0 3.5 -1t3.5 -1q2 0 5 0.5t4 0.5q4 -1 9 -4t7.5 -5.5t6.5 -6
t5 -4.5q14 -12 15 -13q2 -4 5 -6q1 -2 -3 -12l3 -4q3 -5 3 -6q-3 -4 -6.5 -11t-7.5 -12.5t-9 -10.5q-3 -3 -11.5 -3.5t-9.5 -0.5h-2q-2 1 -2 2l-1 -1v-1l-2 1l-2 1v-1l-1 -1l-2 1l-2 1q-28 3 -93 33l-2 -1q-2 1 -4.5 2.5t-4.5 2.5q-1 1 -4 1.5t-4 1t-3.5 3l-3.5 3.5
q-3 2 -8.5 6t-8.5 7l-3.5 3.5l-3.5 3.5q-4 2 -12 5.5t-10 4.5l-6 3t-7.5 3.5t-5.5 3.5q-4 2 -9.5 7t-7.5 6q-1 1 -2.5 1t-2.5 0.5t-1.5 2t-0.5 2.5q-2 1 -5 2h-1v1v2q-5 4 -9 6v-1l-2 3q-8 8 -30 17q-2 1 -6 3.5t-5 2.5l-2 -1q-1 0 -1.5 1.5t-1.5 1.5q-4 2 -8 3.5t-8 4
t-8 3.5q-2 1 -7 3t-7 3q-3 1 -8 2.5t-8.5 3t-4.5 2.5h-1q-2 0 -3 1l1 1h-2.5t-1.5 0.5t-0.5 1.5t-1.5 1q-1 1 -2.5 2t-2.5 3q0 1 -1 2v0q-1 2 -1.5 8.5t1.5 7.5l-1 1q0 4 -1 10.5t-1.5 9.5t0.5 11z" />
    <glyph glyph-name="equal" unicode="=" horiz-adv-x="501" 
d="M549 277q-1 -2 -5 -5l-5 -3q-1 -1 -2 -1l-1 1v-1v-1h-2h-1v-1h-1h-2q-12 -4 -79 -11l-2 -1q-1 -1 -4.5 -1h-5.5q-1 0 -4 -1t-4.5 -1h-5.5h-5q-6 0 -13.5 -0.5t-12.5 -0.5q-2 0 -6 0.5t-6 0.5q-7 -1 -18.5 -3t-14.5 -2q-31 -4 -34 -4q-6 -1 -12 -1h-13.5h-11.5q-2 0 -4 -1
t-4 -1t-4 1l-3 1q-3 0 -5.5 -0.5t-3.5 -0.5l-2 -1q-1 0 -2 1t-2 1h-8.5h-10.5v-1l-5 1q-12 2 -35 3l-23 1q-3 0 -10 1.5t-8 1.5l-2 -2l-4 2l-1 1q-16 3 -33 10l-7 3q-7 2 -9 3t-7.5 4t-8.5 5t-4 4h-2l-1 1l1 1v1l-2 1q-1 0 -1 0.5v1.5v2q0 2 -1.5 4t0.5 3v2l-1 1q1 3 6 12.5
t8 9.5l4 4q4 4 7 5v1q1 2 1.5 2t2 0.5t2.5 0.5q2 2 7 6.5t8.5 7t5.5 1.5q4 -2 10.5 -6.5t9.5 -5.5q2 -1 12 -7t17 -8q1 -1 15 -4q32 -7 42 -7h2.5h2.5h3h2h35.5h33.5q8 1 22 0l13 -1q1 0 3 1l4 2l2 1q6 2 16 2q3 0 4.5 -1t4.5 -1l2 2q3 0 9 0.5t11 0.5l5 -1v-2q3 4 16 4
q18 -1 35 2q1 1 3.5 1h3.5t2.5 0.5l3 1t4.5 0t4 -0.5q8 0 17 2q1 1 3 1t3 1q2 1 4 2.5t3 1.5q8 2 28 -1q12 -2 14 -3q2 -2 4 -3q2 0 2 -8l3 -2l3 -3q-1 -1 -2 -12t-3 -18zM540 118q0 -2 -2.5 -5.5t-2.5 -4.5h-2h-1v-1q0 -1 -1 -1h-1v-1l-1 -1h-1q-15 -8 -76 -20l-2 -2
q-2 0 -5.5 -0.5t-5.5 -0.5q-1 -1 -4 -2t-5 -1h-6h-6q-6 -1 -14.5 -1.5t-14.5 -1.5h-7h-7q-7 -1 -20.5 -3t-18.5 -3q-33 -5 -39 -5q-2 -1 -43 -2q-2 0 -4.5 -0.5t-4.5 -0.5t-5 1h-3q-3 0 -6 -0.5t-5 -1.5h-2q-1 0 -2 1l-2 1h-11h-10v-1l-7 1q-13 2 -37.5 3t-25.5 1
q-3 0 -10 1t-8 1l-3 -1q-1 0 -2.5 1t-2.5 2q-16 3 -32 9q-2 1 -5.5 2t-6.5 2t-5 2q-1 1 -6.5 4t-8.5 5.5t-3 4.5l-2 1q-1 0 -1.5 0.5t0.5 1.5h1q0 1 -2 2h-1l1 2v2q0 2 -0.5 4.5t1.5 3.5q1 1 1 1.5v1.5l11.5 11.5t11.5 9.5l6 4q6 4 7 5q1 0 2 1l2 2h2l2 2q3 2 8 6.5t8 7.5
l3 2q2 -2 4 -6.5t5 -6.5q14 -13 23 -17q3 -1 16 -4q32 -7 46 -7q1 0 2.5 -0.5t2.5 -0.5q2 0 3.5 0.5t2.5 0.5h24.5h31.5t23 1q6 0 23 -0.5t19 -0.5q1 0 3.5 1t4.5 2l2 2q6 2 18 2q4 0 5.5 -1t5.5 0l2 1q3 0 10 1t12 2l6 -1v-2q3 4 17 4q19 1 37 5q1 1 3 1t4 1l1 1
q2 0 3.5 0.5t4 0.5h4.5q8 1 15 4q1 0 3 0.5t3 1.5t3 2.5t2 2.5q6 3 22 2q9 -1 11 -1q2 -2 3 -2t3 -8l3 -1l2 -2q4 -29 4 -30z" />
    <glyph glyph-name="greater" unicode="&#x3e;" horiz-adv-x="380" 
d="M426 211q-1 -2 -4.5 -4t-4.5 -2h-1h-1v-1h-1h-2v-1h-1h-1q-55 -28 -64 -33v-0.5t1 -0.5l1 1h1h3l1 -1v-1l-4 -2h2q1 1 4 2l2 1q0 -1 -2 -2v-1q-1 0 -3 -1l-4 -3l4 2v-2l2 1l-1 -1q-1 -1 -2 -1q-1 -1 3 1q1 0 2 0.5t3.5 2t3.5 1.5q3 2 -1 -1q-1 0 -3 -2l-1 -1l-8 -4
q-3 -2 -4 -3t-17 -10q-2 -1 -3 -2t-1.5 -1t-2 -1t-2.5 -1q-9 -5 -27 -15.5t-32 -18.5l-8 -4q-4 -4 -13 -12.5t-14 -13.5q-6 -5 -16 -13.5t-15 -11.5q-1 -1 -2 -3t-3 -3q-1 -1 -4 -3l-2 -1q-2 -2 -4 -3.5t-3 -3.5l-1 -1q-1 -1 -2 -1t-2 -1q-10 -8 -14 -11h1v-1l-5 -2
q-8 -6 -22 -17t-17 -13q-2 -2 -6.5 -4t-5.5 -3v-1q-1 -1 -3 -1h-1q-11 -4 -22 -4q-1 0 -5 -0.5t-6 -0.5t-7 -1t-8 -1.5t-6 0.5h-2h-2v1h1q-1 1 -3 1t-2 0.5v1.5v2t-1 2.5t1 3.5q1 0 1 1v1q1 2 10.5 7t11.5 5q1 0 5 2q5 3 5 4l2 1l1.5 1.5t0.5 2.5q0 4 -1.5 7.5t-3.5 2.5
l-2 -1l-5 -1q2 0 12 10l4 4t4 5q4 2 14.5 11.5t14.5 13.5l2 2l2 2q1 0 2 1.5t1 2.5q10 10 57 50q5 4 35 24q1 1 2.5 3t2.5 4l1 2q5 6 15 13q3 2 5 2t5 2l1 2q2 1 8.5 5.5t11.5 7.5l6 3l1 -2q2 5 15 12q17 8 37 19q1 1 3.5 2t3.5 2h1q-1 1 -2 1q-3 1 -9 2t-9 2q-8 2 -23.5 7
t-20.5 6q-1 0 -2.5 0.5t-2.5 1.5h-3h-2q-22 7 -68 27q-5 3 -32 20q-1 1 -5 1h-5q-7 2 -16 8q-3 1 -3.5 3t-3.5 4h-2q-2 1 -8 4.5t-10 6.5q-6 4 -4 5l2 2q-6 -2 -17 7q-14 13 -31 24q-1 0 -3 2t-3 2q-1 1 -3 1.5t-3.5 1.5t-3.5 3.5t-3 3.5q-7 7 -16 12q-1 0 -3.5 1.5
t-3.5 2.5q-2 1 -5.5 1t-4.5 1q-10 5 -22 25q-9 14 -9 17q0 4 -1 6t8 10v5v5q2 1 15 10.5t23 13.5q2 1 9 -0.5t8 -1.5l1 -1l1 -2l1 1q1 0 1.5 -1t1.5 -1l1 1l1 -2l1 -1q10 -5 20.5 -13.5t25.5 -22.5t21 -19h2l3.5 -3.5t4.5 -3.5q1 -1 3.5 -2.5t4 -2.5t3.5 -4t4 -4
q1 -1 18 -16q1 -2 4 -5t5 -4q3 -2 27 -16q4 -3 13.5 -7.5t13.5 -7.5q4 -2 14 -8l15 -9q2 -1 3.5 -1.5t3.5 -0.5l2.5 -2.5l2.5 -2.5q2 -1 4 -1.5t4 -0.5l1 -1q1 0 1.5 -1t1.5 -2q7 -4 14 -7v1h1l3 -3q14 -8 46 -19q2 0 7.5 -2.5t6.5 -2.5l2 1l2 -2t2 -1q6 -2 25 -10
q1 0 6 -1.5t6.5 -2.5t5.5 -2t7 -2t3 -2q1 -1 2 -1h1v-1h1h1.5t0.5 -1v-1q1 -1 2 -1.5t2 -1.5q5 0 7 -1q3 -1 5 -1q2 -1 1 -6l4 -2l2 -2q0 -2 -1.5 -9.5t-4.5 -11.5zM62 16v0v0z" />
    <glyph glyph-name="question" unicode="?" horiz-adv-x="449" 
d="M204 36q0 -1 -3 -2q1 -2 2 -3h1q1 0 4 -0.5t6 -0.5h6l2 2l1 1h4l-2 1v1q1 3 -5 5q-2 1 -3.5 0.5t-9.5 -3.5l-1 -1h-2zM248.5 95.5q0.5 -1.5 0.5 -5.5v-5h-1v-1h1h-1v-1v-1h-1q-1 -3 -4 -6t-5 -4t-6.5 -3.5t-5.5 -3.5v-1q-1 0 -2 -0.5t-1.5 -1l-1 -1t-0.5 -1t-1 -0.5h-2
q-2 0 -4 -0.5t-3 -1.5h-1h-2q-1 -1 -5 -7q-1 -1 -2 -5v-2q-2 -5 -2 -6l1 -1v-1v-2q-1 0 -1 -1q-2 -1 -3.5 -1.5t-4.5 -2.5q-2 0 -3 -1v0q-31 -15 -34 -15l-8 -3q-8 -2 -11 -2q-1 0 -3 -1t-3 -1h-3h-3q-3 -1 -15.5 -3t-15.5 -2t-10 2q-8 7 -10 23q0 5 1 9.5t5 12.5l4.5 9t2 6
t3.5 7q4 6 13.5 14t10 8.5t1.5 1t2 0.5q0 1 1 2v1q4 2 32 15q1 0 15 2l1 4q1 2 5 3q1 0 2 -1t2 0v1q1 0 3 1t4 1q2 1 2 0v-1l1 -2q0 4 0.5 4.5t2.5 0.5l1 -1q6 1 11 4h1l1 1v1q0 1 0.5 1h1.5h2q3 0 4 3v0l1.5 1.5t0 2.5t0.5 2q1 3 8 1q4 -1 5 -1q1 -2 2 -2t5 -8l2 -2l2 -2
q14 -29 14.5 -30.5zM194 245q-4 0 -8.5 3.5t-9 9t-5.5 6.5q0 1 -0.5 4t-1.5 4l-1 -1q-1 1 -1 5v3q0 1 -1 1l-1 -1v4t1 4q21 52 123 101l3 2q3 2 9.5 4.5t9.5 4.5t8 4.5t8 3.5q2 2 8.5 4.5t9.5 4.5q22 12 38 24q12 9 15 13q14 19 12 39q-1 5 -4.5 16t-4.5 15q-4 18 -19 56
q-1 2 -3 4t-2 3l-2.5 5t-1.5 4q-3 4 -11 9q-1 1 -1.5 2.5t-1.5 2.5q-10 7 -23 12v-1l-7 3q-49 5 -90 -15q-14 -8 -23 -17l-2 -2q-2 -2 -4 -3t-3 -2q-18 -23 -26 -39q-1 -3 -2 -7l-2 -8t-1 -6q-1 -3 -1.5 -9t-1 -11t-2.5 -6q0 -1 1 -3v-2h-1h-1v-2q1 -2 1 -2.5t-1.5 -1.5
t-1.5 -2q-1 -2 -1.5 -4.5t-2.5 -4.5q-1 -1 -1 -2v-1q-2 -3 -10.5 -7.5t-10.5 -2.5q-1 0 -6 1q-6 2 -9 6q-1 0 -2 -0.5t-2 -0.5q-1 1 -3 3.5t-2 3.5q-2 2 -8.5 8t-10 9.5t-6 9t-2.5 10.5q4 39 32 70q21 24 70 50q20 11 36 16q41 13 95 16q0 1 5 1l5 -1q2 0 6 0.5t5 -0.5
q38 -4 81 -29t62 -59q23 -44 5 -98q-1 -3 -2.5 -8.5t-2.5 -9.5l-2 -4q-10 -17 -26 -28q-5 -4 -8.5 -5.5t-8.5 -4.5l-3 -3q-23 -15 -35 -21q-1 -1 -3.5 -2t-4.5 -1.5t-2 -1.5l-1 2q-6 -6 -28 -16q-38 -16 -65 -30q-1 -1 -5.5 -3t-6.5 -3q-1 -1 -3.5 -2.5t-4.5 -2.5t-6.5 -3
t-6.5 -4q-14 -8 -20 -17q-4 -5 -5 -7q-1 -6 0 -10q5 -8 10 -9q-2 -1 -4 -3t-3 -5q0 -2 -10 -8l-1 -6v-3v-3q-4 -2 -12 -5.5t-15 -5.5t-14 -1zM253 285h2q0 1 -2 0z" />
    <glyph glyph-name="at" unicode="@" horiz-adv-x="804" 
d="M495 282q-2 8 -3 15q-4 36 2 85t12 67q1 1 3 11q-13 22 -26 25q-26 6 -63 -11q-15 -7 -31 -21q-40 -34 -59 -71q-4 -6 -5 -9q-1 -4 -2 -10q-12 -55 0 -100q8 -31 14 -41q2 -2 10 -4q18 -5 21 -5t6 -1t7 0l3 1q14 3 32 11q1 0 3.5 1t4.5 2l1 1v-2q3 3 14 10t12 8
q26 18 44 38zM559 435v3q0 -1 -1 -1q0 -1 1 -2zM649 63q-10 -10 -21 -17.5t-25.5 -15t-15.5 -8.5q-1 0 -4.5 -2t-8 -3.5t-5.5 -2.5v-1q-1 0 -5 -1.5t-8.5 -3t-5.5 -2.5q-7 -4 -19 -7q-122 -32 -214 -17q-111 17 -223 106l-8 6q-20 21 -35 44q-17 24 -25 43q-13 30 -16 57
q-5 46 -3.5 77t11.5 73q6 27 29 77q48 106 91 152q57 61 144 92q80 29 195 34q18 0 41 -1q17 -1 40 -5q43 -7 59 -11l18 -6q46 -16 90 -40v0q0 1 1 1l23 -17q82 -75 101 -147q10 -48 3.5 -87t-25.5 -71q-20 -36 -73 -82l-8 -8q-20 -14 -27 -17q-61 -28 -90 -34.5t-76 1.5
q-15 3 -32 20q-2 0 -5 -2.5t-5 -4.5q-15 -11 -18 -12q-8 -6 -21 -12q-29 -14 -52 -21q-10 -3 -25 -6q-40 -6 -63 -4q-44 4 -67 26q-30 29 -37 85q-2 12 -1 19q0 1 4 18q1 5 2.5 11t2.5 9.5t2 5.5q0 2 2 4t2 3q9 18 22 38h-1v1l8 10q58 60 102 86q4 3 36 16l3 1q3 1 11 3
q38 8 67 7q21 -1 35 -6q1 -1 2 -1q3 6 6 9q1 1 3 4l2 4q5 6 15 3q2 -1 2 -3q-1 -3 0 -10q0 -9 -1 -20q-1 -1 0.5 -0.5t1.5 -0.5t-1 -5q8 -6 9 -10q1 0 3 -3t3 -4h-1h-1q0 -1 2.5 -4t2.5 -3.5v-2.5l-1 -2q1 -2 1 -3q1 1 1 3q0 3 1 3q3 1 12.5 3.5t13 3t13.5 -1.5q4 -1 7 -5.5
t6 -11t4 -7.5t1 -5v-3q0 -1 1 0q1 0 0.5 -4t0.5 -4h1v-8q-8 -64 -72 -142q4 -22 15 -29q26 -16 69.5 3t84.5 60t47 87q6 48 -11 107t-41 93q-5 7 -16 18q-13 12 -18 15q-70 39 -175.5 57t-174.5 0q-82 -21 -148 -83q-9 -8 -25 -36q-29 -54 -37 -70q-6 -13 -10 -19t-10 -21
l-2 -9q-18 -46 -28 -104q-4 -23 -3 -27l-2 6t-2 1q0 -2 1 -6q1 -9 3 -37t5 -37q18 -77 64 -135q9 -11 22 -23q3 -3 5.5 -4.5t6 -4.5t7.5 -6q23 -18 33 -24q40 -22 77 -33q19 -5 34 -7q21 -4 36 -4q102 0 152 17q32 11 76 35q11 6 24 15q9 5 10 0h1q1 1 3 2.5l4 3t4.5 3.5
t3.5 2q2 2 6 4t6.5 4t3.5 4q-2 -6 -5 -15.5t-5.5 -14t-5.5 -8.5z" />
    <glyph glyph-name="A" unicode="A" horiz-adv-x="519" 
d="M374 429q-2 -1 -5.5 -5t-5.5 -6q-25 -28 -32 -36q-3 -3 -9 -8.5t-8 -8.5q-8 -8 -22 -24.5t-19 -22.5t-18.5 -22t-21.5 -25q-4 -5 -12.5 -14t-9.5 -11q28 4 34 5q8 1 49 3q2 0 4.5 1t5.5 2l2 1q9 2 22 3q4 0 6 -1t6 0l3 1h10v7q4 47 5 56q2 12 5.5 34.5t4.5 27.5v6.5
t1 6.5q0 3 1.5 7t1.5 5q1 4 1 8t1 7v3zM385 -37q-3 0 -9 4.5t-6 5t-0.5 2t-1.5 1.5h-1l-1 2v2h-1h-1v2l-1 2q-18 33 -22 117l-1 3v8v8t-0.5 7.5t-0.5 6.5q0 3 1 9t2 8q4 40 4 41q1 3 2 9t1 7q-9 0 -41 -4q-7 -1 -21.5 -3t-20.5 -3q-8 -1 -24 -2.5t-24 -2.5q-3 0 -5.5 -1
t-4.5 -1q-2 -1 -5.5 -0.5t-4.5 -0.5q-3 0 -6 -0.5t-5 -1t-3 -0.5q-1 -1 -2.5 -0.5t-2.5 0.5q-9 -1 -14 -2h-1l-1 -1q-3 -5 -12 -21h1q0 -2 -1.5 -4t-3.5 -3l-1 -1q-8 -10 -38 -54t-43 -61q-5 -6 -11.5 -13t-13 -13.5l-8.5 -8.5t-2 -4q-2 -1 -12 -7q-36 -24 -69 -30
q-29 -6 -40 -3q-14 3 -31.5 22t-16.5 28v4v6t1 4h1q1 -1 1 0l2 5q2 5 2.5 6t3 2t3.5 2q2 2 4 4.5t3 3t2 1.5t3 1q1 0 3 1l1 2q3 0 11 -3t8 -5t2 -6q2 -5 3 -10h1l2 -1l3 -5q6 -2 11.5 -0.5t8.5 3t4 2.5q-10 -15 -5 -22q0 -2 2 -1q10 7 43 49q7 9 26 39q38 58 53 83
q-13 -1 -14 -1l-2 -1q-2 0 -4 0.5t-3 0.5q-20 0 -41 3q-19 3 -21 3q-24 6 -25 7l-2 1h-1.5t0.5 1l-2 1h-2l-1 2v1q-1 1 -2.5 2t-1.5 3q0 1 -1 2h-1q0 2 2 9t4 7q0 1 3 3q2 4 5 4v1q0 1 0.5 1.5t1.5 0.5h2q2 2 6 5t7 4.5t5 1.5q4 -1 14.5 -3.5t16.5 -2.5q35 -5 44 -5
q4 0 24 1q17 2 25 2q4 5 66 74q8 10 17 18.5l18 17t14 13.5q1 1 3 4.5t4 7.5l1 3q6 9 19 23q4 4 6.5 5.5t6.5 5.5l1 3q4 5 11.5 14.5t10.5 13.5l7 7l2 -2q1 7 15 25q19 26 32 54q1 1 3 5l3 6q0 2 0.5 4.5t1.5 5t4 6.5t4 7q7 14 9 29q0 2 1 6t1 7q1 3 0 8t-1 6q0 10 3 20
t7 20.5t4 12.5q9 28 10 29l5 10q0 3 13 2q2 0 2.5 1l1.5 3t1 3t1.5 3t2 3.5t0.5 0.5q6 -2 15 -4q0 1 2 2q1 0 1 0.5t1 0.5q2 1 9.5 2t8.5 0t4 -2q5 -2 6 -5h2h1l1 -2q1 -1 1 -2q2 -2 7.5 -6t8.5 -7.5t3 -6.5q1 -13 -2 -45q-1 -12 -5 -32.5t-5 -27.5q-1 -5 -1.5 -15t-1.5 -15
q-2 -11 -6.5 -39.5t-5.5 -39.5q0 -2 -0.5 -5t-0.5 -4v-5v-4q-2 -20 -8.5 -65t-8.5 -58q-1 -11 -3 -22t-4.5 -22t-3.5 -16q0 -3 2 -12q6 -1 14 -1q2 0 5 -0.5t4 -0.5q2 0 3.5 0.5t3.5 0l6 -1.5t5 -1q11 -2 23 -3h4.5h4.5q3 0 6.5 0.5t4.5 0.5q18 -1 38 -15q15 -10 17 -14
q2 -5 4 -7q1 -2 -8 -11l1 -5q1 -5 0 -6q-4 -3 -16.5 -13t-22.5 -16q-1 -1 -7.5 -0.5t-7.5 -0.5v1q-1 2 -1.5 2t-0.5 -1l-1 -1l-1 2q0 1 -0.5 1t-1.5 -1v-1v1q-1 1 -1 2q-3 1 -30 13.5t-44 17.5l-2 -1q-1 1 -4 1q-1 -16 -2 -21l-2 -8q-1 1 -3 0q4 -5 2 -24q-3 -27 -1 -51v-5
v-4.5t1 -3.5t1 -4t-0.5 -5.5t-0.5 -5.5q0 -11 3 -21q1 -1 1.5 -3.5t1.5 -4.5t3 -4t2 -3q3 -7 2 -28v-14q-2 -3 -2 -5t-8 -5q0 -1 -1 -5l-2 -3q-4 -1 -10 -4t-11.5 -4.5t-11.5 -1.5z" />
    <glyph glyph-name="B" unicode="B" horiz-adv-x="539" 
d="M263 335v-1q-2 -8 -5 -15t-7 -14.5t-6 -10.5q-1 -1 1 -6l1 -6q0 -8 -5 -19q-1 -4 -3.5 -5t-3.5 -4l1 -3q-1 -3 -3.5 -10t-4.5 -13l-2 -4t-2 -1l-4 1q2 -3 2.5 -6t0 -4.5t-2.5 -5.5l-2 -3q-10 -20 -14 -41q-1 -2 -2 -4.5t-1 -3.5v-3.5v-3.5q-1 -2 -3 -5t-3 -5
q-4 -10 -5 -21q0 -1 -0.5 -3.5t0.5 -4.5q0 -2 1 -6t0 -7q-1 -13 -5 -19q-3 -1 -5 -6q15 -10 28 -18l4 -1q22 -8 23 -8q4 -2 11.5 -3.5t8.5 -1.5q21 -5 23 -5q29 -4 56 -2q18 2 27 5q36 11 62 33q25 21 44 54q19 36 21 69q0 3 -1.5 6t-1.5 5t0.5 5t0.5 4q0 3 -1 5.5t-2 4.5
l-1 2q0 1 1 2.5t1 2.5q-2 11 -5 22l-1 -1h-1l-1 8q-11 20 -35.5 39.5t-48.5 28.5q-21 8 -45 11l-5 -1q-3 1 -7.5 2t-6.5 1h-25h-1q-4 -4 -9.5 -5.5t-6.5 1.5l-1 1q-8 -1 -9 -2l-1 1q-3 0 -13 -2zM277 380q2 0 2 1q1 0 3.5 0.5t3.5 1.5v1h3l3 1v1l3 1l3 1q79 43 122 83l1 3
q1 2 4.5 5.5t5.5 6.5q1 2 3 5.5t3.5 5t4.5 5t4 5.5q8 11 15 26q6 11 6 12q3 13 -1 27q0 3 -3 7t-2.5 5t3 4.5t4.5 6.5v1q-1 1 -0.5 1.5t0.5 2.5v3q-1 3 -4 6q0 1 -0.5 2t-0.5 2q-6 5 -15 9v-1l-6 2q-39 6 -96 -8q-13 -4 -29 -9q10 -3 13 -5q7 -3 -2 -40q-2 -9 -8 -25.5
t-8 -22.5q-1 -5 -2.5 -13t-2.5 -11q-2 -8 -8.5 -29t-8.5 -29q0 -1 -1 -3t-1 -3v-4v-3q-3 -14 -11 -38zM9 178q0 -1 1 0t2.5 3t2.5 4t3 4.5t3 4.5q-12 -11 -12 -16zM183 546l-2 -2l-1 -2l3 -1l-1 1h1l3 1l-1 1l-1 1zM183 546q-2 3 -5 2h-3q0 -1 -5.5 -4.5t-10.5 -6t-6 -1.5
t-3.5 0.5t-3.5 -0.5q-8 1 -10 6q0 1 -2 0h-2q-3 3 -3 10q2 30 17 37q22 12 67 28q18 7 39 14q8 9 13 10q1 0 5 1.5t5 1.5t1 -1l4 1h4.5t2.5 -1q4 1 9 3q31 10 48 13q41 9 95 12h4.5h4.5q2 0 5 0.5t4 0.5q30 -2 63 -14t45 -32q3 -4 5 -8.5t2.5 -10t1 -9t-0.5 -9.5t-1.5 -7.5
t-2 -8.5t-2.5 -7q0 -2 0.5 -5.5t1 -6.5t0.5 -4q-2 -11 -10 -24q-2 -4 -5 -5.5t-5 -5.5v-3q-15 -21 -20 -26l-7 -6q0 1 -2 2q0 -8 -16 -21q-12 -10 -28 -23.5t-20 -17.5q-2 -1 -5.5 -3.5t-5.5 -3.5l-3 -3t-4.5 -3.5t-8 -4.5t-6.5 -3q-11 -6 -29 -17q13 -1 24 -4
q68 -15 128 -52q1 -1 12 -10q2 -2 6.5 -5t5.5 -6q25 -42 20.5 -103.5t-32.5 -98.5q-5 -7 -11 -13.5t-10.5 -11t-11.5 -10t-10.5 -8t-11 -7.5t-10 -6.5t-11 -6t-9.5 -5.5q-2 -1 -7.5 -4.5t-9.5 -6.5l-4 -3q-20 -11 -41 -17q-8 -2 -12 -2.5t-11 -2.5q-5 -1 -5 -2
q-30 -6 -52 -9h-5.5h-5.5h-3v2q-15 -6 -43 -3q-50 5 -96 15q-4 0 -11 2.5t-8.5 3t-6 1.5t-8.5 3q-6 2 -23 11q-10 5 -25.5 13t-20.5 10t-10 5.5t-8 5t-8.5 3.5t-7.5 3q-22 17 -67 66q-5 6 -14.5 13t-14.5 12.5t-5 12.5q-2 21 16 30.5t44 9.5q7 -1 7 -3v-2h2q2 -1 5.5 -1h5.5
q5 -1 5 -3l1 -2q0 -1 1 -1l1 1l2 -2q1 -3 2 -3v1h1q1 0 3 -3t3 -3q18 -15 53 -44q4 11 10.5 32t7.5 25l-1 3q0 2 1.5 6t2.5 6t1 5.5t1 5.5l3 6l3 6q3 6 6.5 14.5t5.5 13.5q1 2 3.5 6.5t3.5 7.5q2 7 5.5 21.5t3.5 16.5q1 3 4 17t5 21q3 7 7.5 21t6.5 20q1 2 1 4v4
q1 2 2.5 4.5t2.5 3.5q1 3 1 5.5t0.5 4.5t0.5 3t1.5 1.5t1.5 1.5q4 12 6 21h-1l3 6q7 16 18 65q1 3 3.5 11t2.5 10l-1 2q0 2 1.5 3.5t1.5 2.5q4 14 9 26h-1q-14 -5 -29 -14q-7 -4 -13 -15z" />
    <glyph glyph-name="C" unicode="C" horiz-adv-x="571" 
d="M562 156q-3 -5 -9 -9t-12 -7l-8 -4q0 -1 -4 -2.5t-5 -1.5v0l1 -1q-1 -1 -5 -3l-4 -1q-1 0 0 -1q-1 -1 -4.5 -2.5t-4.5 -1.5q-88 -48 -226 -97l-5 -2q-13 -3 -33 -6t-28 -4q-21 -1 -35 1q-30 5 -49 13t-38 27q-9 8 -20 35q-22 55 -22 99q0 53 17 104q14 43 52 109
q2 4 5 10.5t6 11.5q4 5 9 11.5t6 7.5q7 9 13.5 19t7.5 12q2 2 4.5 4t3.5 4q19 22 40 45v1h-1l14 12q89 73 143 98q7 3 46 13l5 2q3 1 13 2q51 4 86 -5q28 -6 46 -21q14 -12 29 -31t16 -27q0 -1 3 -5.5t3 -5.5l-1 -1h-1q0 -1 3 -5.5t3 -6t-1 -4t-1 -3.5l2 -10t1 -5.5t-2 -4.5
q0 -1 1 -4v-3q-2 -4 -13 -10t-13 -3t-2.5 3.5t-2 0.5h-3.5q-8 3 -12 9q0 1 -1.5 0t-2.5 -1q-1 1 -4 4.5t-4 4.5q-5 4 -21 11.5t-20 13.5q-3 6 -9 17t-10.5 18.5t-10.5 12.5q-26 22 -69 12q-16 -4 -39 -20q-53 -37 -94 -85q-10 -11 -10 -12q-1 -1 -9 -13q-28 -45 -55.5 -98
t-36.5 -88q-14 -52 -17 -86q0 -2 1.5 -6.5t3 -8.5t2.5 -4q3 -10 5 -30q1 -5 -1 -7.5t0 -7.5l2 -3q1 -3 2 -8.5t2.5 -10.5t1.5 -12q0 -1 -0.5 -3.5t-0.5 -4.5v-2q-1 0 -2 -2q1 -1 6 -11t9 -12q33 -13 83 4q16 6 18 7t5.5 2.5t7.5 3.5q4 1 11.5 3.5t11.5 3.5q23 9 44 20l8 4
l10 5q5 2 10 5.5t7 4.5q21 11 77 33q37 14 42 15q8 3 14 5q5 1 6 -3v-2l10 2q1 0 3.5 0.5t3.5 0.5l2 1q0 -4 -0.5 -10.5t-1.5 -10.5t-4 -8z" />
    <glyph glyph-name="D" unicode="D" horiz-adv-x="605" 
d="M169 82q53 -21 102 -26l6 1q24 2 31 3q8 2 26 7q24 7 31 10q36 16 66 39q19 15 29 27q34 39 58 93q20 46 31 98q10 49 10 97q0 4 -1.5 9t-1.5 8q-1 4 -0.5 9.5t-0.5 7.5q0 4 -6 23q-1 2 -0.5 4.5t0.5 3.5q-5 19 -13 37h-1l-4 11q-16 28 -46.5 54.5t-59.5 38.5
q-25 11 -59 15h-6q-5 0 -11 1.5t-9 1.5h-20q1 -1 5 -4l6 -4.5t4.5 -4t3.5 -4.5t1 -4q0 -12 -5 -44q-2 -11 -8 -29t-7 -24q-2 -5 -3.5 -13.5t-2.5 -13.5q-2 -10 -9 -33t-9 -31q0 -2 -1 -4t-1 -3v-4.5v-3.5q-4 -13 -30 -96q-3 -8 -6.5 -16t-8.5 -16.5t-6 -11.5q-1 -1 -0.5 -7
t0.5 -7q0 -8 -6 -20q-2 -4 -4.5 -5t-3.5 -5l1 -3q-1 -3 -4 -10.5t-6 -13.5l-4 -5l-4 1q4 -6 -4 -20q-11 -20 -17 -41q-1 -1 -2 -3.5t-2 -4.5v-3v-3q-1 -2 -3 -4.5t-3 -4.5q-5 -9 -7 -19q0 -1 -0.5 -3.5t-0.5 -4.5t1 -5t1 -4q-1 -7 -6 -14zM-7 200q8 -2 18.5 -13.5
t11.5 -11.5q0 -1 2.5 -4.5t3.5 -4.5h1v1l2 -3q3 -4 4 -5v1h1q1 0 3.5 -3.5t3.5 -4.5q16 -13 35 -25q3 10 24 68l-1 3q1 2 3 5.5t2 6.5q1 1 1.5 5t1 6t3 5.5t3.5 5.5q4 7 8 15.5t6 12.5l3.5 7t3.5 8l12 40q1 5 5 19.5t6 21.5q2 8 7.5 23t8.5 23v4.5t1 4.5q1 3 2.5 5.5
t2.5 3.5q1 3 1.5 6t0.5 6v2l2 2l2 2q4 13 7 23h-1l-1 1l4 6q8 20 18 73q1 3 3 11t2 11l-1 2q0 2 1 4l2 2q4 15 13 40q0 3 2 10.5t3 10.5t3.5 10t3.5 10q-21 -2 -45 -6q-16 -3 -50 -22q-13 -7 -37 -24.5t-26 -18.5q-1 0 -4.5 -3.5t-3.5 -4.5l-1 1q-1 0 -4 -3.5t-3.5 -4
t-2.5 -1t-2 -1.5q-3 -2 -5 -3.5t-3 -2.5t-2 -1.5t-2 -0.5t-2 -2l-2 -1q-1 -1 -5 0.5t-7.5 3.5t-2.5 3q0 1 1 7q0 6 4 11q0 1 -1 2h-1q1 1 4 5t3 5l8 12l9 13.5t9 10.5t12 10q61 39 113 49q78 16 181 10q44 -3 73 -11q39 -11 79 -33.5t64 -43.5q1 -1 12 -13l6.5 -6.5
t5.5 -7.5q25 -47 34.5 -118t-1.5 -118q-2 -13 -6.5 -26t-7.5 -21.5t-9.5 -21.5t-9 -17.5t-10.5 -18.5t-9 -17q-2 -3 -5.5 -11t-6 -14.5t-3.5 -6.5q-20 -32 -41 -54q-9 -9 -14.5 -12t-13.5 -11l-5 -6q-33 -25 -61 -42q-3 -1 -7 -3l-7 -3.5t-4 -1.5v2q-19 -15 -52 -24
q-62 -16 -119 -21q-2 0 -24 -1h-9h-10q-11 1 -29 4q-38 6 -60 11q-2 1 -24 7q-5 1 -13.5 2.5t-11.5 3.5q-54 22 -91 58q-29 29 -37 45q-9 17 -9 18q-2 2 -1 4.5t1.5 3t3.5 1.5t3 2q1 1 0.5 2.5t-2 5t-1.5 4.5q-1 2 -1.5 5t-1.5 6v2q5 0 25.5 3t23.5 -1z" />
    <glyph glyph-name="E" unicode="E" 
d="M129 59q-10 12 -29 9q3 -2 8 -6.5t6 -5.5h4q5 1 11 3zM624 612q-1 -4 -8 -10l-7 -7q-1 0 -3 -0.5t-3 -0.5q0 -1 0.5 -1.5t0 -0.5t-2.5 -0.5t-3 -0.5v-1l1 -1q-1 0 -3 -0.5t-3 -0.5q-42 -20 -124 -27l-3 -2h-6.5h-7.5q-2 0 -6 -0.5t-6 -0.5q-3 0 -8 1t-6 1q-25 3 -32 4
q-2 1 -7 2t-8 1q-6 1 -19 2t-18 2q-31 3 -35 4q-7 1 -18 4q-1 -7 -2 -11q-2 -12 -8.5 -32.5t-7.5 -26.5q-1 -5 -2.5 -14t-2.5 -12q-2 -9 -7.5 -30t-6.5 -28q0 -1 -1 -3t-1 -3v-4v-3q-3 -15 -12 -49q3 0 6 1q8 2 43 6q1 0 3.5 1.5t4.5 2.5l2 1q7 3 19 4q4 0 6 -0.5t5 -0.5
l2 2q2 0 10 0.5t14 1.5l7 -1q-1 -1 0 -2q4 4 19 3q21 -1 44 0q1 0 4 -0.5t4 -0.5q2 0 3.5 0.5t3.5 0.5t6 -1t5 -2q11 -1 23 -1q1 0 4 -0.5t5 -0.5q3 0 6.5 1t4.5 1q16 0 38 -13q16 -9 18 -13q3 -4 5 -6q2 -1 -5 -11l2 -6q2 -5 1 -5q-2 -2 -13 -14t-20 -19q-2 -1 -8 -1t-8 -1
q-1 0 -2 2l-1 1l-1 -1v-1l-1 1q-1 1 -2 1q0 -1 -0.5 -1t-1.5 1l-1 1q-9 3 -36.5 13t-43.5 14l-2 -1q-2 0 -5 1t-6 1q-1 0 -4 -0.5t-4.5 0t-5.5 1t-6 0.5q-9 1 -26 1h-7h-7q-9 -1 -35 -6q-6 -2 -18.5 -5t-16.5 -4l-18 -4.5l-22 -5.5q-2 0 -4 -1l-4 -2h-4q-1 -3 -2 -5
q0 -1 0.5 -3.5t0.5 -5.5l1 -3q0 -8 -4 -22q-1 -4 -3.5 -5.5t-3.5 -5.5l1 -3q-1 -4 -3 -13t-4 -16l-4 -7q-1 1 -3 1q5 -11 -3 -27q-16 -31 -22 -47q0 -1 -2 -5l-3 -6t-1 -5t-1.5 -6t-4.5 -8t-4 -8q-8 -17 -13 -33v-2q3 1 5 2q3 1 14.5 4.5t17.5 4.5q8 2 23 4.5t19 3.5
q2 1 4.5 2t4.5 1q2 1 5 1h4q3 0 6 1t5 1.5t3 1.5q1 0 2.5 -0.5t2.5 -0.5q4 1 12 2t13 2v1h-1h8q16 1 47 5t39 5q5 1 15.5 1h13.5l3 2q2 0 5 -0.5t4 -0.5q27 -1 56 -5t31 -4q38 -9 39 -11h3l3 -1q1 0 0 -1q0 -1 3 -1t3.5 -0.5t1.5 -2.5v-1q3 -2 5 -3q3 -2 3 -4q0 -1 1.5 -1.5
t1.5 -1.5q1 -2 0 -11t-4 -10q-1 0 -4 -3q-4 -4 -8 -5v-2q0 -1 -1 -1l-3 -1h-3q-4 -2 -10 -6t-11 -6t-9 -2q-9 1 -26 4t-25 4q-55 6 -61 6q-5 1 -29 -1q-50 -4 -67 -7q-1 -1 -3.5 -1h-3.5q-2 -1 -4 -1.5t-3 -1.5q-13 -3 -44.5 -9.5t-42.5 -8.5q-5 -2 -38 -5q-1 -1 -3 -2
t-3.5 -2.5t-2.5 -1.5q-5 -3 -15 -4q-3 0 -4.5 1t-3.5 1l-2 -2q-2 0 -7.5 -1t-9.5 -1l-5 1v2q-3 -4 -13 -4q-15 0 -37 -5q-2 -1 -5.5 -1t-4.5 -1q-1 0 -4.5 -1t-6.5 -1q-7 0 -17 5q-24 10 -36 20q-1 1 -10 13q-3 3 -8 7t-6 6q-6 26 17 51q13 15 19 17t8 4q2 1 19 -5q1 0 8 1
l6 2q9 -4 23 -11q6 16 18.5 46.5t15.5 38.5v3q0 2 2 6t3 7v7q-1 1 1 8q3 7 6.5 19.5t5.5 19.5q1 3 3.5 9t3.5 9q1 5 2 11q-7 -2 -11 -3q-3 -1 -10 -2.5t-9 -1.5l-2 -2h-3h-2q-16 -3 -35 -4h-8q-7 -1 -9 -1q-22 1 -22 2q-1 0 -2 -0.5t-2 0.5v1h-1q-2 -1 -2 -0.5t-0.5 1
t-0.5 1.5l-5 3v1h-2q0 2 -1 7.5t1 7.5l1 3q2 3 3 4q1 0 0.5 1t0 1t1.5 1l1 1q2 2 4.5 6t4.5 6.5t4 2.5q4 1 13.5 2.5t13.5 2.5q6 1 18.5 2.5t19.5 3.5q4 1 11 3t9 3q5 1 17 4.5t16 4.5q1 7 3 12q2 8 6 21.5t5 18.5q1 2 1 4.5v4.5q1 2 2.5 4t1.5 3q1 3 1 5.5v4.5l1 2q0 1 1 2
l1 1q4 12 6 20h-1h-1l3 6q6 15 16 66q1 4 3.5 12.5t2.5 10.5l-1 3q0 2 1.5 4t1.5 3q5 17 12 41q-4 -5 -5 -8l1 -2q-1 -1 -2 -1v0q-2 -8 -6 -16q-1 -1 -2 -5t-2 -5.5t-2.5 -5.5t-3.5 -6.5t-5 -2.5v-2q0 -1 -0.5 -1t-1.5 1h-1q-1 0 -1 -1.5v-2t-2.5 0t-3.5 0.5q-2 -1 -3 -2
t-1.5 -1h-4.5h-2l-1 -1q-5 0 -19.5 3.5t-16.5 6.5l-7 5q-7 4 -8 8q-1 0 -3 1t-3 1q0 1 -1 3.5t-2 2.5q-2 3 -9.5 12t-10.5 14.5t-1 9.5q9 20 33 37q12 8 51 20q1 0 9 2.5t13 3.5q9 2 27 5t22 4h4q7 5 10 6v0q0 -1 0.5 -1t3.5 0.5t5.5 0.5h3h2.5l1 -1q3 0 5 0.5t2.5 0.5
t1.5 -1h2h2q1 0 4 -2q20 -1 39 -3q6 -1 38 -11q1 0 5 1l5 1q7 1 18 -2q3 -1 4 -2.5t5 -2.5l2 1q3 -1 9.5 -2t11.5 -2l6 -3l-1 -3q4 3 18 0q21 -5 41 -4h4h4t2.5 0.5t3.5 0.5t5.5 -0.5t5.5 -0.5q11 0 21 3q0 1 3 1.5t5 1.5t4.5 3t3.5 3q6 2 13 4t14 3t9 1q4 1 8.5 2.5t7.5 2
t5 0.5q4 0 7 1t5 -6q1 -1 1 -2h6h6q1 -5 3.5 -12t3.5 -13t0 -12z" />
    <glyph glyph-name="F" unicode="F" horiz-adv-x="587" 
d="M47 -10q-2 1 -5 7l-3 6l1 1v2v0q-1 0 -1.5 0.5t0.5 1.5t1 1.5t-1 0.5h-1v2l1 1q0 21 29 102v3q0 2 2.5 6.5t2.5 7.5q1 3 2 7t2 6.5t4 7.5t4 7q4 9 8.5 20.5t7.5 16.5q1 3 4.5 9.5t4.5 9.5q3 8 7 20q-2 0 -4 -1t-4 1h-1l-1 -1q-4 1 -15 6t-11 8l-5 5q-5 4 -5 8l-2 1l-2 1
q0 1 -0.5 3t-0.5 3l-5.5 11t-5 11t0.5 8q10 13 32 25q6 3 42 13q2 1 8 3t10 2q2 1 4 1q9 26 12 35q1 3 1.5 6t1.5 6t3 6.5t2 4.5q2 4 2.5 7.5t1 6t0.5 3.5q1 1 2 2.5t2 2.5q5 15 8 27l-1 1l4 7q10 29 18 78q1 3 2 7.5t1.5 8t0.5 5.5l-1 2q0 2 1 3.5t1 2.5l6 30q1 2 1 8
q-3 1 -6 1h-1q-1 0 -2 1v1q-7 3 -12 5v-1v-1l-3 3q-16 7 -23 0q-2 -2 -1 -5v-2v-1q2 -8 1 -12q-1 -7 -2 -8t-2 -4.5t-2.5 -6t-4.5 -3.5v-1v-2h-1q-1 1 -2 1v-1q0 -2 -0.5 -2.5t-2.5 -0.5h-2q-2 -1 -3.5 -2t-4.5 -1q-2 0 -3 -1v-1q-4 0 -17 2t-14 4q-1 1 -7 4t-8 7l-2 1h-3
l-1 2q-1 3 -2 3q-2 3 -9.5 10t-10.5 11.5t-2 8.5q6 20 24 35q13 10 47 18q17 3 19 4q9 1 25 3t18 2h2.5h2.5t2.5 0.5t2.5 0.5q24 0 66 -11q2 0 34 -14h4t4 0.5t3 0.5q6 0 17 -4q3 -1 4.5 -3t4.5 -2h2q4 -1 11.5 -2.5t11.5 -2.5l6 -3q-1 -1 -1 -2q5 2 21 -2q23 -5 47 -4h5
h5.5t3.5 0.5t4 0.5h6.5h6.5q14 0 27 3q1 1 5 1.5t6 1.5q3 1 6.5 3t4.5 2q9 3 19 5.5t19.5 4t12.5 2.5q6 1 12.5 3t10.5 3t7 1q6 0 10 2q4 1 6 -5v-1q0 -1 8 0h3l4 1q0 -4 0.5 -11t0.5 -11.5t-2 -9.5q-2 -4 -6.5 -7t-10 -5.5t-6.5 -3.5q-1 0 -4 -1l-3 -1v-1q0 -1 -3 -1.5
t-4 -0.5v-1q0 -1 -3 -1.5t-4 -1.5q-58 -22 -152 -29l-3 -1h-8.5h-8.5q-2 0 -6.5 -0.5t-6.5 -0.5q-3 0 -9 1t-7 1q-24 3 -34 5q-4 0 -9 1.5t-8 1.5q-3 1 -28 4q-1 -8 -5 -22.5t-5 -19.5q-1 -4 -2.5 -13t-2.5 -14q-3 -12 -10.5 -37t-9.5 -34q0 -1 -1.5 -4t-1.5 -4
q0 -2 -0.5 -5t-0.5 -4q-7 -24 -22 -69h12q4 0 31 -6q1 0 5 1l3 2q5 1 14 -1q3 0 4 -1.5t4 -1.5l1 1q3 0 8 -0.5t9 -1.5l5 -2l-1 -2q3 3 14 1q16 -2 31 0h3h3q1 1 2 1.5t2.5 0.5h4h3.5q8 1 15 4q1 0 3 1t3 2t2.5 3t2.5 2q4 3 9 4.5l10 3t6 1.5l14 4q3 0 6 1q1 0 6 -8h4h4
q2 -4 5 -10.5t5 -12t2 -11.5q0 -3 -4.5 -9t-5 -6t-2 -0.5t-1.5 -1.5v-1h-2l-2 -1v-1q1 0 0.5 -0.5t-2.5 -1.5h-1q-29 -17 -93 -27l-2 -1h-5.5t-5.5 -1q-1 0 -4 -0.5t-5 -0.5t-6 0.5t-5 0.5q-21 1 -25 1q-2 0 -6 1t-6 1h-14.5h-15.5q-26 1 -28 1q-6 0 -15.5 1.5t-13.5 1.5
q-1 1 -2.5 0.5t-3 -0.5t-4.5 1q-3 -8 -9 -20.5t-8 -16.5q-1 -1 -1.5 -5t-0.5 -7v-4q-1 -11 -8 -27q-2 -4 -4.5 -6t-4.5 -7v-3q-1 -4 -5 -13.5t-7 -17.5l-4 -7q-1 1 -3 1q2 -7 -7 -25q-12 -25 -19 -49l-2.5 -5t-1.5 -5v-3t-1 -4t-3 -5.5t-3 -4.5q-4 -11 -6 -22
q0 -1 -0.5 -3.5t-0.5 -4.5t1 -5t1 -4q0 -9 -11 -25q-6 -9 -8 -10q-3 -1 -4 -2q0 -1 -11 2q-1 0 -4 -1l-4 -1q-4 1 -12.5 3t-15 4.5t-13.5 5.5z" />
    <glyph glyph-name="G" unicode="G" horiz-adv-x="576" 
d="M471 -135q-4 -1 -9.5 0.5t-11.5 4t-8 3.5q-1 0 -3 2.5t-2 3.5l-1 -1l-1 -1q0 1 -2 3l-2 3q-1 1 -1 0l-1 -1l-5 7q-35 52 -18 150q-72 -32 -138 -47l-6 -1q-17 -2 -36 -1q-20 1 -31 3q-21 5 -36 14q-44 25 -68 58q-8 13 -16 37q-20 57 -17 100q2 53 22 102q16 41 57 103
q3 4 6 10t7 11t9.5 11t6.5 7q7 8 14.5 17.5t8.5 10.5q2 3 4.5 5t4.5 3q19 21 43 42h-1v1l14 11q95 68 154 92q7 2 50 14l5 2q3 0 15 1q7 1 22 2.5t22.5 2t19.5 0t24 -3t27 -8.5q18 -7 27.5 -29.5t8.5 -39.5q-3 -64 -10 -76q-1 -1 -1 -5.5v-5.5q-1 0 -1.5 0.5t-0.5 -0.5
q-1 0 -1 -4.5t-0.5 -5.5t-2.5 -2.5t-2 -2.5q-2 -3 -2.5 -5.5t-1 -3.5t-1.5 -2t-3 -2l-2 -2v-2q-3 -2 -14.5 -3t-12.5 2t-2.5 3.5t-3.5 1.5q-5 5 -7 11q0 1 -1.5 0.5t-2.5 -0.5q0 1 -1 5.5t-2 5.5q-1 3 -12 21.5t-12 28.5q-2 13 1 25t7 20t4 10q0 13 -27 17.5t-51 -1.5
q-20 -4 -45 -18q-62 -35 -108 -81l-11 -11q-3 -3 -10 -13q-32 -42 -62.5 -93t-40.5 -84q-16 -49 -20 -85q-1 -2 0.5 -6t3.5 -8l2 -5q2 -9 4 -30q1 -5 -0.5 -8t-0.5 -9l3 -2q1 -7 8 -33l2 -11q-2 0 -3 -2q4 -2 10 -13.5t8 -13.5q30 -34 71 -33q6 0 17 3l6 2t7 2q21 6 22 6
q23 9 44 21q15 9 18 11q5 3 10.5 7t6.5 5q9 6 19 12q1 3 4.5 8.5t4.5 7.5q18 33 23 41l6 9l6 9q6 12 34 41q19 20 33 43q2 3 5 7q-38 -10 -85 -24q-2 -1 -8.5 -2.5t-8.5 -2.5l-2 -1q-2 -1 -4.5 -1h-3.5q-30 -6 -60 -6q-24 -1 -37 1q-44 8 -53 16q0 1 -3.5 2t-4.5 2v1h1
q0 1 -4 2.5t-4.5 2t-1 2.5t-0.5 3l-4 4l-2.5 2.5t-1.5 2.5t0 3q0 1 -1 2l-1 2q0 3 7 11.5t9 7.5q1 0 7 1t10 -1q1 0 1.5 1t1.5 1l3 -1q2 -1 3 -1q6 -1 11 -0.5t10 0t8 -2.5q26 -16 49 -16q27 0 56 8q4 1 9.5 3t8.5 3q16 4 53.5 14.5t49.5 14.5q2 0 5 1t5 1q2 1 5 2l3 1
q13 4 31.5 -16t25.5 -44.5t-6 -44.5q-13 -14 -32 -30.5t-20 -17.5q-2 -2 -4 -12q-1 -1 -1 -2q4 0 4 1q0 -6 0.5 -11t0 -10t-2.5 -9q-4 -8 -15 -15l-2 -6l-5 -7q-2 2 -4 2q2 -2 1 -7.5t-1.5 -7t-2.5 -6.5t-3 -5q-12 -28 -15 -56q0 -1 -1 -4.5t-1 -5.5t1 -4t0.5 -4.5
t-1.5 -6.5t-2 -6q-1 -12 2 -22q1 -1 1.5 -2.5t0.5 -3t1 -2.5q1 -2 4.5 -3.5t3.5 -2.5q2 -3 2 -6.5t-1 -6t-2.5 -6t-1.5 -4.5q-2 -4 -3 -9t-2 -7q-2 -4 -2 -8q0 -2 -8 -11q-1 0 0 -6v-3q1 -3 0 -3l-9.5 -9.5t-12.5 -10.5t-13 -6z" />
    <glyph glyph-name="H" unicode="H" horiz-adv-x="663" 
d="M67 20q-2 0 -7 4.5t-5.5 4.5t-0.5 1l1 1h-1q-1 0 -1 0.5v1.5v1h-1h-0.5t0 1t0.5 2q-4 16 12 67l-1 2q0 2 1.5 4.5t1.5 4.5q1 1 1 4t0.5 4.5t2.5 4.5t3 4q3 5 6 12t5 11q1 2 3.5 5.5t3.5 6.5q2 6 5.5 19.5t4.5 15.5q1 3 4.5 16.5t5.5 21.5q3 7 8.5 22t8.5 22v5.5t1 4.5
q1 3 4 7q-7 -4 -10 -3l-1 -2q-2 -1 -3 -1v1q-1 0 -2.5 -1t-2 -1h-1.5l-1 1q-2 0 -5 -1t-4 1l-1 -1h-1q-3 1 -8.5 7t-4.5 8q1 1 0 6q0 4 2 7q0 1 -1 1.5t-1 1.5l2 2q1 2 1 3q2 3 3.5 10t4 11.5t5.5 5.5q17 10 45 18q5 2 10 3q6 19 17 69q1 4 4.5 15.5t3.5 14.5l-1 4
q1 3 2.5 5.5t1.5 3.5q5 19 19 61q1 4 4 16.5t4.5 17.5t4.5 16t5.5 18.5t4.5 10.5q1 0 1 3v4q1 0 1.5 -0.5t0.5 0.5q1 0 1 3t0.5 4t2.5 1.5t2 1.5q2 2 3 4t1 3t1 1.5l3 1.5q1 0 2 1v2q3 2 14 1.5t12 -2.5q1 -3 2 -3.5l3 -1.5q5 -4 6 -9q0 -1 1.5 -1h2.5q0 -1 1 -4.5t1 -4.5
q2 -4 8 -12t9 -14.5t3 -12.5q-2 -21 -12 -70q-3 -15 -11.5 -42.5t-10.5 -33.5q-1 -6 -3.5 -17.5t-4.5 -17.5q-2 -10 -7 -25h19h3h3q2 0 4 0.5t3 0.5q27 -1 78 -10q4 -1 35 -12h3.5t4.5 1l2 1q6 0 16 -3q3 -1 4 -2.5t4 -2.5l2 1q3 -1 9 -2t10 -2l5 -2v-3q3 3 15 0
q18 -3 35 -2q1 1 3.5 1h3.5t2.5 0.5l3 1t4.5 0t5 -0.5q2 1 4 1q1 5 3 10q3 7 11 28.5t12 32.5q1 3 1.5 6t0.5 6q1 3 3 6t3 4q1 4 2 7.5t1 6.5t1 3q0 2 1 3l2 2q4 14 8 25h-1l-1 1l4 7q8 23 16 69q1 3 2.5 10t1.5 9l-1 2q0 2 1 3t1 2q3 12 9 30q1 2 2 7t2 7t2 6t2.5 6.5
t2.5 3.5q1 0 0.5 1t0 1.5l0.5 0.5l1 -1q1 0 0.5 1.5t0 1.5h2t1.5 1l6 3h1l1 1h12.5t11.5 -1q0 -1 5 -2t7 -3h1q2 0 2.5 -0.5l1.5 -1.5t2 -1q2 -2 9 -5t10.5 -5.5t3.5 -5.5q2 -8 -1 -30q-1 -8 -5.5 -22.5t-6.5 -19.5q0 -4 -1.5 -11.5t-2.5 -11.5q-2 -11 -8.5 -33t-8.5 -30
q0 -2 -1 -4.5t-1 -3.5q-1 -2 -1 -4.5v-3.5q-9 -31 -32 -92q9 -22 9 -30q0 -4 -7 -10l-6 -7l-2 -1q-3 0 -3 -1l1 -1q-1 0 -3 -1l-2 -1v-1q0 -1 -2 -1.5t-3 -0.5q-3 -2 -6 -3q-3 -7 -9 -18t-8 -16q-1 -2 -2 -7t-1 -9l-1 -4q-5 -16 -12 -29q-1 -2 -3 -2.5t-3 -3.5v-2
q-1 -3 -4 -9.5t-5 -11.5l-5 -6q-1 1 -3 1q2 -6 -7 -23q-14 -25 -25 -55q0 -2 -2 -6l-3 -6q0 -1 -0.5 -3.5t-1.5 -5.5t-4 -7t-4 -7q-7 -14 -10 -28q-1 -2 -2 -5.5t-1 -5.5q-1 -3 -0.5 -7t0.5 -5q-2 -12 -16 -35q-6 -10 -7 -11q-3 -1 -3.5 -1.5t-11.5 2.5q-2 0 -3 -1h-1h-3
q-4 1 -13 2.5t-15.5 3.5t-13.5 6q-2 0 -3 3t-2 6.5t-2 4.5v1q1 2 1 2.5t-1 0.5v0v1q1 2 1 3h-1v3l1 1q4 28 49 133v4q1 3 3.5 8t3.5 9q1 2 2.5 7t3 7.5l4.5 7.5t4 8q4 6 9 16l8 16q1 2 3.5 6t3.5 6q2 4 12 32h-2l-2 -2h-6h-7q-1 -1 -4.5 -1.5t-6.5 -0.5q-2 0 -6.5 0.5
t-5.5 0.5q-22 2 -29 3q-3 0 -7.5 1.5t-6.5 1.5q-6 1 -18 1.5t-18 1.5q-28 3 -35 4.5t-19.5 4.5t-16.5 4h-3t-4 1q-2 0 -4 1t-3 2q-2 0 -4.5 0.5t-4.5 0.5h-1q-1 0 -2 1l-1 1q-10 2 -18 4v-1v-1l-5 3q-15 3 -36 4v-4t-1 -3q-3 -12 -32 -100q-2 -5 -20 -42q-1 -1 0 -6l1 -5
q-1 -8 -6 -18q-1 -3 -3 -4t-4 -4l1 -3q-1 -2 -3 -8t-4 -11q-1 -2 -2 -3.5t-2 -0.5l-3 1q2 -3 2 -5.5t-0.5 -3.5t-2 -3.5t-1.5 -3.5q-8 -14 -10 -28q0 -1 -1 -2.5t-1 -2.5t0.5 -2.5t0.5 -2.5t-1.5 -2.5l-2.5 -2.5q-2 -6 0 -12v-2v-2l3 -3l2 -2q3 -5 -4 -12q-4 -3 -6 -4
q-2 0 -3 -1q-1 0 -15 1l-4 -1h-1q-2 -1 -3 -1q-44 2 -50 3z" />
    <glyph glyph-name="I" unicode="I" horiz-adv-x="264" 
d="M86 7q-2 1 -7 7t-6 7l1 2q0 2 -0.5 2h-1h-1t0.5 2v2h-1h-1v2v2q-6 28 11 106l-1 3q0 2 1.5 6.5t2.5 6.5q0 2 0.5 6t1 6.5t3 6.5t3.5 6q2 7 5.5 16.5t6.5 15.5q1 2 3.5 7.5t3.5 8.5q3 8 6.5 23.5t4.5 19.5q2 5 4 14t4 16.5t4 13.5q3 9 9 25t8 23q1 2 1 5t1 5q1 3 2.5 5.5
t2.5 3.5q1 3 1.5 6.5t1 5.5t0.5 3t1.5 2t1.5 2q5 13 8 23v1h-1l4 6q8 22 21 74q0 3 2.5 11.5t3.5 10.5l-2 3q1 1 2.5 3t1.5 3q3 13 13 38q0 3 2 10t3 10t2.5 8.5t3.5 10t4 5.5v2v1q0 1 1 1l1 -1v1q0 2 0.5 2.5l1.5 1.5h2q2 2 3 3.5t4 1.5q1 0 1 1l1 1h13.5t12.5 -1
q0 -1 5 -3q6 -2 8 -5h2q1 0 1.5 -0.5t1.5 -2.5t2 -2q2 -2 9 -7t10.5 -9t3.5 -7q0 -13 -6 -44q-2 -10 -8.5 -28.5t-8.5 -23.5q-1 -5 -3 -13.5t-3 -12.5q-3 -10 -10.5 -33.5t-9.5 -31.5q0 -1 -1 -3.5t-1 -3.5q-1 -2 -1 -4.5v-3.5q-5 -17 -17 -55t-14 -42q-2 -9 -5.5 -17
t-8 -16.5t-5.5 -12.5q-1 -2 -0.5 -4t0.5 -5l1 -4q-1 -9 -5 -21q-2 -4 -4 -5.5t-3 -5.5v-3q-1 -3 -3 -11t-4 -13q-1 -3 -2 -5t-2 -1l-3 1q4 -6 -2 -21q-9 -20 -11 -41q0 -2 -1 -4.5t-1 -3.5q0 -2 0.5 -3.5t0 -3.5t-2 -5t-1.5 -4q-3 -10 -1 -19v-3.5v-4.5q1 -2 3 -4.5t2 -3.5
q2 -7 -6 -26q-5 -12 -6 -13q-3 -2 -4 -4q-1 -1 -14 -1l-4 -3l-4 -3h-15.5t-17.5 1t-18 3z" />
    <glyph glyph-name="J" unicode="J" horiz-adv-x="461" 
d="M513 637.5q0 -1.5 -2 -6t-3 -4.5q0 -1 -1 -1h-1l1 -1q0 -1 -1 -1h-1v-1l-1 -1h-1q-1 -1 -2 -3q-1 -15 -5 -40q-2 -13 -24 -97q-2 -6 -6 -23.5t-7 -27.5q-8 -25 -23.5 -71t-17.5 -54q-1 -2 -3 -6.5t-2 -6.5q-2 -3 -2.5 -7.5t-1.5 -6.5q-35 -94 -65 -140q-5 -7 -11.5 -14.5
t-10.5 -11t-15 -12.5t-13 -11q-2 -1 -5 -5t-6 -7l-3 -3q-12 -12 -29 -22q-6 -3 -9.5 -4t-9.5 -5l-3 -2q-26 -14 -39 -20q-1 -1 -4 -2t-5 -2h-2v1q-12 -10 -33 -15q-44 -10 -89 -12q-4 0 -20 2q-14 1 -18 2q-7 2 -21 13q-7 5 -21 15.5t-19 14.5q-8 7 -16 19q-15 21 -15 25
q-4 27 3 51.5t17 38.5q18 24 33 33q12 7 13 7q5 3 8 -1l2 -2l8 4q1 1 3.5 1.5t3.5 1.5l2 1q1 -5 4.5 -14.5t4.5 -15.5t-1.5 -15t-1.5 -11l-1 -2l-1 -3q0 -1 1 -1q0 -1 -0.5 -3t-0.5 -3v0h2q0 -1 -0.5 -3t-0.5 -3q0 -2 2.5 -11.5t3.5 -12.5t3.5 -11.5t4 -12.5l4.5 -12
t6 -12.5t6.5 -11t8.5 -12t10 -11.5h3q12 -2 18 -2q5 1 16 4t18 7q27 11 46 22q16 9 21 12q25 19 45 43q16 20 26 45q3 7 10.5 23t11.5 25q1 3 1.5 6.5t2.5 6.5q1 4 3.5 8t3.5 5q2 5 3.5 9.5t2.5 8t1 4.5q1 2 2.5 4t1.5 3q8 20 15 40l-1 1l6 11q21 54 43 142q2 5 4.5 15
t4.5 17.5t2 10.5v5q0 3 2 7t2 5q4 18 9 38q-3 -1 -7 -2.5t-6 -2.5q-1 0 -4.5 -0.5t-4.5 -1.5l-1 -1l-1 1q-1 0 -2 -1q-8 -1 -21 -1q-1 0 -5.5 -0.5t-6.5 -0.5h-6h-7.5t-4.5 1h-1q-1 -1 -1.5 -1t-0.5 1v1l-1 -1h-1.5t-1 1t-1.5 1q-4 3 -4 4h-1l-1 1q-2 2 -3.5 8t-0.5 8l1 4
q1 4 2 5v1v1.5t1 1.5l1 1q1 3 3 7.5t3 8t3 4.5q2 0 21 6q4 1 11 2t10 2q1 0 2.5 1t2.5 1.5t2 1.5q13 6 14 7t1.5 1t0.5 0.5v0.5v1l7.5 7.5l5.5 5.5q0 1 9 2q-1 0 0 6q0 2 3 3q1 0 2.5 -1t1.5 0v1q1 0 3 1t3.5 1.5t2.5 0.5q1 2 3 3l1 1l1 1q17 13 20 11q1 0 6 1q6 0 9 -2h1h1
q0 1 1 3l1 2q4 3 19 2q10 0 11 -1q2 -1 4 -1q1 0 4 -9l3 -1q0 -1 1 -1l2 -1q5 -31 5 -32.5z" />
    <glyph glyph-name="K" unicode="K" horiz-adv-x="591" 
d="M623 721q3 0 6 -3t6 -7.5t5 -5.5v-3l-1 -2h1h2v-3l-1 -2h1h1q1 -1 0 -3l-1 -2q2 -43 -49 -112v-3q-2 -3 -5.5 -6.5l-5.5 -5.5q-1 -1 -3.5 -5t-4.5 -6t-6.5 -5t-5.5 -5q-27 -23 -29 -25t-7.5 -5.5t-7.5 -5.5q-7 -6 -19 -18t-18 -17q-29 -27 -39 -34q-6 -5 -14 -11
t-17.5 -12.5t-14.5 -10.5l-4 -4l-4 -4q-3 -2 -6 -3.5t-4 -1.5q-5 -4 -9 -8q2 -1 3 -2q1 -4 5 -25q1 -5 1.5 -17t1.5 -19q1 -4 3.5 -10.5t3.5 -7.5q13 -44 16 -49q0 -1 0.5 -3t1.5 -3q0 -1 1.5 -2.5t1.5 -2.5q5 -9 17.5 -37t18.5 -38q5 -9 10.5 -23.5t6 -16t5.5 -4.5l4 -2
q5 -4 11 -15q2 -3 1.5 -5.5t1.5 -5.5h2l6 -9t6 -10q2 -2 2.5 -4t-0.5 -2l-2 -2q3 0 5.5 -1.5t3.5 -3t2 -4.5t2 -3q9 -17 23 -30q1 -1 2.5 -3t2.5 -3q1 0 2 -0.5t2.5 -2t2.5 -4t2 -3.5q6 -7 13 -11q1 -1 2.5 -2t3.5 -2q1 0 3.5 -0.5t3.5 -0.5q4 -2 7.5 -5.5t6.5 -8.5t4 -5
q1 -2 3.5 -4.5l3.5 -3.5t2 -3q1 -3 3 -4q1 -1 -2 -8l2 -3l2 -3q-1 -3 -3 -8t-4.5 -8.5t-5.5 -6.5q-2 -2 -8.5 -3t-7 -1h-1.5l-2 1q0 -1 -0.5 -1t-1.5 1l-2 1v0l-1 -1l-1 1h-2q-36 6 -92 48h-3l-5 5l-5 5q-2 1 -5 3t-5 3.5t-4.5 5.5t-3.5 6q-17 20 -20 25l-5 7.5t-4 6.5
q-5 6 -14.5 17t-13.5 16q-21 27 -27 35q-3 6 -23 43q-1 2 -3 4t-3 4t-1.5 5t-0.5 4q-2 3 -3.5 5.5t-2.5 4.5l-2 2q-1 1 0 3v2q-2 4 -5 11.5t-4 10.5h-1l-1 -1l-1 8q-4 14 -14 39.5t-10 28.5q-2 3 -3.5 11t-2.5 10l-2 1q0 2 0.5 4t0.5 3q-1 6 -2 10q-1 -1 -5 -4.5t-6 -4.5
q-3 -2 -10 -7t-9 -7l-1 -3q-2 -1 -4 -1.5t-2 -1.5q-10 -7 -32 -22q-1 -3 -4 -11.5t-5 -12.5v-6t1 -7v-3q0 -11 -6 -27q-1 -4 -3.5 -6t-4.5 -7l1 -3q-1 -3 -4.5 -13t-5.5 -17l-5 -8q-1 2 -3 1q3 -7 -6 -24q-13 -23 -23 -49l-2.5 -5t-2.5 -4q0 -1 -0.5 -3.5t-1.5 -4.5t-4 -5
t-4 -5q-6 -9 -11 -21q-1 -2 -2.5 -4.5t-1.5 -4.5q-1 -2 -1.5 -5t-0.5 -4q-8 -13 -28 -27q-14 -8 -18 -9t-6 -2t-8 5l-4 -1h-5q-1 2 -7 10.5t-9 15.5q-1 1 0 7t1 7v1l1.5 1.5t0 0.5t-0.5 0.5t1 1.5v1v0l-1 1l1 1q1 1 1 2q2 10 7.5 24.5t14 34t13.5 31.5l-1 3q1 2 2.5 6t2.5 7
q0 2 1 5.5t1.5 6t3 7t3.5 6.5t13 33q0 2 3 8t4 10q2 7 9 48q1 9 3.5 26t3.5 25q2 7 5.5 26.5t5.5 30.5q0 3 -0.5 6t0.5 6q0 3 1.5 6.5t1.5 4.5q1 4 1 8v6.5v3.5t1 2.5t1 2.5q3 16 4 29h-1h-1q-1 1 0 3l2 4l1 1q5 30 3 90v15l1 11l-3 3q0 2 1 4.5t1 3.5q0 15 2 47v12v12
q1 5 0.5 10.5t0 11t1.5 7.5v2l-1 2q0 1 1 1h1q1 0 1 2l-1 2l1 1q2 1 2 2q1 1 1.5 3.5t3.5 3.5q1 1 1 2v1l13.5 4.5t11.5 2.5q1 0 7 -1q6 0 9 -3l1 1h3l2 -2q2 -1 2 -2q4 -1 12.5 -4.5t13.5 -6.5t6 -7q6 -16 9 -51q2 -1 1 -32.5t-1 -33.5q0 -5 0.5 -15.5t0.5 -16.5
q-1 -15 -3 -44.5t-2 -38.5q0 -1 -0.5 -4.5t-0.5 -4.5q0 -2 0.5 -5t-0.5 -4q-1 -24 -7 -60q1 0 2 1q5 4 27 19.5t29 21.5q1 1 3.5 2.5t3.5 2.5l3 3l3 3q10 8 42 33t44 35q10 9 25 20t18 14q1 0 2.5 3t3.5 6l1 3q5 6 16 17q3 3 5.5 3.5t5.5 3.5v3q4 3 9.5 9.5t8.5 10.5
q6 6 6 4l2 -2q0 6 11 19q15 17 22 35q1 1 2 3.5t2 3.5v3t0.5 3t2 3.5t2.5 3.5q3 8 2 17l-1 6q-1 2 -3.5 4.5t-2.5 3.5q-3 6 2 16q4 6 6 7q4 2 5 3t17 2l4 3q4 3 5 3q6 1 19.5 2.5t19.5 1.5t22 -2z" />
    <glyph glyph-name="L" unicode="L" horiz-adv-x="452" 
d="M487 49q-1 -2 -5.5 -4t-5.5 -3h-1q-1 1 -1.5 1t-0.5 -1v0h-1l-1 1v-1l-0.5 -0.5t-1.5 0.5h-1q-9 -1 -32.5 -1t-39.5 -1l-1 -1q-2 -1 -5 -1h-5q-1 -1 -4 -2t-4.5 -1h-5h-5.5q-4 0 -8 -0.5t-8.5 -1t-7.5 -1.5h-6.5t-6.5 -1q-7 -1 -19 -4.5t-14 -3.5q-33 -9 -34 -9t-40 -6
q-1 0 -3.5 -1t-4 -1.5t-4.5 0t-4 0.5q-2 -1 -4.5 -1.5t-4.5 -0.5l-2 -1q-2 0 -3 0.5t-2 0.5q-4 0 -11 -1t-9 -1v-1l-6 1q-7 0 -55 -2l-2 -2q-9 -10 -11 -11q-4 -2 -5 -3t-11 4l-4 -2l-5 -1q-4 3 -11 7t-13 7.5t-11 8.5l-1 1q-2 1 -6 2q-20 6 -21 7q-2 1 -9.5 4.5t-11.5 6
t-4 4.5l-2 1q-2 0 -2.5 0.5t0.5 1.5q0 1 -1.5 1.5t-2 1t0 2t-0.5 2.5q0 1 -2 4t0 4q0 1 -1 2v1q1 3 6 13t8 10l5 4q4 4 7 5q1 0 1.5 1.5t1.5 1.5l2 1h3q3 2 8.5 6t9.5 6.5t7 1.5q4 -2 12 -7.5t9 -5.5q3 7 9.5 20.5t9.5 19.5v3l3 6t3 7q1 2 2 6t2 6t4 6.5t4 6.5q4 7 9.5 17.5
t7.5 14.5q1 2 4.5 7.5t4.5 8.5q2 5 17 47q2 8 7.5 24.5t7.5 24.5q3 7 10 25.5t10 29.5q1 2 1 5.5t1 6.5q1 2 3 5.5t2 4.5q2 4 2.5 8t1 6.5t0.5 3.5t1.5 2.5t1.5 2.5q5 15 8 28q0 1 -1 1h-1q0 1 1 3l2 4l1 1q11 32 18 94q1 3 2 10t2 12t1 7l-2 3q0 3 1.5 5.5t1.5 3.5
q1 11 8 55q1 4 1.5 14.5t1.5 14.5q1 5 1.5 14t1.5 15.5t2 8.5q1 1 1 4l-1 2h1h1q1 1 0.5 3.5t-0.5 3t1.5 1.5t2.5 1l2 6q0 2 3 3l2 2v2q3 1 14 3.5t13 1.5q0 -1 6 -3q7 -2 9 -6q0 -1 2 0t2 0q1 0 2.5 -2.5t2.5 -3.5q3 -3 11 -8.5t13 -10.5t5 -10q4 -23 2 -64q0 -12 -2 -24.5
t-5 -28t-4 -23.5q-1 -5 -2.5 -17.5t-2.5 -18.5q-3 -17 -10.5 -48t-9.5 -39q0 -1 -1.5 -4t-1.5 -5t-0.5 -5.5t-0.5 -4.5q-10 -39 -39 -120l-27 -54q-1 -2 -1.5 -5.5t-0.5 -6.5v-4q-2 -10 -9 -24q-2 -4 -4.5 -5.5t-4.5 -6.5v-3q-2 -3 -6 -12t-7 -15l-5 -7q-1 2 -3 2
q2 -8 -8 -23q-14 -22 -23 -45q0 -2 -2 -4.5t-2 -4.5q-1 -1 -1 -3t-1 -3.5l-3 -4.5q10 -1 16 0h2.5h2.5h3l2 1l73 11l38 5q1 0 3 1t3.5 2.5t2.5 1.5q6 3 16 4q4 1 5.5 0t4.5 0l2 1q3 0 9 1.5t11 2.5l6 -1q0 -1 1 -2q3 4 16 5q18 1 37 5h3.5h3.5t2.5 1t3.5 1t5 -0.5t4 -0.5
q9 0 18 3q2 0 4 0.5t4 0.5q2 1 4 2.5t3 1.5q11 3 32 -3q14 -3 16 -5q3 -2 5 -3q1 -1 -2 -11l3 -3l2 -4q-1 -3 -6.5 -16t-10.5 -21z" />
    <glyph glyph-name="M" unicode="M" horiz-adv-x="698" 
d="M749 654q-1 -17 -1 -18v-2l-1 -2l1 -1l-2 -2q-1 -2 -1 -3h1q0 -2 -4 -7q-9 -11 -20 -25q-1 -6 -5 -17.5t-4 -14.5q-3 -9 -9.5 -26.5t-9.5 -26.5q-2 -5 -4 -15.5t-2 -12.5q-14 -61 -15 -70q0 -2 -0.5 -4.5t-0.5 -3.5q-1 -2 -0.5 -5t0.5 -4q-1 -11 -4 -35t-5 -43t-2 -32
t-2.5 -32t-3.5 -23q0 -2 1.5 -5t3.5 -6l1 -3q2 -8 2 -25q1 -4 -1 -6.5t-1 -6.5l2 -3q0 -5 1 -14t1 -15l-1 -9q-2 2 -3 0q5 -4 7 -23q2 -27 11 -52q1 -2 1.5 -5.5t1.5 -4.5q0 -2 1.5 -3.5t2 -4t1 -6.5t1.5 -6q3 -13 10 -24l2.5 -5t3.5 -4q1 -3 4.5 -5t4.5 -3q4 -6 7.5 -14
t6 -17t2.5 -10l8 -23q1 -5 2 -9q1 -2 -7 -9l1 -6l1 -7q-4 -2 -11 -6t-12.5 -7t-12.5 -3q-5 -1 -14 4.5t-9.5 6t-2 2.5t-1.5 3q-1 0 -1 -1h-1l-1 2l-3 3l-1 -1v0l-2 2q-1 3 -2 3q-40 42 -76 137l-3 2q-1 4 -2 9.5t-2 9.5q-1 2 -3 7t-3 8q0 3 -0.5 10t-0.5 9q-4 32 -4 44
q-1 4 -0.5 11.5t0.5 10.5q-1 8 -3 27t-3 29q-2 40 -1 57q1 11 7 61q1 3 0.5 6.5t-0.5 5.5q1 3 2.5 7t1.5 5q1 4 1 8t1 7v3q0 2 1 3.5t1 2.5q2 6 4 17t3 12h-1l-1 1l3 8l2 6q-18 -23 -33 -42l-2 -6q-4 -5 -10.5 -14t-11.5 -15q-3 -5 -8 -13t-8 -12q-3 -5 -10.5 -14t-10.5 -14
q-10 -14 -44 -63l-10.5 -14t-10.5 -15q-11 -16 -40 -66q-5 -10 -13.5 -25.5t-10.5 -19.5q-3 -5 -5 -7t-10.5 -6.5t-21.5 -3t-38 2.5q-6 0 -8 15q0 3 1 6l1 3v7t-0.5 5t-0.5 3t1 2.5t1 2.5q2 20 3 33h-1h-1l2 11q6 52 8 163q0 6 0.5 21t1 22t-0.5 16l-1 6q0 4 0.5 9.5
t0.5 7.5v22q-4 -12 -13 -34t-12 -30q0 -2 -2 -5.5t-2 -4.5q-1 -3 -2 -6.5t-2 -5.5q-27 -62 -72 -135q-10 -16 -46 -59q-1 -1 -2.5 -5.5t-3.5 -7.5l-1 -4q-7 -12 -20 -26q-4 -4 -7 -5t-7 -6l-1 -3q-25 -26 -27 -27l-8 -6l-2 2q-2 -9 -20 -21q-11 -8 -26.5 -19.5t-23.5 -16.5
q-1 -1 -4.5 -3t-5.5 -3q-1 -1 -2.5 -2l-4.5 -3q-2 -1 -4 -1.5t-4.5 -1.5t-4.5 -2q-9 -3 -24 -11l-6 -2t-4 -2l-5 -2.5l-5 -2.5q-17 -5 -42 -5q-18 0 -22 2q-4 1 -7 2q-2 0 -1 7l-2 1q-1 1 -2 1l-4 3q2 2 6 10.5t8 12.5q1 2 6.5 2.5t6.5 1.5h2l1 -1v1h1l2 -1v1h2h2
q46 16 87 49l2 2q1 2 5 5t6 6q2 1 4.5 4.5t4 5.5t6 5.5t6.5 5.5q10 10 28 29q1 2 6.5 7.5t7.5 8.5q11 14 32 49q2 3 31 53q26 47 33 62q2 3 3 6.5t2 6.5q2 3 5 7t3 5q2 5 3.5 9t2.5 7.5t2 3.5q0 2 1.5 3.5l2.5 2.5q8 17 14 32l-1 1h-1q0 2 1.5 4t3.5 4l1 1q18 40 33 104
q1 4 3 11t3 12.5t2 7.5l-2 4q1 3 2.5 5.5t1.5 3.5q1 2 13 55q0 4 1.5 13.5t2.5 13.5t1.5 12t1.5 13.5t3 7.5v2v3h1h1v2q-1 2 -0.5 2.5t2 1.5t2.5 1q1 2 1.5 4.5t3.5 3.5q1 0 1.5 1t0.5 2q3 1 14.5 3.5t12.5 1.5t7 -3q6 -1 9 -4q0 -1 1.5 -0.5t2.5 0.5q0 -1 2 -3t2 -3h1l2 1
q1 -1 3.5 -4t3.5 -3q2 -2 13 -9.5t16.5 -13.5t8.5 -14q14 -44 21 -107q3 -33 2 -143v-33.5v-33.5q-1 -26 -4 -69q14 21 23 34q1 2 4 5t4.5 5t1.5 3l2 -2q4 13 28 44q30 38 73 97q2 3 7.5 10t7.5 10q2 2 5 6t6 9q4 5 11.5 13t9.5 10q17 19 40 47q3 4 8 9.5t8 8.5q3 5 7.5 11
t6.5 8q2 5 8 18q1 1 5 9.5t6 12.5q2 2 5.5 9t6 11.5t4.5 5.5l1 2q1 1 1 1.5t1 0.5v-1q1 0 2 2v2l2 1h2l2.5 2.5t4.5 1.5h1l1 1q1 0 7 -1q11 17 25 21q2 1 6 2t7 3q5 1 7 -3v-1q1 0 9 2q1 0 3 0.5t3 0.5q2 0 2 1q-1 -6 -1 -24zM750 678v0v0z" />
    <glyph glyph-name="N" unicode="N" horiz-adv-x="712" 
d="M234 647q2 -1 6.5 -7t5.5 -7v-1q-1 -2 -1 -2.5t1 -0.5h1l-1 -1q0 -2 0.5 -2.5t1 -0.5h1t0 -1.5t-0.5 -2.5q1 -7 1 -16q5 -9 6 -13q5 -10 12.5 -29.5t12.5 -29.5q2 -5 7 -14.5t7 -12.5q4 -9 11.5 -24l13.5 -27t10 -19q1 -1 2 -3.5t2 -3.5q1 -2 3 -4t2 -3q10 -18 30 -56
t24 -45q2 -3 22 -50q0 -1 2.5 -3t5.5 -4l2 -2q6 -7 12 -21q2 -3 1.5 -6t1.5 -6l2 -2q2 -3 6 -10.5t6 -13.5l2 -7q-2 0 -3 -1q6 -2 9 -9q2 11 6 36.5t5 35.5q1 1 1.5 4t0.5 4v5v4q6 43 26 116q3 11 23 56q0 2 0.5 5.5t0.5 7.5l-1 3q2 11 9 26q2 5 4.5 6.5t4.5 6.5v3q1 3 6 13
l9 18q0 1 1.5 3t2.5 3.5t1 0.5q1 -1 3 -1q-2 8 10 26q16 23 33 52q1 2 3.5 5.5t3.5 5.5q0 1 1 3.5t3 4.5t5.5 6t4.5 6q10 11 19 25q1 2 3 5.5t4 5.5q1 2 2.5 6.5t2.5 5.5q11 15 40 37q20 16 24 18q6 2 9 4t8 -4l6 2l7 3q1 -4 4 -9.5t5 -10t2 -9.5q1 -5 -4 -13l-5 -8
q0 -1 -2 -2.5t-2 -2.5l1 -1l-2 -2l-2 -2v-1h1l-2 -2l-2 -2q-9 -16 -35 -57t-38 -63v-3q-1 -3 -3.5 -7.5t-4.5 -7.5q-1 -2 -2 -6.5t-2 -6.5t-4.5 -7t-4.5 -7q-3 -7 -17 -35q-1 -2 -4 -7.5t-4 -9.5q-4 -9 -14 -48q-2 -8 -5.5 -24.5t-5.5 -23.5q-1 -7 -6 -25.5t-7 -28.5
q-1 -3 -1 -6v-5q-1 -3 -2.5 -6.5t-1.5 -4.5q-1 -3 -1.5 -6.5t-0.5 -6.5v-3q0 -2 -1.5 -3t-1.5 -2q-3 -15 -5 -27l1 -1h1q0 -1 -0.5 -3t-2.5 -3l-1 -2q-6 -23 -12 -87q0 -4 -2 -14.5t-2 -13.5l2 -3q-1 -2 -2 -4.5t-1 -3.5q-3 -19 -11 -50q-1 -3 -2.5 -13t-2.5 -14
q-2 -4 -3.5 -12t-3 -14t-3.5 -8q-1 0 -1 -3v-2h-1h-1v-2q0 -2 -0.5 -2.5t-2 -1.5t-2.5 -1q-1 -2 -2.5 -4t-4.5 -3l-1 -1l-1 -1q-2 -1 -13 -1t-12 2l-5 3q-5 3 -7 6q0 1 -1.5 1h-2t-1.5 2.5t-2 3.5q-2 3 -8.5 8t-10.5 9.5t-4 8.5v1q0 1 -1 1h-1v1l-1 1q-6 5 -11 14t-15 29.5
t-12 23.5l-2 2q-1 1 -2.5 5t-2.5 6q-1 1 -3 4l-3 4.5t-2 6t-2 6.5q-3 7 -7 16.5t-6 13.5q-1 2 -3 7.5t-3 8.5q-4 7 -13 22t-10 17q-2 3 -11.5 18.5t-13.5 23.5q-5 9 -13.5 26.5t-11.5 23.5q-2 3 -4 5t-3 5q-1 2 -2 6t-2 5q-2 3 -3.5 6t-3.5 6l-2 2q-1 2 -1 3.5v2.5l-13 26
h-1h-1l-2 8q-9 22 -31 62v-1q-3 -7 -6.5 -19.5t-6.5 -20.5q-1 -4 -4 -10.5t-4 -10.5q-3 -10 -7 -29t-6 -27q-11 -46 -14 -56q-3 -8 -23 -60q-1 -2 -1.5 -5.5t-1.5 -6.5t-3.5 -6.5t-2.5 -4.5q-2 -4 -3.5 -7.5t-1.5 -6.5l-1 -3q-1 -2 -2.5 -3t-1.5 -2q-4 -9 -13 -27l1 -1
q0 -1 -1 -3t-3 -3l-1 -1q-8 -12 -23.5 -39t-22.5 -36q-2 -4 -8.5 -11t-7.5 -8l-1 -3q-1 -2 -3 -3l-3 -1q-18 -15 -36 -25q-13 -7 -20 -8q-22 -6 -25 -5l-2 -1h-1v1h-3h-1l-1 1h-1q-5 1 -5.5 1.5t-1.5 0.5v0q-1 1 -2 5.5t0 5.5l1 3q1 3 2 4v1l1 1l1 1q1 2 3 8t3 8q8 10 15 20
q2 5 9.5 15t11.5 17q1 3 2.5 6t3.5 7.5t3 6.5q23 49 26 58l2 4t1 4q1 1 1 4t1 4q4 12 17.5 52t18.5 56q4 14 12.5 35t8.5 22q1 2 0.5 5t-0.5 7l-1 4q0 10 6 27q1 5 3.5 7t3.5 7l-1 3q1 5 3.5 15t4.5 17l4 8q2 -2 4 -1q-4 7 2 27q10 27 13 54q0 1 1 4.5t1 5.5q0 1 -0.5 3.5
t-0.5 4.5q1 2 2.5 6t2.5 6q3 12 2 24v4.5v4.5q0 3 -2 6t-2 4q-1 11 9 32q6 13 8 14l4 4t14 0h1.5h1.5q0 1 0.5 1.5t1.5 0.5l4 3q6 -2 15.5 -3t17.5 -2.5t17 -5.5z" />
    <glyph glyph-name="O" unicode="O" horiz-adv-x="651" 
d="M398 578q-5 -1 -9 0q-1 0 -0.5 -1t0 -1.5t-5 0t-6.5 0.5q-17 -3 -43 -15q-41 -19 -70 -61q-39 -56 -61 -120q-10 -28 -15 -67q-10 -89 4 -145q0 -2 1 -6.5t2 -6.5q0 -3 2 -6.5t3 -4.5q13 -35 53 -66.5t74 -24.5q19 3 39.5 13t28.5 16t29 22q2 2 20 24q8 11 20 25.5
t16 18.5q6 8 10 11.5t10 12.5l3 7q14 22 35 61l9 17q0 -4 1 -6t2 0v4q0 7 3 16.5t7.5 21.5t5.5 16q18 57 15 105q-1 16 -1 17q0 2 -1.5 5t-2.5 6v10v9q-3 17 -9 31l-6 12q-1 3 -3 5t-4 3.5t-2 2.5q-42 45 -62 48q-7 1 -15 0.5t-11.5 -1t-10 -2t-8.5 -1.5q-7 -2 -16 -5
q-6 -2 -7 3v2q-1 0 -13 -3l-12 -4q0 1 1 2zM408 609q7 6 15 10t17 6.5t11 3.5q1 0 6.5 1t6.5 1v1q1 0 6.5 0.5t6.5 1.5q3 1 13 1q100 2 153 -44q59 -51 59 -171l1 -8q-1 -10 -9 -43q-6 -29 -9 -35q-5 -14 -19 -41q-27 -52 -54 -91q-9 -14 -33 -41q-56 -64 -95 -93
q-55 -42 -110 -58q-56 -17 -130 -13q-16 1 -28 4q-11 2 -28 9q-34 13 -41 18q-3 2 -4.5 3.5l-3 3l-3.5 3.5q-26 23 -47 57l-1 -1h-1q-3 2 -4.5 7.5t-2.5 9.5l-1 4q-10 60 -9.5 127.5t12.5 112.5q3 11 9 25.5t12.5 29t7.5 17.5l2 7q1 3 13 20q27 39 45 59t47 43q27 23 57 34
q18 6 44 12t35 5l6 1h6v-1h6h6.5t3 -1t2.5 -2q18 -4 18 -5h1q2 6 5 10z" />
    <glyph glyph-name="P" unicode="P" horiz-adv-x="619" 
d="M239 344q25 -1 81 -20t80 -22l3 2q17 3 20 5q2 0 16 7q18 9 20 9q20 14 39 32q13 12 17 18q18 25 25 55q5 19 1 48q-4 36 -5 39q0 3 -1.5 4.5t-2.5 3.5v6.5t-1 5.5q-2 4 -9 15q-1 1 -1.5 3.5t-1.5 3.5q-11 14 -27 27v-1v-1l-9 8q-27 13 -62 20t-62 6q-24 -1 -41 -4l-4 -2
q-4 -1 -7.5 -1h-5.5q-3 -1 -8.5 -2t-8.5 -2q10 -16 9 -25q-2 -25 -13 -79q-3 -17 -11.5 -46.5t-10.5 -36t-4 -18.5t-4 -18q-3 -13 -11 -40zM68 -13q-3 0 -8.5 5.5t-6.5 5.5q0 1 0.5 2.5t0 1.5h-1h-1t0.5 2v1h-1h-1.5t0.5 2v2q-9 23 4 82l-2 2q1 2 2 5t1 5q1 1 1 4t0.5 4.5
t2.5 4.5t2 4q3 5 5.5 12t4.5 11q1 1 3.5 5t2.5 6q2 5 5 17t3 15q1 2 4 14.5t5 19.5t7 20.5t7 19.5q1 2 0.5 4.5t0.5 4.5q1 3 2.5 5.5t2.5 3.5q1 3 1.5 6t0.5 5v3l2 2l2 2q4 13 7 24h-1h-1l4 7q9 22 23 90q1 4 4.5 16t3.5 15l-1 4q1 3 2.5 5.5t2.5 3.5q4 20 18 67q2 4 5 18
t5 20t6 22l-6 -2q-38 -8 -39 -8h-2q-2 -1 -3 -1v1q-1 0 -3 -0.5t-2.5 -0.5t-1 0.5t-1.5 0.5q-7 1 -7.5 1.5l-0.5 0.5h-1q-2 1 -4 6t0 6l1 3q1 3 4 4q0 1 -0.5 1.5t-0.5 1t2 1.5l2 1q2 2 5.5 7t7 8t7.5 5q24 9 63 20h3q2 7 5 8q1 0 2 2l1 2q2 1 14 1t12 -2l1 -2q21 4 59 10
q35 5 51 6q60 3 130 -8l15 -4q3 0 8.5 -1t7.5 -2q50 -21 95.5 -69t48.5 -88q1 -10 -0.5 -20.5t-3 -17.5t-6.5 -17.5t-7 -14t-9 -14.5t-8 -12q-1 -2 -3.5 -8t-3.5 -11l-2 -4q-11 -18 -28 -34q-6 -5 -10 -6.5t-10 -7.5l-3 -4q-26 -19 -42 -29q-2 -2 -5.5 -3.5t-5.5 -1.5l-2 -1
q2 2 1.5 3.5t-2.5 -1.5q-10 -11 -37 -20q-46 -14 -87 -22q-3 0 -10 -0.5t-8 -0.5q-2 0 -6 -1t-8 -1q-8 0 -23 2q-40 4 -50 7q-6 2 -13 4.5t-10 3.5q-5 2 -11 3t-8 2q-10 5 -16.5 15.5t-7.5 10.5h-1v-3v-3q-3 -14 -8.5 -31.5t-12 -36t-7.5 -24.5q-3 -8 -6 -14.5t-6.5 -13
t-5.5 -9.5q0 -1 1 -5l1 -5q1 -7 -3 -16q-1 -3 -3.5 -3.5t-2.5 -3.5l1 -2q-1 -3 -2.5 -8t-3.5 -9q-2 -5 -3 -4l-3 1q2 -2 2.5 -4.5t0 -4t-1.5 -3.5l-1 -2q-7 -13 -7 -27q0 -1 -0.5 -2.5t-0.5 -2.5t1 -2t0.5 -2.5t-1.5 -3.5l-1 -2q-2 -7 0 -13q0 -1 0.5 -2.5t1.5 -2.5
q0 -2 2.5 -3.5t2.5 -2.5q2 -2 1.5 -6t-1 -5.5t-2.5 -4.5t-2 -4q-5 -10 -7 -11q-3 -2 -4 -4q0 -1 -15 -1l-4 -3l-4 -3q-10 0 -17 -0.5t-16.5 0t-19.5 3.5z" />
    <glyph glyph-name="Q" unicode="Q" horiz-adv-x="633" 
d="M368 613q-5 -2 -11 -2q-1 0 -0.5 -1t-0.5 -2h-4q-5 1 -6 0q-13 -3 -41 -17q-37 -19 -64 -63q-37 -63 -56 -121q-9 -28 -13 -68q-9 -93 4 -146q1 -2 1.5 -6t1.5 -6q1 -3 3 -6t2 -5q10 -34 43 -67t65 -28q6 1 12 2.5t10.5 3.5t10.5 5t9.5 4.5t9.5 5.5t8.5 5.5t9 6.5
t7.5 6.5t8 7t8 5.5q1 1 18 26q8 12 20 27t13 18q6 8 10.5 11t10.5 13l2 7q12 20 33 62l10 17q0 -5 2 -6q1 -1 2 1v2q-1 8 1.5 18t7 22.5t5.5 15.5q17 58 13 106v7.5t-1 9.5q0 2 -2 5t-2 6t0.5 9t-0.5 9q-1 14 -6 29q-1 1 -2 5t-2 6q-1 3 -4 5.5t-4 3.5q-33 51 -51 54
q-14 2 -17.5 2t-13.5 -2t-11 -3q-8 -1 -16 -4q-7 -2 -8 4v2q-1 1 -13 -3q-1 0 -4.5 -0.5t-5.5 -1.5t-3 -1q1 2 1 4zM376 648q6 7 14 11t18 7t12 4q1 0 6.5 1t6.5 1t0 1q1 1 7 1.5t7 0.5v1q5 2 14 1q80 -6 146.5 -73.5t75.5 -157.5l2 -8q-1 -7 -10 -45q-7 -33 -9 -38
q-5 -13 -20 -43q-30 -55 -57 -94q-9 -12 -35 -43q-59 -68 -98 -97q-57 -42 -113 -59q-58 -16 -135 -13q-18 1 -30 3q-10 3 -29 10q-38 15 -45 20q-4 2 -7 5.5t-4 5.5q-28 25 -50 62l-1 -1q-1 -1 -1 0q-3 2 -4.5 8l-2.5 10v4q-10 63 -9 135t13 119q3 12 9.5 27t13.5 29.5
t8 18.5l2 8q2 5 4.5 8.5t5 6.5t4.5 5q28 41 46.5 62t49.5 45q29 23 60 34q19 6 46 11.5t35 4.5q1 0 6.5 0.5t6.5 0.5v-1h6.5h6.5t3 -1t3 -2q17 -5 18 -5q1 5 4 9zM546 -169q-1 -3 -6.5 -6.5t-6 -4t-2 -0.5h-2t-0.5 -1l-1 -1h-3v-1h-2h-2q-36 -11 -110 -4l-2 -1q-3 0 -7.5 1
t-6.5 1q-2 1 -6 1h-6l-7.5 2.5t-6.5 2.5q-27 8 -31 10q-3 1 -8 3t-8 3q-7 2 -21.5 5.5t-20.5 5.5q-36 9 -41 11q-8 3 -22.5 9t-19.5 7q-2 1 -4.5 1t-4.5 1t-4.5 2.5t-2.5 2.5q-3 1 -5.5 1.5t-4.5 1t-3 0.5t-2 1t-1 2q-11 4 -19 7l-1 -1l-5 3q-18 8 -55 17q-2 1 -5.5 2
t-6 1.5t-3.5 0.5l-2 -1q-1 1 -2 1.5t-2 1.5q-4 0 -11.5 2t-12.5 3q-1 0 -6 -0.5t-5 0.5q-2 0 -6.5 -1.5t-6.5 -1.5v-1h-1l-1 1v-1h-1l-1 1l-1 1l-4 1l-1 1h-1q-13 11 -11 15q0 1 -1 5t0 6l-1 1q-1 1 -0.5 1.5t1 1.5t0.5 2q1 1 2 5.5t1.5 6.5t2 4.5t3.5 3.5q12 4 34 8
q9 1 44 0h9h13q11 -2 31.5 -5.5t23.5 -4.5q1 0 3.5 -0.5t3.5 -1.5h4h2q22 -5 87 -26q3 -1 42 -19q2 -1 4 -1h5l3 1q8 -1 20 -6q3 -2 4.5 -4t4.5 -3l3 1q3 -2 10.5 -4.5t12.5 -4.5l6 -4l-1 -2q5 2 19 -4q20 -9 40 -12q1 -1 3.5 -1.5t4.5 -1.5q1 0 2.5 0.5t3 0t4.5 -2t5 -1.5
q9 -3 19 -3h3.5h3.5q2 1 5 2l2 1q5 1 11 0.5t11 -2t7 -1.5q3 0 6 -0.5t5 -0.5t3 -1q3 -1 5 -1t4 -8l4 -1l3 -1q0 -4 1.5 -10.5t1.5 -9.5t-2 -11z" />
    <glyph glyph-name="R" unicode="R" horiz-adv-x="591" 
d="M333 604q7 -3 8 -6q2 -4 -1 -17q-1 -5 -6.5 -16t-7.5 -17q-1 -3 -2.5 -10.5t-2.5 -10.5q-2 -7 -10 -29.5t-10 -31.5q0 -1 -1 -3.5t-1 -3.5q-1 -2 -1 -4.5v-3.5q-2 -7 -36 -110q-2 -9 -6 -17q9 3 20 5q0 6 2 8q1 1 0 3v1h1h1q0 1 -0.5 2.5t0 2t2.5 0.5l1 1l2 4t4 3
q1 0 1.5 0.5t0.5 1.5q3 1 14 3t12 1q1 0 7 -1t8 -3h2l2 1q1 0 2.5 -1.5t2.5 -1.5q3 -1 12.5 -3t12.5 -4q14 3 24 5l3 1q1 1 7.5 2.5t10.5 3.5q3 1 7.5 3.5t5.5 2.5t7.5 2.5t9.5 4.5q17 10 31 24q10 10 13 15q11 19 18 53q9 42 7 66q0 6 2 10q1 1 0.5 1.5t-0.5 1.5t1 3.5
t1 3.5q-1 3 -4 9q-1 1 -1 2.5v2.5q-6 8 -16 16v-1l-6 5q-43 21 -102 23q-24 1 -38 -1l-4 -1q-2 -1 -5.5 -0.5t-4.5 -0.5zM48 23q-1 2 -2 8t-1 7q-1 1 0 2l1 1v1h-1l1 1v2q-1 0 -1 0.5t1 1.5v1q2 10 6 23t8 23.5t11.5 28.5t11.5 28l-1 3q1 3 3.5 7.5t2.5 7.5q1 2 2 6.5t2 7
t4 7.5t4 7q4 9 9.5 21t7.5 16q1 3 4.5 9.5t4.5 9.5q0 1 16 53q1 6 6.5 24.5t8.5 28.5t10 29t10 27q1 3 1 6t1 5q1 3 3 6.5t3 4.5q1 4 2 7.5t1 5.5v3q1 2 2.5 3t1.5 2q5 15 9 26h-1h-1q0 2 1 3.5t2 2.5l2 1q7 16 23 72q1 3 3.5 10t3.5 9l-1 1q-3 -2 -8.5 -4t-6.5 -2
q-8 -3 -26 -12t-21 -10q-1 0 -3.5 -2t-3.5 -2l-1 1l-3 -2q-2 -2 -3 -2.5t-3 -0.5h-1q-3 -1 -6 -3l-3 -1h-3q-1 1 -3 0l-1 -1q-2 0 -8 5t-4 7q1 0 1 5q1 5 5 9q0 1 -1 1.5t0 0.5q0 1 2.5 3.5l3.5 3.5q2 2 8 11t10.5 14t10.5 8q37 18 82 30q36 10 100 17q31 3 47 3
q40 0 107 -8q2 0 5.5 -1t4.5 -1q3 -1 6.5 -1t5.5 -1q39 -10 78 -41t42 -64q2 -15 -2 -31t-7.5 -24.5t-14 -27t-11.5 -21.5q-2 -2 -4 -8.5t-4 -11.5l-1 -5q-11 -21 -28 -36q-6 -6 -10 -7t-10 -6l-2 -4q-24 -16 -41 -25q-2 -1 -4.5 -2t-4.5 -2h-2q2 2 1.5 3t-2.5 -1
q-8 -8 -31 -15q-38 -11 -71 -19q-2 -1 -6 -2l-5 -1q1 -15 3 -21q1 -4 3.5 -10t3.5 -7q14 -41 15 -43q1 -1 2 -3v-2q1 -1 2 -3l2 -1q5 -9 16 -31.5t15 -30.5q5 -8 9.5 -20t5 -13t4.5 -3t5 -2q4 -3 10 -13q1 -2 0.5 -4.5t1.5 -4.5l2 -1q2 -2 5.5 -7t6.5 -9q1 -2 1.5 -3.5
t-0.5 -1.5l-2 -3q3 1 5.5 -0.5t3 -3t2 -4t2.5 -3.5q9 -15 24 -28q1 -1 2.5 -3t2.5 -2q1 -1 2.5 -1.5t2.5 -1.5t2.5 -4t2.5 -4q7 -7 15 -12q1 -1 3 -2.5t4 -1.5q2 -1 5 -1l3 -1q6 -3 10.5 -7t9.5 -10l4 -6q12 -13 12 -14q2 -4 4 -6q1 -1 -3 -9l2 -5l2 -4q-2 -3 -6 -8t-7.5 -9
t-8.5 -7q-1 -2 -9.5 -1t-9.5 1l-2 1l-1 1q-1 0 -1 -1q-1 0 -2 1l-2 1v-1h-1l-1 1q-2 1 -3 1q-33 11 -92 57h-3q-2 1 -5 4l-5 5q-1 1 -4.5 2.5t-5 3t-4 5.5t-3.5 5q-18 20 -20 23q-1 2 -3.5 6t-4.5 6q-4 5 -13.5 14.5l-13.5 13.5q-20 23 -24 29q-3 4 -22 36l-3 3l-3 3
q-1 2 -2 5v3q-1 3 -2.5 5t-3 3.5t-1.5 2.5q-1 0 -0.5 1.5t0.5 2.5q-2 3 -4.5 9t-4.5 10h-1l-1 -1v6q-3 10 -7.5 21t-10 22.5t-7.5 16.5q-1 3 -2.5 10.5t-2.5 8.5l-3 2q-1 1 0 3t0 3q-2 11 -3 18q-8 -1 -20 -3l-15 -2.5t-6 -1.5q-2 -11 -8 -26q-2 -5 -5 -7t-5 -6l1 -4
q-2 -4 -5.5 -14t-7.5 -17l-5 -8q-1 2 -3 1q3 -8 -7 -26q-14 -25 -24 -52q0 -2 -2 -5t-2 -5q-1 -1 -1 -3.5t-1 -4.5t-4 -5.5t-4 -5.5q-6 -11 -10 -23q-1 -2 -2 -5t-1 -5q-1 -2 -0.5 -6t-0.5 -4q-5 -14 -24 -30q-12 -10 -16 -11t-6 -3q-2 0 -10 6l-4 -1l-5 -1q-2 2 -11.5 11
t-15.5 16z" />
    <glyph glyph-name="S" unicode="S" horiz-adv-x="536" 
d="M103 189q6 -3 13.5 -13.5t9.5 -11.5v-3q1 -3 2 -4l1 1h1v-3q1 -3 2 -4l1 1l1 1q0 -1 0.5 -4t1.5 -3q27 -30 81 -54.5t112 -25.5l5 2q22 5 28 7q6 3 21 11q17 10 21 14q20 20 25 43q2 7 2 20q0 26 -8 58q-7 31 -38 55q-30 21 -98 50q-5 2 -11 3.5t-11 3.5t-11.5 5.5
t-8.5 4.5q-10 4 -21 8t-12 4q-3 1 -5.5 3.5l-3.5 3.5q-31 17 -53 42q0 1 -1 0t-1 0q-3 2 -4.5 7.5t-2.5 10.5v4q7 60 39.5 112t68.5 74q7 4 57 24l6 3q4 1 18 4q63 12 113 10q35 -1 58 -9q19 -6 42 -19t27 -20q0 -1 4 -4.5t5 -4.5l-1 -1h-1q0 -1 4 -5t4.5 -5.5t-0.5 -4
t-1 -3.5l2 -10l2 -5l-2 -5q-1 -1 0 -3v-3q-3 -4 -16 -10t-15 -3q-2 1 -9 2q-9 2 -12 5q-1 1 -2.5 -0.5t-2.5 -1.5l-3 3t-3 2q-5 1 -12.5 2t-12.5 2.5t-7 4.5q-25 33 -59 39q-54 9 -110 -16q-27 -12 -39 -33t-13.5 -48.5t4.5 -37.5v-5q-1 2 -1 3q-2 -16 38 -43.5t86 -45.5
q64 -26 115 -66q32 -25 33 -27q27 -43 24 -77q-2 -17 -6 -24.5t-7 -20.5l-1 -10q-20 -40 -49 -67q-2 -2 -6.5 -4.5t-7.5 -4.5l-3 -2q3 5 2 6q-2 0 -4 -3q-12 -17 -47 -29q-60 -21 -115 -31q-4 -1 -8 -1.5t-9 -0.5h-7q-2 -1 -7.5 -1.5t-11.5 -1.5q-10 0 -31 2q-41 3 -62 5
q-4 1 -8 1.5t-8.5 1.5t-8.5 1q-6 1 -15 1.5t-12 1.5q-33 10 -60.5 28.5t-39.5 35.5q-26 37 -26 64q0 3 0.5 10t0.5 14q0 4 1.5 6t4 2h5.5h6q1 0 2 2.5t1.5 6.5t1.5 6q4 14 5 14q9 -3 30 -8t34 -11z" />
    <glyph glyph-name="T" unicode="T" horiz-adv-x="654" 
d="M191 28q-2 1 -4 7.5t-2 7.5l1 1v1v1h-1l1 2v1v0q-1 0 -1.5 0.5t0.5 1.5l1 1q1 9 4.5 20.5t6 18t10.5 24t10 20.5l-1 3q1 2 2.5 5.5t2.5 5.5q1 1 1.5 4.5t1.5 5.5t3.5 5.5t3.5 4.5q4 6 8.5 14.5t6.5 12.5q1 2 4 6t4 7q1 2 13 39q2 5 6 19t6.5 21t8.5 22t9 23v5t1 5t3 4.5
t2 3.5q1 4 1.5 7t1 5t0.5 3t1.5 2t1.5 2q4 13 8 23l-1 1h-1l4 6q9 24 18 78q0 3 2.5 12.5t2.5 11.5l-2 3q0 2 1.5 4t1.5 3q3 14 12 46q0 3 1 9q-8 1 -13 1q-3 1 -5.5 0.5t-4.5 -0.5t-5 1l-3 1q-4 1 -6.5 1t-4.5 -0.5t-3 -0.5t-2 1t-2 1q-12 1 -22 2v-1l-6 1q-28 3 -64 -3
q-17 -3 -18 -3l-2 -2h-3h-3q-27 -8 -32 -10q-2 -1 -7.5 -4t-7.5 -4t-6.5 -4t-8 -5t-4.5 -1q-1 0 -2 -2l-1 -1v1h-1q0 1 -1 -0.5t-1.5 -1.5t-1.5 0.5t-2 0.5t-3.5 -1t-3.5 1q0 1 -1 1l-1 -1q-3 2 -10 8t-7 8q1 1 -1 6t-1 8l-1 1q-1 1 -1 2l1 2v3q1 2 1.5 10t1.5 12.5t4 6.5
q14 8 42 18q8 2 52 11q3 1 11.5 3t13.5 2q13 2 36.5 4t26.5 2h3.5h3.5q2 0 4 0.5t3 0.5q32 2 96 -3l18 -2q10 0 11 -1q1 -2 2 -2q15 -3 16 -4q2 0 4.5 0.5t5 1.5t3.5 1q8 0 21 -2q4 0 5.5 -2t5.5 -2l3 1q3 -1 11 -1.5t14 -1.5l6 -2v-3q5 3 21 0q22 -4 43 -3h4h5q1 0 2.5 0.5
t3.5 0.5t5.5 -0.5t4.5 -0.5q11 -1 21 2q1 0 3.5 0.5t4.5 0.5q2 1 4 3t3 2q5 2 11.5 3t12.5 1h7l17 2q3 -1 6 -1q1 1 4 -8l5 -1h4q1 -4 3 -11.5t2.5 -10.5t-0.5 -12q0 -3 -6 -8l-6 -5l-2 -1h-2.5t0.5 -1l-2 -1h-2.5t0.5 -1q-1 -1 -2.5 -1h-2.5q-35 -15 -113 -20l-3 -1h-6.5
h-7.5q-2 0 -6 -0.5t-6.5 0t-7.5 1t-6 0.5q-32 4 -34 4q-3 1 -8.5 2t-8.5 1q-5 1 -12 1q-1 -5 -2 -17q-2 -13 -8.5 -36t-6.5 -26l-3 -15l-3 -15q-3 -13 -10.5 -38t-8.5 -33q-1 -2 -2 -4.5t-1 -3.5q-1 -2 -1 -4.5v-3.5q-7 -25 -35 -99q-3 -8 -7 -16t-9 -16t-7 -12q-1 0 0 -7
v-6q-2 -8 -8 -20q-2 -4 -4.5 -5t-3.5 -4v-3q-1 -3 -4.5 -10l-6.5 -13l-4 -5l-3 2q2 -7 -6 -20q-12 -18 -19 -37q-1 -1 -2 -3.5t-2 -3.5v-2.5t-1 -3.5t-3 -4.5t-3 -3.5q-5 -8 -7 -17q0 -1 -0.5 -3.5t-0.5 -3.5q-1 -2 0 -5t1 -4q-1 -8 -15 -23q-9 -9 -11 -9q-3 -1 -5 -3
q-1 0 -12 5l-4 -1l-4 -1q-5 2 -12.5 6t-13.5 7.5t-13 9.5z" />
    <glyph glyph-name="U" unicode="U" horiz-adv-x="676" 
d="M728 629q2 -3 -0.5 -15t-2.5 -14q1 0 -1 -3l-2 -3q0 -1 1 -1h1q0 -1 -2 -4t-2 -4h1q1 0 1 -1l-2 -4l-1 -3q-16 -66 -91 -258l-1 -6q-3 -7 -8.5 -18.5t-8.5 -16.5q-1 -4 -5 -14t-7 -16q-4 -7 -21 -33q-29 -46 -51 -74q-9 -11 -30 -32q-49 -50 -84 -71q-50 -30 -103 -40
q-55 -12 -127 -6q-18 1 -25 3q-9 2 -23 9q-27 14 -33 20q-3 2 -4 3.5t-1.5 3.5t-2.5 3q-16 24 -26 57h-1h-1q-1 2 -1.5 6.5t0.5 8.5l1 3q8 119 33 208q3 12 12.5 37t10.5 30l1 7q2 6 5 11.5t4 7.5q22 54 53 120l12 28t13 29q4 7 10.5 22.5t11.5 25.5t8 13l1 4l1 4h1l1 -1
q1 1 1.5 4.5t1 4t2.5 1t3 1.5q2 2 3 3.5t1.5 2.5t1.5 1.5t3 0.5q1 0 2 2l1 1q3 1 14.5 -1t12.5 -4q0 -3 1.5 -3.5t3.5 -2.5q5 -4 5 -10q0 -1 1.5 -1h2.5v-5t1 -5q1 -4 5.5 -17t4.5 -17.5t-1 -17.5q-3 -9 -40 -107q-4 -13 -24.5 -63.5t-30.5 -80.5q-10 -29 -18 -70
q-20 -93 -14 -138q0 -1 0.5 -4.5t0.5 -5.5l2.5 -5t1.5 -4q3 -24 22.5 -48t53.5 -22q44 1 93 32q3 2 17 19q7 8 16.5 19.5t12.5 14.5q5 6 8.5 8.5t8.5 9.5l2 5q9 13 31 50l9 13l2 -5q1 0 1 3q1 10 20 48q27 52 47 109q2 4 5 11.5t4 11.5q1 3 2 7.5t3 9.5t6.5 14t5.5 14
q12 26 20 55q1 4 3 11t3 11q2 6 2.5 13.5t1.5 10.5q12 38 43 79q20 27 29 33q8 5 12 8q2 2 3.5 1.5t2.5 -1t3 -2t3 -2.5l8 4l8 4q2 -4 11 -15t13 -20z" />
    <glyph glyph-name="V" unicode="V" horiz-adv-x="698" 
d="M155 7q-3 1 -8.5 7.5t-6.5 6.5v2v2.5t-1 0.5l-1 -1q-1 1 -0.5 2.5t0.5 2t-1 0.5h-1q-1 0 0 2v2q-10 25 -10 109l-2 2q0 3 0.5 7t-0.5 7q0 2 -0.5 5.5t-0.5 6t1.5 7t1.5 6.5q1 7 2.5 17t2.5 16q0 2 1.5 7.5t1.5 8.5q1 4 0.5 21.5t-0.5 21.5q1 42 1 43q1 9 3.5 26t2.5 22
q0 3 -0.5 5.5t-0.5 4.5q1 3 2.5 6t1.5 4v6.5v4.5v3q0 2 1 3t1 2q2 15 4 24h-1h-1l3 7q3 15 9 78q0 4 1.5 13t1.5 11l-1 3q0 2 1.5 4t1.5 3q3 18 10 45q1 2 3 11t3 12t3 10.5t3.5 13t3.5 6.5q1 0 1 2v3h1l1 -1v3t0.5 2.5t2 1t2.5 0.5q2 2 3 4t4 2q1 0 2 1v1q2 1 13 0.5
t12 -1.5t6 -4t7 -6h2q1 0 1.5 -0.5t1.5 -2.5t2 -3q2 -2 8.5 -7.5t10.5 -9.5t4 -8q1 -10 -3 -46q-1 -10 -5 -28.5t-5 -26.5q0 -5 -0.5 -14t-1.5 -12q0 -7 -3.5 -31.5t-3.5 -33.5q0 -1 -0.5 -3.5t-0.5 -3.5q0 -2 0.5 -4.5t0.5 -3.5q0 -16 -3.5 -51.5t-4.5 -43.5
q0 -8 -1.5 -16.5t-4 -17t-3.5 -12.5q0 -1 3 -6l2 -6q2 -8 0 -21q0 -3 -2 -5t-3 -6l2 -2q0 -4 -0.5 -11.5t-1.5 -13.5l-2 -6h-4q3 -2 4 -5.5t1 -5t-1 -5.5l-1 -4q-4 -18 -3 -33l6 8q5 6 12.5 16.5t9.5 13.5q55 76 56 77q1 2 3.5 5t3.5 4q1 3 2.5 6t2.5 4q9 15 88 125
q6 10 48 59q2 1 3.5 5.5t3 8t1.5 4.5q7 11 20 27q4 4 7 5.5t7 6.5l1 3q2 3 10.5 13t14.5 17l8 7q1 -1 3 -2q1 9 18 24q22 19 46 44q2 2 5 4.5t4 3.5t2.5 3t3.5 3.5t6.5 4t6.5 3.5q10 7 22 17q2 1 4.5 3t3.5 3q2 1 4.5 4t3.5 3q16 10 41 13q16 2 20 1.5t7 -1.5q2 0 3 -6l4 -1
l4 -1q-1 -3 -1.5 -11t-2.5 -13q-1 -2 -5 -4.5t-4 -3.5h-2l-1 -1v-1h-1l-2 -1v-1h-1l-1 -1q-3 -3 -31.5 -30t-45.5 -46l-1 -3q-2 -2 -5.5 -6t-5.5 -6t-4.5 -6t-4.5 -6.5t-6.5 -6.5t-6.5 -6q-3 -4 -30 -34q-2 -3 -7.5 -9t-7.5 -9q-4 -5 -37 -53q-5 -7 -17.5 -26t-19.5 -29
q-8 -12 -23.5 -32.5t-21.5 -29.5q-2 -3 -4 -6.5t-4 -6.5t-6 -6.5t-4 -5.5q-4 -4 -6.5 -8t-4 -7t-2.5 -4q-1 -2 -3 -3t-2 -2q-16 -20 -23 -31l1 -1q0 -1 -2 -3t-4 -3l-2 -2q-15 -18 -42 -54.5t-29 -37.5q-3 -5 -11.5 -14.5t-10.5 -12.5l-1 -3q-2 -2 -4.5 -4t-3.5 -3
q-20 -21 -44 -41q-1 -1 -4 -3q0 -2 -1 -5t-1 -4q-4 -16 -6 -17l-3 -6t-14 -3q-1 0 -4 -4l-4 -4q-10 0 -17 -0.5t-16 0.5t-18 3z" />
    <glyph glyph-name="W" unicode="W" horiz-adv-x="955" 
d="M440 21q-2 1 -7 5.5t-6 5.5v2v1l-1 1l-1 -1v1q0 2 -1 3q-1 -1 -1.5 -0.5t-0.5 1.5v2q-4 8 -8 20t-6 20t-5 25t-4 22l-3 2q0 1 -0.5 5t-0.5 6q-1 1 -2 4t-1.5 5t-0.5 5.5v5.5q0 6 -1 14t-2 13v7v6q-1 7 -5 19.5t-4 14.5l-9 34q-2 8 -3.5 22t-2.5 17q0 2 -1 4t-1 4
q-1 2 -0.5 4.5t0.5 3.5l-8 -16q-1 -3 -8 -16.5t-12 -20.5q-4 -7 -12.5 -20t-12.5 -18q-1 -2 -1.5 -4.5t-1.5 -4.5l-4 -4l-3 -3q-2 -3 -3 -5.5t-1.5 -4.5t-1.5 -2q0 -1 -1.5 -2t-2.5 -1q-7 -11 -12 -19l1 -1h1l-5 -5q-11 -14 -36 -60q-1 -3 -5.5 -9.5t-5.5 -8.5l1 -3
q-1 -2 -2.5 -3t-2.5 -1q-7 -13 -22 -31q-1 -2 -5 -8t-6 -8t-5 -7t-6 -8t-5 -3q-1 0 -2 -2v-1v1h-2v-2l-1.5 -1.5t-2.5 -0.5l-1 1q-2 -1 -4 -2.5t-4 0.5q-1 0 -1.5 -0.5t-1.5 -0.5q-3 1 -13 5t-10 6q-11 -1 -21 1q-2 1 -7 5.5t-6 5.5v1v2h-1h-1v2v1h-1q-1 0 -0.5 1.5t0.5 2.5
q-8 21 -5 100l-2 3q0 2 1 6.5t1 7.5q0 2 -0.5 6t-0.5 6.5t1 7t2 7.5q1 8 2.5 18.5t2.5 15.5q0 3 1.5 9t1.5 9v47q0 6 -0.5 22.5t-0.5 24.5q0 9 1 26t1 26q0 2 -1 5t-1 5q0 3 1 6t1 4q0 3 -0.5 6.5t-1 5.5t-0.5 3t1 2.5t1 2.5q0 13 -1 24h-1h-1l2 7q1 25 -8 67q-1 3 -1.5 7
t-1 7t-1.5 5l-2 1q0 1 1 3v2q-2 10 -4 30q0 2 -1.5 6.5t-1.5 6.5t-1.5 8.5t-0.5 9.5l-1 1v0.5v1.5h1h-1v1.5t1 1.5t1 2l1 6v1v1q1 2 5.5 8t5.5 6t4 2q4 2 7 2l1 1l1 1q1 0 2.5 -0.5t2.5 -0.5q2 1 10.5 2.5t11 1t8.5 -2.5q15 -12 27 -33q4 -9 15 -51q0 -2 2.5 -11t3.5 -14
q3 -13 5 -37.5t3 -30.5q1 -1 0.5 -3.5t0.5 -3.5q0 -2 1 -4.5t1 -3.5q2 -28 1 -108q0 -6 -7 -54q0 -1 1 -4t2.5 -6t1.5 -4q1 -9 -1 -24q0 -4 -2 -6t-2 -7l1 -2q0 -2 -1 -17q1 1 1 3t1 3q7 14 26.5 45.5t20.5 33.5q5 7 10 13.5t10.5 13t8.5 9.5q1 2 1 8l1 5q2 8 9 18
q3 3 5.5 4t4.5 4l-1 3q2 3 6.5 9.5t7.5 11.5q1 2 3 3.5t2 0.5l3 -2q-2 2 -0.5 6.5t2 5l3.5 3.5l3 4q14 17 23 37q1 1 2.5 3.5t2.5 3.5v3t1 3.5t3.5 4l3.5 3.5q3 4 5 8q1 7 2 10q1 2 2.5 7.5t1.5 7.5v3q1 5 4 9.5t5 6.5l6 6l4 4q11 11 13 11q4 1 6 3q1 1 12 -5q1 0 5.5 1
t5.5 1q4 -3 12 -8t14.5 -9.5t12.5 -10.5q2 -3 3 -10t2 -8q0 -1 -1 -2t-1 -2h1v-1q1 0 -0.5 -1t-1.5 -1.5t1 -1.5h1l-1 -2l-1 -1q-4 -21 -25 -59v-3q0 -3 0.5 -10t1.5 -9q4 -46 4 -48v-2q0 -2 1 -3q0 -1 1 -3l1 -2q2 -12 6 -38.5t6 -34.5q0 -1 2 -37q0 -2 4 -6l3 -3
q3 -6 4 -16q1 -4 -0.5 -5.5t-1.5 -4.5l2 -2q1 -3 2 -9.5t2 -11.5v-3.5t-1 -1.5l-3 -1q3 -1 4.5 -3.5t1.5 -4v-4.5v-4q1 -19 7 -38v-3.5t1 -3.5q0 -1 1 -2.5t1 -3.5h1q3 7 6 12.5t8 16.5t8 17q8 15 24.5 44t20.5 38q1 2 3 4.5t3 4.5t2 5.5t2 4.5q20 37 75 119q7 11 14.5 20.5
t17 20.5t12.5 14q1 2 2.5 6t3 7.5t1.5 4.5q5 11 18 26q4 5 7 6t6 6l1 4q3 3 10.5 13t13.5 17l8 8q1 -2 3 -2q1 8 18 26q23 25 45 54q1 2 4.5 5.5t4.5 5.5q1 1 2.5 3.5t3.5 5t6.5 6.5t6.5 5q12 13 22 27q1 2 4 5.5t4 6.5q2 3 4 7.5t3 5.5q10 14 42 40q21 17 24 19q6 2 9 5
q3 2 9 -5q1 0 8 3l6 3q0 -2 8 -13.5t9 -20.5q1 -5 -3.5 -14t-5 -9.5l-2.5 -2.5l-2 -2v-1h1q0 -1 -2 -3t-3 -2q0 -1 1 -1q0 -1 -2 -3l-2 -2q-11 -18 -27 -38.5t-41.5 -51t-34.5 -41.5l-1 -4q-2 -3 -6 -8t-6 -8q-2 -2 -5 -7t-5 -7.5t-7 -7.5l-7 -7q-8 -9 -18.5 -22t-12.5 -15
q-2 -3 -7.5 -9t-7.5 -10q-6 -7 -34 -52q-6 -8 -16.5 -26t-16.5 -26q-5 -8 -17.5 -27.5t-19.5 -29.5q-2 -3 -3 -6.5t-3 -6.5q-1 -3 -4 -6l-4 -4q-3 -4 -4.5 -8t-3 -7t-1.5 -4q-1 -1 -2.5 -2t-2.5 -2q-9 -16 -17 -29l1 -1h1q0 -2 -2 -4l-3 -3l-2 -1q-18 -29 -47 -94
q-2 -3 -7.5 -14.5t-6.5 -14.5v-4q-1 -2 -3 -4l-3 -3q-8 -18 -27 -54q-2 -3 -6.5 -13.5t-7 -14.5t-6.5 -12.5t-7 -15t-6 -7.5l-1 -2q-1 -3 -1 -4h-1l-1 1v-3q-1 -2 -1.5 -2.5t-2.5 -1.5h-2q-2 -2 -4 -4.5t-5 -2.5q-1 0 -2 -1l-1 -1q-3 -1 -14 1.5t-11 4.5l-5 5q-5 5 -5 9
l-2 1h-2q0 1 -0.5 4t-1.5 4q-1 4 -6 12t-7.5 14t-1.5 11q1 4 2 7q-2 1 -4 1z" />
    <glyph glyph-name="X" unicode="X" horiz-adv-x="628" 
d="M680 611q1 -5 -5 -13.5t-6 -9.5q-1 -1 -3 -2.5t-2 -2.5l1 -1q-1 0 -3 -2l-2 -2v0l1 -1q-1 -1 -3 -2.5t-2 -2.5q-12 -16 -30 -36t-41 -45t-35 -38l-1 -4q-2 -3 -6.5 -7t-6.5 -8q-2 -2 -5 -6.5t-5 -6.5t-7 -6.5t-7 -6.5q-7 -8 -17 -18.5t-14 -14.5q-3 -3 -8.5 -8t-8.5 -8
q-7 -9 -19.5 -26.5t-15.5 -21.5q-34 -45 -36 -46q-4 -6 -10 -13q-1 -4 1 -8l3 -2q1 -5 5 -14.5t7 -16.5l2 -8q-2 0 -3 -1q7 -4 12 -23q8 -25 20 -46q0 -2 1 -4.5t2 -4.5l2 -2t2 -3t1.5 -5.5t1.5 -4.5q3 -10 8 -17q1 0 2 -2t2 -3t4 -2t3 -2q6 -7 4 -19q-1 -4 -3 -6t-3 -2
q-2 -1 -10 -6q-1 -1 -3 -2h-2q-1 -1 -2 -1q-22 -18 -30 -21q-1 -1 -3.5 -1h-4.5h-4q-1 0 -1 1h-1h-1q0 1 -1 1h-1l-1 1q-3 2 -5.5 5.5t-5 6.5t-5.5 8.5t-5 9t-5.5 10.5t-5.5 10.5t-6 12.5t-5 12l-3 2q-1 2 -2.5 6.5t-2.5 6.5t-3.5 5.5t-3.5 6t-2.5 8t-2.5 7.5q-3 8 -7 19
t-6 17q-1 0 -2 -1q-4 -5 -12.5 -13t-10.5 -10h1l1 -1q-1 -1 -3 -2.5t-4 -1.5l-2 -1q-14 -12 -41 -36t-35 -30q-4 -4 -13.5 -10.5t-11.5 -8.5l-2 -3q-2 -1 -5 -2t-4 -1q-24 -15 -52 -28q-26 -12 -28 -13q-36 -12 -38 -12l-2 -1l-3 -1q-1 0 -1 1v0l-2 -1q-3 -1 -3.5 -1h-2.5
l-1 1q-10 0 -10.5 0.5t-1.5 0.5l-1 -1q-2 2 -6 7.5t-2 7.5q1 1 1 4q1 5 4 7q0 1 -0.5 1.5t0 1t2 2.5t2.5 2q1 2 6 13.5t9 14.5q6 4 20.5 14t21.5 16q5 3 23 16t28 21l22 22q45 46 54 56q1 2 3 4l3 3q1 2 2.5 4.5t2.5 3.5q12 15 48 59q-6 12 -10 22q-5 11 -13 32t-11 28
q-1 2 -3 5t-3 6t-2 7t-1 5q-2 4 -3.5 7.5t-3 6t-1.5 3.5q-1 2 -1 3.5v2.5q-7 18 -11 29l-1 -1l-2 9q-5 16 -31 79q-2 3 -4.5 11t-3.5 10l-2 1q-1 2 -1 4v2q-5 16 -7 33l-1 6q-2 5 -1 7q0 1 -0.5 5t0 6t1.5 3v1.5v1t0.5 0.5h1t0 1t0 1.5t1.5 1t2 0.5q1 1 2 2.5t4 1.5q1 0 1 1
l1 1q2 0 10.5 -2t9.5 -2q1 -1 5 -1h7q0 1 1.5 0.5t2 0t1.5 1t2 0.5q22 4 23 4q1 -2 7 -16q2 -5 5 -17.5t5 -20.5q2 -4 5.5 -11.5t4.5 -10.5q2 -5 11.5 -30.5t14.5 -34.5q1 -2 1.5 -4.5t1.5 -4.5t2.5 -4t2.5 -3q8 -19 26 -62.5t22 -51.5l6 6q1 2 2.5 5.5t2.5 7t2 4.5
q5 10 17 23q4 4 7.5 5t6.5 5l1 4q3 3 10.5 11.5t13.5 15.5q9 9 9 6q0 -2 2 -2q1 9 18 24q25 22 48 49q1 2 4.5 5t4.5 5q2 1 3 3.5t3.5 5t7.5 5.5t6 5q13 11 25 24q2 2 4.5 5.5t4.5 5.5q2 3 4.5 7.5t3.5 5.5q13 14 49 34q24 14 28 15q7 2 11 3q3 2 7 -4q1 -2 2 -3l8 2l7 1
q0 -1 6.5 -15t6.5 -23z" />
    <glyph glyph-name="Y" unicode="Y" horiz-adv-x="574" 
d="M177 23q-4 4 -4.5 16t-0.5 13t2 4l1 3l-1 1h-1l1 3q1 3 1 4h-1h-1q0 1 1 4l2 3q7 53 51 151v4q1 3 4 7.5t4 7.5q1 2 3 6.5t3 7t5 7t5 6.5q3 4 7 10q-11 16 -24 65l-2 1q0 2 -0.5 4.5t-0.5 4.5q-1 1 -2 3l-1.5 3t0 4t0.5 4q0 4 -0.5 9.5t-0.5 9.5q0 1 0.5 4t-0.5 5l-7 20
q-1 3 -3.5 9.5t-4 10.5t-3 11t-2.5 11q0 1 -1 2t-1.5 2t-0.5 2l1 2q-1 3 -3 5q0 1 -1 1q0 1 1 2l1 1q-2 6 -4 11l-1 -1h-1l1 4q-2 11 -17 35q-1 1 -3 5.5t-3 5.5l-2 1q-1 1 -1 2v2q-2 2 -14 26q-1 2 -4.5 7t-4.5 7t-4 6.5t-5.5 8t-2.5 5.5l-1 2l-1 1l1 1l-2 1q-1 1 -1 1.5
t1 1.5v2l-2 7q1 1 0 2v1q1 2 5.5 8.5t5.5 5.5q1 0 5 2t7 1l1 1q0 1 1 1l2 -1h3q3 1 10 2t10 1.5t8 -1.5q11 -7 29 -24q4 -5 8.5 -10.5t9.5 -12t8 -10.5q1 -2 5.5 -6.5t6.5 -7.5q5 -7 13 -20t11 -17l1 -2q1 -1 1 -2l2 -2t2 -1q10 -17 23 -55q1 -3 3 -28l1 -1q1 -1 3 -2t2 -2
q4 -4 5 -12q0 -2 -2 -3.5t-1 -3.5l2 -1q0 -2 1 -6.5t1 -7.5q1 -1 0.5 -3t-1.5 -1l-3 -1q3 -1 4.5 -2.5t1.5 -2.5t-0.5 -3t-0.5 -3v-10q5 6 9 11q1 1 32 36q2 2 3 4.5t3 3.5q1 2 4 4t3 3q3 2 5 4.5t3 4.5l1 2q1 1 2.5 1.5t2.5 1.5q10 11 16 17v1h-1l7 5q13 12 54 59l10 10
t8 9l1 3q1 2 3.5 3t2.5 2l38 38q2 2 9.5 10t10.5 11t9.5 10t11.5 12t8 6l2 2q1 2 2 3v0l1 -1l1 2l2.5 2.5t2 0.5h2.5q2 1 4.5 3t4.5 2q1 0 2 1h1q3 1 10 -3t6 -6q0 -1 1 -6q2 -5 0 -9h2l1 -1q0 -1 -1 -4t-2 -3v-13t-0.5 -12.5t-3.5 -10.5q-10 -13 -37 -45
q-9 -10 -24.5 -25.5t-21.5 -20.5q-3 -4 -9.5 -11.5t-9.5 -10.5q-6 -7 -16 -18t-17.5 -19t-11.5 -13l-3 -3t-2 -3q-1 -1 -2.5 -3t-1.5 -3q-5 -7 -27.5 -34t-30.5 -38q-6 -9 -16.5 -21t-11.5 -14q-1 -1 -1.5 -3.5l-1 -5t-0.5 -3.5q-3 -7 -10 -18q-2 -3 -4 -4t-4 -4v-3
q-2 -3 -6 -10.5t-7 -11.5l-5 -6l-2 2q1 -7 -8 -21q-13 -22 -21 -47q-1 -1 -2.5 -4.5t-2.5 -5.5v-3.5t-1 -4.5t-3.5 -6t-3.5 -6q-6 -13 -9 -28q0 -2 -1 -5.5t-1 -6.5t0.5 -7.5t0.5 -6.5q-1 -7 -4 -15.5t-5.5 -14t-6 -12.5l-4.5 -9q-12 -26 -14 -28q-4 -5 -6 -9q-2 -3 -14 0
q-1 1 -2 0t-2 -3t-1.5 -2.5t-2 -2.5t-2.5 -3l-1 -1q-6 3 -15 7t-15.5 8t-12.5 11z" />
    <glyph glyph-name="Z" unicode="Z" horiz-adv-x="605" 
d="M51 102q-2 5 -2 8.5t1 9.5t1 8q0 1 2 2.5t2 2.5l-1 1h-1q0 1 2 2.5t2 2.5l-1 1v0q0 1 2 3l2 2q9 16 24.5 35t36 42t29.5 34v3q2 3 6 6.5t5 5.5q1 1 4 4.5t5 5.5t6.5 5t6.5 4q5 4 14.5 11t16.5 12q2 2 7.5 5.5t8.5 5.5q7 5 20.5 17t17.5 16l40 34q8 6 23.5 17.5t23.5 17.5
q2 2 4 4.5t4 4.5t5.5 3.5t4.5 2.5q3 2 6 5t4.5 5t2.5 2q1 1 2.5 1.5t2.5 1.5q12 9 22 18h-1v2l8 4q29 23 63 64q2 3 6 7.5t7 8t4 5.5l1 4q1 1 3 2.5t3 2.5q7 10 17.5 22.5t12.5 15.5q1 2 4 6q-9 -2 -14 -2q-2 -1 -6.5 -1t-6.5 -1q-7 -1 -19.5 -4.5t-16.5 -4.5q-33 -8 -38 -9
q-1 0 -44 -7q-2 0 -4.5 -1t-4.5 -1.5t-5 -0.5l-4 1q-4 -1 -6.5 -1.5t-5.5 -1.5h-2q-1 0 -2.5 0.5t-2.5 0.5q-4 -1 -11.5 -1.5t-11.5 -1.5v-1l-7 1q-15 -1 -44 -3.5t-33 -2.5h-13.5h-10.5l-3 -1q-2 0 -4 0.5t-3 0.5q-21 1 -46 5l-10 1q-10 1 -14 2l-30 8q0 1 -2 1h-3v1v0.5
t-2 0.5t-2.5 0.5t-0.5 1.5l-1 1q-2 2 -4 3t-2 3q0 1 -1 2h-1q-1 1 -0.5 9.5t3.5 8.5l3 4q3 3 6 4v2q0 1 0.5 1t2.5 1h2q3 2 8 6t8.5 6.5t6.5 1.5q8 0 22 -2t19.5 -2.5t23 -3t27.5 -2.5q2 -1 25 0q48 2 60 3q2 0 4 0.5t3 0.5q2 0 4 0.5t3 1.5q8 1 41 5.5t46 7.5q7 1 14.5 2
t15.5 1.5t11 0.5q1 0 3.5 1.5t4.5 3.5l2 1q6 2 17 4q3 1 5 0t5 0l2 1q3 1 9.5 2.5t10.5 2.5h6v-3q3 5 16 6q17 2 33 7q1 0 3 0.5t3 0.5q1 1 2 1.5t2.5 1t4 0.5h3.5q7 1 14 4q1 0 2.5 1t2.5 1l2.5 2.5l2.5 2.5q6 3 21 1q9 -1 10 -2q2 -2 3 -2t2 -8l2 -2l3 -2q0 -2 0.5 -14.5
t-0.5 -15.5q0 -1 -2 -4.5t-3 -4.5h-1h-1l1 -1h-1h-1v-1q0 -1 -1 -1h-1q-2 -1 -5 -2l2 -6q1 -3 6.5 -12.5t8 -16t0.5 -10.5q-9 -20 -34 -51q-7 -9 -15.5 -17t-20 -18.5t-16.5 -15.5l-12 -12t-12 -13q-12 -10 -34.5 -29t-29.5 -25q-1 -1 -3.5 -3t-3.5 -3q-2 -1 -3.5 -3.5
t-2.5 -3.5q-17 -14 -53.5 -42.5t-40.5 -32.5q-12 -9 -30 -21l-17 -11q-1 -1 -3 -4t-3.5 -5.5t-1.5 -3.5q-5 -7 -17 -17q-4 -2 -6.5 -2.5t-5.5 -3.5l-1 -3q-4 -3 -10 -9l-10 -10q-6 -6 -6 -4q-1 2 -2 3q0 -3 -1.5 -6.5t-3 -5l-4.5 -4.5l-3 -2q-3 -3 -31 -36q-1 -2 -4 -4.5
t-4 -4.5q-1 -1 -2 -3t-3 -4t-6 -4.5t-5 -4.5q-11 -10 -19 -22q0 -1 -2.5 -4t-3.5 -5q-1 -3 -2 -8q12 1 31.5 1.5t22.5 0.5h3.5h3.5q2 0 4 0.5t3 0.5q26 -1 92 -9l42 -9q1 0 3.5 0.5t5.5 0.5l2 1q6 1 18 -1q3 0 5 -1.5t5 -1.5l2 1q3 0 6 -0.5t7.5 -0.5h8.5l5 -1v-3q3 3 18 4
q19 1 36 8q0 1 2.5 1.5t4.5 1.5l2 2t2.5 2t4.5 1.5t4 1.5q9 5 15 13l5 6q1 2 2 5.5t1 4.5q3 6 7.5 10.5t10.5 9.5t6 6q14 13 16 14q4 1 7 4q2 1 12 -7l6 2l6 2q4 -4 11.5 -11t13 -13.5t8.5 -14.5q2 -4 -2 -14l-4 -11l-2 -1q-2 -2 -2 -3v-1h1q0 -1 -3 -2l-2 -2v0q1 -1 1 -2
l-2 -2l-2 -1q-36 -38 -116 -64l-2 -2q-3 -1 -7.5 -1.5t-6.5 -1.5q-2 0 -6 -1.5t-6 -1.5q-3 -1 -8.5 -1h-6.5q-22 -2 -33 -2q-3 0 -8 0.5t-8 0.5q-6 0 -20 -0.5t-22 -0.5q-29 0 -41 1q-7 1 -14.5 2t-16.5 2.5t-14 2.5h-4.5h-4.5t-5 2l-3 1q-3 0 -6 0.5t-4.5 0t-3.5 -0.5
q-1 1 -2 1.5t-2 0.5q-11 2 -21 3v-1l-6 2q-29 5 -66 2q-17 -2 -19 -2l-2 -2h-3.5h-2.5q-27 -7 -36 -10q-3 -1 -10 -4.5l-9 -4.5q-3 -1 -8.5 -4.5t-10 -6t-6.5 -2.5l-2 -1l-1 -2h-1v1l-2 -1q-1 -2 -1.5 -2h-2.5l-1 1q-2 -1 -5 -2t-3 1h-2l-1 -1q-3 1 -9.5 7t-5.5 8q0 1 -1 6
q-2 5 0 8q1 1 0 2l-2 1q0 1 1.5 3t1.5 3q1 2 2.5 10t3.5 13t5 7q12 7 28 13q-2 2 -3 4z" />
    <glyph glyph-name="bracketleft" unicode="[" horiz-adv-x="430" 
d="M236 -165q-3 -3 -7.5 -5t-10 -3.5t-6.5 -1.5t-4 -0.5t-4 -1.5l-4 -1h-4v-1q-1 0 -8 -1q-96 -7 -202 12l-4 3q-10 9 -16 21q-6 11 -8 21t-1 27q2 34 8 68q1 8 4.5 21.5t3.5 14.5q17 74 23 96q14 54 25 86q5 16 13 38t10 25v4t1 3q0 2 1 3q2 10 3 13q1 2 2 3.5t1 2.5
q5 12 13 32v1h-1l6 10q12 25 58 133q2 6 6.5 16t8 17.5t4.5 10.5l1 5q1 4 3.5 7.5t2.5 5.5q6 13 12 28t10.5 25.5t9.5 22.5q1 3 10 31q0 1 -1 3.5t-1 3.5l-2 2q-2 1 -2 2q-4 26 -4 29q0 2 2 5l3 4q0 1 1 1h1v1h1h1v1q0 1 1 1h1q13 7 58 11l1 1h3.5h4.5q1 0 3 0.5t3.5 0.5
t4 -0.5t3.5 -0.5q4 -1 9.5 -1.5t9.5 -0.5q1 0 4 -1t5 -1q4 0 13 0.5t11 0.5h24q5 0 14 -1t12 -1q1 0 2.5 0.5t2.5 0t2.5 -1t2.5 -0.5q2 -1 6 0h1h1l1 -1q7 -1 12 -2v1l3 -1q7 -2 32 -3q1 0 4 -1t4 0l1 1l1 -1l1 -1q6 -1 12 -4l1 -1q2 -1 3 -1q3 -4 3 -5v-1q0 -1 1 -2v-1v-3
v-1q0 -1 1.5 -4.5t2.5 -6.5t0 -4q0 -1 0.5 -2t0.5 -2v-4v-1q1 -1 0.5 -1.5t-0.5 -1.5v-1q-3 -16 -4 -17q-4 -2 -13 -3q-3 -1 -9 0.5t-9 1.5q-1 0 -4.5 -0.5t-4.5 0.5q-4 0 -14 1t-14 1q0 -1 -2 -1l-1 1q-1 0 -2 -0.5t-2 -0.5q-8 0 -26.5 1.5t-21.5 2.5l-25 5l-3 -1l-3 -2
q-5 -1 -12 0q-2 0 -3 1.5t-3 1.5l-1 -1q-2 0 -6.5 0.5t-7.5 0.5l-4 2v2q-2 -3 -11 -1q-10 2 -19 1q-5 -20 -18 -55q-3 -8 -42 -97q-4 -9 -10.5 -25.5t-10.5 -24.5q-42 -98 -47 -112q-1 -1 -2.5 -5t-2.5 -5q0 -3 -0.5 -4.5t-1 -3.5t-1.5 -3q-1 -7 -31 -100q-6 -18 -16 -46
t-14 -40q-1 -2 -1.5 -6.5t-1 -8.5t-1 -7t-0.5 -4q-1 -9 -10 -46q-2 -8 -4 -11.5t-4 -12.5v-5q-3 -18 -8 -53l-2 -12l-3 3l1 -3q1 -3 2 -34q1 -36 0 -38q-1 -5 -0.5 -7t3 -4.5t13.5 -3.5q20 -2 39 -4q1 0 6.5 -0.5t9.5 -0.5q5 0 10.5 0.5t7.5 0.5q11 -1 26.5 -1.5t26 -1
t16.5 0.5q6 0 30 4q4 0 9 2q2 0 3 -3l5 2l5 1q-1 -16 -2 -18z" />
    <glyph glyph-name="backslash" unicode="\" horiz-adv-x="350" 
d="M364 -92q-3 -1 -8.5 1.5t-5.5 3.5q-1 0 -1.5 1t-0.5 1.5t-1 -0.5q-1 0 -1 1l-1 2h-1q0 -1 -0.5 -1t-1 1.5t-0.5 2.5q-18 17 -76 108l-3 2q-2 3 -5 8.5t-5 9.5q-2 2 -5.5 6.5t-4.5 7.5q-2 3 -5.5 9.5t-4.5 9.5q-5 9 -13 23t-13 23q-2 3 -6 11.5t-6 12.5q-6 11 -19.5 32
t-18.5 29q-34 55 -38 62q-1 1 -39 72q-1 4 -4 7.5t-4 6.5q-2 3 -4 8t-3 7q-2 5 -4.5 9t-4.5 7t-3 4q-1 2 -1 4.5t-1 3.5q-3 6 -8.5 17.5t-8.5 17.5l-1 -1h-1l-3 11q-10 22 -28 59.5t-21 43.5q-2 6 -6 17t-5 13l-3 3q-1 2 -1 5t-1 4q-8 26 -13 51q-4 21 -4 24q0 27 1 29v2
v2.5t1 0t1 0v2v2t2 1.5h1q1 1 1.5 3t3.5 2v1l1 1q2 1 10 0.5t8 -1.5q1 0 5 -2q4 -1 5 -3h1h1.5t1.5 -1l2 -2q2 -1 7.5 -3t9 -4t3.5 -4q2 -5 5 -16.5t4 -16.5q2 -4 7 -24.5t9 -32.5q1 -2 13 -30q30 -67 39 -85q0 -1 1.5 -4.5t2.5 -5.5q2 -2 4 -5t2 -4q9 -16 36 -67t38 -72
q7 -13 13.5 -25.5t13 -26t9.5 -19.5q1 -2 4 -6t6 -7l3 -3q8 -11 19 -31q3 -5 3.5 -8.5t3.5 -9.5l3 -2q3 -6 10 -17t11 -20l5 -10q-1 0 -3 -1q8 -5 19 -28q17 -31 35 -58q1 -2 3.5 -6t3.5 -5q1 -2 2.5 -3.5t3 -4t3.5 -7t3 -6.5q7 -13 16 -24q1 -1 3 -4t4 -4q2 -2 5 -4t3 -3
q9 -9 18 -33q5 -14 5 -16v-5t-7 -6l-1 -4q0 -3 -0.5 -3.5t-11 -6.5t-18.5 -7z" />
    <glyph glyph-name="bracketright" unicode="]" horiz-adv-x="395" 
d="M-83 -94q1 2 4 5l4 4l1 -1v1l1 1l1 -1v1v1v-1h1q9 3 40 -7l1 1q1 0 2.5 -0.5t2.5 -1.5h3h2q1 0 3 -2l2 -1q3 -2 7.5 -4t5.5 -3q1 0 3 -1.5t4 -2.5l19 -3q2 0 8.5 -1t10 -1.5t10.5 -2.5t10 -3q1 0 2.5 0.5t2.5 0t2 -1.5t2 -1h5h1q1 0 1 -0.5t1 -0.5q6 -2 10 -2v1l3 -2
q11 -2 30 0h3h3.5h2.5l1 2l1 -1h1l1 2q3 18 37 130v4q1 3 3 9.5t3 9.5t2.5 8.5t2.5 9.5q1 3 3.5 9.5t3.5 10.5q4 11 9.5 26.5t7.5 22.5q2 4 5 12.5t4 12.5q4 13 11 39.5t8 29.5q1 5 8 30.5t11 39.5t12.5 40.5t11.5 35.5q1 4 1.5 8t1.5 8q1 3 3.5 8t2.5 6q2 5 3 10t2 8.5
t1 4.5q0 2 1.5 3.5t1.5 3.5q8 22 12 36h-1l4 10q5 12 33 105q2 4 6 14.5t4 13.5v3q1 3 2.5 5t1.5 3q6 17 12 28h-6l-1 -2q-1 0 -3 0.5t-4 -0.5h-2q-2 -1 -3 -1t-3.5 1t-3.5 1q-3 0 -7.5 0.5t-6.5 0.5q-1 0 -3.5 1t-3.5 1q-4 0 -10.5 -1t-7.5 -1t-7 -1t-9 -1t-8.5 0.5
t-7.5 0.5q-1 0 -1.5 -0.5t-1.5 -0.5h-2l-1 1q-2 0 -4 -1h-2v1h-7v-1l-2 1q-7 1 -19 -3h-3t-2 -1v-1h-1l-1 1q-3 -1 -9 -1q-1 0 -2.5 -1t-2.5 -1h-3q-3 -1 -3 0h-1v0h-1q-1 0 -1 1l-1 1q-3 3 -4 3l-1 1v0q-11 13 -10 15q0 1 -2 4.5t-2 5.5v1q-1 1 -1 1.5v1.5v1q-3 19 -2 19
q3 3 15 6q4 1 10.5 1.5t8.5 0.5q2 1 4.5 1.5t4.5 1.5q3 0 11 1.5t11 1.5q0 1 1 1h1.5t1 0.5t1.5 0.5q5 1 34 3q2 0 18 -2q1 -1 3 1l2 2q3 2 9 1q1 0 2 -1.5t3 -1.5l1 2q1 -1 4.5 -1h6.5t3 -1v-3q2 4 9 2q10 -2 21 0q1 0 2.5 -0.5t2 0t1.5 1t2 0.5t3 -1t3 -1q6 0 11 1
q1 1 2.5 1t2.5 1q1 0 2.5 1.5t2.5 1.5q5 2 21 -2q11 -2 12 -3q2 -2 4 -2q1 -1 1 -8q0 -1 3 -3h1q2 -1 2 -2v-8.5v-8.5q2 -4 2 -6q-1 -6 -11 -35q-2 -8 -9.5 -26t-10.5 -28q-2 -6 -5 -17t-4 -15q-3 -10 -9.5 -29t-11 -34t-6.5 -24q-1 -2 -2 -5.5t-2 -5.5q0 -2 -0.5 -5.5
t-1.5 -5.5q-7 -25 -24 -82.5t-20 -66.5q-1 -5 -26 -76q0 -2 -1 -7t-1 -9v-4q-2 -14 -9 -35q-3 -6 -5 -9t-4 -9v-4q-1 -6 -5 -18.5t-7 -22.5l-5 -10q-1 3 -2 3t-1 -2q2 -9 -7 -33q-13 -33 -22 -66q-1 -2 -2.5 -6.5t-1.5 -6.5q-1 -1 -1 -4t-1 -5.5t-3.5 -7.5l-3.5 -7
q-5 -14 -8 -28q-1 -2 -2 -5.5t-1 -5.5v-7v-5q-4 -15 -18 -37q-1 -2 -3 -5l1 -1v-2v-2q0 -19 -2 -20q-5 -3 -22 -8q-6 -1 -16 -2t-12 -1t-6.5 -1t-6.5 -2q-6 0 -18 -1t-16 -1h-1h-2q-1 0 -2 -1l-2 -1q-14 -1 -50 2q-4 0 -24 7q-1 0 -3.5 -1.5t-3.5 -1.5q-5 -1 -11 0
q-2 1 -2.5 2.5t-2.5 2.5l-2 -2q-1 1 -5 1.5t-7 1.5q-4 2 -3 3l1 2q-4 -3 -10 0q-10 5 -21 6l-2 1h-1.5t-1.5 -0.5t-2 0t-2 1.5l-2 2q-4 2 -9 1h-2h-2l-2.5 -2.5t-2.5 -1.5q-4 -1 -11 8q-4 5 -4 6v4q-1 1 3 11v3v4q2 4 4.5 10.5t5.5 12.5t6 13z" />
    <glyph glyph-name="asciicircum" unicode="^" horiz-adv-x="443" 
d="M481 281q-2 -1 -7.5 -1t-6.5 -1l-1 1l-1 1l-1 -1h-1q-1 1 -2 1v-1h-1l-2 1q-23 5 -64 32h-2q-5 3 -7 4q-1 0 -3.5 1t-3.5 1q0 1 -4 6q-7 10 -11 15q0 2 -1.5 5t-1.5 4q-3 4 -8.5 11t-7.5 11q-13 20 -16 25q-3 6 -8 18t-6 14q0 2 -1.5 3.5l-2.5 2.5q-1 2 -1 4v3q-1 3 -2 5
t-2 3l-2 2q0 1 0.5 2t0.5 2q-4 11 -7 16h-1v5q-4 14 -18 47q-1 -1 -1.5 -2t-2 -3t-2.5 -3t-3.5 -2.5t-3.5 -2.5l-9 -9t-7 -6q-1 -2 -4 -4.5t-4 -3.5q-2 -2 -18 -24q-3 -4 -9 -12.5t-9.5 -13l-10.5 -13.5t-10 -13q-1 -1 -1.5 -3t-1.5 -3q-1 -2 -3 -3t-2 -2q-2 -2 -3 -3.5
t-1 -2.5l-1 -2q0 -1 -1 -1.5t-2 -0.5q-5 -7 -9 -13l1 -1v0l-3 -3q-11 -13 -21 -37q-1 -1 -2 -3l-2 -4l-1 -2l1 -2q0 -1 -1 -1l-1 -1q-2 -5 -6 -12v-2q-1 2 -3 2q-1 0 -0.5 0.5t0 1t-0.5 -0.5h-1q-1 0 -1 1t-2 1l-2 -1q-1 1 -6 0q-1 -1 -2 -1t-5.5 -3t-9 -5t-5.5 -2
t-2.5 -0.5t-2.5 -1.5q-5 -1 -8 -1l-1 -1h-2q-1 0 -2.5 0.5t-2.5 1.5q-25 7 -25 12q-1 10 8 26q3 6 9.5 14t8.5 11q2 2 4 6.5t4 6.5q3 5 12 17t11 16q1 1 2 3l1 1q1 1 1.5 2.5t0.5 2.5q9 12 43 55q3 3 26 25q1 1 1.5 3t1.5 4l1 2q3 6 10 12q2 2 4 2.5t4 2.5v2l6 6t7 8
q5 4 5 2l2 -1q0 5 9 11q12 10 23 21q0 1 1.5 2t2.5 1.5t1.5 1.5t1.5 2t3 2t3 1q3 3 6 5q0 8 2 9v1v1v0q1 0 1.5 0.5l0.5 0.5l-1 1l1 1q2 0 2 1q5 3 5.5 3h0.5l1 1q17 6 22 5h5q5 1 7 1h1h2.5h1.5h2q2 0 8.5 1t10.5 0.5t5 -1.5q2 -2 7 -16q2 -4 3.5 -13.5t3.5 -14.5
q1 -3 3 -8t3 -7q1 -3 7 -19t9 -22q0 -1 0.5 -2.5t0.5 -2.5l2 -2l2 -2q5 -10 14 -32.5t12 -28.5q1 -1 9 -29l2 -1q1 -1 2.5 -1.5t2.5 -1.5q3 -3 6 -9q0 -2 -1 -3.5t0 -3.5h2q0 -2 1.5 -5l2.5 -5q1 -3 0 -3l-2 -1l-1 -1q5 1 5.5 -1t-0.5 -3q-2 -8 2 -12q1 0 2 -1.5t1.5 -1.5
t1.5 -0.5t1.5 -1t1.5 -2.5t2 -3q4 -4 9 -7q1 0 2 -1t2 -1h3h3q3 -2 6 -4.5t5.5 -6.5t3.5 -4l8 -9q1 -3 3 -4q1 -1 -2 -8l1 -3l2 -3q-2 -2 -4.5 -6.5t-5 -8t-5.5 -6.5z" />
    <glyph glyph-name="underscore" unicode="_" horiz-adv-x="421" 
d="M469 -111q-1 -2 -5.5 -5t-4.5 -4h-2h-1v-1h-2h-1v-1h-1h-2q-15 -5 -76 -6l-1 -2q-2 0 -5 0.5t-5 0.5q-1 -1 -3.5 -1.5t-4.5 -0.5t-5 1t-5 1q-5 0 -12 0.5t-11 0.5q-2 0 -6 1t-6 1q-5 0 -16.5 -1.5t-13.5 -1.5t-13 -1t-17 -1q-7 0 -18.5 0.5t-15.5 0.5q-2 0 -3.5 -0.5
t-3.5 -0.5t-4 0.5t-3 0.5q-2 0 -4 -0.5t-3.5 -0.5h-2.5t-1.5 0.5t-1.5 0.5h-17v-1l-4 1q-11 1 -52 0q-3 0 -8.5 0.5t-7.5 0.5l-2 -2q-1 0 -2 1l-2 1q-12 0 -29 3q-1 0 -6.5 0.5t-7.5 1t-6.5 1t-7.5 1.5t-4 2h-2h-1v1q0 1 -1 0.5t-1.5 0l-1.5 1.5v1l-4 4q0 1 -1 1
q-1 3 -1.5 8.5t0.5 7.5q1 0 2 4t3 5v1v1l1 1l2 1q1 2 3.5 6.5t5 7.5t4.5 3q5 1 27 1q6 0 17.5 -1t16.5 -1q4 0 9.5 0.5t8.5 0.5q4 0 23 -0.5t20 0.5h2.5h2.5t2.5 0.5t2.5 0.5q12 1 37.5 1h29.5q2 0 33 -3q1 0 3 1t3.5 2t2.5 1q5 2 15 1q3 0 4 -1.5t4 -0.5l2 1h8h10l5 -2v-2
q4 3 15 2q16 -2 33 0h3h3t2 0.5t2.5 0.5t4 -0.5t4.5 -0.5q7 -1 15 1h3t3 1q2 0 4 1.5t3 1.5q7 2 25 -2q11 -3 13 -4q2 -2 4 -3q1 0 1 -8l3 -2l3 -3q-1 -1 -2 -12t-3 -18z" />
    <glyph glyph-name="grave" unicode="`" horiz-adv-x="237" 
d="M263 409q-2 -1 -6 -1h-5h-2v1l-1 -1l-1 1v1l-1 -1l-1 1q-13 5 -42 33h-1q-1 0 -2.5 2t-2.5 2q0 1 -1.5 2t-2.5 1.5t-2 3.5l-1 2q-2 3 -4.5 6.5t-3.5 6.5q-1 1 -2 3t-2 3q-2 3 -7 8l-6 6q-13 14 -13 15q-3 3 -7 9.5t-5 7.5l-2 2l-1.5 1.5t-0.5 2t-1 2.5q-1 2 -3 4
q-1 0 -1 1v1v1q-3 6 -5 9h-1l-1 3q-1 5 -17 29q-1 2 -2.5 5.5t-1.5 4.5h-2q-1 1 0 3v1q-4 7 -6 19q0 1 -1.5 5t-1.5 5.5t-0.5 5t-1 5t0.5 4.5v1q-1 0 0 1h1l-1 1v1l1 1l1 1l3 4l1 1v1l9 4.5t9 3.5q0 -1 4 0t6 1q0 -1 2 0l1 1l1 -1h2q3 0 8.5 0.5t9 0.5t4.5 -2q2 -2 9 -16
q2 -3 4 -10t3 -10q1 -2 3 -5t3 -4q1 -3 3.5 -8l4.5 -9t4 -6q0 -1 0.5 -1.5t0.5 -1.5h1l2 -2q3 -5 10.5 -17t9.5 -15l7 -18q1 0 3 -1q3 0 3 -1q3 -1 6 -6q1 -2 0 -3.5t0 -2.5h2q1 -1 2.5 -3.5t3.5 -4.5q0 -2 0.5 -2.5t-0.5 -1.5l-2 -1q5 1 7 -4v-2q4 -8 11 -15q1 0 1.5 -1
t1 -1.5t1.5 -1t1.5 -1t1 -2t0.5 -2.5q3 -4 7 -6l1.5 -1.5t1.5 -1t3 -0.5h2q4 -2 9 -14q3 -7 3 -8q0 -3 1 -4q0 -1 -5 -7l-1 -3l1 -1q0 -1 -1 -2q-2 -2 -6 -5.5t-7.5 -7t-7.5 -5.5z" />
    <glyph glyph-name="a" unicode="a" horiz-adv-x="401" 
d="M348 297q-9 -1 -10 1t-6 4q-6 3 -9 5l-1 -1q-2 0 -2.5 0.5t-2 1.5t-2.5 1q-3 0 -5.5 -0.5t-3 -1t-1.5 0.5q-1 9 -12 12.5t-23 -0.5q-29 -9 -68 -35q-13 -9 -28 -25q-35 -36 -51 -64q0 -1 -1.5 -3.5t-2.5 -3.5q-1 -2 -1 -5l-1 -3q-21 -58 -19 -83q1 -11 -2 -21q1 0 5 -1
q-1 0 -1 -1q-1 -1 -1 -2q-4 -2 -7 -5q-4 -5 -5 -11v-3v-2l-1 -2q2 1 4.5 -2t3.5 -4q15 -4 36 5q7 4 9 5t3.5 2l4.5 3q1 1 5.5 3t7.5 4q15 9 29 21q11 10 12 11q3 3 6.5 7.5t5.5 5.5q14 15 39 37l26 22q8 8 19.5 18.5t15.5 14.5q1 5 4.5 16t4 12.5t0.5 3.5v3l2 4l2 2
q1 2 1.5 4.5t0.5 3.5v2q0 1 1.5 1.5t1.5 1.5q5 11 6 15h-1h-1l4 4q4 9 9 21zM374 -5q0 -1 -7.5 -0.5t-8.5 0.5l-1 1q-1 1 -1.5 1t-0.5 -0.5t-1 -0.5l-1 2l-1 1l-1 -1q-1 0 -1.5 1t-1.5 1q-28 17 -44 71l-2 1q0 2 -0.5 5.5t-0.5 5.5q0 1 -1 3.5t-1 4.5t0.5 5.5t0.5 5.5
q1 3 1 8q-80 -72 -163 -104l-2 -2q-1 0 -17 -3l-13 -3h-16q-23 0 -36 2q-8 2 -18 7q-28 16 -37 36q-12 25 -9 52q2 20 17 57q1 3 1.5 6.5t2.5 5.5q1 3 4 6.5t3 4.5q3 5 6 11l3 6q1 2 2.5 3t2.5 2q8 12 19 27l-1 1l3 3l3 3l2 1q59 58 87 78q6 4 19.5 12t14.5 8l3 3
q3 1 6.5 2.5t4.5 1.5q41 18 72 24q21 4 39 3q13 -1 32 -6t23 -11l3 -3l5 -5h-1l-1 -1l2 1q6 9 15 20q1 1 3.5 4.5t4.5 4.5l3.5 3.5l4 4t3.5 1.5l1 1v1v-1h1.5t0.5 1t0.5 1h1.5l1 -1h5.5h1.5q15 -5 16 -9l3 -3l4 -4q0 -1 1 -1l1 -1l1 -1v-2q2 -2 6 -5.5t6 -6.5t2 -5
q-1 -4 -6 -18q-1 -4 -5.5 -11.5t-6.5 -11.5l-2.5 -7.5t-1.5 -6.5q-12 -34 -12 -35v-1q-1 -2 -1 -3v-3v-1q-1 -8 -5.5 -28.5t-5.5 -27.5t-5 -17l-4 -10q0 -1 1 -2t2 -3t2 -3q1 -4 0 -12q0 -2 -2 -2.5t-2 -2.5l2 -2v-6v-7v-1q-1 -4 -2 -3h-4q7 -3 5 -8l-1 -2q-2 -11 2 -21v-1
q0 -2 0.5 -2.5t1.5 -1t1 -1.5t-0.5 -2.5t-0.5 -2.5q-1 -4 3 -7q0 -1 0.5 -1.5t1.5 -1t3 -0.5t2 -1q1 -2 1 -3.5t-1 -5.5t-1 -5q-1 -2 -1.5 -5t-0.5 -5q-1 -3 -2 -5q0 -1 -6 -8q-1 0 -1 -4v-1q0 -2 -1 -3l-7 -7t-9.5 -9t-10.5 -7z" />
    <glyph glyph-name="b" unicode="b" horiz-adv-x="386" 
d="M75 53q58 -8 102 6l2 2q1 1 7 3.5t9 4.5t7 5t6 5q1 0 7 4l9 6q18 15 35 34q12 13 16 19q26 41 41 78q13 32 14 61q0 5 -0.5 11t-1 8t0.5 5v1q4 2 5 3q2 3 3 5l1 2v2q0 7 -5 12v-1l-4 4q-30 8 -70 -10q-16 -8 -25 -15l-2 -2q-2 -2 -4.5 -3t-3.5 -2q-31 -24 -47 -40
q-5 -5 -15 -17q-1 -3 -4 -10q-2 -4 -5 -5.5t-5 -6.5l1 -3q-2 -4 -6 -13t-7 -16l-5 -7q-2 1 -4 1q3 -7 -7 -24q-14 -24 -23 -50q0 -2 -1.5 -5l-2.5 -5q0 -1 -0.5 -3t-1.5 -4.5t-3.5 -6t-2.5 -4.5q-6 -12 -9 -24q0 -2 -1 -5zM-22 5q-2 2 -4 10l-1 8q-1 1 0 3l1 1v1h-1l1 2v2v0
l-1 1l1 2l1 2q1 9 3.5 19.5t8 24.5t8.5 21.5t11 26.5t9 23v3q1 3 3.5 7.5t3.5 7.5q1 2 2 6.5t2 7t4 7.5t4 7q5 8 10 19t8 16q2 3 5.5 8.5t4.5 9.5l18 49q2 6 8 23.5t9.5 26.5t11.5 27t11 27q1 3 1.5 6t1.5 6q1 2 3 5.5t3 4.5q1 4 2 7.5t1.5 6t0.5 3.5q1 1 2.5 2t1.5 2
q6 15 10 27l-1 1q-1 1 0.5 3t2.5 3l1 1q11 26 26 84q1 4 4 13.5t4 12.5l-1 3q0 2 1 4l2 2l15 45q1 3 3 11t3.5 11.5t3.5 10t3.5 11t3.5 6.5v2q0 2 0.5 2h1h1.5v2v1.5t2 0.5l2 1q2 2 3 4t4 2q1 0 2 1v1q2 1 14 0.5t13 -1.5q0 -1 5 -3q6 -3 8 -6h2q1 0 1.5 -0.5t2 -2.5t1.5 -3
q3 -2 9.5 -8t10.5 -10t4 -8q-1 -15 -8 -49q-3 -12 -10.5 -33.5t-9.5 -26.5t-4 -15t-4 -15q-4 -12 -13.5 -38.5t-11.5 -36.5q-1 -1 -2 -4t-2 -4q0 -2 -0.5 -5t-0.5 -4q-9 -26 -35 -91q4 2 9 4q22 11 36 15q32 10 81 14h4.5h4.5t5 0.5t4 0.5q32 -3 63 -36.5t27 -64.5
q-1 -13 -6 -25.5t-9 -19.5t-12.5 -20.5t-11.5 -17.5q-1 -3 -3.5 -9t-4.5 -12l-2 -5q-11 -22 -30 -45q-7 -9 -11 -11.5t-9 -8.5l-3 -5q-23 -22 -38 -33q-2 -2 -5 -3.5l-5 -2.5l-1 -1l-2 2q-7 -11 -30 -22q-38 -18 -68 -29q-2 -1 -6.5 -2t-6 -1.5t-3.5 -1.5t-5 -1
q-2 -1 -15 -2q-15 -2 -26 -4q-1 0 -12 -1q-4 0 -8.5 -0.5t-5.5 -0.5q-22 -1 -44 1q-8 -12 -11 -13q-3 -2 -5 -4q-1 -2 -12 3q-1 0 -5 -3l-5 -2q-5 3 -12.5 6.5t-14 7t-12.5 9.5z" />
    <glyph glyph-name="c" unicode="c" horiz-adv-x="349" 
d="M401 141q-1 -5 -7.5 -11.5l-7 -7t-2.5 -1.5t-2 -2v-1l-2 -2l-3 -1v-1l-3 -2q-2 -1 -2 -2q-52 -44 -143 -86l-2 -2q-1 0 -20 -6q-15 -5 -16 -5q-7 -2 -20 -3q-36 -5 -63 -4q-15 0 -29 3q-51 11 -67 42q-16 30 -5 75q6 26 32 76q1 3 2.5 7t3.5 7q3 4 7 8l3 5l8 14l4 7
q1 2 3 3t3 2q11 15 23 29v1h-1l9 7q40 32 84 57q6 3 20.5 9.5t15.5 7.5l4 2q3 2 8 3l4 1q40 13 72 17q29 3 38 1q15 -3 29 -21.5t11 -25.5q-1 -1 -1 -5.5v-5.5h-1q-1 1 -1 0q-1 0 -1.5 -4.5t-1 -5.5t-2.5 -2t-2 -2q-2 -3 -3.5 -5.5t-2 -3.5t-1.5 -2t-3 -2q-1 0 -2 -2t-2 -3
q-2 -1 -12.5 0t-10.5 4q0 2 -4 7t-5 10q0 1 -1.5 1h-2t-1.5 3.5t-2 3.5q-5 5 -14 5q6 3 5.5 8t-6.5 5q-23 -2 -71 -26q-16 -8 -34 -21q-28 -21 -42 -47q-1 -1 -2.5 -3.5t-2.5 -3.5q-1 -2 -2 -4.5t-1 -3.5q-39 -81 -43 -116l-2 -22t-1 -13q2 -3 5 0q-2 -3 -5 -3.5t-4 -2.5
q-4 -6 -5 -11v-1q4 -10 19 -16q2 0 4.5 -0.5t4.5 -0.5l1 -1v-2q4 2 17 3t15 1q27 5 54 19l5 2q4 3 6 4q1 1 3 2.5t4.5 3t7 3.5t7.5 3q14 8 26 18q2 1 5.5 3.5t5.5 4.5q2 3 5 6l4 4q14 12 47 30q22 11 26 12q6 2 9 4q3 1 6 -5l7 1l6 2q0 -2 2.5 -11.5t1.5 -15.5zM313 332
q-2 0 -5 -0.5t-4 -1.5h-2q7 -1 11 2z" />
    <glyph glyph-name="d" unicode="d" horiz-adv-x="422" 
d="M346 337q-22 9 -38 9q-33 0 -66 -14q-13 -6 -29 -18q-40 -29 -62 -58q0 -1 -2.5 -3.5t-3.5 -4t-1.5 -2.5l-1.5 -3l-1 -2q-34 -63 -33 -94q0 -16 -1 -25l5 -2l-1 -2q0 -2 -1 -3l-3 -3t-2 -4l1 -1q-1 -7 3 -17l3 -6q0 -1 -1 -3q3 1 10.5 -4t9.5 -6q25 -10 47 -6q6 0 9 2
q2 0 3.5 1t3.5 2q1 0 5 1t6 2q11 6 21 14q7 7 8 7q2 2 4 5.5t3 4.5q11 11 30 25q2 5 5.5 15t5.5 14v4q1 3 3.5 9t3.5 10q1 2 2.5 7.5t2.5 8.5t4 9t4 9q4 9 7 16t6 15t6 14q1 3 4.5 10.5t4.5 12.5q6 15 16 54zM248 -11q-2 2 -4.5 9.5t-2.5 8t1 2.5v2l-1 1h-1l1 2l1 2h-1l-1 1
l1 2l1 2q0 9 3 20q-33 -15 -66 -23l-3 -1q-2 0 -19 -2q-16 -1 -17 -1q-8 0 -22 2q-31 6 -50 12q-11 4 -23 12q-36 23 -46 48q-13 31 -5 66q6 24 30 65q2 2 3.5 5.5t3.5 6.5t5.5 6.5l4.5 4.5l8 12l4 6q2 2 3.5 3t2.5 2l26 26v1h-1l10 7q67 50 100 66q4 2 11.5 5t14 5t8.5 3
l3 2q4 1 7 2h4q37 8 68 9q23 1 37 -1l10 -2q2 9 3 14q10 45 13 62v6.5v5.5q0 3 1.5 6.5t1.5 4.5v8.5v5.5v3q0 2 1 3t1 2v26h-1h-1l2 8q0 28 -12 64q-1 2 -2 6t-2 6.5t-1 3.5l-2 1q-1 1 -1 3v3q-11 21 -19 32q-5 5 -19 15q-5 3 -18.5 8.5t-15.5 6.5h-2q-3 1 -4 2q0 1 -3 1
t-3.5 0.5t-1 1.5t-1.5 1q-10 3 -10 4h-1l-2 1q-2 1 -3 5.5t1 4.5q1 0 4 2t8 2q1 1 0 1v1q1 0 4 0.5t4 0.5q4 1 11 3t13 3t11 1q35 -5 61 -16q30 -12 59 -43q15 -16 21 -29q12 -27 20 -84q1 -1 0.5 -5t0.5 -5q0 -2 0.5 -5t0.5 -5q-1 -57 -20 -136q-3 -13 -24 -67
q0 -2 -0.5 -6.5t-0.5 -8.5v-4q-2 -13 -9 -32q-3 -5 -5.5 -7.5t-4.5 -7.5l1 -4q-2 -5 -6.5 -16.5t-7.5 -20.5l-5 -10l-3 3v-2q1 -8 -9 -30q-14 -32 -24 -63q-1 -2 -2.5 -6t-2.5 -6q0 -1 -0.5 -3.5t-1 -5.5t-3 -7.5t-3.5 -6.5q-6 -14 -8 -28q-1 -1 -1.5 -4.5t-1.5 -6.5
q0 -3 1 -6.5t1 -4.5q-1 -11 -14 -37q-6 -15 -8 -16l-4 -4q0 -2 -11 0q-1 0 -5 -3l-3 -2q-4 1 -12.5 3t-15 4t-13.5 6z" />
    <glyph glyph-name="e" unicode="e" horiz-adv-x="307" 
d="M87 148q42 16 62 25q72 31 109 56q27 18 33 33q4 10 4.5 17.5t-1.5 15t-2 9.5q0 4 -4 9q-4 6 -8 9q-29 19 -62.5 11t-55.5 -33q-29 -31 -52 -70q-1 -1 -6 -22q-3 -9 -6.5 -21t-4.5 -14q-2 -6 -3.5 -9t-3.5 -9l1 -4v-3zM357 108q-2 -5 -6 -9t-9 -7.5t-7 -4.5
q0 -1 -3.5 -2.5t-4.5 -2.5q1 0 1 -1q-1 0 -4 -2t-4 -2v-1l-2 -1q-1 -1 -3 -2t-3 -2q-43 -27 -102.5 -48t-115.5 -27h-6q-20 4 -35 11q-16 8 -26 18q-12 13 -17 28q-13 36 -10 72q0 12 8 36q16 53 37 86q27 44 59 74t79 53q10 4 16 6q5 2 17 4q23 4 29 5q2 0 11 -1
q31 -2 62 -16v1l16 -11q18 -24 20 -54t-8 -53.5t-26 -36.5q-2 -1 -44 -28l-5 -3q-4 -2 -9 -5l-6 -2q-50 -24 -99 -43q-34 -13 -50 -18q-4 -1 -21 -7v-5q-2 1 -4 0q3 -2 4.5 -5.5t1.5 -5.5t0.5 -6t0.5 -5q5 -34 23 -50q4 -3 13 -3q2 0 3.5 0.5t3 0.5t4.5 1q14 1 18 2
q21 6 39 14l16 8t9 6t6 4q12 7 26 14.5t26 14t16 9.5q33 18 34 19q6 3 11 5q4 2 5 -1q1 -1 1 -2l7 3q1 1 4 1l4 2q3 -18 -1 -25z" />
    <glyph glyph-name="f" unicode="f" horiz-adv-x="409" 
d="M343 383q1 -2 -2 -6t-3 -5h-2l-1 -1l1 -1h-2l-1 -1v-1h-1q-1 0 -1 -1q-14 -10 -57 -19l-1 -1q-1 -1 -3.5 -1h-3.5q-1 -1 -2.5 -1.5t-3 -0.5h-3.5h-3h-8.5h-7.5q-1 0 -3.5 0.5t-4.5 0.5q-3 0 -10 -1.5t-9 -1.5h-4q-6 -25 -11 -44q-6 -26 -31 -89q-1 -3 -2 -8.5t-1 -10.5
l-1 -4q-4 -17 -14 -38q-3 -6 -5.5 -8.5t-5.5 -9.5v-4q-18 -37 -21 -42l-7 -10q0 4 -1 4t-1 -2q-1 -11 -16 -33q-9 -13 -45 -64q-1 -2 -4.5 -6t-5.5 -6q-1 -2 -2.5 -4.5t-3.5 -5t-7 -7.5t-7 -6q-11 -12 -25 -28q-2 -3 -5.5 -6.5l-5.5 -5.5q-2 -3 -5 -7t-4 -6q-17 -17 -52 -40
q-25 -16 -31 -19l-10 -5t-6 2l-1 1l-7 -3q-1 0 -3 -0.5t-3.5 -1t-1.5 -1.5q0 2 -2 14t1 12q2 7 9.5 14.5l8 8t3 2t2.5 2.5v1l3 2q2 2 3 2q0 1 -1 1q0 1 2.5 2.5t3.5 2.5q80 93 109 135q1 2 1 3q1 3 4.5 8.5t6.5 9.5q1 3 3.5 8.5t4 8t5.5 8.5t6 10q9 16 23 45q2 3 4.5 8t4 9
t3.5 7q8 21 22 70q2 7 20 76q11 42 13 48q-1 0 -19 -1h-7h-6l-1 -1q-1 -1 -3 0l-1 1q-8 -1 -26 1q-2 0 -7.5 -0.5t-7.5 0.5q-4 0 -7.5 -0.5t-7.5 0t-5 1.5q-1 0 -2 -0.5t-1.5 -0.5t-0.5 1v1h-2l-1 -1l-1 1q0 1 -1 1l-5 3q0 1 -1 1h-1q-1 2 -3 8t-1 7q1 0 2 4q1 3 2 5
q1 0 0 1v1l2 1q1 1 1 2q2 2 4.5 6.5t4.5 7.5t4 4q9 3 30 6h17.5t16.5 1q3 0 8 0.5t7 0.5q6 1 17 1t15 1v2q1 5 3.5 11.5t2.5 8.5q2 7 3 13.5t1.5 11.5t0.5 6l2 6t2 5q6 28 10 55l-1 1l4 16q19 42 47 79.5t52 55.5q8 6 41 20l4 2q5 2 12 3q46 9 78 4q10 -2 22.5 -8.5
t19.5 -14.5q9 -12 17.5 -34.5t7.5 -31.5q0 -1 0.5 -6t0.5 -6h-1q-1 -1 0 -6.5t0.5 -7t-2 -3.5t-1.5 -3q-1 -4 -1.5 -8t-0.5 -5.5t-1 -3.5t-2 -3t-2 -4v-3q-3 -3 -12.5 -5t-9.5 1q-1 4 -1.5 4.5t-1.5 1t-2 2.5q-5 6 -7 13q0 1 -2 1l-1 -1q0 1 -1.5 6t-2.5 6q-4 7 -15.5 18
t-13.5 16q-2 6 -3.5 20.5t-6.5 19.5q-9 9 -24.5 8.5t-32.5 -10.5q-16 -9 -29 -27q-15 -21 -26 -48t-13 -46q-1 -1 -1 -5t-1 -6q0 -4 -0.5 -10t-0.5 -8q-7 -44 -20 -101q1 -1 2 -1l1 1h5h6t3 -1v-2q1 3 8 2q10 -1 19 2q0 1 1.5 1h2t1 0.5t1.5 1t2.5 0t2.5 -0.5q5 1 9 4
q1 0 2 0.5t2 1.5t2 2.5t1 2.5q3 2 17 3q10 1 11 1q2 -1 4 -1q1 0 4 -8l3 -1q3 -2 4 -2q0 -3 2.5 -9t3.5 -11t1 -11z" />
    <glyph glyph-name="g" unicode="g" horiz-adv-x="368" 
d="M304 220q8 27 8 28l-1 4q1 2 2.5 4.5t1.5 3.5q4 18 15 54q1 2 4 17q-2 0 -7 -0.5t-7.5 0t-2.5 1.5q-10 18 -25 17q-23 -3 -55 -25q-11 -8 -27 -24q-41 -42 -61 -76q0 -1 -2.5 -4t-3.5 -5q0 -1 -4 -10q-11 -27 -17 -57t-4 -44q1 -7 -4 -26l1 -5l5 -14q5 -6 7 -6h2
q10 -1 25 2l7 2l1 -1q2 2 6 4.5t9.5 5t7.5 4.5q29 17 54 43q10 10 11 10q1 2 2.5 4t3.5 5q2 2 6.5 6t6.5 7q13 15 20 29q6 10 6 12q2 4 3 9v5q2 10 6 20zM-116 -89q3 0 9.5 -4.5t7.5 -4.5t1.5 -2t1.5 -2h1l1 -1.5t2 -1.5l1 1q0 -1 1 -2l1 -2q62 -45 117 -58l3 1q16 -1 18 -1
l14 2q16 2 18 2q21 6 39 15q13 7 19 11q21 18 37 44q5 8 26 48q20 38 30 58q1 3 2 7t2 6q1 3 3.5 7t3.5 5q2 5 3 9q-1 0 -1 -1q-15 -9 -17 -10q-9 -5 -22 -10q-27 -10 -49 -14q-8 -1 -23 -2q-47 -3 -66 5q-19 7 -34 23.5t-19 35.5q-8 29 9 80q0 3 1 7.5t3 8.5t5 8.5t4 5.5
q3 6 6.5 13.5t3.5 8.5q1 2 3 3.5t3 2.5q10 16 24 34v1h-1q1 2 3 4l4 4l2 1q64 67 97 91q5 3 11.5 7t13.5 7.5t8 4.5l3 3q1 0 11 3q34 12 62 15q20 2 32 0q15 -2 31 -9q1 1 4 1v1q1 1 2 1q2 1 11 1t11 -2q1 0 5 -2q5 -2 7 -4q0 -1 1.5 -1h2t1.5 -2l1 -2q2 -2 8 -7.5t9.5 -9
t3.5 -7.5q-1 -16 -8 -52q-2 -12 -17 -58h1q0 -1 -2 -5q0 -1 -1 -2h1q1 0 1 -1l-1 -3l-1 -3v-1h1l-2 -5q-1 -1 -1 -2q-2 -4 -4 -9q-3 -13 -5 -20q-6 -18 -18 -53t-14 -42q-1 -2 -2.5 -5.5t-2.5 -5.5t-1.5 -6t-1.5 -5q-27 -72 -65 -134q-13 -21 -43 -54q-2 -1 -5 -5.5t-6 -8.5
l-2 -3q-14 -14 -30 -24q-6 -3 -9.5 -4t-9.5 -5l-3 -2q-22 -11 -38 -17q-2 -1 -5 -1.5t-5 -1.5h-1l-1 2q-9 -7 -31 -10q-37 -5 -70 -6q-3 0 -8 0.5t-6.5 0.5t-5 -0.5t-5.5 0.5q-4 0 -17 3q-7 1 -13.5 2.5t-12.5 2.5t-8 1l-8 2t-6 2q-4 0 -9 0.5t-6 1.5q-30 9 -53 31
q-18 17 -21 25t-4 10q-2 4 5 7q2 1 3 2t0 4q-1 2 -1 3l-1 7q4 1 18 6t24 6z" />
    <glyph glyph-name="h" unicode="h" horiz-adv-x="396" 
d="M340 -109q-6 -1 -10 0t-10 3t-8 2l-2 2q-3 2 -4 2v0l-1 -1l-3 2q-2 2 -3 2l-1 -1v0q-2 0 -6 4q-26 24 -27.5 69.5t16.5 80.5l1 3q1 3 4.5 8.5t5.5 8.5q1 3 3 8t3.5 7.5t5.5 8t6 8.5q10 17 22 40l10 20q9 25 11 53q1 16 -4 44q-5 29 -14 51q-1 2 -3.5 5t-3.5 6q-1 2 1 5v2
q1 5 0 9v2.5t-1 1.5q-5 6 -14 7v-1l-6 -1q-36 -16 -77 -60q-21 -21 -26 -28l-2 -4l-4.5 -4.5l-3.5 -3.5q-6 -8 -13.5 -17t-12.5 -15.5t-9 -12.5l-3 -3l-4 -6q-1 -1 -1 -2v-4l-6 -15t-7 -18l-5 -8q-1 2 -3 1q2 -7 -7 -26q-12 -26 -19 -50q0 -2 -1.5 -5t-1.5 -4q-1 -2 -0.5 -4
t-0.5 -4q-1 -1 -3 -4.5t-2 -4.5q-5 -10 -5 -19q0 -1 -0.5 -3.5t-0.5 -3.5q1 -2 2 -4.5t2 -3.5q1 -9 -7 -16q-1 -1 -4 0l-2 2t-13 1q-1 0 -4 2l-4 2q-1 0 -15.5 -3.5t-15 -2.5t-17.5 1q-1 0 -3 2l-4.5 4.5l-3.5 3.5l1 1v1h-1q-1 1 -1 2l1 1h-1.5t0.5 1t1 2q-1 4 -0.5 9
t2 11.5t2.5 12t4 14t5 13.5t5.5 15.5t5.5 15.5l-1 3q1 3 3 7.5t3 7.5q1 2 2 6.5t2 7t3.5 7.5t3.5 8q4 9 9.5 21t8.5 18q1 3 4.5 10l5.5 11q4 10 11 32.5t8 25.5q2 5 9 27t11 33q4 12 13 34.5t12 32.5q2 3 2.5 7t1.5 7q1 4 3.5 8t2.5 5q2 5 3 9t2 7l1 4q1 2 2.5 3.5t1.5 2.5
q7 18 12 33h-1h-1q0 2 1 4t3 4l1 1q13 33 29 96q1 4 4 14t4 13l-1 3q0 2 1.5 4t1.5 3q4 13 13 41q1 2 2 8.5t2 8.5t2 6.5t2 7t3 3.5l-1 1v1h1h1q1 0 0 1v1h2q2 0 2 1q5 2 6 3h1q22 7 25 4h6q6 -1 8 -3l2 1h2q0 -1 1.5 -2t2.5 -2q1 0 9 -4.5t11.5 -7.5t4.5 -6q0 -13 -6 -42
q-2 -11 -9 -31.5t-9 -26.5q-2 -5 -4.5 -15.5t-3.5 -16.5q-4 -13 -14.5 -43t-13.5 -40q0 -2 -1.5 -5t-1.5 -5q-1 -2 -1.5 -5.5t-0.5 -4.5q-9 -30 -40 -113q41 28 79 41q1 0 10 2q2 1 5 1.5t5 1.5q34 3 77.5 -25.5t55.5 -62.5q3 -7 4.5 -14t1.5 -14.5v-12.5t-1.5 -13t-2 -11
t-2.5 -11.5t-2 -9.5q-1 -2 -1 -7.5v-9v-4.5q-3 -16 -12 -34q-3 -6 -5.5 -8t-5.5 -8v-4q-1 0 -7.5 -13t-12.5 -22l-6 -9q-1 1 -3 1q0 -7 -13 -28q-18 -29 -26 -54q0 -1 -1.5 -4.5t-2.5 -5.5q0 -1 0.5 -3t0 -4t-2 -5t-1.5 -5q-2 -10 2 -16q2 -3 3 -3q1 -1 3 -2h2q1 0 -1 -2.5
t-4 -6t-2 -6.5q0 -4 6 -19q2 -4 5 -8q2 -2 -1 -8q-1 -1 4 -6t6 -5q-3 -2 -7.5 -6.5t-8 -7.5t-8.5 -4z" />
    <glyph glyph-name="i" unicode="i" horiz-adv-x="261" 
d="M64 -30q-1 -1 -9.5 -0.5t-9.5 0.5l-1 1l-1.5 1.5t-0.5 -0.5l-1 -1l-1 1q-1 2 -1.5 2h-0.5l-1 -1l-1 1l-1 1q-33 19 -44 74l-3 2q0 2 0.5 5.5t0.5 4.5q0 2 -0.5 4.5t-0.5 4.5t2 5.5t2 4.5q6 17 8 21q1 2 3.5 5.5t2.5 4.5q2 5 4.5 14.5t3.5 12.5q7 24 9 27q3 6 8 15.5
t7 12.5q1 2 1 4v3q1 1 3 2.5t2 2.5q1 2 1.5 4t0.5 3l1 2q0 1 1 2h2q5 9 8 15h-1l-1 1l4 4q8 13 21 50q1 2 3.5 8.5t2.5 7.5l-1 3q1 1 2 3l2 1q4 10 15 31q1 2 3 8.5t3.5 9t4 8t4.5 9.5t4 5v2q0 1 0.5 1.5t1 0t1.5 -0.5v2q0 2 0.5 2t2.5 1h2q2 1 3 2.5t4 1.5q1 0 2 1l1 1
q3 0 14.5 -1t12.5 -3q1 -1 6 -4q6 -3 7 -6h2q2 -1 2.5 -1t1.5 -3l1 -2q2 -3 9 -9t10.5 -10t2.5 -8q-1 -13 -11 -41q-3 -9 -11 -24t-10 -19q-1 -3 -3.5 -10t-4.5 -10q-2 -7 -10.5 -23t-10.5 -22q0 -1 -1 -2.5t-1 -2.5q-1 -1 -1 -3v-2q-3 -10 -12 -30.5t-12 -27.5
q-2 -6 -7 -14t-5 -8.5t0.5 -1.5t2 -2.5t1.5 -3.5q2 -4 0 -10q0 -1 -2.5 -1.5t-2.5 -1.5l2 -2v-4v-5q-1 -3 -3 -2h-2l-2 1q8 -4 6 -6l-1 -1q-3 -6 1 -11v-1v-1l1 -1h1.5t-1.5 -1l-1 -1q-1 -3 2 -4q0 -1 0.5 -1t1.5 -0.5t3 0t3 0.5q1 -2 0.5 -3.5t-2.5 -5t-2 -4.5
q-1 -3 -1.5 -6.5t-1.5 -5.5q-1 -3 -2 -5q0 -2 -9 -10l-1 -5q-1 -4 -2 -4q-3 -3 -9.5 -9t-13 -10.5t-13.5 -8.5zM309 630q1 -1 2.5 -4.5t1.5 -4.5q-1 0 0 -1v-1l1 -1v0l-1 -1q2 -7 -7 -22v-1q0 -1 -0.5 -1.5l-1 -1t-0.5 -1.5v-1.5t-2 -0.5h-1q-1 -1 -3 -2.5t-3 -2.5l-1 -1h-2
q-1 -1 -1.5 -2.5t-1 -3.5t-1.5 -3q0 -1 -1 -4.5t-2 -5t-3.5 -4t-2.5 -3.5q-1 -1 -0.5 -2t0 -1h-1.5t-1 -1q-1 0 0 -2v-1l-1 1h-1q-2 -3 -3 -4l1 -1h-2q-3 -2 -7 -12l-1 -1q-1 -1 -1 -2l2 -1h-2q-2 -2 -7 -2l-1 -1q-1 -1 -1 0h-6h-1l-1 1l-2 1q-1 0 -1 1l-5 2q-1 0 -2 1v0
q-21 11 -21 12l-5 3q-4 3 -6 4l-2 1l-1 1l-1 1q-1 1 -2 1q-2 2 -7.5 5.5t-8.5 6t-3.5 4t2.5 6.5q0 2 3.5 3.5t4.5 2.5l1 2q0 2 1 2q0 1 3.5 5t3.5 6v0q1 1 1.5 1t0.5 1l-1 1q1 3 3.5 6t5.5 6.5t4 5.5q1 0 11 6q-1 0 -2 5q0 3 3 5q1 0 2.5 -0.5t2.5 0.5l-1 1l2.5 2.5l2.5 2.5
q2 1 3 0l1 -1l1 -1q-3 5 1 5h1q6 3 9 8h1q1 1 1 1.5v1t0.5 1t2.5 0.5h1q3 1 4 5l1 1v1v3l-1 1q1 3 11 3q6 0 7 -1q2 -1 3 -1t6 -7q0 -1 3 -2q2 -1 2 -2q2 -3 8.5 -11.5t11.5 -15.5z" />
    <glyph glyph-name="j" unicode="j" horiz-adv-x="236" 
d="M-274 -279q1 1 7.5 0.5t7.5 0.5h3h3v1h3h3v1h3.5h3.5q90 28 119 51l2 3l4.5 4.5t5.5 6.5q1 2 3.5 5.5t4 5t5 5.5t5.5 6q10 12 25 34l6 7q5 7 7 11q9 16 27 56l25 61q23 57 28 70q1 4 1.5 8t1.5 7q1 4 3.5 8.5t3.5 5.5q2 5 3 9.5t1.5 8t1.5 4.5q0 2 1.5 3.5t2.5 3.5
q6 19 11 35h-1l-1 1q0 1 1 3.5t3 4.5l1 2q13 37 26 106q1 4 2.5 10.5t3 11t1.5 7.5l-2 3q1 2 2.5 4.5t1.5 3.5q3 17 11 44q1 2 2 9t2 9t1.5 6.5t1.5 7t3 3.5v1v0.5t1 0.5h1v1h1q2 1 3 1l5 2q1 0 2 1q23 6 26 5l6 -1q6 0 8 -1q0 -1 1.5 -0.5t2.5 0.5l2 -1q1 -2 2 -2t9.5 -4
t12.5 -6.5t4 -5.5q2 -12 -3 -42q-1 -11 -7 -33.5t-8 -28.5q-1 -5 -3 -17t-4 -18q-4 -17 -13.5 -50.5t-12.5 -43.5q0 -2 -1.5 -5.5t-1.5 -5.5q-1 -3 -1.5 -6.5t-0.5 -4.5q-20 -68 -56 -151q-9 -19 -40 -70q-1 -2 -2 -6.5t-2 -8.5l-1 -4q-6 -14 -18 -31q-3 -5 -6 -6.5t-7 -6.5
l-1 -4q-20 -26 -25 -32l-8 -7l-2 2q-2 -11 -20 -25q-31 -24 -53 -38l-6 -3l-5 -2.5t-3 -2t-5 -2.5q-2 -1 -14 -4q-22 -6 -27 -8t-8 -3q-2 -1 -5.5 -3t-5.5 -3q-28 -9 -63 -11q-26 -2 -35 -1q-7 1 -12 1t-2 5q0 1 1 2q0 1 -4 1q-3 1 -4 1.5t-2.5 1.5t-2.5 2h-2q6 5 13 12.5
t11 10.5zM261 537q-1 -1 -4.5 -3.5t-4.5 -3.5l-1 1v-1h-1v0q-1 0 -1 -1h-1q-10 -3 -30 7l-1 -1q-1 0 -1.5 1t-1 1h-2t-1.5 1q-1 0 -1 2l-1 1q-1 2 -2.5 3.5t-2.5 3.5v2l-2 2t-5 2l-4 2q-2 1 -4 1.5t-3.5 1.5t-2.5 2q-2 1 -4.5 4t-3.5 4q0 1 -1 1h-1.5t-0.5 2v1q-1 1 -3 1
q-1 0 -1 1l1 1q-2 3 -3 5l-1 -1l-1 -1l1 3q-2 3 -13 12q0 1 -1 3t-2 2l-2 -1l1 1v2q-2 3 -3 10q0 1 -1 3t-1 3l-1 4q0 4 1 5v1l1 1q-1 0 -0.5 0.5l1.5 1.5t1 2q3 4 3 5q1 0 1 1q15 16 18 17l4 3q5 3 7 4l1 1q2 1 2 1.5t2 1.5h1q3 2 8.5 6t9 6t5.5 2q3 -1 9 -6q2 -2 3.5 -6
t2.5 -5t3 -2t2 -2q1 -1 4.5 -5t5.5 -5v-1h1h1h1q3 -2 9 -8l5 -6l3 -10q0 1 5 2l1 -1l2 -1q0 -1 -1 -2.5t0 -2.5l1 1l2 -2t1 -2q1 -1 0 -2q-1 -2 -2 -2q4 2 4 0v-1q0 -6 4 -7l1 -1v-1h1l1 1v-1v-2q0 -2 3 -2h1h1l1 1l2 1q2 1 2 -7q-1 -6 -1 -7q-1 -2 -1 -3t-5 -9q0 -1 -1 -3
v-1v-2q-17 -28 -19 -31z" />
    <glyph glyph-name="k" unicode="k" horiz-adv-x="426" 
d="M470 -44q-2 -2 -8.5 -3t-6.5 -1.5t-1.5 0t-2.5 0.5v-1l-1 1h-2.5t-0.5 -1h-1h-3q-35 0 -90 24h-2l-5 2.5l-5 2.5q-1 1 -4 2t-4.5 2t-4.5 4l-4 4q-14 12 -19 17q-1 2 -3.5 5t-4.5 5q-3 4 -11.5 11t-12.5 11q-17 17 -22 23q-2 2 -18 29q-1 1 -3 2t-2.5 2.5l-1.5 4.5v2
q-1 2 -2.5 3.5l-2.5 2.5l-1 2q-1 1 -0.5 2t0.5 2q-6 11 -7 14h-1l-1 -1v5q-3 9 -20 41q-7 -2 -8 -3v-2h-2.5h-2.5q-9 -3 -23 -6q-1 0 -5.5 -1.5t-6.5 -1.5h-2q-6 -15 -17 -47q-1 -3 -4.5 -11t-3.5 -10l1 -3q-1 -2 -2.5 -3.5t-1.5 -2.5q-5 -12 -16 -37q-1 -2 -3 -8.5t-3.5 -9
t-3.5 -8t-3.5 -9t-3.5 -4.5q-1 0 -1 -1.5v-2t-1 -0.5l-1 1v-1q0 -2 -0.5 -2.5t-2 -0.5t-2.5 -1q-1 0 -2 -1.5t-4 -2.5h-2l-1 -1q-3 0 -14 0.5t-12 2.5l-6 3q-6 2 -7 5h-2q-2 0 -2 1q-1 0 -2 2l-1 2q-2 2 -9 7.5t-10.5 9.5t-2.5 8q1 13 10 42q3 10 11.5 27.5t10.5 23.5
q2 4 4.5 12.5t4.5 12.5q4 10 14 33t13 32q1 1 2 3.5t2 3.5q1 2 1 4.5t1 3.5q6 17 22.5 54.5t19.5 46.5q4 10 8.5 19t10 18t7.5 13q1 2 1 5.5v6.5v4q1 9 8 24q2 4 4.5 5.5t3.5 6.5v3q1 4 4.5 13t6.5 16l4 7q2 -2 4 -1q-3 7 5 25q11 26 16 53q1 1 2 4.5t1 5.5v4.5t1 4.5
q0 2 2 6l3 6q4 14 4 27q0 2 0.5 6t-0.5 5q0 3 -1.5 7t-2.5 5q0 6 1.5 13t3 11.5t4 10.5t2.5 7q7 21 9 22q3 4 4 7t15 1q2 0 3 3q1 2 2 2l4 5q6 -2 16 -3t18.5 -3.5t16.5 -7.5q4 -2 8 -11.5t4 -10.5v-2l-1 -3q0 -1 1 -1h1q1 0 0 -2.5t-1 -3.5h1h1q1 0 0 -2.5t-1 -3.5
q3 -43 -26 -144l1 -4q-1 -3 -3 -8.5t-3 -8.5q-1 -2 -1.5 -7t-1.5 -8t-4 -8.5t-5 -7.5q-2 -6 -7.5 -18t-9.5 -20q-1 -3 -4.5 -9t-4.5 -10q-4 -9 -10 -26.5t-8 -23.5q-18 -47 -19 -49q-4 -10 -12.5 -27.5t-10.5 -23.5q-2 -2 -2 -5q-1 -4 -1 -5q11 5 15 8q1 1 2 1.5t2 0.5
q1 1 1.5 2t1.5 1q6 5 22.5 15.5t21.5 14.5q4 3 8.5 5.5t9.5 4.5t7 4q1 0 2 4l2 3q3 5 10 9q2 2 4 1.5t4 0.5v3q2 1 6 4t7 6l3 1.5t2 -0.5l2 -2q0 3 1 5t2 3t3 2l3 1q14 8 25 21q1 1 3 2t2.5 2t1 2.5t1.5 2.5t3.5 2t3.5 2q7 5 12 13l2.5 2.5t1.5 3.5q1 1 1 4l1 4q3 4 6.5 7.5
t6 5t7 4t5.5 2.5q13 8 15 8q4 0 7 1q1 1 9 -7q1 -1 6 -1l5 1q3 -4 8.5 -10.5t9.5 -12.5t7 -13q2 -3 0 -10.5t-2 -8.5l-1 -1q-1 -1 -1.5 -1t0.5 -0.5t1 -1.5l-2 -1q-1 -1 -1.5 -1t0.5 0l1 -1q0 -1 -2 -2l-1 -1q-13 -21 -66 -65v-2q-2 -1 -4.5 -3t-4.5 -3q-1 -1 -3 -3.5
t-3 -3.5t-4.5 -2.5t-5.5 -1.5q-4 -3 -10 -6.5t-10 -5.5q-2 -1 -5.5 -2.5t-5.5 -2.5q-4 -3 -12 -9.5t-11 -8.5q-20 -15 -23 -17q-5 -3 -17 -9q2 -3 3 -5q2 -3 7 -15.5t8 -16.5q0 -1 0.5 -2t1.5 -2q0 -1 1.5 -1.5t1.5 -1.5q5 -7 14 -25t13 -23q2 -5 4 -9.5t3.5 -9.5t2.5 -8h2
q1 -1 3 -1.5t3 -1.5q4 -2 7 -9q2 -2 1 -4.5t1 -3.5h2q1 -2 3.5 -6t4.5 -7q1 -1 1.5 -2t-0.5 -2l-2 -2q3 0 4.5 -0.5t2.5 -1.5t2 -3t1 -3q7 -12 18 -20l2.5 -2.5t2 -1.5t1.5 -0.5t2 -1.5t2.5 -3t2.5 -2q5 -5 12 -8l2 -1q2 -1 3 -1q1 -1 3 -0.5t3 0.5q4 -2 8.5 -4.5t8.5 -5.5
t5 -3q3 -2 7 -4t6 -4l4 -2t1 -7l4 -2l3 -2l-2.5 -7.5t-3 -8t-3.5 -6.5z" />
    <glyph glyph-name="l" unicode="l" horiz-adv-x="266" 
d="M182 -15q-3 -3 -7 -4.5t-9 -2.5t-6 -1q-1 -1 -4 -1h-2v-1h-4h-2v-1h-3h-3q-30 -3 -63.5 11t-54.5 42l-2 2l-3 17l-3 15q0 2 3 17q5 25 9 41q2 4 4.5 10.5t3.5 9.5q2 8 7 27.5t8 29.5q13 43 20 61q6 14 17 40t12.5 29.5t2.5 8t3 7.5q1 3 4 7.5t3 5.5l4 10t3 8.5t1 4.5
q1 2 2.5 3.5l2.5 2.5q9 21 15 36h-1v1l6 10q19 41 43 113q1 4 3.5 11.5t4.5 13t3 8.5l-1 4l2.5 5t2.5 4q4 15 9.5 32t7.5 24q2 4 3.5 13.5t2.5 13.5q2 3 3 10.5t2 12.5t3 7v2v2h1h1v2v2.5t1.5 1t2.5 1.5t1.5 3t3.5 3q1 0 2 1v1q2 2 12.5 4t11.5 0q1 0 6 -2q6 -1 8 -5
q1 0 2.5 0.5t1.5 -0.5q1 0 2 -3l2 -2q2 -2 9.5 -8.5t11.5 -11t4 -9.5q0 -23 -10 -62q-3 -12 -7.5 -24.5t-10.5 -28.5t-9 -25q-3 -6 -7 -19t-7 -20q-6 -17 -20.5 -51.5t-18.5 -46.5q-1 -2 -2.5 -5.5t-2.5 -5.5t-2 -6t-1 -5q-8 -21 -29 -72.5t-28 -70.5q-5 -16 -14.5 -37
t-11.5 -25v-6v-7v-4q0 -9 -5 -26q-1 -5 -3.5 -6.5t-2.5 -5.5l1 -4q-1 -3 -1.5 -7t-1.5 -9.5t-1 -9.5l-3 -6l-3 1q2 -2 3 -5t1 -4.5v-4.5l-1 -3q-2 -14 2 -23l-1 -1v-1q1 0 0.5 -0.5l-2 -2t-1.5 -2.5q-4 -5 -3 -9q0 -2 0.5 -3t1.5 -2h1q15 -14 24 -15q6 -2 13.5 -2.5
t9.5 -0.5q4 -1 8 0q3 0 4 -5q0 -1 6 -1h7q-1 -3 -2.5 -8t-2.5 -8t-4 -5z" />
    <glyph glyph-name="m" unicode="m" horiz-adv-x="710" 
d="M745 54q-8 -9 -18 -15.5t-19.5 -11t-12.5 -6.5q-1 -1 -6.5 -3.5t-6.5 -3.5t-6 -3t-6 -3v-1q-2 -1 -12 -5q-33 -10 -66 -11t-59.5 16t-32.5 49l-1 4q1 5 3.5 12.5l3.5 10.5q1 2 2.5 9t2.5 11l6 12t5 11q5 11 12.5 28t12.5 27q2 4 6.5 13.5t6.5 14.5q13 35 20 71q5 24 1 48
q0 2 2 3.5t6.5 4t7.5 6.5q1 2 -1 6q-3 5 -6 6q-7 2 -16 1q-1 0 -2 0.5t-2 0.5q-8 -3 -18 -11v-1l-6 -4q-33 -30 -75 -89q-25 -34 -26 -36l-1 -5q-2 -3 -5 -6l-4 -4q-17 -25 -48 -69q-3 -3 -11.5 -15.5t-11.5 -17.5q-3 -3 -9 -11t-7 -10q0 -4 -1 -6q-6 -19 -29 -54
q-15 -22 -17 -24q-5 -4 -7 -7q-2 -2 -12 3l-5 -3l-5 -4q-4 3 -11 7t-12.5 8.5t-9.5 10.5q-3 1 -2 12.5t0.5 12t1 2.5t1.5 3q-1 0 -1 1l1 3q1 2 2 3h-1h-1q0 1 2 3l1 3q6 27 28.5 89t28.5 80v4q1 3 2.5 9l2.5 10q1 3 1.5 8t1 7.5t2.5 8t2 8.5q3 14 5 31q0 1 0.5 4.5t0.5 5.5
t0.5 2.5t2.5 1t5 1.5q4 2 5 6t-1 6.5t-6 2.5q-14 -2 -52 -25q-3 -2 -5.5 -4.5t-3.5 -2.5q-2 -2 -5 -3.5t-3 -2.5q-2 -1 -12 -12q-1 -1 -2.5 -1.5t-2.5 -1.5q-10 -9 -21 -20h1v-1l-7 -6q-28 -30 -60 -80l-17 -26v-4q-1 -2 -3.5 -4t-2.5 -3q-8 -13 -17.5 -28.5t-10.5 -18.5
q-2 -4 -6.5 -12.5t-5.5 -11.5q-2 -3 -6.5 -12t-6.5 -11v-1q0 -2 -1 -4.5t-1 -3.5q-1 -1 -0.5 -3t-0.5 -4q0 -2 -2 -4.5t-2 -4.5q-4 -9 -4 -18q0 -1 -0.5 -3t-0.5 -4q0 -1 1.5 -3.5t1.5 -3.5q1 -9 -9 -18q-5 -4 -7 -4h-2l-2 1q-1 -1 -12 3h-2t-1 0.5t-0.5 1.5l-1.5 3
t-3.5 4.5t-8 5t-12.5 4.5q10 -3 1 -6q-8 -3 -20 1q-1 1 -10 6v1v1h-1v1h-1q-1 0 -1 0.5t1 0.5v1q-2 1 -1 10t1 11.5t3 13t4 14.5t4.5 15.5t4.5 15.5l-1 3q1 2 2.5 6t1.5 7q1 1 1.5 5t1 6t3 6t3.5 6q2 6 5.5 14.5t6.5 14.5q1 2 3.5 6.5t2.5 6.5q3 6 6 17t4 16q5 13 11 25
q10 19 16 32v4t1 3l2 4l2 2q1 2 1.5 4.5t0.5 4.5l1 1q0 1 1 1.5t2 1.5q3 9 6 16h-1h-1l4 4q8 18 11 48q1 2 1.5 5t1 5t-0.5 3l-1 2q0 1 1 2l1 1q1 8 4 21q1 2 1 5.5t1 4.5q0 1 1 6t3 7v1l1 1h1v0q-1 1 -0.5 1.5t2 1t1.5 1.5l5 4q1 1 1 2v0q18 11 23 10h6q5 1 8 0h2q1 1 2 1
l2 -1q2 0 2 -1q2 0 11 -1.5t13.5 -3t6.5 -4.5q6 -14 5 -37q0 -5 -10 -43q-1 -3 -2.5 -9.5t-2.5 -10.5v-1q25 19 60.5 38t62.5 26q22 7 66 7q21 0 24 -2q24 -12 30 -27q3 -7 1.5 -10.5t0.5 -9.5l2 -3v-26q40 44 84 73q1 1 10 5q2 1 5.5 3t4.5 3q24 6 55.5 7t63.5 -9t43 -32
q4 -9 5 -18.5t-1.5 -19.5t-5.5 -17.5t-7.5 -17t-6.5 -14.5q-1 -2 -1.5 -7.5t-0.5 -9.5v-5q-4 -15 -14 -38q-3 -7 -5.5 -10t-5.5 -10v-5q-4 -7 -9.5 -21t-9.5 -24l-6 -11q-2 0 -3 1q1 -7 -9 -35q-14 -36 -10 -56v-1v-1q-1 0 -2 1q-17 3 -23 -5q-2 -3 0 -6q1 -2 5 -1
q36 7 62 17q14 7 31.5 15t23.5 11q11 4 22 10q8 4 9 0v-2q1 0 17 7q2 1 6.5 2.5l7.5 2.5q2 1 3 2q-3 -6 -6 -14q-3 -9 -5.5 -13.5t-5.5 -8.5zM762 90v1v-1zM600 36q0 -1 1 -2h2q0 1 -3 2z" />
    <glyph glyph-name="n" unicode="n" horiz-adv-x="397" 
d="M360 -10q-8 -2 -12.5 -2t-11.5 1t-9 1q-1 0 -4 1.5t-4 1.5l-1 -1v0l-4 2q-3 1 -4 1v-1q-4 0 -8 3q-24 17 -33.5 47.5t-5 63.5t18.5 64v4q2 4 6 10.5t6 10.5q1 3 4 9l4.5 9t6 9.5t6.5 9.5q12 20 24 42l9 18q3 11 -2 25h16l1 2q-14 16 -58 18l-11 -2q-2 -1 -4.5 -1t-4 -0.5
t-2.5 -0.5q-7 -2 -16 -7q-1 -1 -2.5 -1.5t-2.5 -0.5q-12 -7 -24 -17h1v-1l-7 -5q-33 -32 -60 -80q-13 -24 -15 -28v-4q-1 -2 -3 -4t-2 -3q-5 -12 -11.5 -26t-10.5 -23q-1 -3 -3.5 -11t-3.5 -10q-1 -3 -2.5 -8t-2.5 -8.5t-3 -4.5v-1v-1h-1h-1v-1v-0.5t-1 -0.5h-2q-5 -2 -6 -2
q-1 -1 -2 -1v0q-4 -1 -9 -2q0 -1 -1 -2.5t-1 -2.5v-2.5v-2.5l-3 -3t-2 -3q-4 -7 -4 -15q-1 -1 -1 -3v-3q0 -2 1.5 -4.5t1.5 -3.5q-1 -7 -12 -21q-7 -10 -8 -10q-4 -2 -5 -3t-12 3l-4 -2q-4 -1 -5 -1q-4 2 -12.5 4.5t-15 5.5t-13.5 8q-2 1 -4.5 7.5t-3.5 6.5q0 1 1 2v1l-1 1
q-1 0 0 1t1 1.5t-1 0.5t-1 0.5v1.5l1 1q1 20 25 77l-1 3q1 1 2.5 4l2.5 5q0 1 0.5 3.5t1.5 4l3 4.5t3 4q3 5 6.5 11t5.5 9q1 2 3.5 5t2.5 5q1 1 10 28q1 4 4 13.5t5 14.5t6 14t6 14v3.5t0.5 3t2 3t1.5 2.5q1 1 1 3v3v2q0 1 1.5 1.5t1.5 1.5q2 7 4 13h-1q0 1 -1 1l3 3
q6 13 7 40q0 2 1 6t1 6l-2 1q0 1 1 2l1 1q1 7 5 19v4.5t1 4.5q0 1 1.5 6t3.5 7v1v0.5t1 0.5h1v1q-1 1 -0.5 1t2 0.5t1.5 1.5l6 4q1 0 1 0.5t1 0.5q20 10 25 8l6 1q6 0 9 -1h1l2 1q1 0 2.5 -1t2.5 -1q3 -1 11.5 -2t13 -3t6.5 -4q4 -11 4 -32q0 -5 -7 -36q2 2 3 2q2 1 5 3.5
t5 3.5q31 14 75 22.5t75 5.5q61 -5 83 -40q1 -3 3 -8.5t2 -10.5l1 -4q-1 -18 -10 -34q-3 -5 -6 -7t-5 -7v-4q-3 -4 -9 -14.5t-11 -19.5l-7 -8q-1 1 -2 1q0 -8 -14 -30q-21 -34 -32 -65l-1 -4q-2 -5 -3 -8v-4.5t-1 -4.5q0 -2 -2 -6.5t-2 -6.5q-3 -13 1 -21q2 -4 3 -5
q2 -1 5 -2h1q-13 -11 -12 -17q1 -8 12 -21q3 -3 9 -6q3 -2 2 -8l7 -4q8 -3 9 -3q-3 -3 -7 -7.5t-7 -7.5t-7 -4zM381 9v0v0zM346 319v2q-1 -1 0 -2z" />
    <glyph glyph-name="o" unicode="o" horiz-adv-x="390" 
d="M356 277q-1 0 -2 1q-1 4 -2 4.5l-3 1.5q-5 4 -7 9q0 1 -1.5 0.5t-2 0t-2 4t-1.5 4.5q-5 5 -16 11t-12 9q-1 4 -2 11.5t-2.5 13t-6.5 9.5q-21 17 -66 3q-18 -6 -38 -20q-23 -16 -45.5 -39.5t-33.5 -41.5q-4 -7 -6 -11q-3 -6 -4 -12q-15 -60 -4 -130q7 -37 24 -49
q4 -3 18 -5q27 -2 33 -2q5 1 9.5 1t9.5 1l3 2q19 6 41 18l11 6l1 -1q3 4 15 13.5t15 11.5q33 31 55 67q7 10 9 14q1 2 2 5l2 6t4 8.5t5 8.5q7 19 8 34q0 10 -1 12q0 3 -1 5l-2 4t-2 3q-1 4 -2 9zM384 361q5 1 11 -1t12 -5.5t8 -3.5l3.5 -3.5l3.5 -3.5v0l1 1q1 0 3 -3t3 -4
l1 1q3 -2 6 -8q15 -42 -2 -100t-56 -110l-2 -5q-4 -4 -22 -21q-15 -14 -19 -18q-10 -7 -26 -17q-34 -20 -62 -32q-14 -5 -32 -10q-51 -12 -86 -10q-67 5 -97 32q-14 12 -22.5 31t-11 33t-4.5 36q-1 16 0 23q0 3 5 23q9 31 9 32q1 3 3 5.5t3 3.5q12 23 28 46v1h-1l11 12
q73 68 128 96q7 3 43 14l4 2q4 1 13 2q45 6 76 1q26 -5 40 -17q10 -9 20 -26q3 2 8 3z" />
    <glyph glyph-name="p" unicode="p" horiz-adv-x="416" 
d="M112 48h3l2 -1q71 1 115 17l2 2q1 1 6 3t7 4q3 2 6 4.5t4.5 3.5t6 3.5t7.5 4.5q13 11 30 26q13 12 15 15q21 24 34 49q11 20 17 47q4 21 3 38q0 1 -1 2.5t-2 2.5q0 2 1 3.5t1 2.5q-1 2 -2 5l-1 1l1 1q1 1 1 2t-0.5 4.5t-0.5 5.5h-1l1 3q-1 11 -8.5 21.5t-16.5 16.5
q-9 5 -20 5l-2 -1q-2 0 -4 0.5t-3 0.5q-28 -2 -51 -9q-7 -2 -30 -14q-7 -3 -24 -13.5t-20 -11.5q-1 0 -4 -3q-1 -5 -2 -15q-2 -9 -4.5 -18t-6.5 -19.5t-6 -15.5q-1 -4 -2.5 -11.5t-3.5 -11.5q-2 -8 -8.5 -25t-8.5 -23q0 -1 -0.5 -3t-1.5 -2v-3.5v-2.5q-3 -12 -12 -41.5
t-12 -37.5q-1 -6 -4 -12zM-57 -219q-3 3 -3 12t-1 10q0 1 1 2.5t1 2.5q-1 0 -1 1l1 2l1 2l-1 1h-1l1 2q1 2 1 3q1 11 5 26t7 24t9.5 27.5t8.5 23.5l-1 2q0 2 1.5 5.5t2.5 5.5q0 2 0.5 5t1 4.5t3 5t2.5 5.5q3 6 6.5 13.5t4.5 11.5q1 2 3.5 6t3.5 7q2 5 3.5 11.5t3 14.5
t3.5 12q0 3 4 19.5t7 24.5q4 14 17 50v4.5t1 3.5q1 2 2.5 4.5t2.5 2.5q1 3 1.5 5.5t0.5 4v2.5q1 1 2 1.5t1 1.5q4 10 7 17h-1l-1 1l4 4q8 16 16 53q0 2 2 9t2 9l-1 2q0 2 1 4l2 1q2 9 12 41q1 3 3 12.5t3 13.5t3 13t4 16t4 9v3q0 3 1 4h1q1 0 1 3t0.5 3.5l1.5 1.5l2 1
q2 2 2.5 4t1 3l1 2t2.5 1q1 1 1 2l1 2q3 1 13 1.5t12 -1.5q0 -1 5 -5q5 -3 6 -8q0 -1 1.5 -0.5t2.5 -0.5l1 -4q1 -3 2 -3q2 -4 8.5 -12.5t9.5 -12.5q32 18 66 29q29 8 74 11q22 1 33 0q40 -5 76 -28l7 -6q2 -2 4.5 -4t3.5 -3q15 -25 17.5 -65.5t-7.5 -65.5l-7.5 -15t-9 -14
t-8.5 -10.5t-10 -11t-9 -9.5q-1 -2 -3.5 -6t-4.5 -8l-2 -4q-9 -14 -24 -27q-4 -4 -7.5 -5.5t-7.5 -5.5l-2 -3q-22 -18 -31 -25q-3 -2 -9 -5l-2 2q-5 -9 -24 -17q-31 -15 -56 -24q-2 -1 -6 -2t-5 -1.5t-3.5 -1.5t-4.5 -2q-1 0 -14 -2q-11 -2 -28 -6q-2 0 -5.5 -0.5t-5.5 -1.5
q-3 0 -6.5 -1.5t-4.5 -1.5q-21 -2 -49 2q-12 2 -15 3v-5l1 -4q-1 -9 -6 -20q-1 -4 -3.5 -5t-3.5 -5l1 -2q-1 -3 -3.5 -10t-4.5 -12l-2 -4t-2 -1l-3 1q3 -6 -3 -18q-10 -17 -15 -37q0 -1 -1.5 -3.5t-1.5 -3.5v-3t-1 -3q0 -2 -2 -4.5t-3 -4.5q-4 -9 -6 -20q0 -1 -1 -3.5
t-1 -4.5t1 -5.5t1 -4.5q-2 -10 -18 -36q-12 -18 -13 -20q-4 -3 -6 -6q-2 -2 -12 2l-5 -4l-5 -4q-1 1 -15 8.5t-20 15.5z" />
    <glyph glyph-name="q" unicode="q" horiz-adv-x="368" 
d="M320 332q5 7 9 13q-16 5 -43 -9q-36 -20 -72 -49q-10 -8 -31 -28q-38 -36 -44 -57q-1 -1 -2 -3.5t-1 -4.5q-1 -2 -1 -5t-1 -3q-1 -4 -15.5 -54.5t-18.5 -71.5q-1 7 -19 3q-11 -2 -8 -9q1 -1 16 3q5 2 11 3q12 3 14 4q5 2 7.5 2t6.5 2l3 2q11 6 27 18l7 4l1 -1q2 3 19 20
q23 22 40 49q1 1 3.5 4.5t3.5 5.5t2 4.5t2.5 5t5 6.5t4.5 7q10 14 15 29q1 2 2.5 6t2.5 7q1 4 1.5 8.5t0.5 6.5q2 7 6 15.5t7 13.5t7.5 11.5t5.5 8.5q13 22 15 24q4 4 6 7t5 2zM378 -39q1 -3 -2 -8.5t-3 -6.5h-1l-1.5 -1.5l-0.5 -0.5l1 -1l-1 -1h-1.5t0.5 -1q0 -1 -1 -1.5
t-2 -0.5q-14 -16 -55 -31l-1 -2q-1 0 -3 -0.5t-3 -0.5q-1 -1 -2.5 -2t-2.5 -1h-3h-3q-3 0 -7 -0.5t-7 -0.5h-3.5h-3.5q-3 0 -8 -2t-7 -2q-14 -3 -15 -3q-4 -1 -10 -1q-8 -17 -11 -36q-1 -2 -2 -4.5t-1 -4.5v-3v-3l-2.5 -5t-2.5 -4q-3 -10 -3 -19v-3.5v-3.5q1 -2 2.5 -4.5
t1.5 -3.5q2 -8 -7 -20q-4 -7 -5 -7q-3 -1 -4 -2q-1 0 -14 1l-4 -1l-4 -2q-5 1 -15 1t-18 1t-17 3q-2 1 -6.5 6t-5 5.5t0 1.5t0.5 1.5t-1 0.5h-1l1 1v1.5t-1 0.5h-1v1l1 2q-4 23 18 94q-4 -1 -7 -1q-2 0 -7.5 -1t-8.5 -1q-2 0 -8 -1t-9 -1h-6l-1 -1h-2.5t-0.5 1l-1 -1h-2.5
t-1.5 1l-1 1q-6 2 -7 2q0 1 -1 1h-1q-2 1 -4.5 7t-1.5 7t2 4q0 4 2 6q1 0 0.5 1t-0.5 1.5t1.5 1.5t1.5 2q2 2 4.5 7t4.5 8.5t5 4.5q10 4 33 9q7 2 19.5 3t15 1.5t5.5 0.5q5 10 7 17q2 2 5 8t4 9q4 9 9.5 26.5t7.5 22.5q1 4 3 10q-5 -3 -11 -6q-7 -3 -24 -9q-40 -13 -64 -17
q-87 -13 -101 32q-5 16 -0.5 32.5t15 36.5t12.5 25q1 4 1.5 7.5t1.5 6.5q2 4 4.5 8t2.5 5q3 7 5.5 14t2.5 8q0 2 2 3.5t3 2.5q8 17 20 34h-1l-1 1q1 2 3 4t4 3l2 2l40 36t44 38q6 5 18.5 14t14.5 10l3 4q4 2 7.5 3.5t4.5 2.5q40 23 74 34q20 7 38 8q40 3 49 -2h1q1 1 2 1
l1 1q0 1 1 1l1 -1v1q1 2 1.5 2h2.5l1 -1q6 1 6.5 1h0.5h1q2 -1 9.5 -4.5t7.5 -5.5l3 -3q4 -3 4 -5q0 -1 1 -2h2v-2q1 -1 1 -2q2 -2 5.5 -7t6 -8.5t1.5 -5.5q-1 -7 -11 -29q-4 -8 -12 -21.5t-11 -20.5q-2 -5 -5.5 -13t-4.5 -11q-2 -4 -13.5 -29.5t-14.5 -34.5q-1 -2 -2 -4.5
t-2 -3.5q0 -2 -0.5 -4.5t-1.5 -3.5q-6 -18 -22 -56.5t-20 -50.5q-4 -10 -8.5 -19t-9.5 -18.5t-8 -14.5q0 -1 -0.5 -4.5t0.5 -6.5v-4q-2 -9 -8 -24q-2 -4 -4 -5.5t-4 -4.5q1 -1 2 -1l1 1q1 0 3 0.5t3 0.5q2 1 2 0l1 -3q1 4 4 4h1q7 1 13 6q1 0 2 0.5t1.5 1t0.5 1.5t1 1
t2.5 0.5t2.5 0.5q4 2 7 6l2 2t1.5 2t1 3t0.5 3q3 4 19 9q12 4 13 4q3 -1 5 0q2 0 7 -8h4l5 -1l7 -13q6 -12 8 -21z" />
    <glyph glyph-name="r" unicode="r" horiz-adv-x="375" 
d="M25 -3q-2 1 -5 5l-4 4q-1 1 0 1.5t0 1.5h-1l1 1q0 1 -1 1l-1 1v1l1 1q-3 15 14 69l-1 2q1 2 2 5t2 4q0 2 0.5 5t1 4.5t2.5 4.5t3 4l5 12.5t5 10.5l3 6l3 6q2 4 3.5 9.5t3 12.5t2.5 10.5t4 15.5l4.5 18t6 18t6.5 17v4v4q1 2 3 4l1 2q1 3 1.5 5t0.5 4v2q0 1 1 2t2 1
q2 10 5 17h-1h-1l3 5q6 16 10 49q0 1 1 6t1 7l-2 1q0 1 1 2t1 2q2 8 5 19q1 1 1 4t0.5 4l1.5 3l1.5 3t2.5 2v1h1h1v1h2l1 1q2 1 2.5 1.5t2.5 1.5q1 0 2 1q20 10 22 9l6 1q5 1 7 0q1 0 3 1h1h2l2 -1q2 -1 8 -1.5t9.5 -1t6.5 -2t4 -3.5q4 -10 3 -30q0 -7 -4 -20t-4 -15
q-1 -3 -1.5 -9.5t-1.5 -9.5q0 -1 -1 -2q5 3 7 6q1 1 2.5 2t2.5 1q1 1 2 2.5t2 2.5q28 23 60 37q9 3 30 6q1 0 5 3q1 1 2 1q4 2 12 3q2 0 3.5 -0.5t3.5 -0.5l2 1q2 0 7.5 1t9.5 2h5v-3q9 7 20 2q23 -9 38 -26q1 -1 2.5 -4l2 -4t2 -2.5t1.5 -3.5v-11t2 -22v-4.5t1 -4.5
q0 -2 2 -5t2 -4q0 -13 -15 -38q-11 -18 -14 -20q-4 -3 -6 -6q-2 -2 -13 2l-5 -4l-6 -4q-2 2 -16.5 9t-22.5 15q-3 2 -5 10t-3 9q0 1 1 3v1h-1q-1 0 -1 0.5t0.5 2t0.5 2t-1 0.5h-1l1 2v2q-9 27 -7 38h2h2q3 -1 4 -1l6 4q6 6 6 11q0 3 -1 4q-4 2 -12 -1l-15 -10
q-13 -9 -20 -14q-1 -1 -1.5 -2.5t-1.5 -2.5t-3 -1.5t-2 -1.5q-2 -1 -3 -2.5t-2 -2.5t-1 -2h-2t-1 -1q-6 -5 -11 -11v-1l-4 -2q-15 -14 -35 -44q-1 -2 -3.5 -5.5t-4.5 -6t-2 -3.5v-3l-2 -2l-2 -1q-5 -7 -21 -29q-1 -2 -4.5 -8t-5 -8t-4 -7t-5 -8.5t-4.5 -4.5v-1
q-1 -2 -1.5 -2t-1 0.5t-0.5 -0.5l-1 -2q0 -1 -0.5 -1h-1.5h-2q-2 -1 -3 -3q-1 -1 -3 -1q0 -5 -4 -14q-1 -3 -3 -3.5t-3 -3.5l1 -3q-2 -2 -4 -8t-4 -11q0 -2 -1.5 -3.5t-1.5 -0.5l-3 1q3 -5 -3 -16q-8 -15 -11 -31q0 -1 -1 -3t-1 -3t0.5 -2.5t-0.5 -2.5q0 -1 -1.5 -3t-2.5 -3
q-3 -7 -2 -14v-2v-3q0 -2 1 -4l2 -2q1 -6 -7 -16q-4 -6 -6 -6q-3 -1 -4 -1q0 -1 -12 1h-3l-4 -1q-39 8 -43 10zM313 322v1l-1 -1h1z" />
    <glyph glyph-name="s" unicode="s" horiz-adv-x="374" 
d="M57 146q3 -3 5.5 -10.5t4.5 -9.5v-2v-1h1.5h1t0.5 -1v-2h1h1v-2v-1q38 -56 90 -78h3q16 -3 19 -3q5 0 16 1q14 2 18 3q20 9 30 25q7 10 3 16q-11 13 -12 17q-6 18 -34 47q-18 18 -61 57q-3 2 -7 5t-6 5q-1 1 -11 14q-15 20 -17 25q-1 4 0 12q2 19 26 55h-1h-1q1 2 4 5.5
t6 4.5l2 2q31 23 66.5 38t60.5 18q5 0 39 -2l4 1l12 -4q41 -13 67 -35q20 -15 27 -32q6 -13 9.5 -31t0.5 -24v-4v-4q0 -1 -1 -1l-1 1q-1 -1 -1 -4.5t-0.5 -4.5t-2.5 -2l-2 -1q-2 -3 -3 -5l-1.5 -3t-1.5 -2t-3 -1q-1 0 -2 -2l-1 -1q-3 -1 -12.5 0.5t-9.5 3.5q0 1 -4 5
q-5 4 -6 7q0 1 -1.5 1h-2t-1.5 2.5t-2 2.5q-4 4 -15.5 8.5t-12.5 6.5q-1 4 -3.5 15t-5.5 17q-15 29 -40 43q-15 9 -29 7q-18 -3 -33.5 -17t-21.5 -29q-2 -5 -3 -9q-3 -10 -2 -11q2 -1 7 -9t15 -21.5t23 -24.5q35 -33 63 -65q2 -2 7 -6t9 -7.5t5 -3.5q21 -29 18 -50
q-1 -10 -2.5 -13t-4.5 -6.5t-6 -11.5l-2 -6q-24 -24 -52 -39q-2 -1 -5.5 -2t-5.5 -1l-2 -1l-1 1q-12 -9 -37 -13q-43 -6 -83 -5q-3 0 -9.5 1t-7.5 1h-5t-8 1q-6 1 -20 6q-32 11 -42 15q-3 1 -5.5 2t-5.5 2.5l-5 2.5q-4 2 -10.5 4t-8.5 3q-21 15 -32 37.5t-11 37.5
q2 31 16 47q2 2 5.5 5t6.5 7q2 2 3.5 2.5t3 0t3.5 -2t2.5 -2t2 0.5t3.5 3l3 3q8 6 8 5q4 -5 12 -14t12 -16z" />
    <glyph glyph-name="t" unicode="t" horiz-adv-x="310" 
d="M358 371q-1 -3 -7 -5.5t-6 -3t-2 -0.5h-2v-1h-2h-2v-1h-1q-2 0 -3 -1q-21 -6 -88 -14l-2 -1q-2 -1 -5 -1h-5q-1 -1 -4 -1.5t-4 -0.5h-5h-5q-4 0 -11 -0.5t-11 -0.5h-3q-28 -73 -28 -74q-1 -2 -2 -4.5t-2 -4.5q0 -2 -0.5 -5t-0.5 -4q-30 -102 -31 -104q-2 -11 -6.5 -24.5
t-5.5 -17.5q0 -1 2 -6l3 -4q1 -5 1 -15q0 -2 -2 -3t-2 -3l2 -2q0 -1 0.5 -4.5t0.5 -6.5q1 -2 -1 -2h-2l-2 -1q6 0 6 -2l-3 -2q-7 -7 -8 -11q-1 -3 -1 -4v-1v-1q1 -5 2 -6q3 -5 9 -6q5 -1 6.5 -1t3.5 0.5t3 0.5q6 1 18.5 2t16.5 2q6 1 14 2.5t11 2.5q5 0 9 1q3 1 4 -3v-1l7 1
h3l4 1q-1 -3 -1 -8t-1 -8.5t-3 -6.5t-6 -5.5t-8.5 -4t-6.5 -2.5l-3 -1h-3v-1l-3 -1l-2 -1q-1 -1 -4 -1l-2 -1q-55 -15 -116 -3h-3q-4 2 -13 8t-11 8q-3 4 -6 14q-6 17 -7 33q0 3 0.5 8.5t1.5 7.5v13.5t0.5 16t1.5 13.5q3 29 8 46q2 7 18 53q0 2 0.5 5.5t1.5 5.5q1 3 3 6.5
t3 4.5q1 4 2 7.5t1.5 6t0.5 3.5l2.5 2.5t1.5 2.5q8 20 11 28l-1 1l5 8q8 17 19 45h-1q-1 0 -3 1h-2q-3 0 -6 -1h-1q-1 -1 -1.5 0t-1.5 1h-12v-1l-4 1h-36q-2 -1 -6 -0.5t-5 0.5l-1 -1q-1 0 -2 1h-1q-8 1 -19 4q-1 0 -4.5 0.5t-5 1t-4.5 1t-5 1.5t-3 2v0h-2v1h-1.5t-0.5 1v1
q-2 3 -2 3.5t-1 0.5q-3 11 1 13l1 3q1 3 2 4q0 1 0.5 1.5l1 1t1.5 0.5l2.5 5t3.5 5l3 3q3 0 18 -1q4 0 11 -1.5t11 -1.5h5.5h5.5q3 0 10 -0.5t10.5 -0.5h8.5q1 1 2 0.5t2 -0.5h2l1 1q8 1 25 1t22 1l9 22v4q1 2 2.5 4.5t2.5 2.5q7 18 22 50q2 3 5.5 12.5t5.5 13t5 11
t5.5 12.5t4.5 6l1 2v2.5t1 0.5l1 -1v2q1 2 1 2.5t2 0.5l2 1q1 1 2.5 3t4.5 2l1 1l1 1q2 0 11 -1t10 -3q0 -1 4 -4t5 -7h2q1 0 1 -1l1 -2q0 -3 1 -4q1 -2 5.5 -9t6.5 -11.5t1 -8.5q-3 -14 -16 -52q-3 -8 -21 -48h2q16 0 32 3h3.5t3.5 1q1 0 2.5 0.5t2.5 0.5h4.5h4.5q9 0 17 3
q2 0 4 0.5t4 0.5q1 1 3.5 2t3.5 2q7 2 32 2q16 -1 17 -1q4 -1 6 -1t3 -6l4 -1l4 -1q0 -1 -0.5 -10t-3.5 -13z" />
    <glyph glyph-name="u" unicode="u" horiz-adv-x="374" 
d="M392 -36q0 -2 -8 -1.5t-8.5 0.5t-2 0.5t-1.5 1.5q-1 0 -1 -1h-1q-2 1 -3 1v-1q-1 0 -3 1l-1 1q-43 11 -79 57l-3 1q-1 2 -2.5 5.5t-2.5 5.5q0 1 -2 4t-3 5l-1 12q-1 12 -2 16q-4 -3 -8 -8l-17 -13q-28 -23 -41 -29q-36 -18 -66 -26q-26 -6 -67 -8h-16q-8 2 -15 7
q-16 11 -20 17q-1 2 -1 4.5t-1 2.5q-4 16 -4 36h-1h-1q0 1 0.5 3.5t1.5 4.5l1 2q31 107 33 112q2 7 7.5 21t6.5 18v4q1 3 3.5 6.5t2.5 4.5q6 14 30 73q2 5 7 18.5t6 18.5q3 5 6 15.5t5.5 18t4.5 9.5q1 0 1 3v3q0 1 1 0h1v3q1 3 1 3.5t2 1.5h2q2 3 3 5q1 3 3 3q1 1 1 2l1 1
q3 1 12.5 1.5t11.5 -1.5q0 -1 5 -4q4 -4 5 -8q1 -1 3 -1h1q0 -1 1 -4t1 -4q1 -3 6 -12t7.5 -15.5t0.5 -12.5q-4 -23 -22 -75q-6 -18 -18.5 -47.5t-17.5 -42.5q-4 -12 -13 -41q-16 -58 -15 -79v-3v-2q0 -1 1 -2l1 -2q1 -1 -3 -7q-10 -14 -2 -14h2q23 3 65 25l1 2l2 4l1 2
q4 5 12 14q2 3 4 3.5t5 3.5l1 3q3 3 9 11t9 11l7 6l1 -1q1 6 15 24q21 27 38 58q0 1 3 5.5t4 6.5t1.5 4.5t2 5.5t5 8t5.5 8q2 5 4 9h-1h-1l4 5q4 7 8 16q0 1 1 3q0 2 1 4.5t2 4.5t1 5q1 3 1.5 8.5t0.5 6.5q2 10 6.5 20.5t9.5 20.5l6 12q11 24 11 25q4 4 5 7q2 3 13 0
q1 0 3 3q1 1 1 2l4 5q5 -2 13.5 -5t15 -6.5t11.5 -8.5q2 -3 3 -8t0.5 -9t0.5 -8q4 -6 4 -8q-1 -5 -9 -25q-2 -5 -6 -11q-9 -27 -26 -61q-4 -11 -5 -17q-1 -1 -1 -3l-1 -1v-3.5v-2.5q-1 -4 -7 -28.5t-8 -33.5q-1 -7 -4 -17t-3 -11t1 -2.5l2 -3t2 -2.5q2 -4 1 -11
q0 -2 -1.5 -3t-1.5 -3l2 -1v-6v-7q1 -3 -1 -3h-3q6 -2 5 -7q-1 -1 -1 -2q-1 -10 3 -18v-2t0.5 -1.5t1.5 -1t1 -1.5t-0.5 -2.5t-0.5 -2.5q1 -5 5 -9q0 -1 1 -2l1.5 -1.5t2.5 -0.5h2q3 -3 6.5 -11t4.5 -9q2 -3 5 -6.5t4 -5.5l4 -4q1 -1 -1 -7l2 -3l3 -4q-2 -2 -4 -6.5
t-4.5 -7.5t-6.5 -6z" />
    <glyph glyph-name="v" unicode="v" horiz-adv-x="348" 
d="M400 366q1 -6 -4 -16l-5 -10q0 -1 -2 -4l-2 -2q0 -1 1 -1v0q0 -1 -2 -3t-2 -3h1q0 -1 -2 -3l-2 -3q-20 -36 -81 -115l-1 -2q-2 -2 -5 -5.5t-5 -6.5q-1 -1 -3 -4.5t-3.5 -5.5t-5 -5.5t-5.5 -4.5q-5 -6 -12.5 -14t-10.5 -12q-2 -2 -6 -6.5t-6 -6.5t-30 -40
q-4 -6 -15.5 -21.5t-17.5 -24.5q-21 -28 -56 -34q-3 0 -7 -2t-7 -2q-11 -3 -18 0q-16 6 -22 12q-1 1 -2 3v3q-7 13 -11 33h-1l-1 -1l1 11q0 103 3 137q1 7 2 14.5t1.5 12t0.5 6.5l-2 3q0 2 1.5 4.5t1.5 3.5q1 22 6 57q0 3 1.5 15t2.5 17q8 37 9 38q0 1 1 4v2v0h2v2
q0 3 0.5 3.5t1.5 0.5l2 1q2 2 3 4.5t4 2.5q1 0 1 1l1 1q2 1 10.5 0t9.5 -3l4 -3q4 -3 5 -6h2q1 0 1.5 -0.5t1 -2.5t1.5 -2q2 -3 7.5 -8t9 -9.5t3.5 -8.5q1 -11 0 -55q0 -14 -7 -73q-3 -20 -4 -40q-3 -53 -1 -85q16 14 18 17q1 1 2.5 4.5t3.5 6.5l1 3q5 8 15 20q3 4 5.5 4.5
t5.5 4.5v3q3 3 8.5 10t10.5 12l5 5l2 -2q1 6 12 19q17 17 31 37q1 1 3 3.5t3 4.5q1 1 2 3t2 3.5t4 4.5l5 5q8 10 15 21l2.5 5l2.5 5q2 3 3 6.5t2 4.5q5 10 32 42q19 22 21 23q5 4 9 8q2 2 8 -2l7 5l2 2q2 1 3 2l1 1q2 -4 6.5 -9.5t7 -10t3.5 -9.5z" />
    <glyph glyph-name="w" unicode="w" horiz-adv-x="562" 
d="M614 421q0 -3 -3.5 -7t-4.5 -4l-1 -1l-1 -1v-1l-1 -1q-1 0 -1.5 -0.5t0.5 -0.5q0 -1 -2 -1l-1 -1q-2 -4 -21 -27.5t-29 -37.5v-2q-1 -2 -2.5 -4.5t-2.5 -4.5t-2 -4.5t-2 -4t-3.5 -4.5t-3.5 -4q-2 -4 -4.5 -7.5t-5 -7.5t-4.5 -7q-1 -1 -3.5 -5t-3.5 -6l-15 -32
q0 -2 -5.5 -14.5t-8.5 -19.5q-3 -5 -6.5 -11t-7.5 -13.5t-6 -11.5q-1 -1 -1.5 -3.5t-1.5 -4.5q-1 -1 -3 -3.5t-3 -2.5q-1 -3 -2 -5l-2 -4l-1 -2q0 -1 -1 -2l-2 -1q-3 -5 -11 -18l1 -1l-5 -4q-7 -8 -21 -27t-19 -25l-8.5 -8.5l-6.5 -6.5l-1 -2q-1 -1 -3 -2l-2 -1
q-14 -12 -26 -19q2 -6 -4 -21q-4 -10 -5 -11q-3 -2 -4 -3q0 -1 -10 -1l-3 -2l-3 -2q-1 0 -14 2t-22 4l-4.5 4.5l-4.5 4.5v1v1h-1q-1 0 -1 1l1 1h-1h-1l1 1q0 1 -1 1q-4 11 -6 60l-2 2v3.5v4.5q0 1 -0.5 3t-0.5 3.5t0.5 4t1.5 3.5q0 5 0.5 10.5t1.5 9.5q0 1 0.5 4.5t0.5 5.5
q0 5 -0.5 14t-0.5 12q-2 25 -2 27q1 6 2 18t1.5 13t-0.5 3q-1 -2 -1 -4l-1 -3q-2 -4 -5 -9.5t-5 -9.5q-1 -2 -3 -7.5t-4 -8.5q-1 -3 -5 -9t-5 -8q-19 -32 -26 -42q-2 -5 -7 -11.5t-6 -8.5q-27 -40 -36 -50q-23 -27 -43 -41q-15 -10 -34.5 -11t-35.5 14q-2 2 -2 10q0 2 1 5
t1 4v9v5q0 2 1 3t1 2q1 6 2.5 16t2.5 14h-1h-1l3 10q8 37 19 128q1 5 2.5 15t2.5 17.5t1 10.5l-1 5q0 3 1.5 7t1.5 6q1 13 3.5 37.5t4.5 39.5v18v17t-0.5 14.5t-0.5 14t1 8.5l-1 2v2h1q0 1 -0.5 2.5t-0.5 2t1 1.5l1 1l2 7q1 1 1 1.5v1.5q1 1 7 5.5t7 3.5h5q5 0 8 -2
q0 -1 1 0l1 1l3 -3l2 -2q3 -2 8.5 -5.5t8.5 -6t6.5 -6t4.5 -8.5q7 -29 6 -76q0 -17 -11 -102q-1 -7 -3 -24t-3 -26q-3 -17 -8 -49.5t-7 -44.5q1 1 2 2.5t2 2.5q2 5 4 6.5t5 5.5l1 4q3 5 8 15t9 15l5 9l2 -2q0 8 12 28q16 28 32 62q1 2 3.5 6t3.5 6t2 4.5t2.5 5.5t5 8t4.5 6
q8 13 18 30q1 3 3.5 6.5t3.5 5.5q2 3 3.5 7.5t2.5 5.5q15 22 40 42q11 8 16 11q3 4 4 4q1 1 1.5 2t0.5 1.5t1 -0.5l1 1l1 2h1h2l5 3q1 0 2 1q7 0 14 -5q3 1 3 2q0 -3 1 -8q1 -2 1 -3h1q1 -1 1.5 -1t0.5 -2v-2q1 -2 4 -6.5t4.5 -8t1.5 -5.5q-1 -6 -4 -16.5t-3 -11.5
q-2 -5 -5.5 -15.5l-5.5 -16.5q-1 -3 -1.5 -9t-0.5 -7q-6 -35 -6 -38v-2.5v-2.5v-2v-2q0 -9 -1 -29.5t-1 -27.5l-5 -28l2 -3q2 -3 2 -4q2 -4 1 -12q0 -2 -1.5 -3.5t-1.5 -3.5l2 -1q-1 -2 -1 -7v-8l-1 -4h-3q4 -3 2 -13v-1q1 1 10 15q21 33 25 42q0 1 1 2.5t1 2.5q1 1 1 3l1 2
l19 38t16 33q2 4 22 34q0 1 0.5 3.5t0.5 5.5v2q2 7 8 17q2 3 4 3.5t4 3.5v3q1 2 5 8t7 11q4 6 4 4q1 0 3 -1q-1 6 8 17q12 13 26 31q1 2 3 3.5t2.5 2.5t1.5 2.5l2 3t4 3.5t4 3q7 6 14 14q2 1 3.5 2.5l2.5 2.5q1 2 2.5 4.5t2.5 2.5q10 9 31 16q14 6 17 6q4 0 6 1q2 0 4 -4h4
h4q0 -1 1.5 -8t0.5 -11z" />
    <glyph glyph-name="x" unicode="x" horiz-adv-x="539" 
d="M578 432q-3 -2 -9 -2t-7 -1l-2 1h-2v-1l-2 1q-1 0 -2 -1h-2h-2q-50 -17 -98 -56l-1 -3q-2 -1 -6 -4.5t-7 -6.5q-2 -2 -5 -5.5t-4.5 -5.5t-6.5 -5.5t-7 -6.5q-8 -7 -31 -30q-2 -2 -8 -7.5t-8 -9.5q-4 -4 -38 -47q-4 -4 -17.5 -22t-21 -27t-17.5 -20q1 -1 1 -2q4 -4 5 -12
q1 -3 -0.5 -4.5t-0.5 -4.5l2 -1q0 -2 2 -7t2 -8q1 -2 1 -3t-1 -2l-3 -1q3 -1 4.5 -2t2 -2.5t0.5 -3.5v-3q4 -15 12 -27q0 -1 1 -3t1.5 -2.5t1.5 -1t2 -2t1.5 -4t1.5 -3.5q3 -7 10 -13q0 -1 1.5 -2.5t3.5 -1.5q1 -1 3.5 -2t3.5 -1q4 -3 8 -8t7.5 -10t4.5 -7l7.5 -7.5
t5.5 -7.5q2 -3 5 -5q1 -2 -2 -8q-1 0 2 -4l4 -4q-3 -3 -6.5 -7t-6.5 -7t-7 -5t-12 0t-8.5 2t-1.5 1l-2 1h-1v-1l-2 1l-2 2h-1v-1l-2 1q-2 1 -2 2q-42 17 -88 67l-2 1q-2 2 -4 5t-4 5q0 1 -2.5 3.5t-3.5 4.5t-2.5 6.5t-2.5 4.5q-6 15 -7 18q-8 -7 -18 -17l1 -1l-8 -5
q-60 -46 -75 -55q-5 -3 -14 -7l-10 -3l-2 -2q-2 -1 -4.5 -1h-3.5q-23 -6 -45 -7q-16 -1 -24 0q-27 5 -31 10l-2 1l-3 1v1l-1 1q-3 1 -3 1.5v1.5t-1 2l-2 4l-2 1v2v2l-1 1q0 2 5 9.5t7 6.5l4 2q5 2 7 2q1 0 1.5 1t1 1t2 -0.5t2.5 -0.5q2 1 7 2.5t7 2t5 -0.5q15 -11 22 -11
q16 -1 36 11q5 3 17 14q33 29 49 47q0 1 2 3l3 3q2 2 3.5 4.5t1.5 3.5q12 14 39 46q-1 4 -2 7q-1 7 -3 18.5t-3 15.5q-1 2 -2 3.5t-1 2.5v5v2q0 3 -1 4.5t-1.5 3t-0.5 2.5q-1 0 0 2l1 1q-2 9 -4 16l-1 -1v5q-2 17 -15 47q-1 2 -3 7.5t-3 6.5l-2 1v2.5v2.5q-15 31 -14 45
l-1 7q-6 -6 -8 -5h-1h-2h-1h-1h-2.5t-1 0.5t-1.5 0.5q-2 0 -4 -0.5t-3 0.5h-2h-1q0 2 3.5 7.5t4.5 5.5t2 2l-1 2v1v1h-1q-8 12 -4 14q28 12 49 9q33 -5 66 -59q11 -19 12 -20q5 -9 11.5 -27.5t7.5 -21.5q1 -1 1.5 -2.5t0.5 -2.5q0 -2 1 -3l2 -2q3 -8 5 -18l15 15q2 1 4 5
l4 8l1 3q7 10 20 24q4 4 7 5t7 6l2 3q1 1 10 10.5t17 16.5l8 6l2 -2q3 9 21 22q12 9 28.5 22t22.5 17q2 1 5.5 3t5.5 3l3 3t4 3l14 6q7 3 27 12q2 2 5 3t5 2q3 1 6 3t4 3q20 6 47 6q20 0 25 -1q6 -2 8.5 -2.5t0.5 -6.5q0 -1 3 -2q1 0 2 -1l5 -2q-2 -2 -6 -10.5t-8 -12.5z
" />
    <glyph glyph-name="y" unicode="y" horiz-adv-x="445" 
d="M15 -138q3 1 10 -2t8 -3l1 -2q2 -2 3 -2v1q1 0 3 -2l1 -1v1h1l2 -2q1 -1 2 -1q23 -8 59.5 -8t63.5 12l1 2q7 8 8.5 9.5t3 4.5t2.5 4.5t3.5 4.5t3.5 5q7 10 19 30q1 1 5 7t5 10q6 13 21 54q4 11 11 32q-51 -22 -105 -26h-3q-3 0 -18 2q-13 1 -16 2q-8 2 -17 7
q-23 14 -35 32q-6 7 -10 22q-8 28 -7 50q2 32 9 59q3 10 28 72q1 4 1.5 8t1.5 7q2 3 4 7.5t3 5.5l4 19q1 2 2 3.5t1 2.5q4 14 7 26h-1h-1l3 7q0 3 0.5 7t1 6t0.5 4t1 2.5t2.5 1t3.5 0.5q4 0 7.5 4t4.5 6h-1v1q0 2 -1 2q-11 2 -30 -5q-1 -1 -26 -13q-6 -3 -24 -13t-22 -12
q-1 0 -4 -2.5t-4 -2.5v1q-1 0 -4.5 -2.5t-4 -3t-2.5 -0.5t-2 -1q-14 -6 -15 -6l-2 -1l-3 -1q-1 -1 -4 0.5t-5 3.5t-1 3.5t4 5.5q2 5 7 9q1 1 0 2h-1l4 4t4 3q4 4 10 12t11 13t10 9q35 21 63 30q17 5 58 10q30 3 39 -7q22 -24 14 -80q0 -2 -1 -5t-1 -4q-1 -2 -1 -5v-4
q-5 -16 -23 -66.5t-22 -68.5q-2 -9 -4.5 -20t-4 -18t-2.5 -13q0 -1 1 -3t2.5 -4t2.5 -3q3 -6 3 -12q0 -1 -2 -2t-2 -2h1h1v-1q-1 -1 -1 -3.5v-4.5q-1 -4 -2 -4l-3 -2q3 0 3.5 -1.5t0 -4.5t-0.5 -4q5 -17 22 -24q4 -2 8 -2h2.5h3.5q9 -1 10 -1q12 1 22 6q7 4 9 5t3.5 2.5l3 3
t1.5 2.5q7 6 19.5 16t15.5 13q4 5 10 11.5t8 8.5q4 3 7 7q3 7 5 13q1 4 1.5 8t1.5 7q1 4 3.5 8.5t3.5 5.5q1 6 2.5 10.5t2 8t1.5 4.5q0 2 1.5 3.5t2.5 3.5q11 31 12 35v1h-1q0 2 1 4.5t3 3.5l1 2q7 16 22 52.5t20 49.5q3 5 9.5 14.5t6.5 10.5l1 3q1 2 4 4l2 2q20 21 41 30
q11 5 23 6q26 2 28 1h3h2v-1h2h2.5t0.5 -1l1 -1q1 -2 3 -2.5t2 -2.5q0 -1 1 -2h1q0 -2 -3 -8.5t-5 -6.5l-3 -2q-3 -2 -5 -2v-1l-1 -1h-1h-2q-2 -1 -4.5 -3.5t-3.5 -2.5q-5 0 -8 -13q0 -1 -15 -36q-2 -5 -5 -14.5t-4 -11.5q-25 -71 -28 -81q0 -1 -1.5 -4.5t-1.5 -5.5
q-1 -2 -1.5 -5.5t-0.5 -5.5q-15 -53 -49 -147q-6 -19 -33 -71q-1 -2 -1.5 -6.5t-1.5 -8.5v-4q-5 -14 -15 -30q-3 -6 -6 -7.5t-6 -6.5l-1 -4q-16 -23 -22 -31l-8 -7l-2 2q-2 -11 -19 -22q-27 -18 -56 -31q-3 -1 -7.5 -2t-6 -1.5t-4 -1.5t-5.5 -2q-4 -1 -17 -3q-6 -1 -13.5 -2
t-12.5 -2t-8 -1.5t-7.5 -1t-6.5 -0.5q-3 0 -7.5 -1t-6.5 -1q-31 -1 -60 9q-23 9 -30 15t-8 7q-3 2 3 9q1 1 -2 4l-1 2q-4 6 -4 7q4 2 15 9.5t19 10.5z" />
    <glyph glyph-name="z" unicode="z" horiz-adv-x="400" 
d="M398 337l1 1h-1v-1zM16 28q-1 1 -2 4t-1.5 7t-1.5 5l1 1l1.5 1.5t-0.5 1.5h-1l1 1q1 1 1 1.5t-1 0.5q0 1 1 2l1 1q9 24 58 70v2q2 1 5 3.5t4 3.5l3.5 3.5l4 4t5 3.5t4.5 3q5 3 12 8t11 8q2 2 6 4t6 4q6 4 16 13.5t13 11.5q2 2 12 11t16 13.5t17 13t16 12.5q2 1 3 3t3 3
q1 2 3.5 3t3.5 2q2 1 4 3t3 3.5t2 1.5q1 1 2 1.5t2 0.5q8 7 15 13h-1v1l6 3q18 15 43 45q1 2 4 5l4 4h-7q-5 -1 -15.5 -3.5t-11.5 -3.5q-1 0 -12.5 -2.5t-16.5 -3.5q-7 -1 -19 -2.5t-15 -1.5q-1 -1 -3 -1.5t-3 -0.5q-2 -1 -4 -1l-3 1q-2 0 -4.5 -0.5t-4.5 -0.5l-1 -1
q-1 0 -2 0.5t-1.5 0.5t-7 -0.5t-9.5 -0.5v-1v-1l-5 1q-8 1 -17.5 0.5t-20 -1.5t-14.5 -1q-2 0 -8 0.5t-8 0.5l-2 -2q-1 0 -2 1l-2 1q-14 1 -30 6q-15 5 -16 5t-6.5 3t-8.5 5t-3 4q0 1 -2 2h-1l1 1v1h-2q-1 1 -1 1.5t1 2t1 2.5t-0.5 3.5t2.5 4.5v1v1q3 3 13 12t12 9q1 0 7 4
t8 5l1 2q2 1 2.5 1t1.5 0.5t2 1.5q19 14 19 17v-7t2 -5q7 -11 16 -15q2 -1 12 -2q24 -3 35 -2h2h2q2 0 3 0.5t2 0.5q7 1 29.5 4t31.5 4q1 1 33 3l2 1q2 1 3 2l2 1q5 3 14 4q3 0 4.5 -1t3.5 -1l2 2q2 0 7 1t9 1l5 -1v-2q3 4 13 4q14 0 28 3h2.5h2.5t2 1t2 1t3 -0.5t3 -0.5
q5 2 6 1q1 0 1 1h1q1 0 4 -1q1 0 1.5 0.5t2.5 1t3 0.5q1 1 3 2.5t3 2.5q7 2 26 0q15 -2 17 -4q2 -3 5 -4q1 -1 -8 -12q-2 -1 -1 -3l1 -2q1 -3 0 -4q-11 -9 -13 -11q9 -14 7 -19q-6 -12 -23 -32q-5 -6 -11 -11.5t-13 -11.5t-11 -10l-8.5 -8.5l-8.5 -8.5q-7 -6 -22.5 -19.5
t-20.5 -17.5l-2.5 -2.5t-2.5 -1.5q-1 -2 -3 -4l-1 -1q-9 -8 -21 -18t-26.5 -21t-19.5 -16l-35 -23q0 -1 -1.5 -3t-2.5 -4l-1 -2q-5 -6 -14 -13q-3 -2 -5 -2t-4 -2l-1 -2q-3 -2 -8 -6.5t-8 -7.5l-5 -3l-2 2q0 -6 -8 -11q5 0 15.5 0.5t14.5 1.5l1 -1h3h3l1 1q21 0 49 -7
q4 -1 18 -11q1 -1 3 0q2 2 3 2q3 0 8 -3q1 -1 1.5 -2.5t1.5 -2.5l1 1q2 -1 4.5 -2t4.5 -2q3 -2 2 -3v-1v-1q3 4 6 1q1 -1 2 -1q8 -4 18 -3h1q2 0 2.5 0.5l1 1t1.5 0.5h2.5h2.5q6 1 10 5l2 1l2 2t1.5 3t1.5 3q3 3 20 11q12 5 13 5q3 0 6 1q2 0 5 -6l2 -2h4h5q2 -4 6 -10.5
t6.5 -12.5t3.5 -12q0 -3 -3.5 -9.5t-4 -7t-2.5 -1.5h-1v-1q0 -1 -1 -1l-2 -1v-1q0 -1 -2 -2h-1q-24 -18 -79 -28q-1 0 -1 -1q-2 -1 -4.5 -1h-4.5q-1 0 -3.5 -1t-4 -1t-4.5 0.5t-4 0.5q-15 1 -19 2q-2 0 -4.5 1t-4.5 1h-11.5t-11.5 1q-17 2 -21 3q-1 0 -20 8h-2t-2 0.5
t-2 1.5l-1 1q-2 1 -5 1h-1q0 1 -1 2v1q-5 2 -8 4l-1 -1v-1l-2 3q-11 6 -28 6h-10l-1 -2q-1 0 -2 1h-1q-3 -1 -10 -2.5t-12 -2.5l-6 -3q-1 -3 -9 -13q-6 -6 -7 -6q-3 -1 -4 -2q-1 0 -12 5h-4l-4 -1q-5 2 -13.5 6t-15.5 7.5t-14 9.5z" />
    <glyph glyph-name="braceleft" unicode="{" horiz-adv-x="405" 
d="M292 -163q-5 -3 -11 -4.5t-11.5 -2.5t-7.5 -1q-1 0 -4 -1h-4v-1h-4h-4q-1 0 0 -1h-6h-2q-78 -6 -141 27l-3 1q-3 2 -11 12q-8 9 -9 12q-2 4 -5 15q-3 21 -3 37q1 4 2 10.5t1 8.5q5 43 6 47q5 30 11 47q1 2 19 50q0 2 0.5 5t1.5 5t3 5t2 4l2 6l2 6v2q1 2 2 3l1 1
q5 13 9 22l-1 1h-1l4 6q12 29 12 53q0 7 -1 7h-1l1 1q1 1 2 16q0 7 -4 14q-2 4 -16 14q-8 -1 -11 0q-4 1 -7 1q-1 0 -1 5q0 1 -2 1q-1 1 -2 1l-3 1q1 3 3 8q-2 7 1 7q1 0 3 2q1 1 1 2q2 2 7 3l4 1h2h2v1h2h1v1h1h2q50 24 74 56v3l2 8q0 1 -0.5 2.5t-0.5 2.5t1 2.5t1 2.5
q2 3 4 8.5t4 9.5l3 6t2 6q2 7 5.5 21l4.5 18q10 43 11 45q1 3 18 52q1 3 1.5 6t0.5 5q1 3 3 6t3 4q1 4 2 7.5t1.5 5.5t1.5 3q0 2 1.5 3t1.5 2q4 10 11 25h-1l4 7q35 57 43 65q2 3 5.5 5.5t7.5 5t5 3.5l1 1q0 1 6 2q17 5 37 7q17 2 21 1q9 -2 21.5 -8.5t15.5 -11.5l4 -3
q4 -4 4 -5h-1q3 -14 2 -17q-3 -5 -9 -7q-16 -4 -20 -2h-2h-2q-2 0 -3.5 3.5t-0.5 4.5q2 1 2 3q2 3 0 5q-1 0 -1 1q-1 1 -6 1t-6 -2q-2 -4 -6 -10l-4 -7l-1 1q-2 4 -3.5 8.5t-2 6.5t-1.5 3q-4 0 -10 -15q0 -2 -1.5 -7t-3.5 -7q-1 -5 -5.5 -15.5t-8 -19t-5.5 -14.5q0 -1 -1 -3
t-1 -3q-1 -2 -1 -5v-2q-4 -15 -15.5 -50.5t-15.5 -49.5q-2 -5 -19 -48v-4.5t0.5 -5.5t0.5 -4q-1 -8 -6 -20q-1 -4 -3 -5t-4 -5l1 -3q-1 -1 -3.5 -8t-4.5 -13l-4 -4l-3 1q3 -7 -5 -16q-14 -15 -33 -31q-1 -1 -4.5 -3t-4.5 -3l-2.5 -2.5t-3.5 -2.5l-4 -2t-4.5 -2t-3.5 -2
q-9 -4 -21 -11q5 -3 8 -6q27 -24 24 -62q-1 -12 -4 -22q-2 -10 -9 -29t-9 -26q0 -1 -1 -3t-2 -3q0 -2 -0.5 -4t-0.5 -3q-3 -10 -15 -44.5t-16 -48.5q-3 -11 -8 -25.5t-6 -19.5q-1 -1 0 -3.5t1 -4.5l1 -3q1 -6 0 -19q-1 -3 -2.5 -4t-1.5 -4l2 -2v-9.5t1 -7.5q0 -5 -2 -5h-3
q6 -2 5 -10q-2 -11 1 -20v-2q0 -2 0.5 -2.5l1 -1t0.5 -2.5l1 -3q1 -3 2 -4q5 -7 12 -11q6 -2 8 -3t6 -1h3q44 -7 48 -7q9 -1 20 -0.5t13 0.5q7 0 13 1q3 0 3.5 -1t0.5 -2v-1h9h9q-2 -3 -4.5 -7.5t-4.5 -7t-4 -4.5z" />
    <glyph glyph-name="bar" unicode="|" horiz-adv-x="98" 
d="M84 -28q-3 1 -8 6l-4 4v2v2h-1q-1 -1 -1 -0.5v2.5v1h-1q-1 0 -1 1.5v2.5q-7 22 -11 117l-1 3v8.5v8.5t-1 8t-1 8t1 9t1 9q1 10 1.5 23.5t0.5 21.5q0 4 1 11.5t1 11.5q0 12 -1 35t-2 27q0 3 -1 27t-1 36q0 13 0.5 36.5t0.5 32.5q0 4 -0.5 7.5t-0.5 6.5q0 4 0.5 8.5
t0.5 5.5q1 5 0.5 9t-1 7t-0.5 4q0 2 1 4t1 3v33h-1l1 10q2 25 -1 95v15v12l-2 2q0 2 1 4.5t1 3.5q0 18 2 42q1 2 1 9v10q1 2 1 7t1 8t2 5v1v1h1q1 0 0.5 1t-0.5 1.5t2 0.5l1 1q4 4 5 4v1h1q16 6 20 3h5q5 -1 7 -2h1h2l2 -1l1 -1q2 -1 8.5 -3t10 -4.5t4.5 -4.5q2 -9 4 -36
q1 -10 0 -28.5t-1 -26.5q0 -5 0.5 -15t1.5 -15v-40t1 -41q0 -2 -0.5 -5t-0.5 -5q1 -2 1.5 -5.5t0.5 -4.5q1 -24 1 -79.5v-56.5q0 -4 -4 -70q0 -2 1 -6t3 -7l1 -4q2 -12 1 -31q0 -6 -1.5 -8.5t-1.5 -8.5l1 -4v-16v-20l-2 -10q-1 2 -3 1q5 -7 3 -29q-2 -31 0 -59v-6v-5
q0 -2 1 -4t1 -4.5t-1 -7t-1 -6.5q0 -12 2 -24q0 -2 0.5 -5t1.5 -4q0 -3 2 -5.5t3 -3.5q2 -11 -2 -33q-3 -12 -4 -14q-2 -2 -3 -4q-1 -1 -11 -2l-3 -3l-3 -2q-4 0 -11.5 -1t-14 -0.5t-13.5 1.5z" />
    <glyph glyph-name="braceright" unicode="}" horiz-adv-x="321" 
d="M298 244l-1 -1q2 0 2 0.5t-1 0.5zM-4 -182q5 3 14.5 5.5t12.5 4.5q1 0 4.5 1.5t4.5 1.5v1l4 2l4 1v1l4 2q3 1 4 1q35 23 60 61t34 81l-1 4q1 4 2.5 11t1.5 12q1 3 1.5 9.5t0.5 10.5q1 3 6 26q10 38 19 61t15 30q7 9 20.5 21.5t23 23t12.5 20.5v4q-19 -5 -20 -5t-4 3
q0 1 0.5 2.5t0.5 2v0.5h-1v1q0 1 -1 1h-1h-1l-4 4q-1 1 0 3v3q0 -1 -5 1h-1q-2 3 -2 4t1.5 1.5t1.5 1.5h-2v2.5v2.5q1 2 2 2h1h3q-5 1 -5 2l2 2q4 3 3 6v1q-1 0 -1 0.5t1 0.5h1q1 1 0 2q-1 0 -1 0.5t-0.5 0.5t-2.5 1h-2q0 2 4 2h5q-25 38 -31 65q-3 11 2 28q1 5 3 9.5t3.5 7
t1.5 3.5q3 7 5.5 14.5t2.5 8.5q1 2 2.5 3.5t2.5 3.5q7 14 19 39h-1l8 12q39 71 58 129q8 23 9 34l-1 4q0 2 1 4.5t1 3.5q-1 11 -1 21.5v15.5q0 12 -9 20q-8 8 -48 21h-3t-4.5 0.5t-3.5 0.5q-1 1 -6 1h-6t-2.5 0.5t-3.5 1.5h-9h-6t-4 1h-4h-3q-5 3 -6 8q3 0 8 2q6 2 15 3
q-1 1 0 1t7 0.5t7 0.5q5 1 18.5 3t18 2.5t17.5 -0.5q65 -9 84 -33q26 -32 8 -101q-6 -22 -17 -47q-10 -22 -30.5 -63t-25.5 -50l-3 -6l-3 -6q0 -1 -4 -12q-13 -35 -16 -65.5t7 -49.5q10 -15 12.5 -20t9.5 -18.5t8 -21.5t1.5 -20.5t-3.5 -23.5q-1 -5 -18 -23q-7 -8 -18 -18.5
t-14 -14.5q-2 -3 -3.5 -4.5l-2 -2l-1.5 -1.5t-1.5 -2t-1.5 -5l1 -3q-1 -9 -8 -37l-3 -11l-3 4v-3q2 -8 -4 -36q-4 -20 -9.5 -49.5t-6 -33t-2.5 -9t-2.5 -7.5t-1 -5.5t-2.5 -7.5q-3 -7 -10 -20q-16 -24 -27 -37q-3 -4 -13 -13q-2 -3 -5 -6l-5 -5t-4 -3q-26 -16 -76 -34
q-30 -10 -43 -12q-2 0 -16 -1q-5 0 -5 3l1 1h-1h-5h-4.5t-3.5 1t-4 1.5t-3 0.5q6 3 11.5 8t8.5 6zM294 259v-1h1l-1 -1q-1 -2 1 -3v1.5v1.5q1 2 1 3h-1h-1v-1z" />
    <glyph glyph-name="asciitilde" unicode="~" horiz-adv-x="521" 
d="M558 282q2 -1 5 -4.5t5.5 -8.5l3.5 -7q1 0 -0.5 -2t-1.5 -3h2h1q0 -1 -1 -3l-1 -2h1l2 -1l-1 -3q-1 -1 -1 -2q-4 -25 -27 -52t-56 -47l-2 -3q-3 -1 -9 -3.5t-8 -2.5l-5 -2q-5 -2 -8 -3l-16 -2q-23 -3 -34 -4h-8.5h-7.5q-35 0 -43 2q-25 3 -41 10q-10 4 -38 21
q-1 1 -3.5 1.5t-3.5 1.5q-2 1 -3.5 3.5t-2.5 2.5q-2 2 -4.5 3t-4 1.5t-1.5 1.5q-1 0 -2 1v2q-11 8 -14 11h-1v-1l-3 4q-20 19 -41 24q-9 3 -13 1l-2 -1q-1 -1 -2 -0.5t-2 0.5q-13 -8 -25 -17q-7 -6 -10 -12q-1 -2 2 -7v-3v-1v0h-2h-3t-2 -0.5t-5 -0.5q-2 0 -3 -1v0
q-33 -3 -37 1q0 1 -8 4q-8 2 -10 7h-3h-2q-1 1 -2 4t-1 4q-17 31 -9 39q18 15 54 30q17 7 64 14q27 5 28 5q23 1 66 -5q2 0 4 -1t3 -1h4.5h3.5q34 -12 76 -39q6 -4 10 -8t9 -10t6 -7q1 0 4 -1h4q3 0 9 -7q2 -1 2.5 -3t2.5 -3h1q5 -3 12 -5h2l2 -2v-2q1 2 3 3t4 1.5t3 0.5
q11 6 19 23q1 1 2.5 3t1.5 3v2.5v3t1.5 3t1.5 2.5q2 7 1 15q-1 1 -1 3t-1 4q-1 1 -4 5l-2 3q-1 3 -1.5 5.5t0 5t1.5 3.5t2 3t2 2q5 8 7 9q4 1 5 2t19 -1q1 0 6 2l6 2q7 -1 21 -2.5t24.5 -4t23.5 -7.5z" />
    <glyph glyph-name="exclamdown" unicode="&#xa1;" horiz-adv-x="205" 
d="M28 -185q-1 2 -1.5 5.5t-0.5 4.5l1 1h-1v1l1 1h-1v1v1q1 0 1 1q1 8 21 55l-1 2q1 2 2 4.5t2 4.5q0 1 0.5 3.5t1 4t2.5 4t3 3.5q2 5 5.5 12l4.5 9q0 2 2.5 5.5t2.5 5.5q1 2 9 32q1 4 3.5 15t4.5 17l6 18l6 18v4v4q1 1 2 4l2 2q1 3 1.5 5t0.5 4v2q0 1 1 2t1 2q3 10 5 17
l-1 1l3 4q5 15 12 55q1 2 2.5 8t1.5 7l-1 2q0 1 1 2.5t2 1.5q2 11 8 26q1 2 2 6.5t2 6t2 5t2.5 6t2.5 2.5t1 1v1.5t1 -0.5q1 0 0.5 1t0 1t1.5 1h2l5 2h1l1 1q3 0 11.5 -0.5t9.5 -1.5l4 -2q5 -1 6 -3h2h1.5t1.5 -1t1 -2l8 -4t9 -5.5t3 -4.5q1 -7 -2 -26q-1 -7 -5 -18.5
t-6 -16.5q0 -3 -1 -9.5t-2 -9.5q-1 -7 -6 -24t-6 -23q0 -1 -0.5 -3t-1.5 -3v-3v-3q-3 -15 -22 -75q-1 -5 -16 -36q-1 -1 0 -5l1 -5q-1 -7 -6 -17q-1 -3 -3 -4t-3 -4l1 -2l-4 -8t-5 -11l-3 -4l-3 1q2 -5 -4 -16q-10 -14 -17 -30q0 -1 -1.5 -3t-1.5 -3t-0.5 -2t-1 -2.5
t-2.5 -3.5l-3 -3q-5 -6 -8 -13q0 -1 -1 -2.5t-1 -2.5q-1 -2 -1 -5v-2q-4 -8 -19 -15q-10 -5 -12 -5h-5q-1 -1 -6 4h-3l-3 1q-1 2 -5.5 8.5t-7.5 11.5zM252 465q1 0 2.5 -3t2.5 -4h-1v0l1 -1l1 -1v0l-1 -1q1 -5 -7 -19l1 -1l-1 -1v-0.5v-1.5t-0.5 -1t-1.5 -1h-1
q-1 -1 -2.5 -2t-2.5 -2h-1l-2 -2q0 -1 -1 -3.5t-1 -3t-1 -3.5t-2 -4l-3 -3l-1 -2l3 -3t1.5 -3.5t1 -3t1 -0.5h1t-0.5 -1l-1 -1l2 -1v-1h-1v-3v-1q-1 -2 3 -7v-1v-1h2l-1 -1h-1q0 -1 -3 -4q-1 0 -1 -0.5t-1 -0.5l-5 -3h-1q-1 0 -1 -0.5t-2 -0.5l-1 -1h-2t-3 -1h-2v-1
q-20 -6 -21 -6l-5 -1q-4 -1 -6 -2h-2h-1.5h-1.5l-1 -1l-23 -4q-2 0 -4 3q-1 1 0 3t1 2.5t-0.5 0.5t-0.5 1q-1 0 -1 1v1q1 0 2.5 1t2.5 1l-1 -1h2q2 -1 4 -1t3 1l1 2q0 -4 5 -1l14 7l1 1h1h1v1h1q2 1 4 -1l1 -1h0.5t1.5 -1.5t2 -1.5q4 -2 5 -1t0 2l-1 1l-6 5q-1 0 -2 1t-2 1
q-1 1 -4 3q-10 7 -10 8l-1 1l-2 2q-3 2 -3 3q-1 0 -1.5 0.5t-1 0.5t-1.5 1v1q-1 1 -4 3.5t-5 4.5t-2 4q-1 1 1 5q1 1 3 2.5t2 2.5q1 0 1 2l1 1q0 1 2.5 4t2.5 4v1h1l-1 1v1q1 2 4.5 7.5t4 6t6.5 4.5l-1 4v2l1.5 1.5t1.5 0t2 0.5l-1 1l1 1l2 2t1 0h2v-1q-3 4 0 4h1q4 2 5 7v0
l1 1v1v0.5t1 0.5h1q2 2 2 4v1v1q0 1 -0.5 2t-0.5 2q-1 2 6 3q4 1 5 1q2 -1 3 -1l6 -4q1 -1 3 -1l1 -1h2q18 -15 22 -19zM151 365h-1l-2 2h5zM151 365l1 -1h-1v1z" />
    <glyph glyph-name="cent" unicode="&#xa2;" horiz-adv-x="349" 
d="M118 83q2 8 6 23.5t6 22.5q14 54 15 54q3 12 10.5 33t9.5 26q1 3 1 6.5t1 6.5t3 6.5t3 4.5q1 4 2 7.5t1.5 6t0.5 3.5q1 2 2 3l2 2q6 18 10 27l-1 1h-1l5 7q7 17 15 41q-15 1 -30 -1q-14 -2 -26 -10q-29 -19 -44 -46l-3 -6q-1 -2 -2 -5v-2q-17 -56 -17 -90
q0 -9 -0.5 -22.5t0.5 -20.5q0 -1 1.5 -3t3 -3.5t1.5 -2.5q3 -5 6 -16q0 -3 -1 -5t0 -5l2 -1l7 -19q0 -2 1 -4v-2l-2 -2q2 0 4 -2.5t3.5 -6t2.5 -4.5zM69 -145q-2 1 -5 5l-3 5q-1 1 -1 2l1 1h-1v2l1 1h-1h-1l1 1v2q-1 18 21 97l-1 3l2.5 7.5l2.5 7.5q0 2 1 6.5t1.5 7t3 7.5
t3.5 8l2 6h-2q-8 3 -18 9q-21 14 -35 29q-3 5 -12 19q-20 33 -26 53q-10 31 -9 59q1 25 13 65q1 2 1.5 6t2.5 7q1 3 3.5 7t3.5 4q2 6 4.5 12t3.5 6q1 2 2.5 3t2.5 2q8 13 20 26l-1 1l7 6q50 40 87 53q2 0 33 7l3 1q1 1 10 1q20 1 32 0v1q1 4 4.5 11l4.5 9v3q0 1 1.5 2.5
t1.5 2.5q8 16 19 29q8 11 9 12q12 10 14 10q1 0 1.5 0.5t1.5 0.5h1l0.5 0.5t1 0.5h1.5l1 -1q5 -1 5.5 -1.5l0.5 -0.5h1q8 -5 7 -9l2 -2l2 -4v0q1 -1 1 -1.5t1 -1t1 -1.5q1 -2 4.5 -5t6 -5t2.5 -4q1 -6 -4 -19q-2 -6 -7.5 -17.5t-8.5 -17.5q0 -3 -1 -6l6 -2q46 -19 56 -29
q1 -1 5 -3t4 -3t4 -3.5t5 -3t2 -2t1 -2.5q3 -2 5.5 -4t3.5 -3l2 -2t1 -3q0 -1 2 -2l2 -2q1 -2 0 -6t-2.5 -7t-3 -2t-7.5 1q-5 0 -12 3l-1 -1v-1q-1 0 -5 2t-5 2q-4 1 -21 4.5t-24 7.5q-26 14 -33 17q-10 -26 -13 -37q0 -1 -1 -3.5t-1 -3.5q-1 -3 -1.5 -5.5t-0.5 -3.5
q-5 -19 -18.5 -61t-17.5 -53q0 -2 -22 -58q-1 -2 -1 -5.5t0.5 -7t-0.5 -3.5q-1 -11 -7 -27q-1 -5 -3.5 -7t-3.5 -7v-3q-1 -3 -2 -7q13 0 24 3q9 2 14 3q3 1 5.5 2.5t5 2.5t3.5 2q10 4 26 10.5t27 11t18 8.5q11 6 25 13.5t18 9.5q8 4 16 9q5 3 7 -1v-1q0 -1 11 5q2 1 5 2
t4.5 2t2.5 2q-1 -5 -2 -12t-2 -11t-3 -8q-5 -7 -11.5 -12t-14 -9.5t-9.5 -6.5q-1 0 -5 -2.5t-5 -2.5q-1 -1 0 -1q-1 -1 -5 -3t-5 -2v-1q-1 -1 -10 -5q-70 -33 -154 -41q2 -6 -5 -23q-10 -26 -16 -51q0 -1 -1 -4t-1 -5q-1 -1 -0.5 -3t-0.5 -4t-2.5 -5.5t-2.5 -5.5
q-4 -10 -5 -21v-3.5v-4.5t1 -4.5t1 -3.5q-1 -10 -11 -25q-5 -9 -7 -9q-3 -2 -4 -3q-1 0 -10 2l-4 -1l-3 -1q-35 12 -36 13z" />
    <glyph glyph-name="sterling" unicode="&#xa3;" horiz-adv-x="476" 
d="M-5 99q-6 5 -7 5q2 -3 7 -5zM415 328q0 -1 -3 -3l-2 -2h-1q-1 0 -1 -1h-1l-1 -1v-1h-2q-10 -5 -58 -15l-1 -1q-1 0 -4 -0.5t-4 -0.5q-2 -1 -4 -1.5t-3.5 -1t-4.5 -0.5h-4q-4 -1 -10.5 -1.5t-11.5 -1.5q-2 0 -5.5 -0.5t-5.5 -0.5q-5 -1 -14.5 -2.5t-13.5 -2.5
q-22 -3 -28 -4q-3 0 -6 -1q-10 -22 -20 -39q-27 -46 -65 -100q-2 -3 -6 -10t-7.5 -12.5t-3.5 -6.5l-17 -17q6 -3 9 -5q4 -2 8 -3l8 -2q25 -9 27 -10q29 -8 54 -10q13 -1 21 0q8 0 21 2q63 10 86 20l18 9t14.5 8t9.5 6q7 3 14 8q5 4 7 0v-1.5t10 5.5l10 7q0 -5 0.5 -12.5
t0 -12t-2.5 -7.5q-5 -7 -11.5 -12.5t-14 -9.5t-9.5 -6q-1 0 -5.5 -2.5t-5.5 -2.5q1 -1 0 -1l-5 -2q-5 -2 -6 -3q-3 -2 -11 -5q-56 -17 -136 -16t-154 21l-6 1l-10 6q-2 -1 -4 -1l-6 -3q-44 -7 -87 -3q-10 1 -26 11l-7 7q-16 19 13.5 44.5t49.5 23.5q39 -5 73 -20
q10 12 21 32q7 13 25 45t28 48q9 17 18 32q-4 1 -16 2t-17 2q-2 0 -7 1t-6 2l-2 -1q-1 0 -2 1t-2 1q-13 5 -24 13q-9 7 -11 11q-8 16 -7 19q1 0 0 1t-1 1.5t1 0.5h1l-1 1v2l2 1l1 1q1 2 1 3t3 2q0 1 1 1v1q2 1 11 3.5t11 1.5h5q5 0 7 -1l2 1h1h1h2q3 0 8.5 1.5t9.5 2.5h3v-1
q-2 -3 -2 -5q-1 -10 4 -16q2 -2 8 -5q14 -8 27 -10h2h2h1q6 14 11 29q2 5 3 11t2 10q1 5 3.5 11.5t2.5 8.5q1 3 5 32l2 6t2 5q4 22 9 55h-1v1l4 16q36 136 76 186q16 19 63 33l6 2q13 3 18 3q41 -1 63.5 -7t50.5 -25q12 -8 24.5 -25t17.5 -30q6 -23 3 -54t-10 -41l-3 -6
l-4 -8l-1 1q-1 -1 -4.5 -6.5t-4.5 -6.5t-3.5 -2.5t-3.5 -2.5q-4 -3 -7 -6.5t-4.5 -5t-3.5 -2.5l-4 -2q-1 0 -3 -3l-3 -2q-7 -3 -13 3q-2 1 -1 3q2 2 3 8q2 7 6 15q1 1 -0.5 1t-1.5 1q1 0 3 5.5t2 6.5q0 12 -6 30t-7 19q-10 49 -22 66q-15 21 -36.5 31.5t-42.5 2.5
q-3 -1 -6.5 -4t-6 -8.5t-4 -9.5t-4 -11t-3.5 -11q-29 -74 -37 -137q-1 -2 -2 -7.5t-1 -8.5q-1 -4 -1 -9.5v-7.5q-11 -66 -45 -153h7q1 0 6 3h1q5 2 14 3q2 0 3.5 -0.5t4.5 -0.5l1 1q3 0 8 1t9 2h4v-2q3 3 13 4q15 1 28 5q1 0 3 0.5t2.5 0.5t1.5 0.5t2.5 1t3.5 0.5h3
q7 1 13 3l1 1q2 0 3 0.5l3 1.5l1 1q6 3 19 3q7 0 9 -1q1 -1 2 -1t2 -4l2 -1l2 -1q0 -1 0.5 -8.5t-0.5 -9.5zM-75 75q-3 1 -5.5 2.5t-3.5 2.5q5 -2 9 -5z" />
    <glyph glyph-name="currency" unicode="&#xa4;" horiz-adv-x="573" 
d="M430 489q-20 14 -35 15q-9 0 -17 -1q6 -7 2 -11h-10q-8 0 -18 1q-1 0 -0.5 -0.5t-0.5 -0.5t-7.5 1t-8.5 1q-15 0 -34 -1q-3 -1 -4 -2l2 2q-25 -1 -29 -1q-62 -2 -86 -23q-17 -15 -25 -40q3 -1 8 -9q3 -5 3 -6q1 -2 1 -3t-4 -7l1 -3v-3q-2 -1 -6.5 -8t-8.5 -11v-9
q5 -57 20 -94q0 -1 1.5 -5t2.5 -5q1 -3 3 -6t2 -4q48 -81 93 -88q37 -6 82 18q4 2 16 15q24 26 26 28q4 6 7 8t7 8l2 4q10 16 23 42l6 11q0 -3 1 -4q1 0 1 3q0 5 1.5 12t4.5 15t4 10q10 40 7 73q0 1 -0.5 3.5t-0.5 4.5t-0.5 3.5t-1.5 3.5t-1.5 4t0 6.5t-0.5 6.5q0 5 -2 10
q-4 1 -6 2h-2h-1l-1 1q-1 0 -2 1q-2 0 -8 2t-9.5 3.5t-3.5 3.5q-1 5 2 15q2 4 5 8zM49 50v3.5v3.5v1v0v1v1h1q0 5 10 22v1v1l1.5 1.5t0.5 1.5t0.5 1.5l1.5 1.5h1l3 3t2 3q1 0 2 1t2 1q1 2 1.5 3.5t1 4t1.5 3.5q0 1 1.5 4.5t2.5 5.5t3.5 5.5t3.5 5.5v1v1.5t1 1t2 0.5v3
q0 1 1 1h1q2 3 4 5l-1 1l2 1q3 3 10 17q0 1 1.5 2.5t1.5 2.5l-1 1h1.5t0.5 1q3 3 9 7q1 0 2.5 1.5l2 2t2.5 1.5q3 2 5 1q-13 15 -25 33l-1 -1q-1 0 -1 1l-6 13q-38 97 -33 157q0 10 5 24q-1 1 -4.5 2.5t-5.5 2.5l-13 8q-2 2 -4 3.5t-4.5 4l-4.5 4.5h-1q-2 1 -2.5 1.5
t-0.5 1.5t-1 1q-1 2 -3 3h-1q-1 1 -0.5 1.5t0 1t-2.5 3t-3 3.5h-1l-1 2q-2 6 -9 15t-8 10q0 1 -1.5 4.5t-1.5 4.5h-2q-1 1 0 2v1q-2 8 -1 19v4v6q1 1 1 4.5t1 5.5t3 3v1q-1 1 0 1h1v1v1l1 1h3q4 3 5 3t1 1v0q3 0 11.5 0.5t10.5 -0.5h5q5 -1 7 -2h1h2.5h1.5l1 -1q3 -1 9 -1
t10 -1t5 -2q2 -2 4 -8q1 -2 0 -5.5t-1 -5.5q1 -1 1.5 -2t1.5 -2q0 -1 1 -4t1.5 -5t1.5 -3v-1l1 -1h1q2 -2 5.5 -9t5.5 -9t3.5 -6.5t1.5 -5.5h1q1 1 2 1q25 24 61 40q24 10 52 14q18 2 47 2.5t38 -1.5q1 0 7.5 -0.5t7.5 -1.5q7 4 14.5 6.5t15 4t9.5 2.5q1 0 6 1t6 1v1h6l5 1
q1 0 0.5 0.5t0.5 0.5q3 1 11 0q29 0 58 -14q3 4 8.5 10t5.5 7q1 0 10 6v1v4q0 2 2 4h2h2l-1 1q1 1 2 2.5t2 2.5q2 1 2 0h1l1 -1q-3 3 0 4q1 0 1 1q4 3 6 7q0 1 1 1v1v1v1l1 1h1q2 2 1 5v1v1q0 1 -1 3l-1 1q-1 3 5 5q3 2 4 2h3t8 -4h3h3q27 -16 29 -17q1 -1 3 -4.5t2 -4.5
q-1 0 -1 -0.5t1 -0.5t0.5 -0.5t0.5 -0.5v-1l-1 -1q0 -8 -15 -27v-1q0 -1 -1 -1.5t-1.5 -1t-0.5 -1.5t-0.5 -1.5t-1.5 -1t-2 -0.5q-1 -1 -3 -2.5t-3 -2.5q-1 0 -2 -0.5t-1.5 -1t-4.5 -8.5q-1 -1 -2.5 -4t-2 -4.5t-2.5 -4t-3 -3.5v-1.5v-1t-1 -0.5q-1 -1 -1 -3h-1v0l-2 -4h1
v-1h-1q34 -36 43 -83l1 -5q0 -7 -4 -31q-4 -20 -6 -25q-3 -11 -12 -29q-19 -38 -38 -65q-9 -12 -25 -28q-41 -42 -74 -60q-43 -24 -89 -29q-48 -6 -104 8q-10 2 -17 6q-3 1 -6 3l-2 -6q-1 -2 -4 -5l-4 -4q0 -1 -1 -3t-1 -3q-1 -2 -4.5 -7t-3.5 -8q-1 0 -1 -0.5t-0.5 -1
t-0.5 -1v-1.5q-1 -2 -14 -23q0 -1 -11 -9l1 -2v-3q0 -3 -3 -5q-1 -1 -2.5 -1t-2.5 -1l1 -1q-1 0 -2.5 -2t-3.5 -3q-2 -2 -2 -1l-2 1q2 -4 -2 -5h-1q-6 -4 -11 -9q0 -1 -1 -1.5t-1.5 -0.5t-0.5 -1t-0.5 -1t-1.5 -0.5t-2 -0.5q-3 -2 -5 -5q-1 0 -1.5 -0.5t-0.5 -1v-1.5l-1 -2
q-3 -3 -12 -3q-6 -1 -7 0q-2 1 -3 1t-3 4l-2 1l-2 1q0 2 -2.5 8t-4.5 10zM608 65q-1 -1 -4 -3l-3 -1h-1h-1q0 -1 -0.5 -0.5t-0.5 -0.5h-1l-1 1q-9 -1 -33 12l-1 -1l-2 2t-2 1l-2 1h-1.5t-1.5 1.5t-2 2.5t-3.5 3t-4.5 4q-1 0 -2 1.5t-1 2.5q-3 2 -7.5 4t-5.5 3q-12 7 -13 8
q-3 2 -7.5 6t-5 4.5t-1.5 1t-1.5 1t-0.5 1.5l-1 2q-1 1 -3 2q-1 0 -1 1q-1 0 -1 1l1 1q-5 6 -6 6l-1 -1v3q-2 5 -8.5 14t-7.5 10t-2 5l-1 3l-2 1q-1 0 0 1t1 2q-2 8 0 18v3t0.5 3.5t1 2.5t1.5 4.5t2 5t3 2.5v1v1h1q1 -1 1 0t0.5 1t1.5 0.5t2 0.5q4 1 5 1t1 1h1q17 0 20 -3
q1 -1 5 -2q5 -1 6 -2h2h1.5t1.5 -0.5t1 -1.5q3 0 12 -1.5t11 -2.5q3 -2 4 -4q1 -1 -0.5 -3t-1.5 -3l1 -1q1 -1 1 -2t0.5 -3l1 -4t1.5 -3v-1v0q1 0 2 -1q1 -2 4.5 -8.5t5.5 -8.5t3 -6.5t2 -4.5h4q2 0 4 -3q1 -1 0.5 -2.5t0.5 -2.5l1 1l2.5 -2.5t1.5 -2.5q2 -2 1 -3v-1l-1 -1
q4 3 5 -1v-1q3 -6 9 -8l1 -1l1 -1h1q1 0 1.5 -0.5t0.5 -1.5l1 -1q2 -3 5 -3q1 0 1.5 -0.5t1 -0.5h1.5l2 1q3 0 7 -8q2 -4 2 -5q0 -2 1 -3q0 -1 -3 -7l-1 -2q1 -2 0 -3q-13 -21 -14 -22z" />
    <glyph glyph-name="yen" unicode="&#xa5;" horiz-adv-x="518" 
d="M408 239q0 -2 -4 -4l-3 -2h-1h-2v-1h-1h-1v0q0 -1 -1 -1h-1q-15 -6 -59 -11l-1 -1q-1 0 -3.5 -0.5t-3.5 -0.5t-3 -0.5t-3 -0.5h-3.5h-3.5h-8.5h-8.5h-3.5h-4.5q-4 0 -11.5 -1t-9.5 -2h-1q-3 -17 -3 -20q0 -1 -2 -6q-1 -1 -1 -3v-2q-1 -3 -24 -67q-1 -1 -19 -38v-4v-5v-3
q-1 -7 -6 -19q-1 -3 -3 -4.5t-3 -4.5v-3l-3.5 -10.5t-4.5 -12.5l-4 -6l-3 2q3 -6 -3 -20q-9 -20 -13 -40q0 -1 -1 -3.5t-1 -3.5v-3v-3q0 -2 -1.5 -4.5t-2.5 -4.5q-2 -9 -2 -17v-3t1 -4q0 -2 2 -4t2 -3q2 -7 -4 -20q-3 -6 -5 -7t-3 -2q0 -1 -11 -2q-1 0 -4 -2l-3 -2
q-4 -1 -13 -2.5t-13 -1.5t-16 1q-2 0 -4 2t-4.5 5t-3.5 4v2v1h-1h-1v1q1 2 0.5 2.5l-0.5 0.5h-1v1v2q-5 27 15 97v3q0 2 1.5 6t2.5 7q1 1 1.5 5t1 6t3 6t3.5 6q2 6 6 15t7 15q1 2 3.5 6.5t3.5 7.5q3 7 7.5 22t5.5 17q1 4 5 17t6 19q3 7 7.5 18.5t6.5 17.5q1 2 0.5 4t0 3.5
t2 3t1.5 2.5q1 2 1.5 4t0.5 4v1q0 1 1 1l1 1q2 7 4 13h-1h-1v1q-8 -1 -27 -4q-1 0 -5.5 -0.5t-5.5 -0.5l-1 -1h-2h-2q-6 -1 -22 -3q-1 0 -5.5 -0.5t-6 -1t-5.5 -1t-6 -0.5h-4l-1 -1h-1v1l-1 -1h-1.5h-0.5l-1 1q-4 1 -4 1.5t-1 0.5q-1 1 -3 4t-1 4q1 0 1 2.5t2 3.5l-1 1
q1 0 1.5 1t1.5 1q0 1 2 4.5t3.5 5l2.5 2.5q7 3 23 6q6 2 16 3t12.5 1.5t6.5 1.5t7 1q5 1 16.5 2.5t15.5 1.5q0 1 2 1h1h1q2 17 4 27q1 5 9 23q-1 1 -1 2q-2 3 -2.5 8t-1.5 7v1v1v1q-1 0 -1 1q0 6 5 14l-1 9q-5 -1 -13.5 -2t-10.5 -1q-3 0 -7.5 -0.5t-6.5 -0.5l-1 -1h-2h-2
q-11 0 -24 1h-6h-7q-16 2 -16 2.5t-1 0.5h-2q1 0 0.5 0.5t-1.5 0t-1 0.5l-1 1q-3 2 -3 2.5t-0.5 0.5h-1.5q0 1 -0.5 5t0.5 5q1 0 2 2t2 2v1q0 1 0.5 1h1.5l1 1q1 1 3 3.5t4 4t4 1.5q4 1 12 1h10h13.5h14.5q3 0 8 1t6 1q4 0 11 1t8 1v13q0 1 0.5 5t-0.5 6q0 6 -2.5 16.5
t-3.5 12.5q0 1 -2.5 12.5t-3.5 17.5q-1 7 -2 18.5t-1 16.5q-1 2 -2 3.5t-1 3.5q0 1 0.5 3.5t0.5 3.5q0 2 -0.5 4t-1.5 4v2q-1 1 0 2t1 2q-1 9 -2 16h-1l1 5q0 13 -7 51q-1 2 -1 7.5t-1 7.5l-2 1v3l1 1q-1 10 0 25v5.5v5.5q1 2 1 5t0.5 5.5t1.5 3.5v1v1h1.5t0.5 1l-1 1l1 1h2
l4 4q1 0 2 1q17 8 21 7h5q5 1 7 0h1l2 1q1 0 2 -0.5t2 -0.5q2 -1 9 -1t11 -1t5 -3q3 -6 7 -23q2 -6 2.5 -17.5t0.5 -15.5q0 -3 1.5 -8.5t2.5 -8.5q1 -6 3 -22t3 -22v-2.5t1 -2.5q0 -1 1 -2.5t1 -2.5q2 -12 5.5 -39.5t4.5 -29.5v-34q0 -1 2.5 -4t2.5 -4q3 -5 4 -14
q0 -3 -1.5 -4.5t-1.5 -4.5l2 -1q0 -2 0.5 -7.5t1.5 -9.5l-2 -4l-3 -1q4 -2 5 -5h8h7q1 0 5 2l1 1h2q1 2 4 5t4 5q4 5 10 16t8 14q18 30 18 31q5 7 14 19.5t10 14.5q2 1 2.5 3.5t2.5 3.5q1 2 3 4t3 2q1 3 2.5 5t2.5 4l1 2q1 1 2 1.5t2 1.5q1 2 6 7.5t7 9.5h-1l5 5
q9 9 24.5 28t19.5 23q2 3 7.5 8.5t7.5 6.5v2q2 2 3.5 2.5t2.5 1.5q13 12 30 24q15 10 16 11q22 11 23 11l1 1l2 1q0 -1 0.5 -1t1.5 1t1.5 1h1.5h1h6h1l1 1q2 -1 5 -4.5t2 -4.5q-1 0 -1 -3t-1 -5h1v-1.5t-1 -1.5t-1 -2t-1.5 -8.5t-3.5 -10.5l-12 -12t-11 -12l-14 -14l-16 -16
q-2 -2 -4 -5t-4.5 -6.5t-3.5 -5.5q-29 -37 -32 -43l-2.5 -2.5t-1.5 -2.5q-1 -1 -1.5 -3t-1.5 -2q-7 -12 -23.5 -36.5t-21.5 -32.5q-1 -2 -24 -31q-1 -1 -3 -9h1h1h1h3t3 -0.5t3 -0.5q7 -1 13 0h2.5h3.5q1 0 3 1l2 1q8 1 22 -4q9 -4 11 -5q1 -1 3 -2q1 -1 -1 -6l2 -3h1l1 -2
q-1 -1 -4.5 -8t-6.5 -12q-1 -1 -5 -1.5t-4 -1.5l-1 1h-1v-1l-1 1h-1q0 -1 -0.5 -1t-1 0.5t-1.5 0.5q-8 0 -28 2.5t-28 2.5h-1h-3.5h-3.5t-3 -0.5t-3 -0.5t-4 1l-2 -4q-4 -5 -5 -4l-2 2q1 -6 -7 -15q-12 -12 -22 -26q0 -1 -2 -2.5t-2.5 -2.5l-1 -2t-1.5 -2t-3 -2.5t-3 -2.5
q-5 -5 -10 -11q-1 -1 -2 -2.5t-2 -2.5q0 -1 -1 -3t-1 -3q-6 -7 -21 -11v-4h4q2 0 3 -0.5t3 -0.5l1 1q2 0 6 0.5t7 0.5l4 -1v-1q2 2 10 2q12 0 23 2h2.5h2t1.5 0.5t2 0.5h3h3q6 0 11 2q1 0 2.5 0.5t2.5 0.5t2 1l2 1q5 2 20 2h11q2 -1 3 -1q2 0 2 -5h2l3 -1q0 -18 -1 -18z" />
    <glyph glyph-name="dieresis" unicode="&#xa8;" horiz-adv-x="329" 
d="M121 526q2 1 5 1h4q5 1 13 2.5t14 2.5q14 2 21 -6q19 -18 15 -40q-3 -19 -16 -30q-11 -10 -34 -15q-2 0 -3.5 -0.5l-3 -1t-4.5 -0.5h-2q-2 0 -4 -0.5t-4 -0.5l-1 -1h-2h-1q-8 -1 -16 -1v0l-1 -1l-4 2q-38 12 -50 31q-2 2 -4 22l-2 3q1 2 4 7q11 16 28 28q1 1 4 3.5
t4.5 3.5t4 3t4 3t3.5 1l1 1v1v0l1 -1l1 1q0 1 1 0h1q4 0 4.5 -0.5t1.5 0.5q2 -1 7 -4.5t5 -4.5l2 -3q2 -3 2 -4t1 -1v-1zM121 481q1 2 -2 6v-1v-2l1 -1v-2h1zM141 470q5 -1 9 1t6 7q6 12 4 14q-23 15 -40 4q-1 -2 -1 -4h2q-1 -2 -1 -3q1 -2 4.5 -1t5.5 4q2 0 3 -4h4h3
q0 1 1 2v2l1 -1q0 -1 -1 -3q1 0 1 1q0 -2 0.5 -10t-1.5 -9zM277 484q-15 15 -9 29l-1 1q1 1 2.5 3t2.5 3q1 0 1.5 2t1.5 3t3.5 2t2.5 2q10 6 14 9q1 1 4 2l3 1q10 4 19 6q2 0 9.5 3t13 4t15.5 0q21 -6 22 -37q0 -2 0.5 -4t0.5 -4t-2 -5l-1 -2q-1 -3 -1 -5.5v-4v-3t-1 -2
t-1 -1.5q-3 -7 -7 -15h1l-4 -4q-22 -18 -39 -20q-10 -1 -15 -3l-2 -1q-4 -2 -6 -2q-16 3 -22.5 8t-8.5 16q-1 9 2 16q1 1 2 3zM336 488q0 -2 2 -4h2h3v1q8 -5 10 -7q1 -1 3.5 -0.5t1.5 3.5q-3 6 -14 7q1 12 -3 19q-4 4 -11 6q-10 3 -13 2q-7 -3 -10 -6q2 -1 4 -1h2t2 -2
q3 0 4 -1q5 2 12 7l3 -2q0 -1 1 -2q2 -2 2 -3v-1l1 -1v-5t-1 -1l-2 1q2 -3 1 -6q0 -1 -1 -2l2 -2h-1zM130 492q2 4 -1 5q-4 0 -8 -5h4h5zM337 488l6 -3q1 0 1 3q-3 1 -7 0z" />
    <glyph glyph-name="copyright" unicode="&#xa9;" horiz-adv-x="741" 
d="M288 700q104 41 213 26q126 -18 231 -123l7 -7q15 -23 28 -49.5t18 -43.5q7 -28 8 -56q3 -71 -12 -131q-7 -30 -23 -62q-45 -90 -100 -138q-70 -61 -155 -82q-68 -18 -186 -8q-29 2 -45 5q-20 4 -42 11q-43 14 -59 21q-2 2 -17 10q-40 25 -76 60v-1h-1q-3 3 -7.5 8.5
t-7.5 10.5l-2 4q-34 68 -49 150t-5 138q4 24 33 86l3 9q8 13 16 22q37 45 62 66.5t65 43.5q38 21 86 28q8 1 17 2zM314 668q-12 -5 -19 -10q-8 -7 -16 -15t-11.5 -13t-8.5 -12t-7 -10q-6 -8 -12 -19q-5 -8 -9 -4q-2 1 -2.5 1.5t-2 -1.5t-4 -7t-3.5 -6q-1 -2 -3.5 -5.5
t-4 -6.5t-1.5 -4q-2 6 -7.5 16.5t-8 17t-1.5 12.5q3 18 17 35q-6 -3 -12 -8q-61 -47 -97 -138q-14 -36 -16 -81q-2 -48 7.5 -103.5t24.5 -88.5q4 -10 10 -19q5 -9 12 -18q62 -78 136 -102q91 -30 170 -17q84 13 154 69q10 8 26 32q30 46 38 62q4 8 6.5 12t3.5 5t3 5t5 12
l1 9q12 35 19 82l3 22q1 -4 2.5 -6t1.5 1v4q-3 9 -4 35t-1 32q-11 74 -45 134q-8 13 -17 23q-3 5 -7.5 9t-7.5 8q-20 21 -28 27q-38 27 -78 39q-20 6 -39 9q-25 4 -43 3h-8q15 -4 17 -4q2 -1 5.5 -3t5.5 -2q31 -13 33 -15q1 -1 6 -3t6 -3q7 -5 6 -13q0 -3 -3 -2q-5 1 -14 3
q-10 2 -25 6q-2 1 -1 0t0 -1t-10.5 3t-12.5 3q-52 10 -96 11q-17 0 -33 -2zM541 268q-1 -4 -3.5 -7.5t-6 -6.5t-4.5 -5l-3 -1l-2 -2v-1q0 -1 -2 -2t-3 -2q1 0 1 -1q-1 0 -4 -2q-1 -1 -2 -1q-26 -19 -67 -32.5t-83 -17.5l-3 -1q-4 0 -20 2q-15 1 -17 2q-7 1 -19 5
q-25 8 -43 16q-5 2 -12 6t-8 5q-49 25 -65 41q-30 30 -34 63q-5 30 13 73q5 12 5 13q2 3 5 7l4 4q4 6 7.5 11.5t4.5 6.5t3 2t3 2q11 12 24 24v1l8 5q56 35 94 45q1 0 30 5h4q1 1 9 0q36 -2 61 -13q19 -8 31 -22q9 -10 18 -25.5t9 -21.5q0 -1 2 -5l2 -3l-1 -1h-1q0 -1 2 -4.5
t2 -4.5t-1 -2.5t-1 -2.5q0 -3 0.5 -6t0.5 -4t-0.5 -2.5t-1.5 -2.5v-3v-2q-2 -3 -10.5 -7t-10.5 -2q-1 2 -6 4q-6 2 -8 7q-1 0 -2 -0.5t-1.5 0t-2.5 3t-3 3.5q-4 3 -16 9t-15 11t-9 18.5t-11 18.5q-16 21 -41 24q-12 1 -26 -6q-33 -14 -55 -40q-4 -5 -5 -6q-2 -2 -4 -7
q-9 -21 -14.5 -45t-3.5 -37q1 -7 1 -17.5t1 -14.5q0 -1 5 -7h1q3 -4 6.5 -10.5t4.5 -8.5q3 -4 4 -6.5t5 -6.5l3 -2q7 -5 26 -18l6 -5v-1q2 -1 23 -10q26 -13 52 -16q7 -1 11 -1q2 0 4 0.5t4 0.5h14q14 3 26 9q6 3 9 5t5.5 4.5l3.5 3.5q1 0 39 26q20 13 22 14q5 2 8 4
q2 2 6 -3l6 2q1 1 3 1l3 1q1 -3 3 -8t2.5 -8.5t0.5 -7.5z" />
    <glyph glyph-name="ordfeminine" unicode="&#xaa;" horiz-adv-x="443" 
d="M496 500q0 -2 -2.5 -6.5t-2.5 -5t-1 -0.5l-1 -1v-1h-1q-1 -1 -1 -2v0q0 -1 -1 -2h-1q-18 -17 -59 -31l-1 -1q-2 -1 -4 -1.5t-3 -0.5t-3 -1t-3.5 -1h-3.5l-3 -1q-12 -1 -16 -1h-4.5h-3.5q-3 0 -9.5 -0.5t-10.5 -0.5q-14 -1 -20 0q-8 1 -23 6h-2.5t-2.5 0.5t-2 2t-2 1.5
q-2 1 -5 1l-2 1q-1 1 -1 1.5v1.5q-5 3 -10 7l-1 -1v0l-2 4l-10 15q-26 -27 -57 -47l-2 -2l-4 -2t-4.5 -2.5t-4.5 -1.5q-10 -5 -11 -5q-3 -1 -13 -3q-16 -3 -29 -4h-14q-32 1 -46 10q-24 17 -27 47q-3 23 13 57q1 2 2 5t2.5 5.5t4.5 5.5t3 4q3 4 6 8.5t3 5.5q1 1 2.5 1.5
t2.5 1.5q8 10 19 20v1h-1l7 5q49 37 72 48q3 2 8 3.5t9.5 3t5.5 1.5l2 2q2 0 5 1h2q24 4 44 3q17 0 24 -4q9 -3 18 -11t9 -12q0 -1 2 -3l2 -2l-1 -1h-1l1 -2q2 -2 2 -3t-1 -2t-1 -2v-4.5v-2.5t-2 -2q0 -1 -0.5 -2t-0.5 -2q-1 -1 -10 -4.5t-10 -2.5t-6 2q-5 0 -7 2
q-1 0 -2 -0.5t-1.5 -0.5t-2.5 1l-1 1h-19q0 1 0.5 4.5t0.5 5.5t-0.5 4.5t-2.5 3.5q-10 7 -32 -2q-8 -3 -18 -12q-28 -22 -42 -42q0 -1 -1.5 -2.5l-2.5 -2.5q0 -1 -2 -7q-8 -16 -11 -34t-0.5 -25.5t-3.5 -13.5q-6 -7 -6 -8q-2 -4 -2 -7h1q2 -4 8 -6l3 -1v-1q2 1 7 2l5 2
q15 7 29 20q1 0 3 2l3 3t2 2.5l2 3t4 3.5t4 3q8 9 14 18q4 8 4 9q1 2 1.5 5.5t1.5 4.5q2 7 6 13.5t8.5 12.5t4.5 7l11 18q3 3 4 6q1 1 10 -2h1h1q0 1 1 2l1 1l4 4q3 -1 5 -3q16 -2 18 -5l4 -2q4 -3 5 -5h1q1 0 1.5 -0.5t1 -1.5t1.5 -2q2 -2 7 -4.5t8 -5t4 -4.5q1 -3 2 -8.5
t1 -6.5q1 -3 0 -7.5t-1 -6.5q0 -1 1 -2l1 -2q1 -2 0.5 -6t0.5 -5v-1v0q4 -17 5 -19q6 -8 9 -11l2 1h1q2 0 6 -2q1 0 2 -1t2 -1l1 1q1 -1 8 -1l3 -1v-1q1 2 7 2q9 1 18 6l2 1q1 0 1.5 0.5l1 1t1.5 1t2.5 1t2.5 0.5q5 2 9 6q0 1 1 2t2 1.5t1.5 2.5t1.5 2q2 4 16 12q9 6 10 6
q2 0 4 1q1 1 5 -4l3 1h3q2 -3 5 -7t5 -7.5t3 -7.5z" />
    <glyph glyph-name="guillemotleft" unicode="&#xab;" horiz-adv-x="418" 
d="M246 -5q-1 -1 -8 -1h-7.5t-2.5 1l-1 1v-1q-1 0 -2 1t-1.5 1t-0.5 -1q-1 0 -2 0.5t-2 0.5q-31 10 -70 52l-2 1q-2 1 -3.5 4t-2.5 4t-3.5 3t-3.5 3.5t-2 4.5t-2 5q-1 3 -4.5 9.5t-5.5 10.5q-1 1 -2.5 4.5t-2.5 5.5l-19 26q-3 4 -11.5 14.5t-11.5 15.5q-5 7 -18 29l-2.5 2.5
l-2.5 2.5v4l-1 3q-1 3 -3 7l-1 3q-1 1 0 3l1 1q0 10 4 21h-1l5 5q22 16 42 27l7 3.5t6 3.5l1 1q1 1 2.5 1t1.5 1q4 2 31 15q3 1 10 5t9 5q4 2 10.5 6t12 6.5t7.5 3.5l2 1q2 2 3 2v-1l2 1l2.5 2.5t2.5 -0.5h1l9 3l2 1h1q2 0 5.5 -3t2.5 -5q-1 0 -1 -4q-1 -3 -4 -6v0
q1 -1 1 -1.5t-2 -2.5l-2 -2q-2 -3 -5 -8.5t-6 -9.5t-6 -6q-10 -7 -39 -24q-6 -3 -17.5 -9t-16.5 -9q-6 -5 -9 -9t-1 -8t7 -4q1 0 3 1h2l2 1q3 4 4 4t2 -3q1 -4 3 -7q3 -6 7.5 -16.5t7.5 -15.5q0 -1 2.5 -2.5t4.5 -3t3 -1.5q6 -6 11 -15q1 -2 0.5 -4t1.5 -4l2 -1q1 -2 4 -6.5
t5 -8.5q1 -2 1 -3l1 -2l-3 -2q3 0 5 -1.5t2.5 -2.5t1 -3.5t1.5 -2.5q5 -14 14 -25q1 -1 2 -2.5t1.5 -2.5t1.5 -1.5t1.5 -1.5t1 -3t1.5 -3q3 -6 8 -10l2 -2t2 -1.5l3 -1.5h2q3 -2 5.5 -6t4 -8t2.5 -5q1 -2 3.5 -5.5t2.5 -5.5q1 -3 2 -5q1 -1 -2 -7l2 -4l1 -3q-1 -2 -3.5 -6
t-5.5 -7.5t-6 -6.5zM454 21q0 -2 -7.5 -1.5t-8 0.5t-2 1t-2 1h-0.5v-1l-2 1q-1 1 -1.5 1t-0.5 -1l-2 1q-1 1 -2 1q-33 10 -81 51h-2q-2 2 -4 4.5t-4 3.5q-1 1 -3.5 3t-4 3.5t-3.5 5t-3 4.5q-3 3 -8 9.5t-8 10.5q-1 2 -3.5 6t-4 5.5l-10 10t-12.5 13.5q-12 16 -11 21
q0 3 -2 4t-6.5 2.5t-10.5 4.5t-15 10.5t-18 17.5l2 2q3 1 6.5 3.5t5.5 3.5t5 2t4 2q2 2 4.5 3.5t4 3l2.5 2.5t2 1t2 1q13 10 22 16h-1l7 4q20 13 43 33q2 2 7 6t6 5l1 2q1 1 2.5 2t2.5 1q11 9 27 20q1 1 7 5.5t8 5.5l21 13l1 1q1 1 2 1v-1q1 0 2 1l1.5 1.5t1.5 -0.5h1l6 1h1
h1q2 0 5.5 -3.5t2.5 -4.5v-3q1 -4 -1 -6h1v-1v-1q-1 -2 -1 -3q-1 -2 -1.5 -7t-1 -8t-2.5 -5q-6 -7 -25 -24q-5 -4 -10.5 -8t-12 -9t-10.5 -8q-3 -2 -8 -6.5t-9 -6.5q-32 -24 -35 -27q-1 -1 -3 -2t-3 -2t-1 -2q10 -3 19 -10q1 -1 6 -3l6 -2q8 -6 13 -14q1 -2 0.5 -4t1.5 -4h1
q2 -2 6 -7t7 -8q4 -5 2 -5l-2 -2q6 0 12 -10q10 -15 23 -27q0 -1 1.5 -2.5l2.5 -2.5t2 -1.5t2 -1.5t2.5 -3.5t2.5 -3.5q5 -7 11 -11q1 -1 2.5 -2t3.5 -2h4l2 -1q4 -3 7.5 -7t7 -8.5t3.5 -5.5l4.5 -4.5l4 -4t1.5 -2.5q2 -3 4 -5q1 -1 -2 -7l2 -3l2 -4q-1 -2 -4 -6t-5.5 -7.5
t-6.5 -5.5z" />
    <glyph glyph-name="macron" unicode="&#xaf;" horiz-adv-x="354" 
d="M337 566h-1h-1l-1 1v-1q-1 -1 -4 -2q1 0 2.5 -0.5t1.5 0.5t0.5 1t1.5 0.5t1 -0.5l2 -1zM387 557q1 1 12 -2v-1h1t0 0v-1h1h1v-1q5 -10 -8 -21v-1v0q-1 0 -1 -0.5v-1.5v0h1q7 1 10 5q4 6 2 17q-1 0 -0.5 1.5t-0.5 2.5l-1 1l-2 1q-2 1 -2 2l-1 2h-1q-1 -1 -2 -1q-3 2 -6 2
l1 1l-3 -1l-7 -3v-1h6zM392 528l-1 -3q-1 0 -2 -2q0 -1 -1 -2q0 -1 -1 -3q0 -1 -2 -2q-6 -9 -7 -10q-2 0 -9 1q-2 0 -4.5 1t-4.5 1q0 1 -2 1l-2 -1q-2 0 -7 0.5t-8 0.5h-1l-1 1q-1 0 -2 -0.5t-1 0.5q-5 1 -10 6q-3 0 -7 1t-6 1q-1 0 -3 0.5t-4 0.5h-19q-2 0 -9 -0.5
t-10.5 -0.5h-11h-11.5h-2h-2h-2.5h-2.5h-5h-1h-1.5h-1.5h-11h-3q-10 1 -36 -1q-1 0 -5 -0.5t-5 -0.5l-1 -1q-1 0 -2 0.5t-2 0.5h-19q-1 0 -4.5 -0.5t-5.5 0.5h-4.5h-4.5h-3h-1h-1v1h-1q0 -1 -1 0q0 1 -1 1l-2 1l-1 1q-5 7 -2 9l1 2q0 2 1 3l-1 1q1 0 1.5 0.5t0.5 1.5
q7 10 8 10q5 1 19 3q4 1 12.5 1t11.5 1q2 0 6.5 0.5t5.5 0.5q5 0 16 0.5t15 1.5h2h2h2l1 1q8 0 47 1q2 0 22 -1q1 -1 5 1q1 0 1 1h10q1 0 2 -1t3 -1l1 1h5.5t5.5 -1h1l3 -1v-1q2 2 5 2q1 -1 2 -1h2q9 -2 19 -2h1h2.5t1 0.5t1.5 0.5t3 -1q5 1 23 3l1 -1v-1l4 -2h1q5 -3 5 -4
l1.5 -1.5t-0.5 -5.5l1 -2v-2q0 -1 -1 -3q0 -4 -1 -7zM392 528l-1 1v-1h1zM326 557q2 0 3 1l-1 3q0 2 2 3h-2h-1.5h-2.5h-3q-4 -2 -4 -7q1 -1 2 -4q2 1 7 4z" />
    <glyph glyph-name="uni00B2" unicode="&#xb2;" horiz-adv-x="352" 
d="M396 322q0 -4 -2 -7.5t-5.5 -7t-3.5 -5.5l-2 -2q-2 -1 -3 -1q0 -1 1 -1l-2 -2q-2 -1 -2.5 -1.5t0.5 -0.5q0 -1 -2 -2l-2 -2q-37 -34 -94 -57l-2 -1q-2 0 -5.5 -1t-4.5 -1q-1 -1 -4 -1.5t-4 -1.5q-1 0 -10 -1q-14 -1 -22 -1h-5h-4.5h-13t-12.5 1q-16 1 -24 3q-7 2 -24 9
q-1 0 -2.5 0.5t-2.5 1t-2 1.5l-1 1q-2 2 -5 2q-1 1 -2 1l-1 1v1q-2 1 -5 3t-4 2l-1 -1l-1 3q-2 2 -23 16q-1 0 -4 2l-2 2h-1l-1 1v1q-8 6 -11 7q-2 0 -4 -1q-3 -2 -5 2l-6 -2h-2v0v0q-1 -1 -1.5 -1t-0.5 1q-5 -1 -5 -2v3q-1 1 -4 4.5t-2 4.5l-1 2q0 3 1 4q1 0 0 1
q0 1 0.5 1.5t0.5 1.5q6 11 8 12q4 2 9 3q7 5 8 6l3 1l2 2q1 0 0 1l2 1l3 2q1 0 0 1l3 1l2 2q12 11 43 36.5t45 37.5l1 2q1 1 4 3.5t4 4.5q2 1 4 3.5t3 4.5q1 0 4 2.5t7 6t8 7.5q27 27 50 54q16 18 20 23q19 28 28 56q7 19 6 38q0 5 -0.5 11t-0.5 7l-1 1l1 1q2 1 2 1.5t1 2.5
q0 1 1 1.5t1 1.5q1 4 0 8l-1 4q-14 14 -37 6q-9 -2 -15 -7l-1 -1q-1 -1 -2.5 -1.5t-2.5 -0.5q-16 -14 -25 -24q-2 -3 -6 -9.5t-5 -7.5q-2 -2 -5 -8l-5 -10t-4 -5q0 -1 -0.5 -3t-1.5 -2l-1 1l-1 -2q0 -2 -0.5 -2.5t-1.5 -1t-2 -0.5q-1 -1 -2 -3t-4 -3h-1q-1 -1 -1 -2
q-2 0 -10.5 1t-8.5 3q0 1 -3 4q-4 4 -4 8q0 1 -1 1h-2v3.5v3.5q0 2 -2.5 11.5t-2 11t1.5 9.5q14 23 38 41q17 12 52 25q14 5 23 7q21 4 57 4h3.5h3.5h4h3q24 -7 43.5 -34.5t16.5 -51.5q-1 -9 -4.5 -18t-6 -13.5t-9.5 -15t-8 -12.5q-1 -1 -2.5 -5.5t-2.5 -8.5l-1 -3
q-7 -13 -20 -29q-5 -6 -8 -8t-8 -8l-2 -4q-25 -28 -36 -39q-2 -2 -5 -4.5t-5 -4.5l-2 -2l-2 2q-7 -14 -36 -38q-31 -25 -42 -35q-1 -1 -3.5 -3t-3.5 -3q-1 0 -2 -1.5t-2.5 -2.5l-4.5 -3t-5 -3q-8 -6 -18 -14q-1 -1 -3.5 -3t-3.5 -3l-4.5 -4.5t-2.5 -3.5q-9 -6 -20 -12
l5 -2.5t4.5 -2t3.5 -1.5l1 -1h2q0 -1 1 -1h2q1 -1 34 -21q4 -3 9 -7t6 -6h4l1 1q2 -1 9 -3q1 -1 1.5 -2t2.5 -1h1q3 -1 12 -2h3v-2q1 1 10 2q13 2 26 8l2 1q2 1 3 2q1 0 2 1t2 1.5t4 1.5t4 2q8 4 15 11l2 2l3.5 3.5t3 4t2.5 2.5q3 3 30 24q18 14 19 15q4 2 7 4q2 2 7 -3l6 3
l3 1l2 2q1 -4 4 -9t4.5 -9t1.5 -8z" />
    <glyph glyph-name="uni00B3" unicode="&#xb3;" horiz-adv-x="336" 
d="M-3 333q2 1 7.5 -2.5t6.5 -3.5l1 -2q1 -2 2 -2v1q1 0 2 -1.5t2 -1.5v1l2 -2l2 -1q27 -7 74.5 -2t90.5 20l3 2q18 9 19 10t14 10q13 10 14 11q14 14 18 27q3 10 2 15q-8 25 -11 31q-5 13 -15 21.5t-22 9.5h-9.5t-9.5 1t-7.5 3.5t-9 8.5t-8.5 16q0 1 3 2q1 1 4 2t4 2
q5 2 9.5 5t8.5 5.5t5 2.5q3 2 6 3t5 3q27 15 46 25l-1 1l10 4q17 11 35 37q2 2 2 1l-1 -3l3 1q2 2 4 4.5t1 3.5l-2 1q-1 1 -2.5 3.5t-3.5 3.5q-33 15 -66 19q-19 2 -38 -4q-4 -1 -8 -3t-7.5 -5t-6 -5.5t-5 -4.5t-2.5 -2.5v-2.5v-2h-1v1q-1 0 -1 -2l1 -2l-1 -1h-1
q-1 -1 -1 -2.5t-3 -1.5q-1 0 -1 -1v-1q-3 -2 -11.5 -2.5t-10.5 1.5l-4 4q-5 4 -4 10q0 1 -1.5 0.5t-1.5 0.5q0 2 2 9q9 28 25 34q41 16 86 17q46 2 102 -15q17 -5 33 -16.5t13 -23.5q-5 -15 -13.5 -27t-21 -21.5t-21.5 -15t-22 -12t-16 -7.5l-5 -2.5l-5 -2.5t-5 -3t-4 -3
q-7 -4 -14 -7q8 -2 17 -4q5 -2 18 -8t14 -7q31 -31 33 -51q1 -12 0.5 -13.5t-2 -5.5t-2.5 -12v-6q-15 -28 -36 -46q-1 -2 -3.5 -3.5t-3.5 -1.5l-2 -1l-2 1q-5 -8 -26 -19q-39 -19 -72 -33l-9 -3l-7.5 -2.5l-4.5 -1.5t-7 -3q-5 -1 -21 -4q-32 -7 -41 -8q-4 -1 -9.5 -2
t-6.5 -1q-4 0 -9.5 -1.5t-7.5 -1.5q-37 -2 -66 5q-26 7 -34 14q-1 0 -10 8q-3 3 3 7l2 2t-2 4q-1 2 -2 3l-2 8q6 1 17.5 6t19.5 6z" />
    <glyph glyph-name="acute" unicode="&#xb4;" horiz-adv-x="342" 
d="M394 638q0 -1 -0.5 -4t-0.5 -4l-1 -1q1 0 1 -0.5t-1 -0.5h-1l1 -1v-1h-1q-5 -7 -37 -30v-1q-1 -1 -3 -2t-3 -2t-2 -2.5t-2 -2l-3 -1.5t-3 -1q-4 -2 -8.5 -5t-6.5 -4q-1 -1 -3.5 -2.5t-3.5 -2.5q-2 -1 -17 -14q-3 -3 -8.5 -8t-8.5 -8q-2 -2 -8.5 -7.5t-9.5 -8.5
q-1 0 -2 -1.5t-1.5 -2t-2.5 -1.5l-1 -1q-2 -2 -4 -5q-1 0 -1 -1h-1h-1q-4 -5 -8 -9h1l-3 -2q-10 -9 -19 -26q0 -1 -1 -2.5t-2 -2.5l-1 -2l1 -2h-1l-1 -1q-1 -4 -5 -11l-1 -2v-2l-1 -2q-1 -2 -3 -2h-1v-1h-1h-2h-2h-3l-1 -1h-1q-20 -2 -22 -1l-5 1q-5 0 -6 2h-2h-1.5t-1.5 1
l-1 1q-20 11 -19 14q1 9 10 22q2 4 5.5 7t7.5 7l6 6t4.5 5.5t4.5 4.5q4 4 12.5 12t11.5 11q0 1 1 1.5t2 1.5q1 0 1.5 1t0.5 2q8 8 40 33q2 2 23 14q1 1 3 5v1q3 3 10 7q1 2 2.5 1.5t3.5 1.5v1q2 1 5.5 3.5t6.5 4.5l3 1l1 -1q1 3 9 7q10 6 19 13l2 1l1.5 1.5l1 1t1.5 1
t2.5 1.5t2.5 1l8 6q0 1 1 1.5t1.5 1.5t0.5 3l1 1q3 4 12 7q6 2 7 1h2q1 0 4 -5h3l1 -1q1 -1 5.5 -7.5t6.5 -11.5z" />
    <glyph glyph-name="uni00B5" unicode="&#xb5;" horiz-adv-x="460" 
d="M-35 -185h-1v-2l1 -2v2v2zM512.5 158.5q-0.5 -4.5 -3.5 -8.5t-7 -8.5t-5 -5.5q0 -1 -3 -3t-4 -3v0l1 -1q-1 0 -4 -2.5t-3 -3.5v-1l-7 -5q-30 -23 -67.5 -38.5t-83 -20t-88.5 10.5q-2 1 -3.5 2t-2.5 3l-1 1q-3 6 -5 12q-70 -68 -117 -85q-9 -4 -48 -7l-5 -1q-12 0 -15 2
q-12 7 -21 13q-3 -8 -10 -21t-9 -19q-1 -2 -1.5 -5.5t-0.5 -7.5v-3q-1 -9 -7 -25q-2 -4 -4 -6t-4 -6l1 -3q-2 -5 -4.5 -13.5t-4.5 -13.5l-3 -7q-1 1 -3 1q3 -5 -2 -20q-6 -20 -5 -35v-2.5v-2t1 -1.5t1 -2q-8 2 -13 -5.5t-2 -11.5q4 -4 12 -1q1 0 3 2q1 1 4 -4l3 2q0 1 2 1
l1 1q1 -2 3.5 -6t3.5 -6t2 -6t0 -6q-2 -3 -5 -5t-8.5 -3.5t-5.5 -2.5h-3.5t-3.5 -1l-2 -1h-4v-1h-7q-34 2 -51 25t-15 51l-1 3q0 2 1.5 6.5t1.5 6.5t0.5 6t1 6t3 7t2.5 7q13 32 14 34q1 3 4 9t4 9q2 7 6 18q-5 2 -5.5 4t0.5 8q0 1 1.5 3t2.5 3v1v1q0 1 0.5 3t0.5 3l-1 1
q-1 1 -1 3v2l4 1l-4 2v1q0 1 1 1t1 0.5t0.5 0.5h1.5q-2 1 0 1q3 1 2 4v0q-1 1 -1 1.5t1 0.5h1q2 1 0 3l-1 1v0.5t-2 1.5l-2 1q-2 2 4 4h1q5 2 6 2h3q1 1 6 -1q7 19 13 32q2 6 29 62q1 3 2 6.5t3 6.5q1 3 4 7t3 5l4 8t3 7t1 4q1 2 2.5 3t2.5 2q2 5 7.5 15t8.5 15l-1 1h-1l6 8
q12 18 30.5 52.5t19.5 37.5q3 4 9 13t7 11v3l4 4t2 3q14 19 30 37q13 15 14 16q17 14 19 15q1 0 2 1l1 1h1v-1l1 1l1 1l1 -1h2q5 1 5.5 0.5t1.5 -0.5v1q2 -1 5.5 -4.5t3.5 -4.5t1 -3q1 -3 1 -5h1v-1.5v-1.5v-1l2.5 -7.5t2 -7t-0.5 -5.5q-2 -5 -16 -30q-5 -7 -15 -22t-15 -24
q-4 -6 -9 -16l-6 -12q-35 -65 -39 -74q0 -1 -1.5 -4l-2.5 -5t-2 -5t-1 -4l-2 -4q-1 -3 -1 -5q-8 -33 -4 -65q0 -4 -4 -19.5t1 -20.5q2 -4 11.5 -1.5t18.5 9.5q38 29 74 77q1 1 3.5 4.5t4.5 5.5q2 3 4 6.5t3 4.5q17 27 49 78q3 8 7 17q3 8 16 31q2 4 11.5 25t17 31.5
t17.5 15.5q26 14 41 2t14 -34t-10 -39q-5 -8 -28 -45q-2 -5 -6 -21l-5 -12l-2 4q-1 -1 0 -3v-11.5t-1.5 -12.5t-1.5 -10q-2 -16 -2.5 -31t-1.5 -18q-1 -5 0 -11q0 -2 3 -7q3 -8 9 -9q16 -3 34 5q9 4 15 8l14 12l37.5 27.5t27.5 20.5q6 5 12.5 10.5t10 8t6.5 4.5q5 3 8 6
q2 2 7 -3l6 2q4 3 4 2l5 -7.5t5 -8.5t1.5 -8.5z" />
    <glyph glyph-name="periodcentered" unicode="&#xb7;" horiz-adv-x="125" 
d="M64 208l3 3v1l4 2t3 2q1 0 2.5 1.5t3 2t4 1.5t3.5 1q11 4 17 6q2 0 5 0.5t4 0.5q2 1 10.5 4t15.5 4q16 1 28 -10.5t10 -24.5q-2 -12 -23 -40l-5 -7q-1 -1 -8 -5l-11 -6h-2.5h-2.5l-18 -2v-1h-5q-16 -2 -32.5 4.5t-22.5 16.5q-1 2 -1.5 5.5t-0.5 7.5v5l-2 2l3 5
q8 16 18 21zM90 204q2 -5 5 -8q-2 6 -2 8h-3zM104 177q-1 -1 -1 -3q-1 -2 -3 -4q-1 -1 -1 -1.5v-1.5v-1l1 -2q6 -2 14 4q4 3 6 7q8 1 12 8q1 3 0 4q-4 2 -11 0q-1 1 -1 2l2 1l5 5h-1q0 1 -1 0l-2.5 -2.5l-2.5 -2.5v1q-2 -1 -3 -1q0 -1 -1 -1v-1q2 0 4 1v1h-1h-1q-1 -1 -1 0
v0l-1 1v-2h-1l-1 -1q-1 0 -2 -1q2 0 4 1q-1 -1 -5 -4q-3 -2 -6 -3l1 -1q-1 -1 -2 -3zM106 180q3 -3 8 -4q3 -1 6 -1q1 4 1 8v4q-5 -1 -10 -3q-3 -2 -5 -4z" />
    <glyph glyph-name="cedilla" unicode="&#xb8;" horiz-adv-x="154" 
d="M-44 -239q1 2 7.5 0.5t7.5 -1.5l1 -1q2 -1 3 -1v1l1 -1q2 -1 3 -1v1l1 -1q2 -1 3 -1q63 -8 107 3l2 2q9 5 10 5.5t7 5.5l7 7q5 8 4 16q0 4 -1 6q-7 12 -7 13q-2 5 -5.5 14.5t-4.5 13.5q-5 16 -19 25q-1 1 -4 1q-1 0 -3 1q-1 0 -3.5 1t-3.5 1q-3 1 -12 1q-1 0 -2 0.5
t-2 0.5h-21v-1l-7 1q-17 -4 -50.5 10t-26.5 29q2 4 8 12.5t7 9.5v3q1 2 3 4t3 2q14 19 34 39q1 1 8 8.5t10 10.5q2 2 7 7.5t9 9t5 3.5t2 1l1 2l1 -1l1 1q1 2 1.5 2h1.5h1q5 2 5.5 2h1h1.5t6.5 -3.5t5.5 -4.5t1 -4q2 -3 1 -5l1 -1q1 0 1 -0.5t-0.5 -2t-0.5 -2.5q0 -2 1 -7.5
t1 -9.5t-2 -7q-4 -6 -13 -18.5t-13 -18.5q-19 -30 -22 -35l4 1q72 6 106 -6q13 -5 24 -14t15.5 -16t12.5 -19q1 -3 6.5 -9t5.5 -7q8 -18 6 -33q-1 -6 -3.5 -9t-3.5 -8v-4q-11 -18 -23 -29q-3 -2 -8 -4h-1l-1 1q-4 -7 -21 -14q-27 -10 -48 -17q-2 0 -5.5 -1t-4.5 -1t-3 -1
t-5 -1q-1 0 -13 -2q-8 0 -27 -3q-2 0 -5.5 -0.5t-5.5 -0.5t-6 -1t-5 -1q-21 -1 -46 5q-18 5 -22.5 8t-7 4t1.5 7q0 1 -2 3l-2 1q-4 4 -3 4q1 1 7.5 8.5t12.5 10.5z" />
    </font>
</defs>
</svg>
