<?xml version="1.0" standalone="no"?>
<!DOCTYPE svg PUBLIC "-//W3C//DTD SVG 1.1//EN" "http://www.w3.org/Graphics/SVG/1.1/DTD/svg11.dtd" >
<svg xmlns="http://www.w3.org/2000/svg" xmlns:xlink="http://www.w3.org/1999/xlink" version="1.1">
<metadata>
Created by FontForge 20190801 at Mon Jul 30 20:15:19 2018
 By Jimmy Wärting
DenisEspinoza
</metadata>
<defs>
<font id="LeoHand-Light" horiz-adv-x="570" >
  <font-face 
    font-family="LeoHand"
    font-weight="200"
    font-stretch="normal"
    units-per-em="1000"
    panose-1="2 0 3 3 0 0 0 0 0 0"
    ascent="800"
    descent="-200"
    x-height="390"
    cap-height="645"
    bbox="-293 -721 1085.14 1033"
    underline-thickness="50"
    underline-position="-150"
    unicode-range="U+0020-F8FE"
  />
<missing-glyph horiz-adv-x="364" 
d="M66 33h199v600h-199v-600zM33 0v666h265v-666h-265z" />
    <glyph glyph-name=".notdef" horiz-adv-x="364" 
d="M66 33h199v600h-199v-600zM33 0v666h265v-666h-265z" />
    <glyph glyph-name=".null" horiz-adv-x="0" 
 />
    <glyph glyph-name="nonmarkingreturn" horiz-adv-x="333" 
 />
    <glyph glyph-name="space" unicode=" " horiz-adv-x="237" 
 />
    <glyph glyph-name="exclam" unicode="!" horiz-adv-x="211" 
d="M119 227q-2 2 -3 7l-1 6v2v1q-1 0 -1 0.5t0.5 1.5t0.5 2h-1v1l1 2q-1 17 11 78v2q0 1 0.5 4t1.5 5v4t0.5 4.5l1.5 4.5t2 4q1 5 3 11.5t3 9.5q0 2 1.5 5.5t1.5 5.5q2 5 3.5 15.5t1.5 12.5q0 1 2 12.5t3 16.5q1 6 4 17t4 15q1 1 0.5 3t0.5 4q0 1 1 3t1 3q1 2 1.5 4t0.5 3.5
v2.5t1 1.5t1 1.5q3 10 4 16h-1l3 5q2 8 14 54q1 3 3 9.5t2 7.5v2q0 2 1 3l1 2q4 14 13 34q0 1 2.5 8t3.5 9.5t3.5 8.5t4 9.5t3.5 5.5l1 1v2h1l1 2v1.5t1 1t2 0.5q1 1 2 2.5t2 2.5h1l1 1q2 1 7.5 0t5.5 -2t2 -3q2 -3 3 -5q0 -1 0.5 -1t1 -0.5t0.5 -2v-2.5q1 -2 3.5 -6.5t4 -8
t0.5 -6.5q-1 -6 -9 -35q-2 -8 -6.5 -21t-5.5 -19q-1 -3 -2.5 -10t-2.5 -9q-1 -6 -4 -15.5t-4.5 -17l-2.5 -12.5q0 -1 -0.5 -2.5t-0.5 -2.5q-1 -1 -1 -2.5v-2.5q-2 -11 -7.5 -35t-6.5 -29q0 -1 -10 -31v-2l2 -4v-2q0 -6 -3 -14q0 -3 -1.5 -4t-2.5 -3l1 -2q-1 -3 -2 -8t-2 -9
l-2 -4h-2q2 -4 -1 -14q-5 -15 -7 -31q0 -1 -1 -3t-1 -3t0.5 -2.5t-0.5 -2.5q0 -1 -1 -3.5t-1 -4.5q-3 -7 -3 -15v-3v-4q0 -1 0.5 -3.5t0.5 -3.5q0 -7 -8 -26q-5 -12 -6 -14q-2 -2 -3 -4q-1 -1 -8 0l-3 -3q-2 -2 -3 -2q-2 1 -7 3t-9 3.5t-8 4.5zM145 31q0 -1 -2 -2.5t-3 -1.5
h-1h-1v-1v0l-1 1q-6 -2 -24 3l-1 -1l-1 1h-1.5h-1.5h-1.5t-1 1t-1.5 1t-3 1t-3 2l-1 1q-1 0 -1 1q-2 0 -5 0.5t-3.5 0.5t-4 0.5t-5 1l-4.5 1.5t-4 2v0h-1.5t-1.5 1t-2 0h-1v1.5t-1 0.5q-2 1 -4 1l-1 1q-2 2 -14 5l-2 1q-1 1 -2 1v-1q-1 0 -1 1v1q-3 1 -7 5q-1 0 -2 1
l-1.5 1.5t-2.5 1.5q-2 2 -2 4h-1l1 1h-1v1v1q0 3 1 4v0q3 10 5 11l1 2l3 3q0 1 0.5 1t0.5 1h1q1 1 3 4t3.5 4.5t2.5 1.5q2 0 8 -3q1 -1 3.5 -3t3.5 -3q1 0 2.5 -0.5t2.5 -0.5t5 -2t5 -3h1h1h1q3 -1 8.5 -3.5t7.5 -2.5l7 -5h1q1 1 2 1q1 1 4 -1v-1q0 -1 1 -1l1 1
q0 -1 1.5 -1.5t2.5 -0.5q2 -1 1 -2v-1q1 2 4 0q4 -3 8 -4h2v0v0h1.5t1 -0.5l1.5 -1.5q2 -1 4 -1h1q1 0 1 1q1 0 1.5 0.5t1.5 0.5q2 0 7 -4q3 -3 3 -4q1 -1 1 -1.5t-1 -5.5l1 -2v-1.5t-2.5 -7t-4.5 -10.5z" />
    <glyph glyph-name="quotedbl" unicode="&#x22;" horiz-adv-x="314" 
d="M290 391q-1 1 -3 4t-3 4v1q1 0 1 0.5t-1 0.5v1v1h-1v1v1q-2 13 4 49v1q0 2 0.5 3.5t0.5 2.5v3v2q1 1 1.5 3t1.5 3q1 3 2 7t2 6q0 1 1 3t2 3q0 4 1 10.5t1.5 7.5t1.5 7.5t2 10t2.5 9.5t2.5 9v2v2t1 2l1 1q0 3 1 5v1v2h1q1 5 2 9h-1l2 3q2 6 -2 22v5.5t-1 4.5l-1 1v3l1 1
q-1 14 4 25q1 3 9 6.5t12 3.5q18 1 19 1h1h2v-1v0q1 1 2 0q2 -1 2 -2q1 -5 0 -5v-1v-1q0 -1 -1 -1v-1l-1 -1v0q-9 -5 -11 -5q-4 -1 1 -1l10 -1q1 0 1 -2.5v-5.5v-6q0 -2 1 -5.5t2 -5.5q1 -13 -4 -36v-1.5v-1.5v-2v-1q-1 -7 -5 -22.5t-4 -16.5t-7 -18v-3l1 -2q1 -4 -1 -9
q-1 -1 -2 -1.5t-1 -2.5l1 -1q-1 -1 -1.5 -4.5t-1.5 -5.5q0 -1 -1 -2v-1l-2 1q2 -3 0 -9q-4 -9 -4 -18q0 -1 -0.5 -2t-0.5 -1.5v-1.5v-1.5t-0.5 -2t-0.5 -2.5q-2 -4 -1 -9v-2v-2t1 -3l1 -1q1 -4 -3 -15q-3 -7 -4 -8t-2 -3h-7l-2 -1l-2 -2zM125 385q-2 0 -5 3l-2 2
q-1 0 -0.5 1t-0.5 1h-1v1v1h-1v1q-4 9 -8 45l-1 1v2.5v2.5t-0.5 2.5t-0.5 2.5v3v3q1 3 1 7v6q0 1 0.5 3.5t0.5 3.5q0 3 -1 9.5t-1 8.5q-2 16 -2 18v10.5v8.5v2.5v2t1 1.5v2q0 3 -1 5v1q0 1 1 2v0q1 8 1 10h-1l2 3q1 5 1.5 11l1 12t0.5 9q0 1 1 4.5t1 4.5v1q0 1 1 2v1
q2 8 7 17q0 1 1.5 4.5t2.5 4.5q6 11 6.5 11t0.5 1v1h1l1 1v0v0q1 0 2 1l3 1h1v1q9 0 10 -4q1 0 2 -1l3 -3l1 -1h0.5t0.5 -1v-1l3.5 -3.5t4 -4.5t1.5 -3t-2 -15q0 -4 -2 -10t-2 -9q-1 -2 -1 -5v-4q-2 -23 -1.5 -23.5t0 -1.5t-0.5 -2l1 -1v-1v-19v-18l-1 -18q-1 -1 0.5 -2.5
t1.5 -2.5q2 -3 2 -8q0 -2 -1 -2.5t-1 -2.5l1 -1v-4v-6l-1 -3h-2q3 -2 3 -8q-1 -9 0 -19q1 0 0.5 -1.5t0 -2l1 -1t0.5 -1.5t-0.5 -2.5t-0.5 -2.5q0 -4 1 -9q1 0 1 -1.5t0.5 -2t2 -1.5t1.5 -2q1 -4 -1 -15q-2 -7 -3 -8q-1 -2 -2 -3q0 -1 -6 -1q-1 0 -3 -2l-1 -2h-12t-12 2z
" />
    <glyph glyph-name="numbersign" unicode="#" horiz-adv-x="567" 
d="M349 435q-7 0 -20 -1.5t-16 -1.5q-36 -3 -43 -3q-2 0 -4 -1t-4 -1h-5h-4q-3 0 -5.5 -0.5t-4.5 -1t-3 -0.5q-1 -1 -2 -0.5t-2 0.5q-11 -2 -21 -3v-1h-7h-2q-3 -12 -9.5 -39t-9.5 -38q0 -2 -15 -53q0 -1 -0.5 -4.5t-0.5 -6.5v-3q-1 -8 -3 -17q7 1 11 1q1 0 3 0.5t3 0.5h4
l2 1q19 2 89 8q11 0 24 1q1 4 2 6q2 5 3.5 10.5t3 12.5t2.5 11l4 16t5 19q2 6 6 19t6 21q0 2 0.5 4t0.5 4q1 2 2 5t2 3q0 3 0.5 6t1 5t0.5 3t1 2t1 2zM605 412q-1 -2 -9 -1.5t-8.5 0.5t-2 0.5t-2.5 0.5v-1l-2 1l-2 1v-1q-1 0 -2.5 0.5t-2.5 0.5q-16 2 -52.5 8.5t-51.5 8.5
l-2 -1q-2 1 -6 1.5t-7 0.5h-5h-5t-6 1t-7 1q-9 1 -29 3h-5l-1 -4q-5 -25 -23 -88q-1 -4 -14 -38v-3.5v-4.5v-2q-1 -7 -5 -17q-1 -2 -1 -3h5q4 0 6 -0.5t6 -0.5l2 1q3 0 11 0.5t14 0.5l6 -1v-1q5 2 20 2q21 -1 41 1h4.5h3.5t2.5 0.5t3.5 0.5t5 -0.5t4 -0.5q10 0 18 1
q2 0 4 0.5t3 0.5q2 0 5 1l2 1q9 1 27 -1q10 -2 12 -2q2 -2 4 -2q1 0 1 -5l2 -2l2 -1q0 -2 -0.5 -6t-1 -7t-2.5 -6q-1 -1 -5 -3l-4 -2h-1h-2v-1l-1 0.5t-1.5 0.5t-0.5 -0.5t-1 -0.5h-1q-13 -3 -85 -5l-2 -1h-6h-6t-5 -0.5t-5.5 -0.5h-6.5h-6q-7 1 -17 0.5t-13 -0.5t-8 0.5
t-8 0.5q-4 -1 -39 -3q-1 -2 -3 -9q-7 -18 -11 -37q-1 -1 -1.5 -3.5t-1.5 -3.5v-3t-0.5 -3.5l-1.5 -4.5t-2 -5q-3 -9 -4 -20q0 -1 -0.5 -3.5t-0.5 -4.5t0.5 -5t0.5 -4q-1 -8 -10 -35q-6 -19 -7 -20q-2 -3 -3 -6q0 -2 -6 -1l-3 -5l-3 -4q-2 2 -6.5 4t-8 3.5t-6 5t-2.5 10.5
v7.5v2.5l1 2h-1v3l1 2h-1v3l1 2q2 30 21 103v2q1 2 2 5.5t2 5.5q0 2 0.5 5t1.5 5v1q-3 0 -17 -0.5t-22 -1.5q-2 0 -4.5 -0.5t-4.5 -0.5q-2 -1 -6 -1l-3 1q-4 -1 -6.5 -1h-4.5l-2 -1h-2h-2q-13 -1 -20 -1v-1h-6q-12 0 -30 -1q-2 -5 -3 -10l-3 -7h-1q1 -6 -4 -22
q-7 -22 -11 -44q0 -1 -0.5 -4t-1.5 -4v-3v-3q-1 -2 -2 -5t-1 -5q-3 -9 -4 -18v-3.5v-3.5q-1 -2 0 -4l1 -3q-1 -9 -8 -24q-3 -9 -4 -10l-3 -3l-6 1l-2 -1l-2 -2l-21 7q-2 1 -3 5t-1.5 4t0 1t0.5 1.5v0.5h-1l1 1v1h-1v1v2q0 16 15 86v2q1 3 2 7t1 6q1 2 1.5 6t1 6t2 6.5
t1.5 6.5q1 2 7 26h-6l-2 -1q-2 0 -4 0.5t-3 0.5q-19 1 -39 4q-19 2 -21 3q-26 6 -27 7h-2l-2 1v1h-2q-2 1 -2.5 1t-0.5 1t-1 1q-5 4 -5 4.5t-1 0.5l-1 1q0 1 0.5 6t1.5 6q1 0 3 2q3 2 5 2q1 0 1 1t2 1h2q3 1 7 3t7.5 3t5.5 1l17.5 -3.5t18.5 -3.5q37 -4 45 -5h14
q1 5 3.5 16.5t3.5 17.5l3 15t4 18t3 15q3 11 8 29.5t6 24.5q1 3 1.5 6t0.5 5q1 3 3 7q-1 0 -17 -3q-3 0 -8 -1t-8.5 -1.5t-4.5 -1.5l-2 -1h-4t-2 -1q-17 -4 -44 -11l-24 -6q-26 -5 -29 -4h-2h-2h-2h-1.5t-1 0.5t-1.5 0.5l-5 2l-1 1h-1q-1 1 -1 5t1 5l1 2q2 2 4 3v1l1 0.5
t1.5 1l5.5 5.5t8 6q7 3 41 14q19 6 55 13q2 1 10.5 2.5t13.5 2.5q10 2 30 5q1 6 2 11l3 8q4 13 20 79q1 3 3.5 11.5t3.5 10.5v3q0 2 1 3.5t1 2.5q5 17 13 38q1 1 3 8t3 10q9 19 9.5 19.5t0.5 1.5t1 1v0v1l1 2h1l1 1l4 3l1 1q1 0 6 -0.5t5 -1.5t2 -3q2 -1 2 -3q0 -1 1 -1h1
v-2v-1q1 -2 3 -5.5t3.5 -6.5t0.5 -5q-1 -6 -8 -33q-2 -8 -7 -23.5t-7 -23.5q-1 -5 -3 -13.5t-3 -11.5q-1 -5 -8 -31t-9 -36q-1 -1 -2 -5q34 6 82 11q9 0 44 1q1 0 3.5 0.5t5.5 0.5l2 1q3 1 7 1q9 36 12 44q1 3 4 11t3 10v3l2 4t2 2q4 13 16 42q2 3 4.5 11t3.5 10q2 3 3.5 9
t3 10t2.5 5t1 3v1h1l1 1v2h1l1 1q3 4 3.5 4t0.5 1q1 1 6.5 0.5t5.5 -1.5l3 -2q2 -1 3 -4q1 0 1 -0.5t1 -2.5v-1q1 -2 3.5 -6.5t3.5 -8t0 -6.5q-3 -12 -13 -42q-3 -10 -9.5 -26.5t-9.5 -24.5t-7 -23q-3 -12 -6 -26h3l6 -1v-1q5 2 20 0q21 -2 44 -3q2 0 5 -0.5t4 -0.5h3h4
t6 -1t5 -1q11 -2 22 -3h5h5t5 0.5t4 0.5q14 -2 39 -10q17 -6 19 -8q4 -2 7 -3q1 -1 0 -7l4 -3q4 -3 3 -3q0 -1 -5 -9t-9 -11z" />
    <glyph glyph-name="dollar" unicode="$" horiz-adv-x="531" 
d="M318 304q-4 -9 -10 -22t-7 -15t-2.5 -6t-2.5 -7l-1 -4q-4 -12 -12 -28q-2 -5 -4 -7t-4 -7l-1 -3q-1 -4 -6 -14l-9 -18q0 -1 -1.5 -3t-1.5 -4l-1 -1l-1 1q-1 -7 -11 -26q-14 -27 -25 -53q-1 -2 -2.5 -5.5t-2.5 -5.5q-1 -1 -1.5 -3.5t-1.5 -4.5l-3 -6l-3 -6q95 -13 185 13
l5 4q22 13 30 19q8 7 19 21q13 15 20 27q29 48 30 74v7.5v5.5q0 9 -7.5 21t-22.5 20q-27 14 -104 28q-15 3 -41 8zM296 357q9 24 16 43q2 4 3 8.5t2 7.5q1 4 3.5 9t2.5 7l7 22q0 2 1 3.5t1 2.5q6 16 10 32l3 9q4 10 29 91q-63 -4 -123 -24q-39 -12 -59 -31
q-23 -20 -31.5 -46t-4.5 -41q0 -1 0.5 -3.5t0.5 -4.5q1 -2 2 -6q7 -20 48 -43t89 -36zM127 -73q-1 6 -1 9.5t1.5 8t1.5 6.5q0 1 1 3l1 3h-1q0 1 1 3l1 3v1l1 2q1 3 1 4q4 16 12 36q-43 10 -64 24q-33 21 -42 41q-2 6 -5 20q-1 3 0 5t2 2.5t4 0.5t4 0.5t1.5 2.5t0 5t0.5 5
l3 12q8 -3 22.5 -5.5t22.5 -6.5q5 -1 10 -8t6 -8q1 0 1.5 -2.5t1.5 -3.5v1h1l1 -3q2 -2 2 -3l1 1l2 -2q2 -3 2 -4q18 -10 45 -17q8 20 19 45l1 3q1 3 3.5 8t4.5 8q1 2 2.5 6.5t3 7t4.5 8t4 8.5q5 9 11 22t8 16l4.5 9l5.5 11q6 13 23 54q6 14 17 42q-33 6 -57 11l-26 6
q-3 0 -25 8l-36 12l-4.5 3l-3 2t-3.5 2q-30 17 -51 45l-1 -1q-2 3 -4 8.5t-2 9.5l-1 4q9 53 43 97t73 65q13 7 65 24l6 3q9 2 21 5q68 13 113 15q1 2 1 3l1 4l2.5 5t1.5 4q12 29 25 58q11 23 15 30q19 34 22 37q1 0 2 2.5t2 3.5v-1q1 1 2 3.5t1.5 3l1.5 1.5h1q7 8 7.5 8
t1.5 1l1 1q1 1 3 1t3.5 -1t1 -2t0.5 -4q0 -3 -2 -7q0 -1 1 -1l-1 -3l-1 -3q-1 -3 -2.5 -14.5t-3.5 -16.5q-21 -48 -24 -57q-21 -52 -22 -55q29 -1 48 -5q19 -3 43.5 -10t29.5 -12q1 0 6 -2l4 -2v-1q0 -1 4.5 -3t5 -3t1 -2.5t1.5 -2.5q2 -2 4 -4.5t3 -3.5t1.5 -2t0.5 -3
q0 -1 1 -2.5t1 -2.5q0 -2 -6.5 -8.5t-8.5 -5.5t-6 1q-6 0 -9 3q-1 0 -1 -1l-1 -1q-1 0 -3.5 2t-3.5 2q-4 1 -16.5 4.5t-19.5 6.5q-44 18 -91 20q-2 -6 -3 -10q-25 -79 -26 -85q-1 -1 -2 -4.5t-1 -4.5q-1 -2 -1.5 -5.5t-0.5 -4.5q-16 -54 -45 -131q79 -15 123 -26
q4 -1 11.5 -2.5t13.5 -2t6 -1.5q39 -10 54 -19q9 -6 11 -8t4.5 -6t9.5 -10q1 -1 3 -4q3 -3 3 -2q16 -40 1 -84q-1 -4 -4 -8.5t-6 -8.5l-3 -3l1 7q-2 -1 -3 -6q-4 -12 -18.5 -33.5t-28.5 -32.5q-50 -42 -123 -72q-3 -2 -27 -9q-18 -5 -20 -6q-16 -3 -35 -5q-41 -5 -70 -6
q-6 -1 -27 0q-5 0 -15.5 -0.5t-11.5 0.5q-1 -3 -17 -42q-10 -25 -10 -26q-3 -4 -4 -8q-1 -3 -6 -2q0 1 -3 -5q-1 -1 -2 -3t-1 -3q-2 2 -6 5t-6 5.5t-3 5.5zM142 -89v0v0zM575 267v0v0z" />
    <glyph glyph-name="percent" unicode="%" horiz-adv-x="771" 
d="M378 589q0 1 -1 1q-3 1 -11 4t-12 5q-26 13 -46 13q-28 -1 -59 -18q-13 -7 -25 -18q-29 -28 -44 -59q-2 -4 -3 -8q-1 -3 -2 -7q-10 -55 6 -89q10 -22 27 -37q3 -2 10 -4q16 -5 20 -5q10 -1 11 -1h3q12 2 26 6l7 3l1 -1q2 2 10 6.5t10 6.5q24 16 41 37q5 5 7 9l2 4l2 4
q1 0 3.5 4.5t4.5 6.5q7 14 10 26q2 7 2 10v4.5v3.5v3q0 9 1 23.5t1 18.5q-1 6 -2 13.5t-1 9.5q0 4 -1 9q-1 3 3 4h1l-1 6q-1 6 -2 6h1zM637 303h9q8 -1 19 -6.5t13 -9.5l2 -2q2 -2 2 -3t1.5 -3t1.5 -3v-2v-2q1 -9 1 -10q-1 0 -0.5 -1.5t0.5 -2.5q-1 -1 -6 -3.5t-6 -1.5t-4 2
q-3 2 -5 5h-1q-1 -1 -1 -0.5t-1 2.5l-2 1q-2 2 -5.5 3.5t-5.5 2.5t-3 2q-8 16 -22 10q-19 -8 -42 -35q-10 -12 -18 -27q-20 -39 -20 -68v-6q1 -1 2 -3v-2q4 -18 23 -37t46 -21q49 -5 97 10q5 1 14 8q15 12 19 17l4.5 4.5t4.5 5.5l1 2q5 11 10 25l2 7l2 -1q0 1 1 21
q2 23 -4 45q-3 8 -3 9t-1 2.5t-2 3.5q0 1 -1 5t-2 6q-5 11 -12 19l-6.5 6.5t-3 2.5t-3.5 2l-1 1q-26 18 -39 21q-9 1 -27 1q-5 -1 -11 -2l-3 2l-8 -1q-1 0 -3 -0.5t-3 -0.5zM400 588q3 -3 6 -7t5 -8.5t3 -6.5v-3q1 -3 2 -3q1 -1 2 -4v-3h1q0 -2 1 -7q1 -33 -15 -73t-43 -72
l-2 -2q-5 -5 -15 -12q-8 -7 -12 -10q-8 -5 -17 -9q-20 -9 -38 -14q-9 -3 -20 -4q-30 -3 -49 1q-31 7 -49 25q-22 22 -32 59q-2 8 -3 13q0 3 1 13q2 18 2 20q1 1 1.5 3t0.5 3q5 14 12 29v1h-1l5 8q36 49 70 73q6 4 28 15l2 1q4 2 9 4q31 9 55 10q16 1 30 -2q27 -6 37 -14
l3 -2q2 -1 3 -2q1 0 2 -2q2 -1 2.5 -1.5t1 -1.5t1.5 -2q6 -7 6 -7.5t1 -1.5l1 -1v-2q1 -1 2 -1zM646 316q5 3 10 4.5t10.5 2t6.5 0.5l3 1h4h4h3v1h3.5h3.5q35 -5 69.5 -30t53.5 -61l2 -3q1 -7 3 -20q1 -13 1 -17q0 -10 -3 -20q-8 -26 -19 -44q-6 -9 -16 -18q-26 -25 -52 -36
q-35 -14 -86 -17q-49 -3 -95 9q-9 2 -15 5t-13 8q-13 10 -17 14l-3 7q-8 14 -11 33h-1l1 11q15 61 45 100q3 4 24 24l2 3q3 2 8 5q27 17 49 23q7 2 15 2q9 12 10 13zM227 12q-2 3 0 10l2 6l1 2q1 1 1 2q-1 0 -1 0.5t1 1.5l1 2v1l1 1l1 2q12 28 68 116l1 4q2 2 5.5 7t5.5 8
q1 3 3.5 7.5t4.5 7t6 8t6 7.5q5 8 13.5 20t13.5 19q2 3 7 9.5t7 10.5q7 9 19 27.5t17 25.5q30 46 36 54q1 2 42 57q2 3 4 6.5t3 5.5q3 3 6 6.5t3 4.5q3 4 5.5 7.5t4.5 6t2 3.5q1 2 2.5 3t2.5 2q3 4 10 13.5t11 13.5h-1v1l7 7q13 16 36 45.5t26 34.5q3 3 10 11t9 10l1 3
q1 2 3 3.5t3 2.5q16 17 33 34q15 15 17 16q19 15 20 16l1 1l2 1q0 -1 0.5 -0.5l1.5 1.5l1 1h1h1q5 1 5.5 1t1.5 1v0q1 0 4 -2.5t2 -3.5v-2q0 -3 -1 -4q0 -1 1 -1q0 -1 -0.5 -2t-0.5 -2q-1 -2 -1.5 -6t-1.5 -7t-2 -5q-5 -5 -14 -15.5t-12 -14.5q-5 -6 -18 -20t-20 -23l-6 -8
t-7 -9t-6 -8q-44 -57 -51 -67q-1 -1 -3 -3.5t-3 -3.5q-2 -3 -3.5 -5.5t-2.5 -3.5q-10 -15 -39.5 -56t-40.5 -57q-10 -15 -26 -36l-17 -21q-1 -2 -3 -5.5t-4 -6.5l-1 -4q-6 -10 -17 -27q-4 -5 -6 -6.5t-5 -6.5l-2 -4q-3 -4 -9.5 -14t-11.5 -17q-1 -1 -2.5 -3t-2.5 -4l-1 -1
l-2 1q-1 -7 -15 -26q-19 -26 -35 -53q-1 -2 -3.5 -5.5t-3.5 -5.5q0 -1 -1 -3t-2.5 -4.5t-4.5 -6.5t-4 -5q-9 -13 -15 -25q0 -1 -2 -4t-3 -5q-1 -3 -2 -6.5t-1 -4.5q-5 -10 -23 -34q-10 -14 -11 -15q-3 -2 -5 -4q-1 -1 -6 2l-3 -3q-3 -2 -3.5 -2t-7 6t-8.5 10z" />
    <glyph glyph-name="ampersand" unicode="&#x26;" horiz-adv-x="635" 
d="M219 303q43 19 66 34q32 21 54 51t29 62q0 4 -2 25q-2 18 -2 20q-5 20 -11 26q-5 8 -8 8q-34 7 -71 -18q1 0 0 -1l-16 -13q-52 -61 -60 -107q-9 -53 21 -87zM194 263h-1q-18 -8 -34 -20q-39 -27 -49 -41q-13 -18 -18 -27l-2 -7q-10 -37 -3 -72q2 -13 4 -17h-1q1 -2 9 -12
t14 -16.5t11 -9.5q51 -27 128 -18q11 1 33 7q4 1 25 7q30 9 43 14q23 9 46 19q-11 10 -22 21q-33 30 -82.5 80t-65.5 65q-1 1 -35 27zM687 264q0 -8 -3.5 -15.5t-10 -15.5t-7.5 -9q0 -1 -4 -5.5t-5 -5.5h1l-5.5 -5.5l-5.5 -5.5q1 0 1 -1q-4 -4 -11 -10q-71 -57 -183 -112
q8 -8 33 -32q15 -14 46 -40.5t34 -29.5l5 -3l5 -4v-1l5 -3q4 -3 4.5 -3.5t1.5 -2t2 -1.5q2 -2 4.5 -3.5t3.5 -2t1.5 -1.5t1.5 -2l1 -1l2 -1q1 -1 1.5 -3t0.5 -3.5t-1 -1.5t-5 -1q-5 0 -11 2v-1q-2 0 -11 3q-47 16 -63 28q-46 34 -104 88q-91 -41 -173 -62q-3 -1 -5 -1h-3h-1
q-26 -3 -47 -2q-22 0 -37 3q-27 5 -40 12q-33 17 -50.5 34.5t-29.5 49.5q-13 36 14 80q38 61 115 100q9 5 19 10q-23 27 -28 65.5t8 70.5q17 41 64 88q7 6 21 16q15 12 21 14q47 23 85 21q31 -1 57.5 -22t27.5 -49q1 -47 -26 -87.5t-61 -63.5q-43 -28 -101 -53q3 -3 8.5 -7
t9.5 -7t6 -5l6 -5q5 -4 10 -9.5t7 -6.5l128 -128q10 -9 25 -24q18 9 30 17q16 9 32 21q87 62 110 87q14 14 35 43q4 6 7 13q1 3 7 1l4 7q3 7 3 8q2 -3 6 -7t6.5 -6t4 -5t1.5 -6z" />
    <glyph glyph-name="quotesingle" unicode="'" horiz-adv-x="142" 
d="M143 362q-1 0 -3 3l-2 3v0v2h-1v1h-1l0.5 0.5t0.5 1.5q-3 6 -1 43l-1 1q0 1 0.5 3t0.5 3t-0.5 2.5t-0.5 2.5t0.5 3.5t0.5 3.5q1 3 1.5 8t0.5 7q0 1 1 3.5t1 3.5q0 3 -0.5 6.5t-0.5 8v6.5t-1 9.5t-1 11.5t0.5 12t0.5 11q0 2 -0.5 3t-0.5 2t0.5 2.5t0.5 2.5q1 2 0 6v1v1
l1 1v12h-1l1 3q1 7 0 35q0 2 0.5 6t0.5 5l-1 1q0 1 0.5 1.5t0.5 1.5q0 8 3 18q0 1 0.5 4.5t1 4.5t1 4t1 4.5t1.5 2.5v1h1v1v1h1q1 0 1 1q3 2 4 2h1q1 1 6.5 1t6.5 -1l3 -1q3 -1 3 -2h1.5h1t1 -0.5t0.5 -1.5q2 0 5.5 -1.5t6 -3t2.5 -2.5q1 -4 1 -16q0 -4 -1 -11.5t-1 -10.5
q0 -2 0.5 -6t0.5 -6q0 -3 -0.5 -15.5t0.5 -13.5v-2v-2t1 -2v-1v-15.5v-17v-14.5q0 -2 -3 -24q0 -1 1 -3l2 -3q1 -4 1 -10q-1 -2 -2 -3t-1 -3l1 -1v-6t-1 -7l-1 -3h-2q3 -3 1 -10q-2 -11 -1 -22q0 -1 -0.5 -2.5t-0.5 -2t0.5 -1.5t0.5 -1.5t-1 -2.5l-1 -2q-1 -5 0 -10v-2.5v-2
t1 -2t1 -2.5q1 -5 -5 -15q-3 -6 -4 -7q-2 -1 -3 -2q-1 0 -7 1l-2 -1l-2 -1q-1 0 -9 2.5t-14 5.5z" />
    <glyph glyph-name="parenleft" unicode="(" horiz-adv-x="453" 
d="M253 -176q-4 1 -8 3.5t-7.5 6t-5.5 4.5l-2 2q-1 3 -2 3h-1l-1 3q-2 2 -3 2v-1q-1 1 -3 4q-1 1 -1 2q-43 53 -66 147l-2 3q0 4 -1 10.5t-1 9.5q0 2 -1 7.5t-2 9.5q0 3 1 20q0 29 2 48q1 5 2 13.5t2 10.5q6 51 9 63q7 37 15 62q8 24 27 68q1 3 2.5 7t2.5 7q2 4 4.5 8t2.5 5
q4 7 6.5 13.5t3.5 7.5q0 2 1.5 3.5l2.5 2.5q8 15 18 33h-1l7 9q52 79 68 100q4 5 13 16t11 12l2 4l4.5 4.5l3.5 3.5q24 26 50 49q19 18 27 25q34 26 38 28l3 2l3 3v-1l3 2l2.5 2.5t1.5 0.5t2 1q9 4 9.5 4t2.5 1l1 1q3 -1 6 -5q-1 0 -2 -3t-4 -7q1 0 0.5 -0.5l-2.5 -2.5
l-3 -3q-1 -2 -8 -12t-11 -15q-37 -35 -48 -47q-37 -40 -55 -62q-8 -11 -23 -32q-35 -50 -52 -82q0 -1 -2 -4.5t-3 -4.5q-1 -3 -2 -7l-2 -3q-39 -84 -53 -129q-17 -54 -19 -64q-1 -2 -1 -5.5t1 -7.5v-4l-4 -28q-1 -6 -2 -8t-2 -8l1 -3q-1 -5 -3 -34l-1 -9h-2q2 -5 2 -27
q0 -31 6 -59q1 -1 1.5 -5t1.5 -6q0 -1 1 -3.5t1 -4.5q1 -2 1.5 -7t1.5 -7q3 -14 9 -27q0 -1 2 -4.5t3 -5.5q1 -3 3.5 -5.5l3.5 -3.5q6 -10 12 -27l7 -17q3 -5 7 -12.5t5 -10.5q2 -5 4 -9q1 -2 -3 -6l2 -6q1 0 1 -2l2 -3q-3 -1 -8 -3.5t-8.5 -3.5t-7.5 0z" />
    <glyph glyph-name="parenright" unicode=")" horiz-adv-x="281" 
d="M43 -160q4 5 11.5 11.5t8 7t3 2t2.5 2.5t2.5 2.5t3.5 2.5l2 2l3 3q70 71 110 129q1 2 1 3q2 2 5.5 7.5t5.5 9.5q1 3 3.5 8t4 7t5 8t4.5 9q10 18 20 41q8 18 9 21q8 23 15 57q5 21 9 57q5 35 6 64q0 3 -0.5 6.5t-0.5 6.5t0.5 7t0.5 5t-2 19q0 2 0.5 3.5t0.5 3.5
q-1 16 -3 31h-1v10q-6 46 -24 100q-8 25 -11 30l-2 3q-1 2 -1.5 5t-0.5 4q-19 43 -26 57q-2 5 -9 16.5t-7 12.5q-3 6 -12.5 20.5t-10.5 17.5l-2 2l-2 3v1l-2 2q-2 3 -2 3.5v2t-1 1.5l-4 10l-1 1l-1 2q0 2 2.5 6t4.5 3q1 0 4 -1q4 0 8 -3v1h1q1 0 3.5 -2t3.5 -2q3 -2 10 -5
t12.5 -6.5t8.5 -7.5q22 -25 41 -56q15 -23 37 -74q11 -27 14 -37q10 -30 24 -92q0 -2 0.5 -6t0.5 -5q0 -2 1 -5.5t1 -4.5q8 -73 0 -141q-2 -22 -16 -69q0 -2 -0.5 -6t-1.5 -8v-4q-3 -14 -9 -30q-2 -6 -4 -8t-4 -8v-4q-12 -26 -16 -35q-1 -2 -2.5 -4.5t-2.5 -3.5l-1 -1h-1
q-2 -9 -14 -29q-24 -36 -40 -59q-1 -3 -4.5 -6.5t-4.5 -5t-2.5 -4t-3.5 -5.5l-12 -13q-7 -8 -25 -27q-2 -3 -5 -6l-5 -5q-2 -3 -5 -7t-4 -5q-20 -19 -50 -39q-22 -15 -29 -19l-10 -5q-3 -2 -5 2l-7 -4q-1 0 -3 -1q-3 -1 -4 -2q1 3 1 7q1 4 1.5 7t1.5 5zM39 -179v0v0z" />
    <glyph glyph-name="asterisk" unicode="*" horiz-adv-x="406" 
d="M457 558q-1 -2 -3 -3l-4 -2l-2 -1h-2l-1 -1q0 -1 -1 -1h-2v-1l-1 -1h-2q-16 -7 -68 -24l-1 -1q-2 0 -4.5 -1t-4.5 -2q-1 0 -3 -1t-3.5 -1.5t-4.5 -1t-4 -0.5q-4 -2 -10 -3.5l-10 -2.5q-2 0 -5 -1t-5 -2q-5 -1 -14.5 -4t-11.5 -4q-1 -1 -11 -4l7.5 -7.5l6.5 -6.5l1 -1v-1
q1 0 2 -1v0q8 -8 23 -31q1 -2 8 -17q0 -1 2 -2l2 -1q3 -2 5 -7q1 -1 0.5 -2.5t0.5 -2.5h1q1 -2 2.5 -4.5t2.5 -4.5q1 -1 1 -2v-1l-1 -1q2 0 5 -6q3 -8 8 -15v-1l1.5 -1.5t1 -0.5t1 -1t0.5 -2v-2q2 -3 5 -5q0 -1 0.5 -1.5l1 -1t1.5 -0.5h2q2 -2 3 -9q1 -4 1 -5q-1 -1 -1 -2
l-3 -3v-2t-1 -2q-11 -9 -12 -10h-3h-3h-1v1h-1q0 1 -0.5 1t-0.5 -0.5t-1 0.5q-9 5 -25 29h-1q-1 1 -1.5 2.5t-1.5 2.5l-1 1q-1 1 -1.5 2t-1 2.5t-1.5 2.5q-1 2 -2.5 5.5t-2.5 5.5q-1 1 -1.5 3t-1.5 3q-1 3 -5 9l-4 5q-1 2 -4.5 6.5t-5 7.5t-4.5 8t-5 8l-1 1l-1.5 1.5
t-0.5 1.5v2l-3 3l-1 1v1q-2 4 -4 7h-1v2q-4 6 -14 18l-1 1q-1 -2 -2 -3t-2 -5v-1q-1 -4 -5 -11q-1 -2 -2 -2.5t-3 -2.5v-2l-3 -6l-4 -8l-3 -3h-1q0 -3 -5 -12q-8 -12 -14 -26q0 -1 -1 -3t-2 -3l-1 -2q0 -1 -0.5 -2t-2 -3t-1.5 -3q-4 -7 -6 -14q-1 -1 -1.5 -2.5t-0.5 -2.5
q-1 -2 -1 -3.5t-1 -2.5q-2 -6 -11 -20q-5 -9 -6 -10q-2 -1 -2 -3q-1 -1 -4 1l-2 -1l-2 -2l-5 3q-4 3 -6 6q-1 1 0 5l1 5l1 1v1h-1q0 1 0.5 1.5t0.5 1.5v1l1 1q5 16 30 65v2q1 1 2 3.5t2 4.5q1 1 2 3.5t1.5 3.5l2 4t2.5 4q2 3 5.5 8.5t5.5 9.5q0 1 2 4t3 4q2 4 6 11.5t5 10.5
q1 1 3 5l3 6h-1q-2 1 -5 2t-4 1t-1.5 0.5t-1.5 0.5q-7 4 -16 8l-4 3q-4 2 -24.5 14.5t-28.5 18.5q-3 1 -8.5 5.5t-6.5 5.5h-2q-1 1 -3 2l-1 2q-12 10 -25 21l-4 3l-6 6q-9 9 -9 10h-1v1v1h-1v1v3v1q3 6 5 6l2 1q1 2 2 2q0 1 1 1h1q11 2 12 2q4 -3 19 -15q5 -3 14.5 -11.5
t15.5 -12.5q1 -1 17 -12q32 -23 41 -29q1 0 3 -1l1 -1q2 -1 3 -2l2 -1q3 -1 12.5 -6.5t14.5 -8.5q1 2 1 4v2t0.5 2t1.5 2v1v6v1v1q1 0 1 1q1 5 1 11v4q1 10 0 44v8v7l-1 1q0 1 0.5 2.5t0.5 2.5q1 15 4 29q3 10 4 14q7 16 9 18q1 0 1 1l1 1q1 0 1 2l1 1h1l1 1q3 2 3.5 2h1.5
v1q1 1 4 -1l2 -1v-2q1 -2 0 -4h1v-1v-2q0 -2 2 -6.5t2 -7.5q-3 -20 -3 -22q0 -1 -1 -12.5t-1 -18.5q0 -3 0.5 -8.5t0.5 -7.5v-21v-18v-2.5v-2.5v-2v-2q-2 -13 -10 -31l9 3q1 0 6 3h1q4 2 12 4q3 1 4 1t3 1h2q2 1 7 2.5t8 2.5q2 0 4 1h1v-1q2 2 12 5q14 4 28 9q1 0 3 0.5
t3 0.5q1 1 2 1.5l2 1t3.5 1t3.5 0.5q7 2 14 5q1 0 2.5 1t3.5 1q1 1 2.5 2t2.5 1q6 2 24 7q11 3 12 4h5q1 1 2 -2l3 1h1h2q-1 -1 -1 -3.5v-4t-1 -2.5z" />
    <glyph glyph-name="plus" unicode="+" horiz-adv-x="469" 
d="M217 20q0 2 2 4l2 3l1 1l1 1l1 1v1v1h1q24 46 28 56v2q0 1 1.5 3.5t1.5 4.5q1 2 1.5 4t1 3.5l1.5 4.5t2 5q2 5 7 22q1 1 2.5 5t1.5 6q2 7 6 32q1 3 4 23h-6q-7 0 -19 0.5t-18 0.5h-4h-3h-4.5t-2.5 1q-3 0 -5 -0.5t-4 -0.5h-2h-2l-1 1h-17v-1l-5 1q-18 1 -49 -1h-5
t-5 -0.5t-3 -0.5h-2q-1 -1 -2 -1l-1 1q-3 0 -22 -1q-1 0 -4.5 -0.5t-4.5 -0.5t-3.5 -0.5t-4 -0.5h-2.5v0h-2v0h-1l-1 1l-2 1h-1q-5 6 -4 8q1 0 0.5 2t0.5 3v1q-1 0 -0.5 0t0.5 1l1 1q4 10 5 10q7 2 20 5q1 0 29 2q2 0 7 0.5t8 1.5q8 0 23 0.5t20 0.5h2h3t2.5 0.5t2.5 0.5h72
q10 0 22 -1l2 10v3t1 4q0 2 0.5 4t0.5 3q1 2 1 4.5v4v2.5l1 1q1 1 1 2q1 9 2 17h-1l2 5q2 12 6 50q0 2 1 7t1 6v2q0 1 1 2v1q2 11 5 22l1 4q1 4 2 5q4 10 5 10v1v1h1v1h1h1q2 1 3 1l1 1q7 -1 9 -3l1 -1q2 -1 3 -2h1v-2h1l10 -7q0 -3 -1 -16q-1 -4 -2.5 -13t-2.5 -13
q-1 -3 -1 -8v-8q-1 -5 -3 -20.5t-3 -21.5v-2.5t-1 -2.5q0 -1 0.5 -3t-0.5 -2q-1 -18 -7 -49l4.5 -1.5t4.5 -0.5h2h9.5h11.5l5 -1v-2q4 2 17 1q18 -2 36 -2h3.5h3.5h2.5h3t4.5 -0.5t4 -0.5q9 -1 17 0h3h4q1 1 3 1l3 1q8 1 26 -2q11 -2 12 -2q3 -1 4 -2q2 0 2 -4l3 -1l2 -2
l-5 -15q-1 -2 -5 -3l-5 -2h-1h-2h-2h-1v0q0 -1 -1 -1h-2q-17 -2 -81 -1h-2h-5h-6h-4h-5t-5.5 0.5t-5.5 0.5q-6 1 -14 1.5t-12 0.5q-2 0 -6.5 0.5t-6.5 0.5q-7 1 -19 1q-1 -6 -4 -15t-3 -10v-3v-5v-2q-1 -7 -4 -16q0 -3 -1.5 -4.5t-1.5 -4.5v-2q-1 -1 -3 -7.5t-3 -11.5l-3 -5
h-1q1 -4 -4 -15q-6 -13 -14 -31q0 -2 -1.5 -3.5t-1.5 -2.5t-0.5 -2.5t-1.5 -2.5t-2.5 -3.5t-2.5 -2.5q-3 -5 -8 -13q-1 -2 -2 -3l-1 -2q-1 -2 -2 -3.5t-1 -2.5q-7 -9 -19 -15q-9 -4 -12 -5q-2 -1 -4 -1q-1 0 -2 2h-2l-3 -1q0 1 -0.5 4.5t-0.5 5.5z" />
    <glyph glyph-name="comma" unicode="," horiz-adv-x="18" 
d="M-46 -118v3v1l1 1l1 1v0h-1h1v1q3 3 21 15q1 1 2 1.5t1.5 1l1 1l1 1t1.5 1t2 0.5q2 2 7 5l1 1q2 1 3 2q3 3 8 9q2 3 6.5 11.5t6.5 13.5v1q1 1 1 2t0.5 1.5t0.5 1.5q1 1 1 4q0 1 0.5 1t1.5 1l2 8h-1l1 3q4 12 3 33v13v1v2v2q0 6 -0.5 14.5t-0.5 13.5q0 3 -1 9t-1 8
q0 3 -1 9t-1.5 10t-0.5 6v2l-1 2h1v2l-1 2l1 1v1v7v1v1q1 2 5 4t5 1q0 -1 3 -2q2 -1 4 -3h1h0.5t1.5 -1.5t1 -2.5q2 -1 6 -4.5t6.5 -6t3.5 -5.5q5 -15 9 -36q2 -10 2 -39v-17q-1 -9 -7 -35q0 -1 -0.5 -2t-0.5 -2v-2t-1 -1q-8 -21 -22 -37q-3 -4 -14 -12q-1 -1 -2 -4
q-2 -3 -6 -5q-1 -1 -2 -1t-2 -1v-1q-1 0 -3.5 -1.5t-3.5 -2.5l-2 -1l-1 1q0 -2 -5 -4q-6 -3 -11 -7l-1 -1h-1h-1v-1l-1 -1h-1q-3 -2 -4 -3v-1q-1 0 -1.5 -0.5t-0.5 -1.5v-1q-1 -2 -2 -3q-1 0 -1 -1l-1 -1v1l-3 2h-1h-1q-11 7 -13 9z" />
    <glyph glyph-name="hyphen" unicode="-" horiz-adv-x="233" 
d="M281 184q-1 -1 -3 -2l-3 -2h-1h-1v-1h-1h-1v-1h-1l-1 1q-4 -2 -45 -5h-1q-1 -1 -3 -1h-3t-2.5 -0.5t-2.5 -0.5h-3l-2 1q-4 0 -8 -0.5t-6 -0.5t-4 0.5t-4 0.5q-3 -1 -9.5 -2t-8.5 -1q-2 -1 -5.5 -1.5t-6.5 -1t-6 -0.5q-4 0 -11.5 -0.5t-9.5 -0.5q-1 0 -2 -0.5t-2 -0.5
t-2 0.5t-2 0.5q-2 0 -5 -1h-1h-1h-1h-10h-3q-5 1 -11 1h-12.5h-9.5q-1 0 -5 0.5t-5 0.5l-1 -1q-1 0 -1.5 0.5t-1.5 0.5q-8 2 -18 5q-1 0 -4.5 1t-5.5 2l-11 6l-1 1h-1v1h-1h-1v1v2q-1 3 -1 3.5v0.5v1q1 12 5 13q1 0 3 2.5t3 2.5l1 1v1l1 1h1q2 1 4.5 3.5t4.5 4t3 1.5
q2 -1 6.5 -3t6 -2.5t7.5 -3t10 -3.5q0 -1 9 -2q19 -2 24 -2h1h1h2h1q5 1 19 1.5t19 0.5h7.5h6.5h6q1 0 4 2h1q3 1 9 2q2 0 2.5 -1t2.5 0h1q2 0 5.5 0.5t5.5 0.5h3v-2q2 3 9 2q10 0 21 2h2h1.5t1.5 0.5t1.5 0.5t2.5 -0.5t3 -0.5q5 0 10 1q0 1 1.5 1t2.5 0.5l2 1t2 1.5
q5 1 16 -2q8 -2 9 -2q2 -1 3 -2q1 0 0 -5l2 -2l2 -2l-2 -7q-1 -7 -3 -12z" />
    <glyph glyph-name="period" unicode="." horiz-adv-x="48" 
d="M100 80q1 -1 0.5 -3t-0.5 -3v0h-1v-1v-1h-1q-2 -4 -14 -7v-1v0h-1.5h-0.5l-1 -1h-1h-1h-3h-1q-1 0 -1.5 0.5t-1.5 0.5t-2 -2l-2 -1q-1 0 -2.5 -1t-2.5 -1t-3 -0.5t-3 -0.5v0q0 -1 -1 -1l-1 1l-1 -1v-1q-1 0 -1 1h-3v-1h-1q-2 0 -8 -3h-1q-1 0 -1 -1t-1 0h-6h-1
q-1 -1 -1 0h-3h-2h-1v1v1h-1q-2 2 -2 2.5t-1 0.5v0q-5 9 -5 10l-1 3v3v1q-1 0 -1 1v1l-2 12q1 2 6 4q2 0 4.5 0.5t3.5 0.5t2 0.5t2 0.5q1 1 4 1.5t4 1.5h1q1 0 1 1q2 1 7 2l5 2q1 0 7 -1q0 2 0.5 3t2.5 1q1 0 1 -0.5t1 -0.5h1q1 1 2 1t1 -1v-1q1 2 3 2q3 -1 5 1h1v0l1 1
l1 -1h1t2 2q1 0 1 0.5v1.5v1q1 2 5 0q3 -1 3 -2q1 -1 1.5 -1t1.5 -6l1 -1l1 -1z" />
    <glyph glyph-name="slash" unicode="/" horiz-adv-x="349" 
d="M401.5 720.5q0.5 -3.5 -0.5 -7.5t-3 -8t-2 -6l-2 -2q-1 -2 -1 -3t-1.5 -3t-1.5 -3h1q0 -1 -1.5 -3t-1.5 -3q-16 -33 -90 -158l-1 -4q-2 -4 -6.5 -10.5t-6.5 -11.5q-2 -3 -5 -9t-5 -9q-2 -4 -7 -11t-7 -10q-7 -11 -16.5 -26.5t-15.5 -24.5q-2 -4 -7.5 -12.5t-8.5 -13.5
q-8 -12 -22.5 -37.5t-16.5 -29.5q-3 -5 -17 -29.5t-22 -37.5t-22.5 -36.5t-19.5 -32.5q-2 -4 -4 -7.5t-4 -6.5q-2 -4 -5 -8t-3 -5q-3 -5 -5.5 -9t-4 -7t-1.5 -4q-1 -2 -2.5 -3.5l-2.5 -2.5q-11 -18 -19 -30l1 -1l-6 -8q-15 -23 -50 -84q-1 -3 -6 -10.5t-6 -9.5l-1 -3
q0 -1 -1.5 -2.5l-2.5 -2.5q-8 -13 -18 -28q-1 -1 -3.5 -4.5t-3.5 -5.5q-1 -1 -2 -2.5t-2 -2.5t-2 -1t-1 0.5t0.5 2.5t-1.5 3l-1 1q-3 5 -4 5q-3 -1 -4.5 -2.5t-2.5 -3.5l-1 -2q-1 0 -2.5 -1t-2.5 0q-4 1 -4 5v0h-1.5t-0.5 1v1q-8 10 -7 11q1 3 9 18q4 6 12 18.5t12 18.5
q2 4 6.5 12t6.5 12q5 8 20.5 34t21.5 36q1 2 3 5t2 4q2 2 3 5t2 4q13 23 45 76.5t34 56.5t45 71l3.5 7t3.5 9l2 4q7 13 20 34q3 6 5.5 8.5t6.5 8.5l2 4q3 6 11 19t13 22q2 2 3.5 4.5t2.5 4.5l2 2l1 -1q3 9 19 34q23 35 43 71q1 2 4 6.5t4 7.5q1 2 2.5 4.5t3.5 6t5.5 8.5
t4.5 8q11 16 19 33q2 2 4 6t3 7q2 4 3.5 8.5t2.5 5.5q7 15 31 49q14 20 16 22q3 4 6 7q1 2 6 -1l4 4q1 0 2 2l2 2q2 -3 5.5 -6.5t5.5 -6.5t2.5 -6.5z" />
    <glyph glyph-name="zero" unicode="0" horiz-adv-x="466" 
d="M461 434q-21 -32 -77 -83l-1 -2q-2 -2 -5.5 -5t-5.5 -5q-2 -1 -5 -3.5t-5 -4.5t-6 -5t-6 -4q-22 -16 -28 -20q-2 -2 -7 -5.5t-7 -4.5q-6 -5 -18 -14t-18 -13q-28 -20 -36 -26t-22.5 -15.5t-16.5 -10.5t-4 -3t-4 -3t-5 -3l-2 -1q-3 -2 -5.5 -3.5t-4.5 -3.5l-1 -1
q-1 -1 -2.5 -1t-1.5 -1q-11 -6 -18 -11v-1l-5 -3q-18 -11 -42 -28q10 -42 30.5 -73.5t45.5 -34.5q2 -2 9 -0.5t9 0.5t8.5 1.5t8.5 2.5t8 3t7.5 3.5t7.5 4t7.5 4t7 4t7.5 4.5q5 3 19 16q31 29 36 34l9.5 9.5l10.5 10.5l3 5q18 23 40 54q1 2 4 6t4 6l2 3l1 -1q3 7 13.5 26.5
t12.5 24.5q28 60 41 116q3 14 4 23v8.5t1 8.5q0 3 1 8.5t1 6.5zM461 478q-1 11 -3 20q-3 13 -5 19q-1 4 -3 7t-3.5 6t-1.5 4q-27 59 -37 71q-16 18 -31 30q-5 4 -12 5q-4 2 -4 3t-3.5 0.5t-6.5 -1.5q-9 -2 -10 -4q1 2 3 5h-1.5t-0.5 -1h-3h-3q-13 -3 -29 -14
q-34 -22 -64 -62q-42 -56 -77 -127q-17 -33 -30 -73q-33 -100 -37 -174v-6q17 12 22 16q1 0 3 1t3 2t2.5 2t2.5 2q10 7 37 25.5t36.5 25t23.5 15.5t17 10l3 3l4 4l2 2q5 5 17 13q3 3 5 3.5t5 3.5l2 2q4 2 10.5 7.5t10.5 8.5q2 1 6 4l1 -1q2 4 16 15q20 15 36 32q1 0 3 2.5
t3 3.5t2 2.5t2.5 3t4.5 4t4 3.5q9 8 15 17q0 1 2 3.5t3 3.5q1 2 3 5l1 3q2 3 22 28q10 13 11 13l4 4q1 2 6 -1q0 -1 4 1l3 3q1 -1 4 -3zM357 656q15 4 44 -2q1 0 3.5 -1t5 -2.5t3.5 -1.5t3.5 -1.5t5.5 -3.5l2 -1q1 -1 1 0q3 -1 11 -8q65 -55 79 -126q10 -55 -14 -156l-1 -7
q-4 -13 -14 -38q-9 -23 -13 -32q-7 -16 -19 -35q-27 -45 -52 -78q-13 -16 -30 -35q-47 -49 -82 -72q-44 -29 -85 -36q-47 -9 -99 10q-9 4 -19 12q-8 6 -15 16q-14 20 -18 29q-1 2 -1.5 4t-1 3.5t-0.5 3.5l-2 6q0 -1 -1 -1v-1h-1l-1 1l-2 -1l-1 1q-12 2 -13 4l-2 1q-3 2 -3 4
h-1q-1 0 -1 0.5v1.5v1q-4 12 -3 13q4 5 18 16q2 1 4 3q0 5 -1 11h-1l2 19q17 127 54 222q3 7 33 68l3 7q2 4 11 18q41 64 77 103q22 23 43 36q13 8 31.5 15.5t24.5 7.5l3 1q4 1 5 1v-1l3 1h5t2 -0.5t2 -0.5q10 -2 11 -2q0 -1 1 -1q3 3 6 4z" />
    <glyph glyph-name="one" unicode="1" horiz-adv-x="366" 
d="M419 626q0 -3 -2 -7.5t-2.5 -5l-1.5 -1.5h-1v-1h1l-1 -1v-3q-2 -13 -11 -41q-3 -10 -9.5 -27.5t-7.5 -20.5q-2 -4 -4.5 -12t-3.5 -12q-3 -9 -11 -29t-10 -27q-1 -1 -1.5 -3.5t-1.5 -3.5v-3l-1 -3q-6 -16 -19 -50t-15 -40q-4 -8 -7.5 -16.5t-7.5 -17t-6 -13.5q0 -1 -1 -4
t-1 -6v-3q-2 -9 -8 -23q-2 -5 -3.5 -6.5t-3.5 -6.5v-3q-2 -4 -5 -13.5t-6 -15.5l-4 -8h-1q0 -6 -7 -21q-11 -23 -18 -42q-1 -1 -2 -3.5t-2 -4.5q0 -1 -0.5 -2.5t-1 -3.5t-2 -5t-2.5 -4q-4 -11 -5 -20q-1 -1 -1.5 -4t-0.5 -5t0.5 -5t0.5 -4l-8 -36q-1 -4 -2 -9t-1.5 -8
t-1.5 -5l-2 -8q0 -3 -7 -2l-2 -6q-1 -2 -2 -6q-4 2 -9.5 3.5t-9.5 3t-7 4.5q-2 3 -3 7t-1.5 9t-0.5 6v2v4h-1v2q1 3 1 4h-1v2l1 3q3 42 32 113v3q1 2 3 5.5t3 6.5q0 2 1 5.5t2 5t3 5.5t3 7q3 6 7 16.5t6 16.5q1 3 4 9t4 10q3 9 9 25.5t7 21.5q16 43 16 45q4 9 10.5 24.5
t8.5 21.5q1 2 1.5 4.5t0.5 4.5q1 2 3 5t2 4q1 3 2 5.5t1.5 4.5t0.5 3q1 1 1.5 2t1.5 2q5 12 8 21l-1 1l4 6q9 19 24 66q1 3 4 10.5t3 9.5v2q-4 -3 -7 -5q-1 0 -3 -1.5t-3 -2.5q-3 -2 -7.5 -6.5t-6.5 -5.5q-12 -10 -14 -12l-15 -10q-1 0 -1.5 -1t-1.5 -1.5t-2 -0.5t-1 -1
l-4 -2q0 -1 -0.5 -1h-1.5v0q-7 -4 -8 -4v-1l-2 -1q-4 -1 -8.5 -3.5l-9 -5t-6.5 -3.5q-1 -1 -4 -2t-4 -1v-1q-1 -1 -1.5 -1h-1.5q-6 -2 -15 -4q-1 0 -4 -1t-4 -1.5t-3.5 -1t-4.5 -1t-3 -0.5q0 1 -1 0q-1 0 -1 0.5t-1 0.5v-1v1h-1l-3 1h-1q-6 5 -4 7q1 0 1 2t1 3l-1 1v0v0
q1 1 1 2q1 1 1.5 3.5t1 4t2.5 2.5l13 7q2 1 7.5 3t8.5 4q1 1 3.5 2.5t3.5 1.5q15 10 17 11q0 1 1 1t1 0.5t1 1.5q4 4 13.5 11t12.5 10q2 2 5 3.5t5.5 3.5t4.5 3l1 3l1 2q2 3 6 6q1 1 2.5 1t2.5 1v1q1 1 4 3.5t5 4.5l3 1l1 -1q0 3 6 8q9 6 17 15l2 2l1.5 1.5t1 1.5t1.5 2t3 2
t2 2q5 4 10 9q0 1 1 2.5t2 2.5t2 3v2q5 7 17 15q0 2 0.5 2t1.5 0.5t1 1.5l4 5q1 0 2 1v1q1 1 2 0.5t4 -0.5h4q1 1 5 -3l3 1l4 1q1 -3 3.5 -6t4.5 -6.5t3 -6.5z" />
    <glyph glyph-name="two" unicode="2" horiz-adv-x="493" 
d="M154 105q14 -4 76.5 -22.5t92.5 -21.5q48 -4 159 27q7 2 22 8t27 11t14 5t-3 -5t-12 -11.5t-13 -10.5q-32 -19 -77 -36q-76 -27 -106 -31q-7 -1 -43 1q-2 0 -11 -0.5t-11 0.5q-13 2 -28 5.5t-33 9t-27 7.5q-29 8 -36 9q-10 2 -38 3q-23 1 -34 -1q-1 0 -39 -11t-46 -10
q-6 1 -9 7q-1 3 0 8.5t3 7.5q4 5 20 16q16 10 35 19q10 8 46.5 35.5t60.5 45.5l2 3q3 2 9.5 7t10.5 9q3 2 8 7t8 7t9.5 7.5t10.5 9.5q22 19 47 42q19 18 22 22q28 29 51 61q23 30 38 62q16 31 23 62v5.5v5.5q0 3 1 6t1 4q0 4 -2 15q0 1 0.5 2.5t0.5 2.5q-2 10 -5 21h-1l-1 7
q-9 21 -30.5 40.5t-41.5 25.5q-14 3 -36 0l-3 -1q-3 -1 -6 -1.5t-5 -0.5q-37 -14 -58 -30q-10 -7 -19 -21q-2 -4 -3 -9t-2 -9t-2 -5l1 -1v-1h-1q-1 0 -1 -1l1 -1l-1 -1h-1q-1 -1 -1.5 -2.5t-1.5 -2.5q-1 0 -1 -1v-1q-2 -2 -7 -5.5t-6 -2.5q-1 0 -5 1q-5 0 -7 4h-1l-1 -1
q-1 1 -5 6q-14 25 -7 35q18 28 54.5 48.5t89.5 29.5q28 5 47 2q29 -4 61 -21t48 -34q1 -1 7 -10q1 -2 4 -5.5t4 -5.5q9 -38 2 -82t-23 -74q-13 -23 -52 -69q-2 -2 -5 -7t-5 -8l-3 -4q-12 -15 -28 -32q-5 -5 -8.5 -7t-8.5 -8l-3 -4q-28 -27 -38 -35q-1 -2 -4 -4t-4.5 -3.5
t-2.5 -1.5v1q-7 -10 -31 -28q-31 -25 -68 -54q-2 -2 -6.5 -5t-6.5 -5q-2 -1 -4 -3t-5 -4t-8.5 -6t-7 -5t-3.5 -2q25 0 35 -1h1z" />
    <glyph glyph-name="three" unicode="3" horiz-adv-x="424" 
d="M-7 119q5 -1 11 -6t6.5 -5.5t1.5 -2.5l2 -2q1 0 1 1l1 -2q2 -2 3 -2h1l2 -2l1 -2q63 -36 135 -44l3 1q17 0 22 1q5 0 19 3q16 3 21 5q23 7 44 18q12 7 19 12q22 17 39 40q14 19 25 46q11 25 17 51v5.5t0.5 5t1.5 5.5t1 4v14q0 2 0.5 3t0.5 2q0 11 -1 22h-1v7
q-4 30 -20 55q-6 11 -12 15l-2 1q-1 1 -2 2.5t-2 1.5q-22 12 -43 15q-11 1 -31 -3q-8 -1 -27 -6.5t-20 -5.5q-3 -2 -6 -3l-2 -1q-1 0 -2 -0.5t-4 -1.5q-2 -1 -2.5 -1h-1.5q-4 -2 -11 -5q-6 -2 -7 -1l-2 -1q-2 0 -5 1q-5 -1 -7 -2q-1 -1 -4.5 -1.5t-5.5 -1.5q-2 0 -3 -1
q3 4 7 9q3 6 5 9t5 6q10 8 25.5 15.5t15.5 8.5q1 0 5.5 2.5t5.5 2.5v1q1 0 5.5 2.5t5.5 2.5v1l5 2q5 2 5 3q116 70 158 112v3q7 9 7 10t0.5 2.5l1 3t0.5 2.5l1 3q1 2 1 3q0 6 -2 8l1 1q4 1 3 6q-2 7 -13 13.5t-30 10.5h-4t-4 1q-1 0 -3.5 0.5t-3.5 0.5q-4 1 -12 0q-1 1 -2 1
h-2h-21h-7q-35 -3 -69 -13q-14 -5 -19 -8l-2 -1q-1 -1 -3 -1.5t-3 -0.5q-20 -11 -30 -18q-3 -2 -11 -11q-2 -2 -4 -5.5t-4 -6t-3 -2.5v-1v-2l-1 1q-1 0 -1 -1v-1.5t-1 0t-1 -0.5l-4 -2q-1 0 -2 -1v0q-1 0 -7.5 1.5t-7.5 2.5q0 1 -2.5 3.5t-2.5 4.5q0 1 -1 1h-1v2v3
q-2 18 1 22q12 12 34 24q14 8 48 20q17 5 25 8q22 5 63 11q1 1 3.5 1h3.5q2 0 4 0.5t3 0.5q47 3 87 -2q14 -2 38 -12q1 0 6 -0.5t6 -1.5q13 -4 19 -12q3 -3 3 -5.5t2 -6.5l2 -2q4 -16 2 -30l-4 -7q-1 1 -3 1q2 -8 -9 -20q-17 -17 -38 -36q-1 -1 -4.5 -3.5t-4.5 -3.5l-3 -3
t-4.5 -3.5t-7.5 -5t-6 -4.5q-10 -6 -32 -21l-7.5 -5t-6.5 -4q-4 -3 -8.5 -6.5t-6.5 -4.5q-14 -9 -32 -18q30 -1 61 -12q19 -7 29 -16q28 -24 43 -70q0 -1 0.5 -4.5t0.5 -4.5q1 -2 2 -5t1 -4q0 -29 -8 -66.5t-21 -61.5q-11 -22 -42 -55q-2 -1 -4.5 -4.5t-4.5 -6.5t-3 -3
q-11 -12 -25 -21q-5 -3 -7.5 -4t-7.5 -5l-3 -2q-21 -11 -37 -18q-2 -1 -4.5 -2t-4.5 -2h-1l-1 1q-11 -7 -33 -12q-40 -8 -78 -10h-6h-7h-4.5h-5.5q-5 1 -17 2q-26 4 -34 6q-3 0 -7 1t-6 1q-3 1 -8 1.5t-6 0.5q-31 8 -53 25q-20 13 -25 21q-1 1 -1.5 2.5t-1.5 3t-3 3.5
q-2 3 4 7q1 0 -1 4q-1 1 -1 2q-1 2 -2 5l-1 1q2 1 12 4.5t16 3.5zM147 353v-1v1z" />
    <glyph glyph-name="four" unicode="4" horiz-adv-x="495" 
d="M300 -1q-4 5 -5 15l-1 10v2q1 3 1 4h-1v3v3h-1q0 1 0.5 3t0.5 3q-1 40 16 99v2q0 2 1.5 5t1.5 6q1 1 1.5 4.5t1 5t2.5 5.5t3 7q3 6 13 34l3 9t4 10q-22 3 -52 7h-4q-23 2 -24 2t-19 1h-24q-34 -2 -48 -8q-4 -1 -19 -10q-4 -2 -20.5 -12.5t-27 -16.5t-21.5 -10
q-18 -7 -41.5 10t-4.5 38q14 15 29.5 21t18.5 11q5 10 6 10q1 3 3.5 6t3.5 4q2 3 4 6.5t3.5 6t1.5 3.5q1 1 2.5 2t1.5 2q9 15 18 29h-1l6 8q27 47 48 103q10 27 12 34v3q1 3 2.5 6t1.5 4q11 44 15 63q0 2 3 33q1 6 0.5 23t0.5 18v2q-1 3 -1 4h1v2q-1 3 -1 4t1 2t1 2
q1 9 1 10q1 0 0 2v1q1 2 7 5t7 2t5 -3t7 -6l1 1h1q0 -1 2 -3.5t2 -3.5q2 -2 8.5 -9t9.5 -12.5t4 -10.5q4 -35 -3 -75q-4 -28 -26 -86q-10 -28 -16 -40q-10 -22 -47 -90q-1 -2 -3 -5t-3 -5l-2.5 -5t-2.5 -4q-10 -16 -23.5 -29.5t-40 -34t-27.5 -21.5q-2 -2 -5 -4.5t-5 -3.5
t-3.5 -3t-2.5 -3.5t0 -2.5l12 8q11 7 32 19q6 4 9.5 5.5t9.5 5.5l4 2q21 12 36 15q2 1 5 1.5t6 0.5h2v-1q15 6 39 6q41 1 84 -2q3 0 8.5 -0.5t7 -1t5 -0.5t7 -0.5t10.5 -2t8 -1.5h1q8 28 9 32q8 23 13 35q4 9 11.5 26t8.5 21q2 3 2.5 6t1.5 5t3 5.5t3 4.5q1 3 2.5 6.5t2.5 6
t1 3.5q0 2 1.5 3t1.5 2q7 15 12 27v1h-1l5 8q15 33 35 89q1 3 3.5 9.5t4 10.5t2.5 7v3q0 2 1.5 4t1.5 3q3 11 7.5 24t7.5 20q1 4 2.5 11t1.5 10q1 3 2 8t1.5 8.5t1.5 4.5q1 0 1 1l-1 2h1h1l-1 2q0 1 0.5 1t1.5 1h1l3 4v1l1 1q2 0 8 2t7 1q0 -1 3 -2q4 0 5 -3q1 0 2 0.5t1 0
t1 -2.5l1 -1q1 -1 6 -5.5t7 -8t2 -6.5q-1 -17 -8 -45q-2 -7 -22 -60q-2 -4 -5.5 -14.5l-5.5 -16.5q-5 -13 -16.5 -40.5t-15.5 -36.5q0 -1 -1.5 -4t-1.5 -4q-1 -2 -2 -5t-1 -4q-7 -16 -22.5 -53t-20.5 -50q-4 -10 -9.5 -22.5t-7.5 -15.5v-2.5t1 -3.5v-3q0 -5 -5 -20h5
q7 0 18.5 -1t18 -1.5t9.5 -0.5q6 1 19 5q3 0 6 2q1 1 3 -2l4 1l3 2q3 -15 2 -17q-1 -3 -4.5 -5t-7.5 -3.5t-5 -1.5q0 -1 -2 -1l-3 -1l-3 -1h-3v-1q-1 0 -5 -1q-25 -2 -64 1v-1q-2 -4 -5.5 -15.5t-6.5 -19.5l-3 -8l-2 1q1 -6 -6 -22q-9 -21 -12 -37q0 -1 -1 -3t-1 -3v-2.5
v-2.5t-1 -3.5t-2 -3.5q-2 -8 -2 -16v-3.5v-3.5q0 -2 1 -4l1 -3q1 -6 -6 -37q-6 -25 -6 -26q-2 -5 -3 -10q-1 -3 -9 -2l-2 -7q-1 -1 -2 -4l-1 -3q-1 0 -12 5t-15 10z" />
    <glyph glyph-name="five" unicode="5" horiz-adv-x="455" 
d="M45 182q3 -11 3.5 -25.5t1.5 -16.5v-5t1 -5q1 1 1 0v-4q0 -4 1 -5q1 1 1 0v-3q1 -4 1 -5t3.5 -8.5t4 -9t3.5 -8t4.5 -9t4.5 -8t5.5 -8l6 -6t7.5 -5.5q28 -19 91 -7l4 2q19 6 26 9q6 2 20 10q19 10 25 14q29 19 51 41q15 14 21 24q24 35 38 85q11 42 4 82q-5 29 -21 50
q-1 1 -9.5 7t-11.5 7q-10 4 -20 5q-2 1 -4 1.5t-4 0.5q-18 1 -40 -2v-1l-13 -2q-6 -3 -36 -15.5t-44 -18t-35.5 -9.5t-34.5 -1q-27 7 -18 33v3q1 2 2.5 4.5t2.5 4.5q7 16 19.5 43.5t21.5 47.5q4 9 13 31.5t10 26.5q2 5 19 50h-1q-1 0 -6 0.5t-7 0.5l-15 3h-1h-1v1h-1h-1.5
t-0.5 0.5v1.5q-3 2 -3.5 2t-0.5 1q-1 1 -1.5 5t0.5 5q1 0 2 2t2 3v0v1.5t1 0.5l1 1q2 1 4 3.5t3.5 4.5t3.5 2h23h14q3 6 4 7q1 0 1 1v1q2 1 8 1.5t7 -0.5q0 -1 2 -4q2 -2 3 -7q6 1 8 1h13.5t16 0.5t10.5 0.5h2.5h2.5t2.5 0.5t2.5 0.5q10 1 33.5 2.5t29.5 1.5h31q1 0 6 3h1
q5 1 14 2q2 0 3.5 -1t3.5 0h2q2 0 7 0.5t8 0.5h4l1 -1q2 2 12 2q13 0 25 2h2h2.5t1.5 0.5t2 0.5h2.5h2.5q6 0 11 1l2 1q1 0 1.5 0.5t2.5 1.5l1 1q4 1 14 0q5 -1 6 -2t2 -1q0 -1 1 -5l1 -2h1l1 -1v-18t-2 -3l-2 -2h-1v-0.5t-1 -0.5h-1v0v-1h-1q-9 -4 -48 -8l-2 -1
q-1 0 -3.5 -0.5t-3.5 -0.5t-3 -0.5t-3.5 -0.5h-4h-3.5h-10.5t-9.5 -1q-1 0 -5 0.5t-5 -0.5q-5 0 -14.5 -1t-12.5 -2l-27 -3q-7 0 -18 -0.5t-14 -0.5q-2 -1 -3.5 -1h-3.5q-1 -1 -3 -0.5t-3 0.5q-2 0 -4 -0.5t-3.5 -0.5h-2.5h-1h-2h-16v-1l-4 1q-7 0 -50 -2h-1q0 -11 -3 -20
q-12 -41 -41 -112q-13 -30 -30 -67q17 6 48.5 11t42.5 8q2 1 14 4l14 4q47 4 98 -9.5t68 -43.5q11 -17 12 -40t-1.5 -34.5t-9.5 -38.5q-9 -32 -9 -34q-15 -37 -28 -54q-6 -7 -9 -10t-9 -10l-3 -4q-22 -23 -42 -39q-2 -2 -5 -4t-6 -3l-2 -2l-1 1q-14 -14 -39 -26
q-49 -23 -93 -34q-3 -1 -18 -4q-12 -1 -14 -1q-10 -1 -22 -1q-26 2 -43 5q-7 2 -17 5q-18 6 -19 6q-20 15 -33 36t-15 37q-4 33 1 56q0 2 1.5 7.5t2.5 12.5q2 8 7 6q1 -1 1.5 -1t1 2.5t1.5 6t2 5.5l2.5 5t2.5 6q1 1 0 2q3 -5 11 -14t11 -14zM23 210v1v-1z" />
    <glyph glyph-name="six" unicode="6" horiz-adv-x="452" 
d="M76 275q37 54 87 82q78 42 194 39h6q22 -4 38 -10q19 -6 30 -13q22 -15 28 -29q13 -32 15 -56.5t-5 -53.5q-5 -24 -22 -51q-45 -71 -99 -112q-66 -48 -130 -58q-76 -12 -143 32q-4 3 -6.5 5t-5 5t-3.5 4t-4.5 6t-4.5 7q-10 14 -18 32q-15 35 -19 50q0 3 -2 18q-3 40 3 87
h-1l2.5 10t3.5 11l1 4q27 66 70 134.5t80 107.5q17 18 65 56l6 6q13 9 20 13q43 24 66.5 34t54.5 16q30 7 55 1q15 -4 35 -19t23 -24l2 -5q3 -5 3 -6v-1h-1l2 -5l2.5 -7.5t0 -3.5t-0.5 -4v-21q-1 -1 -1 -4v-4q-1 -2 -4.5 -4.5t-6.5 -3t-3 1.5q-1 3 -4 7q-4 6 -6 14
q-1 1 -1.5 0t-1 -0.5t-2 5.5t-2.5 6q-5 8 -14 17.5t-11 12.5q-24 34 -65 23q-56 -14 -133 -76q-35 -28 -63 -64q-35 -44 -65 -100t-41 -94q-2 -8 -4 -18zM88 129l2 -6q16 -37 40 -61t47 -25q57 -3 128 41q11 8 28 26q34 37 44 52q18 27 19 30l2 6q13 32 17 66q0 3 0.5 7
t0.5 7v2l2 -4q1 1 0 4q-2 6 -5 22.5t-5 21.5q-17 40 -69 53q-8 2 -24 2q-6 0 -20 -1q-22 -1 -33 -4q-39 -10 -66 -25q-14 -8 -24 -16q-14 -11 -21 -20q-48 -60 -56 -98q-4 -17 -7 -64q-1 -9 0 -16z" />
    <glyph glyph-name="seven" unicode="7" horiz-adv-x="476" 
d="M174 48q-1 7 -0.5 12t3 11.5t2.5 8.5q0 1 1.5 4t1.5 4q-1 0 -1 1l2 3q2 4 2 5h-1q0 1 1.5 4t1.5 4q19 61 74 178l1 4q2 3 5 9.5t5 9.5q1 3 3.5 8.5t4.5 8.5t6 10t5 9q2 4 5.5 9.5t4.5 7.5q-4 -1 -20 -2h-7.5h-6.5l-2 -1q-1 0 -2.5 0.5t-2.5 0.5q-9 -1 -31 -1h-9.5h-9.5
t-9.5 -0.5t-10 -0.5h-6.5q-1 1 -2.5 0.5t-2.5 -0.5v1h-2q-2 -1 -2.5 -1t-1 0.5t-0.5 1.5l-7 1h-1q-1 0 -1 1q-2 0 -3 4t0 5q1 0 2 2q2 2 5 3v1q-1 1 -0.5 1t2.5 0.5t2 1.5q2 1 6 4t7 5t6 3q11 1 37 4q8 1 21.5 1.5t16.5 0.5t8.5 0.5t7.5 0.5q6 0 18.5 0.5t16.5 1.5h2h2h2h1
h2l6 9q5 8 17 28.5t19 31.5q26 40 40 61q38 52 55 70q3 2 6.5 4t5.5 4q3 3 8.5 7t7.5 5q0 1 1 2q-108 -15 -116 -15q-5 -1 -13 -1h-16h-9h-4q-4 0 -7.5 0.5t-4.5 0.5q-18 1 -40.5 3t-30.5 3q-15 1 -38 1q-10 0 -30 -2t-21 -2t-4 -1l-4 -1q-1 0 -4.5 -1t-4 -1h-2h-2.5
q-3 0 -5 -1t-3 -1t-2.5 -0.5t-2 0t-2.5 0.5l-2 -1q-3 0 -5 3q-2 1 -0.5 2l4.5 3q3 3 8 5q1 0 0 1q1 1 4.5 2t4.5 2q31 14 39 15q36 5 77 4q17 0 46.5 -2.5t40.5 -3.5q22 -1 40 0q31 3 114 15q3 1 8 1.5t7 1t5.5 1t4.5 1t2 -0.5q5 -11 4 -25q1 -1 -1 -2q-2 -16 -11.5 -33.5
t-29.5 -43t-23 -28.5q-10 -16 -25.5 -37t-21.5 -29l-2.5 -5t-2.5 -5.5t-2 -4.5l-1 -3q-5 -10 -17 -29q-2 -4 -7 -9q1 1 2 1q2 1 7 0q1 0 1.5 -0.5l1.5 -1.5l1 1h4t5 -1h1q1 0 1 -1v-1q1 2 6 1q8 -2 16 -1h1q1 -1 1.5 -1t1 0.5t1.5 0.5t2 -0.5t2 -0.5q4 -1 8 0q1 0 2 0.5
t2 0.5t2 1l1 1q4 1 16 -1q9 -2 10 -2q1 -1 3 -2q1 0 1 -5l2 -1l3 -1q-3 -18 -3 -19q-1 -1 -4 -3l-4 -2h-1h-1v0q0 -1 -1 -1h-1v-1h-1h-1q-12 -4 -45 -4l-1 -1h-2.5h-2.5h-2h-2t-2.5 0.5t-2.5 0.5q-2 0 -5.5 0.5t-5.5 0.5q-1 0 -2.5 0.5t-2.5 1.5q-1 0 -7 -0.5t-7 -0.5h-6.5
h-8.5h-6q-1 -1 -2 -3q-2 -3 -6 -8v-1l-2 1q0 -7 -13 -29q-18 -31 -32 -64l-3 -6t-3 -7q-1 -1 -1.5 -4t-2 -6t-4.5 -8.5t-4 -7.5q-8 -17 -15 -35q0 -2 -2 -6.5t-3 -8.5q-1 -3 -2 -8.5t-1 -6.5q-5 -16 -29 -63q-16 -32 -18 -35q-4 -6 -7 -12q-1 -3 -8 0l-5 -8q-1 -1 -2.5 -3
t-2.5 -3l-1 -1q-2 3 -7 7.5t-7.5 8.5t-3.5 9zM516 645q-2 -1 -2 -3q1 2 2 3z" />
    <glyph glyph-name="eight" unicode="8" horiz-adv-x="440" 
d="M251 389q30 12 61 9q7 -1 18 2q23 4 29 7q3 1 5 2t2.5 1t2 0.5t5.5 2.5l2 2q12 8 25 21l6 6l1 -1q1 4 6.5 13t5.5 10q13 25 17 51q1 9 1 10v3v4t0.5 5.5t0.5 5.5q0 12 -3 21l-3 7q-1 2 -2.5 3.5t-1.5 2.5q-3 5 -4 15t-2 13q-3 5 -11 15l-6 4q-2 1 -1 4q0 1 -1 1h-4
q-4 -1 -8 1q-1 0 -1 -1q-1 0 -3.5 0.5t-3.5 0.5q-6 1 -16 1t-15 1q-33 3 -53 -6q-26 -11 -44 -37q-8 -10 -12 -25q-10 -34 -7 -62v-2q0 -3 1 -4q0 -2 1 -4l1 -2q5 -18 9.5 -52t1.5 -49zM264 364q6 0 12.5 -1.5t12.5 -4t8 -3.5l3 -2q4 -2 5 -2v1q1 0 4.5 -2t3.5 -3q1 0 1 1
q1 -1 8 -5q37 -24 66 -69.5t36 -93.5l1 -4q-1 -8 -4 -23q-3 -13 -5 -19q-4 -10 -12 -20q-17 -24 -37 -40q-9 -8 -23 -16q-38 -22 -72 -31q-45 -12 -96 -11.5t-95 16.5q-9 3 -15 7q-5 2 -14 10q-15 13 -18 17q-2 1 -3 3.5t-1 3.5q-10 16 -17 37h-1l-1 13q3 78 30 130
q3 6 26 37l2 4q2 2 10 9q34 32 67 51q20 11 42 17q15 4 38 8q-8 10 -7 22q0 -1 -1 -1l1 1q1 1 0 1q0 1 -3 4q-2 1 -10 12l-14 18q-2 2 -2.5 4t-0.5 3q-8 16 -12 35h-1l-1 11q5 67 31 104q3 5 23 25l2 2q2 2 8 6q29 17 56 25q17 5 33 6q33 1 46 -4l4 -1l3 -1q1 -1 4 -1.5
t4 -1t1.5 -1l1.5 -1.5q2 -1 4.5 -2t3.5 -1.5t2 -1.5q2 3 5 3q5 2 8 2t8 -1t6 -1t3 -1l3 -1h1v1l2 -1l3 -2q1 0 1 1q2 0 6 -3q26 -19 38 -60.5t4 -84.5l-1 -3q-2 -6 -9 -20q-6 -12 -9 -16q-5 -8 -14 -17q-20 -20 -39 -33q-9 -6 -23 -12q-37 -16 -67 -19q-25 -3 -36 -3
q0 -1 -1 -1q-2 0 -5 -1q-5 -1 -10 -1h-1v-1h-4h-5q-10 -2 -39 -9q-42 -10 -69 -31q-34 -27 -58 -65q-11 -16 -17 -37q-15 -49 -11 -84q1 -7 1 -8l2 -6q0 -1 1 -2q8 -24 27.5 -48t44.5 -29q39 -9 101 0q7 1 21 7q26 11 32 15q5 2 7.5 3.5t8.5 5.5l2 2q12 11 23 26l5 8l1 -2
q1 5 4.5 14t3.5 11q8 25 5 50l-1 11q0 1 -0.5 3t-1.5 4q0 2 -0.5 6.5t-0.5 6.5q-3 15 -10 27q-5 9 -6 10q-2 3 -5 6l-3 3q-5 7 -13 17.5t-13.5 17.5t-9.5 11q-6 5 -11 9.5t-10 8t-7 4.5q-4 4 -10 8q-3 2 -2 6q1 0 -7 4l-8 5q3 1 7.5 3.5t7.5 4t6 1.5z" />
    <glyph glyph-name="nine" unicode="9" horiz-adv-x="452" 
d="M440 558q0 3 -1 4q-2 7 -11 24q-2 5 -6 9q-2 2 0 6q0 1 -6 6l-6 5q3 1 9 4q-25 9 -48 6q-40 -5 -86 -32q-19 -12 -37 -30q-46 -45 -67 -91l-5 -10q-2 -6 -3 -12q-5 -29 -2 -65.5t15 -55.5q20 -32 53 -49q5 -3 17 -3q23 1 31 3q15 4 17 4l3 2q17 9 37 23q9 6 10 7v-1
q3 4 13.5 14t13.5 13q29 34 47 72q5 9 7 14q3 18 5 32q0 5 0.5 18.5t0.5 14.5q0 7 -1 31.5t0 26.5v4q-1 5 -1 6h1zM-39 61q5 0 13.5 -4.5t9 -4.5t2.5 -2l3 -2q0 1 1 1l2 -1q3 -2 3 -3v1h1l2 -2q2 -1 3 -1q78 -31 140 -35l3 1q15 1 17 2q2 0 4.5 0.5l5 1t4.5 0.5q15 4 17 4
q19 6 37 14q13 5 19 9q22 14 42 33q18 17 37 42q20 26 36 57q2 3 3.5 6.5t2.5 6.5t3.5 7t3.5 5l7 21q1 2 2 3.5t2 2.5l12 36v1h-1l4 11q6 20 12 47l-8 -6q-28 -24 -54 -38q-13 -7 -28 -13q-43 -15 -75 -14q-46 1 -79 23q-39 28 -60 79q-3 10 -5 19v18q1 24 2 28q1 3 2 5.5
t1 3.5q6 21 16 43v1h-1l8 12q52 74 102 112q8 6 41 24l4 3q5 3 12 5q45 17 81 22q21 2 41 -1q13 -2 30 -8t21 -9q1 0 4 -2t4 -3l3 -3q3 -2 4 -2.5t1.5 -1.5t0.5 -2q8 -10 9 -11l1 -1q1 -2 1 -3q1 -2 -2.5 -6.5t-4.5 -3.5q-2 1 -5 2v-1q11 -20 15 -47q3 -8 4 -14q6 -42 3 -79
q-1 -17 -13 -65q-3 -9 -5 -25q-8 -43 -21 -94q0 -2 -2 -6.5t-2 -5.5q-1 -3 -2 -7t-1 -6q-14 -36 -37.5 -77t-42.5 -63q-16 -21 -53 -49q-1 -1 -4.5 -4t-5.5 -5.5t-3 -2.5q-11 -9 -25 -17l-7.5 -3l-7.5 -3l-3 -3q-20 -9 -33 -14q-1 0 -3.5 -1t-3.5 -1h-2v1q-9 -6 -28 -9
q-33 -7 -62 -10h-7h-6t-3.5 -0.5t-5.5 -0.5q-4 1 -16 2q-30 3 -33 3t-7 1t-6 1q-3 0 -7.5 0.5t-6.5 0.5q-28 6 -56 21q-21 11 -27 17q-6 5 -9 7q-2 2 1 7l-5 5q-1 1 -2 3l-3 3q4 1 8.5 4t8 4.5t7.5 2.5z" />
    <glyph glyph-name="colon" unicode=":" horiz-adv-x="162" 
d="M157 318q1 -1 2 -3v1q0 1 -0.5 1t-1.5 1zM130 324q1 1 4 2h4v0q1 -1 2 -1v1v0q1 -1 1.5 -1t0.5 0.5t1 -0.5q-1 1 -1 2t0.5 4t1.5 4v1q-1 0 -1 0.5t1 1.5h1q0 2 -1 3v1h1l1 1q2 4 2 5l-1 1l2 1q2 4 5.5 11.5t4.5 9.5l3 3t2 3v1q1 1 2 1h1q6 5 14 9l8 3l11 3h1h1v0h2h1
l3 -1h1q6 -5 4 -7v-2.5v-2.5v-1v-2v0q0 -2 0.5 -6t0.5 -6q-2 -6 -2 -9q-1 -1 -1.5 -3.5t-0.5 -4.5v-1q1 -2 1 -3q1 -1 1 -4.5v-4.5v-1v-1l1 -1q1 -5 -1 -18q-1 -2 -7 -10q-1 0 0 -1q1 -2 1 -3q0 -3 -4 -5q-1 -1 -2.5 -1t-2.5 -1v-1q-6 -4 -10 -5h-3l-1 1q-1 -2 -8 -2
q-9 1 -15 -1h-1h-1.5t-1 -0.5t-1.5 -0.5h-1h-2q-3 0 -8 -1h-1h-2t-3 -1l-1 -1q-6 0 -14 6q-6 4 -6 6l-2 2t2 6l-1 2l-1 3q1 1 6 7.5t9 9.5zM21 91q2 0 6.5 -2t5.5 -2l1 -1v-1.5t1 0.5l1 -1l1 -1q0 1 0.5 0.5l1 -1t0.5 -1.5q6 -4 12 -9q0 1 1 2q0 1 -0.5 1.5t0 1.5l0.5 1l1 1
q1 2 1 3v1.5t1 0.5h1q0 1 3 7h-1l2 2q2 3 8 11t8 10t5 3.5t3 2.5v1h2h1q8 4 17 6q8 1 9 1q11 1 12 1h1h1h1h1l1 -1v0q3 -1 3 -1.5t1 -0.5v0q0 -1 0.5 -3.5t-0.5 -3.5l-1 -1q-1 -2 -2 -2v-1l-1 -1v0q-1 -1 -2.5 -4t-3.5 -3q-6 -3 -7 -6q-4 -5 -5 -9v-2v-3q0 -2 -0.5 -6.5
t-0.5 -6.5h-1v-1.5t1 -1.5q-1 -9 -6 -23q-1 -3 -9 -11v-2v-2q-1 -3 -6 -5q-1 -1 -2.5 -1h-3.5v-1q-7 -2 -11 -2l-4 1v1q-1 -1 -7 -2l-19 -2h-2h-1.5h-1.5h-2l-4 2q-4 3 -9 5q-1 0 -3 1l-1 1q-2 0 -4 1h-2q-6 3 -14 17q-6 10 -6 12q-1 3 -1 5q-1 2 5 6l-1 4v4q1 0 9.5 5
t15.5 6z" />
    <glyph glyph-name="semicolon" unicode=";" horiz-adv-x="144" 
d="M191 326q1 -1 2.5 -3.5t1.5 -3.5l1 -1v0q-1 0 -1 -0.5t0.5 -0.5t0.5 -1q1 -5 -5 -16l1 -1q0 -1 -0.5 -1t-0.5 -0.5v-1v-1t-1 -0.5h-1q-1 -1 -2 -1.5t-1 -1.5h-1.5t-1.5 -1v-3q-1 -2 -1 -2.5v-2.5t-0.5 -3t-1.5 -2.5t-1 -2.5q-1 0 -0.5 -0.5t0.5 -1t-1 -0.5h-1v-2h-1
q-1 -1 -1 -2l1 -1h-2q-2 -1 -3 -9l-1 -1l-1 -1l1 -1h-1q-1 -2 -5 -4q-1 0 -1.5 -1t-1.5 -1l-2 -2q-2 -1 -4 0v-1l-1 1h-1v-1l-1 1h-2l-4 1h-1.5t-0.5 1q-16 5 -17 7l-4 2q-4 2 -5 3q0 1 -1 1.5t-1.5 0.5t-1 0.5t-0.5 1.5q-2 1 -6.5 3.5t-7.5 4.5t-3 3q0 2 2 8q0 1 3 3t3 3
q1 1 1 2.5t1 1.5q0 1 2.5 4t2.5 5v0q1 1 0 2v0q1 2 2 4.5t3 4.5l3 3q0 1 7 4l-2 4q1 2 1 2.5t1.5 0t1.5 0.5v1l1 1l1 1q1 1 2 0q1 0 2 -1q-2 4 0 4q4 1 5 5h1v1q0 1 0.5 1t1 0.5t1.5 0.5q1 1 1 3v0v2l-1 2v1q-1 2 6 3h5q2 -1 3 -1l6 -5l3 -1q1 -1 2 -1q1 -1 8.5 -7.5
t13.5 -12.5zM-109 -147q-1 0 1 3q1 1 1 2h1v1h1v1h1h1q6 5 47 24l1 1q1 1 3.5 2t4.5 2q1 0 3 1.5t3 2t4 1.5t4 2q6 2 19 9l4 1q3 2 5 3q9 6 23 16q9 6 21 17q12 10 20 19q1 1 1.5 2.5t1.5 2.5l2 2t2 1q0 1 3 7q0 1 1 1t1 1q3 5 5 10l-1 1l2 2q4 14 2 31v3.5t-0.5 4t-0.5 2.5
l-1 1v1v2q-4 18 -5 24q-1 1 -8 15q-1 3 -7 11.5t-7 10.5l-2 1q-1 2 -1 2.5t1 0.5l-2 1q-1 2 -1.5 2.5t-0.5 1.5v1l-3 7l-1 1l-1 1q0 1 1 3.5t2.5 4t2 1.5h3.5t6 -1q1 -1 1 0t0.5 0.5t2.5 -1.5l2 -1q3 -1 8.5 -2t9.5 -2t7 -4q18 -15 29 -32q11 -16 17 -42q2 -13 1 -20
q-2 -19 -15 -44q0 -1 -1 -2l-1 -2q-1 -1 -1.5 -2.5t-1.5 -2.5q-18 -23 -47 -44q-6 -5 -27 -17q-1 -1 -2.5 -2t-3.5 -2l-1 -2q-4 -3 -12 -7q-3 -2 -4 -2t-4 -1l-1 -1q-1 -1 -6.5 -3.5t-9.5 -4.5l-4 -2v1q-3 -3 -12 -7q-14 -5 -26 -12q-1 0 -3 -0.5t-2.5 -1t-1.5 -1l-2 -1
l-3 -1.5t-3 -1q-5 -2 -10 -5l-1 -1l-3 -1.5t-1.5 -1.5t-1.5 -1q-2 -2 -12 -6l-5 -1q-1 0 -1 -0.5t-2 2.5h-1l-1 1q-7 10 -7 12z" />
    <glyph glyph-name="less" unicode="&#x3c;" horiz-adv-x="480" 
d="M89 213q1 3 6.5 6.5t6 3.5t2 0.5t1.5 1.5v1h2l2 1v1l1.5 0.5t2.5 0.5q5 3 87 40l2 2q2 1 5 2t5 2q1 1 3.5 2.5t4.5 2t5 2t5 1.5q6 3 13 6t10 4q1 1 5 2t6 2q4 2 8.5 4.5t10 5.5t8.5 5q2 1 11.5 6.5t14.5 7.5q5 3 15.5 7.5t13.5 6.5q1 0 2.5 1.5t2.5 1.5q2 1 4 1l2 1l4 2
t3 2l1 1h2h2l14 7l4 1q7 3 15.5 6.5t17.5 7.5t12 6q2 1 7.5 2.5t6.5 2.5l1 1q1 1 2.5 1h2.5q12 4 28 8q1 0 6.5 1.5t7.5 1.5l20 4q0 -1 2 0h1h1h2v0q1 -1 2 -1q4 -1 4.5 -1h1.5q1 -1 3 -4.5t1 -4.5q-1 0 -1 -2q-1 -3 -3 -4v-1q1 0 0.5 -0.5t-1.5 -1t-1 -1.5q-1 -1 -3 -4.5
t-3.5 -5.5t-3.5 -3q-5 -2 -14.5 -5.5t-11.5 -4.5q-5 -2 -15 -5t-16 -6q-3 -1 -8 -3.5t-6 -2.5q-34 -16 -37 -17h-2l-2 -2q-1 0 -2 -1l-1 -1q-10 -6 -31 -16t-25 -12q-2 -1 -30 -13q-1 0 -2.5 -1.5t-2.5 -3t-2 -1.5q-4 -3 -13 -7q-3 -1 -4.5 -1t-4.5 -1l-1 -2
q-2 -1 -7.5 -3.5t-9.5 -4.5l-6 -1v1q-3 -3 -14 -8q-17 -6 -35 -14q-1 -1 -3.5 -2t-3.5 -1l-2 -2t-2.5 -1.5t-5 -1.5t-4.5 -1q-9 -3 -18 -8q-1 -1 -3.5 -2t-3.5 -2q-2 -1 -4.5 -2.5t-2.5 -2.5q-6 -3 -12 -5q2 0 5 -1q2 0 35 -8q3 -1 8 -2t8 -1q7 -2 19.5 -6t15.5 -5q1 0 2 -1
t2 -1h1h3q16 -6 45 -22q3 -1 20 -15q0 -1 3 -1h4q4 -1 10 -5q2 -2 2 -3.5t2 -2.5h2q1 -1 5 -3.5t6 -5.5q2 0 3 -1.5t0 -1.5l-1 -2q4 1 12 -5q10 -10 25 -17l2 -1q2 -2 3 -2q1 -1 2 -1t2.5 -1t3.5 -3t3 -2q7 -5 16 -8q1 -1 3 -2t4 -1q2 -1 4.5 -1h3.5q6 -2 30 -18
q15 -10 16 -11q3 -3 6 -5q1 -1 -1 -7l3 -4l4 -4q-1 0 -7 -8.5t-11 -11.5q-1 -2 -9.5 -1t-9 1t-1.5 1l-2 1h-1v-1l-2 1l-2 1q0 -1 -1 -1l-2 1q-1 1 -2 1q-29 7 -89 37l-2 -1q-1 1 -4 3t-4 2q-1 1 -3.5 2t-4 1.5t-4 2.5t-3.5 3q-3 2 -8.5 6t-8.5 6l-3.5 3.5t-3.5 2.5
q-4 3 -12 7t-9 5q-1 0 -8.5 4t-11 6.5t-9.5 7t-9 6.5h-1l-3 1.5t-1.5 1.5t-1.5 2q-2 1 -5 2h-1v1.5t-1 1.5q-5 3 -9 6v-1l-3 2q-10 8 -32 17q-2 1 -4.5 2t-4.5 2t-3 1l-2 -1l-2 2l-1 1q-6 2 -13.5 5t-11.5 4q-2 1 -7.5 2.5t-7.5 2.5q-3 1 -8 2t-9 2t-5 2l-2 1h-2v1h-2h-1
l-1 1q0 1 -1 1l-5 3h-1l-1 1q-1 1 -1 5.5t1 4.5q1 1 2 3q2 2 5 2v1l-1 2h-4h-5v10.5t2 9.5z" />
    <glyph glyph-name="equal" unicode="=" horiz-adv-x="501" 
d="M549 282q-2 -2 -6 -3.5t-4.5 -1.5h-1.5h-2v-1h-1h-2v-1h-1h-2q-9 -2 -79 -9l-2 -1h-4.5t-5.5 -1q-1 0 -4 -0.5t-5 -0.5h-5h-5q-6 0 -13.5 -0.5t-12.5 -1.5h-6h-6q-6 0 -17.5 -1.5t-15.5 -2.5q-28 -3 -33.5 -3t-37.5 -1q-1 0 -3 -0.5t-4 -0.5h-4l-3 1q-3 0 -5 -0.5
t-4 -0.5h-2q-1 0 -2 0.5t-2 0.5h-18l-5 1q-11 1 -31 2.5t-26 1.5q-3 1 -9.5 2t-7.5 1h-2q-2 0 -3 1h-2q-16 4 -31 10q-15 5 -16 6q-18 10 -18 11l-1 1q-2 0 -2 1v1h-2l-1 1v1v2q-2 5 -2 5.5t-1 0.5v1q0 2 3 8t5 6l3 2q3 2 5 2v1q1 1 1.5 1h1.5h2l6 3t7 3t4 0q4 -1 11.5 -5.5
t11.5 -6.5q26 -11 31 -13q4 -1 17 -3q30 -6 43 -7h2.5h2.5h3h2h70q5 1 19.5 0.5t16.5 -0.5q1 0 3 1t4 1l2 1q6 1 16 2q3 0 4.5 -0.5t4.5 -0.5l2 1q3 0 9 0.5t11 0.5h5v-1q4 2 16 2q18 1 35 3q1 1 3.5 1h3.5t2.5 0.5t2.5 0.5h4.5h4.5q8 0 17 2q1 0 3 0.5t3 0.5l4 2t3 1
q8 1 27 0q12 -1 14 -2q3 -1 5 -1q1 -1 1 -6l3 -1l3 -1q-1 -1 -2 -8t-3 -11zM539 123q0 -2 -3 -4.5t-3.5 -2.5h-1.5h-1v-1h-1q-1 0 -1 -1h-1l-1 -1q-17 -7 -76 -18l-2 -1q-2 -1 -5.5 -1t-5.5 -1q-1 0 -4 -1t-5 -1t-6 -0.5t-6 -0.5q-4 0 -13 -1t-15 -2q-3 0 -7.5 -0.5
t-7.5 -0.5q-6 -1 -19 -2.5t-19 -2.5q-29 -4 -38 -4q-9 -1 -43 -2q-2 0 -4.5 -0.5t-4.5 -0.5t-5 1h-3q-3 0 -6 -0.5t-5 -0.5h-2q-1 0 -2 0.5t-2 0.5h-21v-1l-6 1q-11 2 -33 3t-28 2q-4 0 -10.5 1.5t-7.5 1.5l-2 -1q-2 1 -4 1l-1 1q-16 4 -30 10q-14 5 -15 6q-16 10 -17 12
l-1 1h-1h1v1.5t-2 0.5l-1 1l1 1v2q-1 5 -0.5 5.5l0.5 0.5l-1 1q1 2 7 8t7 6t4 2q4 2 6 2l1 1q0 1 0.5 1h1.5h1q3 1 6.5 3.5t6 3.5t3.5 0l5.5 -5.5t8.5 -6.5q16 -11 27 -15q4 -1 17 -3q30 -6 47 -7h2.5h2.5h4h2q63 0 81 1q10 0 24.5 0.5t17.5 0.5q1 0 3.5 0.5t4.5 1.5l2 1
q7 1 19 2q3 0 5 -0.5t5 0.5l2 1q4 0 11 1t11 1h6l1 -1q3 2 17 3q19 2 37 6q1 0 3.5 0.5t3.5 0.5t2 0.5t2.5 1t4.5 0.5h4q8 1 16 4q1 0 3 0.5t3 1.5q1 0 3 2l2 1q6 2 22 3q10 1 11 1q2 -1 3 -1t2 -5l3 -1l2 -1q1 -17 1 -18z" />
    <glyph glyph-name="greater" unicode="&#x3e;" horiz-adv-x="380" 
d="M426 214q-1 -1 -5 -2l-4 -1h-1h-2v-1h-1h-1v-1h-2h-1q-42 -16 -71 -33l-2 -1q-1 -1 -4 -3t-5 -3t-4.5 -3t-3.5 -3t-4.5 -2.5t-5.5 -3.5q-7 -4 -23 -15q-1 -1 -4 -3l-1 -1q1 0 5 2.5t6 3.5h1q1 1 1.5 1t1.5 0.5t1 1.5l20 10l3 1l-1 -2v-1h1v-1h2v0l1 1q1 0 2 -1l1 -1
l-3 -2h1q2 1 3 1l2 1l-2 -2v-1h-1l-1 -1l2 1l-1 -1v-2h1h1l0.5 0.5t2.5 0.5l2 1q2 1 -2 -2h-1l-4 -4q-3 -1 -3.5 -1.5t-9.5 -5.5l-2 -2h-1h-1l-2 -2q-4 -2 -15.5 -8.5t-20.5 -11.5q-1 -1 -5 -3t-5 -2l-1 -1v0h-1l-1 -1v1q-5 -3 -8 -2l-2 -1v1v1q1 0 1.5 0.5t0.5 1v1.5h1h-1
q-1 -1 -1.5 -1h-1.5h-1.5t0 0.5t0.5 1t-1 -0.5v1q-4 -4 -13 -12t-14 -12t-15 -12.5t-15 -12.5q-2 -2 -3 -3.5t-3 -2.5q-1 -1 -3 -2.5t-3 -1.5l-3.5 -3.5l-2.5 -2.5l-2 -2l-2 -2h-1q-11 -9 -14 -11v-1l-4 -3q-8 -5 -21.5 -16t-17.5 -14q-2 -1 -6 -3.5t-5 -2.5v-1q-1 -1 -2 -1
t-2 -1q-10 -4 -19 -5q-5 -1 -9 -1q-1 0 -5 -0.5t-5.5 -0.5h-3.5h-1h-3l1 1h-2l-1 1v1v1q-1 4 -0.5 4.5l0.5 0.5v1q1 1 6.5 4t6.5 3t3.5 1.5t3.5 2.5h1l1 1l1 1q0 3 -1 5q1 2 5.5 5l7.5 5q2 1 5 4l4 4q4 3 10.5 8.5t11.5 10t8 7.5q1 0 2.5 1t1.5 2l2 2l2 2q12 12 57 50
q5 5 33 25q1 1 3 2.5t3 3.5t2 2q5 5 14 12q3 2 5 2.5t5 2.5l1 2q1 1 7.5 5.5t11.5 7.5l6 3l1 -1q2 4 15 11l35 20q1 1 3.5 2t3.5 1.5l2 1t2.5 1.5t5 2t4.5 2q7 2 16 6q-3 1 -33 9q-2 0 -8 1.5t-9 2.5q-8 2 -23.5 7.5t-19.5 6.5q-1 0 -2.5 0.5t-2.5 1.5q-1 0 -2.5 0.5
t-2.5 0.5q-26 9 -66 28q-6 3 -31 19q-1 0 -3 0.5t-4 0.5l-3 1q-6 3 -15 8q-2 2 -3 3.5t-4 3.5h-2q-1 1 -7 4.5t-10 6.5l-5 4l2 1q-6 1 -16 9q-14 12 -30 23q-1 1 -3 2.5t-3 2.5q-1 0 -2.5 0.5t-3 2t-3.5 4t-3 2.5q-7 7 -16 12q-1 1 -3 2.5t-3 2.5q-2 1 -4.5 1.5t-3.5 1.5
q-9 6 -23 24q-8 13 -9 15q-1 3 -2 5t4 7l-1 4l-1 4q1 0 10 5.5t15 7.5q3 0 8 -2.5t6 -2.5l1 -1l1 -2v0l1 1l1 -1l1 -2h1v1l1 -1q1 -2 2 -2q8 -6 19.5 -15.5t25.5 -22.5t21 -20h2q2 -1 4.5 -3.5l3.5 -3.5q2 -1 4.5 -2.5t3.5 -2.5t3.5 -4t4.5 -4q4 -3 19 -16q1 -1 4.5 -3.5
t5.5 -4.5q5 -3 27 -16q5 -3 14.5 -8.5t13.5 -7.5q28 -16 30 -17q1 0 3 -0.5t3 -1.5q2 -1 3.5 -2.5t2.5 -1.5q2 -1 4 -1.5t3.5 -1t1.5 -1.5q1 0 1.5 -0.5l1.5 -1.5q7 -4 15 -7v1l4 -3q17 -8 47 -18q2 -1 5 -2t5.5 -2t3.5 -1h2q1 0 2 -1t2 -1q5 -1 9 -2.5t8.5 -3t8.5 -2.5
q2 -1 6.5 -2t6.5 -2t6 -2t7 -1.5t4 -1.5h1h1v-1h1h1.5t0.5 -1t1 -1l3 -2v-1h1q1 -1 1 -4h6q3 -1 5 -1q1 0 1 -3l3 -1l3 -2q0 -1 -2 -5.5t-4 -7.5zM67 7q-1 1 -1 0v-1q0 1 1 1z" />
    <glyph glyph-name="question" unicode="?" horiz-adv-x="429" 
d="M246 100v-4l-1 -2h-1v-1.5v-0.5h-1l1 -1h-1q-4 -4 -23 -14v-1q0 -1 -1 -1t-1.5 -0.5l-1 -1l-1 -1t-1.5 -0.5h-2t-4 -1l-2 -1q-1 -1 -2 -1h-2l-6 -6q-1 -1 -2.5 -3.5t-1.5 -3.5q-3 -4 -4 -5v-1.5v-1v-0.5h-1l1 -2h-1v-3l1 -1v0q0 -3 7 -5q-1 0 -1 -0.5t-1 -1t-2 -2
t-3 -2.5v-1h-1h-1v-1l-2 -1q-1 0 -1 -1l-5 -3v0l-1 -1q-18 -9 -21 -9l-5 -1q-5 -2 -7 -1l-2 -1l-1 -1q-1 0 -2 0.5t-2 0.5q-2 0 -9 -1t-11.5 -1t-5.5 2q-5 6 -7 18q0 5 7 23q0 1 0.5 3t1.5 4t1 3q3 3 6 6.5t6.5 7l4.5 4.5h1l1.5 1.5l0.5 0.5v1q5 4 25 14q1 1 12 3l1 2
q0 1 1 2t4 2q1 1 2 0.5t2 -0.5v1q1 0 2.5 1t3.5 1q2 1 2 0v-1q0 2 5 3t10 4l1 1h1v0q1 1 1 1.5t1 0.5h2q2 0 4 3v1q1 0 1.5 0.5t0.5 1.5t1 1q2 3 8 2h4q1 -1 2 -1t3 -5l2 -1l1 -1q8 -18 9 -19zM200 248q-4 2 -7 5t-6 8t-4 6q0 1 -0.5 3.5t-0.5 3.5h-1l-1 3v3h-1v3.5v3.5
q20 48 114 94l3 2q3 1 9 4l10 5q3 1 8 4t7 4t8.5 4t10.5 5q23 12 39 24q12 8 16 13q17 20 19 40q2 17 -4 41q-7 29 -27 62q-1 2 -3 4.5t-3 3.5t-3 4t-3 4q-5 5 -13 10q-1 0 -2 1l-2 2q-11 6 -25 11v-1l-8 3q-52 3 -94 -16q-14 -7 -25 -16l-2 -2q-2 -2 -4.5 -3.5t-2.5 -2.5
q-22 -22 -32 -40q-3 -6 -7 -23q-2 -5 -2.5 -17t-1.5 -15q-1 0 -0.5 -2t0.5 -3h-1v-3q1 -2 1 -2.5t-1 -1.5l-1 -1v-4.5v-2.5t-1 -3v-1v-2q-1 -2 -6 -5t-6 -2t-5 3t-6 6h-1l-1 -1q-1 1 -2.5 3.5t-1.5 3.5q-2 2 -6 7.5t-6 8.5t-4 8t-1 10q3 35 26 64q19 24 62 49q18 11 34 16
q43 14 91 16q1 0 10 -1h5.5h4.5q35 -7 72 -31t54 -56q20 -39 7 -86q-5 -17 -6 -19q-9 -15 -21 -26q-5 -4 -8 -5.5t-7 -4.5l-2 -3q-19 -13 -33 -21q-1 -1 -3.5 -2t-3.5 -2l-2 -1l-1 1q-7 -6 -28 -16q-42 -19 -64 -30q-1 0 -5.5 -2t-6.5 -4l-4 -2t-4 -3q-2 0 -6.5 -2.5
t-7.5 -4.5q-14 -8 -22 -16q-4 -5 -5 -7q-3 -5 -3 -9q-1 -5 -0.5 -9t1 -6.5t0.5 -3.5q0 -5 -2 -10q-1 -2 0 -6q0 -2 -6 -5q-1 0 0 -6t2 -6l-10 -2.5t-8.5 -2t-9.5 0.5zM196 38l1 -1h2l-2 1h-1zM196 38v0v0z" />
    <glyph glyph-name="at" unicode="@" horiz-adv-x="790" 
d="M508 280q-4 10 -4 19q-4 34 1.5 81.5t10.5 66.5q0 1 1.5 9t1.5 10h1v1q-19 22 -36 25q-28 5 -67 -11q-16 -7 -32 -20q-42 -34 -66 -72q-3 -5 -5 -9q-2 -6 -4 -10q-8 -28 -9 -61.5t7 -53.5q9 -26 25 -42q3 -2 12 -4q18 -4 23 -4h14l3 1q15 3 34 10q8 4 9 4q3 2 13.5 8
t14.5 8q30 21 52 44zM647 66q-9 -8 -18.5 -15t-15.5 -10t-16 -8.5t-12 -6.5q-1 0 -4.5 -2t-8 -3.5t-5.5 -2.5t-19 -7v-1q-9 -4 -18 -6q-122 -31 -212 -16q-108 19 -216 107l-7 7q-19 22 -33 43q-15 22 -22 41q-13 31 -16 55q-6 44 -4.5 73.5t10.5 70.5q6 29 27 76
q45 104 87 150q56 61 140 92q79 30 193 34q16 0 40 -1q20 -2 39 -5q41 -7 59 -12l18 -6q44 -16 86 -41h1v1l23 -17q76 -72 94 -142q9 -46 3.5 -82.5t-22.5 -67.5q-20 -37 -68 -81l-8 -7q-21 -16 -26 -18q-58 -28 -86.5 -34.5t-72.5 1.5q-16 4 -33 28q-6 -5 -18 -14t-17 -13
q-9 -6 -20 -12q-27 -14 -50 -21q-11 -4 -24 -6q-37 -6 -60 -3q-37 6 -58 28q-26 27 -33 77q-1 10 0 17q0 4 3 17q5 21 6 24q0 2 1.5 4t1.5 3q8 17 19 36v1l7 9q51 59 96 86q8 5 34 16l4 2q5 2 10 3q37 8 64 7q18 -1 32 -7q4 -2 9 -6q6 16 8 19q1 1 2.5 4.5t2.5 3.5q4 7 10 5
q2 -1 1 -2q-1 -4 -2 -10q0 -8 -3 -19q0 -2 1 -1t1 0q-1 -1 -1.5 -6t-1.5 -8q7 -6 8 -9l2 -2q2 -3 3 -4h-1q0 -1 2 -3.5t2 -3.5v-3v-1q3 -11 2.5 -12t0.5 -3v-1q0 -2 -5 -5t-6 -2t-4 3t-6 5q0 -39 -1 -51q-2 -39 0 -68q9 14 14 26q4 9 5 13q0 1 2 14q2 8 4 18.5t3.5 17.5
t1.5 11q1 6 0.5 13.5t0.5 8.5v7q0 2 6 4v6v6q18 3 26 -1q3 -2 5.5 -6.5t4.5 -10t2 -7.5l1 -3v-4h1v-4v-3q0 -1 0.5 -0.5t0.5 -0.5v-7q-10 -64 -72 -141q7 -30 23 -38q31 -15 76 4t89 60q45 43 52 89q9 52 -9.5 115t-45.5 99q-5 6 -17.5 17.5t-19.5 16.5q-88 56 -179 67
q-99 11 -179 -13q-91 -28 -152 -83q-12 -11 -28 -36q-30 -48 -40 -71q-5 -9 -7.5 -14t-3.5 -6t-3 -6l-6 -15l-3 -8q-20 -50 -31 -108q-3 -20 -3 -28l-2 1q1 -6 1.5 -23.5t2 -32t3.5 -23.5q21 -80 71 -140q9 -10 24 -23q4 -4 20 -15q22 -17 34 -23q43 -22 80 -32q19 -5 35 -8
q23 -4 37 -4q101 0 154 18q36 13 78 35q11 6 24 16q9 4 9 2l2 1q1 1 4.5 3.5t5 3.5t4.5 4q14 10 16 12q-3 -5 -6 -11q-4 -6 -5.5 -9t-4 -6.5t-5.5 -5.5zM668 98v0v0z" />
    <glyph glyph-name="A" unicode="A" horiz-adv-x="506" 
d="M401 501q-7 -12 -13 -23l-1 -4q-3 -3 -7 -8.5t-5 -8.5q-1 -2 -4.5 -7t-5.5 -8q-2 -2 -4 -4.5t-4.5 -6t-4.5 -4.5q-20 -24 -31 -37l-8.5 -8.5l-8.5 -8.5q-6 -8 -19.5 -23.5t-20.5 -23.5q-4 -5 -18.5 -21t-22.5 -25q-34 -39 -43 -49q14 2 39 5t28 4q10 1 48 4q2 0 4.5 0.5
t4.5 1.5l3 1q9 1 22 2q4 0 6 -0.5t6 -0.5l2 1q2 0 9.5 0.5t12.5 0.5q1 9 1 16q4 43 6 56q1 9 3 19.5t3.5 23t2.5 19.5q1 3 1 6.5t1 5.5q0 4 1 8t1 5q1 4 1.5 8t0.5 7t1 3q0 2 0.5 3.5t0.5 2.5q3 19 5 31h-1l3 9q2 12 5 28zM390 -34q-2 0 -4 2t-4 4.5t-3 3.5l-1 2v1.5t-0.5 0
t-0.5 0t-1 2.5v1h-1l-1 2v2q-15 35 -19 114l-1 3v8v8v6.5v7.5t0.5 9t1.5 8q2 31 3 40q1 4 2 10.5t1 9.5t1 6h-14q-13 0 -42 -3q-8 -1 -23 -3t-19 -3q-6 0 -22.5 -2t-26.5 -4q-2 0 -4.5 -0.5t-4.5 -0.5q-3 -1 -6 -1h-4q-3 0 -6 -0.5t-5 -1.5h-3q-2 -1 -3 -0.5t-2 0.5
q-22 -3 -24 -3v-1h-2l-1 -1q-3 -5 -13 -21h1l-6 -8q-72 -106 -79 -115q-2 -2 -31 -34l-3 -4q-3 -3 -10 -8q-34 -25 -62 -31q-21 -5 -34 -1q-11 4 -25 20t-14 23l1 11h1l1 4l2.5 5t2 2t1.5 2q2 2 3.5 4t2.5 2.5t1.5 1.5t2.5 1l2 1l1 2q2 1 4.5 0.5t5 -1.5t2.5 -2q-1 -2 0 -6
t1 -8v-1h1l1 -2q0 -3 1 -4q2 -2 6 -3.5t7 -2t3 -1.5q2 -12 5.5 -18t9.5 -4q16 7 52 49q9 12 28 38q41 62 62 98l5 6q-12 -1 -19 -1q-4 -1 -12 -1h-10l-2 -1q-2 0 -4 0.5t-3 0.5q-21 0 -40 2q-16 2 -20 3q-23 5 -24 7h-3h-1v1l-1 1h-2.5t-0.5 1t-1 1q-4 3 -4 3.5t-0.5 1
t-1.5 0.5q0 1 1 5.5t2 4.5t3 2t4 2q0 1 0.5 1h1.5h2q2 1 5.5 2.5t6.5 2.5t5 0q28 -5 33 -6q29 -3 46 -3q5 0 23 1q22 1 38 3q18 22 64 73q9 10 17.5 18.5l17.5 17.5l13 13q1 1 2.5 3.5l3 5t3 4t1.5 2.5q6 7 19 23q4 4 6.5 5.5t5.5 5.5l2 3q2 2 23 28q1 1 2.5 3t2.5 3l1 1
l2 -1q1 5 16 25q20 27 34 54q0 1 2.5 5t3.5 7q0 1 1 3.5t2 5.5q1 2 4 6.5t4 7.5q7 15 11 30q3 12 3 13q1 4 1 8.5v5.5q2 10 5 21t6 21t4 13q2 6 3.5 13t2.5 11.5t2 7.5l4 10q0 4 8 3l3 7q1 1 1.5 3t1.5 3v2q4 -2 11 -5q0 2 2 2q0 1 1 1v1q1 1 5.5 2t5.5 0q0 -1 3 -2
q2 -2 3 -5h1q1 1 1 0.5t0.5 -2t0.5 -2.5q1 -2 4.5 -6t5 -7t1.5 -7q0 -14 -2 -44q-1 -11 -4.5 -32.5t-4.5 -26.5t-2 -15t-2 -15q-1 -12 -5.5 -40t-5.5 -39q-1 -1 -1.5 -4t-0.5 -5v-5v-4q-3 -19 -9.5 -63t-8.5 -59.5t-5.5 -37t-4.5 -23.5q0 -3 0.5 -6t0.5 -7v-3v-9
q11 -1 29 -2q1 0 4 -0.5t4 -0.5h3h4t5.5 -1t4.5 -2q10 -2 21 -3q2 -1 4.5 -1.5t4.5 -0.5h5h4q16 -3 34 -15q13 -9 15 -13t4 -5q1 -2 -4 -7l2 -5l1 -4q-2 -1 -10.5 -7.5t-15.5 -8.5q-2 -1 -7 1t-6 2l-1 1l-1 1v-1h-1l-1 2l-1 1l-1 -1l-1 1l-1 1q-53 25 -79 32l-2 -1
q-2 1 -5.5 1.5t-6.5 0.5q-2 0 -5 0.5t-5 0.5l1 -1q-1 -5 -2 -15.5t-1 -16.5l-2 -8h-1q2 -5 0 -25q-2 -27 -1 -51v-5.5t0.5 -5l1 -3t0.5 -3.5t-0.5 -6t-0.5 -6q1 -12 3 -22q0 -1 0.5 -3.5t1.5 -4.5t2.5 -4.5t1.5 -3.5q1 -4 4 -30l2 -15v-5q0 -1 -5 -3v-5l-1 -3
q-2 0 -6.5 -1.5t-7 -2t-7.5 0.5z" />
    <glyph glyph-name="B" unicode="B" horiz-adv-x="539" 
d="M240 334q-3 -8 -8.5 -20t-6 -13.5t-0.5 -4v-4.5v-3q-1 -8 -5 -19q-1 -3 -2.5 -4.5t-3.5 -5.5l1 -2q-1 -3 -3.5 -10t-4.5 -13l-3 -5h-2q2 -5 -4 -19q-9 -20 -14 -41q-1 -1 -2 -4t-1 -4v-3t-0.5 -3.5t-2.5 -5t-2 -4.5q-4 -10 -6 -21q0 -2 -0.5 -4.5t-0.5 -4.5
q-1 -1 -0.5 -5.5t-0.5 -6.5q-2 -13 -4 -20q24 -18 45 -30l4 -1q22 -8 23 -8q4 -2 11.5 -3.5t8.5 -1.5q21 -5 23 -5q29 -4 56 -2q18 2 27 5q36 11 62 33q25 21 44 54q19 36 21 69q0 3 -1.5 6t-1.5 5t0.5 5t0.5 4q0 3 -1 5.5t-2 4.5l-1 2q0 1 1 2.5t1 2.5q-2 11 -5 22l-1 -1
h-1l-1 8q-11 20 -35.5 39.5t-48.5 28.5q-21 8 -45 11l-5 -1q-3 1 -7.5 2t-6.5 1h-25h-1q-4 -4 -9.5 -5.5t-6.5 1.5l-1 1q-8 -1 -9 -2l-1 1q-3 0 -9 -1q-8 -2 -10 -2h-6h-6h-5zM299 637q29 10 47 14q46 9 93 11h5l3 -1h5h3q26 -3 52.5 -15t36 -28t2.5 -50v-5v-5l1 -3
q-2 -11 -8 -22q-2 -4 -4 -5.5t-4 -5.5v-2q-11 -17 -17 -25l-5 -6l-2 1q-2 -7 -15 -20q-26 -24 -44 -40q-2 -1 -5.5 -3.5t-4.5 -3.5l-3 -3t-5 -3q-1 -1 -14 -9q-7 -4 -17 -10t-11 -7q-3 -1 -6.5 -3.5t-5.5 -2.5q0 -1 -1 -1q24 -2 43 -6q68 -15 128 -52q1 -1 12 -10
q2 -2 6.5 -5t5.5 -6q25 -42 20.5 -103.5t-32.5 -98.5q-5 -7 -11 -13.5t-10.5 -11t-11.5 -10t-10.5 -8t-11 -7.5t-10 -6.5t-11 -6t-9.5 -5.5q-2 -1 -7.5 -4.5t-9.5 -6.5l-4 -3q-20 -11 -41 -17q-8 -2 -12 -2.5t-11 -2.5q-5 -1 -5 -2q-30 -6 -52 -9h-5.5h-5.5h-3v2
q-15 -6 -43 -3q-50 5 -96 15q-4 0 -11 2.5t-8.5 3t-6 1.5t-8.5 3q-6 2 -23 11q-10 5 -25.5 13t-20.5 10t-10 5.5t-8 5t-8.5 3.5t-7.5 3q-22 17 -67 66q-5 6 -14.5 13t-14.5 12.5t-5 12.5q-2 21 16 30.5t44 9.5q7 -1 7 -3v-2h2q2 -1 5.5 -1h5.5q5 -1 5 -3l1 -2q0 -1 1 -1l1 1
l2 -2q1 -3 2 -3v1h1q1 0 3 -3t3 -3q15 -12 69 -57q1 6 19 64v3q0 2 1.5 6t2.5 6q0 2 1 5.5t1.5 5.5t2.5 6l3 6q2 6 5.5 15t5.5 13q1 2 3 7t3 7q2 6 3.5 12l3.5 14l3 12q1 3 2 7t2 8.5t2 6.5q-5 3 1 5q2 6 4 11q2 7 6.5 21t6.5 20q1 2 1 4.5t1 3.5q0 2 1.5 4.5t2.5 3.5
q1 3 1.5 5.5t0.5 4.5v3l2 2t1 2q4 11 6 20l-1 1l3 5q7 18 19 66q0 3 2.5 11t2.5 10v2q0 2 1 4t2 2q3 14 12 39q1 3 2 8q-25 -8 -28 -9q-15 -6 -30 -14q-5 -3 -21 -20l2 -2h-1q-1 0 -3 -1h-1v-1q-12 -9 -14 -7l-5 1q-4 1 -6 5q0 1 -1 0.5t-2 -0.5q-1 3 -1 8q3 22 15 29
q22 13 62 28q23 9 48 18q5 7 9 9l3 1q3 1 4 1h1l3 1h3.5h1.5h1q9 0 9 -1zM9 178q0 -1 1 0t2.5 3t2.5 4t3 4.5t3 4.5q-12 -11 -12 -16zM257 367q5 3 14 5.5t9.5 3t3.5 0.5q2 1 3 1v2t9 2l4 1q77 36 127 81l2 2l5 5t6 7q1 2 3.5 5.5t4 5t4.5 5t5 6.5q9 12 17 27l6 12
q5 15 4 31q0 5 -1.5 12t-1.5 8q-1 2 -1 8t-1 9q0 1 -1 2t-1 1.5t-0.5 2.5t-1.5 3q-2 2 -6 5q-1 1 -1 2l-1 1q-7 4 -17 8l-1 -1l-6 2q-43 5 -99 -9q-17 -5 -37 -11q3 -3 4 -5q4 -7 -4 -41q-3 -9 -8 -25.5t-7 -22.5q-1 -4 -2.5 -12t-2.5 -12q-3 -8 -9 -28.5t-8 -28.5
q0 -1 -0.5 -3t-1.5 -3v-3.5t-1 -3.5q-4 -17 -20 -67q1 1 2 1h1q4 7 7 9z" />
    <glyph glyph-name="C" unicode="C" horiz-adv-x="560" 
d="M561 160q-5 -4 -11 -7.5t-11.5 -6.5t-8.5 -4l-4 -2q-3 -2 -4 -2v-1q-1 0 -5 -1.5t-4 -2.5q-1 -1 -5 -3l-4 -1q-98 -50 -226 -95l-5 -2q-15 -4 -31.5 -6.5t-26.5 -3.5q-21 0 -33 2q-26 6 -41.5 14t-32.5 26q-8 9 -17 32q-20 50 -20 92q1 50 16 99q14 43 48 106l11 21
q3 6 8.5 12.5t5.5 7.5q6 8 12 18t8 11q2 3 4 5.5t4 3.5q17 22 38 45v1h-1l13 12q82 72 137 98q11 5 44 14l5 2q6 1 13 1q47 3 80 -6q23 -6 41 -22q11 -10 25 -28.5t16 -25.5q1 -1 3.5 -5t2.5 -5l-1 -1q0 -1 2.5 -5.5t2.5 -5.5v-3v-3q1 -5 2.5 -10t1.5 -5.5t-1 -3.5v-4l1 -3
q-1 -3 -7.5 -7.5t-7.5 -2.5t-6 6q-5 3 -9 10q0 1 -1 0l-1 -1q-1 1 -3.5 5t-3.5 5q-5 5 -17 15.5t-17 16.5q-1 2 -5.5 8.5t-6 8.5t-5.5 7.5t-6 8t-5.5 6t-7 6t-6.5 4.5q-31 19 -76 9q-19 -5 -42 -19q-54 -34 -99 -84q-7 -8 -11 -12q-4 -5 -10 -13q-30 -44 -60 -98.5
t-41 -90.5q-14 -48 -19 -93q0 -1 4 -21q2 -9 3.5 -21t1.5 -13q1 -6 0.5 -9.5t0.5 -8.5l2 -3q2 -7 13 -36q1 -2 1.5 -4.5t1 -4.5t1.5 -2l-2 -1q2 -1 6.5 -6.5t9.5 -9.5t9 -5q37 -10 88 6q10 3 18 6q3 1 6.5 2.5t7.5 3.5l10.5 3.5t11.5 4.5q24 9 46 19q2 1 5.5 3t6 3t5.5 3
q5 2 10.5 5t7.5 4q21 10 77 34q36 15 41 16q8 3 14 5q5 2 5 -1v-1l9 3q1 0 3.5 0.5t4 1t2.5 0.5q-2 -3 -3.5 -7.5t-3 -7.5t-3.5 -5z" />
    <glyph glyph-name="D" unicode="D" horiz-adv-x="584" 
d="M143 82q66 -28 129 -34l5 1q23 2 33 3.5t27 6.5q22 7 31 10q37 17 68 40q20 14 31 27q38 41 63 94q24 47 36 99q12 49 12 102q0 5 -1.5 10.5t-1.5 8.5q0 4 -0.5 10t-0.5 8q-1 9 -6 26q-1 2 -1 4.5t-1 3.5q-6 20 -15 40l-1 -1l-5 12q-20 29 -53.5 55.5t-64.5 38.5
q-23 9 -60 13h-6q-5 1 -11 1.5t-10 0.5h-37l1 -2q2 -3 6 -7.5t6.5 -8t2.5 -7.5q-1 -13 -6 -43q-2 -10 -7.5 -29t-6.5 -23q-1 -5 -2.5 -13.5t-2.5 -12.5q-3 -11 -9.5 -34t-8.5 -30q0 -2 -1 -4t-1 -3q0 -2 -0.5 -4.5t-0.5 -3.5q-6 -22 -30 -94q-2 -6 -19 -45q-1 -2 -1 -4.5
v-5.5v-3q-2 -8 -7 -20q-2 -4 -3.5 -5.5t-2.5 -5.5v-2q-2 -3 -4.5 -10.5t-5.5 -13.5l-3 -6q-1 0 -2 1q1 -6 -6 -20q-10 -20 -17 -40q0 -2 -1.5 -4.5t-1.5 -3.5t-0.5 -3t-1 -3.5t-2.5 -4.5t-3 -4q-4 -9 -6 -19q-1 -2 -1.5 -4t-0.5 -4q-1 -2 0 -5v-3q-3 -11 -11 -23zM-14 197
q9 -5 18 -17t10 -12q0 -1 2.5 -4.5t3.5 -4.5v1h1q0 -1 3 -4.5t4 -4.5v1l4 -4l3 -4q25 -19 55 -36q4 14 29 81v2q1 2 2.5 6t2.5 6t1.5 5.5t1.5 5.5t3 5.5t3 5.5q3 7 7 16t6 13l3.5 7t3.5 8q0 2 12 40q2 6 6 20t6.5 21.5t8 22.5t8.5 23q0 2 0.5 4.5t1.5 4.5q0 3 1.5 5.5
t2.5 3.5q1 3 1.5 6t0.5 6l1 2q0 2 1 3l2 2q4 12 7 23h-1l3 6q8 23 19 74q0 3 2.5 11.5t2.5 10.5l-1 3q1 2 2 3.5t1 2.5q3 13 11 41q1 3 2.5 10.5t2.5 10.5t2.5 9.5t2.5 11t3 5.5v2.5v2t1 -0.5q1 1 1 2q-31 -2 -67 -9q-18 -3 -52 -22q-10 -5 -23.5 -14.5t-26 -18.5t-14.5 -10
q-1 -1 -4.5 -4t-4.5 -4v1q-1 -1 -4 -4.5t-3.5 -4t-2 -1t-2.5 -1.5q-3 -2 -5 -4t-2.5 -3t-1.5 -1.5l-3 -1.5l-1 -1l-2 -2h-4.5t-4.5 1.5t-1.5 2.5t1.5 5q2 5 6 10q0 1 -0.5 1t-0.5 1l2 2q1 2 3 4t2 3q2 2 7 8t7.5 9.5t7 8.5t9 9t9.5 7q61 39 109 49q79 16 178 9q41 -3 71 -13
q36 -12 73 -34t59 -43q2 -1 10 -12q2 -2 5.5 -6.5t5.5 -7.5q22 -44 31 -110.5t-1 -111.5q-2 -9 -4.5 -18.5t-5 -16.5t-6 -16.5t-5.5 -14.5t-6.5 -14.5t-6.5 -12.5t-7 -13l-6 -12q-2 -4 -5.5 -11.5t-6.5 -13.5l-3 -6q-20 -33 -39 -53q-8 -9 -12.5 -12.5t-12.5 -11.5l-4 -5
q-30 -25 -58 -42q-3 -2 -7 -4t-7 -3l-3 -2v1q-21 -15 -50 -23q-60 -17 -117 -22h-23q-15 1 -18 1q-13 1 -29 4q-34 6 -57 12q-7 2 -23 7q-4 2 -12 4.5t-11 3.5q-53 25 -85 57q-26 27 -35 43q-2 2 -4.5 6.5t-5.5 10.5q-3 5 2 7q1 1 1.5 1t0 2t-2 5t-2 4.5t-1 4.5t-1.5 5l-1 2
q4 -1 16 -1.5t17 -3.5z" />
    <glyph glyph-name="E" unicode="E" 
d="M621 617q-1 -3 -4 -5.5t-7 -4.5t-5 -3h-3q-2 -1 -2 -2v0q0 -1 -2 -2h-3v-1l-3 -1q-2 0 -2 -1q-46 -18 -121 -24h-3q-2 -1 -6.5 -0.5t-7.5 0.5q-1 0 -5 -0.5t-6 -0.5q-3 0 -8 1t-6 1q-21 2 -31 3q-3 1 -7.5 2t-7.5 1q-6 1 -18.5 2.5t-18.5 2.5q-29 4 -34 5q-7 1 -18.5 3.5
t-16.5 3.5h-1q-1 -5 -3 -13.5t-2 -11.5q-3 -12 -8.5 -33t-6.5 -26q-2 -5 -3.5 -13.5t-2.5 -12.5q-2 -9 -7.5 -29.5t-6.5 -27.5q0 -2 -0.5 -4t-1.5 -2v-4v-3q-1 -4 -19 -74q18 5 34 9q9 2 42 7q1 0 3.5 1t4.5 2l2 1q8 2 19 3q3 1 5 0.5t6 -0.5l2 1l23 2h6v-1q5 2 19 2
q18 -1 42 -1q2 0 4.5 -0.5t4.5 -0.5h2.5h3.5t5.5 -1t4.5 -1q10 -2 22 -3q1 0 3.5 -0.5t4.5 -0.5t5.5 0.5t4.5 -0.5q15 -2 35 -13q15 -8 17 -11q3 -4 5 -5q2 -2 -3 -8l2 -4l3 -4l-8.5 -8.5t-13.5 -9.5q-3 -2 -9 0l-6 2l-2 1l-1 1l-1 -1v0l-1 1q-1 1 -2 1q0 -1 -0.5 -1t-1.5 1
l-1 1q-69 24 -85 27h-2q-1 0 -5 0.5t-6 0.5h-5h-4.5t-5.5 0.5t-6 0.5h-27h-14l-36 -6q-2 -1 -35 -9q-33 -7 -40 -9q-2 -1 -4.5 -1.5t-3.5 -1.5q-2 0 -5 -1h-3q-5 -1 -11 -4l-2 -6q-1 -1 -1 -4t1 -6v-2q-1 -8 -5 -22q-1 -4 -2.5 -5.5t-2.5 -5.5v-3q-1 -4 -3 -13t-4 -16l-3 -8
l-2 1q2 -11 -5 -27q-17 -41 -18 -44l-3 -6l-3 -6q0 -2 -1 -4.5t-2 -5.5t-4 -8t-4 -8q-8 -17 -13 -34q0 -1 -1.5 -5.5l-2.5 -7.5q-1 -2 -1 -4v-4l-1 -3h3q4 0 27 6q4 1 15 4t17 4q8 2 23.5 5t18.5 4q2 0 4 1t4 1q3 1 6 1h3q4 1 7 1.5t5 1t2 1.5q2 0 3 -0.5t2 0.5q8 1 24 4
l8 1q12 1 42.5 4.5t42.5 4.5q5 1 15.5 1h12.5l3 1h5h4q27 -1 55 -4q24 -3 30 -4q36 -8 39 -9q0 -1 2.5 -1t3.5 -1q0 -1 2.5 -1.5t3 -0.5t1.5 -1l1 -1q8 -5 8 -5.5t2 -0.5l1 -1q1 -2 0.5 -7.5t-1.5 -5.5t-4 -2q-4 -2 -7 -2q-1 0 -1 -1v-1h-4h-2q-4 -1 -10 -3t-10.5 -3t-8.5 0
l-17.5 2.5t-19 3t-16.5 2.5q-44 4 -62 4q-8 0 -29 -1q-47 -3 -69 -7q-1 -1 -3.5 -1h-3.5q-2 -1 -4 -1.5t-3 -0.5q-88 -18 -88 -19q-6 -1 -38 -6q-1 0 -3 -1t-3.5 -2t-2.5 -1q-6 -2 -15 -3q-2 -1 -3.5 0t-4.5 0l-1 -1q-1 0 -6.5 -1t-10.5 -1h-4v2q-3 -3 -12 -3q-13 1 -29 -2
h-4.5h-3.5t-3 -0.5t-4 -0.5q-5 0 -12 3q-15 8 -23 15q-1 1 -7 9q-1 2 -4.5 5t-3.5 4q-4 18 10 38q10 13 13 15q4 2 6 4q1 1 12 -3l5 2l4 2q4 -2 11.5 -6t10.5 -5q2 6 35 85v3q1 2 2.5 6.5t2.5 6.5q1 3 1 8q0 2 2 9t5.5 19.5t6.5 19.5q0 3 2.5 9t2.5 10q3 9 7 30
q-5 -1 -16.5 -4.5t-16.5 -4.5q-3 -1 -10 -2.5t-8 -1.5l-2 -1q-2 -1 -3.5 -1h-2.5q-16 -3 -33 -4q-16 -2 -17 -2h-22h-2h-1v1h-1h-2v1h-1l-5 2l-1 1q-1 1 -1.5 4.5t0.5 4.5l2 2q1 2 2 2t1 1t1 1t1 1q2 1 4.5 3.5t4.5 4t4 1.5q4 1 14 2t15 2q2 1 16.5 3t22.5 4l6 2t7 2t7 2
q5 1 14.5 3.5t17.5 4.5t13 4q2 9 4 16l6 21t5 19q1 2 1 4t1 4q0 2 1.5 4.5t1.5 3.5q1 2 1.5 4.5t0.5 4.5v3t1 1.5t1 1.5q3 11 6 20h-1l2 6q6 16 16 66q1 4 3.5 12.5t2.5 10.5l-1 3l2 4t1 3q4 15 13 49q1 3 4 17q-16 -2 -26 -8q-6 -4 -8 -7v-2l-2 -2h-1q-2 -4 -5.5 -9
t-5.5 -8q-1 -2 -3 -6.5t-3.5 -6t-3.5 -6t-4 -7.5t-3 -4q-1 0 -1 -1.5t-0.5 -1.5h-0.5h-1l-1 -2v-1.5t-1.5 -0.5h-2.5q-2 -1 -3 -2.5t-3 -1.5h-2l-1 -1q-2 -1 -11.5 1t-9.5 4q-1 1 -5 4t-4 7l-1 1h-2q-1 1 -1 3t-1 3q-1 2 -5 9t-5 11.5t0 7.5q9 19 27 34q12 9 42 21
q13 5 18 6q9 3 45 8q1 0 3 1h2h2q3 7 5 9q5 4 7 5h1h2q2 1 3.5 1h2.5h2h1q2 0 4 0.5t2.5 0.5h1.5q1 -1 3 0h1q4 -1 4 -5q-1 -1 -3.5 -2.5t-5.5 -3.5v-1l-3 -2l2 -2q24 -1 45 -4q5 0 38 -9h3t5 1h2q6 0 17 -3q4 -1 5.5 -2t4.5 -2l2 1q4 -1 10.5 -2t11.5 -2l6 -2v-2q3 2 18 -1
q21 -3 42 -3h4.5h4.5t2.5 0.5t3.5 0.5h5.5h5.5q12 1 22 3q8 2 9 2q2 1 4.5 2.5t3.5 1.5q9 4 24 7l14 3q5 2 9.5 3.5t7 2t5.5 1.5q4 0 7 1t4 -3q0 -1 1 -1l5 1h2h3q0 -3 1 -8.5t1.5 -7.5t-1.5 -8z" />
    <glyph glyph-name="F" unicode="F" horiz-adv-x="588" 
d="M54 -11q-1 1 -2 6l-2 5v1q1 1 1 2h-1v1l1 2h-1v2l1 1q3 21 32 100v3l2.5 7.5l2.5 7.5q1 2 2 6t2 6.5t3.5 7.5t3.5 8q4 8 9 19.5t7 17.5q1 3 4 9.5t4 9.5q1 2 18 52q3 8 8 21q-13 -11 -16 -14q-2 -1 -4.5 -4.5t-3.5 -4.5q-2 -1 -4.5 -4.5t-4.5 -6t-3 -2.5l-1 -2
q0 -1 -1 -1q0 1 -0.5 1t-0.5 -2l-1 -1h-1h-2q-5 -2 -6 -2v-1h-2q-2 0 -9 3t-7 5l-2 4q-3 3 -3 6h-1l-1 1v2v3q0 2 -2 8.5t-2 8.5t1 6q10 13 28 24q8 5 36 14q14 5 16 6q6 1 14 3q11 31 14 40q1 2 1.5 5.5t1.5 5.5q1 3 2.5 6.5t2.5 4.5l2 8t1.5 6.5t0.5 3.5q1 1 2 2.5t1 2.5
l9 27h-1v1l3 7q11 33 20 80q0 2 1.5 7t2 8.5t0.5 5.5l-1 2q1 2 1.5 3.5t0.5 2.5q2 9 3.5 19t2.5 14v7v6q1 2 1 3l-1 1h-3.5t-3 0.5t-3.5 1.5l-2 1q-2 1 -3.5 1.5t-3.5 0.5h-1q-1 0 -1.5 1t-1.5 1q-7 2 -12 3l-3 1q-19 5 -28 0q-4 -2 -5 -5v-2l-1 -1q-2 -7 -5 -14
q-1 -1 -2 -4.5t-2 -5t-2.5 -5.5t-3 -7t-3.5 -4v-2v-1h-1h-1v-1q0 -2 -0.5 -2.5t-1.5 -0.5h-2q-1 -1 -2 -3t-3 -2h-2v-1q-2 -1 -10.5 0t-8.5 3q-1 0 -4 3q-4 3 -5 6h-1q-1 0 -1.5 0.5t-1.5 2.5v2q-1 3 -5 8.5t-6 9.5t-1 7q6 18 20 31q11 10 36 18q10 3 16 4q12 3 38 5
q1 0 2 -1h2q1 0 2.5 0.5t2.5 0.5q23 -2 64 -13l12 -4t12.5 -4.5t10.5 -4.5h3h5h2q5 -1 17 -4q4 -1 5.5 -2.5t4.5 -1.5h2q1 0 24 -5l6 -2v-2q3 1 20 -2q25 -3 49 -3h5.5h5.5t3 0.5t5 0.5h6.5h6.5q15 1 28 4q10 2 11 2q4 1 7.5 2.5t4.5 1.5q12 4 31 8t21 4q7 2 16.5 5t13.5 4
q6 1 10 2q4 2 5 -2v-1l7 2h3q4 1 5 1q-1 -3 -2 -8t-1.5 -8t-2.5 -5q-3 -4 -7.5 -6.5t-9.5 -4.5t-7 -3l-3 -1q-3 -1 -4 -1q1 0 1 -1q-1 0 -4 -1l-3 -1q-1 -1 -5 -2h-2q-63 -22 -150 -27l-3 -1h-8.5h-7.5h-6.5h-6.5q-1 0 -16 1q-21 3 -34 5q-3 1 -8 2t-8 1q-5 1 -18.5 3.5
t-19.5 3.5q-10 2 -11 2v-6q-1 -6 -9 -48q-1 -3 -2.5 -12t-3.5 -15q-3 -13 -10 -38t-9 -32q0 -1 -1 -4t-1 -4q-1 -2 -1.5 -4.5t-0.5 -3.5q-9 -30 -29 -89q18 0 35 -1q4 0 31 -5q1 0 3 0.5t3.5 1t2.5 0.5q5 0 14 -1q2 0 3.5 -1t3.5 -2l2 1q3 0 8.5 -0.5t8.5 -1.5l5 -1v-1
q3 2 14 1q17 -2 32 0h3t4 1h2q1 1 2.5 1h4h3.5q9 1 16 4l6 2q2 1 4 2.5t2 2.5l10 4t10 3.5t7 1.5q3 1 6 2.5t5 2t4 1.5q3 0 5 1t4 -4h4l4 1l2.5 -7.5t2.5 -8t0 -6.5q0 -2 -2 -4.5t-5 -4.5t-4 -3l-1 -1h-2.5t0.5 -1l-2 -1q-2 0 -2 -1v-1h-2l-1 -1q-32 -16 -90 -24l-2 -1
q-2 0 -5.5 -0.5t-5.5 -0.5q-1 0 -4 -0.5t-4.5 -0.5t-5.5 0.5t-5 0.5q-18 0 -24 1q-2 0 -6 0.5t-6 0.5q-5 1 -15 1h-14q-26 1 -29 2q-5 0 -14.5 1.5t-14.5 1.5h-3.5h-2.5t-3 1h-2h-4.5h-2.5h-2h-1l-1 1h-3q-5 -11 -12 -27t-7.5 -17.5t-1.5 -5.5t-1 -7v-4q-3 -10 -10 -26
q-2 -4 -3.5 -6t-3.5 -7v-3q-2 -5 -5.5 -14.5t-6.5 -16.5l-4 -8l-2 1q1 -6 -8 -25q-11 -25 -19 -49q0 -2 -1.5 -5t-1.5 -5q-1 -1 -1 -3t-1 -4t-2.5 -5.5t-2.5 -4.5q-5 -11 -7 -21q0 -2 -0.5 -4.5t-1.5 -4.5q0 -2 0.5 -4.5t-0.5 -3.5q-1 -8 -10 -27q-5 -9 -6 -10l-3 -3
q0 -1 -7 1l-2 -2l-3 -1q-3 1 -8 2.5t-9 3t-8 4.5z" />
    <glyph glyph-name="G" unicode="G" horiz-adv-x="559" 
d="M476 -129q-4 -1 -8 1t-8.5 5.5t-6.5 3.5q0 1 -2 3l-2 2q0 1 -1 0q-1 0 -2 2l-2 3h-1q-1 0 -4 5q-16 29 -17.5 75.5t8.5 86.5v2q-86 -42 -162 -60q-4 -1 -6 -1q-18 -1 -34 1q-17 2 -28 5q-20 5 -33 13q-38 25 -60 56q-8 13 -15 34q-17 52 -15 94q3 48 21 96q16 42 53 101
q11 18 12 20q3 4 6 7.5t5.5 6.5t3.5 4q5 6 10 12.5t8 10t4 5.5q2 3 4.5 5t3.5 3q19 21 42 42v1h-1l14 11q88 67 149 92q11 5 48 15l5 1l14 2q26 4 51 3.5t53 -12.5q15 -6 21.5 -25.5t6.5 -34.5q0 -57 -7 -74v-5q-1 -5 -1 -6l-1 1q0 -1 -0.5 -5.5t-0.5 -5.5t-1 -3l-2 -1
q-1 -3 -1.5 -6t-1 -4l-1 -2t-1.5 -2t-1 -3l-1 -2q-1 -2 -8.5 -3t-7.5 1q-1 2 -4 6t-4 10q0 1 -1 0.5t-1 0.5l-1 5v5q-1 2 -7 21t-7 29q0 13 0.5 30.5t1 24.5t-1.5 14q-19 27 -89 12q-22 -5 -48 -18q-61 -33 -112 -80q-7 -7 -12 -11q-5 -6 -10 -13q-34 -40 -67 -92t-46 -88
q-16 -45 -22 -89q0 -2 3 -22q1 -9 2.5 -21t1.5 -13q1 -6 0 -9.5t1 -9.5l2 -3q4 -16 13 -38q1 -2 2 -5t2 -5l1 -2l-2 -1q3 -2 11.5 -13.5t12.5 -15.5q38 -30 81 -28q6 0 18 3q3 0 6.5 1.5t6.5 2.5q18 5 23 6q24 9 46 21q13 7 18 9.5t11 7t7 4.5q16 10 34 20l3 6l3 6
q14 28 21 41q2 3 5.5 9t5.5 9q8 15 29.5 38.5t34.5 42.5q12 17 19 33q-47 -11 -113 -31q-2 -1 -9 -2.5t-9 -2.5l-2 -1q-2 -1 -5 -1h-2q-31 -6 -58 -7q-21 0 -36 2q-37 7 -48 16q0 1 -4 2q-2 2 -3 2v1l-3 2q-4 2 -4.5 2.5t-1 2t-1.5 1.5q-1 2 -3 4l-3 3t-1.5 2t-0.5 2t-1 2
l-1 2q-1 2 3 7.5t6 4.5q1 -1 5 -1q5 0 9 -3v1q1 1 1.5 1t3 -2t3.5 -2q3 -1 13.5 -3.5t15.5 -4.5q29 -15 54 -14q27 0 59 8q4 1 9.5 3t7.5 3q18 5 55 15t49 14q1 0 4.5 1t4.5 1q3 1 5.5 2t3.5 1q15 5 29 -15l10 -6q-1 -1 -3 -1l-2 -1q19 -36 -1 -61q-9 -10 -18 -19t-18 -17
t-12 -12q-3 -2 -7 -12q-5 -11 -5 -14q0 -2 -1 -3t-3 -5v-2q2 1 6 2q4 3 5 0v-1l9 3q1 0 3.5 1t4.5 1l1 1q-1 -3 -2 -8t-2 -8t-3 -5q-4 -5 -9.5 -9t-11 -7.5t-7.5 -4.5q-1 -1 -4.5 -3t-4.5 -3q0 -1 -6 -4q0 -2 -7 -17q-12 -30 -17 -58q0 -1 -1 -5t-1 -6v-4.5t-0.5 -4.5
t-1.5 -6.5t-1 -6.5q-2 -14 0 -26q2 -8 2 -9q1 -2 3 -5l2 -3q2 -6 2.5 -12t0.5 -12v-8q0 -4 1 -9.5t1 -8.5t1 -7q1 -2 -4 -7l2 -5q0 -1 1 -3l1 -2q-3 -2 -7.5 -5.5t-8.5 -5.5t-9 -2z" />
    <glyph glyph-name="H" unicode="H" horiz-adv-x="644" 
d="M76 20q-2 0 -5 3.5t-3 4t0.5 1.5t-0.5 1h-1l1 1v1v0h-1.5t-0.5 1l1 1q-2 16 13 64v2q0 2 1 4.5t2 4.5q0 1 0.5 4t1.5 4.5t2.5 4.5t2.5 4q2 5 5 12t5 11q0 2 2.5 6t2.5 6q2 5 4 10.5t4 13t3 11.5q2 4 6 17t6.5 20.5t8 22.5t7.5 23q1 2 1.5 4.5t1.5 5.5q0 2 2 5t2 4
q1 3 2 6.5t1.5 5.5t0.5 3t1 2.5t2 2.5l2 6q-3 -1 -8.5 -3t-7.5 -3q-3 -1 -9 -4t-10.5 -5.5t-6.5 -2.5l-2 -1q-1 -1 -2 -1l-2 -1q-2 -1 -2.5 -1h-1h-1.5l-7 -2h-2h-1q-2 0 -5.5 3.5t-2.5 4.5t1 4q0 4 3 6h-1v1.5t1.5 2t1.5 2.5q2 2 4.5 7.5t5 8.5t6.5 5q18 10 42 17
q10 3 21 6q8 24 20 74l4 16t4 15v3q0 3 1.5 6t1.5 4q4 14 17 61q1 5 4 17.5t4 16.5q2 6 4.5 17t4.5 19t4 10q0 1 0.5 4t0.5 4l1 -1q0 1 0.5 4t1 3.5l1.5 1.5t1 2q2 3 3 6t3 4q0 1 1 3v1q2 1 9 1.5t7 -1.5q0 -1 3 -4q3 -4 3 -9q0 -1 1 -0.5t1 -0.5q1 0 1 -3.5v-4.5
q2 -4 5 -12t4.5 -14t0.5 -12q-3 -23 -12 -68q-3 -12 -6.5 -24.5t-7.5 -27.5t-7 -24q-1 -6 -3.5 -17.5t-4.5 -17.5q-4 -14 -13 -44h43h3h3h3h3q29 -2 76 -11q3 -1 36 -11h4h4l2 1q6 -1 16 -3q3 -1 4.5 -2t4.5 -2l2 1q3 -1 9.5 -2t9.5 -2l6 -2l-1 -1q3 1 17 -1q18 -2 36 0h3.5
h4.5q1 0 2.5 0.5t3 0.5t4.5 0.5t5 0.5q8 1 15 3q3 8 5 14q20 51 23 61q1 3 2 6.5t1 5.5q1 3 3 6.5t2 4.5q1 4 2 7.5t1.5 6t1.5 3.5q0 1 1 2.5t1 2.5q5 14 8 25v1h-1l3 7q9 26 18 71q0 2 1 6.5t2 7.5t1 5l-1 2q0 1 1 2.5t1 2.5q3 11 8 31q0 1 1 6.5t1.5 7.5l1.5 6t2 7t2 4v1
v1h1q1 0 0.5 1t0 1.5l1.5 1.5h1q3 3 4 3l1 1q1 0 7 0.5t7 -0.5t3 -2q4 -1 5 -3h1h1l1 -1q1 -1 1 -2q1 -1 5 -4t6.5 -5t2.5 -5q0 -8 -3 -29q-1 -8 -5 -23t-4.5 -18.5t-2 -11t-2.5 -11.5q-2 -11 -8.5 -33.5t-7.5 -28.5q-1 -2 -2 -4.5t-1 -3.5q0 -2 -0.5 -4.5t-0.5 -3.5
q-11 -36 -34 -99q4 1 7 3q2 0 5 -5l5 2h3l2 1q1 -3 2.5 -8.5t1.5 -7.5v-7q-1 -3 -4 -6t-6 -5t-4 -3t-3 -1.5l-2 -0.5v-1l-2 -1q-2 -1 -2.5 -1t0.5 -1l-3 -1l-2 -1q-9 -5 -20 -9q-3 -5 -7.5 -15.5t-7.5 -15.5q-1 -2 -2 -6.5t-2 -8.5l-1 -4q-6 -16 -12 -28q-1 -3 -2.5 -3.5
t-2.5 -3.5v-2q-1 -2 -4 -8.5t-6 -12.5l-4 -6l-1 1q0 -6 -9 -23q-13 -26 -24 -55l-3 -6l-3 -6q0 -1 -0.5 -3.5t-2 -5.5t-4 -7.5t-3.5 -6.5q-6 -14 -11 -28q0 -2 -1.5 -5.5t-1.5 -5.5q-1 -3 -1 -7t-1 -5q-2 -10 -15 -36q-6 -11 -6 -12l-3 -3l-7 1q-1 1 -2 0v-1q-2 -1 -2 0
q-3 0 -8.5 1t-9.5 2.5t-8 4.5q-1 1 -1.5 3t-1 5t-0.5 4t0.5 2t0.5 2h-1l1 1q1 2 1 2.5t-1 0.5v2l1 2q7 29 50 131l1 3q1 4 3.5 9t3.5 9q1 2 3 6.5t3 7.5t4 8t4 7q3 7 8 17l8 16q1 2 3.5 6t3.5 7q2 4 4 9.5t6 16t8 18.5q1 4 3 8l-24 -4l-2 -1h-7h-6q-1 -1 -4.5 -1h-5.5h-4
h-4.5t-4.5 1q-18 1 -28 2q-2 0 -6.5 1t-6.5 2q-5 0 -17 1.5t-18 2.5q-25 3 -34 5q-8 2 -20.5 5t-16.5 4h-4t-3 1q-2 0 -4 1t-3 1q-3 1 -5 1h-4h-2l-2 2h-1q-10 2 -18 3l-5 1q-25 5 -55 3l-2 -4q0 -2 -0.5 -4.5t-0.5 -3.5q-6 -22 -33 -99q-2 -5 -18 -42q-1 -1 -1 -3.5v-4.5
v-3q-1 -7 -6 -18q-1 -3 -2.5 -4t-2.5 -4v-2q-1 -3 -3.5 -9t-3.5 -11l-3 -4h-2q1 -4 -4 -15q-7 -15 -10 -29q0 -1 -0.5 -2.5t-1.5 -2.5q0 -1 0.5 -2.5t0 -2.5t-1.5 -2.5t-2 -2.5q-2 -6 -2 -12v-2.5t1 -2.5q0 -1 1 -2.5t1 -2.5q1 -4 -4 -14q-3 -5 -4 -5l-2 -2h-9l-3 -1l-2 -2
q-27 3 -30 4z" />
    <glyph glyph-name="I" unicode="I" horiz-adv-x="244" 
d="M95 7q-2 1 -5 7t-3 6.5v1.5v2q-1 0 -1 0.5v1.5v2q-1 0 -1 0.5t0.5 2t-0.5 1.5q-3 30 14 103l-1 3q1 2 2 6t2 7q0 2 0.5 5.5t1.5 6t2.5 7t2.5 5.5q2 6 5.5 16t5.5 16q1 3 3 8t3 8q3 8 7 23t5 20q13 42 13 43q3 9 9 25.5t8 22.5q1 3 1.5 5.5t0.5 4.5q1 3 2.5 6t2.5 3
q1 4 1.5 7t1 5t0.5 3l2 2t1 2q5 14 8 24h-1l3 7q9 24 22 74q1 3 3.5 11.5t2.5 10.5v3q0 2 1 3.5t1 2.5q3 11 12 40q1 3 2.5 10t2.5 10t2 9t2.5 10.5t2.5 5.5l1 2v2h1v2v1.5t1 0.5l2 1q1 1 1.5 3t2.5 2q1 0 1 1v1q2 1 8.5 1t7.5 -1q0 -1 3 -3q4 -2 5 -4q0 -1 1 -0.5t1 0t1 -2
t1 -2.5q1 -2 5 -6.5t6 -8t2 -7.5q0 -13 -6 -41q-2 -11 -8 -30t-7 -22q-1 -4 -3 -12.5t-4 -13.5q-3 -11 -10 -33.5t-9 -30.5q-1 -1 -1.5 -3.5t-1.5 -3.5q0 -2 -0.5 -4.5t-0.5 -3.5q-5 -17 -17.5 -55t-13.5 -41q-1 -1 -19 -47v-4v-5.5v-3.5q-2 -8 -6 -21q-2 -4 -3.5 -5.5
t-2.5 -5.5v-2q-1 -4 -3.5 -12t-3.5 -13l-3 -6h-3q2 -5 -3 -20q-8 -22 -11 -43q0 -1 -1 -3.5t-1 -4.5v-3v-3q-1 -2 -2 -5t-1 -5q-3 -10 -3 -19v-4v-4q1 -2 2 -4.5t1 -3.5q0 -7 -5 -29q-3 -13 -4 -14q-2 -2 -3 -4q0 -2 -8 -2l-3 -3l-2 -3q-3 1 -9.5 1t-11.5 1t-10 3z" />
    <glyph glyph-name="J" unicode="J" horiz-adv-x="459" 
d="M511 643q0 -2 -2.5 -4.5t-2.5 -3.5h-1.5h-1t0.5 -1h-1l-1 -1v-1h-1h-1q-7 -5 -20 -12q0 -16 -4 -38q-3 -22 -22 -96q-11 -45 -13 -50q-3 -10 -40 -124q-1 -2 -3 -6.5t-2 -6.5l-2.5 -7.5t-1.5 -5.5q-36 -94 -63 -139q-10 -15 -44 -48q-2 -1 -5.5 -5t-6 -6.5t-2.5 -3.5
q-13 -12 -28 -21q-5 -4 -8 -5t-9 -4l-3 -3q-22 -12 -37 -20q-2 -1 -4.5 -2t-4.5 -1.5t-2 -1.5v2q-14 -10 -33 -15q-42 -12 -82 -11q-5 0 -18 3q-11 2 -15 3q-7 3 -19 13q-30 25 -34 29q-7 7 -13 16q-10 17 -10 21q-5 47 15 79q13 22 26 31q1 1 4 3.5t6 5.5q3 2 7 -1
q0 -1 1 0t3 2.5t3 2t3 1t3 1.5l2 1q0 -4 1 -11t0 -11q0 -6 -4 -14t-4 -10l-1 -3q-1 -2 -1 -3t-1 -3t-1 -3h1v-3l-1 -3q-1 -49 6 -65q14 -33 54 -55h3q13 -2 20 -1q6 0 17 3t19 7q26 11 47 23q15 8 22 12q27 20 47 42q19 21 31 45q14 28 24 49q1 3 2 7t2 7q2 3 4.5 7t2.5 6
q2 5 4 9.5t3 8t1 4.5l2 4t2 3q8 20 15 40l-1 1l6 12q23 60 45 143q10 40 11 43v5q1 3 2 7t2 5q12 57 13 62q-2 0 -3 -2h-1h-1l-6 -2v-1h-3q-1 0 -23 -7q-2 -1 -5.5 -1.5t-3.5 -1.5l-1 -1q-1 0 -2 1h-1q-8 -2 -20 -3q-1 0 -5.5 -1t-6.5 -1t-6.5 -0.5t-6.5 -0.5t-4 1
q-1 0 -2 -1h-1q0 1 -0.5 1t-1.5 -1h-1l-1 1l-1 1q-4 1 -4.5 1.5t-1.5 0.5v0q-1 1 -2.5 5t-0.5 5q1 0 1 2q1 3 3 4v1l1 1l1 1q2 2 4 5t3.5 5t3.5 3q3 1 7 2l8 2t6 2q4 1 11 2t11 2l8 3q13 6 15 8h1.5t0.5 0.5v0.5l1 1q2 2 7.5 6t7.5 6q1 0 9 3v1q0 2 1 3q0 2 3 3q1 0 2 -0.5
t2 0.5v1l1 1q2 1 3 1q1 7 2 9l-1 1v2h1v2v1.5t0.5 1t1.5 0.5q2 5 2 6l1 1q1 2 6 5t6 2h4q4 0 6 -2q0 -1 1 0t1 0q1 0 2.5 -1.5t1.5 -2.5q2 -1 5 -3.5t4 -3.5l1 2q4 3 17 4q10 1 11 0h4q1 0 2 -5l3 -1l3 -1q2 -19 1 -20z" />
    <glyph glyph-name="K" unicode="K" horiz-adv-x="573" 
d="M613 720q2 -1 4 -3.5t3.5 -6.5t2.5 -5v-2v-2q1 0 1 -0.5v-2.5v-2h1v-3q-1 -1 -1 -2q-1 -41 -45 -104l-1 -2q-1 -3 -4.5 -6.5t-4.5 -5.5q-1 -1 -3.5 -4.5t-4.5 -5.5t-6 -5.5t-5 -5.5q-19 -18 -27 -25q-3 -2 -7.5 -6t-6.5 -6q-5 -5 -17.5 -16.5t-19.5 -17.5
q-26 -23 -38 -33q-6 -5 -46 -35q-2 -1 -4 -3.5t-4 -3.5l-6 -4t-4 -2q-3 -2 -6 -4.5t-5 -4t-2 -2.5q-1 -1 -2.5 -1.5t-2.5 -0.5q-2 -2 -4 -3q2 -3 3 -5q1 -4 2.5 -14t1.5 -13q1 -5 2 -17.5t3 -20.5q0 -1 6 -19q12 -41 17 -51q0 -1 0.5 -3t1.5 -3q0 -1 1.5 -2.5t1.5 -2.5
q35 -73 37 -78q5 -9 11 -22.5t8 -16.5q0 -1 2 -2.5t4 -3.5l2 -1q5 -5 11 -16q2 -3 2 -5t2 -5l3 -1q2 -4 6 -10t7 -9l3 -6l-2 -1q4 -2 13 -14q11 -16 25 -30q1 0 3 -2l3 -3q0 -1 1.5 -1.5t2.5 -2t3 -3.5t3 -4q6 -6 14 -11q0 -1 2 -2t3 -2q2 -1 5 -1l2 -1q5 -3 9 -6.5t7.5 -7
l4.5 -4.5q3 -2 5.5 -3.5t4 -3l2.5 -2.5q1 -2 3 -3q1 -1 0 -5l2 -2l3 -3q-1 -1 -3 -4t-3.5 -5.5t-4.5 -3.5q0 -2 -6 -1l-7 1h-3l-1 1v-1l-1 1q-2 1 -2.5 1t-0.5 -1l-1 1h-2q-35 11 -86 51l-2 1q-2 1 -5 4l-5 5q-1 1 -4 3t-4.5 4l-4.5 6t-4 4q-14 18 -20 25q-1 3 -4 7.5
t-5 6.5q-3 4 -12 15.5t-14 17.5q-18 24 -24 35q-6 9 -23 41q-1 2 -2.5 4t-2.5 4t-2 5t-1 4q-1 3 -2.5 5.5t-2.5 4.5l-2 2q-1 1 -0.5 2.5t-0.5 2.5q-2 6 -9 21h-1l-1 6q-4 13 -12.5 36.5t-10.5 30.5q-2 3 -3.5 10.5t-1.5 9.5l-2 2v3v3q-3 18 -3 35q-10 -8 -37 -28
q-2 -2 -9.5 -7t-9.5 -7l-1 -2q-1 -1 -3 -2t-3 -1q-6 -5 -32 -24q-2 -1 -7 -5.5t-7 -5.5h-1q-5 -16 -5 -18q-1 -1 -1 -5v-7v-3q-1 -11 -6 -26q-1 -5 -3 -6.5t-3 -6.5v-3q-1 -2 -4 -12t-6 -18l-4 -8l-2 1q1 -7 -7 -24q-10 -22 -21 -48q0 -1 -1.5 -4l-2.5 -5q-1 -1 -1.5 -3
t-1.5 -4t-3 -5.5t-3 -4.5q-6 -9 -11 -20q-1 -2 -2.5 -4.5t-2.5 -4.5t-2 -5v-3q-8 -13 -25 -27q-11 -9 -14.5 -10t-5.5 -3q-1 0 -5 3l-4 -1l-3 -1q0 1 -3.5 7t-4.5 10q0 2 1 7l2 5q1 0 1.5 1t0.5 2v1l1 1l1 1q-1 0 -1 0.5t1 1.5l1 1q4 11 19 42t22 48v3q1 2 3 6.5t3 6.5
q0 2 1 6t2 6.5t3 7t3 6.5q3 9 12 34q1 2 3.5 8.5t3.5 9.5q3 12 11 49q2 10 5 28t4 23q9 52 11 58v6v6q1 3 2 6.5t1 4.5q1 5 1 8.5v6v3.5q0 2 1 3.5t1 2.5q2 15 4 29h-1h-1l2 9q5 34 5 90v10.5v10v7.5l-1 2q0 3 0.5 5t0.5 3v49q0 3 -0.5 12t-0.5 12q0 4 -0.5 11.5t-1 11
t0.5 7.5v2l-1 2h1h1q0 1 -0.5 2.5t-0.5 2t1 1.5l1 1l2 7q1 1 1 2v1q1 1 7.5 3.5t7.5 1.5q0 -1 4 -2t6 -3q0 -1 1 -0.5t1.5 0.5t1.5 -2t2 -2q2 -2 7.5 -5.5t8.5 -7t4 -6.5q5 -18 8 -50q1 -6 1 -64q0 -4 0.5 -15t-0.5 -17q0 -16 -2 -45.5t-2 -35.5q0 -1 -0.5 -4.5t-0.5 -4.5
v-5v-4q-4 -39 -14 -100q11 7 17 12q4 2 11 7.5t10 8.5q6 4 27.5 19.5t28.5 21.5q1 1 3.5 2.5t3.5 2.5q2 1 3.5 2.5l2.5 2.5q4 3 39 30t48 38q10 9 24.5 20t18.5 14q2 1 4 3.5t3 5.5l2 2q5 6 17 17q3 3 5 4t5 4l1 2q1 1 19 21l6 4l1 -1q1 5 12 18q16 18 25 36q1 1 2.5 3.5
t1.5 3.5q1 1 1 3t1 3.5t2.5 4t2.5 3.5q4 9 5 18q1 6 0 7q0 2 -1 5l-1 2q-1 6 4 23q3 9 4 10q2 2 2 4q1 1 11 2l2 3l3 3q4 0 11.5 1t13.5 0.5t13 -2.5z" />
    <glyph glyph-name="L" unicode="L" horiz-adv-x="449" 
d="M42 5q-1 1 -1 7v7l1 2l1 1q-4 1 -10 3q-16 5 -19 6q-24 12 -25 14l-1 1q-2 1 -2.5 1t0.5 1v0h-2q-2 1 -2 1.5v1.5t-1 2t-2 2.5t-1 3.5v1l-1 1q0 2 3 8.5t5 6.5l3 2q4 2 6 2q1 0 2 1v1h2q2 -1 2 0q3 0 8 2t7.5 2.5t6.5 -0.5q4 -2 13.5 -7t15.5 -7q1 -1 4 -2t4 -2
q5 11 15 31.5t12 24.5v3l3 6t3 7q1 2 2.5 5.5t2.5 6t3.5 6.5t3.5 7l17 32l4 8t4 9q4 8 18 47q3 8 9 25t8 24q19 51 20 55q1 3 1.5 6t1.5 6t2.5 6.5t1.5 4.5q2 4 3 7.5t2 6.5v3q0 2 1 3.5t2 2.5q4 15 8 29h-1l3 8q11 37 19 96q1 3 2 10t2 12t1 8l-1 3q0 2 1 4.5t1 4.5
q2 14 4 31t3 25q1 5 1.5 15.5t0.5 14.5q1 5 1 14t0.5 16t1.5 9v3v3h1q0 1 -0.5 3.5t0 3l1.5 1.5l1 1q1 3 1 6q0 2 2 3q0 1 0.5 2t0.5 2q1 1 8 3t8 0l4 -3q4 -2 6 -6l1 1q1 0 1 -1q1 0 2 -2.5t1 -3.5q2 -3 7 -9t8 -10.5t4 -9.5q3 -25 1 -62q-1 -13 -10 -74q0 -3 -2 -16
t-3 -20q-3 -17 -10.5 -49.5t-8.5 -34.5q0 -2 -1 -5t-2 -5q0 -2 -0.5 -5t-0.5 -4q-13 -47 -39 -119q-4 -10 -25 -54q0 -2 -1 -5.5t-1 -6.5l-1 -3q-2 -10 -9 -24q-2 -4 -4 -5.5t-4 -6.5v-3q-2 -3 -6 -12t-7 -15l-5 -7l-1 1q0 -7 -9 -22q-13 -22 -22 -45q-1 -1 -2.5 -4t-2.5 -4
q0 -2 -0.5 -3.5t-1.5 -3.5t-3 -5t-3 -5l-8 -16q29 -2 44 -1h3h3h3l2 1q56 7 75 11q7 1 13.5 2t13.5 2t11 1q1 1 3 1.5t4 1.5l2 1q6 3 16 4q3 1 5 0.5t5 0.5l2 1q2 0 8.5 1.5t11.5 1.5l6 1v-2q4 3 16 4q18 2 36 5q2 0 4 0.5t4 0.5q1 0 2 0.5t3 0.5h4.5h4.5q8 0 17 1q2 1 4 1
h3q2 1 4.5 2t3.5 1q11 1 29 -3q13 -3 15 -4q3 -2 5 -3q1 -1 -1 -7l2 -2l3 -3q-1 -3 -3 -7t-4 -7.5t-5 -6.5q-1 -2 -5.5 -2.5t-5.5 -0.5q0 -1 -1 -0.5l-1 0.5h-1q0 -1 -1 -1l-1 1q0 -1 -0.5 -1h-1.5l-1 1h-35t-40 -1l-2 -1q-1 0 -4.5 -0.5t-5.5 -0.5q-1 -1 -3.5 -1.5
t-4.5 -0.5t-5.5 -0.5t-5.5 -0.5t-24 -3q-2 -1 -6.5 -1t-6.5 -1q-7 -1 -19.5 -4t-13.5 -4q-32 -7 -35 -8q-6 -1 -38 -6q-2 0 -4 -0.5t-4 -1.5h-4.5h-3.5q-3 0 -5.5 -0.5t-4 -1t-2.5 -0.5h-2h-2q-8 -1 -20 -2h-6q-9 0 -32 -0.5t-32 -0.5h-5q-1 -1 -2.5 -3t-2.5 -3
q-8 -12 -9 -12q-3 -2 -4 -4q-1 -1 -7 2l-3 -2l-3 -2l-9 5q-8 6 -12 11z" />
    <glyph glyph-name="M" unicode="M" horiz-adv-x="700" 
d="M747 657q-1 -3 -2.5 -6.5t-2.5 -5.5t-1 -4q0 -1 -1 -2.5t-1 -2.5h1l-2 -2l-1 -3q1 0 0 -1q0 -2 -3 -6q-14 -17 -33 -40q-4 -11 -5 -16q-3 -8 -9 -26t-9 -28q-1 -2 -7 -28q-14 -56 -16 -72q0 -1 -1 -3.5t-1 -4.5v-4.5v-3.5q-12 -90 -13 -112q-1 -13 -2.5 -31.5t-1.5 -25.5
q0 -2 0.5 -5t1.5 -6l1 -3q2 -8 2 -26q0 -4 -1 -6.5t0 -7.5l1 -2q0 -5 0.5 -9.5t1 -10.5t1.5 -11v-8q-1 0 -2 -1q3 -4 6 -24q3 -28 12 -54q0 -1 1 -5t2 -6q0 -1 1 -3l2 -4t2 -6.5t1 -6.5q5 -14 11 -26q1 -1 2.5 -4l2.5 -5q2 -3 4.5 -5.5l3.5 -3.5q4 -7 8 -15.5t7.5 -16.5
t4.5 -10l4.5 -9l4 -8t2.5 -6q2 -4 3 -8q2 -2 -3 -6l2 -6q0 -1 1 -4l1 -1q-3 -1 -8 -3.5t-9 -3.5t-8 0q-4 0 -7.5 2.5t-7 6l-4.5 4.5q-1 0 -2 2l-2 3h-1l-1 2l-3 3v-1q-1 0 -3 3l-1 2q-38 46 -70 134l-2 3q-1 4 -2.5 9.5t-1.5 8.5q-1 2 -2.5 7t-2.5 8q0 2 -0.5 5t-1 7t-0.5 6
q-4 28 -5 43q-1 4 -1 11v10q0 5 -2 25t-2 30q-1 36 0 56q1 16 6 60v6t1 6q0 3 1 7t1 5q1 4 1.5 7.5t0.5 6.5v4q1 1 1.5 2.5t0.5 2.5q2 11 6 29h-1l3 9q4 16 15 62q-43 -51 -71 -89l-4 -5q-3 -4 -10 -13.5t-11 -15.5q-3 -5 -8.5 -13t-8.5 -12t-10 -13.5t-11 -14.5
q-15 -23 -44 -64q-2 -3 -9.5 -13.5t-10.5 -15.5q-13 -20 -41 -66q-6 -10 -14.5 -25.5t-10.5 -18.5q-4 -7 -6.5 -9.5t-13.5 -6t-30 0.5q-3 1 -4 11q-1 2 -0.5 4.5t0.5 3.5q1 4 0 9v4q0 2 0.5 3t0.5 2q1 5 1.5 16t0.5 17h-1l2 11q6 60 8 163q2 54 2 59l-1 7q0 4 0.5 9.5
t0.5 7.5q-2 78 -4 111q0 8 -2 20q-1 -6 -4.5 -17.5t-4.5 -16.5q-9 -35 -10 -38q-4 -13 -34 -94q-1 -2 -2.5 -5.5t-2.5 -4.5q-1 -2 -2 -5.5t-2 -5.5q-29 -67 -70 -133q-11 -18 -43 -60q-1 -1 -3 -5t-4 -7l-1 -4q-8 -11 -20 -25q-4 -4 -6 -5.5t-6 -6.5l-2 -3q-20 -21 -25 -27
q-1 -1 -3 -2.5t-3 -2.5l-1 -1l-2 1q-3 -8 -19 -20q-29 -23 -48 -36q-1 -1 -4.5 -3t-4.5 -3t-3 -2t-4 -3q-2 -1 -12 -5q-6 -3 -14 -6.5t-10 -4.5t-5 -2t-4 -2l-5 -2.5t-4 -1.5q-18 -6 -39 -6q-16 0 -20.5 1.5t-6.5 1.5t-1 4q0 1 -2 2q-2 0 -2.5 0.5t-2.5 1.5h-1q1 2 4.5 7
t6.5 7q1 2 7 2l6 -1h1h3h1h2v1h2l2 -1q47 12 94 47l1 2q2 2 6 5t6 6q2 1 5 4.5t5 5t6 5.5l6 6q13 12 29 30q14 15 15 16q13 17 34 49q10 15 32 53q22 37 35 62q2 3 3 7t3 6q1 4 3.5 7.5t3.5 5.5q2 4 4 8.5t3 7.5t1 4l2.5 2.5t1.5 3.5q8 16 15 33h-1l5 10q19 45 35 105
q8 30 8 32l-1 4q1 2 2 4.5t2 4.5l5.5 27.5t5.5 29.5q1 4 2 14.5t2 13.5q0 4 0.5 12.5t1.5 14.5t2 7q0 1 -0.5 3t0.5 3q1 -1 1 0v2q-1 2 -0.5 2.5l1.5 1.5l1 1q1 2 1 5q0 2 2 3q1 0 1 1v2q2 1 9 3t7 0q1 0 5 -2t5 -5q0 -1 2 0h1l1 -2q4 -2 7 -6h1q0 1 1 1q0 -1 3 -4l2 -3
l8.5 -8.5t8.5 -9.5t6.5 -9.5t5.5 -10.5q14 -45 19 -105q4 -41 4 -141q-1 -51 -1 -66q-1 -20 -2 -43.5t-2.5 -48t-2.5 -34.5l8 12q4 7 7 9.5t7 9.5l2 4q1 2 12 18t20 29q1 2 3.5 5.5t4.5 5.5l1 2l1 -1q6 12 29 43q18 24 44.5 59.5t27.5 37.5q3 4 8 10.5t7 9.5q2 2 5 6t6 9
q1 1 21 23q7 9 39 47q3 4 8 9.5t8 8.5q4 4 8.5 10t6.5 8q2 3 5 6q2 5 7 16q0 1 3.5 10t5.5 12q14 26 14 26.5t1 2t1 2t1 0.5v-1v2q1 2 1.5 2.5t1.5 0.5h1q5 5 5.5 5t0.5 1l1 1q1 0 6.5 -1t5.5 -3l1 -3q11 17 21 22l3 1.5l3 1.5t5 2t5 -2l7 2q1 1 3 1.5t3 0.5h2q-1 -2 -2 -5
l-2 -6t-1 -5zM752 673v1v-1z" />
    <glyph glyph-name="N" unicode="N" horiz-adv-x="709" 
d="M225 648q2 -1 5 -7l2 -6v-1q-1 -2 -1 -2.5t0.5 -0.5h1t0 -1.5t-0.5 -2t1 -0.5v-1v-2q0 -11 -1 -25q5 -10 7 -15q4 -10 12 -29t13 -29q3 -6 8 -15.5t6 -12.5q35 -69 35 -70q1 -1 2 -3.5t2 -3.5q1 -2 2.5 -4.5t2.5 -3.5q9 -17 29 -54.5t24 -46.5q2 -3 23 -49q1 -1 3 -3.5
t4 -4.5l2 -2q5 -8 11 -21q2 -3 2 -5.5t2 -6.5l2 -2q2 -3 6 -10.5t6 -13.5l3 -6l-2 -1q5 -3 11 -18q8 -20 19 -39q0 -1 1.5 -3.5t2 -3.5t1.5 -2l1 -1q3 18 4 27q1 5 2 15t2 16q1 13 5.5 40t6.5 36q0 2 0.5 4.5t0.5 4.5q1 2 1 4.5v3.5q8 49 25 115q4 13 21 56q0 1 0.5 4.5
t0.5 7.5l1 3q2 10 9 25q2 5 3.5 6.5t3.5 6.5v3q1 1 5.5 11.5t8.5 18.5l5 8l2 -1q0 8 10 25q13 21 31 52q1 2 3.5 5t2.5 5q1 1 2 3.5t3 4.5t5 6.5t4 5.5q9 11 18 25q2 2 4 5t3 5q2 3 4 6.5t3 4.5q12 16 37 38q18 16 22 19q5 2 8 5q2 2 6 -2l5 3q1 1 3 2l3 1q0 -1 2.5 -8.5
t1.5 -11.5q-1 -5 -6.5 -12t-5.5 -7.5t-2 -2t-2 -2.5t-1.5 -2.5l-2.5 -2.5h1q0 -1 -2 -2.5t-2 -2.5q-68 -100 -78 -118l-1 -3q-1 -3 -4 -7.5t-4 -7.5t-3 -7t-3 -6.5t-4 -7t-4 -7.5q-6 -12 -17 -35q0 -2 -3.5 -8.5t-4.5 -9.5q-5 -14 -15 -48q-3 -10 -8 -29t-5 -20
q-12 -46 -14 -55q-1 -2 -1 -5.5t-1 -5.5q0 -3 -1.5 -6.5t-1.5 -4.5q-1 -4 -1.5 -7.5t-0.5 -5.5v-3q-1 -2 -1.5 -3.5t-1.5 -2.5q-3 -14 -5 -27h1l-3 -8q-5 -27 -13 -89q0 -4 -1.5 -14.5t-1.5 -12.5v-3q0 -2 -1 -4.5t-1 -3.5q-3 -20 -9 -51q0 -3 -1.5 -13t-2.5 -14t-2.5 -12.5
t-3 -14t-2.5 -7.5v-3v-2q-1 -1 -2 0v0v-3t-0.5 -2.5t-1.5 -1t-1 -1.5l-2 -4q0 -2 -2 -3q-1 0 -1 -1l-1 -1q-1 -1 -7.5 -1.5t-7.5 0.5q0 1 -3 4q-3 2 -4 6h-1h-1.5t-1 2.5t-0.5 3.5q-2 2 -5.5 7.5t-5.5 10t-2 8.5q-1 0 -3.5 1.5t-3.5 2.5v0v1.5t-1 -0.5q-1 0 -1 1v1h-1v1
l-1 1q-5 7 -10 17t-13.5 28t-12.5 25l-1 2q-1 2 -2.5 5.5t-3.5 5.5q0 1 -2 4t-3 5t-2.5 6t-2.5 6q-3 7 -7.5 16.5t-5.5 13.5q-1 2 -3.5 7.5t-3.5 7.5q-3 6 -7 12.5t-8.5 15t-7.5 12.5q-1 3 -10 18.5t-14 24.5q-4 9 -13 26t-12 24q-1 2 -3 4.5t-3 4.5q-2 3 -3 6.5t-1 4.5
q-2 4 -4 7t-3.5 5t-1.5 3q-1 1 -1 3t-1 3q-8 16 -13 25h-1l-3 8q-4 9 -42 83q-2 4 -5.5 12.5t-5.5 10.5q0 -3 -1.5 -8t-1.5 -8q-1 -2 -1.5 -7t-0.5 -7l-3 -9t-3 -8q-2 -6 -5.5 -19.5t-5.5 -21.5q-2 -3 -4 -10t-3 -11q-3 -9 -7.5 -28t-6.5 -27q-11 -42 -15 -55
q-5 -14 -22 -59q-1 -3 -1.5 -6.5t-1.5 -5.5q-1 -3 -3.5 -6.5t-2.5 -4.5q-2 -4 -3 -8t-2 -6l-1 -3q-1 -2 -2 -3t-1 -2q-5 -12 -13 -27h1v-1l-4 -7q-42 -73 -43 -74q-3 -4 -9 -11t-7 -8v-2q-2 -2 -3.5 -3t-2.5 -2q-16 -15 -32 -25q-10 -6 -17 -9q-18 -6 -22 -6q-1 0 -3 -1h-1
v1l-1 -1h-2.5h-1.5v1q-5 0 -5 0.5t-0.5 0.5h-1.5q0 1 -1 3.5t0 3.5l1 1q1 2 3 3v1h1l1 1q2 2 4.5 6t4.5 6q11 8 19 18q19 24 25 33q3 4 11 20q22 41 29 59q0 2 1.5 4t1.5 4q1 2 1.5 4.5t1.5 3.5q33 94 38 109t12 35t8 23q1 2 1.5 5.5t0.5 6.5v4q1 10 6 27q1 5 3 7t3 7v3
q1 5 3.5 15.5t4.5 17.5l3 8q1 -1 2 -1q-1 7 4 27q9 27 13 54q0 2 1 5.5t1 5.5v3.5v4.5q1 2 2 6t2 6q3 12 3 24q0 1 0.5 4t0.5 5q-1 3 -1.5 6t-0.5 4q-1 12 5 26l-1 3q1 0 1 1l-1 2q-1 2 -1 2.5v1.5l1 1q-1 8 -0.5 8.5t0.5 1.5v1q0 2 5 5t6 2t4 -2q1 0 3 -0.5t3 -0.5l2 3l3 3
q4 -1 9.5 -2t10.5 -2.5t10 -4.5z" />
    <glyph glyph-name="O" unicode="O" horiz-adv-x="628" 
d="M410 586q1 -5 -2 -5h-6q-5 -1 -12 0q-1 0 -0.5 -0.5t0 -0.5t-5.5 0.5t-6 0.5q-25 -2 -47 -11q-46 -17 -79 -59q-41 -52 -69 -123q-12 -32 -17 -69q-6 -45 -5.5 -88.5t6.5 -69.5q2 -9 4 -14q2 -7 6 -13q20 -38 67 -68.5t85 -23.5q21 3 42 13t30 16t30 22q6 4 23 23
q37 41 39 44q7 8 11 11.5t11 13.5l3 6q17 26 38 63q1 3 3.5 7t4.5 7l1 3l2 -1q2 8 10.5 29t9.5 26q19 60 20 112q0 13 -1 20q-1 3 -2 6.5t-1 6.5q-1 3 -1.5 10.5t-1.5 11.5q-5 22 -14 38q-6 10 -9 14l-12 12q-49 40 -75 42q-17 1 -48 -6q-7 -1 -17 -5q-6 -2 -6 1v1.5
t-9 -3.5zM410 605q7 5 15 8.5t17 6t11 2.5q1 1 6.5 1.5t6 1t-0.5 0.5q1 0 3.5 0.5t5.5 0.5t4 1q5 1 12 1q92 -3 139 -49q50 -48 51 -158v-7q-1 -14 -7 -40q-5 -25 -8 -34q-6 -17 -17 -40q-24 -50 -50 -89q-11 -18 -31 -41q-51 -62 -91 -93q-53 -41 -105 -58
q-55 -17 -124 -11q-12 1 -26 5q-12 3 -26 10q-27 13 -36 19q-1 0 -9 9q-23 22 -41 53h-1q0 -1 -1 -1l-7 20q-10 55 -9.5 119t11.5 108q3 11 27 69l2 8q4 6 11 18q26 40 42 59.5t42 42.5q25 22 54 35q16 7 41 12.5t33 5.5q1 0 6 0.5t6 0.5v-1h6h6t3 -1t3 -1q16 -3 17 -4v-1
q5 9 9 12z" />
    <glyph glyph-name="P" unicode="P" horiz-adv-x="591" 
d="M215 335l4 1q2 1 7 1q20 -1 82.5 -21t92.5 -23l4 1q15 4 21 5q4 2 17 7l20 10q23 14 43 31q13 11 19 19q21 26 31 55q9 25 8 55q0 26 -8 51q-1 3 -2.5 5.5t-2.5 4.5q-1 3 -2.5 7t-1.5 5q-4 7 -13 17q-1 1 -2 3t-2 3q-14 14 -32 26v-1l-10 7q-62 26 -129 23q-22 -1 -43 -4
l-4 -2q-3 0 -7 -0.5t-5 -0.5q-22 -4 -32 -7q5 -18 4 -28q-3 -26 -13 -77q-3 -14 -6.5 -27.5t-8 -29.5t-6.5 -25q-1 -6 -3.5 -18t-4.5 -18q-3 -13 -15 -55zM77 -13q-2 1 -5 6t-4 5v2v2h-1v2v1h-1v1v2q-5 24 6 79l-1 2q1 1 2 4t1 5q0 1 0.5 4t1 4.5t2 4.5t2.5 4q1 4 3.5 11
t4.5 11q1 2 2.5 5.5t2.5 5.5q2 6 5 17.5t4 14.5q1 2 4.5 14.5t5.5 19.5t6.5 20t7.5 20q0 2 0.5 4.5t0.5 4.5q1 3 2.5 5.5t1.5 3.5q2 3 2.5 6t1 5t0.5 3t1 2t1 2q5 13 8 24h-1v1l3 7q9 26 24 90l4 16l4 16v3q0 3 1.5 6t1.5 4q4 15 17 67q2 5 5 19t4 20q2 6 5 20t4 18
q-2 0 -12.5 -3t-14.5 -4q-37 -9 -39 -9l-2 -1q-2 -1 -3 -1v1h-2q-2 -1 -2.5 -1h-1.5h-1q-7 0 -7 0.5t-1 0.5h-1q-1 0 -2.5 3t-0.5 4l2 2q1 2 3 3q1 0 0 1q0 1 2 1.5t2 1.5q2 1 6 4.5t8 6t8 3.5q28 10 63 19q3 1 7 2q1 2 2 2q1 3 1.5 5.5t1 3.5l1 2t1.5 2q1 0 1 2l1 2
q2 2 9 2.5t8 -1.5q0 -1 3 -5q1 -3 2 -7q25 5 58 10q31 5 49 6q63 2 126 -11q1 0 14 -4q2 -1 7 -2t7 -2q44 -22 82.5 -65.5t41.5 -79.5q-2 -11 -0.5 -15t-1.5 -14t-3.5 -13t-4.5 -12t-5.5 -11.5t-6 -10.5t-4.5 -10q-2 -2 -4 -7l-4 -10l-1 -4q-11 -17 -25 -32q-5 -5 -8.5 -7
t-8.5 -7l-3 -4q-21 -18 -38 -30l-5 -2.5l-5 -2.5l-2 -1l-1 1q-11 -11 -34 -19q-43 -16 -83 -22q-1 0 -17 -1l-13 -1q-10 0 -22 2q-32 4 -46 9q-6 2 -13 5t-9 4q-5 2 -10.5 3.5t-7.5 2.5q-8 4 -15 9t-11 8.5t-6 3.5q-7 1 -19 -1q-1 -1 -1 -2q-1 -2 -1 -4.5v-3.5
q-3 -11 -29 -91q-1 -3 -16 -37v-3.5v-4.5v-2q0 -6 -4 -16q-1 -3 -2.5 -4t-2.5 -3l1 -2q-1 -3 -2.5 -8.5t-3.5 -9.5l-2 -4l-2 1q2 -4 -2 -14q-6 -14 -7 -28q0 -1 -0.5 -3t-0.5 -3t0.5 -2t0 -2t-1.5 -3.5t-1 -3.5q-1 -6 0 -13v-2.5v-2.5l2 -4l1 -2q2 -5 -3 -22q-3 -11 -4 -12
q-2 -3 -2 -4q-1 -2 -9 -2q-1 0 -3 -3l-2 -3q-4 0 -10.5 0.5t-11.5 1t-11 2.5z" />
    <glyph glyph-name="Q" unicode="Q" horiz-adv-x="605" 
d="M365 616h-7q-1 0 -0.5 -1t0 -1t-5 0.5t-5.5 0.5q-23 -2 -45 -12q-44 -19 -75 -61q-40 -56 -66 -126q-12 -31 -17 -71q-6 -45 -5 -89.5t7 -70.5q2 -11 3 -14t6 -13q17 -38 60.5 -70t79.5 -26q20 3 40.5 13t29 16t29.5 23q5 3 22 24q7 8 20 23.5t18 21.5q6 8 10 11.5
t11 13.5l3 6q16 25 37 65q2 3 4.5 7t4.5 7l1 3q-1 -6 1 -6q1 0 1 4q1 9 10 32.5t9 24.5q19 62 19 115q0 15 -1 19q0 3 -1.5 6.5t-1.5 7.5q0 3 -0.5 10.5t-1.5 11.5q-4 21 -12 37q-6 11 -7.5 13.5t-11.5 11.5q-45 45 -68 48q-16 1 -47 -5q-7 -2 -17 -5q-6 -3 -7 1v1.5
t-10 -3.5q0 -4 -2 -3.5t-7 -0.5h-5zM378 643q7 6 15 9.5t17.5 6t11.5 3.5q1 0 6.5 1t6.5 1v1q1 0 6.5 0.5t6.5 0.5v1q4 1 13 1q97 -3 146 -53q50 -51 49 -167l1 -8q-2 -12 -8 -42q-6 -28 -9 -36q-5 -16 -17 -41q-26 -53 -52 -93q-11 -17 -32 -42q-53 -65 -93 -96
q-54 -42 -107 -59q-56 -17 -127 -11q-14 2 -27 5q-12 3 -27 10q-29 14 -37 20q-3 2 -4.5 3.5t-3 3.5t-2.5 3q-24 24 -42 57h-1h-1q-2 2 -3.5 7t-2.5 9l-1 4q-9 59 -8 126t12 112q3 12 8 26t12 29.5t7 17.5l2 7l12 20q26 41 43 61t44 45q25 22 55 34q17 7 42.5 13t33.5 6l5 1
h7v-1h6h6t3 -1t3 -1q16 -4 17 -5l1 -1q3 9 7 12zM545 -164q-1 -2 -3.5 -3.5t-5.5 -2.5t-4 -1q0 -1 -2 -1h-2v-1h-2h-2v-1h-2h-2q-38 -8 -106 0l-3 -1q-2 1 -6.5 2t-6.5 1t-5.5 0.5t-6.5 1.5q-2 0 -7 1.5t-6 2.5q-23 7 -31 9q-3 1 -8 3t-8 3l-21 6t-20 6q-34 10 -40 12
q-8 3 -23 8.5t-20 7.5q-2 1 -4.5 1.5t-3.5 0.5q-3 1 -6 3l-2 1q-3 1 -5.5 2t-4.5 1.5t-3 0.5t-2 1l-1 1q-11 4 -20 7v-1l-6 3q-23 9 -57 16q-15 4 -16 4l-1 -1q-1 1 -2.5 1.5t-2.5 0.5q-20 3 -26 3q-1 0 -12 -1q-3 0 -8 -2t-6 -1h-1l-1 -1h-1q-1 -1 -1.5 -1h-0.5l-1 1
q-2 -2 -4 0h-1q-2 1 -5 4.5t-2 4.5q0 1 -0.5 3.5t0.5 4.5v1l1 1q0 1 1 2q7 13 9 14q13 5 31 7q12 1 41 0q17 -1 21 -2l54 -11q1 0 3 -0.5t3 -0.5q1 -1 3 -1h3q24 -6 86 -27q2 -1 42 -18q1 -1 4 -1.5t5 -0.5h3q7 -1 20 -6q3 -1 4.5 -2.5t5.5 -3.5h2q4 -1 11.5 -3.5t12.5 -4.5
l6 -3l-1 -1q5 1 20 -5q20 -7 41 -11q1 -1 4 -1.5t4 -0.5h3t3.5 -0.5l4.5 -1.5t5 -2q10 -2 20 -2h3h4q2 0 4.5 1t3.5 1q7 0 18 -1l12 -1q4 0 10 0.5t6 -0.5h5q1 0 3 -5h4l3 -1v-6v-7t-2 -6z" />
    <glyph glyph-name="R" unicode="R" horiz-adv-x="563" 
d="M317 612q7 -4 7 -6q0 -4 -4 -18q-1 -5 -6 -16t-7 -17q-1 -4 -3 -11t-3 -10q-2 -7 -9.5 -29.5t-9.5 -31.5q-1 -1 -2 -3.5t-1 -3.5q0 -2 -0.5 -4.5t-0.5 -3.5q-4 -13 -36 -110q-6 -17 -16 -41q1 1 4 2h2q22 7 60 14q-1 14 1 17l-1 2v1h1q1 1 1 3l-1 1l1 1l1 1l3 6q1 0 1 1
v1q2 1 9 2.5t8 0.5q0 -1 3 -2q4 -1 6 -2q0 -1 1 -0.5t1.5 0.5t1.5 -2l1 -1q2 -2 7 -4.5t8.5 -4.5t4.5 -4.5t1 -4.5q26 4 41 8l3 1l18 5q1 0 15 6q16 7 17 7q20 11 35 25q10 9 15 15q16 22 26 54q12 39 13 71q0 3 -3 25q0 1 -1 2t-1.5 2.5t-0.5 4t-1 3.5q-1 3 -7 9
q0 1 -0.5 2t-1.5 2q-8 8 -20 15v-1l-7 5q-47 19 -106 21q-21 0 -39 -2l-4 -1h-6.5h-5.5q-8 -2 -13 -2zM53 19q-1 1 0 6.5t1 6.5v2l1 1v1l1 1v1v1q-1 0 0 1l1 2q3 11 9.5 27t17 39t15.5 36v3q1 3 3 7.5t3 7.5q1 2 2 6.5t2.5 7t4 7.5t3.5 8q4 9 9.5 21.5t6.5 15.5t4 9.5
t4.5 10t16.5 52.5q3 6 8.5 24.5t8.5 27.5q3 10 10 29t10 28q1 2 1.5 5.5t1.5 5.5q0 3 2 6.5t2 4.5q2 4 3 7t1 6l1 3q0 2 1 3l2 2q5 15 9 26h-1h-1l4 7q7 16 24 72q1 3 3.5 10t2.5 9v2q0 1 1 2.5t2 2.5q4 11 7 18q-3 -1 -7 -2q-13 -4 -39 -14q-9 -3 -27.5 -12.5t-20.5 -10.5
q-1 0 -4 -2l-3 -2h-1v1q0 -1 -3 -3t-3.5 -2h-2t-1.5 -1l-11 -5q-1 0 -2 -1l-2 -1q-1 0 -3.5 1t-4 3t-1 3t2.5 4q1 4 5 8q-1 1 0 1q0 1 3 3t3 3q3 2 7.5 7t7.5 8t7.5 6.5t8.5 6.5q38 18 80 30q39 11 98 17q28 3 46 2q47 0 102 -10q2 -1 6 -2l4 -1q3 0 6 -1t5 -1
q33 -12 64.5 -39t33.5 -54q1 -10 0 -20t-5 -20.5t-7 -17.5t-9 -19.5t-7 -16.5q-1 -2 -3.5 -8t-3.5 -11l-2 -4q-10 -20 -24 -34q-5 -5 -8 -7t-8 -7l-3 -3q-20 -15 -35 -25q-2 -1 -4.5 -2t-4.5 -1.5t-2 -1.5v2q-9 -8 -29 -15q-34 -11 -68 -20q-2 -1 -7 -1.5t-6.5 -1l-4.5 -1.5
t-6 -1q-3 -1 -9 -2q1 -3 3 -15l3 -18l2 -6t2.5 -6.5t2.5 -5.5q13 -39 16 -45q1 -1 1.5 -2.5t0.5 -2.5l2 -2l1 -2q2 -3 15 -29t19 -36q4 -7 9.5 -18.5t6.5 -14.5q1 0 2.5 -1.5t3.5 -2.5t2 -2q4 -3 10 -13q2 -2 2 -4t2 -5l2 -1q2 -2 6 -7.5t6 -8.5l3 -5l-2 -1q5 -1 13 -12
q11 -16 26 -29q1 0 2.5 -2t2.5 -3t2.5 -1.5t3 -2t3.5 -4t3 -3.5q7 -7 15 -12q1 -1 3 -2.5t4 -2.5q1 -1 4 -1.5t3 -1.5q4 -2 26 -22l14 -12l5 -5q1 -1 -2 -6l3 -3l3 -4q-2 -1 -5 -4.5t-5.5 -5.5t-6 -3t-9.5 1l-7 2l-1 1q-2 1 -2.5 1h-0.5v-1l-1 1q-2 1 -3 1t-3 1l-1 1
q-33 15 -88 59h-2l-5 5t-5 4q-1 1 -4 3t-4.5 3.5t-4 5t-3.5 4.5q-15 17 -19 22q-2 2 -4.5 6t-4.5 6q-4 5 -12.5 14t-12.5 14q-17 21 -22 29q-5 7 -21 35q-1 2 -2.5 3.5t-2.5 3.5q-1 1 -1.5 4t-1.5 3q-1 3 -2.5 5t-2.5 4l-1 1q-1 1 -1 3v1q-2 4 -8 19l-1 -1l-2 6
q-3 12 -12 33t-11 25q-1 3 -3 10t-2 9l-2 1v4v2q-4 16 -6 30q-2 0 -3 -1q-12 -3 -30 -6t-22 -4q-7 -2 -14.5 -4.5t-9.5 -2.5q-3 -10 -9 -25q-2 -4 -4 -6t-3 -7v-3q-2 -4 -6 -14t-7 -18l-4 -8q-1 1 -2 1q1 -7 -8 -25q-13 -25 -23 -52l-2.5 -5t-1.5 -5q-1 -1 -1.5 -3.5
t-1.5 -4.5t-3.5 -5.5t-2.5 -5.5q-6 -11 -11 -23q0 -1 -1.5 -4t-1.5 -5q-1 -2 -1.5 -5t-0.5 -4q-6 -13 -21 -30q-10 -11 -13 -12q-4 -2 -5 -3t-6 3q-1 0 -4 -1.5t-4 -1.5q0 1 -6 7t-9 11z" />
    <glyph glyph-name="S" unicode="S" horiz-adv-x="523" 
d="M92 188q6 -5 11 -17t6 -13t1.5 -4t1.5 -4l1 1q1 -1 2 -4t1 -4v1q1 0 1.5 -0.5t1.5 -3.5t2 -4q30 -32 89 -56t120 -24l6 2q21 4 29 7t22 10q18 9 24 14q23 20 34 44q5 12 6 24q4 46 -8 75q-12 33 -50 58q-29 19 -100 49q-5 2 -10.5 4t-10.5 4t-12 5.5t-7 4.5q-9 4 -18.5 8
t-11.5 5q-3 1 -5 3t-4 3q-24 16 -41 38h-1h-1q-2 2 -3.5 6.5t-1.5 7.5l-1 4q5 52 32.5 100t58.5 69q12 8 54 25l6 2q8 3 17 5q61 12 109 10q31 -2 55 -10q16 -6 36.5 -18.5t24.5 -19.5l4 -3q3 -4 4 -5l-1 -1h-1q1 -1 4 -4.5t3.5 -4.5t0.5 -3v-4q1 -4 2.5 -8t1.5 -4.5
t-1 -4.5q-1 0 -0.5 -2.5t0.5 -3.5q-1 -2 -9 -6.5t-9 -2.5q-2 2 -6 4q-6 2 -9 7l-1 -1q-1 -1 -1.5 -0.5l-3 3t-2.5 3.5q-4 2 -15 8t-16 10q-32 32 -70 36q-56 7 -115 -17q-29 -12 -44 -32q-17 -22 -24 -51t-4 -50q1 -7 1 -8.5v-2.5q8 -19 51 -46t91 -48q60 -26 104 -64
q23 -19 26 -24q21 -38 19 -66q-1 -11 -2 -15t-3 -9t-4 -15l-1 -9q-15 -36 -39 -61q-2 -2 -5.5 -4.5t-5.5 -3.5l-3 -2l-1 1q-13 -16 -42 -28q-54 -22 -109 -32q-2 0 -23 -2q-16 -1 -18 -1q-13 -1 -29 1q-36 3 -59 7q-6 1 -24 6q-4 1 -12.5 2.5t-11.5 2.5q-28 11 -52 28.5
t-34 32.5q-21 31 -23 55v5.5v6.5v9q-1 3 0.5 5t2.5 2h3.5h3.5t1.5 2.5t0.5 6v4.5q1 2 2 5.5t1.5 5.5t0.5 3q6 -4 19 -9.5t20 -10.5z" />
    <glyph glyph-name="T" unicode="T" horiz-adv-x="653" 
d="M198 25q-1 1 -2 7v5v2l1 1h-1q0 1 1 2l1 1v1h-1l1 1v2q4 15 34 81v2q1 2 2.5 5.5t2.5 5.5t2 5t2 5t3 5.5t3 5.5q4 6 8 15t6 12q1 2 3.5 6.5t3.5 6.5q2 4 15 39l6.5 19.5t7.5 20.5q2 6 8 21.5t9 24.5q1 2 1.5 4.5t0.5 4.5q1 3 2.5 5.5t2.5 3.5q1 3 1.5 6.5t1 5.5t0.5 3
l2 2t1 2q4 13 8 24h-1l3 7q9 27 19 78q1 4 2 9.5t2 9.5t1 6l-1 3l2 4t1 3q1 8 10 47q1 4 2 12t1 11q-27 3 -32 4h-5h-5q-2 0 -5 0.5t-3 1.5h-6.5h-4.5h-3t-2 0.5t-2 0.5q-12 1 -22 1l-7 1q-31 1 -66 -4q-16 -2 -19 -3l-2 -1q-1 -1 -3 -1h-2q-24 -7 -34 -11q-3 -1 -9.5 -4.5
t-7.5 -3.5q-2 -1 -6.5 -4.5t-8.5 -5.5t-5 -2l-2 -1l-1 -2v1h-1l-1 -1l-1.5 -1.5t-1.5 -0.5l-1 1l-6 -2l-1 1l-1 -1q-2 0 -6.5 4t-4.5 5q1 1 0 4q-1 4 1 6q0 1 -1 2v0l1 2l1 2q0 2 2 8t3.5 9t4.5 5q15 10 39 18q13 5 49 12q20 4 24 5q10 1 61 5h3.5h3.5q2 0 4 0.5t3 0.5
q35 0 94 -5h5q1 1 2 1q1 2 1 4q1 3 3 4v1l1 1q2 1 9 2t8 0t4 -3q4 -3 5 -6h1h1.5t1.5 -2.5t1 -3.5q2 -2 4 -5h1q1 -1 4 -0.5t5 1.5h3q8 0 21 -2q4 -1 5.5 -2t5.5 -1h3q4 0 12 -1t13 -2l7 -1v-2q4 2 21 0q22 -3 44 -3h4h5q1 0 2.5 0.5t3.5 0.5t5.5 -0.5t5.5 -0.5q11 0 21 2
q1 0 3.5 0.5t4.5 0.5q2 1 4.5 2t3.5 1q6 2 12.5 3t12.5 1.5t8 1.5q4 0 7.5 1t6 1.5t3.5 0.5h6q2 1 4 -4h4h4q0 -3 1 -7.5t1 -7t-2 -6.5q0 -3 -2.5 -4.5t-6 -3.5t-4.5 -2q0 -1 -2 -1t-2 -1v0h-2l-2 -1v-1h-2l-2 -1q-38 -13 -111 -16l-2 -1h-7.5h-7.5h-5h-6q-3 0 -8 0.5
t-7 0.5q-26 3 -33 4q-3 0 -8.5 1t-7.5 1q-3 1 -36 3q-1 -10 -3 -28q-1 -4 -13 -61q-1 -4 -3 -14l-3 -15q-3 -14 -10 -39t-9 -31q0 -1 -1 -4t-1 -4q-1 -2 -1 -4.5t-1 -3.5q-9 -32 -34 -97q-2 -7 -21 -44q-1 -1 -1.5 -4t-0.5 -5.5v-3.5q-2 -8 -8 -19q-2 -4 -3.5 -5t-3.5 -5v-3
q-1 -2 -4.5 -9.5t-6.5 -12.5l-4 -6l-1 1q1 -5 -7 -18q-11 -19 -19 -38q0 -1 -1.5 -3t-1.5 -4q0 -1 -0.5 -2.5t-1.5 -3t-2.5 -4t-2.5 -3.5q-5 -9 -7 -17q-1 -1 -1.5 -3.5t-1.5 -3.5v-4.5v-3.5q-2 -8 -14 -24q-7 -10 -9 -10l-3 -3t-8 2l-3 -2l-3 -1q-3 2 -7.5 4.5t-8 5
t-7.5 6.5z" />
    <glyph glyph-name="U" unicode="U" horiz-adv-x="669" 
d="M722 634q0 -6 -3.5 -16t-3.5 -11t-2 -4l-2 -3q0 -1 1 -1v0q0 -1 -1.5 -4t-2.5 -3q0 -1 1 -1q0 -1 -1.5 -4t-1.5 -4q-23 -71 -96 -256l-1 -7q-3 -7 -8.5 -18.5t-7.5 -16.5q-2 -3 -4.5 -9t-4.5 -10.5t-4 -9.5q-5 -10 -19 -33q-26 -44 -48 -73q-11 -14 -28 -32
q-45 -49 -80 -71q-47 -29 -98 -40q-56 -12 -121 -3q-12 1 -22 4q-9 3 -19 9q-21 13 -27 19q-1 1 -6 9q-14 21 -22 51h-1l-1 -1l-1 17q5 106 31 199q3 13 12 38t10 28l1 7q2 6 5 12l4 8q21 55 50 120q2 6 11 27t13 29.5t10.5 23.5t11 25.5t6.5 13.5l2 4l1 4h1l1 3q1 4 1.5 5
t2 1.5t1.5 1.5l4 6q1 3 3 4q1 0 1 2l1 1q2 1 9.5 0t7.5 -3q0 -1 3 -4q2 -5 2 -10h1q1 0 1 -1v-4v-5q0 -3 1.5 -14t1 -18.5t-2.5 -15.5q-3 -7 -41 -106q-51 -133 -55 -145q-11 -33 -20 -71q-21 -93 -18 -145q1 -9 2 -12q0 -3 0.5 -4.5t1 -3.5t1.5 -3q8 -29 36.5 -54t66.5 -22
q45 2 98 33q6 3 20 17q29 30 32 34q6 6 9 8.5t9 10.5l3 5q13 18 34 50q1 2 3.5 5.5t4.5 6.5l1 2l2 -1q1 5 23 47q27 53 48 111q2 3 5 11t4 12l2.5 7.5t3.5 9.5t6 14t6 14q10 26 20 55q1 4 3.5 11t3.5 11q2 6 3 13t2 9q14 41 40 79q17 26 25 33l9 9q3 2 8 -2q1 0 2 1l2.5 2.5
t2.5 1.5q1 1 4 2l2 2q2 -2 6.5 -10.5t5.5 -13.5z" />
    <glyph glyph-name="V" unicode="V" horiz-adv-x="698" 
d="M163 8q-2 1 -5 8l-4 6v2v2h-1v2v2q0 1 -1 0.5t-1 0v2v2.5q-6 27 -6 107l-1 3v6.5v6.5v5.5v6t1 7t1 6.5q0 6 1 16t2 17q1 2 2 7.5t1 8.5q0 8 0.5 23t0.5 19q2 40 2 43q1 10 3 27t3 21q0 2 -0.5 5t0.5 5q0 2 1 5l1 4q0 4 0.5 7t0 5t0.5 3q0 1 0.5 2.5t0.5 2.5q2 15 3 24h-1
l2 7q3 14 10 78q0 3 1.5 12t1.5 12l-1 2q1 2 1.5 4t1.5 3q2 18 8 45q1 3 2.5 11.5t2.5 12t2.5 11t3 13t2.5 6.5v3t1 2h1v2q0 2 0.5 2.5l1.5 1.5h1l2 4t3 3l1 1v1q2 1 8.5 1t7.5 -1q0 -1 3 -3q3 -3 4 -6h1q1 0 1 -0.5t1 -2.5l1 -2q1 -3 5 -8t6 -9t2 -8q0 -9 -4 -45
q-1 -11 -4.5 -29t-4.5 -26q-1 -5 -1.5 -14t-0.5 -13q-1 -6 -4.5 -31t-3.5 -34q0 -1 -0.5 -3.5t-0.5 -3.5v-4v-3q-1 -16 -4.5 -51t-4.5 -44q0 -1 -7 -47q0 -1 0.5 -4t1.5 -6l1 -2q1 -8 -1 -21q0 -4 -1.5 -5.5t-1.5 -5.5l1 -2q0 -4 -0.5 -12t-1.5 -13l-1 -7h-3q3 -5 1 -20
q-3 -22 -2 -44v-4.5v-4.5q0 -1 0.5 -2.5t0.5 -3.5t-0.5 -5.5t-0.5 -5.5q-1 -7 0 -13q39 44 41 47q0 1 22 29q49 67 57 78q1 2 3.5 5t3.5 4q1 2 3 5.5t2 4.5q14 19 89 124q8 11 47 60q1 1 3 5t4 7l2 4q7 12 20 27q4 5 6.5 6.5t5.5 6.5l2 3q1 2 9.5 12t15.5 18l3 3l3 3l1 1
l2 -1q2 8 18 23q15 15 45 44q1 2 4 4.5t4 3.5t2.5 3t3.5 3q2 2 4 3t4 3t4 3q7 5 21 16q2 1 4.5 3t3.5 3q2 1 4.5 3.5t3.5 2.5q16 10 37 14q14 3 18 3h6t2 -4h3q1 0 1.5 -0.5t2.5 -0.5h1q-1 -2 -2 -7t-3 -8q-1 -2 -5.5 -3.5t-4.5 -2.5h-2l-1 -1l-1 -1h-2v-1l-2 -1h-1
q-48 -37 -84 -73l-1 -3q-2 -2 -5.5 -6t-6.5 -7q-1 -2 -4 -6t-5 -6l-6.5 -6.5l-6.5 -6.5q-8 -10 -30 -34q-1 -2 -6.5 -8.5t-8.5 -10.5q-7 -9 -38 -52q-6 -8 -19 -26.5t-19 -28.5q-8 -11 -23 -31.5t-22 -29.5q-2 -3 -4.5 -7t-3.5 -7q-3 -3 -6 -6.5t-4 -4.5q-3 -5 -6 -9
t-4.5 -7t-2.5 -3q-1 -2 -2.5 -3.5l-2.5 -2.5q-17 -22 -23 -31h1l-7 -9q-15 -18 -40 -51.5t-31 -40.5q-3 -5 -11.5 -14.5t-10.5 -11.5l-1 -3q-2 -2 -4.5 -4t-2.5 -3q-21 -23 -42 -42q-17 -16 -21 -19v-3q-2 -16 -3 -18q-2 -3 -2 -6q0 -1 -9 -2l-2 -4l-2 -4q-4 0 -10 0.5
t-11 1t-11 3.5z" />
    <glyph glyph-name="W" unicode="W" horiz-adv-x="950" 
d="M448 22q-3 1 -6 6t-3 6v2q0 1 -1 1v0v0q-1 0 -1 1.5v2t-0.5 0t-0.5 0v2t-1 1.5q-5 14 -20 88l-1 2q-1 2 -1.5 5.5t-0.5 5.5q-1 1 -2 4t-1 5t-0.5 6t-0.5 5q-1 6 -2 14t-2 13q0 2 -0.5 6.5t-0.5 6.5q-1 7 -4 19t-4 15q-8 33 -8 34q-1 8 -3 22.5t-2.5 16t-1 4t-1 4t-0.5 4
v3.5q0 3 -0.5 5.5t-0.5 3.5l-1 2q0 2 1 3v1l-2 20h-1h-1l1 5v7q-3 -4 -5 -7q-2 -2 -5 -6t-5 -7q-4 -6 -11.5 -20t-9.5 -16q-1 -2 -8.5 -15.5t-11.5 -20.5q-5 -7 -13.5 -20t-11.5 -19q-2 -2 -2.5 -4t-1.5 -4q-2 -2 -4 -5l-2 -2q-2 -3 -3.5 -5.5t-2 -4.5t-1.5 -2q0 -1 -1.5 -2
t-1.5 -2q-7 -11 -12 -19h1l-5 -5q-11 -16 -36 -61q-1 -3 -5.5 -9.5t-4.5 -8.5l-1 -2q0 -2 -1.5 -3.5t-2.5 -1.5q-7 -12 -21 -32q-1 -2 -4.5 -8t-5.5 -8.5t-5 -7.5t-5.5 -8t-3.5 -4q-1 0 -2 -2v-1v1q-1 0 -1 -0.5t-0.5 -1.5t-1 -1.5t-1.5 -0.5h-2l-5 -3q-1 0 -1 -1h-1
q-2 0 -8 2t-7 4v1q-8 0 -14 2q-2 1 -5 5l-3 5v1v2.5t-1 -0.5q-1 1 -0.5 2t0.5 1.5t-1 0.5h-1v2v1q-5 22 -1 99l-1 3q0 2 0.5 6.5t0.5 7.5v6v6t1 7t1 7q1 8 2 19t2 16q0 3 1 9l1.5 9t1.5 47v24v24q0 6 1 24t1 28q0 2 -0.5 5t-0.5 5q0 3 0.5 6t0.5 4q0 4 -0.5 7t-0.5 6v2
q-1 1 0 2.5t1 2.5q-1 13 -1 24h-1l1 8q-1 29 -9 70q0 2 -1 6.5t-1.5 7.5t-0.5 5l-2 1v3.5v2.5q-2 8 -4 17.5t-3 13.5q-1 2 -2.5 7.5t-2.5 6.5q0 3 -2 6.5t-3 6.5t-1 5q1 0 0 0.5t-1 1.5q1 0 1 0.5t-1 1t-1 1t0.5 1t0.5 1.5q-1 4 -1 5q1 0 0 1q0 2 3 5.5t4 3.5l3 1q2 1 4 0
q1 0 1 0.5t0.5 0.5t2 -0.5t2.5 -0.5h6.5t9 -1t5.5 -3q13 -12 23 -31q5 -11 14 -47q6 -22 6 -25q2 -13 4.5 -38.5t3.5 -26.5v-3.5v-4.5q0 -1 0.5 -3.5t0.5 -3.5q3 -35 1 -106q0 -7 -5 -54q0 -1 0.5 -4.5t1.5 -5.5l1 -3q0 -10 -1 -24q0 -5 -1.5 -7t-1.5 -6l1 -3
q-1 -4 -1.5 -12.5t-1.5 -15.5l-1 -8q-1 1 -2 1q3 -6 0 -23q-3 -24 -4 -47v-1q2 3 5.5 9.5t5.5 9.5q4 7 15.5 25.5t15.5 25.5q1 1 2 3t2 3q0 2 1 4t1 3q6 10 15 24.5t19.5 31t14.5 22.5q1 3 27 38q0 1 1 3.5t1 4.5l1 3q3 8 10 18q2 4 4 4.5t4 4.5l1 2q2 3 6 9.5t7 11.5l5 5
l2 -1q-1 6 8 18q13 18 23 37q1 1 2.5 3.5t2.5 3.5q0 1 0.5 3t1.5 3.5t3.5 4t2.5 3.5q1 3 2 9q0 1 1 8.5t1 10.5q6 24 6.5 24t0.5 1.5v2.5l1 -1v2.5t0.5 1.5t1.5 0.5t1 1.5q3 4 3.5 4.5l1.5 1.5v0q1 1 7 1t6 -1.5t2 -1.5q7 8 9 9q3 2 4 4q1 1 8 -3l4 2l4 2l9 -6q9 -7 14 -13
q1 -1 0.5 -8t-0.5 -8l-1 -1l-1 -2h1v-1l-1 -1l-1 -2v0q1 0 1 -0.5t-1 -1.5l-1 -2q-7 -21 -30 -61q-1 -4 0 -8v-6t0.5 -7t0.5 -7q3 -43 4 -48q0 -1 0.5 -3t0.5 -3t1 -3v-2q2 -11 6 -37.5t6 -36.5q1 -7 2 -13.5t1 -13.5t1 -11q0 -1 1 -3t2 -3.5t2 -2.5q2 -6 3 -16q1 -3 0 -5
t0 -5l1 -2q1 -3 2 -9t2 -11v-6h-2q4 -4 5 -17q2 -19 7 -37q0 -2 0.5 -4.5t0.5 -3.5t1 -2.5t1 -3t0.5 -4.5t0.5 -5q1 -9 4 -18q0 -1 0.5 -3.5t1.5 -4.5q1 -1 2.5 -3.5t1.5 -3.5q2 -4 3 -10q5 12 16 33.5t13.5 26.5l8 16l8.5 17q8 16 24 45t20 36q1 2 3 5t2 4q2 2 3 5.5t2 4.5
q26 45 74 118q7 11 42 56l3 6t3 7l2 3q7 11 19 26q3 5 5.5 6.5t6.5 6.5l1 4q3 3 10.5 13t13.5 17q1 2 3 3.5t3 3.5l1 1l2 -1q2 7 18 25q23 26 45 54q1 2 4.5 5.5t4.5 5.5q1 1 2.5 3.5t3.5 5t6.5 6.5t5.5 6q12 12 23 26q1 2 3.5 5.5t4.5 5.5q2 3 4.5 7t3.5 5q11 14 40 42
q20 18 23 20q5 3 8 5t7 -2l5 4q1 0 3 1l3 2q1 -3 3.5 -7.5t3.5 -8.5t1 -7q-1 -6 -7 -14l-5 -8l-2 -2q-2 -2 -2 -3t-2 -3l-2 -2v-1l-2 -2q-2 -2 -2 -3q-12 -16 -29.5 -37.5t-41 -49t-35.5 -42.5l-1 -3q-3 -3 -7 -8t-6 -8l-5 -7.5t-5.5 -7t-7 -7.5t-6.5 -8q-5 -5 -30 -37
q-2 -3 -7.5 -9.5t-8.5 -9.5q-8 -11 -35 -52q-6 -9 -17.5 -27t-16.5 -25q-35 -55 -37 -57q-2 -3 -3.5 -6.5t-2.5 -5.5q-2 -3 -5 -6.5t-3 -4.5q-3 -5 -5 -8.5t-4 -6.5l-1 -3q-1 -2 -2.5 -3.5l-2.5 -2.5q-9 -15 -17 -29h1l-6 -8q-20 -34 -49 -95q-1 -3 -4.5 -10l-6 -12l-3.5 -7
v-3q-1 -3 -3 -5.5t-2 -3.5l-27 -54q-2 -4 -6.5 -14.5t-6.5 -14.5t-5.5 -13t-6.5 -15.5t-5 -7.5q0 -1 -1 -3l-1 -3h-1l-1 -3q-1 -2 -1.5 -2.5t-1.5 -1t-1 -1.5q-2 -2 -3 -4q-2 -2 -4 -3l-1 -1l-1 -1q-2 -1 -9 0t-7 3q0 1 -2 4q-3 4 -3 8h-1q-1 0 -1 1v3v3l-3 12t-2.5 11.5
t0.5 10.5q2 6 4 13q-12 0 -18 3z" />
    <glyph glyph-name="X" unicode="X" horiz-adv-x="624" 
d="M676 616.5q-1 -5.5 -7.5 -12.5t-7 -7.5t-2.5 -2t-2 -2.5v-1l-3 -1q-2 -2 -2 -3l1 -1q-1 0 -3 -2l-2 -2q-16 -18 -55.5 -58.5t-55.5 -58.5l-2 -4q-2 -2 -6 -6.5t-7 -7.5q-2 -2 -5 -6.5t-5 -7t-7 -7t-7 -6.5q-8 -8 -18 -19t-13 -15l-7.5 -7.5l-8.5 -8.5q-7 -9 -20.5 -26.5
t-15.5 -20.5q-35 -44 -36 -46q-8 -9 -18 -20q0 -1 1 -3t1 -3q2 -4 2 -7t2 -7l2 -3q2 -4 6 -13.5t7 -16.5l2 -9h-2q5 -4 12 -23q9 -25 19 -46q1 -2 2 -4.5t2 -4.5q0 -1 1 -2.5l2 -3t2 -5t1 -4.5q4 -10 9 -17q0 -1 1 -3t2 -3l3 -3l2 -1q6 -8 6 -19q1 -5 0 -6l-2 -2l-6 -4
l-1 -1q-1 0 -1.5 -0.5t-1.5 -0.5q-14 -11 -18 -13h-3t-3 0.5t-3 0.5v0q0 1 -0.5 1.5t-0.5 -0.5v1l-1 1l-1 -1v1l-1 1q-10 11 -40 75l-2 2q-1 2 -2.5 6.5t-3.5 7.5q0 2 -2.5 5.5t-3.5 6t-2.5 7.5t-2.5 8q-3 8 -7.5 19t-6.5 18q-1 3 -3.5 9.5t-3.5 9.5q-1 2 -2 5q-2 -2 -3 -2
q-3 -4 -5.5 -7t-4 -5t-2.5 -3t-2.5 -2t-2.5 -2l-22 -22v-1l-7 -6q-12 -10 -38 -34t-36 -32q-5 -4 -14 -10.5t-11 -7.5l-2 -3q-2 -1 -4.5 -2.5t-3.5 -1.5q-24 -16 -49 -29q-22 -11 -27 -14q-34 -14 -37 -14l-2 -1l-3 -1v1q-1 0 -3 -1.5t-3 -1.5t-2 1h-1q-9 -1 -9.5 -1
t-1.5 -1h-1q-2 1 -4.5 4.5t-1.5 4.5q1 0 2 3q2 3 5 5q0 1 -0.5 1.5t0 0.5t2.5 1l2 2q1 2 8 10.5t11 11.5q38 23 45 28q42 30 52 38q5 5 23 22q42 39 57 56q0 1 2.5 3t3.5 3q1 2 3 4l2 3q9 11 30.5 36t25.5 29q-11 25 -16 37q-5 11 -13.5 32t-10.5 28q-2 3 -3.5 6l-2.5 5
q-1 3 -2 7t-2 5q-1 4 -3 8t-3 6.5t-2 2.5q0 2 -0.5 3.5t-0.5 2.5q-7 17 -11 28h-1l-2 9q-5 13 -31 78q-2 4 -4.5 11.5t-3.5 9.5l-2 2v3t-1 3q-5 15 -8 31q-1 2 -1.5 4.5t-1 4.5t-0.5 4q-1 12 0 13v1q1 0 1 0.5t-0.5 1t0 1t1 0.5h1.5l3.5 3.5t1.5 0.5v1q6 1 12 -3h2q3 -1 5 0
h1h1h1h1q14 1 14.5 0t6.5 -17q2 -5 5.5 -17.5t6.5 -20.5q1 -4 4.5 -11.5t4.5 -10.5q3 -8 8.5 -22t10 -25.5t7.5 -18.5q1 -1 2 -4t1 -4q1 -2 2.5 -4.5t1.5 -3.5q9 -19 26.5 -62t21.5 -54q6 -13 11 -28q6 6 15.5 16t13.5 14q1 1 3 4.5t3 6.5l2 4q6 9 18 23q4 4 6.5 5t6.5 6
l1 3q3 3 10.5 12t13.5 16l8 6l1 -1q2 7 19 23q23 23 46 49l5 5l5 5q1 1 2.5 3.5t4 4.5t7 6t5.5 5q12 11 25 24q1 2 4 5l5 5q2 3 4.5 7t3.5 5q15 14 47 35q22 15 27 17t9 4q3 2 6 -3q1 0 7 2q1 1 3 1q4 1 4 2q0 -2 2.5 -11.5t1.5 -15z" />
    <glyph glyph-name="Y" unicode="Y" 
d="M185 20q-2 6 -2 10t1 10t1 8q0 1 1 4l1 3q0 1 -1 1v0l1 3q1 3 1 4h-1q0 1 1 4l1 3q12 56 53 148l1 3q1 3 3.5 8t4.5 7q0 2 2 6.5t3 6.5l5 7.5t4 6.5q2 2 5.5 7.5t4.5 8.5v1q-11 18 -23 70l-2 1q0 2 -0.5 4.5t-0.5 3.5q-1 1 -1.5 3t-1 3.5t-0.5 4v4.5q0 4 -1 9.5t-1 8.5v4
t-0.5 4.5t-6.5 21.5q-1 3 -3 10t-3 11q-1 3 -3 11l-3 12q-1 1 -1.5 2l-1 2t-0.5 2.5v2.5q-1 2 -3 5v1q-1 0 -0.5 1t0.5 2q-2 6 -4 11l-1 3q-5 14 -19 37q-1 1 -2.5 4t-3 5t-2.5 3h-1q-1 1 -1 2.5t-1 2.5q-4 6 -8.5 13.5t-6.5 11.5q-2 2 -5.5 6.5t-5.5 6.5q-1 3 -4.5 7
t-6 7.5t-3.5 4.5q0 1 -1 2l-1 1v1l-1 1l-1.5 1.5t-0.5 1.5v1l-2 6q0 1 -1 2v0q0 2 2.5 6t3.5 3q1 0 4 1t5 -1q1 0 1 1t0.5 1t2 -1t2.5 -1q2 0 7 -0.5t9 -1t6 -2.5q11 -8 27 -24q4 -4 25 -32q1 -2 5 -6.5t6 -7.5q5 -7 12.5 -20t9.5 -15q0 -1 0.5 -2t0.5 -2l2 -2t1 -2
q10 -18 21 -52q2 -3 4 -26q0 -1 3 -4l2 -2q2 -4 3 -11q1 -2 0 -3.5t-1 -3.5l2 -1q0 -2 1 -6.5t1 -7.5v-4l-2 -1q3 -2 4 -11q0 -13 5 -26v-2.5t0.5 -2.5l1 -2l1 -2t0.5 -3v-4q0 -3 1 -6q3 5 6 9q17 25 26 35q4 6 31 36q1 2 2.5 4t3.5 4q1 2 3.5 4t3.5 3q2 2 4 4.5t3 4t2 2.5
t2 1.5t2 1.5q12 13 16 17v1l5 5q14 13 55 59q2 3 9 10l9 9l1 3l3.5 3.5t2.5 1.5q10 11 37 39q3 3 10 10.5t10 10.5q3 4 9.5 11t11 12t6.5 6l3 3l1 2h1l2 2l2.5 2.5t1.5 0.5l1 1l8 6q1 0 2 1l1 1q1 0 4 -1t5 -2.5t1.5 -2.5t-0.5 -4q0 -4 -1 -7q-1 -1 0 -1t1 -1l-2 -2
q-1 -3 -1 -4q-1 -3 -2.5 -10t-3 -12t-4.5 -8q-11 -15 -37 -45q-9 -10 -25 -26t-20 -21q-4 -4 -10 -11t-9 -11q-6 -6 -16.5 -17t-18 -19t-11.5 -14q-1 0 -2.5 -2t-2.5 -3t-2.5 -3t-1.5 -3q-57 -68 -60 -72q-6 -8 -16 -20t-12 -15q-1 -1 -2 -4t-2 -5t-1 -3q-3 -6 -11 -18
q-2 -3 -3.5 -4t-3.5 -4l-1 -3q-2 -4 -6.5 -11.5t-6.5 -11.5l-4 -6l-2 1q0 -5 -9 -20q-13 -23 -23 -48q0 -1 -1.5 -4.5t-2.5 -5.5q-1 -1 -1 -3.5t-1 -4.5t-3.5 -6.5t-3.5 -6.5q-6 -13 -9 -28q-1 -1 -2 -5t-2 -7v-7t-1 -6q-2 -10 -19 -52q-11 -28 -12 -29l-5 -10q-2 -3 -9 -1
l-4 -7q-1 -1 -2 -3l-2 -3q-4 3 -9.5 6.5t-9.5 6.5t-6 7z" />
    <glyph glyph-name="Z" unicode="Z" horiz-adv-x="603" 
d="M59 98q-1 4 -0.5 7t2.5 8t2 7l2 2q2 2 2 3h-1q0 1 2 3l2 2l-1 1l1 2l3 3q10 15 24.5 33t36.5 42t29 33l1 3l3.5 3.5t3.5 4t3.5 3.5t4 4.5t4.5 5.5t6.5 5t6.5 5q23 19 28 23q3 2 8 6t8 6q6 5 19 16t19 16q34 29 40 33q8 6 23.5 18t22.5 18q2 2 4.5 4t4.5 4t5.5 4t4.5 2
q3 3 6 5.5t5 4.5l2 2q1 1 2.5 2t2.5 1q12 10 23 19h-1v1l7 5q32 25 66 64q17 19 18 21l1 3q1 2 3 3.5t3 2.5q5 6 15 18.5t16 21.5q2 3 7 11t7 10q2 4 8 13q-3 0 -5 -1q-1 0 -4 -1l-4.5 -1.5t-5 -0.5t-5.5 -1l-12.5 -2.5l-12.5 -2.5q-2 0 -6.5 -0.5t-7.5 -1.5q-6 -1 -18 -4
t-17 -4q-30 -7 -38 -8q-6 -2 -44 -7q-2 -1 -4.5 -1.5t-4.5 -0.5q-2 -1 -5 -1h-4q-3 0 -6 -0.5t-5 -1t-3 -0.5h-2h-2q-7 -1 -23 -2v-1h-7q-14 -1 -41 -2.5t-35 -2.5h-13.5h-10.5l-3 -1q-2 0 -4 0.5t-3 0.5q-22 1 -45 4q-22 3 -24 3q-28 6 -29 7h-3l-2 1v1h-2q-2 0 -2.5 0.5
t-0.5 1.5h-1q-6 4 -6.5 4.5l-1.5 1.5h-1v6t1 5t3 2q3 2 6 2v1v1h2h3q2 1 7 3t8.5 3.5t6.5 0.5q7 0 21 -2l21 -3q47 -4 52 -4h25q44 1 62 3q1 1 3 1h3q2 0 4 0.5t3 0.5q77 11 88 13q10 2 25 4t16.5 2t3.5 1l4 2t3 1q6 2 17 4q3 1 5 0.5t5 0.5l2 1q3 0 9.5 1.5t10.5 2.5l6 1
v-2q3 3 16 5q17 3 33 8q1 0 3 0.5t3 0.5t2 0.5t2.5 1t4 0.5h3.5l14 4q1 0 2.5 0.5t2.5 1.5t2.5 2t2.5 1q6 3 20 2h10q2 -1 3 -1t1 -5l2 -1l2 -2l1 -8q0 -8 -1 -10q-1 -1 -3.5 -3t-2.5 -2.5t-1 -0.5h-1v0q0 -1 -1 -1h-1v-1h-0.5h-1.5q-5 -2 -14 -5q1 0 1 -1v-2v-4
q1 -3 3.5 -11.5t2.5 -11.5t-1 -10q-10 -21 -31 -49q-8 -10 -48 -51q-1 -1 -9.5 -10t-13.5 -14q-12 -11 -35 -31t-27 -23q-1 -1 -3.5 -3t-3.5 -3q-1 -2 -3 -4l-3 -3q-13 -10 -30 -24t-37 -29t-27 -21q-11 -9 -28 -21t-18 -13t-3 -3.5t-4 -4.5l-2 -3q-6 -6 -18 -16
q-3 -3 -5.5 -3.5t-5.5 -3.5l-2 -3q-3 -3 -10 -9.5t-10 -9.5l-6 -4l-2 1q-1 -5 -13 -17q-6 -6 -32 -37q-1 -1 -4 -3.5t-4 -4.5q-1 -1 -2 -3t-3 -4t-5.5 -5t-5.5 -4q-11 -10 -19 -22q-1 -1 -3 -4t-3 -5q-2 -2 -3.5 -6t-1.5 -5q-7 -11 -24 -29q1 0 3.5 0.5t3.5 0.5q19 3 25 4
q15 1 63 2q1 0 3.5 -0.5t3.5 -0.5q2 0 4 0.5t3 0.5q26 -2 91 -10q10 -1 25.5 -4.5t17 -3.5h4t4.5 0.5t3 0.5q5 0 18 -1q4 0 5.5 -1t5.5 -1h2h22l6 -1v-1q3 1 18 3q21 2 39 9l7 2q1 1 2.5 2t3.5 2q1 0 4 1.5t5 1.5q10 5 17 12q6 5 6 6q2 2 3.5 4.5t1.5 3.5l10.5 10.5t10.5 10
t7 6.5l16 16q4 2 7 5q1 1 8 -4l5 3l5 4q2 -4 6.5 -9t7.5 -9t4 -10q0 -3 -1.5 -7t-4.5 -8t-3 -6l-2 -2q-2 -2 -3 -2l1 -1l-2 -2l-2 -2v-1l-2 -2q-2 -1 -2 -2q-38 -38 -109 -62l-2 -1q-3 -1 -7.5 -2t-6.5 -1q-1 -1 -5 -2t-6 -1q-2 -1 -14 -2q-20 -1 -32 -2q-3 0 -8.5 0.5
t-7.5 0.5h-20h-21q-26 1 -41 3q-6 0 -13.5 1t-16.5 2.5t-14 2.5h-4.5h-4.5q-2 1 -5 1.5t-4 1.5h-5.5h-5.5l-2 1q-1 0 -2 0.5t-2 0.5q-12 2 -22 3v-1l-6 1q-33 4 -68 1q-16 -1 -20 -2l-2 -1q-2 -1 -4 -0.5t-2 -0.5q-25 -6 -39 -11q-1 0 -19 -9q-4 -2 -13.5 -8t-12.5 -7l-2 -1
l-2 -2v1l-2 -1q-1 -2 -1.5 -2h-1.5h-2q-7 -3 -7 -2h-2l-1 -1q-1 0 -5.5 3.5t-4.5 4.5q1 1 1 4q0 4 2 7v0q-1 1 -1 2l1 2l2 2q1 2 3.5 8.5t5 10t5.5 5.5q15 9 32 16q-4 4 -7 10z" />
    <glyph glyph-name="bracketleft" unicode="[" horiz-adv-x="429" 
d="M235 -163q-4 -2 -24 -9h-3l-4 -1q-1 0 -4 -1h-4v-1q-3 0 -8 -1q-105 -6 -194 15l-3 2q-8 9 -13 19t-6 19q-2 11 -2 25q1 33 6 66q1 8 8 36q13 61 22 95q14 49 26 86q5 15 13.5 38t8.5 25q1 2 1.5 3.5t0.5 3t1 2.5l1 1q2 10 2 13q1 1 2 2.5t1 2.5q5 13 13 32l-1 1l5 10
q7 16 58 133q2 5 6.5 15.5t7.5 18t5 10.5l1 5q2 3 4 7t2 6q24 58 31 77q3 7 11 34l2 8l-2 1h-2h-7q-2 1 -3 1t-2 5l-2 1l-1 1q-2 17 -2 18.5t2.5 3.5t3 2.5t1.5 0.5v0v1h1h1v0q0 1 1 1h1q8 3 20 5q0 1 1 1v1v1q1 1 5.5 2.5t4.5 0.5l3 -1q2 -1 3 -3q8 0 20 1l1 1h3.5h4.5
q1 0 3 0.5t3 0.5t4 -0.5t4 -0.5q3 -1 8.5 -1t9.5 -1q2 0 5 -0.5t4 -0.5h12.5h11.5h24q5 -1 14 -2t11 -1h3h2.5h2.5l2 -1h6h2v-1h2q8 -1 11 -1l4 -1q7 -1 32 -3q1 0 4 -0.5t4 -0.5l1 1l1 -1h1q6 -1 12 -3q1 0 2.5 -0.5t2.5 -1.5l4 -2v-1h1v-1v-3h1l2 -9l1 -2q0 -2 -1 -3l1 -1
q0 -1 -0.5 -1h-0.5v-1q-3 -10 -4 -11q-3 -1 -11 -2q-3 0 -9 1t-8 1h-5h-5q-4 0 -14 1t-13 2h-2h-2h-2h-1q-8 0 -26.5 1.5t-21.5 1.5q-1 0 -26 5q-1 0 -5 -2h-1q-5 -1 -12 0q-2 0 -3 1t-3 1h-2h-6t-8 1l-3 1v1q-3 -2 -11 -1q-13 2 -25 1h-2h-2h-2q-5 -25 -19 -63
q-7 -20 -40 -98q-4 -7 -10.5 -23.5t-10.5 -25.5q-42 -95 -49 -112q0 -2 -1.5 -5.5t-2.5 -5.5t-3 -11q-3 -10 -33 -99l-14.5 -43.5l-14.5 -43.5q-1 -2 -2 -6.5t-1.5 -8.5t-0.5 -7l-1 -4q-2 -9 -4.5 -18t-4.5 -17t-2 -11q-2 -8 -4 -12t-3 -13l-1 -6q-4 -21 -8 -53
q0 -2 -1 -5.5t-1 -5.5v-2h-2q1 -5 1 -18v-18q2 -24 8 -46q2 -4 3.5 -6t4.5 -4q3 -1 15 -2q20 -3 38 -4q15 -1 17 -1h10t7 -1q62 -1 70 -1q13 1 32 5q4 1 8 3q3 0 4 -2l5 2q4 2 5 3q-4 -12 -5 -14zM240 -149v0v0z" />
    <glyph glyph-name="backslash" unicode="\" horiz-adv-x="339" 
d="M368 -89q-2 0 -6 3t-4.5 3.5t-1 1.5t-1 1.5t-0.5 -0.5l-1 2l-1 1h-1l-1 1l-1 2q-17 20 -73 110l-3 2q-2 3 -5 8.5t-5 8.5l-5 7.5l-5 7.5t-5 9.5t-5 9.5q-5 8 -13 22t-13 23l-6 12t-7 12q-6 11 -19 31.5t-18 29.5q-30 51 -37 63q-6 10 -39 72q-1 3 -3.5 6.5t-4.5 6.5
q-2 4 -4 9t-3 6q-2 5 -4.5 9.5t-4.5 7.5t-2 4q-1 2 -1.5 4t-1.5 3q-5 10 -17 35h-1l-4 10q-9 19 -26 55t-22 48q-2 5 -6 16t-5 13l-2 3q-1 2 -1.5 5t-1.5 3q-9 27 -14 50q-4 19 -4 24q-2 24 -1 27q1 0 0.5 1.5t-0.5 2t1 0.5v1v2.5t1 1.5h1q3 5 3.5 5t0.5 0.5v1.5h6t5 -1
q1 0 3 -1l3 -3q0 -1 1 -0.5t1 0v-1.5l1 -1q2 -2 5 -4.5t5.5 -4.5t2.5 -5q1 -3 4 -15.5t5 -20.5q13 -45 18 -57q2 -6 13 -31q26 -61 38 -85q1 -2 2.5 -5.5t2.5 -4.5q1 -3 3 -6t2 -4q68 -128 74 -139q10 -18 23 -43.5t15 -28.5q0 -1 2 -4t4 -5.5t4 -4.5l2 -2q7 -11 18 -31
q3 -5 4 -8.5t4 -8.5l3 -3q3 -6 9.5 -17.5t11.5 -19.5q1 -1 2 -3.5t2 -4.5l1 -2l-1 -1q5 -5 18 -27q17 -31 35 -59q1 -2 3 -5.5t3 -5.5l3 -3t3 -4.5t3.5 -7t3.5 -6.5q8 -13 16 -24q1 -1 3 -4t3 -4l4.5 -4.5t2.5 -3.5q8 -10 19 -33q6 -12 6 -14q1 -3 1 -5q1 -1 -4 -4l1 -3v-4
q-3 0 -6.5 -2t-6.5 -3t-7 -1z" />
    <glyph glyph-name="bracketright" unicode="]" horiz-adv-x="394" 
d="M-85 -100q0 1 3 2l3 2q0 1 0.5 0.5t0.5 0t1 0.5l1 -1v0q0 1 1 1q8 1 39 -10l2 1q1 0 2.5 -1t2.5 -1h2.5t2.5 -0.5t2.5 -1.5t2.5 -2q3 -1 7.5 -3t6.5 -2q1 0 3 -1.5t3.5 -2t19.5 -3.5q2 -1 9 -2t10 -1q3 -1 10.5 -2.5t11.5 -2.5h2h2t2 -1l2 -1h6h1h1q0 -1 1 -1q5 -1 10 -1
l3 -1q13 -2 32 0q1 0 3.5 0.5t4 0.5h2.5v1h2h1q3 0 6 1q1 0 1 0.5t-1 0.5l1 1v3v1q1 2 1 3q3 11 40 130v3q1 3 3.5 9.5t3.5 10.5q0 2 1.5 7.5t2.5 9t3.5 10t3.5 10.5q4 12 9.5 27.5t7.5 21.5q1 4 4 12.5t5 13.5q3 9 6 20.5t7 25.5t6 22q1 6 8.5 31.5t11.5 38.5q4 15 12 41
t11 35l2 8l2 8t3 8.5t2 5.5l3.5 10.5t2 8t1.5 4.5q0 2 1 4t2 3q7 24 11 36h-1l4 10q1 3 33 105q2 5 5.5 15.5t4.5 12.5v3q1 2 2 4.5t2 3.5q8 22 18 44q-4 0 -24 -1l-1 -1q-1 0 -3 0.5t-4 0.5q0 -1 -2 -1h-3t-3.5 0.5t-3.5 0.5h-7t-7 1q-1 0 -3.5 0.5t-3.5 0.5q-3 0 -6 -0.5
t-6.5 -0.5h-4.5q-2 0 -8 -0.5t-9 -0.5h-8.5h-7.5q-1 0 -2 -0.5t-1.5 -0.5h-1.5l-1 1q-2 0 -4 -1h-1l-1 1h-8v-1l-2 1q-7 0 -20 -3q-1 0 -3 -1h-3v-1h-2v0q-2 0 -10 -2q-1 0 -3 -1t-2.5 -1t-2.5 -1q-3 -1 -4 0v-1h-1v1l-1 -1l-1 1q-3 1 -3 1.5t-1 0.5q-7 7 -7 9q0 1 -0.5 3
t-0.5 4l-1 1v1l1 1q-2 11 0 13q4 2 14 5q3 1 9 2t7.5 1.5t4.5 1t4 0.5q4 1 11 2t10 2h1h1q1 0 1.5 0.5t1.5 0.5q7 1 33 2q2 0 18 -2q1 0 3 2l2 1h9q1 0 2 -1t3 -1l1 1h4.5h6.5l3 -1l-1 -1q3 2 10 1q10 -2 21 -1h2.5h2.5t1.5 0.5t1.5 0.5t3 -0.5t3 -0.5q6 0 12 1h2.5t2.5 1
q1 0 2 1l2 1q5 1 10 1l1 1h1l1 1q3 2 3.5 2t1.5 1v0q1 0 4.5 -1.5t3.5 -2.5l1 -2q1 -1 1 -2q4 0 5 -1q3 0 4 -1q2 0 2 -5l3 -1h1l2 -1q-4 -18 -4 -19q-1 -1 -5 -3t-4.5 -2h-1.5q-1 -4 -3.5 -11.5t-4.5 -11.5q-2 -8 -9 -26t-11 -29q-2 -6 -5 -17t-4 -15q-27 -85 -28 -87
q0 -2 -1.5 -5.5t-1.5 -4.5q-1 -3 -1.5 -6.5t-1.5 -4.5q-7 -26 -24 -82t-20 -68q-2 -5 -25 -76q-1 -2 -2 -7t-2 -9v-4q-3 -13 -10 -34q-2 -7 -3.5 -9.5t-3.5 -9.5v-4q-2 -5 -6 -17.5t-7 -22.5q-1 -2 -2 -4.5t-2 -4.5v-2l-2 1q0 -8 -8 -33q-12 -33 -22 -66q0 -2 -1.5 -6
t-2.5 -6q0 -2 -0.5 -4.5t-1.5 -5.5t-3 -7.5t-3 -6.5q-5 -14 -9 -29q0 -2 -1 -5t-2 -5q-1 -3 -1 -6.5v-5.5q-4 -14 -13 -30q3 -4 3 -5l1 -3v-4l1 -1l-1 -1v-2q-2 -13 -4 -14q-6 -3 -20 -7q-2 0 -26 -4q-2 0 -6 -1t-6 -1q-6 -1 -18 -1.5t-14 -0.5h-2h-2h-2h-1q-17 -1 -49 3
q-3 0 -23 5q-1 1 -3 0l-3 -1q-5 0 -11 1q-2 1 -2.5 2t-2.5 2l-1 -1q-2 0 -5.5 1t-6.5 2l-3 2v1q-3 -2 -10 1q-10 4 -20 6l-1 1h-2.5h-1.5t-1.5 0.5t-2 1t-1.5 1.5q-5 1 -9 2h-2h-2t-2 -1l-2 -1q-4 0 -11 6q-5 4 -5 5q0 2 -1 3l2 6l-1 2q0 2 0.5 2.5t3.5 8.5t7 14z" />
    <glyph glyph-name="asciicircum" unicode="^" horiz-adv-x="441" 
d="M483 285q-1 -1 -7 0l-5 1h-1l-2 1l-2 1h-1v-1l-1 1l-2 1q-23 7 -60 33l-2 1q-4 2 -5 3q-5 3 -6 3q0 1 -4 5q-6 9 -9 14q-1 2 -2 4.5t-2 3.5q-2 4 -7 11t-7 11q-11 18 -15 25q0 1 -13 32q-1 1 -2 2.5t-2 3.5q-1 1 -1 3.5t-1 3.5l-2 4l-2 4v1q-1 1 -1 2v2q-4 12 -6 16h-1
l-1 5q-2 7 -19 51q-1 2 -2.5 7.5t-2.5 6.5l-1 1l-11 -11l-1 -2q0 -1 -2 -2.5t-3 -3.5l-2.5 -2.5t-2.5 -3t-3.5 -3t-3.5 -2.5q0 -1 -15 -16q-2 -1 -4.5 -4t-4.5 -4q-3 -3 -19 -24q-3 -4 -9.5 -12.5t-9.5 -12.5q-2 -3 -9.5 -12t-11.5 -14q-1 -2 -2 -3.5t-2 -2.5q-1 -2 -2 -3
l-2 -2q-2 -2 -3 -4l-1.5 -3t-0.5 -2q-1 0 -2 -0.5t-1 -1.5q-5 -7 -9 -12v-1h1l-4 -3q-11 -15 -22 -38q-1 -1 -2 -3.5t-2 -4t-1 -2.5v-1q0 -1 -1 -1.5t-1 -1.5q-1 -4 -3 -9l-3 -4q0 -1 -0.5 -2.5t-0.5 -2.5q-1 -1 -2 -1h-1l-1 1l-1 -1h-1q-3 0 -4 -1h-1l-3 -2
q-3 -2 -5.5 -3.5t-3.5 -1t-1.5 0t-1.5 -0.5q-3 -1 -5 -1q0 1 -1 1l-1 -1l-1 1h-2q-16 6 -16 9q0 8 7 22q2 4 7.5 12.5t6.5 10.5q2 2 4 6t4 6q3 6 11.5 17.5t10.5 15.5q1 1 2 3l1 1q1 1 2 3v1q12 17 43 55q3 4 24 26q1 0 2 2t1 4l1 2q4 5 11 12q2 2 3.5 2.5t3.5 2.5v2
q2 1 6 5.5t7 7.5l4 3l1 -1q1 4 10 12q11 9 22 20q1 1 2.5 2t2 1.5t1 1.5t1.5 2t3 2t2 2q5 3 10 8q1 1 2 1.5t1 1.5v2v12.5v1.5v0h1l-1 1v1h1l1 1q3 2 3 2.5t1 0.5q10 5 13 4q1 -1 4 0q3 0 4 -1l1 1h1h1l1 -1q16 -2 16 -3q1 -2 6 -17q2 -4 4 -13.5t4 -14.5q1 -3 3 -8t3 -7
q2 -5 5 -14t5.5 -16t4.5 -12q1 0 2 -2v-2q1 -1 2 -2.5t1 -2.5q4 -9 13.5 -31.5t12.5 -30.5q3 -5 5 -10t3.5 -10.5t2.5 -7.5q0 -2 4 -4q1 -1 1 -2q3 -3 6 -10q1 -2 0.5 -3t0.5 -3l2 -1q0 -1 2 -4.5t3 -5.5q0 -1 0.5 -2t-0.5 -1l-1 -1q3 0 4 -6q2 -8 7 -12q1 0 2 -1l1.5 -1.5
t1.5 -1t1.5 -1.5t2 -2.5t2.5 -1.5q4 -5 9 -8q1 0 2.5 -1t2.5 -1.5t2.5 -0.5t2.5 -1q2 -1 17 -13q2 -2 4 -3.5t3 -2.5l2 -2l3 -3t0 -5l2 -2l2 -3l-4 -5q-4 -5 -7 -7z" />
    <glyph glyph-name="underscore" unicode="_" horiz-adv-x="421" 
d="M469 -106q-1 -2 -5.5 -3.5t-5 -1.5h-1.5h-1v-1h-2h-1v-1h-1h-2q-15 -2 -76 -4h-1h-5h-5q-1 0 -4 -0.5t-4.5 -0.5t-4.5 0.5t-5 0.5h-12t-11 1h-6h-6q-5 0 -16.5 -0.5t-13.5 -0.5t-13.5 -0.5t-16.5 -0.5h-18.5h-15.5q-2 0 -3.5 -0.5t-3.5 -0.5t-4 0.5t-3 0.5h-4t-3.5 -0.5
t-2.5 -0.5t-1.5 0.5t-1.5 0.5h-17v-1l-4 1q-10 1 -52 0q-3 0 -8.5 0.5t-7.5 -0.5h-1q-2 0 -3 0.5t-2 0.5q-12 0 -28 2q-2 0 -7.5 0.5t-7.5 0.5t-6.5 0.5t-7.5 1t-4 1.5h-1h-2v1h-1h-2l-1 1q-4 2 -4 3h-1q-1 2 -1.5 5.5t0.5 4.5q1 0 2 2.5t3 2.5v1v1l1 1h2q1 1 3.5 4t5 4.5
t4.5 1.5q5 1 27 1q6 0 17.5 -1t16.5 -1h9.5h8.5q4 1 23 0.5t20 0.5q1 0 2.5 -0.5t2.5 -0.5q1 1 2.5 1h2.5q12 1 37.5 1h29.5q1 0 33 -2q1 0 3 0.5t4 1.5l2 1q5 1 15 0q3 0 4 -0.5t4 -0.5h2h8.5h9.5h5v-2q4 2 15 2q17 -2 33 -1q1 1 3 0.5t3 0t2 0.5h2.5t4 -0.5t4.5 -0.5
q7 0 15 1q1 0 3 0.5t3 0.5q2 0 4 1t3 1q7 1 25 -2q11 -1 13 -2l4 -2q1 0 1 -5l3 -1l3 -2q-1 0 -2 -7t-3 -11z" />
    <glyph glyph-name="grave" unicode="`" horiz-adv-x="230" 
d="M266 412q-1 0 -4.5 1t-4 1h-1.5v1h-1l-1 1v0v0l-1 -1l-1 1v1q-12 6 -39 33l-1 1q-1 1 -2 2.5t-2 1.5l-2 2l-2 2t-2 2.5t-1 2.5q-2 2 -4.5 6t-4.5 6q-1 1 -2 3t-2 3q-2 3 -6.5 8t-5.5 7q-11 12 -12 14q-3 4 -7 10.5t-4.5 7.5t-1.5 1.5t-1.5 1.5l-1 2t-0.5 2q-1 2 -3 4
l-1 1v1v1q-4 6 -5 9h-1l-1 3q-1 3 -16 29q-1 1 -2.5 4.5t-2.5 4.5l-1 1q-1 0 -1 2v1q-3 7 -6 18q-1 1 -2 5t-1.5 5.5l-1.5 4.5t-1.5 5.5t0.5 3.5v1h-1h1v1v1q-1 0 -1 0.5t1 1.5v0q1 4 1.5 4t0.5 1q1 1 5.5 3.5t5.5 1.5h2h4q1 -1 1 0h1h1l1 -1q2 0 5.5 -0.5t6 -1t3.5 -2.5
q2 -2 9 -16q1 -4 3.5 -11t4.5 -10l2.5 -5t2.5 -4q2 -3 4.5 -8.5t4.5 -9t4 -6.5l1 -1v-1q0 -1 1 -1l1 -1q4 -6 11 -18t10 -16q2 -3 3.5 -6l3 -6l2.5 -5q0 -1 2 -2l2 -1q3 -2 6 -7q1 -1 0.5 -2t0.5 -3h2q1 -1 2.5 -4t3.5 -5q0 -1 1 -2l-1 -1q3 -1 6 -6q5 -9 12 -16l1 -1
l1.5 -1.5l1 -1l1 -1t1.5 -2t1 -2.5q3 -4 7 -7q1 0 2 -1l1.5 -1.5t1.5 -0.5h2q4 -3 10 -13q5 -7 5 -8q0 -2 1 -3q0 -1 -3 -4q0 -1 1 -3v-1v-1q-14 -10 -14 -11z" />
    <glyph glyph-name="a" unicode="a" horiz-adv-x="388" 
d="M378 0q-2 -1 -7 0l-5 2l-1 1l-1 1h-1l-1 1l-1 1h-1l-1 1l-1 1q-23 18 -36 66l-1 1q-1 2 -1 5t-1 5q0 1 -0.5 3.5t-0.5 4v5t1 4.5q1 17 1 23q1 2 1.5 5.5t0.5 5.5q1 4 1 8l-2 -2h1q-1 -1 -3 -2.5t-4 -3.5t-2 -3q-41 -38 -89.5 -70.5t-87.5 -48.5l-3 -2q-5 -1 -16 -3
q-9 -2 -12 -2q-6 -1 -14 0q-19 0 -31 3q-7 2 -15 7q-21 15 -29 32q-8 21 -6 45q1 20 14 53q0 2 1 5l2 6l4 6l2 4q3 5 5.5 10.5t2.5 6.5l2.5 2.5t1.5 2.5q8 12 18 26v1l6 7q49 53 82 78q1 0 33 20l3 2q0 1 11 5q40 19 68 25q20 4 37 3q11 -1 27 -7t19 -10l3 -3q3 -3 3 -4h-1
q0 -1 2 -4.5t2.5 -4.5t-0.5 -2v-2q-1 -13 -2 -14v-3l-1 -2q-1 -2 -8 -3.5t-7 0.5q-1 2 -4 4q-4 3 -6 6q0 1 -1 0h-1l-2 2l-1 2q-12 7 -13 8q-14 17 -44 9q-29 -8 -71 -36q-15 -9 -30 -24q-36 -33 -56 -64q-4 -7 -4 -8q-1 -1 -4 -7q-26 -58 -27 -89q-1 -25 -1 -29
q0 -1 2 -2.5t3 -1.5q1 -2 0 -7q0 -1 -1 -2.5t-1 -2.5h1q0 -6 2 -12l2 -3l-1 -1q2 0 6 -2.5t6 -2.5q17 -3 39 6q6 2 10 4l4 2l4 2q1 1 6 3.5t8 4.5q16 9 30 20q10 9 13 11q4 3 8 7.5t5 5.5q14 12 37.5 32.5t29.5 26.5q10 9 23 22t18 17q0 1 1 1q0 2 8 27v3t1 4q0 1 1 3l2 2
q1 3 1.5 5t0.5 4v1q0 1 1 1.5t1 1.5q1 2 3 7t3 8h-1l2 4q4 7 7.5 15.5t6.5 17t5 11.5q1 3 3.5 7.5t2.5 5.5v2q0 1 1 1.5t1 1.5q6 9 14 20q0 1 2.5 4.5t3.5 4.5q9 10 9.5 10t0.5 1l1 1q0 -1 0.5 -1t0.5 1t0.5 1h1.5v0l4 1q0 -1 1 0q9 -2 10 -5q0 -1 1.5 -3t1.5 -3l1 -1h1v-1
v-1q1 -2 3 -4.5t3 -5t1 -3.5q-1 -3 -7 -18q-2 -4 -6.5 -12t-6.5 -12q-1 -3 -2.5 -8t-2.5 -6q-11 -32 -12 -36v-1q-1 -2 -2 -3v-3v-1q-1 -4 -6.5 -26.5t-7.5 -31.5q-1 -7 -4 -16.5t-3 -11.5q-1 -1 1 -6q1 -1 1 -2q1 -4 0 -12q-1 -2 -2 -3t-1 -4l1 -1v-7.5t-1 -7.5l-1 -4h-2
q3 -2 2 -11q0 -12 3 -24v-1q0 -2 0.5 -2.5t1 -1.5t0.5 -2v-2.5v-2.5q1 -6 4 -10v-1q1 -2 2 -2.5t2.5 -1t1.5 -1.5q1 -1 3 -15q1 -2 1.5 -5.5t0.5 -4.5q0 -2 1 -4q0 -1 -4 -5v-3v-1q1 -2 0 -2l-5 -5t-6 -5t-7 -3z" />
    <glyph glyph-name="b" unicode="b" horiz-adv-x="363" 
d="M54 50l2 -2q68 -14 124 3l3 2l16 8l14 9q15 10 17 11q20 15 37 33q12 13 17 21q27 39 45 78q16 34 19 63q2 15 -1 36q0 1 -0.5 1.5t-0.5 1.5t1 2.5t1 2.5q-1 2 -2 6v2v1q-3 6 -10 11l-1 -1l-4 3q-35 6 -75 -11q-15 -7 -27 -14l-2 -3q-2 -1 -4.5 -2.5t-3.5 -1.5
q-31 -23 -49 -41q-7 -6 -23 -27q-5 -6 -15 -21t-12 -17q0 -1 -1.5 -3.5t-1.5 -3.5q-1 -2 -3 -4l-1 -2l-2 -2q-1 -6 -9 -22q-13 -24 -22 -49l-2.5 -5t-1.5 -5q-1 -1 -1.5 -3t-1.5 -4.5t-3 -6t-3 -5.5q-6 -11 -9 -23q-1 -2 -2 -5t-1 -5q-1 -2 -1 -6zM-15 2q-2 0 -1.5 8
t0.5 8.5t1 2t1 2.5h-1q0 1 0.5 2.5t1.5 1.5l-1 1q-1 0 0 1.5t1 2.5q3 14 10 33q0 2 -1 2q1 0 2 1q6 15 33 78v2q1 3 3 7.5t4 7.5q0 2 1.5 6.5t2.5 7t4 7.5t4 7l9.5 19t7.5 17q1 2 4.5 8t4.5 9q1 2 19 49q3 7 9.5 24t9.5 26q4 9 11.5 27t11.5 28q1 2 1.5 5.5t1.5 5.5q1 3 3 6
t2 4q2 4 3 7.5t1.5 6.5t1.5 3q0 2 1 3l2 2q5 15 10 27h-1v1l4 7q12 30 27 85l3 9t3 10.5t1 6.5v2q1 3 2 5t1 3q3 10 14 45q1 3 3 11.5t3 11.5q1 4 2.5 11t3 11.5t2.5 6.5v2q0 2 1 2h1v2q0 2 0.5 2.5l1.5 1.5h1q1 2 1.5 3.5t2.5 2.5q1 0 1 1l1 1q2 1 8.5 1t7.5 -1q0 -1 3 -3
q4 -2 5 -5q0 -1 1 -0.5t1 0t1 -2.5l1 -2q1 -3 5 -8t6 -9t2 -8q-1 -16 -8 -48l-18 -59q-1 -4 -4 -14t-4 -15q-4 -14 -13.5 -40t-11.5 -34q-1 -1 -2 -4t-1 -4q-1 -2 -1.5 -5t-0.5 -4q-10 -27 -43 -111q-4 -10 -9 -21q19 14 50 30q19 10 34 14q36 12 77 14l8 -1h5h3
q26 -5 50 -33t21 -55q-2 -11 -6 -23.5t-6.5 -18t-11 -20t-9.5 -16.5t-3.5 -8t-4.5 -11l-2 -5q-13 -23 -29 -44q-6 -9 -9.5 -12t-8.5 -9l-2 -4q-20 -20 -36 -33q-1 -2 -3.5 -3.5t-4.5 -2.5l-2 -1l-1 1q-8 -11 -29 -21q-34 -19 -64 -30q-2 -1 -7 -2t-5 -2q-1 0 -3.5 -1
t-5.5 -1q-4 -1 -13 -2q-16 -2 -25 -4h-12h-7.5h-5.5q-37 -1 -57 5q-2 0 -3 1q-2 -5 -3 -6q-9 -15 -10 -16q-3 -3 -4 -5t-8 1l-3 -3l-4 -2l-9.5 5.5t-13.5 10.5z" />
    <glyph glyph-name="c" unicode="c" horiz-adv-x="347" 
d="M399 145q-3 -5 -9 -11l-7 -5q-1 0 -3 -1.5t-2 -2.5v-1l-2.5 -1t-2.5 -2t-3 -3l-2 -1q-59 -45 -142 -85l-3 -2q-4 -1 -19 -6q-12 -4 -16 -5q-9 -2 -19 -3q-34 -5 -60 -4q-14 1 -26 5q-41 12 -53 38q-13 27 -4 66q6 26 28 72q1 2 3 6.5t4 8t5 7.5t3 5q4 6 7.5 12.5t4.5 7.5
q1 2 2.5 3t2.5 2q10 15 21 29l7 7q36 33 79 57q4 3 11.5 6.5l15 7t8.5 4.5l4 2q2 1 11 4q41 14 70 17q21 3 33 -1q10 -3 20.5 -17.5t8.5 -20.5v-4.5v-4.5h-1q-1 0 -1 -4t-0.5 -5t-2 -2t-1.5 -2q-7 -12 -7.5 -12.5t-1.5 -2.5l-1 -2q-2 -2 -8.5 -2t-6.5 3q0 2 -1 5q-2 5 -3 10
q0 1 -1 1t-1 0.5t-0.5 3.5t-0.5 4q-3 4 -6.5 7.5t-6.5 4.5l-3 1q5 5 2.5 10t-12.5 5q-26 -2 -74 -26q-17 -9 -35 -21q-31 -21 -49 -47q0 -1 -2 -3t-2 -4q-2 -2 -3 -5l-2 -2q-43 -78 -51 -120q-4 -24 -3 -45q0 -1 3 -5h1q1 -2 0 -6t-1 -5q0 -8 1 -10l2 -1q8 -8 25 -13
q1 0 3.5 -0.5t4.5 -0.5l2 -1v-1q4 1 17 2t17 2q28 6 56 19q9 4 11 6q2 1 4 2.5t5 2.5q2 1 6.5 3.5t7.5 3.5q14 8 27 18q1 0 5 3t6 4l6 6t4 3q15 11 47 30q21 13 25 14q5 3 8 4q3 2 5 -2l6 2q1 0 2 1l4 1q-1 -3 -0.5 -6.5t0.5 -6.5t-1 -5z" />
    <glyph glyph-name="d" unicode="d" horiz-adv-x="402" 
d="M363 343q-1 0 -1 1q-33 12 -55 12q-33 -1 -69 -15q-14 -6 -31 -17q-40 -28 -66 -58q-5 -6 -6 -7q-2 -2 -6 -8q-39 -62 -44 -99q-2 -19 -1 -34q0 -1 2 -4l2 -2q2 -2 2 -10q0 -2 -0.5 -4t0.5 -4l1 -1q3 -8 11 -17q4 -5 5 -5l-1 -2q3 0 11 -4t11 -5q27 -8 52 -5l10 2
q1 1 3 1.5t4 1.5l11 4q13 6 23 13q8 5 9 7q3 2 5.5 5t3.5 3q11 10 35 28q3 10 12 33v4q1 3 3.5 8.5t3.5 9.5q1 3 2.5 8t3 8t4 9.5t4.5 9.5q2 6 17 45q1 3 4.5 11t4.5 12q7 18 19 60q0 3 1 5zM255 -12q-1 1 -1.5 4.5l-1 7t-0.5 4.5t0.5 2.5t0.5 2.5h-1v2l1 2q0 1 -1 1v0l1 2
l1 2q3 17 10 44q-43 -25 -86 -36h-3q-6 -1 -18 -2h-16q-9 0 -21 3q-27 5 -46 12q-9 4 -19 12q-28 21 -36 43q-10 27 -4 57q5 23 25 60q1 2 2.5 5.5t3.5 6.5t5 6.5t4 4.5q3 5 7 10.5t4 6.5q1 2 3 3t2 2q11 12 24 26v1l8 7q58 47 95 66q3 2 33 14l4 1q2 1 10 3q36 8 65 9
q20 1 35 -2q12 -2 26 -6q1 5 5 23q9 39 14 63v6.5t0.5 6t1.5 6.5t1 5v18q0 1 1 2.5t1 2.5q1 14 1 27h-1v8q-1 37 -14 71q-5 15 -8 18l-1 1q-1 2 -1.5 3.5t-0.5 2.5q-14 21 -26 32q-6 5 -21 13q-6 3 -20.5 8.5t-15.5 5.5h-3l-3 1v1h-3q-3 1 -3.5 1t-1.5 1h-1q-3 1 -5.5 1.5
t-3.5 0.5t-2 1l-1 1h-2q-4 3 -2 6q1 0 4 1q3 2 8 2v1h4h3q31 2 33 2q34 -6 58 -18q26 -13 51 -42q12 -14 18 -26q12 -28 18 -78v-5v-4q0 -3 0.5 -5.5t0.5 -4.5q-1 -59 -18 -131q-6 -22 -19 -58q0 -5 -3 -9q-1 -2 -1.5 -6.5t-1 -8t-0.5 -4.5q-3 -12 -10 -31q-2 -5 -3.5 -7.5
t-3.5 -8.5l-1 -3q-1 -4 -5.5 -16t-7.5 -21q-1 -2 -2 -4.5t-2 -4.5l-1 -1l-2 1q1 -8 -9 -30q-11 -27 -20 -50q2 -7 1 -11q-2 -7 -9 -14q-1 -1 -1.5 -3.5t-1.5 -5.5t-3 -7.5t-3 -6.5q-6 -14 -9 -28q0 -1 -1 -4.5t-2 -6.5v-6.5v-4.5q-2 -8 -13 -39q-6 -16 -7 -16q-2 -3 -3 -5
q0 -2 -7 -1q0 1 -3 -3l-2 -3q-3 2 -8 3t-9 3t-8 5z" />
    <glyph glyph-name="e" unicode="e" horiz-adv-x="308" 
d="M68 133q69 26 84 32q69 30 111 57q27 17 36 32q16 29 4 60q-1 4 -6 9q-6 8 -10 10q-35 17 -71.5 8.5t-61.5 -33.5q-28 -28 -55 -71q-2 -3 -9 -21q-2 -7 -5 -15.5t-5 -13.5t-3 -8q-2 -7 -3.5 -10t-3.5 -10v-4q-2 -12 -2 -22zM355 111q-3 -4 -7.5 -8t-9 -7t-6.5 -4
q-1 -1 -4 -3t-4 -2l1 -1q-1 0 -5 -2l-3 -2v-1l-8 -5q-44 -26 -102 -46.5t-111 -25.5l-5 1q-18 4 -30 12q-13 7 -22 17q-10 12 -15 25q-11 33 -9 66q0 13 6 33q14 49 34 83q25 42 56 72q32 31 75 54q8 4 16 7q7 2 16 4q19 3 27 3q4 1 10 0q28 -3 56 -18l15 -10
q22 -36 16.5 -72t-28.5 -56q-7 -6 -42 -28l-5 -3q-4 -2 -15 -8q-49 -24 -98 -43q-28 -11 -49 -18q-2 -1 -16.5 -6t-21.5 -7v-7q-1 2 -2 2t0 -2q3 -4 5 -14.5t3 -12.5q12 -36 38 -51q4 -2 14 -2q2 0 11 1q14 2 20 3q21 6 40 14q10 5 16 7q4 2 7 4t5.5 3.5t3.5 2.5q15 8 39 21
t30 17q7 4 14.5 8.5t11.5 7t7 4.5q7 3 11 5q3 2 5 -1l7 4q1 0 3 1q4 1 4 2q-4 -18 -5 -18zM360 129v0v0z" />
    <glyph glyph-name="f" unicode="f" horiz-adv-x="397" 
d="M341 388q0 -2 -3 -5t-3.5 -3h-1.5t-1 -1v-1h-1h-1v-1l-1 -1h-1q-16 -9 -56 -17l-1 -1q-1 0 -3 -0.5t-4 -0.5l-2 -1h-3h-3.5h-3.5t-6 -0.5t-9 -0.5q-1 0 -3.5 0.5t-3.5 0.5q-4 -1 -10.5 -1.5t-8.5 -0.5q-17 -2 -20 -2q-7 -29 -12 -50q-8 -28 -30 -88q-1 -3 -2 -8l-2 -10
l-1 -4q-5 -17 -13 -37q-3 -7 -5 -9.5t-5 -9.5l-1 -4q-14 -31 -19 -41q-1 -1 -2.5 -3.5t-2.5 -4.5l-2 -2l-1 1q-2 -11 -16 -32q-26 -39 -43 -63q-1 -3 -4.5 -7t-4.5 -5.5t-2.5 -4t-4.5 -4.5q0 -1 -12 -14q-8 -9 -25 -28q-2 -3 -5.5 -6t-4.5 -5q-3 -3 -6 -7t-4 -5
q-19 -19 -50 -41q-23 -16 -29 -20q-7 -3 -11 -6q-2 -2 -5 1l-7 -3q0 -1 -3 -1q-3 -2 -4 -3q1 3 1.5 7.5t1 7t1.5 4.5q4 6 11.5 13t8 7t3 2t2.5 3t2.5 3t3.5 2v1l3 2l2 2q73 75 114 134l2 3q1 3 5 8.5t6 9.5l4.5 9t4 7.5t5.5 8.5t6 10q11 20 24 47q10 21 12 24q10 26 24 70
q7 23 21 77q10 36 17 63q-11 1 -39 0h-6t-7 -1h-1h-2h-2h-27q-1 0 -6.5 -0.5t-7.5 -0.5h-8h-7.5h-5.5h-1h-2h-1h-2v1h-2q-5 1 -5 1.5t-1 0.5h-1q-1 1 -2.5 4.5t0.5 4.5l1 2q1 3 3 4v1l1 1l2 1q2 1 4.5 4t5 5t4.5 3q9 2 30 5q6 0 18.5 0.5t14.5 0.5t7 0.5t8 0.5q5 1 17.5 1
t16.5 1h2h1h3h1q2 0 5 1q1 6 1 10q2 5 3.5 11.5t2.5 8.5q1 8 2.5 14.5t2 11.5t0.5 6l2 6t1 5q6 28 11 55q0 1 -1 1l4 17q16 39 41 75.5t48 54.5q10 7 38 20l4 2q7 3 12 4q42 8 71 2q22 -5 36 -22q8 -11 15.5 -32t7.5 -29v-5q1 -5 1 -7h-1v-5q1 -6 1 -7t-1 -3t-1 -3
q-3 -19 -3.5 -20t-0.5 -4t-1 -3q0 -2 -3.5 -3.5t-6 -2t-3.5 1.5q0 3 -3 7q-3 6 -4 14q0 1 -0.5 0.5t-1 0t-1.5 5.5t-1 6q-3 9 -11 21.5t-10 18.5l-3.5 10.5t-4 11t-4 8.5t-5 8.5t-6.5 5.5q-24 16 -65 -5q-17 -8 -32 -26q-17 -21 -31 -49t-18 -49q0 -1 -0.5 -3.5l-1 -5
t-0.5 -3.5q0 -4 -1 -9.5t-1 -8.5q-9 -53 -24 -119q4 -1 6 -1q1 0 4 1l1 1q3 1 9 1q2 0 2.5 -1t2.5 -1l1 1h5h6h3v-2q1 2 8 2q10 0 20 3h2t1.5 0.5t1.5 0.5t2 0.5t2.5 0.5h2.5q5 1 10 3h2q1 1 2 1.5t2 2.5l1 1q3 2 18 5q10 2 11 1h3q2 1 3 -4l3 -1h3q3 -19 3 -20z" />
    <glyph glyph-name="g" unicode="g" horiz-adv-x="351" 
d="M311 185q4 13 7 27q1 4 3.5 11.5t4 12.5t1.5 8v3q1 3 2 5.5t1 3.5q2 7 15 55q1 4 2.5 12t2.5 10q-1 0 -1.5 0.5t-1.5 -0.5q-1 0 -2.5 1.5t-2.5 1.5q-2 1 -9 3t-9 4q-16 16 -33 14q-25 -3 -59 -25q-13 -8 -29 -24q-41 -38 -66 -75q-5 -7 -6 -9l-5 -10q-13 -29 -22 -61.5
t-8 -49.5t5 -36l5 -7q10 -11 11 -12q7 -4 9 -5h3q11 0 27 4q7 1 8 2v-1q3 2 13 6.5t13 6.5q30 18 57 43q8 7 11 10q1 2 3 4l4 4l6.5 6.5l7.5 7.5q13 15 22 29q6 10 7 12q2 4 3 8zM-122 -93q4 -1 9 -6.5t6 -5.5l1 -2l2 -2h1l1 -1q1 -2 2 -3q0 1 0.5 1t1.5 -2t2 -2
q58 -44 124 -57h3h18q3 0 15 2q15 1 19 2q21 6 41 15q12 6 19 12q24 18 42 43q10 14 29 48q17 31 31 59q1 3 2.5 6.5t2.5 6.5t3.5 7t2.5 5q2 5 3.5 9t2.5 8l2 3q0 2 1.5 3.5t1.5 2.5q6 14 11 27l-16 -14l-3 -3q-5 -4 -20 -14q-12 -8 -16 -10q-10 -5 -21 -10q-26 -10 -46 -15
q-10 -2 -23 -2q-38 -1 -57 8q-15 7 -26.5 22t-15.5 31q-7 26 6 72q4 12 5 14q1 4 3.5 8.5t3.5 5.5q3 6 6 13t4 8q1 2 2.5 3.5t1.5 2.5q10 16 22 34l8 9q55 63 92 91q4 3 32 19l3 3q3 1 10 4q33 12 58 15q17 2 30 0q9 -2 21 -7.5t15 -8.5v-1q1 1 1 1.5v2v2t1 -0.5q1 1 1 3v1
l1 1q1 0 1 1q3 5 3.5 5t1.5 1t7 1.5t7 -0.5q0 -1 3 -3q3 -1 4 -4h1h1v-2l1 -2q2 -2 5.5 -7t5 -8.5t1.5 -7.5q-1 -17 -8 -50q-3 -16 -12 -47q0 -2 0.5 -7t0.5 -6t-0.5 -3.5t-1.5 -2.5q0 -1 1 -1t-0.5 -2.5t-1.5 -3.5h1q0 -1 -2 -7q-5 -11 -13 -25q0 -1 -0.5 -3t-31.5 -94
q-1 -2 -2.5 -5.5t-1.5 -5.5q-1 -2 -2 -5.5t-2 -5.5q-29 -75 -63 -132q-13 -22 -40 -54q-1 -1 -4 -5t-6 -7l-2 -4q-14 -14 -28 -23q-5 -4 -8 -5.5l-9 -4.5l-3 -2q-20 -11 -36 -18q-2 0 -4.5 -1t-3.5 -2h-2v1q-12 -6 -31 -9q-35 -5 -68 -6q-2 0 -4 0.5t-5 0.5h-4t-4 0.5
t-6 0.5q-6 1 -17 3q-21 5 -32 8l-7.5 2.5t-5.5 1.5q-3 1 -7.5 2t-5.5 1q-28 12 -48 31q-15 15 -19 23t-5 9q-2 3 3 5q1 1 2 1l-1 4q-1 1 -1 2t-1 5v1q2 1 11.5 3t15.5 1z" />
    <glyph glyph-name="h" unicode="h" horiz-adv-x="375" 
d="M343 -105q-5 0 -10 1.5t-9.5 4t-6.5 2.5l-3 2l-2 2l-1 -1q0 1 -3 2l-2 2h-1q-2 0 -5 4q-21 22 -21.5 62t15.5 74l1 3q1 3 4 8.5t5 8.5l3.5 7t4 7.5t5 8.5t4.5 9q12 19 23 40q8 17 10 21q10 28 14 54q3 24 -1 51q-4 28 -18 56q-2 4 -4.5 7t-4.5 5q-1 2 -2 5v3q-2 5 -5 9
l-1 1q0 1 -1 2q-7 5 -18 5v-1l-7 -1q-40 -18 -82 -59q-18 -18 -27 -29l-2 -3q-2 -3 -4.5 -5.5l-3.5 -3.5q-30 -37 -44 -56q-1 -1 -17 -26q-3 -6 -5 -11l-4 -8q0 1 -1 2q0 -1 -1 -2q0 -7 -8 -26q-12 -26 -19 -50q0 -2 -1.5 -5t-1.5 -4q-1 -1 -1 -3t-1 -4t-2.5 -5.5t-1.5 -4.5
q-5 -10 -6 -19q0 -1 -0.5 -3t-0.5 -4v-4l1 -3q0 -7 -6 -18q-2 -3 -3 -3t-1.5 0.5t-8.5 0.5h-2q-2 1 -3 1q-22 -4 -28 -2q-2 0 -3 1.5t-2 3.5t-2 3v1l1 1h-1q-1 0 0 1v1q-1 0 -1 0.5t0.5 1t0.5 1.5q0 17 26 88v3l2.5 7.5l2.5 7.5q1 2 2 6.5t2 7t4 8t4 7.5q3 9 8 21t8 19
q1 3 4.5 10t4.5 10q3 8 6.5 18t7.5 21.5t7 18.5q2 6 9 27.5t11.5 33t13 33.5t12.5 33q1 4 2 7.5t2 6.5q1 4 3 8t3 5q2 5 3 9.5t2 7.5t1 4q1 1 2 3t1 3q7 18 12 32v1h-1l4 9q14 36 31 97q1 3 2.5 9t3 10.5t1.5 6.5v3q0 2 1 5l2 2q0 2 11 43q1 2 2.5 9t2 9t1 7t1.5 8t2 4v1v1
h1v1v1h1l1 1l3 3l1 1h1q12 6 15 3l3 -1q4 0 5 -2h1h1.5t1.5 -1l1 -2q1 -1 6 -4.5t7 -6.5t2 -6q0 -13 -5 -39q-1 -2 -17 -57q-1 -5 -3.5 -15t-4.5 -16q-5 -15 -14.5 -44.5t-12.5 -38.5q-1 -2 -2 -5.5t-2 -4.5q0 -2 -1 -5.5t-1 -4.5q-8 -26 -48 -135q-7 -17 -15 -37q2 3 5 6
q21 21 33 31q43 34 85 50q1 0 9 2q2 0 3.5 0.5l3 1t2.5 0.5q29 1 65.5 -26.5t46.5 -58.5q2 -6 3.5 -12t2 -10.5t0.5 -11v-10t-1 -9.5t-1.5 -8.5t-2 -9t-1.5 -8.5q-1 -2 -1 -6.5t-0.5 -8t-0.5 -4.5q-3 -15 -10 -31q-3 -6 -5 -8.5t-5 -7.5v-4q-14 -27 -18 -35q-1 -2 -2.5 -4
t-2.5 -3l-1 -2l-2 1q-1 -7 -13 -28q-18 -30 -28 -55q-3 -9 -4 -10v-3t-1 -4q0 -2 -1.5 -5.5t-2.5 -5.5q-2 -11 0 -19q1 -5 1 -6l2.5 -2.5t1.5 -2.5q2 -3 2 -11.5t1 -10.5q2 -5 12 -19q2 -3 6 -6q2 -2 0 -6l5 -5l6 -4q-2 -1 -6 -3.5t-7 -3.5t-5 -2z" />
    <glyph glyph-name="i" unicode="i" horiz-adv-x="254" 
d="M70 -25q-3 0 -8 1l-6 2q-1 1 -1.5 2t-1.5 1q0 -1 -0.5 -1t-1 1t-1 1.5t-0.5 -0.5h-1l-1 1l-1 1q-26 20 -34 67l-2 1v5v4v3.5v4.5t1 5t1 4q5 14 7 19q0 2 2 5t2 5q1 4 3.5 12.5t3.5 12.5q7 20 10 25q2 6 7 16t7 12q0 2 0.5 3.5t1.5 3.5q0 1 1.5 2.5l2.5 2.5q1 2 1.5 4
t1.5 3v2q0 1 1 2h1q5 9 8 15h-1v1l3 4q9 15 22 51q1 2 3.5 8.5t3.5 7.5l-1 3l2 2l1 2q4 8 14 33q1 2 3.5 8.5t3.5 9.5q1 2 3 8t4 10t3 5v2l1 2h1v2l1 2h1l2 1q1 1 2 3t3 2q1 0 1 1l1 1q1 1 8.5 0.5t7.5 -2.5q1 0 4 -3q3 -2 4 -5q0 -1 1 -1h1l1 -2q0 -2 1 -3q1 -2 4.5 -7.5
t5.5 -9t1 -7.5q-2 -13 -10 -39l-6 -14t-7 -15t-6 -13q-2 -4 -4.5 -10.5t-3.5 -9.5q-3 -7 -11 -23t-10 -22l-1 -2q-1 -1 -1 -2q-1 -1 -1 -3t-1 -2q-3 -9 -12.5 -29.5t-12.5 -28.5q-2 -6 -6.5 -14.5t-4.5 -9.5q-1 0 0 -3l1 -4q0 -4 -2 -10q0 -2 -1.5 -2.5t-1.5 -2.5l1 -1
q-1 -2 -1 -5.5t-1 -5.5q0 -4 -1 -3l-3 1q4 -3 2 -9q-2 -8 1 -16v-1q0 -1 0.5 -1.5l1 -1t0.5 -1t-0.5 -1.5t-0.5 -2q0 -4 2 -7q1 0 1.5 -1t1 -1.5t2 -0.5t1.5 -1q2 -2 2.5 -4.5t0 -6t-0.5 -4.5q0 -2 1 -5.5t1 -5.5q-1 -3 0 -5q0 -1 -6 -6v-4v-3q-2 -2 -6.5 -5.5t-8.5 -6
t-8 -4.5zM305 635q1 -1 1.5 -3.5t0.5 -3.5h-1v0l1 -1h-1v-1q1 0 0.5 0t-0.5 -1q0 -5 -11 -20v-1h-1q-1 -1 -1 -1.5t-0.5 -1.5t-0.5 -1.5t-1 -1t-2 -0.5l-2.5 -2.5l-2.5 -2.5l-2 -1l-1 -1q-1 -1 -2 -2.5t-1.5 -3.5t-1 -2.5t-2 -4t-2.5 -5t-3.5 -4l-3.5 -3.5v-1.5v-1t-1 -0.5
h-1q-1 -1 -1 -3q0 -1 -0.5 -0.5t-1.5 0.5q-1 -3 -2 -4v-1h-1q-3 -3 -8 -12l-1 -1q-1 -1 -1 -2l1 -1v0h-2q-1 -2 -5 -4l-1 -1h-1l-2 -1q-2 -1 -2 0h-1h-1l-1 1h-1q-2 1 -2.5 1.5l-0.5 0.5h-1q-12 6 -13 7l-2 2q-3 2 -4 3h-1l-1 1v1h-2l-11 10q0 2 2 6q1 2 3.5 3.5t3.5 2.5
q0 1 1 2l1 2q1 2 4 5.5t3 5.5h1l0.5 0.5t0.5 1.5t12 18q1 0 10 7v1q-1 2 -1 3q1 2 3 4q1 1 2 0.5t2 0.5v1q0 1 1.5 2t2.5 2q2 2 2 1l2 -1q-2 3 2 5q5 3 8 7q1 1 1.5 1t0.5 0.5v1t0.5 1t1.5 0.5t2 1q2 1 3 4q1 0 1 0.5t0.5 1t0 2t0.5 1.5q1 2 8 4h6h2t4 -5l2 -1h2
q1 -2 5 -7.5t6 -9.5z" />
    <glyph glyph-name="j" unicode="j" horiz-adv-x="227" 
d="M-276 -283q2 1 9 0t8 -1h3h3v1h3.5h3.5q0 1 3 1h4q89 24 125 49l1 2l5 5l6 6t5 5.5t4 5t5 5.5l7 7q11 14 25 34q12 16 14 19q12 20 29 56q8 16 27 61q18 44 28 71q2 4 3 8t2 7q1 4 3 8.5t3 5.5q2 5 3 10t2 9l1 3l2 4t2 3q6 19 11 36l-1 1l4 10q14 42 28 107q1 3 2.5 10
t2.5 12t1 7v3q0 2 1 4.5t1 3.5q3 11 10 46q1 3 2 9.5t1.5 9t1 7t1.5 7.5t2 4v1v1h1v1v1l1 1h1q3 2 3.5 2.5l0.5 0.5h1q13 5 15 3h4q4 -1 5 -2h1h1.5t1 -1t1.5 -1q1 -1 6 -4.5t7.5 -5.5t2.5 -5q1 -13 -3 -40q0 -1 -14 -61q-1 -5 -3 -16.5t-4 -17.5q-4 -18 -14 -52.5
t-11 -40.5q-1 -2 -2 -6t-2 -5q0 -3 -1 -6.5t-1 -5.5q-23 -73 -55 -149q-9 -21 -37 -69q-1 -2 -2.5 -6.5t-2.5 -8.5l-2 -4q-6 -14 -16 -29q-4 -5 -6.5 -7t-5.5 -8l-1 -3q-17 -23 -24 -32l-3 -3l-3 -3l-1 -1l-1 1q-4 -10 -20 -23q-27 -24 -48 -38q-2 -2 -6 -4l-4 -2
q-1 -1 -3 -2t-5 -2q-4 -2 -13 -5q-7 -3 -15.5 -5.5t-9.5 -2.5q-6 -2 -8.5 -3t-6 -2.5t-5.5 -2.5q-31 -9 -62 -12q-22 -2 -32 -1q-1 0 -2.5 0.5t-3.5 0.5t-4 1q-4 0 -2 4l-3 1q-2 1 -3 1t-3 2q-2 1 -3 1q4 3 9 8q5 4 8 5zM264 543q-1 -1 -3.5 -2.5t-3.5 -1.5v1h-1v-1h-1v-1
l-1 1q-8 -1 -25 10l-1 -1q-1 0 -1.5 1t-1 1t-1.5 0.5t-1.5 0.5t-1 1t-1.5 2l-2.5 2.5t-2.5 3.5l-1 2q0 1 -1 1q-1 1 -5 3l-3 2q-1 1 -3 2t-3.5 2t-2.5 2t-3.5 4t-3.5 4q-1 0 -1.5 0.5t-1 0.5t-0.5 1v1q-1 1 -3 2v1v1l-4 4v-1h-1v2q-1 3 -12 13l-1 2q-1 2 -2 2h-1
q-1 0 -0.5 0.5t0.5 1.5q-3 3 -5 9q0 1 -1 2.5t-1 2.5t-1 3q-2 3 -1 5h-1q1 0 1 1v1l1 1v1q1 3 2 3v1q8 10 11 11l3 2q3 1 4 2h1l1 1l1 1h1l15 7q3 -1 9 -7q1 -1 3 -5t3 -5l2.5 -2.5t2.5 -1.5q1 -1 4.5 -5.5t5.5 -5.5q0 -1 0.5 -1h0.5h1l8.5 -8.5l6 -6t4.5 -9.5q2 1 4 0
q2 0 3 -2q0 -1 -0.5 -2t0.5 -1h1q0 -1 1.5 -2t1.5 -2q1 -1 0 -2l-1 -1q3 2 4 -1v-1q2 -4 6 -6v-1.5t0.5 -0.5h1.5v-1l1 -1q1 -2 3 -3h1.5h1t1.5 1h1q2 0 3 -6q1 -4 1 -5v-2q0 -1 -3 -6v-2v-1v-1q-11 -17 -12 -18zM-293 -296v0v0z" />
    <glyph glyph-name="k" unicode="k" horiz-adv-x="426" 
d="M470 -40q-2 -1 -4.5 -1.5t-5 -0.5h-4.5h-2q-1 1 -1.5 1t0 -0.5t0 -0.5h-2.5l-1 1v-1h-3l-1 1q-36 3 -84 27h-2q-2 1 -5 3t-4 3q-1 0 -4 1.5t-4 2.5t-2.5 2t-3 2.5l-2.5 2.5q-12 11 -18 17q-1 1 -3.5 4t-4.5 5q-3 3 -10.5 10t-11.5 12q-14 15 -20 23q-3 5 -17 28l-2.5 2.5
t-2 2.5t-1 3.5t-1.5 2.5q-1 2 -2 3.5t-2 3.5l-1 1q-1 1 -0.5 2t-0.5 1q-1 2 -3 7t-4 7h-1l-1 4q-2 5 -19 41q-1 2 -2.5 6.5t-2.5 5.5q-11 -5 -13 -6t-6.5 -3t-5.5 -2l-1 -2h-2h-2q-9 -4 -22 -8q-1 0 -5.5 -1.5t-6.5 -1.5q-1 0 -6.5 -1.5t-7.5 -1.5q-7 -18 -18 -47
q-1 -3 -3 -8t-3.5 -8.5t-1.5 -5.5v-3q-1 -1 -2 -3t-1 -3q-3 -8 -15 -38q-1 -2 -3 -9t-3.5 -9.5t-3 -8.5t-3 -9.5t-2.5 -5.5v-2l-1 -1h-1v-1q0 -2 -0.5 -2.5t-1.5 -0.5t-1 -1q-1 -1 -2 -2.5t-3 -1.5v-1l-1 -1h-9t-7 1q-1 1 -4 3t-4 5h-1h-1.5t-0.5 2l-1 2q-1 2 -5 7t-6 8.5
t-1 6.5q2 14 10 41q2 8 5.5 16t8 18t6.5 16q2 4 5 12.5t4 12.5q4 10 14 33t13 31q1 1 2 3.5t2 3.5q0 2 1 4.5t1 3.5q7 17 23 54.5t20 46.5q6 13 16 32l9 19q1 1 1.5 4.5t0.5 6.5t1 3q2 9 8 25q2 4 4 5.5t4 6.5v3q1 5 4.5 14t6.5 15l4 8q1 -1 2 -1q-1 6 6 25q11 27 17 54
q1 1 2 5t2 5v4t0.5 4.5t2.5 7t2 6.5q4 14 6 27q0 2 0.5 5.5t0.5 5.5q0 3 -1 7t-1 5q1 9 10 44q6 22 6 23q2 4 3 8q1 2 9 1q1 0 4 5l2 5q4 -1 10.5 -2.5t11.5 -3.5t9 -6q4 -3 5 -12l2 -9v-2q-1 -3 -1 -4h1v-2q-1 -3 -1 -4h1h1l-1 -2v-4q-1 -46 -28 -141v-3q-1 -3 -3 -8.5
t-3 -8.5q0 -2 -1.5 -7t-2.5 -8q-1 -2 -3.5 -8t-3.5 -8q-15 -37 -16 -38q-1 -3 -4 -9l-5 -10q-3 -8 -9.5 -25t-8.5 -24q-17 -42 -19 -48q-5 -11 -13 -28.5t-11 -23.5q-1 -2 -1.5 -5t-1.5 -5q-1 -3 -3 -6t-3 -4q-1 -3 -2.5 -6.5t-2 -6t-1.5 -2.5q0 -2 -1 -3l-2 -2
q-3 -6 -5 -11q14 5 17 6q2 2 6.5 4t5.5 3q3 1 8.5 4t8.5 4q-1 5 0 6v0q-1 1 -1 1.5t1 0.5v1v1l1 1q2 3 3 4q0 1 1 1q9 8 13 7l3 1q3 1 5 1l1 1h1h1q1 -1 2 -1q5 1 10 1q18 11 25 16q6 4 16 9l9 5q1 1 2 2.5t2 3.5l1 1q3 4 10 8q3 2 4.5 2t3.5 1v2q2 1 6.5 4.5t7.5 5.5l4 2
l1 -1q1 4 11 10q13 9 25 21q1 1 3 2t2.5 2t1.5 2l2 2t3.5 2.5t3.5 2.5q7 6 13 13l2 2q1 2 2 3q1 2 2 4.5t2 2.5q4 7 24 20q12 9 14 10l6 2q1 1 6 -4l4 1l4 1q2 -3 5.5 -7t5.5 -8t3 -9q1 -3 -2 -8.5t-3 -6t-1.5 -1.5t-1.5 -2q1 0 1 -0.5t-1 -1.5l-2 -1v-1l-1 -1l-1 -1
q-15 -21 -67 -63v-2q-2 -1 -4.5 -3t-4.5 -3l-3 -3t-3.5 -3t-4.5 -2.5t-4 -2.5q-3 -2 -9.5 -6t-10.5 -7q-1 -1 -4.5 -2.5t-5.5 -2.5l-12 -9t-11 -9q-19 -13 -23 -15q0 -1 -26 -15l-2 -2t-2 -1.5t-2 -0.5q0 -2 1 -4t3 -6.5t3 -5.5q2 -4 5 -11.5t5.5 -13t4.5 -8.5q1 -1 1.5 -2
t0.5 -2t1 -2t2 -1q4 -7 13.5 -25.5t13.5 -25.5q4 -6 8.5 -15.5t5.5 -10.5q0 -1 5 -4h1q4 -3 9 -11q1 -2 1 -3.5t1 -3.5h2q2 -2 5 -6t5 -7l2 -4l-1 -1q3 0 10 -9q9 -11 21 -20q1 0 2.5 -1.5t2.5 -1.5q0 -1 1.5 -1.5t2.5 -1t2.5 -2.5t2.5 -2q6 -5 13 -8q1 0 3 -1t3 -1
q1 -1 3 -1h3q6 -2 15 -6.5t9 -5.5q4 -1 8.5 -2.5t6.5 -2.5l4 -2t1 -4l4 -2h1l2 -1q-1 -2 -2 -5t-2.5 -5t-3.5 -3z" />
    <glyph glyph-name="l" unicode="l" horiz-adv-x="247" 
d="M182 -12q-4 -2 -8.5 -3.5t-8.5 -2t-5 -0.5h-4h-2v-1h-4h-2v-1h-6q-27 0 -55.5 13.5t-44.5 37.5l-2 3q0 2 -2 15q-2 11 -2 13q0 3 2 15q3 22 7 39q1 4 3 10.5t3 9.5q2 5 4.5 16.5t5.5 21t5 17.5q12 38 21 60q2 7 29 70q1 3 2.5 7t2.5 7q1 4 3.5 8.5t3.5 5.5l4 10t3 8t1 4
q1 2 2.5 4t1.5 3q9 20 16 36h-1l5 11q21 46 44 113q11 33 11 34v3q1 3 2.5 5.5t2.5 4.5q2 10 5.5 21t6 19t5.5 18q1 4 3 14.5t3 12.5q1 5 2 12.5t1.5 13t1.5 7.5q1 0 0 2v2v0h1.5t0 2t0 2.5l1.5 1.5l1 1l3 7l1 1v1q1 1 7.5 2.5t7.5 0.5l4 -2q3 -2 5 -5h1h1l1 -3l1 -2
q2 -2 6.5 -8t6.5 -10.5t2 -8.5q-1 -25 -9 -60q-4 -15 -25 -76q-1 -3 -6 -17t-8 -22q-6 -18 -20.5 -53t-17.5 -44q-1 -2 -2.5 -5.5t-2.5 -5.5q-1 -3 -2 -6.5t-2 -4.5q-7 -18 -28.5 -70.5t-28.5 -71.5q-6 -16 -14.5 -36.5t-11.5 -28.5q-1 -1 -1 -5v-7l-1 -4q-1 -8 -6 -27
q-2 -4 -3.5 -6t-2.5 -7l1 -3q-2 -5 -5 -27l-2 -7q-1 1 -2 1q2 -4 1 -20q-1 -17 3 -29v-2.5v-2t0.5 -1l1 -1t0 -2.5t-0.5 -3q0 -6 3 -10q2 -3 3 -4t3 -2h1q19 -11 29 -12q5 -1 10 -1h7.5h5.5h9t4 -2l-1 -1h7t7 1zM192 2v0v0z" />
    <glyph glyph-name="m" unicode="m" horiz-adv-x="712" 
d="M743 57q-9 -7 -19 -13.5t-19.5 -11t-12.5 -6.5q-1 0 -6.5 -2.5t-6.5 -3.5q0 -1 -5.5 -3.5t-6.5 -2.5v-1l-11 -4q-47 -20 -71 -22q-27 -2 -47.5 18t-19.5 48v4q0 4 1 7l2.5 7.5t2.5 6.5q0 1 1.5 8t3.5 11q1 4 5 12.5t4 10.5q17 41 24 56q1 3 5.5 13t6.5 15q15 38 22 71
q7 29 5 53q0 5 1 13t1 12q0 2 -4 5q-5 4 -8 5q-9 1 -18 0q-1 0 -2 0.5t-2 -0.5q-10 -2 -21 -10l-7 -5q-39 -33 -81 -89q-21 -28 -26 -36l-2 -4q-2 -3 -4.5 -6.5t-3.5 -4.5q-8 -11 -48 -70q-3 -4 -11 -16.5t-12 -16.5q-26 -36 -27 -37l-2 -2q-1 -1 -1 -2h-1l-1 -2
q-1 -2 -2 -2q-4 -10 -19 -35q-13 -23 -15 -25q-4 -4 -6 -7q-1 -2 -7 1l-4 -5l-4 -4q-3 3 -7.5 6.5t-7 6.5t-4.5 7t1 13l2 9q0 1 1 3.5t2 2.5h-1v1l1 2q1 3 2 3q0 1 -1 1l1 2q1 3 1 4q8 23 30.5 82t32.5 87v4q0 3 2 9t3 10q1 3 2 8l1.5 7.5t2.5 8.5t2 9q4 17 5 34q1 11 1 12
q-2 11 0 15.5t-2 8.5t-11 3q-17 -2 -55 -25q-3 -1 -4.5 -2t-3 -2.5l-2.5 -2.5q-2 -1 -5 -3t-4 -3q-3 -2 -13 -11q-1 -1 -2.5 -1.5t-2.5 -1.5q-11 -10 -22 -21h1l-7 -6q-32 -34 -63 -81q-16 -23 -18 -27l-1 -3q-1 -2 -3 -4l-3 -3q-4 -7 -13 -23t-15 -26q-2 -4 -6.5 -12.5
t-5.5 -11.5q-2 -3 -5 -10t-5 -11.5t-4 -5.5q0 -1 -0.5 -2.5t-0.5 -2v-0.5l-1 1l-1 -2v-2l-1 -1h-2q0 -1 -1 -2v-1l-2.5 -5t-1.5 -4q-4 -9 -5 -18q0 -1 -0.5 -3t-0.5 -4q0 -1 0.5 -3.5t0.5 -3.5q-1 -9 -8 -18q-3 -4 -5 -4l-1 -1h-1l-7 2q-1 0 -1 1h-1h-1q0 1 -0.5 2t-2 2.5
t-5 3.5t-7.5 3q7 -2 0 -4q-5 -2 -12 1q-1 0 -6 5l1 1v0q-1 0 -1 0.5t-1 1.5v0l1 1q-1 13 19 79l-1 3q1 2 2.5 6t2.5 6q0 2 1 5.5t1.5 6t2.5 6.5l3 6q2 5 5 14t6 15q1 2 3 6.5t3 6.5q2 6 5 16.5t5 15.5q5 13 10 24q10 20 16 33q1 1 1 3t1 4q1 1 2.5 3t1.5 3q1 2 1.5 4t1.5 4
v2q0 1 1 1.5t1 1.5q4 8 7 16h-1l3 5q8 19 13 49q1 2 1.5 5t1 5.5t0.5 3.5l-1 2q0 1 1 2t1 1.5t3 23.5q1 2 1 6v6v5v5.5t1 3.5q1 0 1 1l-1 1h1v1.5v1t0.5 1t1.5 0.5l2 4l1 1v1q1 1 6.5 4t6.5 2h4q4 0 6 -1h1l1 1l2 -1q1 -1 1 -2q2 0 7.5 -2t8.5 -4t4 -4q4 -13 4 -33
q0 -7 -8 -39q0 -2 -1.5 -9t-2.5 -10q-3 -9 -9 -26t-8 -21q0 -1 -0.5 -2.5t-1.5 -2.5v-3l-1 -2q-2 -6 -5 -12q16 17 34 36l4.5 4.5t3.5 2.5q1 2 3.5 4.5l3.5 3.5q24 20 59 40t61 27q21 6 55 4q15 -1 18 -3q17 -10 21 -22q2 -5 1.5 -7.5t0.5 -8.5l1 -2q1 -20 -1 -34l-2 -9
q-1 1 -3 0q3 -8 -4 -29q-6 -17 -11 -34q4 5 22 30q23 31 31 41q40 46 83 76q1 1 9 5q2 1 4 2.5t3 2t2 0.5q22 5 48 6t52 -8t34 -27q4 -10 4 -21.5t-2.5 -19t-7 -20t-6.5 -16.5q0 -2 -1 -7t-2 -9v-5q-4 -15 -13 -37q-3 -7 -5.5 -10t-4.5 -10l-1 -4q-3 -7 -8.5 -21.5
t-9.5 -24.5q-1 -2 -2.5 -4.5t-2.5 -4.5l-1 -2l-2 1q0 -6 -11 -36q-13 -37 -12 -60v-7l1 -1q1 -1 1 -2t-2 -2q-9 -3 -9 -8q0 -3 3 -4.5t8 -0.5q35 5 65 18q15 7 34.5 16.5t20.5 9.5q11 5 22 11q8 2 9 0l2 1q3 1 7.5 3.5t6.5 3.5t6 2.5t7 3.5q2 1 3 2q-3 -6 -8 -12
q-4 -6 -7 -10t-6 -7zM764 86q1 0 1 1q0 -1 -1 -1z" />
    <glyph glyph-name="n" unicode="n" horiz-adv-x="375" 
d="M361 -6q-8 -1 -12.5 -0.5t-10.5 2t-8 1.5q-1 0 -4 1l-3 2h-1v-1q0 1 -3 2t-4 1q-4 1 -7 3q-28 24 -30 71.5t17 89.5l1 4q2 4 5.5 10.5t5.5 9.5t4.5 8.5t4.5 9t6 10t6 9.5q13 22 24 43q8 15 9 18q6 19 3 33l2 2q2 2 2.5 4t-1.5 4q-21 15 -62 15q-2 0 -12 -2q-11 -1 -12 -2
q-8 -2 -17 -7q-1 0 -2.5 -0.5t-2.5 -1.5q-13 -7 -26 -16v-1l-7 -5q-38 -35 -66 -81q-12 -20 -15 -28l-1 -3q-1 -3 -3 -5t-2 -3q-18 -38 -23 -51q-1 -3 -3.5 -12t-3.5 -10q-1 -4 -2.5 -9.5t-2.5 -9t-2 -4.5v-1v-2h-1v-1v-1h-1l-1 -1q-3 -3 -3.5 -3h-1.5v-1q-12 -5 -15 -2
l-3 1q-1 0 -2 1q0 -2 -0.5 -3.5t-2 -3.5t-2.5 -3q-4 -7 -5 -15q0 -1 -0.5 -3t-0.5 -3q-1 -2 -0.5 -4t0.5 -3q-1 -6 -10 -22q-6 -11 -7 -11l-4 -4q0 -1 -7 2l-3 -2l-3 -2q-3 1 -8 3t-9 4t-8 6q-1 1 -2 6.5t-1 6t1 1.5v1v0q-1 0 -1 0.5t0.5 1.5t0.5 1.5v0.5h-1l1 2v1
q3 19 27 75v2q0 1 1.5 4l2.5 5q0 1 1 3.5t1.5 4t2.5 4.5t3 4q2 5 5.5 11t5.5 10q1 1 3 4.5t3 5.5q0 1 11 27q1 5 4.5 14t5.5 14q1 4 5.5 14t6.5 15q0 1 0.5 3t0.5 3l2 4l1 1q1 2 1.5 4t0.5 3v2q0 1 1 1.5t1 1.5q3 7 5 14h-1l2 4q6 15 9 42q0 1 0.5 4t1 5t0.5 3l-1 1
q0 1 0.5 2t0.5 2q1 5 3 21q1 1 1 5v5.5t0.5 5t0.5 5.5t1 3v1.5v1t1 0.5v1v1h1l1 1l3 4v1l1 1q2 1 8 3t7 2t4 -1q4 0 6 -1h1l1 1l2 -1l1 -1q2 -1 7.5 -3t8.5 -3.5t3 -3.5q4 -11 4 -29q0 -4 -6 -35q0 -2 -1 -8t-1 -9q-2 -8 -7 -24q16 16 31 27q0 1 9 6q1 1 4 3.5t5 3.5
q30 14 71 22.5t70 4.5q50 -7 66 -35q1 -2 2 -6.5t1.5 -7.5t0.5 -4q-1 -14 -8 -28q-2 -5 -4 -7t-4 -7l-1 -3q-16 -30 -18 -33q0 -1 -1.5 -3.5t-2.5 -3.5l-2 -1l-1 1q-1 -7 -15 -30q-20 -35 -32 -66q-5 -11 -5 -12q-1 -2 -1 -4.5t-1 -5.5q-1 -2 -2.5 -6.5l-2.5 -7.5
q-3 -14 -1 -25q1 -5 1.5 -7t2 -3.5t2.5 -1.5q1 -3 0.5 -13t0.5 -13q5 -8 19 -18q4 -3 10 -5q3 -2 2 -5l8 -3l9 -3q-3 -2 -7 -4.5t-6.5 -4t-5.5 -1.5z" />
    <glyph glyph-name="o" unicode="o" horiz-adv-x="376" 
d="M375 317h-1l1 -5q1 -4 1 -5t-1 -2.5t-1 -2.5q-3 -15 -3.5 -15.5t-0.5 -2.5v-3q-2 -2 -8 -3.5t-6 0.5l-3 6q-3 4 -5 10h-1q-1 -1 -1 -0.5t-1 4.5t-1 5q-4 5 -11.5 13.5t-9.5 12.5q0 2 -3 8.5t-4 9t-4 7t-5.5 7.5t-6.5 5q-26 14 -72 0q-20 -5 -40 -19q-24 -16 -48.5 -39.5
t-36.5 -41.5q-4 -6 -7 -11q-4 -7 -6 -12q-12 -34 -14.5 -78t5.5 -68q10 -35 39 -51q6 -3 20 -4q26 -2 35 -1q16 2 20 2l4 2q20 6 42 18q11 5 12 6v-1l16 12t16 13q35 31 60 67q6 8 9 14q2 3 3 6t3 6q0 1 4 7.5t5 9.5q9 20 11 36q2 10 2 13t-0.5 5.5t-1 4.5t-0.5 3
q-2 11 -2 24.5t-1 14.5q0 7 -2 13zM381 356q5 0 10 -2t10 -5.5t6 -4.5q1 0 3 -3t3 -3q0 1 1 1q0 -1 2 -3.5t3 -3.5v1q3 -3 5 -7q12 -39 -3.5 -93.5t-50.5 -104.5l-3 -4q-7 -8 -21 -22q-13 -12 -18 -17q-12 -9 -24 -17q-32 -21 -60 -33q-15 -6 -31 -10q-49 -12 -82 -9
q-60 6 -87 33q-26 27 -32 92q-1 12 -1 21q1 6 5 21q6 25 8 30q1 3 2.5 5.5t1.5 3.5q10 22 25 44v1l9 12q65 67 122 96q10 5 41 15l4 1q7 2 12 2q43 6 72 0q22 -5 35 -17q8 -9 17 -26q12 7 16 6z" />
    <glyph glyph-name="p" unicode="p" horiz-adv-x="395" 
d="M90 43q2 0 5.5 -0.5t5.5 -0.5h2q2 -1 3 -1h2h3l3 -1h2q68 -1 119 17l3 1l13 7q3 2 6.5 4.5t4.5 3.5q1 0 6 3t8 5q15 12 31 26q12 11 16 15q23 25 38 50q13 21 21 48q6 21 6 43q0 2 -0.5 4t-0.5 3q0 2 0.5 4t0.5 3l-3 9l1 1v2l-4 13h-1v5q-5 11 -15.5 21.5t-21.5 14.5
q-10 4 -22 5l-2 -1q-2 0 -4 0.5t-3 0.5q-29 -3 -53 -10q-10 -4 -32 -14q-7 -4 -24.5 -14.5t-19.5 -11.5q-1 -1 -4 -3t-3 -3l-1 1l-3 -3q-3 -2 -3.5 -2.5t-2 -1t-2.5 -1t-2 -0.5q0 -3 -1 -7q-1 -8 -14 -53q-1 -3 -3 -10.5t-3 -11.5q-3 -8 -9 -25t-8 -22q0 -1 -0.5 -2.5
t-1.5 -2.5v-3t-1 -3q-3 -10 -12 -38t-12 -41q-4 -11 -8 -23zM-50 -222q-3 2 -2 12l2 9l1 2q1 2 1 3h-1q0 1 1 3l1 2h-1q0 1 1 3l1 2q4 20 33 100l-1 3q1 1 2.5 4.5t1.5 5.5q1 2 1.5 5t1 5t2.5 5.5t3 4.5q2 6 5.5 14.5t4.5 11.5q1 2 3 6.5t3 6.5q2 5 3.5 11.5t4 14.5t3.5 12
t5.5 20t6.5 24q5 17 17 50q0 1 0.5 3.5t0.5 4.5q1 2 2.5 4t1.5 3q1 3 2 5t1 4v2q1 1 1.5 2t1.5 1q4 11 6 17v1h-1l3 4q8 18 17 54q0 2 1.5 6.5l2.5 7.5t1 5l-1 2q1 1 2 3l1 2q2 8 3.5 14.5t3.5 14t4 13.5q0 4 2 13.5t3 12.5q1 5 2.5 14t3 16t3.5 10v3q0 3 1 3h1v0v3.5
t0.5 3.5t1.5 2l1 1q4 10 5 10v3l1 1q2 1 8 2t7 -1q0 -1 3 -4q3 -4 4 -8q0 -1 1 -0.5t1 -0.5l1 -3v-4q2 -4 5 -11t5 -12.5t2 -10.5l-2 -20q11 12 20 17q35 21 67 31q31 10 71 11q18 1 30 -1q35 -7 65 -29q1 0 6 -6l3 -3l3 -3q12 -22 14 -57t-6 -58q-8 -21 -37 -58
q-1 -2 -3.5 -6t-4.5 -7l-2 -3q-10 -14 -23 -27q-5 -4 -7.5 -5.5t-6.5 -6.5l-2 -3q-18 -16 -29 -24q-2 -1 -4 -2.5t-4 -2.5l-1 -1v1q-7 -8 -24 -16q-28 -15 -53 -25q-2 -1 -6 -2t-5 -1.5l-3 -1.5t-5 -1q-3 -1 -13 -3q-25 -5 -27 -5q-3 -1 -6 -1t-5 -1q-2 0 -5.5 -1t-5.5 -1
q-22 -2 -46 2q-19 3 -25 5q-5 2 -7 3l-2 -6q-1 -1 -1 -4v-6v-2q-2 -8 -6 -20q-2 -3 -3.5 -4.5t-2.5 -4.5v-3q-1 -3 -3 -9.5t-4 -12.5l-4 -5l-1 1q1 -5 -5 -18q-8 -17 -14 -36q0 -1 -1 -3.5t-2 -4.5v-2.5t-1 -3t-2.5 -4.5t-2.5 -4q-4 -10 -6 -20q-1 -1 -1.5 -4t-1.5 -4v-6v-4
q-2 -9 -16 -36q-10 -19 -12 -20q-3 -4 -4 -7q-2 -2 -8 0l-4 -4l-4 -5q-2 3 -6.5 6t-7.5 6t-5 6z" />
    <glyph glyph-name="q" unicode="q" horiz-adv-x="354" 
d="M335 326q5 9 14 23h1q-1 1 -16 5q-22 6 -52 -9q-34 -17 -75 -48q-12 -10 -32 -28q-39 -37 -50 -58q-3 -7 -3 -8q-1 -2 -2 -5t-1 -4q-36 -102 -41 -131q0 -1 -4 -5t-5 -6t4 -7q2 -1 17 3q25 6 27 6q5 2 7.5 2.5t7.5 2.5l3 2q13 6 29 17q1 1 3 2t3 2l2 1v-1q2 2 6 5.5
t9 7.5t6 6q24 22 43 49q1 1 4 5t4 6t2.5 4t2.5 5q2 2 5.5 6.5t4.5 7.5q10 15 17 30l6 12q1 4 2 8.5t2 5.5q3 8 26 51q13 24 14 25q3 5 5 8q1 3 4 2zM375 -34q0 -2 -3.5 -6.5t-3.5 -5t-2 -0.5l-1 -1l1 -1h-2l-1 -1v-1h-1l-1 -1q-17 -15 -55 -30v-1q-1 -1 -3 -1.5t-3 -0.5
t-2.5 -1t-2.5 -1h-3t-3 -1q-11 -1 -12 -1.5t-3 -0.5h-3q-3 0 -8 -1.5t-7 -1.5q-12 -2 -15 -2q-3 -1 -9 -1h-7h-2h-1.5h-1.5h-2h-2q-9 -21 -14 -42q-1 -2 -2 -4.5t-1 -4.5v-2.5t-0.5 -3.5t-2 -5l-2.5 -5q-3 -9 -4 -19v-3v-4t0.5 -4t0.5 -3q0 -7 -6 -23q-3 -8 -4 -8
q-2 -2 -3 -2q0 -1 -8 -1l-2 -1l-3 -1h-9t-11 1t-10 3q-1 0 -2.5 2t-3 4.5t-1.5 3.5v1v2h-1l1 1v1.5t-1 0.5t-1 1l1 2q-1 22 21 93v3q1 2 2.5 6t2.5 6q-1 0 -2 0.5t-1.5 0t-27.5 -3.5q-2 0 -8 -1t-8 -1q-3 -1 -8 -2t-9 -1.5t-6 -0.5l-1 -1h-2.5t-0.5 1l-1 -1h-2.5h-1.5l-1 1
q-6 0 -6 0.5t-1 0.5h-1q-2 0 -4 3.5t0 4.5q0 1 1 3q1 3 4 4v1q-1 0 -0.5 0.5t2.5 1.5l1 1q2 1 4.5 5t5 6t5.5 3q11 4 33 8q0 1 34 5q2 1 6.5 1.5t7.5 1.5h3l9 21q1 3 4 9t4 9q3 8 9 25t8 23q15 42 17 45q-1 0 -2 -1q-23 -16 -43 -26q-9 -4 -23 -9q-37 -14 -61 -17
q-70 -9 -79 27q-4 13 -0.5 27.5t12.5 33.5t11 25q1 3 2 6.5t2 6.5q1 4 3 8.5t3 4.5l4 14l3 7q1 2 2.5 3.5t1.5 3.5q8 16 18 33h-1l8 9q47 48 78 73q6 5 19 14.5t14 10.5l3 3q2 1 4 2.5t4 2.5t3 1q40 24 71 36q19 7 36 8q32 3 44 -3l3 -1q3 -1 4 -1v-1l2 -1q5 7 7 7
q1 0 1.5 1t0.5 1.5t0 -0.5h1l1 1v1.5t1 0t2 0.5l4 1h1v1q2 0 6.5 -2.5t4.5 -3.5l2 -3q2 -2 2 -4q1 0 1 -0.5v-1.5v-2q1 -2 3 -5.5t3 -6.5t0 -5q-2 -5 -13 -29q-4 -7 -11.5 -21t-11.5 -22q-2 -4 -5.5 -12.5t-4.5 -11.5l-29 -64q0 -1 -1.5 -3.5t-1.5 -3.5q-1 -2 -1.5 -5
t-1.5 -3q-6 -17 -22.5 -55.5t-21.5 -51.5q-4 -10 -8 -19.5t-9 -19t-7 -14.5q-1 -1 -1.5 -4.5t-0.5 -6.5v-3q-3 -10 -9 -25q-2 -4 -3.5 -5.5t-3.5 -6.5v-3q-1 -2 -7 -18h3q3 1 5.5 0.5l5 -1t4.5 -0.5l2 1l1 1q2 1 6 2q1 0 1.5 -1t1.5 0h1q1 1 3.5 1.5t3.5 0.5h2l1 -2q0 2 6 3
q7 2 15 6q0 1 1 1t1.5 0.5l1 1t1.5 1t2.5 1t2.5 0.5q4 2 8 6q1 0 2 1l2 2t1.5 2.5t1.5 2.5q3 3 19 10q11 5 12 5q3 0 5 1q2 0 5 -5l4 1h3l3 -8q4 -9 5 -14z" />
    <glyph glyph-name="r" unicode="r" horiz-adv-x="349" 
d="M32.5 -4.5q-1.5 0.5 -3 4.5t-2 4t0.5 1v1h-1l1 1v1l-1 1v1v1q0 15 17 67v2q0 1 1 4t2 5q0 1 0.5 4t1.5 4.5t2.5 4.5l2.5 5q2 5 5 12t4 11l3 6l3 6q1 5 2.5 10t3.5 12t3 11q2 4 5 15.5t5 17.5t6 17.5t6 17.5q1 2 1 4t1 4q0 2 1.5 4t1.5 3q1 2 1.5 4.5t0.5 3.5v2q0 1 1 2
l1 1q3 10 5 18h-1l3 5q6 18 11 49q0 2 0.5 5t1 5.5t0.5 3.5l-1 2q0 1 0.5 2t1.5 1q0 7 3 22q1 1 1 4t0.5 4.5t0.5 4t0.5 4t1.5 1.5v2v0h1v1l0.5 0.5t1.5 0.5l2 3q1 0 1 1v0q11 6 14 5l3 1q4 0 5 -1l1 1h1.5t1.5 -1l1 -1q17 -6 18 -8q3 -9 2 -26q0 -1 -6 -34q-1 -2 -2 -8
t-1 -9q-2 -8 -6.5 -24t-5.5 -21q0 -1 -0.5 -3t-1.5 -2v-3.5v-2.5q-1 -2 -1 -4q7 9 10 12q4 5 38 38q1 1 2.5 2t2.5 2l2 2l2 2q29 23 57 36q8 5 27 8q1 1 5 3h1q5 2 11 3q2 0 3 -0.5t3 -0.5l1 1q1 0 6 0.5t9 0.5h4l-1 -2q7 4 15 0q17 -8 28 -21q0 -1 1 -3.5t1.5 -3t1.5 -2
t1 -3.5v-9q1 -7 2 -18v-3.5v-3.5q1 -2 2 -4.5t1 -3.5q-1 -12 -12 -35q-8 -18 -10 -20q-3 -3 -5 -6q-1 -2 -8 0l-4 -4l-1 -1l-3 -3q-3 2 -8 5t-8.5 5.5t-6.5 6.5q-2 3 -2 10.5t-1 7.5q0 1 1 2.5t1 2.5h-1h-1l1 2v2h-1l1 2v2q-1 14 -2 31.5t-1 19.5h-1l1 1q1 0 1 0.5v0.5h1
q2 3 3 4q2 5 -1 8q-1 3 -3 3q-5 1 -14 -2q-5 -2 -17 -8q-12 -7 -21 -15q-2 0 -3 -1.5t-2 -2.5t-2.5 -2t-2.5 -1l-2.5 -2.5l-2.5 -2.5l-1 -1l-2 -2h-1q-6 -5 -12 -11v-1l-4 -3q-17 -16 -37 -43q-11 -16 -12 -16v-2l-2 -2l-2 -2q-5 -7 -11 -16t-9 -14q-2 -2 -5.5 -8t-4.5 -9
q-2 -2 -4.5 -7.5t-5 -9t-3.5 -4.5l-1 -2q0 -1 -1 -1h-1v-1q-1 -2 -1 -2.5t-1 -0.5h-2q-4 -5 -5 -5h-1v-1q-2 0 -9 1q-1 -3 -3 -10q-2 -3 -3 -4t-3 -4l1 -2q-1 -3 -3.5 -9t-3.5 -10l-3 -5l-2 1q2 -5 -4 -16q-7 -16 -11 -31q0 -1 -1 -3t-1 -3v-2.5t-0.5 -2.5t-1.5 -3.5
t-2 -3.5q-2 -6 -3 -13v-2.5v-2.5q0 -2 1 -4v-2q0 -6 -6 -18q-4 -6 -5 -6q-2 -1 -2 -2q-1 -1 -8 0l-2 -1l-2 -1q-25 7 -26.5 7.5z" />
    <glyph glyph-name="s" unicode="s" horiz-adv-x="360" 
d="M51 149q2 -4 2.5 -11.5t0.5 -9.5q1 0 0 -2v-2h1h1v-2.5v-2.5l1 1v-2v-2q12 -22 39.5 -47t63.5 -39h4q15 -2 20 -2q7 0 17 1q14 2 19 4q23 9 35 24q8 10 8 18q-1 14 -9 31q-9 20 -39 50q-8 9 -18.5 18.5t-22.5 20.5t-18 17q-2 3 -5.5 5.5t-6.5 5.5q-2 2 -9 12
q-11 16 -13 21q-1 3 0 9q1 15 20 46h-1l10 12q27 23 59.5 38t55.5 17q9 1 36 -3h4q5 -1 11 -3q37 -15 61 -35q16 -14 24 -30q5 -11 8 -27t2 -21v-3q0 -4 -1 -5h-1v-3q0 -4 -0.5 -4.5l-1.5 -1.5l-2 -2q-5 -10 -5.5 -10t-1.5 -2l-1 -1q-2 -1 -8 -0.5t-6 1.5q0 2 -2 5t-3 7h-1
q-1 0 -1 0.5t-1 3.5v2q-3 4 -10 10.5t-8 10.5q-11 30 -17 39q-20 27 -50 41q-17 7 -32 5q-19 -3 -38 -16.5t-28 -28.5q-2 -4 -4 -10q-4 -8 -4 -11q0 -11 13.5 -33.5t34.5 -42.5q37 -34 60 -62l6 -6t7 -7.5t4 -3.5q15 -25 14 -41q-1 -8 -2 -10.5t-3 -5t-4 -9.5l-2 -5
q-18 -21 -41 -35q-2 -1 -4.5 -2.5t-4.5 -2.5h-2l-1 1q-12 -10 -33 -13q-40 -7 -79 -5q-2 0 -16 3l-12 2q-8 2 -20 6q-23 9 -37 16q-3 1 -14 8q-3 1 -8.5 3.5t-7.5 4.5q-16 14 -25 32.5t-9 30.5q1 25 11 40q1 2 3.5 5t4.5 6t8 0q1 0 2 1l2.5 2.5t2 2.5t2.5 2.5t3 2.5l1 1
q2 -4 6.5 -11t5.5 -12z" />
    <glyph glyph-name="t" unicode="t" horiz-adv-x="311" 
d="M357.5 374.5q-1.5 -1.5 -4 -2.5t-5.5 -2t-4 -1l-2 -1h-2h-2q-1 -1 -2 -1l-2 -1h-2q-22 -5 -88 -13l-2 -1h-5t-5 -1q-1 0 -4 -0.5t-4.5 -0.5h-4.5h-5q-4 0 -10.5 -0.5t-11.5 -0.5h-5h-5q-3 -1 -7 -1q-29 -74 -29 -76q-1 -2 -2 -4.5t-2 -4.5q0 -2 -1 -4.5t-1 -3.5
q-29 -89 -33 -106q-2 -9 -6 -23.5t-5 -20.5q0 -1 0.5 -3t1.5 -4v-3q1 -5 0 -16q0 -3 -1 -4t-1 -4l1 -2q0 -2 0.5 -7t0.5 -7v-2t-1 -1l-2 -1q4 -1 4 -7q-1 -10 1 -16q1 -3 1 -3.5t0.5 -1l1.5 -1.5l3 -4q6 -4 12 -6h7h5q1 1 2 1q36 4 37 4q7 1 15 3.5t10 2.5q5 1 9 2t4 -1v-1
l7 1l6 2q-7 -15 -7 -16q-3 -3 -7.5 -4.5t-8.5 -3t-5 -2.5h-4l-2 -1v-1q-1 0 -3 -0.5t-3 -0.5v-1l-5 -1q-56 -13 -106 1h-2q-4 2 -10.5 7.5t-7.5 7.5q-3 4 -6 11q-5 15 -6 29q0 3 1 9v5q1 31 2 41q4 25 8 44q4 12 17 52q1 2 1.5 5t1.5 6t2.5 6.5t2.5 3.5q1 4 2 7.5t2 6.5l1 3
q0 2 1 3.5t2 2.5q2 4 5.5 13.5t5.5 14.5h-1l4 8q10 22 25 61h-8h-8q-1 0 -2.5 -0.5t-2.5 -0.5h-3l-2 1q-3 0 -6 -1h-2h-1h-1h-12h-4q-4 1 -36 1h-5h-5h-1h-2h-1q-9 1 -19 3q-1 0 -5 0.5t-5 1t-4 1t-5 1t-3 0.5h-1l-1 1h-1h-1v1v1l-3 2h-1v4.5t1 3.5l1 2q1 2 2 2v1h1l1 1l9 7
q3 1 18 0q4 -1 11.5 -2t10.5 -1h6h6q28 -1 29 -1h2h2h2l1 1q7 0 25 0.5t24 0.5h10q2 4 6.5 14.5t4.5 13.5l1 3q1 2 2 4.5t2 3.5q6 15 21 51q2 3 5.5 12t5 13t4.5 11.5l5 12.5t4 7v2l1 2h1v2q1 2 1.5 2.5l1.5 1.5h1l5 6l1 1q0 1 1 1q1 1 6.5 0t6.5 -2q0 -1 2 -3q2 -3 2 -6
q0 -1 1 -0.5t1 0v-2.5l1 -3q0 -3 2.5 -9.5t3 -9t-0.5 -8.5q-4 -16 -17 -51q-4 -12 -13.5 -33.5t-12.5 -29.5q0 -1 -1 -2h7h5v-1q3 2 14 2q16 1 32 3q1 0 3.5 0.5t3.5 0.5t2.5 0.5t3 0.5h4.5h4q9 1 18 3q1 0 3 0.5t4 0.5t4 1t3 1q8 2 32 3q16 1 18 1q3 -1 6 -1q1 0 2 -3l4 -1
h2h2q-1 -2 -1.5 -5t-1.5 -5.5t-2.5 -4z" />
    <glyph glyph-name="u" unicode="u" horiz-adv-x="361" 
d="M394 -32q-4 -1 -6 -0.5t-5 1.5t-4 1h-3l-1 1h-1l-2 1h-1h-1h-2l-1 1q-39 15 -69 57l-1 1l-2.5 5l-2.5 5q0 1 -1.5 3.5t-2.5 4.5q0 1 -1 11q-2 15 -2 24q-1 3 -0.5 7t0.5 6v11q0 -1 -1 -2q-19 -21 -32 -34q-4 -4 -16 -14q-25 -22 -38 -29q-31 -16 -64 -25q-28 -8 -61 -6
q-9 0 -13 1q-5 2 -11 6q-11 9 -14 14q-1 1 -1 3v3q-4 13 -4 30h-1l2 9q16 68 30 108q2 7 7.5 21t6.5 17l1 5q1 3 2.5 6.5t2.5 4.5q7 19 16.5 43t12.5 30q2 6 6.5 20t6.5 18q2 5 5 16t5.5 18.5t3.5 9.5q0 1 0.5 3.5t0.5 3.5h1q1 0 1 3t0.5 3.5t1.5 1t1 1.5q4 8 5 8v2l1 1
q1 1 7.5 1.5t6.5 -0.5q1 -1 3 -4q3 -3 3 -7q0 -1 1 -1h1q1 -1 1 -4v-3q1 -3 3.5 -12.5t3 -12.5t-0.5 -12q-6 -26 -22 -75q-6 -17 -18 -47t-17 -42q-6 -16 -13 -42q-17 -57 -18 -81q-1 -6 -1 -7q1 -1 1 -3l1 -2q0 -2 0.5 -9.5t1.5 -11t5 -6.5t11 -2q24 3 68 25q1 1 5 6l1 1
q1 1 14 13q3 3 4.5 4t4.5 4l1 2q5 5 21 23l2.5 2.5l2.5 2.5l1 2l1 -2q1 5 16 24q22 28 39 59q1 1 4 5.5t4 6.5t2 4.5t3 5.5q1 3 4 7t4 6q1 3 3 8t2 7l3 5q5 11 18 44l1 1q3 10 7.5 21t9 21t5.5 12l4 12t3.5 9.5t2.5 5.5q3 5 5 9q0 2 7 0l3 6l4 5q2 -2 7.5 -4.5t9.5 -5.5
t6 -6.5t0 -23.5q2 -3 1 -5q-1 -5 -4 -12q0 -1 -1 -3t-1 -3q-12 -39 -41 -94q0 -1 -0.5 -2t-1 -2.5t-0.5 -2.5q-1 -1 -1 -2.5v-2.5q-15 -55 -17 -64q-1 -7 -3.5 -17t-3.5 -13q0 -1 0.5 -2.5t1.5 -3.5l1 -2q1 -4 0 -13q0 -2 -1 -3t-1 -3l1 -2q0 -2 0.5 -6.5t0.5 -7.5l-1 -3
l-2 -1q3 -2 4 -10q1 -12 6 -22q0 -1 0.5 -2.5t0.5 -2t1 -1t1 -1.5t0.5 -3t1.5 -3q2 -6 6 -10l1 -1q1 -2 2 -2.5t2.5 -1.5t2.5 -1q4 -3 9 -10t7 -8q3 -3 6.5 -6t4.5 -4l4 -4q2 -1 0 -5l3 -2q1 0 2 -1l1 -2q-1 -1 -3 -3.5t-4 -4.5t-4 -3z" />
    <glyph glyph-name="v" unicode="v" horiz-adv-x="343" 
d="M396 369q-1 -5 -3 -9.5t-5 -9t-4 -6.5l-2 -2l-2 -3v-1h1l-2 -2q-2 -3 -2 -4t-2 -3t-2 -3q-23 -38 -82 -113l-1 -2q-2 -2 -5 -5.5t-4 -6.5q-2 -1 -4 -4.5t-3.5 -5t-5 -5.5t-4.5 -5q-6 -6 -13 -14.5t-10 -11.5q-2 -2 -6 -6.5t-6 -7.5q-3 -4 -30 -39q-6 -7 -17 -22.5
t-17 -23.5q-22 -28 -48 -34q-2 0 -4.5 -1t-5.5 -2q-8 -1 -13 1q-11 5 -16 11q-1 1 -1.5 2.5t-0.5 2.5q-5 11 -9 28h-1v10q-2 83 3 134q0 6 1.5 13.5t2 12.5t0.5 7l-1 3q0 2 0.5 4.5t1.5 3.5q1 22 4 58q1 2 2 14t1 17q6 36 7 38v3q1 2 1 3l1 -1q0 1 0.5 3t0.5 2.5t1 1t1 1.5
l5 7v1l1 1q2 1 7.5 0.5t5.5 -1.5t2 -3q2 -3 3 -6h1q1 0 1 -0.5t1 -2.5v-2q1 -3 4 -8t5 -9t2 -8q0 -7 -1 -57q-1 -21 -6 -71q-4 -33 -4 -41q-5 -68 -1 -103l1 -3v-5q0 -2 1 -5l1 -2q1 -4 1 -7q6 10 13.5 19t15.5 17t11 12q1 2 3 5l4 6l1 2q6 9 16 20q3 4 5 5t5 5l1 2
q2 3 7.5 10t10.5 12q1 2 5 5v1l1 -1q2 5 13 18q16 18 31 37q1 1 3 4t3 4t2 3t2 3.5t4 4.5t4 5q9 10 16 22q1 1 3 4t3 5q2 2 3.5 5.5t1.5 5.5q6 8 33 42q18 23 20 24q4 4 7 8q2 3 6 0l6 5q0 1 2 3l3 2q1 -2 4 -6q2 -5 3 -8.5t1 -6.5zM388 390v1v-1z" />
    <glyph glyph-name="w" unicode="w" horiz-adv-x="561" 
d="M613 424q-1 -3 -5 -6t-4.5 -3.5t-1.5 -0.5l-1 -1v-1h-1q-2 -1 -2 -2l-1 -1l-1 -1q-38 -39 -55 -64l-1 -2q-1 -1 -3 -4t-3 -4q-1 -2 -2 -4.5t-2 -4t-3.5 -4.5t-3.5 -5q-3 -4 -14 -22q-1 -1 -3.5 -5t-3.5 -6q-2 -3 -16 -33q-1 -3 -6.5 -14.5t-8.5 -18.5q-1 -2 -20 -36
q-1 -1 -1.5 -3.5t-1.5 -3.5q-1 -2 -2.5 -4t-2.5 -3q-1 -2 -2.5 -4.5t-2.5 -4.5v-2q-1 -1 -2 -1.5t-1 -1.5q-4 -7 -11 -18h1l-4 -5q-5 -6 -13 -17.5t-14.5 -20t-11.5 -14.5l-7.5 -7.5l-6.5 -6.5l-1 -2q-1 -1 -3 -2l-1 -1q-15 -13 -30 -23q-4 -3 -7 -5q0 -5 -3 -19
q-3 -9 -4 -10l-2 -4q0 -1 -6 0l-2 -2v-1q-1 -1 -1.5 -1t-8.5 1.5t-13 3.5q-2 1 -4 5l-2 3v1v1q-1 0 -1 0.5v1.5v1q-1 -1 -1 0h-2v0q-1 0 -3 2t-1 2l2 2q1 2 3 3q0 1 -1 1q1 0 1 1q-1 8 -2 51l-1 2v3.5v4.5q0 1 -0.5 3t-0.5 3.5t0.5 4t0.5 3.5q0 5 0.5 10.5t0.5 9.5
q0 1 0.5 4.5t0.5 5.5q0 4 -0.5 13.5t-0.5 12.5v26t3 31q0 1 -0.5 3t-0.5 3q1 2 1 4l1 2v4v3v2q0 1 1 2l1 1q0 3 1 9t1 7h-1l2 5q2 9 6 29q-22 -37 -38 -69l-1 -3q-2 -3 -5 -9t-5 -9q-1 -3 -3.5 -8t-3.5 -8q-2 -4 -5.5 -10t-4.5 -8q-17 -29 -25 -42q-2 -4 -4 -7t-4.5 -7
t-4.5 -6q-23 -36 -34 -49q-22 -26 -41 -40q-13 -10 -27 -11t-24 9q-1 2 -1 8q0 2 1 5v3v9v5q0 1 1 2.5t1 2.5q1 10 4 29h-1l2 10q8 42 20 128q5 43 5 44v4q0 4 1 8t1 5q6 60 7 79v36q0 7 -1.5 21.5t-1.5 16.5q1 1 0 3l-1 2h1q0 1 -0.5 2.5t-0.5 2t1 1.5v1v7v1v1q0 2 3.5 5
t4.5 2q1 0 4 -1t5 -3q0 -1 1 0h1l1 -2l3 -3l5 -5l6.5 -6.5t4.5 -6t3 -7.5q6 -30 5 -73q0 -25 -10 -101q-5 -47 -6 -50q-2 -18 -8.5 -57.5t-7.5 -51.5q-1 -2 -1.5 -5.5t-0.5 -4.5v-6v-4q-1 -9 -4 -18q10 8 14 13q1 1 2 3t2.5 4t2.5 4v2q2 2 15 23q3 4 5 6t4 7l1 3q3 4 18 31
q1 2 2.5 4t2 3t0.5 2l1 -1q2 7 14 28q14 27 31 61q1 2 3.5 6t3.5 6t2 4.5t2.5 5.5t5 8t4.5 7q6 10 17 29q2 3 4 6.5t3 5.5q2 3 4 7t3 5q16 23 37 41l15 12q4 7 5 8l1 1l1 2h1l0.5 1t0.5 1.5t1 0.5h1q4 4 4.5 4t0.5 1h1q1 0 5 -1t4 -2t1 -3v-1l4 2v-7t-1 -7q3 -10 2 -13
q-1 -5 -4 -14.5t-5 -13.5q-1 -5 -5 -16t-5 -17q0 -1 -3 -16q-6 -33 -7 -40v-3v-1q-1 -1 -0.5 -2.5t0.5 -2.5q-1 -7 -2.5 -28t-1.5 -30q0 -5 -1 -10t-1.5 -10t-0.5 -8q-1 -1 1 -6l1 -1q1 -5 0 -13q0 -2 -0.5 -3t-0.5 -4v-1v-7v-8l-1 -4h-2q3 -3 2 -13q-1 -13 0 -26v-3v-2.5
v-1.5v-1q15 14 23 24q4 4 12 16q20 29 27 43l1 2q1 2 2 2q1 2 1.5 3.5t0.5 2.5q5 10 18.5 35.5t18.5 35.5q2 4 20 35q1 1 1.5 3t0.5 4l1 3q2 7 8 16q2 3 3.5 4t3.5 4v3q1 1 4.5 7.5t7.5 11.5l4 4l1 -1q0 6 9 16l24 32q1 1 2.5 3t2.5 3t1.5 2t2 2.5l4 4t3.5 2.5q5 5 13 14
q2 1 3.5 2.5l2.5 2.5q1 2 2.5 4t2.5 2q10 9 28 17q12 6 15.5 7t5.5 1q2 1 3 -2l4 1h2h2v-6.5t-1 -5.5z" />
    <glyph glyph-name="x" unicode="x" horiz-adv-x="538" 
d="M578 437q-2 -2 -8 -1h-7h-2.5h-2.5v-1l-2 1h-2v-1h-2h-2q-51 -13 -104 -54l-2 -2q-2 -1 -6 -5t-7 -6l-5.5 -5.5t-5 -5.5t-6.5 -6t-7 -6q-12 -11 -32 -31q0 -1 -6.5 -7.5l-9.5 -9.5q-8 -9 -39 -47q-5 -6 -18.5 -23t-20.5 -25q-11 -13 -28 -32l2 -2t1 -2q3 -4 5 -13
q0 -3 -0.5 -4.5t0.5 -4.5l1 -1q1 -3 3 -8t3 -8v-5l-2 -1q4 -1 7 -12q5 -15 14 -28q1 -1 2 -3t1 -3q1 -1 2 -1.5t2 -2t2 -4t2 -3.5q4 -8 11 -14l2 -2q2 -1 3 -2q2 -2 4 -3t3 -1q6 -5 15 -14l8 -10q4 -3 9 -7.5t6 -6.5l6 -4q1 -2 -1 -5q0 -1 4 -4l1 -1q1 -2 2 -2
q-2 -2 -5 -4.5t-5 -4t-5 -1.5q-3 -1 -6.5 0t-7 2.5t-4.5 1.5q0 1 -2 2l-2 1v-1h-1l-1 2q-2 1 -3 1v-1q-1 0 -3 2l-1 1q-41 21 -81 68l-2 1q-1 2 -3 5t-3 5q-1 1 -3 3.5t-3 4.5l-4 10q-7 16 -10 25q-1 2 -2 6t-2 6v1q-2 -3 -4.5 -5.5t-2.5 -3.5q-1 -1 -2.5 -2t-2.5 -2
q-11 -11 -23 -22v-1h1l-7 -6q-51 -42 -72 -55q-3 -1 -8 -3.5t-9.5 -4.5t-5.5 -2l-2 -2l-7 -1q-23 -7 -42 -8q-13 0 -22 1q-23 5 -28 10q-1 0 -2.5 1t-2.5 1l1 1q-1 0 -2.5 1t-2 1t-1 1t-0.5 2q-4 5 -4 5.5t-1 1.5l-1 1q0 1 1.5 3.5l3 5t2.5 2t3 0.5q4 1 6 0q0 -1 0.5 0t1 1
t1.5 -1h2q4 -1 7 -0.5t6.5 0t5.5 -1.5q17 -10 28 -10q17 1 39 12q7 4 19 14q31 24 52 47l3 3l3 3q1 2 3 4t2 3q38 43 47 54q-2 7 -3 13t-3.5 18t-3.5 16q0 1 -1 3t-1 3v4v3q-1 2 -1.5 4t-1.5 4v1q-1 1 -0.5 2t0.5 2q-2 9 -4 16h-1v5q-4 20 -17 49q0 1 -1.5 4.5t-2.5 6
t-2 3.5l-1 1q-1 1 -1 3t-1 2q-19 34 -24 46q-2 6 -5 4q-1 0 -3 -1.5t-4 -2.5t-3 -1h-1q-1 -1 -2 -1v1h-1q-1 -1 -1.5 -0.5l-0.5 0.5h-1h-5h-1q-1 0 -1 1q-1 0 1.5 3.5t3.5 3.5l1 2v1v1q-3 8 0 10q22 10 39 6q27 -7 56 -57q9 -14 11 -19q3 -7 6.5 -16t7 -18.5t4.5 -12.5
q0 -1 0.5 -2.5t0.5 -2.5q1 -1 1.5 -2.5t1.5 -2.5q4 -15 12 -48l37 41q1 1 3.5 4.5t4.5 6.5l2 3q8 11 20 24q4 4 6.5 5.5t6.5 6.5l2 3q24 25 26 27q2 1 3.5 2.5l2.5 2.5l2 1l1 -1q4 8 21 21q32 26 49 39q2 2 5.5 4t4.5 3t3 2.5t4.5 2.5t13.5 7q4 2 9.5 4.5t9.5 4.5l6 3
t5.5 2.5t4.5 2.5q2 0 5 2t5 2q21 7 44 7q17 1 23 -1q6 -1 8 -1q2 -1 1 -5l3 -1q1 0 1.5 -0.5t2.5 -1.5l2 -1q-1 -1 -5 -6t-7 -6zM371 -12v0v0z" />
    <glyph glyph-name="y" unicode="y" horiz-adv-x="442" 
d="M11 -143q4 0 11 -4l6 -4q1 0 2.5 -1.5t2.5 -1.5v0l2 -1l2 -1h1l2 -1q2 -1 2 -2q25 -8 63.5 -8t67.5 12l2 2q8 7 10 9q1 2 3.5 5t3.5 4t4 4.5t5 5.5q9 13 20 31q9 15 11 17q9 18 23 55q3 8 22 60q-59 -37 -129 -40h-3q-5 1 -15.5 3t-13.5 3q-8 3 -15 8q-19 12 -29 28
q-5 7 -8 20q-7 23 -6 44q2 29 9 56q4 17 25 70q2 4 3 8t2 7q1 4 3 8t2 6q1 2 6 19q0 2 1 3.5t1 2.5q5 14 7 27h-1l3 7q1 8 1.5 17t0.5 13t2 5t3 4t0 4h-1q0 1 -1 2q0 1 -1 1q-14 0 -33 -7q-6 -2 -28 -13q-6 -3 -24 -13.5t-21 -11.5q-1 -1 -4.5 -3t-3.5 -3l-1 1l-4 -2
q-3 -3 -4 -3.5t-2 -0.5l-2 -1l-14 -7q-1 -1 -3 -2l-2 -1q-4 0 -7 4q1 1 4 5t8 8q-1 0 -1 1q1 0 4.5 3t4.5 4q3 3 10 9.5t12 11.5t11 8q35 21 61 30q22 7 52 8q21 1 28 -7q17 -20 10 -67q0 -2 -1 -4.5t-1 -3.5q-1 -2 -1 -5t-1 -4q-4 -17 -22 -66.5t-22 -67.5q-9 -35 -11 -54
q0 -1 0.5 -3.5t1.5 -4.5l1 -3q1 -5 2 -15q0 -2 -1 -3t-1 -3l1 -1q0 -1 3 -14l1 -5l-2 -1q2 -1 4.5 -6t2.5 -6q11 -15 30 -21q4 -1 8 -1q2 -1 3.5 -1h3.5h11q13 2 24 6l10 5q2 1 9 6q34 26 38 30q6 6 12 12.5t8 8.5l7 7q2 3 5 0l6 16q1 3 2 7.5t2 7.5q1 4 3 8.5t2 5.5
q2 5 3.5 10t2.5 8l1 4l2 4t1 3q3 7 7 19t6 17h-1l5 11q5 12 13.5 34.5t15.5 39t11 26.5q3 5 9 14.5t6 10.5l1 3q1 2 3 4l2 2q18 20 35 30q9 5 19 6q20 4 25 2h2h2v-1l2 -1h2h1v-1q5 -4 5 -4.5t1 -0.5l1 -1q0 -1 -1.5 -5t-2.5 -4t-3 -1t-4 0v-1q0 -1 -0.5 -1t-1.5 0.5t-2 0.5
q-2 0 -5.5 -1t-4.5 -1q-9 -1 -16 -13q-17 -31 -20 -38q-3 -5 -11 -26q-22 -56 -30 -82q-1 -1 -2 -4.5t-2 -5.5q0 -2 -1 -5.5t-1 -4.5q-20 -66 -49 -147q-8 -22 -31 -71q0 -2 -1.5 -6.5t-2.5 -8.5l-1 -3q-5 -15 -14 -30q-3 -5 -5 -7t-5 -7l-1 -4q-13 -20 -21 -30
q-1 -1 -2.5 -3t-2.5 -3l-1 -1l-2 1q-3 -10 -17 -21q-24 -19 -50 -31q-1 0 -13 -4l-9 -4q-6 -1 -16 -3q-20 -3 -32 -5h-13q-3 -1 -7.5 -1.5t-6.5 -0.5q-31 2 -56 11q-20 8 -27 14q-1 1 -3 2.5t-5 4.5q-2 1 2 6l-2 3q-2 1 -2 2q-1 1 -2 3l-1 3q2 0 10 4.5t13 4.5z" />
    <glyph glyph-name="z" unicode="z" horiz-adv-x="386" 
d="M24 25q-1 1 -1.5 3.5t0 5t0.5 4.5l1 1v2v1q-1 0 0 1l1 1q-1 0 -1 0.5t1 1.5l1 1q12 24 56 67l1 2q1 1 4 3.5t5 3.5q1 1 3 3.5t3.5 4t5 3.5t4.5 3q3 3 10 8.5t12 8.5q2 1 6 4t6 4q5 4 15 13t13 11q2 2 12.5 11t16.5 13q5 5 16 13.5t17 12.5l3.5 3.5l2.5 2.5q2 1 4 2.5
t3 2.5q2 2 4 3.5t3 3.5l2 1q1 1 2 1.5t2 0.5q8 7 15 14l5 4q20 17 45 44l12 14l1 2q0 1 1.5 2t2.5 2q4 6 9 12h-3h-3q-2 0 -20 -2q-2 0 -5.5 -0.5t-5.5 -0.5q-5 -1 -15.5 -3t-11.5 -2l-29 -6q-2 -1 -33 -5q-2 0 -3.5 -0.5t-3 -0.5h-4.5h-2q-3 0 -5 -0.5t-3 -0.5l-2 -1h-2h-2
q-4 0 -16 -1v-1l-5 1q-9 0 -27 -0.5t-23 -0.5q-2 0 -7.5 0.5t-7.5 0.5l-1 -1q-1 0 -3 1h-1q-14 2 -27 6q-12 4 -14 5q-15 9 -15 11h-1q-2 1 -2 2l1 1l-1 1q-1 0 -1.5 0.5t-0.5 1.5l1 1q0 5 0.5 5.5t0.5 1.5v1q1 2 7 7.5t8 5.5l4 2q4 2 5 2l1 1q1 1 1.5 1h1.5h1q2 2 6 4
t6 3.5t3 0.5t3.5 -5t4.5 -6q10 -9 21 -12q3 -1 13 -2q23 -2 37 -1h1h3t2.5 0.5t2.5 0.5q57 7 62 8q1 0 33 3q1 0 2.5 1t2.5 2l2 1q6 1 14 2q3 1 4.5 0.5t3.5 -0.5l2 1q2 0 7 1t9 2l5 -1v-1q3 3 13 3q14 1 27 3h2.5h2.5t2 0.5t2 0.5h3h2q2 2 3 2v1l1 2h1q1 0 1 1t0.5 1.5
t1.5 0.5h1l5 3h1l1 1q2 0 8 -2t6.5 -3t1.5 -2q2 0 11 -2q11 -2 13 -4t3.5 -2.5t-3.5 -5.5q-1 -1 -1 -2q-1 0 0 -2v-1q1 -3 0 -3q-7 -6 -12 -10v-2q-7 -12 -22 -31q-3 -3 -32 -33q-2 -2 -7 -7.5t-9 -8.5q-7 -7 -22.5 -20.5t-19.5 -17.5l-2 -2q-2 -1 -2 -2q-2 -1 -3 -2.5
t-2 -1.5q-8 -7 -66 -54l-34 -24q-1 -1 -2.5 -3t-3 -3.5t-1.5 -2.5q-4 -4 -14 -12q-2 -2 -4 -2t-4 -3l-1 -2q-3 -2 -8 -6.5t-9 -6.5l-5 -4l-1 2q-1 -4 -12 -13q-14 -12 -25 -25q-1 0 -3 -3q3 1 9 1.5t8 1.5l15 2l36 1h2h2h2h2q19 -2 46 -10q3 0 19 -9q1 0 3 1h3l9 -3
q1 -1 1.5 -2t2.5 -2l1 1q1 -1 4.5 -2t5.5 -2q1 0 2 -1v-2q2 2 9 0q10 -3 20 -2l2 1h2.5t1 0.5t1.5 0.5h3t3 1q6 1 11 4l5 3q1 0 2 2t2 2l22 11l13 7l6 2q1 0 5 -5l4 1l4 1q1 -3 3 -7.5t3 -8t1 -7.5q0 -2 -1.5 -4.5t-4 -5l-3.5 -3.5h-1q-2 -1 -2 -2v0q0 -1 -1.5 -1.5t-2 -0.5
t0.5 -1l-1 -1q-2 0 -2 -1q-27 -17 -75 -26l-1 -1h-4.5h-3.5t-3.5 -0.5t-4 -0.5h-4h-3.5q-12 1 -18 2q-1 0 -4 1t-4 1q-3 0 -10.5 1t-11.5 2q-15 2 -20 4q-3 1 -6.5 2t-7.5 3l-6 3h-2t-2 0.5t-2 1.5t-2 1q-2 1 -5 1h-1h-1v2q-5 2 -10 3v-1l-2 2q-14 5 -32 5q-9 -1 -11 -1
l-1 -1h-2h-2q-16 -4 -23 -6q-2 -1 -6.5 -3t-6.5 -3q-2 0 -7 -3t-7 -3q-1 -2 -2 -3q-6 -8 -7 -9q-2 -1 -3 -2q0 -1 -7 2l-3 -1l-3 -1q-3 1 -8.5 4t-9.5 5.5t-7 6.5z" />
    <glyph glyph-name="braceleft" unicode="{" horiz-adv-x="394" 
d="M291 -160q-5 -2 -11 -3.5t-11.5 -2t-7.5 -1.5h-3h-5v-1h-3h-5v-1h-7q-77 -3 -131 30l-2 1l-9 12q-6 7 -7 10q-2 5 -4 14q-4 17 -4 33l2 17q3 33 6 45q5 26 11 46q3 8 18 49q1 2 1.5 5t1.5 5q0 2 2 5t2 4l2 6t1.5 5.5t1.5 2.5q0 2 1 3t1 2q5 12 8 22l3 6q12 31 14 55
q1 8 0 10l-1 1v0l1 1q-1 11 -5 22q-2 7 -8 14q-1 1 -21 15q-8 -1 -11 0h-6q-2 0 -2 3q1 1 -2 1q-1 0 -1.5 0.5t-1.5 0.5l-1 1q1 1 2 5q-2 5 1 5l3 1h1q2 1 6.5 1.5t5.5 0.5h1h2v1h2h2v1h2h1q51 20 81 54l1 2q4 9 4 10v3v1q1 1 2 3l1.5 3t7.5 20q1 1 2.5 5t2.5 7
q2 5 3.5 11.5t3.5 14.5t4 13q11 43 12 44q2 9 17 52q1 3 1.5 6t1.5 5q1 3 2.5 6t2.5 4q1 4 2 7t1.5 5.5t1.5 3.5q0 1 1 2.5t2 2.5q4 11 10 24l-1 1l4 6q28 51 39 64q1 2 15 13l2 2q1 1 5 2q16 7 31 8q12 1 18 0q7 -2 18 -8.5t14 -10.5l2 -3q3 -2 3 -3l-1 -1q3 -9 2 -11
q-2 -3 -6 -5q-10 -3 -13 -2h-2h-2q-3 1 -3 5q2 0 3 1q2 3 1 4q0 1 -0.5 1.5t-3.5 0.5t-3 -1q-7 -8 -11 -4q-2 3 -5 6.5t-4.5 5t-3 2.5t-3.5 1q-7 0 -16 -14q-2 -3 -8 -15q-16 -32 -23 -50q0 -1 -1 -3t-1 -3q-1 -2 -1 -5l-1 -2q-31 -92 -33 -100q-2 -6 -18 -50v-4v-6l-1 -2
q-1 -9 -5 -21q-2 -3 -3.5 -4.5t-2.5 -5.5v-2q0 -1 -2.5 -8.5t-5.5 -12.5l-3 -4h-1q1 -6 -6 -14q-11 -14 -27 -30q-1 -1 -4 -3t-3.5 -3t-2 -2t-3.5 -3q-2 -1 -11 -6q-4 -2 -11.5 -6.5t-9.5 -5.5l-5 -2.5t-4 -2.5q-2 -1 -4.5 -2.5t-3.5 -1.5q11 -6 19 -14q21 -21 20 -52
q-1 -9 -4 -19q-2 -10 -9 -29.5t-8 -22.5q0 -1 -1 -3.5t-1 -3.5q-1 -1 -1 -3.5t-1 -3.5q-2 -5 -15 -41.5t-17 -51.5q-2 -9 -7 -24t-7 -22v-4t1 -5v-3q0 -5 -2 -19q0 -4 -1 -5.5t-2 -4.5l1 -2q0 -4 1 -20l-1 -5h-2q3 -2 4 -13q2 -14 8 -25l2 -5q1 0 1.5 -1t1.5 -2l5 -7
q7 -6 15 -10l9 -3q1 0 9 -2q37 -5 50 -5q10 0 22 1h12q6 1 13 1q4 -1 4 -2l9 1l9 1z" />
    <glyph glyph-name="bar" unicode="|" horiz-adv-x="77" 
d="M90 -27q-2 0 -4 5l-3 5v1v2h-1v2v2h-1q-1 0 -1 2v1q-5 24 -8 117v3q-1 3 -0.5 8.5t0.5 8.5q-1 3 -1 8v8v9t1 9v23.5t1 21.5q0 4 0.5 11.5t0.5 11.5q0 12 -1 34.5t-1 27.5q0 3 -0.5 27t-0.5 36q0 13 0.5 36.5t0.5 32.5q0 4 -0.5 7.5t-0.5 6.5q0 4 0.5 8.5t0.5 5.5v9
t-0.5 7t-0.5 4q0 2 0.5 4t0.5 3v33h-1l1 10q1 27 -1 96v15v11l-1 3q0 2 0.5 4t0.5 3q0 17 1 43v9.5v8.5q1 3 1 8v8t1 5v1v1h1l-1 1q0 1 1 2l1 1l3 4h1v1q1 1 6 2t6 0l3 -1q3 0 4 -2h1q1 1 1 0.5t1 -1.5l1 -1q1 -1 5.5 -3.5t6.5 -4.5t2 -4q2 -10 4 -36v-26v-28q0 -5 0.5 -15
t0.5 -15v-40.5t1 -40.5q0 -2 -0.5 -5t0.5 -5v-5.5v-4.5q1 -17 1 -44.5v-49v-42.5q0 -4 -2 -70q0 -2 0.5 -6t1.5 -7v-4q1 -12 1 -31q0 -6 -1 -8.5t-1 -8.5l1 -4v-16v-20q0 -3 -1 -10l-2 1q3 -7 2 -29q-2 -31 0 -60v-5v-6q0 -1 0.5 -3t0.5 -4.5t-0.5 -7t-0.5 -6.5q0 -13 2 -25
v-4t1 -5q0 -2 1.5 -5t1.5 -4q1 -10 -1 -33q-1 -13 -2 -14q-1 -3 -1 -4q-1 -1 -7 -2l-2 -2l-1 -3q-5 0 -8.5 -0.5t-8 0t-8.5 2.5z" />
    <glyph glyph-name="braceright" unicode="}" horiz-adv-x="306" 
d="M280 253v-1h-1h1l-1 -1h1v1v1zM-4 -184q4 1 14.5 3.5t14.5 4.5l4 2q4 1 5 1v1l4 2q3 1 4 1v1l4 1q3 1 4 2q37 22 65 60.5t39 82.5v4q1 4 2.5 11.5t1.5 12.5q1 3 1.5 9.5t1.5 10.5q1 6 5 25q9 37 17 60t13.5 30t26.5 29t27 35q3 5 2 12q-12 -2 -13 -2q-1 1 -3 4v2v2v1
q-1 0 -1 0.5t-1 1.5v1h-1q-1 0 -2.5 1.5t-1.5 2.5v4q0 -1 -3 0l-2 3h1q1 1 1 2h-1v2v2t1 1h2q-3 0 -1 2t1 4l1 1h-1v1h1q1 1 0 2h-1l-1 1h-1q-1 1 2 2t3.5 1h1.5q-1 1 -7.5 11t-9 14t-7 12.5t-7 16t-4.5 15.5q-2 9 1 25q1 2 7 18q2 7 4.5 14t3.5 8l2 4t2 3q7 16 18 39l7 12
q41 77 60 130q7 21 9 36v3q0 3 1 5.5t1 3.5q0 30 -5 45q-3 12 -15 21t-51 18l-3 1h-4.5h-3.5v1h-6h-6t-2.5 0.5t-3.5 0.5h-9.5h-6t-3.5 1h-4h-3q-4 2 -6 4q3 0 8 2q6 1 15 2q1 0 3.5 0.5t6 0.5h4.5q43 3 52 1q57 -10 74 -34q21 -29 7 -90q-5 -20 -16 -45q-7 -17 -17.5 -38.5
t-22 -43.5t-15.5 -31q-1 -1 -3 -5t-3 -7t-5 -12q-14 -35 -17 -70.5t9 -58.5l9 -15t8 -14.5t7 -15.5t4 -14t1.5 -16t-2.5 -16q-1 -5 -15 -20q-7 -8 -17.5 -18.5t-13.5 -14.5q-10 -12 -12 -15v-3q-1 -5 -11 -40q0 -2 -1 -4.5t-1 -4.5l-1 -2h-2q0 -6 -5 -36q-4 -18 -8.5 -44.5
t-7.5 -37.5q0 -3 -2 -9l-2 -7q0 -1 -1 -5l-2 -8q-4 -8 -9 -19q-13 -23 -24 -36q-4 -5 -12 -12l-13 -13q-28 -18 -72 -35q-29 -10 -42 -13q-5 -1 -14 -1q-4 1 -4 2h-1h-4.5t-3.5 0.5t-4.5 1.5t-4.5 1l9 4.5t8 3.5z" />
    <glyph glyph-name="asciitilde" unicode="~" horiz-adv-x="501" 
d="M546 284q2 -2 3.5 -5t2.5 -7.5t2 -5.5l-1 -2l-1 -2q0 -1 1 -1h1l-1 -2l-1 -2l1 -1h1l-1 -2l-1 -2q-5 -23 -25 -48.5t-47 -44.5l-2 -2q-2 -2 -14 -7q-10 -4 -12 -5q-4 -1 -14 -3q-18 -3 -31 -4q-3 0 -15 1q-27 1 -39 4q-21 5 -37 12q-9 5 -36 22q-2 1 -4 1.5t-4 1.5t-4 3
t-2 3q-2 1 -4.5 2.5t-3.5 1.5l-2 1l-2 2l-1 1q-9 6 -16 11v-1l-4 4q-25 17 -48 20q-9 2 -15 0l-2 -1h-2.5h-2.5q-16 -7 -30 -17q-7 -5 -12 -13q-1 -2 -2 -5t-1.5 -5.5t-1.5 -2.5l1 -1v-1h-1h-1l1 -1v-1h-2h-1q-2 -1 -2.5 -2t-2.5 -2h-2v-1q-3 -1 -11.5 -1t-10.5 1q-1 1 -5 3
q-5 3 -6 6h-1q-2 0 -2 1q-1 0 -1.5 2.5t-0.5 3.5q-9 24 -3 30q16 15 45 28q19 10 56 16q17 3 25 3q24 1 60 -8q1 0 3 -1t3 -1q2 0 4 -0.5t3 -0.5q29 -12 74 -40q6 -4 11 -8t10 -8.5t8 -6.5h2q2 -1 4 -1h2q3 -1 12 -7q2 -1 3 -2.5t3 -2.5l2 1q6 -3 15 -4l4 -1v-1q2 1 7 2.5
t6 1.5q14 7 26 22l2 2l2 2t1.5 2t1 2.5l1 3t2 3t2.5 3.5q4 7 5 15l1 7q-1 2 -2 4.5t-1 3.5q0 6 7 24q5 11 6 12q3 2 4 3q0 2 12 0l3 3l4 3q5 -2 13.5 -3t15 -3t13.5 -5z" />
    <glyph glyph-name="exclamdown" unicode="&#xa1;" horiz-adv-x="198" 
d="M192 378q1 -1 2 -1l-1 1l-1 1v-1zM31 -188q-1 1 0 4t1 4l1 1l-1 1v0v0l1 1v1l1 1q2 6 6 15t10 21t9 20v1q1 2 2 4.5t2 4.5q1 1 1.5 3.5t1 4t2.5 4t2.5 4t9.5 21.5l3 6t2 6q2 3 10 31q2 5 5 16l4.5 16.5t5.5 17.5t6 19q0 1 0.5 3.5t0.5 3.5l2 4t1 3q1 3 1.5 5t0.5 4l1 2
q0 1 0.5 2t1.5 1q2 10 5 18h-1v1l2 5q6 16 13 54q1 2 2.5 8t1.5 8l-1 2q1 1 1.5 2t0.5 2q3 10 8 27q0 1 1.5 5.5t2 6.5t1.5 5.5t2 6t2 3.5v1v1h1v1v1h1q1 0 1 1q3 2 3.5 2t1.5 1v0h6.5t5.5 -1q1 0 3 -1q3 -1 4 -3h1h1l1 -1v-2q2 -1 5 -3.5t5 -5t2 -3.5q0 -7 -3 -26
q-1 -7 -4.5 -18.5t-4.5 -16.5q-1 -3 -2 -9t-2 -9q-2 -7 -6.5 -24t-5.5 -23q0 -1 -0.5 -3t-1.5 -3v-3v-2q-5 -21 -22 -75q-2 -5 -15 -36q0 -1 -0.5 -3t-0.5 -5v-2q-1 -6 -5 -16q-1 -3 -2.5 -4t-2.5 -4v-2q-1 -2 -3.5 -8t-4.5 -11l-3 -4l-2 1q1 -5 -5 -16q-8 -14 -15 -30
q0 -1 -1.5 -2.5t-1.5 -2.5t-0.5 -2t-1 -2.5t-2.5 -3.5t-2 -3q-4 -6 -8 -13q0 -1 -1 -2.5t-1 -2.5q-1 -1 -2 -3v-2q-5 -8 -16 -16q-8 -5 -10 -5.5t-4 -0.5q-1 -1 -3 2h-3h-2q-1 1 -3.5 5.5t-3.5 7.5zM248 468l1 -2q1 -2 1 -3v-1v-1q0 -5 -9 -18l1 -1q-1 0 -1.5 -0.5t-0.5 -1
v-1.5t-0.5 -1t-1 -0.5t-1.5 -0.5q-1 -1 -2 -2.5t-2 -1.5q0 -1 -1 -1l-1 -1q-1 -1 -2 -4t-1.5 -3.5t-1.5 -3t-2 -3.5t-2.5 -3t-2.5 -3v-1v-0.5t-1 -0.5t-1 -1v-1v-1h-1h-1q-1 -2 -2 -3l-1 -1l-1 -1q1 -1 2 -1q4 -3 5 -4t1.5 -3t0.5 -2.5t1 -0.5q0 -1 -1 -2v0q1 0 2 -1h-1v-1
v-2h1v-1q-1 -1 2 -7v-1v-1q0 -2 -2 -4v0q0 -1 -1 -2l-3 -2v0h-1v-1h-1h-1q-2 -1 -3 -1v0l-1 -1q-12 -4 -12 -3l-3 -1q-3 -1 -4 -1h-1q-1 0 -1.5 -0.5t-1.5 -0.5v0l-14 -2q-2 1 -3 4l1 1v3v1q-1 0 -2 1v2q0 2 -1 2v1h-1q-1 1 -1 3q-1 0 -1 0.5t1 0.5h1h1l1 1v-1h1h2t2 1l1 1
q-1 -2 2 0l8 4q0 1 1 1h1v1h-1l-2 2q-6 4 -7 5l-2 1q-1 1 -1 2l-1 1l-1 1l-7 8q1 2 3 5q0 1 2 3t3 2q0 1 0.5 2t0.5 2q1 1 3 3.5t2 4.5h1v1v1q1 2 4.5 7.5t4 5.5t6.5 6v1q-1 1 -1 2t2 3h1.5t1.5 1h-1q1 1 1.5 2t1.5 2l1 1l2 -1q-2 2 1 4t5 6h1v1.5v0.5v1l1 1h1q1 1 2 3v1.5
v1v1.5v1q0 2 5 4q3 1 4 1t1.5 0.5t4.5 -2.5l2 -1h1q12 -10 14 -12z" />
    <glyph glyph-name="cent" unicode="&#xa2;" horiz-adv-x="352" 
d="M124 60q3 8 4 11q3 10 8.5 29t6.5 24q15 52 16 55q4 12 11 33.5t9 25.5q1 3 1.5 6t1.5 6t2.5 6.5t2.5 4.5q1 4 2 7.5t1.5 6.5t1.5 3q0 2 1 3t1 2q8 22 10 28h-1l4 8q7 18 19 51q-25 3 -48 0q-15 -2 -28 -10q-31 -18 -50 -45q-3 -4 -4.5 -6.5t-3.5 -7.5q-23 -55 -24 -95
q-1 -30 1 -48q0 -1 1 -3.5t2 -4.5l2 -3l6 -18q1 -4 0.5 -6t1.5 -5l1 -2q3 -7 11 -21l2 -5l-1 -2q3 -1 8 -7t5 -7q8 -8 16 -14zM75 -147q-1 1 -2.5 5t-1.5 4.5t1 1.5v1h-1q0 1 0.5 2l0.5 1h-1v2v1q1 18 24 96l-1 3q1 2 2.5 7t2.5 8q1 2 1.5 6t1.5 6.5t3 8t3 7.5q2 8 5 16
q-10 3 -14 5q-8 3 -15 9q-19 13 -32 27q-4 6 -11 18q-17 29 -23 49q-8 29 -7 55t11 62q0 2 1 5.5t2.5 6.5l3.5 7l2 4q2 5 4.5 10.5t3.5 6.5q0 2 1.5 3t1.5 2q8 13 18 25v1l6 6q44 39 81 53q6 3 31 8l3 1h10q27 1 43 0q1 1 1 3q2 4 5 11t4 9v2q0 2 1.5 3.5t1.5 2.5
q8 16 16 29q7 10 8 12q10 10 12 10l1 1h1h1q0 1 0.5 1h1.5q3 0 4 -1h1q5 -3 5 -5v-2q1 -2 2 -3v0v-2h1q1 -1 2.5 -3.5t2.5 -4.5t1 -3q0 -4 -6 -20q-2 -5 -7.5 -17t-8.5 -19q-2 -4 -5 -14q12 -3 20 -7q41 -17 55 -28q1 0 5 -2l4 -3v-1l4 -2q4 -3 5 -3.5t2 -2t2 -1.5
q12 -11 12 -11.5t2 -1.5l2 -2q3 -6 -2 -10q-2 1 -6 2q-5 1 -11 4h-1v-1q-1 0 -5 2.5t-5 2.5q-5 2 -20.5 7.5t-22.5 9.5q-32 16 -49 23q-13 -36 -17 -47q0 -2 -1 -4.5t-2 -3.5q0 -2 -0.5 -5t-1.5 -3q-5 -18 -18.5 -59.5t-17.5 -55.5l-21 -58q-1 -2 -1.5 -5.5t-0.5 -6.5v-4
q-2 -10 -8 -27q-2 -5 -3.5 -7t-2.5 -7v-3l-6 -18q8 -1 12 -1q17 -1 33 2q9 2 15 4q4 1 15 5q55 21 72 30q13 7 27.5 15.5t16.5 9.5q7 4 15 9q6 3 6 1q0 -1 0.5 -1t10.5 6l11 7q-11 -24 -11 -25q-6 -6 -13 -11t-14 -9t-9 -6q-1 0 -5 -2.5t-5 -2.5v-1l-5 -2q-4 -3 -5 -3v-1
l-10 -5q-80 -36 -164 -39v-1l-1 1l-1 -1q1 -6 -6 -24q-9 -26 -15 -51q-1 -1 -2 -4.5t-1 -4.5q-1 -1 -1 -3t-0.5 -4t-2 -5.5t-2.5 -5.5q-3 -11 -5 -21q0 -1 -0.5 -3.5t-0.5 -4.5v-4.5v-3.5q-1 -9 -9 -25q-4 -9 -6 -10q-1 -2 -2 -3t-7 1l-2 -1l-2 -2q-21 9 -22 9z" />
    <glyph glyph-name="sterling" unicode="&#xa3;" horiz-adv-x="463" 
d="M-25 114q0 -11 10 -16q20 -10 35 -4q2 1 3 2q-3 1 -17 8q-2 1 -8 5t-11 6t-11 2q-3 0 -4 -0.5t0 -1.5q2 -3 3 -1zM414 331q0 -1 -2 -3l-3 -1h-1h-1l-1 -1h-1h-1h-1q-11 -5 -58 -14l-1 -1q-2 0 -4.5 -0.5t-4.5 -1.5q-1 0 -3 -0.5t-3.5 -1t-4.5 -0.5t-5 -1q-2 0 -9 -1
t-12 -2q-2 0 -5.5 -0.5t-5.5 -0.5q-4 -1 -13.5 -2.5t-14.5 -2.5q-20 -2 -28 -3t-19 -1q-10 -22 -19 -38q-23 -41 -63 -101q-2 -3 -6.5 -10t-7.5 -12t-4 -5q-13 -16 -26 -27l8 -4q15 -8 18.5 -9.5t5.5 -2t5 -1.5l6 -2q22 -7 28 -9q30 -7 55 -9q13 -1 22 0q11 0 22 1
q61 10 88 21q13 6 44 23q7 4 14 9h6l10 7q9 6 9 7q-7 -24 -8 -25q-5 -6 -11.5 -11t-14 -9.5t-9.5 -5.5l-5 -2l-5 -3v-1q-1 0 -5.5 -2t-5.5 -3q-5 -3 -11 -5q-55 -16 -133.5 -14.5t-150.5 23.5l-6 2q-5 2 -11 6q-4 -1 -10 -4l-5 -2q-39 -7 -79 0q-8 1 -20 10q-2 1 -3 3
q-1 0 -2 1l3 -2q-2 1 -3 4q-11 13 10.5 33t37.5 17q39 -6 75 -24q15 15 30 39q10 17 28.5 49.5t25.5 43.5q13 23 24 44h-1v-1l-4 1q-40 6 -42 6t-6.5 1.5t-5.5 1.5h-1q-1 1 -2 1.5t-2 0.5q-12 5 -20 12q-7 6 -9 10q-8 13 -7 16l-1 1v1h1v2v1l1 1v1q2 4 2.5 4t0.5 1
q1 1 6.5 2.5t6.5 1.5q1 -1 3 -1q4 0 5 -1h1q1 1 1 0.5t1 -0.5l1 -1h6h6h2q1 -2 1.5 -5t1.5 -5q4 -9 10 -14q3 -3 9 -5q15 -7 29 -9h2h2h2h2q4 -1 9 -1q8 17 14 32q1 5 2 8t2 7t2 7q1 5 3 12t3 9q2 8 6 33l2 6t1 5q4 21 10 56h-1l3 17q31 129 71 181q15 20 55 34l6 2
q13 2 17 2q38 -2 58.5 -8.5t46.5 -24.5q10 -8 21.5 -23.5t15.5 -28.5q5 -21 3.5 -49t-7.5 -37q0 -1 -2 -6q-3 -5 -4 -7q-1 -1 -4 -6.5t-4 -6.5t-3 -2.5t-3 -2.5l-16 -16t-3.5 -3t-3.5 -3q-5 -3 -9 0q-2 1 -1 2q3 3 5 7l7 14q1 1 0 1t-0.5 0.5t2 3.5t2.5 5.5t1 3.5q4 17 0 51
q-7 51 -30 77q-19 21 -43.5 30t-48.5 1q-15 -5 -33 -44q-30 -67 -42 -140q-1 -2 -2 -8t-1 -9q-1 -4 -1.5 -9.5t-0.5 -7.5q-13 -76 -48 -164q6 0 15.5 0.5t13.5 0.5q1 0 7 2q5 1 14 2q3 1 4 0.5t4 0.5h1q3 1 8 1.5t9 1.5h4v-1q3 2 14 3q14 2 28 6h2.5t2.5 0.5l2 1t2 0.5h3.5
t3.5 1q6 1 12 3q1 0 2.5 0.5t2.5 0.5t3 1l1 1q6 2 18 3h9h3l1 -3l2 -1h1v-5q0 -5 -1 -6zM-68 89l-1 1z" />
    <glyph glyph-name="currency" unicode="&#xa4;" horiz-adv-x="568" 
d="M548.5 577.5q0.5 -0.5 1.5 -3.5l1 -3l-1 -1v0h1v-1q-1 0 -1 -0.5t0.5 -0.5t-0.5 0v-1q-1 -8 -15 -25v-1l-1 -1q-1 -1 -1 -1.5t-0.5 -1.5t-1 -1t-1.5 -1l-1 -1q-2 -1 -3.5 -2.5l-2.5 -2.5q0 -1 -1.5 -1.5t-1.5 -1t-5 -7.5q-1 -2 -2.5 -4.5t-2.5 -4t-3 -4t-3 -3.5v-1.5
v-1.5h-1q28 -31 32 -98l1 -4q-1 -11 -4 -29t-5 -24q-4 -13 -11 -29q-16 -36 -34 -63q-9 -13 -23 -28q-37 -41 -70 -59q-42 -25 -86 -30q-47 -5 -98 11q-8 2 -16 6q-4 3 -13 10q-18 13 -21 16q-2 2 -3.5 4t-2.5 3q-14 16 -27 37l-1 -1l-6 13q-35 89 -31 148q0 11 6 27
q-2 1 -3 2l-2 2l-2 2q-2 2 -6 4.5t-6 3.5q-10 7 -12 8l-11 11q-1 0 -2 0.5t-1.5 1t-0.5 1.5t-1 1q-1 2 -3 3l-1 1v1q-1 2 -2.5 4t-2.5 3v-1h-1v3q-3 4 -8.5 12t-6.5 10q-1 1 -2 4t-1 4l-1 1q-1 0 0 1v1q-2 8 -3 17v5v4q2 11 2 12v1h1v1v1l1 1h1q3 3 3.5 3t0.5 0.5t1 0.5
t6.5 0.5t6.5 -0.5l3 -1q3 0 4 -1h1h1h1l1 -1q2 -1 5.5 -2t6 -1.5t3 -2l3.5 -10.5q0 -2 0.5 -6.5t0.5 -6.5q1 -1 2 -3l1 -2q5 -13 6 -14v-1q1 -1 1.5 -1t0.5 -1q2 -2 7 -9t7 -10q2 -2 4.5 -6t2.5 -5h2l2 -1q2 -1 5 -4v-1q0 -2 1 -2h1q18 21 31 31.5t34 21.5q22 10 50 14
q17 3 46 3t37 -1q1 0 6.5 -1t7.5 -1q6 3 42 13q1 1 6 1.5t6 0.5v1h3q2 0 4.5 0.5t3.5 0.5q4 1 11 1q48 0 75 -10q1 2 4 5t4 5l8 7q1 0 1 2v1q0 2 3 4q0 1 1 0.5t1 0.5v1l2 2l2 2l1 1h1l1 -1q-1 2 2 5q4 3 6 8h1v1.5v1t0.5 0.5t1 0.5t0.5 1.5q2 2 2 4q0 1 0.5 1.5t0.5 1
t-1 1.5v1q0 3 5 7l3 3h2q1 0 6 -2h2h1q17 -10 17.5 -10.5zM153 380q-1 0 -3.5 -0.5t-3.5 -0.5l-1 1v0q0 -1 -0.5 -1t-0.5 1h-1h-1v1q-3 0 -7 1q0 -5 1 -11q2 -57 21 -102q3 -8 4 -11q2 -4 6 -10q52 -81 107 -88q39 -5 87 18q6 3 18 14q22 21 29 28q3 4 5 6l2.5 2.5l2.5 2.5
t5 6l2 4q12 18 26 43l2.5 5t2.5 4.5t1 2.5l2 -1q1 5 6 20l6 18q12 42 10 78q0 9 -1 14q0 2 -1 4t-1 5q-1 2 -1.5 7t-1.5 8v3q-11 -1 -12 0h-3q-3 1 -4 2h-1q-1 0 -1 0.5t-0.5 1t-1.5 0.5q-12 7 -12 8q-1 4 2 13q1 3 2 5t3 5t3 4q-31 21 -55 21q-19 0 -42 -4q11 -3 14 -5
q1 0 5 -1l3 -1q6 -4 5 -8q-3 0 -10 1q-7 0 -17 2q-2 0 -1 -0.5t0 -0.5t-7.5 1t-8.5 2q-14 1 -27 1q-12 -3 -13 -4l4 4q-14 1 -30 0q-63 -2 -90 -22q-26 -20 -38 -58h1q1 -1 2 -1t1.5 -0.5t2 0t1.5 -0.5q3 -1 10 -8q4 -4 4 -5q1 -2 1 -3q1 0 -2 -4l1 -2v-2l-4 -5q-3 -5 -7 -8
zM51 47q0 1 1 3v2v1v1h1v0v1q1 1 15 20v1v1l1.5 1.5l1 1t0.5 1t1 1.5l1 1l3.5 3.5l2.5 2.5q0 1 1 2l2 1l5 10q1 1 2.5 5t2.5 5.5t3.5 5t3.5 5.5q1 0 1 1v1.5t1 0.5l1 1q1 1 1 3q0 1 0.5 1h1t0.5 1q2 3 3 5l1 1q3 3 10 17q1 1 2 3t2 2l-1 1l1 1h1q3 4 7 8q1 0 2 1.5t2 2
t2 1.5q3 3 4 2l1 1v0v0l1 1l1 -1q1 1 3 0h1q7 -3 8 -6l1 -2l2 -2q1 0 1 -1t1 -1q0 -1 2 -3t3 -3.5t1 -2.5q-1 -2 -4 -9q-1 -2 -3.5 -5t-3.5 -4t-1.5 -3t-1.5 -3q-1 -2 -4 -7t-4 -7q0 -1 -1 -1v-1v-1l-1 -1q-1 -4 -14 -23q-1 -1 -9 -10q-1 0 -1 -1.5v-2.5q0 -2 -3 -5
q-1 -1 -2 -1t-1 -1v-1q-1 0 -2.5 -2t-2.5 -3t-2 -1l-1 1q0 -3 -4 -5q-5 -4 -9 -9l-1.5 -1.5t-1 -0.5t-0.5 -0.5t-0.5 -1t-1.5 -1t-2 -0.5q-2 -2 -4 -5q-1 0 -1.5 -0.5l-1 -1t-0.5 -1.5v-1q-3 -2 -11 -4q-4 -1 -5 -1h-3l-2 3l-1 1h-1q-1 1 -2.5 4.5t-1.5 6.5zM610 69
q0 -1 -2.5 -1.5t-3.5 -0.5v1h-1v-1l-1 1v-0.5t-0.5 -0.5t-1.5 1v0q-8 1 -30 14h-1q-1 0 -2 1t-2 1q-1 1 -2 1.5t-1.5 0.5t-1.5 1.5t-2 1.5q-1 1 -3.5 3t-4.5 4l-2 2q-1 1 -1 2q-2 1 -6.5 3.5t-5.5 3.5q-10 7 -11 8l-11 11q-1 1 -2 1t-1.5 0.5t-0.5 1.5v2q-2 1 -3 2l-1 1v1
q-1 2 -3 4t-2 3l-1 -1l-1 2q-2 5 -7 12.5t-6 9.5q-1 1 -1.5 4t-1.5 3l-1 1v1v1q-1 7 -1 16q1 7 1 8l4 10v1l0.5 0.5t0.5 0t0.5 -0.5t0.5 1v1h1h1q3 2 3.5 2t0.5 0.5t1 0.5t6 -0.5t6 -1.5l3 -1q3 -1 3 -2h1.5h1t1 -0.5t0.5 -1.5q2 0 5.5 -1t5.5 -2t3 -2t3 -6q0 -1 -0.5 -4.5
t0.5 -4.5q0 -1 0.5 -2.5t1.5 -2.5q4 -11 4 -12q1 0 1 -1v0l1 -1q2 -2 6.5 -9t6.5 -10q2 -2 4.5 -6t2.5 -5h2h2q2 -1 4 -4q1 -1 1 -2t1 -2q1 0 3 -1.5t3 -3.5l1 -1l-1 -2q2 1 5 -2q4 -6 10 -9h1q1 -1 1 -1.5t0.5 -0.5t1 -0.5t1.5 -1t1 -1.5q2 -2 6 -3v0q1 -1 2 -1h2h1
q3 0 8 -7q3 -3 3 -4t1 -2q0 -1 -2 -4l1 -2v-2z" />
    <glyph glyph-name="yen" unicode="&#xa5;" horiz-adv-x="518" 
d="M241 340q0 1 -1 2v0l-2 1h-1q-1 0 0 -1h1q1 -1 3 -2zM296 355q-10 -2 -14 -2q-4 -1 -14 -2q0 -1 1 -3v-2.5v-2t1 -1.5t1 -2v-3v-2q0 -6 2 -10q1 -1 1 -1.5v-1.5q7 9 11 15l1 2q1 1 2.5 3.5t2.5 3.5q1 2 2.5 4t1.5 3q1 1 1 2zM408 242q-1 -2 -4 -3l-4 -1h-1q-1 -1 -2 -1
h-1q-1 0 -1 -1h-1h-1q-16 -5 -58 -10h-2q-1 -1 -3 -1h-4q-1 0 -2.5 -0.5t-3 -0.5h-3.5h-4q-3 0 -8 -0.5t-8 -0.5h-4h-4q-4 0 -12 -1t-9 -1q-3 0 -8.5 -1t-9.5 -1q-3 -21 -3 -22t-2 -5q0 -1 -1 -2v-2q-3 -11 -23 -66q0 -1 -17 -39q-1 -1 -1 -3.5t-1 -5.5v-2q-1 -7 -6 -19
l-3 -4.5t-3 -5.5v-2q-1 -4 -3.5 -11t-4.5 -12l-3 -6l-2 1q1 -5 -5 -20q-8 -20 -13 -40q0 -1 -1 -3.5t-1 -4.5v-2.5t-0.5 -3l-1.5 -4.5t-2 -5q-3 -9 -3 -18v-2v-4q0 -2 1 -4l1 -3q0 -6 -4 -23l-2 -9q-2 -2 -2 -3t-7 -2l-2 -2l-2 -2q-2 0 -7.5 -1t-9.5 -1t-9 2q-1 0 -2.5 2
t-3 4.5t-1.5 3.5q-1 0 0 2v1h-1q-1 0 -0.5 1.5t0.5 2t-1 -0.5v2v2q-2 27 16 93v3q1 2 2.5 6t1.5 6q1 2 1.5 5.5t1.5 5.5t3 6.5t3 5.5q1 5 5 14.5t7 15.5q1 2 3 7t3 7q3 8 7.5 22t5.5 17q2 4 6 17t7 19q2 6 6.5 18t7.5 18q0 2 0.5 4t0.5 3q1 2 2 3.5t1 2.5q1 2 1.5 4t0.5 3v2
l1.5 1.5t0.5 1.5q2 7 4 13h-1l1 2q1 4 2 11h-5v-1l-4 1q-12 -1 -37 -5q-1 0 -3.5 -0.5t-4.5 -1t-3 -0.5h-1q-1 -1 -2 -1h-2q-3 0 -22 -3q-2 0 -6 -1t-6 -1q-1 0 -5 -1t-6.5 -1.5t-3.5 -0.5q0 1 -1 1l-1 -1h-2h-1h-1q-4 0 -4 0.5v0.5l-1 -1q-1 1 -2 3t-1 3q1 0 1.5 1.5
t1.5 1.5t0 1l1 1q1 0 1 1l10 8q8 3 23 6l28 4q2 1 6 1.5t7 1.5q6 1 17 2.5t15 1.5h1h2q1 1 2 1h2q4 1 10 1q3 20 5 30q1 2 9 23v3q2 3 3 4l-1 2l-1 1q-1 2 -1.5 6t-1.5 5l1 1q0 1 -1 1v1q0 4 4 10q-1 5 -4 17l-1 1v3q-8 -1 -23 -3t-16 -2h-7t-6 -1h-1h-2h-2h-25h-3.5h-5
h-3.5q-15 1 -16 2h-1h-1h-1h-1.5h-0.5l-1 1l-3 2h-1q-1 1 -1.5 3.5t0.5 2.5t2 1.5t2 1.5v1h1h2q10 6 11 6h11.5h10.5q4 1 13.5 1h15.5l14 2q31 3 35 3q0 4 -0.5 10.5t-1.5 10.5v6v5q0 5 -2.5 15.5t-2.5 13.5q0 1 -2 12.5t-3 17.5q-1 7 -2 18.5t-2 16.5q0 2 -0.5 3.5
t-0.5 3.5q-1 1 -0.5 3.5t0.5 3.5q0 2 -0.5 4t-0.5 4l-1 2q0 1 0.5 2t-0.5 1q0 10 -1 17h-1v5q0 14 -7 51q0 3 -0.5 8.5t-1.5 6.5l-1 1q0 1 0.5 2.5t0.5 2.5q-2 10 -2 25q0 1 -0.5 5t-0.5 6v5v5.5t1 3.5v0q-1 1 -1 1.5t1 0.5v0v1.5t0.5 1t1.5 0.5l2 3l1 1q9 6 12 4h4h4
q0 -1 1 -1l1 1l1 -1h1q2 -1 6.5 -2t7 -2t3.5 -3q2 -6 6 -23q1 -5 2 -16.5t2 -15.5q0 -3 1 -8.5t2 -7.5q1 -6 3 -22t3 -22v-2.5v-2.5q1 -2 1 -3l1 -2q2 -13 5.5 -40.5t3.5 -28.5q0 -2 2 -34q0 -1 0.5 -3t1.5 -4l1 -1q2 -6 3 -15q0 -2 -1 -3.5t0 -4.5l1 -1q0 -3 1 -8t1 -9
l-1 -5h-2q4 -3 4 -13q4 1 7 1q4 1 27 2q2 0 6 1l1 1q5 1 10 1v1q1 1 4 4.5t4 5.5q4 5 10.5 16t7.5 13q19 30 20 31q0 1 23 34q1 1 2.5 3.5t2.5 3.5q1 2 3 4l2 2q2 3 3.5 5t2.5 4l1 2q1 1 2 1.5t1 1.5q3 3 13 17l4 5q8 9 23 27l20 24q2 3 7.5 8.5l6.5 6.5l1 2q1 1 2.5 2
t2.5 2q14 13 29 24q12 10 15 12q19 12 21 12q1 0 2 1l1 1h1l1 1q1 1 1.5 1h1h1.5l5 1l1 1h1l3 -3t1 -2v-3q-1 -2 -2 -3q-1 0 0 -1l-1 -2l-1 -1q-1 -1 -3.5 -7t-5.5 -9q-1 0 -10.5 -9t-13.5 -14q-29 -29 -31 -30q-2 -3 -13 -17q-26 -33 -34 -43q0 -1 -1.5 -2.5t-1.5 -2.5
q-1 -1 -2 -3t-1 -3q-7 -9 -23.5 -33.5t-22.5 -34.5q-2 -2 -24 -32q-1 -1 -2 -3t-1 -4l-1 -2q-3 -6 -9 -15h17h3h2.5h1.5h2t3.5 -0.5t3.5 -0.5h12h2.5h2.5h3.5h2.5q8 0 21 -4q9 -2 10 -3q2 -2 3 -2q1 -1 0 -4l2 -1l2 -2q-1 -2 -2.5 -4.5t-2.5 -4.5t-3 -3q-1 -1 -4 -1h-4
t-1.5 0.5t-1.5 0.5v-1l-1 1h-1v-1l-1 1h-1q-7 0 -26.5 2.5t-30.5 3.5h-2h-3.5h-3.5h-3h-3h-4h-4h-8q-1 -1 -2 -3l-4 -4l-1 1q0 -5 -8 -14q-11 -12 -21 -26q-1 -1 -2 -2.5t-2 -2.5t-1.5 -2t-1.5 -2l-3 -3l-2 -2q-5 -5 -10 -11q-1 -1 -2 -2.5t-2 -2.5q0 -1 -1 -2.5t-1 -2.5
q-7 -6 -19 -12q-7 -3 -9 -3q-1 -7 -1 -9q-1 -5 -2 -11h8q1 0 5 2h1q3 1 10 1q2 0 3 -0.5t3 -0.5l1 1q2 0 6 0.5t7 0.5h3v-1q3 1 11 1q11 1 23 2h2.5t2 0.5t1.5 0.5h2h3h3q6 1 11 2q1 0 2.5 0.5t2.5 0.5t2.5 1t2.5 1q4 1 19 2q10 1 11 1q2 -1 4 -1q1 0 1 -2l3 -1h2z" />
    <glyph glyph-name="dieresis" unicode="&#xa8;" horiz-adv-x="312" 
d="M119 517q4 2 5 2q2 1 8 1q2 1 9 2t12 1q9 1 15 -4q13 -14 10 -32q-2 -14 -12 -25q-9 -9 -27 -14q-4 -2 -5 -2h-4h-1q-3 -1 -5 -2h-3q-1 0 -1.5 0.5t-1.5 0.5q-6 -1 -13 0v-1h-1l-3 1q-29 12 -39 28q-2 3 -3 18l-1 1l3 6q7 13 20 24q1 0 3.5 3t4 4t3.5 3t4 3.5t3 1.5l1 1
v0q1 0 2 1v1h1h4h1v1q1 0 4 -3l3 -2q0 -1 1 -2.5t1 -3.5l1 -1v-1l-1 -1q1 -2 1.5 -5.5t0.5 -4.5zM128 490q-3 0 -6 -1.5t-4 -2.5l-1 -1q1 -1 10 0h1v2.5v2.5zM142 498v1q0 -1 -1 -0.5t-1 -0.5q-4 -2 -6 -6q3 1 7 4zM140 484q0 2 -1 2q-3 2 -7 3q0 -1 -1 -3v-1l1 1q2 0 3 -3
l4 1h1zM290 483q-15 11 -9 25l-1 1q1 1 2 2.5t2 2.5l1 2q1 1 1.5 2t2.5 2l2 2q7 6 11 9l6 3q9 5 15 6q2 1 7.5 3t8.5 2t10 -1q14 -5 15 -28q0 -1 0.5 -3t0.5 -3.5t-1 -3.5t-1 -3q-1 -3 -1 -7v-4q0 -1 -1 -2l-1 -1q-2 -6 -5 -13l1 -1l-3 -3q-16 -16 -29 -18q-8 -2 -10 -2
l-2 -1q-3 -1 -4 -1q-18 4 -20 18q-1 6 1 12q0 1 1 3zM125 493h-1h-2q1 -1 2 -1q0 1 1 1z" />
    <glyph glyph-name="copyright" unicode="&#xa9;" horiz-adv-x="725" 
d="M292 694q101 41 208 25q120 -19 220 -124l6 -7q15 -24 26 -47.5t16 -42.5q8 -28 9 -53q3 -68 -10 -126q-7 -31 -21 -61q-42 -87 -95 -135q-68 -62 -149 -83q-68 -17 -184 -6q-24 2 -44 6q-22 4 -41 11q-39 13 -56 22q-6 3 -16 10q-38 24 -72 59h-1l-16 21q-32 65 -46 144
t-5 133q4 26 30 83l4 9q8 15 14 22q35 44 58 65.5t62 44.5q36 21 83 28q9 2 20 2zM198 599q3 10 8.5 19.5t9.5 14.5t11 13t8 9l7 7q-27 -10 -48 -25q-66 -47 -106 -140q-17 -39 -20 -84q-3 -51 7.5 -109.5t26.5 -93.5q4 -9 11 -20.5t13 -18.5q67 -78 146 -102
q94 -28 174 -15q86 13 159 69q13 10 29 32q32 43 42 62q18 34 19 36l2 8q14 39 22 86q4 20 4 23l2 -1q-1 7 -1.5 34t-2.5 37q-13 80 -50 141q-7 12 -19 25l-17 17q-20 19 -31 26q-41 27 -82 38q-20 6 -40 9q-28 4 -44 3q-32 -1 -61 -5q17 -1 24 -3q1 0 6 -1t9.5 -2t6.5 -2
q1 0 10.5 -2.5t11.5 -3.5q3 -1 6.5 -2.5t4.5 -1.5q30 -12 34 -14q1 -1 6 -3t5 -3q9 -5 8 -10q-1 -1 -3 0q-4 1 -13 4q-9 2 -25 7l-1 -1q0 1 -10 4t-13 4q-59 13 -96 13q-22 0 -42 -2q-10 -4 -16 -9q-22 -16 -48 -50q-6 -9 -13 -21q-5 -8 -7 -5q-1 1 -1.5 1t-1 -1l-1.5 -3
t-2 -3.5t-2.5 -4t-1.5 -4.5q-1 -1 -3.5 -5t-4 -6.5t-1.5 -4.5q-1 6 -3 16.5t-2 12.5v11zM538 271q-1 -4 -4 -7t-6.5 -6t-4.5 -4l-2 -2q-2 -1 -3 -1v-1l-2 -2q-2 -1 -3 -2h1l-6 -4q-26 -18 -66 -31.5t-79 -16.5h-4q-6 0 -19 2q-12 1 -16 2q-8 2 -18 5q-24 8 -42 17l-20 10
q-42 24 -58 41q-24 27 -28 57q-4 27 10 66q3 9 5 12q1 3 2.5 5t2.5 4l2 2q2 4 4.5 8t4 6t2.5 3t3 2l1 2q10 12 23 24h-1v1l8 5q51 35 88 46q7 1 30 4h3h8q33 -3 56 -14q17 -8 28 -21q7 -10 16 -24.5t10 -20.5l2 -4q1 -3 1 -4h-1l2 -4q1 -3 1 -4v-2.5v-2.5q1 -14 0.5 -14.5
t0.5 -2.5v-2q-1 -2 -6 -5t-6 -1q-1 1 -5 4q-3 3 -6 8h-1q-1 -1 -1 -0.5t-2 3.5t-2 4q-3 4 -12.5 12t-12.5 13q-18 31 -27 40q-21 18 -49 20q-12 0 -27 -5q-34 -14 -60 -40q-3 -4 -6 -6q-2 -4 -4 -7q-13 -21 -21.5 -47.5t-7.5 -42.5q1 -22 6 -40q0 -1 8 -10q3 -4 8 -11t7 -9
q3 -3 4.5 -5.5t6.5 -6.5l3 -2q10 -7 28 -17q1 -1 3 -2t3 -2l1 -1l-1 -1q3 0 7.5 -2t9.5 -4.5t8 -3.5q28 -11 55 -14q5 -1 11 -1q2 0 4.5 0.5t4.5 0.5q11 0 14 1q15 3 27 8q7 3 10 5q2 1 4 2.5t3.5 2.5t2.5 2q9 6 23.5 15t17.5 11q4 3 9 6.5t8 5.5t5 4l8 4q2 2 4 -1l6 3l2 1
q3 1 3 2q0 -3 0.5 -7t0.5 -6t-1 -5z" />
    <glyph glyph-name="ordfeminine" unicode="&#xaa;" horiz-adv-x="441" 
d="M493 503q0 -1 -1 -3t-2.5 -4t-2.5 -2q0 -1 -1 -2h-1v-1l-1 -1h-1v-1l-1 -1h-1q-20 -17 -57 -31l-1 -1q-2 0 -4 -0.5t-3 -1.5q-1 0 -3 -0.5t-3 -0.5l-7 -1q-9 -1 -15 -2q-1 0 -3.5 0.5t-3.5 -0.5h-19q-11 1 -18 2q-7 2 -19 6q-1 1 -2.5 1t-2 0.5l-1.5 1.5t-2 1q-1 1 -3 2
l-3 1v1.5t-1 0.5q-4 3 -8 7h-1l-1 2q-14 22 -17 28q-29 -36 -66 -62l-2 -1q-3 -2 -13 -6l-10 -5q-5 -2 -12 -3q-15 -4 -27 -4q-5 -1 -13 0q-25 3 -36 12q-18 15 -21 40q-3 20 10 50l4 10q1 2 3 5l3 3q2 4 5 8.5t3 5.5l2 2t2 1q8 10 17 20v1l6 5q42 35 67 48q2 1 22 9l3 1
q1 0 6 1q23 4 40 3q14 -1 21 -5q7 -3 14.5 -10t8.5 -11l1 -2l1 -2q0 -1 1 -3t1 -2.5v-1.5l-1 -1q0 -8 -0.5 -8.5t0 -1.5t-0.5 -1q0 -2 -5.5 -4t-6.5 -1q-1 0 -4 1q-3 2 -5 4l-1 -1h-0.5t-1.5 1.5t-2 1.5q-2 1 -5.5 2t-6 2t-3.5 2q-7 16 -11 17q-14 6 -37 -3q-9 -4 -20 -11
q-27 -20 -45 -42l-4 -5q-2 -2 -4 -6q-24 -44 -21 -68q2 -14 1 -23l2 -2q1 -2 0.5 -4.5t-0.5 -3.5q2 -5 2 -6h1q4 -3 11 -4l4 -1q2 0 7 1.5t6 2.5q17 6 32 19q6 4 7 5t2 2.5t3 2.5q1 1 4 3.5t4 3.5q9 9 15 18q5 7 6 8q1 3 2.5 6t1.5 4q5 9 13 21.5t9 13.5l4 8l3.5 7t2.5 4
q3 3 4 6q1 2 7 0q0 1 1 1v1l2 2q1 1 2 3l1 2q1 -2 3 -3q10 0 11 -2q0 -1 2 -3q2 -1 3 -3q1 -1 1.5 -1t0.5 -1v-2q2 -1 4.5 -4t4.5 -5t2 -4q0 -3 0.5 -9t0.5 -9t-0.5 -8.5t0.5 -8.5q0 -1 1 -3l1 -3l4 -15v0q0 -1 0.5 -1.5t1 -0.5t0.5 -1q8 -15 13 -19q6 -6 11 -8q1 -1 3 0h1
q1 0 7 -2q1 0 1.5 -0.5t2.5 -0.5h10h2v-1q1 1 9 2q9 1 18 5q1 1 2.5 1.5t2 0.5t1 0.5t1.5 1t2.5 1t2.5 1.5q5 2 10 6l2 1q1 1 2 1.5t2 2.5l1 1q1 2 17 13l10 6l4 2q1 1 3 -2l3 1l3 1q6 -14 6 -15z" />
    <glyph glyph-name="guillemotleft" unicode="&#xab;" horiz-adv-x="416" 
d="M247.5 -1q-2.5 -1 -7.5 1l-6 1l-2 1h-1h-1q-2 1 -2 1.5v0.5l-1 -1l-1 1q-1 1 -2 1q-29 13 -64 53l-1 1q-1 1 -3 3.5t-3 4.5l-3 3t-2.5 3t-2 4.5t-2.5 4.5q-2 2 -5.5 8.5t-5.5 10.5q-1 2 -2.5 5.5t-2.5 4.5q-1 2 -19 27q-3 4 -10.5 14.5t-11.5 15.5q-7 10 -16 27
q-1 2 -2 3t-1.5 2.5t-0.5 3.5l-1 2q-1 2 -2 5l-1 3v2l1 1q-1 8 2 16h-1l3 4q17 14 34 24q2 1 6.5 3.5t5.5 3.5l1 1q1 1 2 1l2 1q3 1 31 16q2 1 9 5t10 5q3 2 10 6t12 7t7 4l2 2q2 1 3 1v-1q0 1 2 2t2.5 1.5t1.5 0.5h2l8 4h2l1 1q4 0 6 -4q-1 -1 -2 -3q-2 -3 -5 -6v0
q1 0 1 -0.5t-2 -2t-3 -2.5q-2 -2 -5.5 -6.5t-6.5 -8t-6 -5.5q-13 -8 -39 -23q-6 -4 -17.5 -10t-16.5 -9q-7 -4 -10 -8q-10 -10 -3 -14q0 -1 2 -1h2q1 1 2.5 -1t3.5 -7.5t4 -9.5q3 -6 8.5 -16.5t8.5 -15.5l3 -3t4 -3l2 -2q6 -7 10 -15q2 -2 2 -4t1 -4l2 -1q1 -1 4 -6t5 -9
l2 -4l-2 -1q4 -1 9 -11q7 -14 16 -26q1 -1 2 -2.5t1.5 -2l1.5 -1.5t1.5 -2l1.5 -3t2 -3q4 -6 9 -11l2 -2l2 -2t3 -2h2q3 -3 6 -6.5t5.5 -7t3.5 -4.5q2 -3 5 -6l4 -4q1 -2 3 -4q1 -1 -1 -4l2 -2l2 -3q-1 -2 -3 -4.5t-4 -4.5t-4.5 -3zM456 25q-3 -1 -5 -0.5t-5 1.5t-4 1
t-2 0.5t-2 0.5l-2 1q-1 1 -1.5 1t-0.5 -1l-2 1l-1 1q-32 13 -76 53l-2 1q-2 1 -4 3.5t-4 4.5q-1 1 -3.5 3t-3.5 3.5t-3.5 4.5t-3.5 4q-2 3 -7.5 9.5t-8.5 10.5q-1 1 -3.5 5t-4.5 5q-21 23 -22 25q-15 18 -16 21q-1 2 -7.5 3t-17 6t-19.5 16l2 1q2 1 4 3t3.5 2.5t4 2t3.5 2.5
q2 1 4 3l3.5 3.5t2.5 1.5q1 1 2 1.5t2 1.5q8 6 21 16l6 4q21 15 43 33q2 1 5 3.5t5.5 4.5t3.5 3l1 2q1 1 2.5 2t2.5 1q11 9 27 21q1 1 6.5 5.5t7.5 5.5q19 14 19.5 14t1.5 1l2 1q1 0 2 1l1 1h1h1q5 2 5.5 2h1.5t4 -2l2 -2q-1 -1 -1 -3t-2 -4l1 -1l-1 -2l-1 -1
q-1 -2 -2.5 -5.5t-2.5 -6.5t-3 -5q-6 -6 -26 -23q-1 -1 -33 -26q-1 -1 -6.5 -5.5t-9.5 -7.5l-12 -9t-13.5 -10t-9.5 -7q-1 -1 -3 -2.5t-3 -1.5l-3 -3l-2 -2q-8 -7 -16 -10q20 -2 34 -15q1 -1 3.5 -2.5t4.5 -2.5l2 -1q7 -6 12 -14q2 -2 2 -3.5t1 -3.5l2 -1q1 -2 5.5 -7
t6.5 -8l3 -4l-1 -1q4 -2 12 -12q11 -14 23 -26q1 -1 2.5 -3t2 -2.5t2 -1.5t2.5 -2t2.5 -3t2.5 -3q6 -7 12 -12q1 0 2.5 -1.5t3.5 -2.5q1 -1 3 -1.5t3 -1.5q4 -2 8 -6l8 -8l5 -5q2 -2 6 -5t6 -5q1 -2 3 -3t0 -5l3 -3l1 -2h1q-1 -2 -3 -4.5t-4 -4t-5 -2.5z" />
    <glyph glyph-name="macron" unicode="&#xaf;" horiz-adv-x="341" 
d="M346 556q0 1 0.5 1t1 0.5t0.5 -0.5l1 1v1h-1l-1 1v-1h-2h-1h-1h-1h-3q-3 -2 -1 -6l2 -2l2 1v2q0 1 2 2h1h1zM380 556l7 -2h1v-1h1v-1v-4q0 1 -1 1h-1l-1 1l-1 1h-1l-5 1q-3 -2 -2 -4l1 -1v-1v0q1 0 2 -1l5 -2l3 -1l-2 -2l3 -2q1 2 1 3l1.5 -1.5t0.5 -3.5v-1l1 -1
q0 -1 -1 -3q0 -5 -1 -5l-1 -2q-1 0 -1 -1l-1 -1q0 -1 -2 -1q-5 -6 -6 -6t-8 1q-1 0 -3.5 1.5t-3.5 1.5h-3h-1q-1 0 -5 1t-5 1h-1h-1h-1h-1q-1 1 -3 2h-1h-2.5h-2.5h-2.5h-2.5t-3 0.5t-3 0.5l-13 1q-1 1 -3.5 1h-3.5h-19h-10.5h-9.5h-11.5h-11.5h-2h-2h-2.5h-2.5h-5h-1h-1.5
h-1.5h-11h-3q-11 0 -36 -2h-5.5h-5.5l-1 -1h-2h-1h-20q-1 0 -4.5 -0.5t-5 -0.5h-4.5h-4.5h-3.5h-1h-1h-1h-1v1q-3 0 -3 1h-1q-4 3 -1 5l1 1q0 2 1 2v1l1 1h1q7 7 8 7q5 1 18 3q5 0 14 0.5t11 1t6 0.5t6 1q5 0 16 0.5t15 0.5h1h2h2l1 1q12 1 47 1q3 0 22 -1q1 0 5 1h1
q3 1 9 0q2 0 3 -0.5t3 -0.5l1 1q1 -1 4.5 -1h6.5l3 -1v-1q2 2 9 1q3 -1 6 -1q2 2 5 4q0 -1 1 -1q2 0 2.5 -0.5t7.5 1.5h1h1l1 1q0 1 1 1q7 1 25 3zM388 542h2q0 1 -1 4q0 -2 -1 -4z" />
    <glyph glyph-name="uni00B2" unicode="&#xb2;" horiz-adv-x="341" 
d="M393 325q-1 -4 -3.5 -7.5t-5.5 -6t-4 -4.5l-2 -1l-2 -2v-1l-2 -1l-2 -2v-1l-3 -2l-1 -1q-39 -35 -92 -56l-1 -1q-2 -1 -5.5 -2t-4.5 -1l-8 -2q-2 0 -9 -1q-12 -2 -21 -2h-2.5t-3.5 0.5t-3 0.5q-19 1 -24 1q-14 2 -23 5q-7 2 -22 9q-1 1 -2 1t-2 0.5t-2 1.5l-2 2
q-2 1 -5 2h-1q0 1 -1 2v0l-6 3l-3 2h-1l-2 2q-7 5 -25 16q-1 0 -3 1q-3 2 -3 3l-1 -1l-2 2v0q-9 4 -13 5q-2 1 -6 0h-2q-3 -2 -4 -1l-5 -1l-1 -1h-1v1v-1h-2h-1q-4 -1 -4 -2v2q-1 0 -2.5 2t-1.5 3l1 2q0 2 1 3q-1 0 -1 0.5t1 1.5h1q6 9 8 9q2 1 5 2q2 2 7 5t6 4l2 2q3 1 4 1
l-1 1q1 0 3 1.5t3 1.5v1l2 2q2 1 3 1q75 59 90 72l1 2q2 1 4.5 3.5l4.5 4.5l3.5 3.5l3.5 3.5t4 3.5t7 6t8 7.5q28 28 51 54q14 17 20 24q21 29 32 56q8 20 10 41q1 12 -1 26q0 1 -0.5 1.5l-1 1t-0.5 1.5l1 2q0 2 -1 4v1v1v1q-1 5 -4 9l-2 3q-19 11 -43 4q-9 -2 -16 -7l-1 -1
q-2 -1 -3.5 -1.5t-1.5 -1.5q-18 -13 -28 -24q-3 -3 -13 -17q-2 -3 -7.5 -13.5t-7.5 -11.5q0 -1 -1 -3l-1 -2q-1 0 -1.5 -2t-0.5 -2.5t-1 -1t-2 -0.5l-4 -6l-2 -2v-1q-1 -1 -6.5 -0.5t-5.5 2.5q0 1 -2 4q-1 3 -1 6q0 1 -1 1h-1q0 1 1 3v3q0 3 -0.5 7.5t-0.5 7.5t1 7t2 7
q14 22 34 39q17 14 47 26q12 5 22 6q23 5 52 3l5 -1h3.5t3.5 -1q18 -7 33 -30t13 -43q-1 -7 -2.5 -13t-4 -12t-4.5 -9.5l-6 -10.5t-5 -9t-2.5 -6t-2.5 -7l-2 -3q-7 -14 -19 -29q-4 -6 -6.5 -8t-7.5 -8l-2 -4q-21 -24 -35 -39l-4.5 -4.5l-4.5 -4.5l-2 -2l-1 1q-9 -13 -36 -37
q-36 -31 -41 -35q-1 -1 -3.5 -3t-3 -2.5l-2 -2t-3 -2.5l-4.5 -3t-4 -3q-8 -6 -18 -14q-1 -1 -3.5 -3t-3.5 -3q-2 -1 -4.5 -3.5l-3.5 -3.5q-12 -9 -39 -24q4 -1 7 -1q2 -1 26 -12l1 -1q1 0 1 -1h2t2 -1q6 -3 18.5 -11t16.5 -10t9.5 -5.5t8.5 -5.5h4h1q1 0 9 -3q2 0 2.5 -0.5
t2.5 -1.5l1 1q5 -1 13 -2h3v-1q1 0 12 2q13 2 27 8q5 2 6 2q0 1 1.5 1.5t2.5 1t3.5 2t4.5 2.5q8 4 15 10q6 4 7 5t3 3.5t3 2.5q5 5 11 9.5l12 9t8 6.5q4 3 8 6.5t6.5 5.5t4.5 3q4 3 7 5q2 2 5 -1l5 3l2 2q3 1 3 2q1 -3 2 -7.5t1.5 -6t-0.5 -5.5z" />
    <glyph glyph-name="uni00B3" unicode="&#xb3;" horiz-adv-x="317" 
d="M-8 329q4 0 9 -5l5 -4q1 0 2 -2l2 -1v0q1 0 2.5 -1t2.5 -2v1l2 -1l2 -2q29 -7 77.5 -2t93.5 20l3 2q16 8 19.5 10t14.5 10q13 9 16 11q15 14 22 28q5 11 5 17q-1 23 -14 44q-17 27 -48 29h-11.5t-11.5 0.5t-8 4t-9 10.5l3 2q1 1 4 2t4 2q5 3 24 13q3 2 6 3.5l5 2.5
q30 17 45 25v1l10 4q14 9 26.5 20.5t18 19.5t2.5 8q1 0 1.5 2.5t-1 5.5t-2.5 4l-2 2q-2 1 -4 3t-3 2q-36 14 -70 17q-20 1 -40 -4q-15 -5 -33 -21q0 -1 -1 -4q0 -1 -1 -1v-2q-1 -2 -1 -2.5t-1 -0.5t-1 -1l-3 -6q-1 0 -1 -1v-2q-1 -1 -7 -2t-6 0t-2.5 5t-2.5 8q0 1 -0.5 1
h-1.5q0 3 2 8q10 24 24 30q37 16 80 17q48 0 96 -18q14 -4 25.5 -13.5t9.5 -18.5q-3 -10 -9 -19t-12 -15.5t-16 -13.5t-15.5 -10t-16 -9t-11.5 -7q-2 -1 -5.5 -2.5t-4.5 -2.5q-2 -1 -5 -3t-4 -2q-23 -13 -46 -19q21 -2 45 -11q5 -1 15.5 -7.5t11.5 -7.5q24 -28 26 -44
q2 -7 0 -13t-2 -12l-1 -5q-11 -24 -27 -41q-1 -1 -3 -2.5t-4 -2.5l-1 -1l-1 1q-6 -9 -24 -19q-35 -19 -69 -34q-1 0 -16 -5q-1 0 -4.5 -1.5t-7.5 -2.5q-7 -2 -20 -5l-40 -8q-4 0 -16 -2q-3 0 -8.5 -1t-7.5 -1q-38 -1 -62 7q-21 6 -30 13q-2 2 -8 7q-2 3 2 6q1 1 -1 4
q-2 1 -2 2t-2 4v3q3 0 11 2.5t13 1.5z" />
    <glyph glyph-name="acute" unicode="&#xb4;" horiz-adv-x="339" 
d="M392 641q0 -1 -1 -3l-1 -3v-1h-1l-1 -1q0 -1 -1 -1q-6 -7 -38 -29v-1q-1 -1 -3 -2t-3 -2l-2 -2t-2 -1.5t-3 -2t-3 -1.5q-4 -3 -8.5 -6t-5.5 -4q-1 0 -4 -1.5t-4 -2.5q-2 -2 -17 -15q-3 -2 -9 -7t-8 -7q-1 -1 -8.5 -7t-10.5 -9l-2 -2l-2 -2l-2 -2t-2 -1l-4 -4q0 -1 -1 -1
q0 -1 -0.5 -1h-1.5q-4 -5 -8 -8v-1h1l-3 -2q-11 -10 -21 -26q-4 -7 -4 -8v-1l-1 -1h-1q-2 -4 -4 -7.5t-2 -5.5q-1 -1 -1.5 -3t-1 -2.5t-0.5 -2.5q-1 -3 -2 -3v-1h-1v-1v0h-1h-1l-3 -2h-1q-11 -3 -13 -1l-3 1q-3 0 -4 1q0 1 -1 0.5t-1.5 0t-1.5 0.5v1l-3 3q-9 6 -8 9
q1 7 8 19q1 2 16 19q1 1 3.5 4.5t4.5 5.5l12 12l10 10q0 1 1 1.5t2 1.5l1 1q1 1 1 2q12 11 39 33q3 2 22 14q1 1 3 5h1q3 4 9 8q2 1 3 1t3 1l1 2q1 1 4.5 3.5t6.5 3.5l3 2l1 -1q1 3 8 7q10 6 19 13q1 1 2 1.5t1.5 1t1.5 1t1.5 1t2 1.5t2.5 1l8 6q0 1 1 1.5t2 1.5t1 2l1 1
q3 3 12 7l6 3h3l2 -3h2h1l3 -5q3 -4 4 -7z" />
    <glyph glyph-name="uni00B5" unicode="&#xb5;" horiz-adv-x="457" 
d="M509 162q-1 -5 -4 -8.5t-7 -7.5t-6 -5q0 -1 -3 -3t-3 -3t-3 -3.5t-4 -2.5v-1l-1 -2q-2 -1 -3.5 -2t-2.5 -2q-51 -43 -86 -57q-71 -29 -135 12l-5 5q-8 16 -10 33q-2 -3 -5 -7l-9 -10q-69 -70 -115 -90q-14 -5 -44 -6h-4q-11 1 -13 3q-23 16 -32 31q0 -1 -1 -3
q-6 -14 -15 -33.5t-11 -24.5q-1 -2 -2 -5.5t-1 -7.5l-1 -3q-2 -8 -8 -25q-2 -4 -3.5 -6t-2.5 -7v-3q-2 -3 -3 -7.5t-3 -10t-3 -9.5l-3 -7l-2 1q1 -5 -3 -21q-6 -21 -6 -37q0 -1 -0.5 -3t-0.5 -3l1 -1v-2v-3v-3q-1 -3 1 -5q-3 -1 -2 -7.5t4 -8.5q6 -3 15 0q3 1 5 3q1 1 3 -1
q0 -1 4 1l3 3q4 -15 2 -16q-1 -4 -4.5 -5.5t-8 -3t-5 -1.5t-3.5 -1h-2q-1 0 -3 -0.5t-3 -0.5l-2 -1q-3 0 -4 1q-27 4 -40 23.5t-12 44.5v3q0 2 1 6t1 6q1 1 1.5 5t0.5 6l2.5 7.5t2.5 6.5q8 24 12 34q1 3 3.5 9t3.5 9q3 7 7 18q-3 2 -4 3q0 2 1 8q0 1 1.5 3t2.5 3v1v1.5
t0.5 2.5t0.5 3v0v1q-1 1 -1 3l1 2l3 1q-1 0 -3 2v1q1 1 1 0v2h1h1q-1 0 0 1q2 1 2 4v1v0v1h1q1 1 0 3v1q-1 1 -2 1l-1 1q0 2 4 5q3 2 4 3q1 0 2 0.5t5 -1.5q7 18 13 31q5 12 28 61q2 3 3 6.5t3 6.5q1 3 3.5 7t2.5 5l4 8t3 7t2 4t2 2.5t2 2.5l15 30v1l5 8l27.5 49.5
t21.5 39.5q3 5 8.5 14t7.5 11v3l3.5 3.5t1.5 2.5q14 20 28 38q11 14 14 16q15 15 17 16l1 1l1 1l1 -1l1 1l1 1h1h1q4 1 4.5 1t0.5 1h1q1 -1 3.5 -3t1.5 -3l1 -2v-3v-1v-1v-2q-1 -2 -0.5 -5t0.5 -6t-2 -5q-3 -5 -9.5 -15.5t-8.5 -13.5q-4 -6 -14.5 -22t-16.5 -26
q-1 -1 -15 -27q-13 -24 -15 -28q1 -1 0 -2q-2 -1 -2.5 -2t-0.5 -2l-1 -1q0 -1 -1 -1q-13 -25 -19 -38q-1 -1 -4 -6q-1 -4 -3 -11t-3 -10q-14 -42 -11 -73q1 -2 1.5 -10.5t1 -11.5t2 -9t4 -9.5t5.5 -6.5q11 -8 35 8q39 27 80 77q7 8 8 10l8 11q20 29 52 80q3 8 7 19
q5 11 14 30q3 6 9 19t10 21t10.5 17t14.5 13q28 18 36 -9q6 -24 -10 -48q-7 -11 -21 -33.5t-18 -27.5q-1 -3 -2 -7q-1 -2 -2 -5t-2 -5v-2l-2 1q1 -6 -2 -21l-3 -15q-5 -37 2 -63q2 -5 5 -10q2 -3 5 -7q7 -6 14 -7q17 -2 36 5q9 4 16 8q6 3 16 11q57 40 67 48q6 6 12.5 11
t10 8.5t6.5 5.5q5 3 8 6q2 2 5 -1l5 3q1 0 2 1q2 1 2 2q1 -3 2.5 -7t2 -6t-0.5 -5zM-53 -193v-1l1 1h-1z" />
    <glyph glyph-name="periodcentered" unicode="&#xb7;" horiz-adv-x="108" 
d="M92 171q3 -1 5 1l4 4zM67 195q2 5 6 9l1 1q1 0 3 1.5t3 2.5l2 1q1 1 3 2l6 3q10 5 16 7q1 0 8 1l8 3q8 2 13 2q10 0 18 -8t7 -17q-2 -10 -18 -35q-4 -6 -5 -6.5t-6 -4.5q-8 -5 -8.5 -5.5t-1.5 -0.5h-2q-4 -1 -14 -3h-4q-11 -1 -23 4.5t-16 13.5q-1 2 -1.5 5t-0.5 6v3
l-1 2q0 1 2 4q3 6 5 9zM105 184q0 4 1 6h-2v-5z" />
    <glyph glyph-name="cedilla" unicode="&#xb8;" horiz-adv-x="134" 
d="M-46 -243q3 1 8.5 -1t6 -2t2 -1t2.5 -1v1l1 -1q2 -1 3 -1v1l2 -1l2 -1q60 -10 111 3l2 1q10 4 11.5 5t7.5 6q7 5 8 6q7 9 10 18q1 5 1 8q-1 9 -5 23q-5 14 -16 32q-9 15 -26 23l-7 2q-2 0 -4.5 1t-3.5 1q-4 0 -12 1h-3h-2h-22v-1h-6q-18 -4 -43.5 5.5t-20.5 22.5
q2 4 7 13l6 8l1 3q1 2 2.5 3.5l2.5 2.5q14 19 31 39q16 18 17 19q20 21 20.5 21t1.5 2l1 1q0 -1 0.5 -0.5l1.5 1.5t1 1.5t1 0.5h1l5 2l1 1q1 0 4.5 -2t3.5 -3v-2q1 -3 0 -5v0q1 0 1 -0.5t-1 -2.5v-1q-4 -19 -5 -21q-4 -5 -13 -17t-14 -19q-22 -32 -29 -46l-3 -9q5 2 11 4
h3.5h3.5t3 0.5t3 0.5q67 4 98 -9q24 -10 44 -46q1 -1 3 -4.5t4 -6.5l2 -2q6 -16 5 -28q-1 -5 -2.5 -7.5t-2.5 -6.5v-3q-8 -15 -17 -25q-2 -2 -6 -4h-1l-1 1q-3 -7 -17 -13q-22 -11 -44 -18q-2 -1 -5.5 -1.5t-4.5 -1.5q-1 0 -3 -0.5t-4 -1.5q-4 0 -13 -1q-20 -3 -26 -3
q-2 0 -5.5 -0.5t-4.5 -0.5q-3 0 -6.5 -0.5t-4.5 -0.5q-23 0 -44 6q-17 4 -22 7t-6 4q-2 1 0 5l-2 2q-1 0 -1.5 0.5l-2.5 2.5l-1 1q1 1 6 5t9 5z" />
    <glyph glyph-name="uni00B9" unicode="&#xb9;" horiz-adv-x="274" 
d="M230 285q-1 -1 -3 -2l-2 -1h-1h-1h-1v0v-1v1q-1 0 -2 -1q-6 -1 -34 -2l-1 -1h-1h-3h-2h-1.5h-2h-2.5h-5h-5h-2q-2 1 -3 1t-4 -1q-2 -7 -3 -9q-2 -2 -3 -4q0 -1 -7 0l-2 -3l-2 -2q-3 1 -8 2t-9 2t-7 4q-2 2 -3 6h-1h-1h-7v-1l-3 1q-5 -1 -22 -3q-1 0 -3.5 -0.5t-3.5 -0.5
h-1v0h-2q-4 -1 -13 -1h-3.5h-3.5t-3.5 -0.5t-3.5 -0.5t-2 1l-1 -1v0v1h-1h-1l-3 1v1q-4 3 -2 5l1 1q0 1 1 2v1l1 1q5 6 6 7q3 0 13 2q3 1 8.5 1t7.5 1q2 0 4.5 0.5t3.5 0.5q3 0 10 1t9 1h2v0q1 0 1.5 0.5t1.5 0.5q4 1 10 1q4 29 28 96v2q0 2 2 6.5t3 6.5t2 5.5t2 6t3 6.5
l3 6q2 4 6.5 14t7.5 17q2 2 4.5 7t3.5 8q4 7 9.5 21t7.5 19q16 36 18 40q3 8 10.5 22.5t9.5 18.5q1 2 1.5 4t1.5 4t2.5 4.5t2.5 2.5q1 3 2 5.5t1 4.5l1 2l2 2t1 2q5 10 9 17v1h-1l3 5q9 15 19 40q-11 -3 -28 -10q-4 -2 -14 -6.5t-11 -5.5q-4 -1 -11 -4.5t-11.5 -5.5t-5.5 -2
l-1 -1l-2 -1v1q-1 0 -2 -1l-1 -1h-1q0 1 -1 1l-3 -1q0 1 -1 1q-4 3 -3 5v2q0 1 1 2l-1 1l1 1l1 1q9 11 12 13q24 14 48 23.5t57 14.5q10 2 21.5 -8t5.5 -22q-6 -14 -15 -30t-12 -22q0 -1 -1 -2.5t-1 -2.5q-1 -1 -1 -3l-1 -2q-6 -13 -19.5 -42t-17.5 -36q-3 -8 -7 -15.5
l-8 -15t-6 -11.5q-1 -1 -1.5 -4t-1.5 -6v-2q-2 -7 -8 -20q-2 -3 -3.5 -4.5t-3.5 -5.5v-2q-2 -4 -5 -11.5l-5 -12.5l-4 -7l-1 1q0 -5 -7 -20q-10 -21 -17 -42q0 -2 -1 -4.5t-1 -4.5q-1 -1 -1 -2.5t-0.5 -3.5t-2 -5l-2.5 -5q-4 -10 -5 -20q-1 0 -1.5 -3t-0.5 -4q0 -2 0.5 -5
t0.5 -4l-2 -10h2h2v-1q2 1 7 1h14h1h1.5t1 0.5t1.5 0.5h2l1 -1q4 0 8 1h1q1 0 1.5 0.5l1.5 1.5h1q4 0 12 -1q6 -1 7 -2h2v-3l1 -1l2 -1v-4q-1 -4 -2 -7z" />
    <glyph glyph-name="ordmasculine" unicode="&#xba;" horiz-adv-x="337" 
d="M268 645q4 -1 5 -1l3 -1q2 -1 3 -1v1q1 0 6 -2q32 -14 61 -49.5t42 -80.5l1 -4q-1 -11 -4 -23q-3 -11 -7 -17q-4 -9 -12 -17q-17 -18 -36 -31q-7 -5 -20 -11q-31 -15 -55 -20q-30 -6 -56 -4q-30 2 -58 16q-7 4 -12 8q-4 3 -8 10q-10 14 -12 19v4t-1 3q-3 18 0 39h-1v1
l4 12q33 79 63 114q2 2 23 21l2 3q1 0 8 5q24 15 48 26q15 7 27 11q33 11 37 11q1 0 3 1l3 1q1 0 3.5 1t3 1h1.5h2q9 2 9.5 1.5t1.5 -0.5l1 1q4 -1 4 -5q-1 0 -3 -2t-6 -4q1 0 0.5 -0.5t-3 -1.5t-3.5 -1q-1 -1 -10 -7t-15 -8q-32 -13 -43 -19zM243 629q-15 -10 -27 -23
q-8 -9 -17 -24q-29 -48 -37 -87q-1 -5 -2 -9q0 -4 1 -9q7 -52 29 -63q17 -9 50 -7q4 1 14 4q21 8 24 9l6 3t7 3l2 2q11 8 22 19l6 6q1 3 5 9l5 10q6 20 3 43l-1 9q-1 1 -1.5 3t-1.5 4q0 1 -1 6t-2 8q-5 13 -12 23q-5 7 -6 8q-1 2 -3.5 4t-3.5 3q-28 29 -30 30q-4 3 -8.5 5.5
t-8 4.5t-4.5 3q-4 2 -8 3z" />
    <glyph glyph-name="guillemotright" unicode="&#xbb;" horiz-adv-x="336" 
d="M-16 50q0 3 0.5 4.5t1.5 3.5l1 3q0 1 0.5 1.5l1 1t-0.5 0.5l1 1l1 1l-1 1l1 1l1 1q14 18 52 45l1 1q1 1 3.5 2t3.5 2l2.5 2.5t2.5 2t3.5 2t4.5 1.5q3 2 8.5 5t7.5 5q1 0 4 1.5t4 2.5q6 4 19 14q14 10 18 15q6 7 4 15q-1 0 -1.5 1t-1 1t0.5 1q-1 1 -1 2l-1 1h1q-1 5 -1 7
l-1 -1v3q-2 12 -15 34q-1 1 -2.5 4t-3 5t-2.5 3l-1 1q-1 1 -2 3v1q-7 12 -15 27q0 1 -2 4t-3 5.5t-2 4.5q-6 18 -6 20q1 0 0 1t-1 1.5t1 0.5v1q-1 1 -1 1.5t1 1t1 1.5q1 5 1.5 5t0.5 0.5t1 0.5q1 1 6.5 3t5.5 1q1 0 4 -1q3 0 4 -1h1h1h1q1 -1 2 -1q2 -1 5.5 -1.5t6.5 -1.5
t4 -2l5.5 -11t5.5 -10q2 -4 7.5 -14t8.5 -16q2 -2 5.5 -7t4.5 -7q5 -7 22 -36q0 -1 1 -2.5t1 -2.5t1 -2l1 -2q3 -15 -5.5 -34.5t-20.5 -27.5q-5 -4 -9.5 -6.5l-9 -5t-6.5 -3.5l-4 -4l-1 -1q-4 -3 -10 -7q-2 -1 -3.5 -1t-3.5 -1l-1 -1q-1 -2 -5 -4t-7 -4l-4 -2v1
q-2 -3 -10 -7q-12 -7 -21 -15q-1 0 -2.5 -1t-2 -1.5t-1 -1.5t-1.5 -1.5t-2.5 -2t-2.5 -1.5q-5 -4 -9 -9l-2 -1l-1.5 -3t-0.5 -3l-1 -2q-1 -2 -13 -15l-7 -8q-2 -1 -3 -2t-5 2l-3 -1l-2 -2q-1 2 -4.5 4.5t-5.5 4.5t-4 5zM184 46q0 3 3 6.5t3 4t2 1.5h1v1l1 1l1 1l1 1l1 1
q16 15 62 46l1 1q2 1 4.5 2.5t3.5 2.5t3.5 2.5t3.5 2.5t4 2.5t4 1.5q14 8 21 13q10 6 13 9q14 13 17 24q1 6 -3 13q0 1 -0.5 2.5t-0.5 3.5v4q0 1 -1 1.5t-1 1v2t-0.5 2t-3.5 5.5q-1 0 -1 1v1q-3 6 -8 11l-1 -1l-2 4q-5 6 -38 36q-2 2 -6.5 7t-5.5 6l-2 1q-1 1 -2 3l-1 1
q-12 16 -16 32q-4 11 -3 19q2 22 7 26l1 2v2h1l1 2q0 1 0.5 1.5t1.5 0.5l1 1q5 5 5.5 5h1.5v1q1 0 5.5 -1t4.5 -2t2 -3q2 -3 2 -5v0q1 0 1.5 -0.5t0.5 -1.5v-2q2 -3 6.5 -7.5t5.5 -7.5t2.5 -8.5t1.5 -7.5q5 -18 9 -24q2 -4 10 -12q18 -20 30 -30q0 -1 1 -2l2 -1l2 -2l2 -1
q38 -32 42 -57q2 -16 -17 -38q-1 -1 -5 -8q-6 -7 -15 -13q-3 -2 -5 -2.5t-5 -3.5l-2 -2l-25 -15l-5 -2v1q-2 -3 -12 -8q-13 -8 -25 -17q-1 0 -3 -1.5t-2.5 -2t-1.5 -1t-2 -1.5t-3.5 -2t-3.5 -2q-6 -4 -12 -9q-1 -1 -2.5 -2t-2.5 -2t-2 -3t-2 -2q-4 -4 -21 -15q-11 -7 -12 -7
l-4 -2q-1 -1 -4 2l-3 -1l-3 -1z" />
    </font>
</defs>
</svg>
